<?xml version="1.0" encoding="UTF-8" standalone="no"?><svg xmlns="http://www.w3.org/2000/svg" xmlns:xlink="http://www.w3.org/1999/xlink" contentScriptType="text/ecmascript" zoomAndPan="magnify" contentStyleType="text/css" version="1" stroke-miterlimit="2" clip-rule="evenodd" fill="#000000" preserveAspectRatio="xMidYMid meet" viewBox="0 0 1126 31" stroke-linejoin="round" fill-rule="evenodd"><g><g><path fill="#e5e5e5" d="M8.259,9.73L4.314,-0.77L5.679,-0.77L8.994,8.395L12.339,-0.77L13.674,-0.77L9.729,9.73L8.259,9.73ZM17.447,9.91C16.747,9.91 16.117,9.75 15.557,9.43C14.997,9.1 14.552,8.64 14.222,8.05C13.902,7.45 13.742,6.755 13.742,5.965C13.742,5.155 13.907,4.455 14.237,3.865C14.567,3.275 15.012,2.82 15.572,2.5C16.142,2.17 16.777,2.005 17.477,2.005C18.187,2.005 18.822,2.17 19.382,2.5C19.942,2.82 20.382,3.275 20.702,3.865C21.022,4.455 21.182,5.155 21.182,5.965C21.182,6.765 21.017,7.46 20.687,8.05C20.367,8.64 19.922,9.1 19.352,9.43C18.792,9.75 18.157,9.91 17.447,9.91ZM17.447,8.83C17.887,8.83 18.292,8.725 18.662,8.515C19.032,8.295 19.327,7.975 19.547,7.555C19.777,7.125 19.892,6.595 19.892,5.965C19.892,5.315 19.782,4.78 19.562,4.36C19.342,3.94 19.047,3.625 18.677,3.415C18.307,3.195 17.907,3.085 17.477,3.085C17.057,3.085 16.657,3.195 16.277,3.415C15.907,3.625 15.607,3.945 15.377,4.375C15.147,4.795 15.032,5.325 15.032,5.965C15.032,6.595 15.147,7.125 15.377,7.555C15.607,7.975 15.902,8.295 16.262,8.515C16.632,8.725 17.027,8.83 17.447,8.83ZM25.694,9.91C25.114,9.91 24.604,9.795 24.164,9.565C23.734,9.335 23.399,8.98 23.159,8.5C22.929,8.02 22.814,7.415 22.814,6.685L22.814,2.185L24.074,2.185L24.074,6.55C24.074,7.31 24.239,7.88 24.569,8.26C24.899,8.64 25.369,8.83 25.979,8.83C26.399,8.83 26.779,8.73 27.119,8.53C27.459,8.32 27.724,8.02 27.914,7.63C28.114,7.24 28.214,6.765 28.214,6.205L28.214,2.185L29.474,2.185L29.474,9.73L28.334,9.73L28.259,8.41C28.019,8.88 27.674,9.25 27.224,9.52C26.774,9.78 26.264,9.91 25.694,9.91ZM34.398,9.91C33.788,9.91 33.248,9.81 32.778,9.61C32.308,9.4 31.933,9.105 31.653,8.725C31.383,8.345 31.213,7.9 31.143,7.39L32.433,7.39C32.493,7.65 32.603,7.895 32.763,8.125C32.923,8.345 33.138,8.52 33.408,8.65C33.688,8.78 34.023,8.845 34.413,8.845C34.773,8.845 35.068,8.795 35.298,8.695C35.528,8.585 35.698,8.44 35.808,8.26C35.918,8.08 35.973,7.885 35.973,7.675C35.973,7.375 35.898,7.145 35.748,6.985C35.608,6.815 35.398,6.685 35.118,6.595C34.848,6.505 34.513,6.425 34.113,6.355C33.783,6.295 33.458,6.215 33.138,6.115C32.828,6.005 32.548,5.87 32.298,5.71C32.048,5.55 31.848,5.35 31.698,5.11C31.548,4.86 31.473,4.565 31.473,4.225C31.473,3.795 31.583,3.415 31.803,3.085C32.033,2.745 32.348,2.48 32.748,2.29C33.158,2.1 33.643,2.005 34.203,2.005C35.003,2.005 35.653,2.2 36.153,2.59C36.663,2.98 36.958,3.545 37.038,4.285L35.793,4.285C35.753,3.905 35.593,3.61 35.313,3.4C35.033,3.18 34.658,3.07 34.188,3.07C33.718,3.07 33.358,3.165 33.108,3.355C32.868,3.545 32.748,3.795 32.748,4.105C32.748,4.305 32.813,4.485 32.943,4.645C33.083,4.795 33.288,4.925 33.558,5.035C33.828,5.135 34.153,5.225 34.533,5.305C35.033,5.395 35.488,5.515 35.898,5.665C36.308,5.805 36.638,6.025 36.888,6.325C37.148,6.615 37.273,7.03 37.263,7.57C37.273,8.04 37.158,8.45 36.918,8.8C36.688,9.15 36.358,9.425 35.928,9.625C35.498,9.815 34.988,9.91 34.398,9.91ZM46.391,9.91C45.691,9.91 45.066,9.745 44.516,9.415C43.966,9.085 43.531,8.625 43.211,8.035C42.901,7.445 42.746,6.755 42.746,5.965C42.746,5.165 42.901,4.47 43.211,3.88C43.521,3.29 43.951,2.83 44.501,2.5C45.061,2.17 45.701,2.005 46.421,2.005C47.161,2.005 47.791,2.17 48.311,2.5C48.831,2.83 49.226,3.265 49.496,3.805C49.776,4.335 49.916,4.915 49.916,5.545L49.916,5.875C49.916,5.985 49.911,6.11 49.901,6.25L43.691,6.25L43.691,5.275L48.671,5.275C48.641,4.575 48.411,4.035 47.981,3.655C47.561,3.265 47.031,3.07 46.391,3.07C45.971,3.07 45.576,3.17 45.206,3.37C44.836,3.56 44.536,3.84 44.306,4.21C44.086,4.58 43.976,5.05 43.976,5.62L43.976,6.04C43.976,6.66 44.091,7.18 44.321,7.6C44.551,8.01 44.846,8.32 45.206,8.53C45.576,8.74 45.971,8.845 46.391,8.845C46.921,8.845 47.356,8.73 47.696,8.5C48.046,8.26 48.301,7.935 48.461,7.525L49.706,7.525C49.576,7.985 49.361,8.395 49.061,8.755C48.761,9.105 48.386,9.385 47.936,9.595C47.496,9.805 46.981,9.91 46.391,9.91ZM44.891,1.54L44.771,0.625L47.801,-1.28L47.966,-0.2L44.891,1.54ZM55.007,9.91C54.297,9.91 53.657,9.745 53.087,9.415C52.527,9.085 52.082,8.625 51.752,8.035C51.432,7.435 51.272,6.745 51.272,5.965C51.272,5.165 51.432,4.47 51.752,3.88C52.082,3.29 52.527,2.83 53.087,2.5C53.657,2.17 54.297,2.005 55.007,2.005C55.907,2.005 56.657,2.24 57.257,2.71C57.857,3.17 58.237,3.79 58.397,4.57L57.107,4.57C57.007,4.1 56.762,3.735 56.372,3.475C55.982,3.215 55.522,3.085 54.992,3.085C54.562,3.085 54.162,3.195 53.792,3.415C53.432,3.625 53.137,3.945 52.907,4.375C52.677,4.795 52.562,5.325 52.562,5.965C52.562,6.435 52.627,6.85 52.757,7.21C52.897,7.57 53.077,7.875 53.297,8.125C53.517,8.365 53.772,8.545 54.062,8.665C54.362,8.785 54.672,8.845 54.992,8.845C55.352,8.845 55.677,8.79 55.967,8.68C56.257,8.56 56.502,8.39 56.702,8.17C56.902,7.94 57.037,7.665 57.107,7.345L58.397,7.345C58.237,8.105 57.852,8.725 57.242,9.205C56.642,9.675 55.897,9.91 55.007,9.91ZM63.561,9.91C62.861,9.91 62.231,9.75 61.671,9.43C61.111,9.1 60.666,8.64 60.336,8.05C60.016,7.45 59.856,6.755 59.856,5.965C59.856,5.155 60.021,4.455 60.351,3.865C60.681,3.275 61.126,2.82 61.686,2.5C62.256,2.17 62.891,2.005 63.591,2.005C64.301,2.005 64.936,2.17 65.496,2.5C66.056,2.82 66.496,3.275 66.816,3.865C67.136,4.455 67.296,5.155 67.296,5.965C67.296,6.765 67.131,7.46 66.801,8.05C66.481,8.64 66.036,9.1 65.466,9.43C64.906,9.75 64.271,9.91 63.561,9.91ZM63.561,8.83C64.001,8.83 64.406,8.725 64.776,8.515C65.146,8.295 65.441,7.975 65.661,7.555C65.891,7.125 66.006,6.595 66.006,5.965C66.006,5.315 65.896,4.78 65.676,4.36C65.456,3.94 65.161,3.625 64.791,3.415C64.421,3.195 64.021,3.085 63.591,3.085C63.171,3.085 62.771,3.195 62.391,3.415C62.021,3.625 61.721,3.945 61.491,4.375C61.261,4.795 61.146,5.325 61.146,5.965C61.146,6.595 61.261,7.125 61.491,7.555C61.721,7.975 62.016,8.295 62.376,8.515C62.746,8.725 63.141,8.83 63.561,8.83ZM69.062,9.73L69.062,2.185L70.202,2.185L70.277,3.505C70.517,3.035 70.857,2.67 71.297,2.41C71.747,2.14 72.257,2.005 72.827,2.005C73.417,2.005 73.927,2.125 74.357,2.365C74.787,2.595 75.122,2.95 75.362,3.43C75.602,3.9 75.722,4.5 75.722,5.23L75.722,9.73L74.462,9.73L74.462,5.365C74.462,4.605 74.292,4.035 73.952,3.655C73.622,3.275 73.152,3.085 72.542,3.085C72.122,3.085 71.742,3.19 71.402,3.4C71.072,3.6 70.807,3.895 70.607,4.285C70.417,4.675 70.322,5.15 70.322,5.71L70.322,9.73L69.062,9.73ZM81.051,9.91C80.351,9.91 79.721,9.75 79.161,9.43C78.601,9.1 78.156,8.64 77.826,8.05C77.506,7.45 77.346,6.755 77.346,5.965C77.346,5.155 77.511,4.455 77.841,3.865C78.171,3.275 78.616,2.82 79.176,2.5C79.746,2.17 80.381,2.005 81.081,2.005C81.791,2.005 82.426,2.17 82.986,2.5C83.546,2.82 83.986,3.275 84.306,3.865C84.626,4.455 84.786,5.155 84.786,5.965C84.786,6.765 84.621,7.46 84.291,8.05C83.971,8.64 83.526,9.1 82.956,9.43C82.396,9.75 81.761,9.91 81.051,9.91ZM81.051,8.83C81.491,8.83 81.896,8.725 82.266,8.515C82.636,8.295 82.931,7.975 83.151,7.555C83.381,7.125 83.496,6.595 83.496,5.965C83.496,5.315 83.386,4.78 83.166,4.36C82.946,3.94 82.651,3.625 82.281,3.415C81.911,3.195 81.511,3.085 81.081,3.085C80.661,3.085 80.261,3.195 79.881,3.415C79.511,3.625 79.211,3.945 78.981,4.375C78.751,4.795 78.636,5.325 78.636,5.965C78.636,6.595 78.751,7.125 78.981,7.555C79.211,7.975 79.506,8.295 79.866,8.515C80.236,8.725 80.631,8.83 81.051,8.83ZM86.553,9.73L86.553,2.185L87.693,2.185L87.783,3.265C88.023,2.865 88.343,2.555 88.743,2.335C89.143,2.115 89.588,2.005 90.078,2.005C90.468,2.005 90.818,2.06 91.128,2.17C91.448,2.27 91.728,2.43 91.968,2.65C92.218,2.86 92.418,3.13 92.568,3.46C92.828,3 93.183,2.645 93.633,2.395C94.093,2.135 94.578,2.005 95.088,2.005C95.678,2.005 96.188,2.125 96.618,2.365C97.058,2.595 97.393,2.95 97.623,3.43C97.863,3.9 97.983,4.5 97.983,5.23L97.983,9.73L96.738,9.73L96.738,5.365C96.738,4.605 96.583,4.035 96.273,3.655C95.963,3.275 95.523,3.085 94.953,3.085C94.563,3.085 94.213,3.19 93.903,3.4C93.593,3.6 93.348,3.895 93.168,4.285C92.988,4.675 92.898,5.155 92.898,5.725L92.898,9.73L91.638,9.73L91.638,5.365C91.638,4.605 91.483,4.035 91.173,3.655C90.863,3.275 90.428,3.085 89.868,3.085C89.488,3.085 89.138,3.19 88.818,3.4C88.508,3.6 88.263,3.895 88.083,4.285C87.903,4.675 87.813,5.155 87.813,5.725L87.813,9.73L86.553,9.73ZM100.047,9.73L100.047,2.185L101.307,2.185L101.307,9.73L100.047,9.73ZM100.677,0.565C100.427,0.565 100.217,0.485 100.047,0.325C99.887,0.155 99.807,-0.055 99.807,-0.305C99.807,-0.555 99.887,-0.755 100.047,-0.905C100.217,-1.065 100.427,-1.145 100.677,-1.145C100.917,-1.145 101.122,-1.065 101.292,-0.905C101.462,-0.755 101.547,-0.555 101.547,-0.305C101.547,-0.055 101.462,0.155 101.292,0.325C101.122,0.485 100.917,0.565 100.677,0.565ZM106.351,9.91C105.741,9.91 105.201,9.81 104.731,9.61C104.261,9.4 103.886,9.105 103.606,8.725C103.336,8.345 103.166,7.9 103.096,7.39L104.386,7.39C104.446,7.65 104.556,7.895 104.716,8.125C104.876,8.345 105.091,8.52 105.361,8.65C105.641,8.78 105.976,8.845 106.366,8.845C106.726,8.845 107.021,8.795 107.251,8.695C107.481,8.585 107.651,8.44 107.761,8.26C107.871,8.08 107.926,7.885 107.926,7.675C107.926,7.375 107.851,7.145 107.701,6.985C107.561,6.815 107.351,6.685 107.071,6.595C106.801,6.505 106.466,6.425 106.066,6.355C105.736,6.295 105.411,6.215 105.091,6.115C104.781,6.005 104.501,5.87 104.251,5.71C104.001,5.55 103.801,5.35 103.651,5.11C103.501,4.86 103.426,4.565 103.426,4.225C103.426,3.795 103.536,3.415 103.756,3.085C103.986,2.745 104.301,2.48 104.701,2.29C105.111,2.1 105.596,2.005 106.156,2.005C106.956,2.005 107.606,2.2 108.106,2.59C108.616,2.98 108.911,3.545 108.991,4.285L107.746,4.285C107.706,3.905 107.546,3.61 107.266,3.4C106.986,3.18 106.611,3.07 106.141,3.07C105.671,3.07 105.311,3.165 105.061,3.355C104.821,3.545 104.701,3.795 104.701,4.105C104.701,4.305 104.766,4.485 104.896,4.645C105.036,4.795 105.241,4.925 105.511,5.035C105.781,5.135 106.106,5.225 106.486,5.305C106.986,5.395 107.441,5.515 107.851,5.665C108.261,5.805 108.591,6.025 108.841,6.325C109.101,6.615 109.226,7.03 109.216,7.57C109.226,8.04 109.111,8.45 108.871,8.8C108.641,9.15 108.311,9.425 107.881,9.625C107.451,9.815 106.941,9.91 106.351,9.91ZM114.36,9.91C113.66,9.91 113.035,9.745 112.485,9.415C111.935,9.085 111.5,8.625 111.18,8.035C110.87,7.445 110.715,6.755 110.715,5.965C110.715,5.165 110.87,4.47 111.18,3.88C111.49,3.29 111.92,2.83 112.47,2.5C113.03,2.17 113.67,2.005 114.39,2.005C115.13,2.005 115.76,2.17 116.28,2.5C116.8,2.83 117.195,3.265 117.465,3.805C117.745,4.335 117.885,4.915 117.885,5.545L117.885,5.875C117.885,5.985 117.88,6.11 117.87,6.25L111.66,6.25L111.66,5.275L116.64,5.275C116.61,4.575 116.38,4.035 115.95,3.655C115.53,3.265 115,3.07 114.36,3.07C113.94,3.07 113.545,3.17 113.175,3.37C112.805,3.56 112.505,3.84 112.275,4.21C112.055,4.58 111.945,5.05 111.945,5.62L111.945,6.04C111.945,6.66 112.06,7.18 112.29,7.6C112.52,8.01 112.815,8.32 113.175,8.53C113.545,8.74 113.94,8.845 114.36,8.845C114.89,8.845 115.325,8.73 115.665,8.5C116.015,8.26 116.27,7.935 116.43,7.525L117.675,7.525C117.545,7.985 117.33,8.395 117.03,8.755C116.73,9.105 116.355,9.385 115.905,9.595C115.465,9.805 114.95,9.91 114.36,9.91ZM119.046,9.73L119.046,8.695L123.246,3.235L119.121,3.235L119.121,2.185L124.671,2.185L124.671,3.22L120.486,8.68L124.746,8.68L124.746,9.73L119.046,9.73ZM133.74,9.91C133.04,9.91 132.415,9.745 131.865,9.415C131.315,9.085 130.88,8.625 130.56,8.035C130.25,7.445 130.095,6.755 130.095,5.965C130.095,5.165 130.25,4.47 130.56,3.88C130.87,3.29 131.3,2.83 131.85,2.5C132.41,2.17 133.05,2.005 133.77,2.005C134.51,2.005 135.14,2.17 135.66,2.5C136.18,2.83 136.575,3.265 136.845,3.805C137.125,4.335 137.265,4.915 137.265,5.545L137.265,5.875C137.265,5.985 137.26,6.11 137.25,6.25L131.04,6.25L131.04,5.275L136.02,5.275C135.99,4.575 135.76,4.035 135.33,3.655C134.91,3.265 134.38,3.07 133.74,3.07C133.32,3.07 132.925,3.17 132.555,3.37C132.185,3.56 131.885,3.84 131.655,4.21C131.435,4.58 131.325,5.05 131.325,5.62L131.325,6.04C131.325,6.66 131.44,7.18 131.67,7.6C131.9,8.01 132.195,8.32 132.555,8.53C132.925,8.74 133.32,8.845 133.74,8.845C134.27,8.845 134.705,8.73 135.045,8.5C135.395,8.26 135.65,7.935 135.81,7.525L137.055,7.525C136.925,7.985 136.71,8.395 136.41,8.755C136.11,9.105 135.735,9.385 135.285,9.595C134.845,9.805 134.33,9.91 133.74,9.91ZM138.935,9.73L138.935,2.185L140.075,2.185L140.15,3.505C140.39,3.035 140.73,2.67 141.17,2.41C141.62,2.14 142.13,2.005 142.7,2.005C143.29,2.005 143.8,2.125 144.23,2.365C144.66,2.595 144.995,2.95 145.235,3.43C145.475,3.9 145.595,4.5 145.595,5.23L145.595,9.73L144.335,9.73L144.335,5.365C144.335,4.605 144.165,4.035 143.825,3.655C143.495,3.275 143.025,3.085 142.415,3.085C141.995,3.085 141.615,3.19 141.275,3.4C140.945,3.6 140.68,3.895 140.48,4.285C140.29,4.675 140.195,5.15 140.195,5.71L140.195,9.73L138.935,9.73ZM149.578,9.73L146.713,2.185L148.033,2.185L150.313,8.515L152.593,2.185L153.883,2.185L151.033,9.73L149.578,9.73ZM155.418,9.73L155.418,2.185L156.678,2.185L156.678,9.73L155.418,9.73ZM156.048,0.565C155.798,0.565 155.588,0.485 155.418,0.325C155.258,0.155 155.178,-0.055 155.178,-0.305C155.178,-0.555 155.258,-0.755 155.418,-0.905C155.588,-1.065 155.798,-1.145 156.048,-1.145C156.288,-1.145 156.493,-1.065 156.663,-0.905C156.833,-0.755 156.918,-0.555 156.918,-0.305C156.918,-0.055 156.833,0.155 156.663,0.325C156.493,0.485 156.288,0.565 156.048,0.565ZM158.872,9.73L158.872,2.185L160.012,2.185L160.117,3.625C160.287,3.285 160.502,2.995 160.762,2.755C161.032,2.515 161.352,2.33 161.722,2.2C162.102,2.07 162.527,2.005 162.997,2.005L162.997,3.325L162.547,3.325C162.227,3.325 161.922,3.37 161.632,3.46C161.342,3.54 161.082,3.675 160.852,3.865C160.632,4.055 160.457,4.315 160.327,4.645C160.197,4.965 160.132,5.365 160.132,5.845L160.132,9.73L158.872,9.73ZM167.521,9.91C166.821,9.91 166.191,9.75 165.631,9.43C165.071,9.1 164.626,8.64 164.296,8.05C163.976,7.45 163.816,6.755 163.816,5.965C163.816,5.155 163.981,4.455 164.311,3.865C164.641,3.275 165.086,2.82 165.646,2.5C166.216,2.17 166.851,2.005 167.551,2.005C168.261,2.005 168.896,2.17 169.456,2.5C170.016,2.82 170.456,3.275 170.776,3.865C171.096,4.455 171.256,5.155 171.256,5.965C171.256,6.765 171.091,7.46 170.761,8.05C170.441,8.64 169.996,9.1 169.426,9.43C168.866,9.75 168.231,9.91 167.521,9.91ZM167.521,8.83C167.961,8.83 168.366,8.725 168.736,8.515C169.106,8.295 169.401,7.975 169.621,7.555C169.851,7.125 169.966,6.595 169.966,5.965C169.966,5.315 169.856,4.78 169.636,4.36C169.416,3.94 169.121,3.625 168.751,3.415C168.381,3.195 167.981,3.085 167.551,3.085C167.131,3.085 166.731,3.195 166.351,3.415C165.981,3.625 165.681,3.945 165.451,4.375C165.221,4.795 165.106,5.325 165.106,5.965C165.106,6.595 165.221,7.125 165.451,7.555C165.681,7.975 165.976,8.295 166.336,8.515C166.706,8.725 167.101,8.83 167.521,8.83ZM173.022,9.73L173.022,2.185L174.162,2.185L174.237,3.505C174.477,3.035 174.817,2.67 175.257,2.41C175.707,2.14 176.217,2.005 176.787,2.005C177.377,2.005 177.887,2.125 178.317,2.365C178.747,2.595 179.082,2.95 179.322,3.43C179.562,3.9 179.682,4.5 179.682,5.23L179.682,9.73L178.422,9.73L178.422,5.365C178.422,4.605 178.252,4.035 177.912,3.655C177.582,3.275 177.112,3.085 176.502,3.085C176.082,3.085 175.702,3.19 175.362,3.4C175.032,3.6 174.767,3.895 174.567,4.285C174.377,4.675 174.282,5.15 174.282,5.71L174.282,9.73L173.022,9.73ZM186.835,9.73L186.835,0.64L185.035,1.09L185.035,0.19L187.255,-0.77L188.11,-0.77L188.11,9.73L186.835,9.73ZM190.174,9.73L190.174,8.845C190.894,8.285 191.574,7.72 192.214,7.15C192.854,6.58 193.424,6.015 193.924,5.455C194.424,4.885 194.814,4.33 195.094,3.79C195.384,3.25 195.529,2.73 195.529,2.23C195.529,1.86 195.464,1.52 195.334,1.21C195.204,0.89 194.999,0.63 194.719,0.43C194.439,0.23 194.054,0.13 193.564,0.13C193.104,0.13 192.719,0.235 192.409,0.445C192.099,0.645 191.864,0.915 191.704,1.255C191.544,1.585 191.464,1.95 191.464,2.35L190.249,2.35C190.259,1.66 190.409,1.07 190.699,0.58C190.989,0.08 191.384,-0.3 191.884,-0.56C192.384,-0.82 192.954,-0.95 193.594,-0.95C194.214,-0.95 194.764,-0.83 195.244,-0.59C195.724,-0.36 196.099,-0.015 196.369,0.445C196.649,0.905 196.789,1.485 196.789,2.185C196.789,2.675 196.689,3.165 196.489,3.655C196.289,4.145 196.019,4.625 195.679,5.095C195.339,5.555 194.959,6 194.539,6.43C194.129,6.86 193.704,7.265 193.264,7.645C192.834,8.025 192.424,8.37 192.034,8.68L197.149,8.68L197.149,9.73L190.174,9.73ZM198.906,9.73L198.906,-1.07L200.166,-1.07L200.166,3.46C200.426,3 200.781,2.645 201.231,2.395C201.681,2.135 202.181,2.005 202.731,2.005C203.311,2.005 203.811,2.125 204.231,2.365C204.661,2.595 204.991,2.95 205.221,3.43C205.461,3.91 205.581,4.515 205.581,5.245L205.581,9.73L204.336,9.73L204.336,5.38C204.336,4.62 204.176,4.05 203.856,3.67C203.536,3.28 203.071,3.085 202.461,3.085C202.031,3.085 201.641,3.19 201.291,3.4C200.951,3.61 200.676,3.91 200.466,4.3C200.266,4.69 200.166,5.17 200.166,5.74L200.166,9.73L198.906,9.73ZM206.904,11.155L210.669,-1.73L211.914,-1.73L208.149,11.155L206.904,11.155ZM215.775,9.91C215.165,9.91 214.625,9.81 214.155,9.61C213.685,9.4 213.31,9.105 213.03,8.725C212.76,8.345 212.59,7.9 212.52,7.39L213.81,7.39C213.87,7.65 213.98,7.895 214.14,8.125C214.3,8.345 214.515,8.52 214.785,8.65C215.065,8.78 215.4,8.845 215.79,8.845C216.15,8.845 216.445,8.795 216.675,8.695C216.905,8.585 217.075,8.44 217.185,8.26C217.295,8.08 217.35,7.885 217.35,7.675C217.35,7.375 217.275,7.145 217.125,6.985C216.985,6.815 216.775,6.685 216.495,6.595C216.225,6.505 215.89,6.425 215.49,6.355C215.16,6.295 214.835,6.215 214.515,6.115C214.205,6.005 213.925,5.87 213.675,5.71C213.425,5.55 213.225,5.35 213.075,5.11C212.925,4.86 212.85,4.565 212.85,4.225C212.85,3.795 212.96,3.415 213.18,3.085C213.41,2.745 213.725,2.48 214.125,2.29C214.535,2.1 215.02,2.005 215.58,2.005C216.38,2.005 217.03,2.2 217.53,2.59C218.04,2.98 218.335,3.545 218.415,4.285L217.17,4.285C217.13,3.905 216.97,3.61 216.69,3.4C216.41,3.18 216.035,3.07 215.565,3.07C215.095,3.07 214.735,3.165 214.485,3.355C214.245,3.545 214.125,3.795 214.125,4.105C214.125,4.305 214.19,4.485 214.32,4.645C214.46,4.795 214.665,4.925 214.935,5.035C215.205,5.135 215.53,5.225 215.91,5.305C216.41,5.395 216.865,5.515 217.275,5.665C217.685,5.805 218.015,6.025 218.265,6.325C218.525,6.615 218.65,7.03 218.64,7.57C218.65,8.04 218.535,8.45 218.295,8.8C218.065,9.15 217.735,9.425 217.305,9.625C216.875,9.815 216.365,9.91 215.775,9.91ZM223.784,9.91C223.084,9.91 222.459,9.745 221.909,9.415C221.359,9.085 220.924,8.625 220.604,8.035C220.294,7.445 220.139,6.755 220.139,5.965C220.139,5.165 220.294,4.47 220.604,3.88C220.914,3.29 221.344,2.83 221.894,2.5C222.454,2.17 223.094,2.005 223.814,2.005C224.554,2.005 225.184,2.17 225.704,2.5C226.224,2.83 226.619,3.265 226.889,3.805C227.169,4.335 227.309,4.915 227.309,5.545L227.309,5.875C227.309,5.985 227.304,6.11 227.294,6.25L221.084,6.25L221.084,5.275L226.064,5.275C226.034,4.575 225.804,4.035 225.374,3.655C224.954,3.265 224.424,3.07 223.784,3.07C223.364,3.07 222.969,3.17 222.599,3.37C222.229,3.56 221.929,3.84 221.699,4.21C221.479,4.58 221.369,5.05 221.369,5.62L221.369,6.04C221.369,6.66 221.484,7.18 221.714,7.6C221.944,8.01 222.239,8.32 222.599,8.53C222.969,8.74 223.364,8.845 223.784,8.845C224.314,8.845 224.749,8.73 225.089,8.5C225.439,8.26 225.694,7.935 225.854,7.525L227.099,7.525C226.969,7.985 226.754,8.395 226.454,8.755C226.154,9.105 225.779,9.385 225.329,9.595C224.889,9.805 224.374,9.91 223.784,9.91ZM228.979,9.73L228.979,2.185L230.119,2.185L230.209,3.265C230.449,2.865 230.769,2.555 231.169,2.335C231.569,2.115 232.014,2.005 232.504,2.005C232.894,2.005 233.244,2.06 233.554,2.17C233.874,2.27 234.154,2.43 234.394,2.65C234.644,2.86 234.844,3.13 234.994,3.46C235.254,3 235.609,2.645 236.059,2.395C236.519,2.135 237.004,2.005 237.514,2.005C238.104,2.005 238.614,2.125 239.044,2.365C239.484,2.595 239.819,2.95 240.049,3.43C240.289,3.9 240.409,4.5 240.409,5.23L240.409,9.73L239.164,9.73L239.164,5.365C239.164,4.605 239.009,4.035 238.699,3.655C238.389,3.275 237.949,3.085 237.379,3.085C236.989,3.085 236.639,3.19 236.329,3.4C236.019,3.6 235.774,3.895 235.594,4.285C235.414,4.675 235.324,5.155 235.324,5.725L235.324,9.73L234.064,9.73L234.064,5.365C234.064,4.605 233.909,4.035 233.599,3.655C233.289,3.275 232.854,3.085 232.294,3.085C231.914,3.085 231.564,3.19 231.244,3.4C230.934,3.6 230.689,3.895 230.509,4.285C230.329,4.675 230.239,5.155 230.239,5.725L230.239,9.73L228.979,9.73ZM244.814,9.91C244.204,9.91 243.694,9.805 243.284,9.595C242.874,9.375 242.569,9.09 242.369,8.74C242.169,8.38 242.069,7.995 242.069,7.585C242.069,7.075 242.199,6.645 242.459,6.295C242.729,5.935 243.104,5.665 243.584,5.485C244.074,5.295 244.644,5.2 245.294,5.2L247.304,5.2C247.304,4.72 247.229,4.325 247.079,4.015C246.939,3.705 246.729,3.47 246.449,3.31C246.179,3.15 245.839,3.07 245.429,3.07C244.949,3.07 244.534,3.19 244.184,3.43C243.834,3.67 243.619,4.025 243.539,4.495L242.249,4.495C242.309,3.955 242.489,3.505 242.789,3.145C243.099,2.775 243.489,2.495 243.959,2.305C244.429,2.105 244.919,2.005 245.429,2.005C246.129,2.005 246.709,2.135 247.169,2.395C247.629,2.645 247.974,3 248.204,3.46C248.444,3.91 248.564,4.44 248.564,5.05L248.564,9.73L247.439,9.73L247.364,8.395C247.264,8.605 247.134,8.805 246.974,8.995C246.824,9.175 246.644,9.335 246.434,9.475C246.234,9.605 245.999,9.71 245.729,9.79C245.459,9.87 245.154,9.91 244.814,9.91ZM245.009,8.845C245.359,8.845 245.674,8.775 245.954,8.635C246.244,8.485 246.489,8.285 246.689,8.035C246.889,7.785 247.039,7.505 247.139,7.195C247.249,6.875 247.304,6.55 247.304,6.22L247.304,6.175L245.399,6.175C244.919,6.175 244.529,6.235 244.229,6.355C243.929,6.465 243.714,6.625 243.584,6.835C243.454,7.035 243.389,7.265 243.389,7.525C243.389,7.785 243.449,8.015 243.569,8.215C243.699,8.415 243.884,8.57 244.124,8.68C244.364,8.79 244.659,8.845 245.009,8.845ZM250.633,9.73L250.633,2.185L251.893,2.185L251.893,9.73L250.633,9.73ZM251.263,0.565C251.013,0.565 250.803,0.485 250.633,0.325C250.473,0.155 250.393,-0.055 250.393,-0.305C250.393,-0.555 250.473,-0.755 250.633,-0.905C250.803,-1.065 251.013,-1.145 251.263,-1.145C251.503,-1.145 251.708,-1.065 251.878,-0.905C252.048,-0.755 252.133,-0.555 252.133,-0.305C252.133,-0.055 252.048,0.155 251.878,0.325C251.708,0.485 251.503,0.565 251.263,0.565ZM254.087,9.73L254.087,2.185L255.227,2.185L255.302,3.505C255.542,3.035 255.882,2.67 256.322,2.41C256.772,2.14 257.282,2.005 257.852,2.005C258.442,2.005 258.952,2.125 259.382,2.365C259.812,2.595 260.147,2.95 260.387,3.43C260.627,3.9 260.747,4.5 260.747,5.23L260.747,9.73L259.487,9.73L259.487,5.365C259.487,4.605 259.317,4.035 258.977,3.655C258.647,3.275 258.177,3.085 257.567,3.085C257.147,3.085 256.767,3.19 256.427,3.4C256.097,3.6 255.832,3.895 255.632,4.285C255.442,4.675 255.347,5.15 255.347,5.71L255.347,9.73L254.087,9.73ZM266.015,9.91C265.315,9.91 264.69,9.745 264.14,9.415C263.59,9.085 263.155,8.625 262.835,8.035C262.525,7.445 262.37,6.755 262.37,5.965C262.37,5.165 262.525,4.47 262.835,3.88C263.145,3.29 263.575,2.83 264.125,2.5C264.685,2.17 265.325,2.005 266.045,2.005C266.785,2.005 267.415,2.17 267.935,2.5C268.455,2.83 268.85,3.265 269.12,3.805C269.4,4.335 269.54,4.915 269.54,5.545L269.54,5.875C269.54,5.985 269.535,6.11 269.525,6.25L263.315,6.25L263.315,5.275L268.295,5.275C268.265,4.575 268.035,4.035 267.605,3.655C267.185,3.265 266.655,3.07 266.015,3.07C265.595,3.07 265.2,3.17 264.83,3.37C264.46,3.56 264.16,3.84 263.93,4.21C263.71,4.58 263.6,5.05 263.6,5.62L263.6,6.04C263.6,6.66 263.715,7.18 263.945,7.6C264.175,8.01 264.47,8.32 264.83,8.53C265.2,8.74 265.595,8.845 266.015,8.845C266.545,8.845 266.98,8.73 267.32,8.5C267.67,8.26 267.925,7.935 268.085,7.525L269.33,7.525C269.2,7.985 268.985,8.395 268.685,8.755C268.385,9.105 268.01,9.385 267.56,9.595C267.12,9.805 266.605,9.91 266.015,9.91ZM277.67,9.91C277.06,9.91 276.55,9.805 276.14,9.595C275.73,9.375 275.425,9.09 275.225,8.74C275.025,8.38 274.925,7.995 274.925,7.585C274.925,7.075 275.055,6.645 275.315,6.295C275.585,5.935 275.96,5.665 276.44,5.485C276.93,5.295 277.5,5.2 278.15,5.2L280.16,5.2C280.16,4.72 280.085,4.325 279.935,4.015C279.795,3.705 279.585,3.47 279.305,3.31C279.035,3.15 278.695,3.07 278.285,3.07C277.805,3.07 277.39,3.19 277.04,3.43C276.69,3.67 276.475,4.025 276.395,4.495L275.105,4.495C275.165,3.955 275.345,3.505 275.645,3.145C275.955,2.775 276.345,2.495 276.815,2.305C277.285,2.105 277.775,2.005 278.285,2.005C278.985,2.005 279.565,2.135 280.025,2.395C280.485,2.645 280.83,3 281.06,3.46C281.3,3.91 281.42,4.44 281.42,5.05L281.42,9.73L280.295,9.73L280.22,8.395C280.12,8.605 279.99,8.805 279.83,8.995C279.68,9.175 279.5,9.335 279.29,9.475C279.09,9.605 278.855,9.71 278.585,9.79C278.315,9.87 278.01,9.91 277.67,9.91ZM277.865,8.845C278.215,8.845 278.53,8.775 278.81,8.635C279.1,8.485 279.345,8.285 279.545,8.035C279.745,7.785 279.895,7.505 279.995,7.195C280.105,6.875 280.16,6.55 280.16,6.22L280.16,6.175L278.255,6.175C277.775,6.175 277.385,6.235 277.085,6.355C276.785,6.465 276.57,6.625 276.44,6.835C276.31,7.035 276.245,7.265 276.245,7.525C276.245,7.785 276.305,8.015 276.425,8.215C276.555,8.415 276.74,8.57 276.98,8.68C277.22,8.79 277.515,8.845 277.865,8.845ZM285.266,9.73L282.401,2.185L283.721,2.185L286.001,8.515L288.281,2.185L289.571,2.185L286.721,9.73L285.266,9.73ZM293.921,9.91C293.221,9.91 292.596,9.745 292.046,9.415C291.496,9.085 291.061,8.625 290.741,8.035C290.431,7.445 290.276,6.755 290.276,5.965C290.276,5.165 290.431,4.47 290.741,3.88C291.051,3.29 291.481,2.83 292.031,2.5C292.591,2.17 293.231,2.005 293.951,2.005C294.691,2.005 295.321,2.17 295.841,2.5C296.361,2.83 296.756,3.265 297.026,3.805C297.306,4.335 297.446,4.915 297.446,5.545L297.446,5.875C297.446,5.985 297.441,6.11 297.431,6.25L291.221,6.25L291.221,5.275L296.201,5.275C296.171,4.575 295.941,4.035 295.511,3.655C295.091,3.265 294.561,3.07 293.921,3.07C293.501,3.07 293.106,3.17 292.736,3.37C292.366,3.56 292.066,3.84 291.836,4.21C291.616,4.58 291.506,5.05 291.506,5.62L291.506,6.04C291.506,6.66 291.621,7.18 291.851,7.6C292.081,8.01 292.376,8.32 292.736,8.53C293.106,8.74 293.501,8.845 293.921,8.845C294.451,8.845 294.886,8.73 295.226,8.5C295.576,8.26 295.831,7.935 295.991,7.525L297.236,7.525C297.106,7.985 296.891,8.395 296.591,8.755C296.291,9.105 295.916,9.385 295.466,9.595C295.026,9.805 294.511,9.91 293.921,9.91ZM302.536,9.91C301.826,9.91 301.186,9.745 300.616,9.415C300.056,9.085 299.611,8.625 299.281,8.035C298.961,7.435 298.801,6.745 298.801,5.965C298.801,5.165 298.961,4.47 299.281,3.88C299.611,3.29 300.056,2.83 300.616,2.5C301.186,2.17 301.826,2.005 302.536,2.005C303.436,2.005 304.186,2.24 304.786,2.71C305.386,3.17 305.766,3.79 305.926,4.57L304.636,4.57C304.536,4.1 304.291,3.735 303.901,3.475C303.511,3.215 303.051,3.085 302.521,3.085C302.091,3.085 301.691,3.195 301.321,3.415C300.961,3.625 300.666,3.945 300.436,4.375C300.206,4.795 300.091,5.325 300.091,5.965C300.091,6.435 300.156,6.85 300.286,7.21C300.426,7.57 300.606,7.875 300.826,8.125C301.046,8.365 301.301,8.545 301.591,8.665C301.891,8.785 302.201,8.845 302.521,8.845C302.881,8.845 303.206,8.79 303.496,8.68C303.786,8.56 304.031,8.39 304.231,8.17C304.431,7.94 304.566,7.665 304.636,7.345L305.926,7.345C305.766,8.105 305.381,8.725 304.771,9.205C304.171,9.675 303.426,9.91 302.536,9.91ZM311.684,9.73L311.684,-1.07L312.944,-1.07L312.944,9.73L311.684,9.73ZM318.354,9.91C317.654,9.91 317.029,9.745 316.479,9.415C315.929,9.085 315.494,8.625 315.174,8.035C314.864,7.445 314.709,6.755 314.709,5.965C314.709,5.165 314.864,4.47 315.174,3.88C315.484,3.29 315.914,2.83 316.464,2.5C317.024,2.17 317.664,2.005 318.384,2.005C319.124,2.005 319.754,2.17 320.274,2.5C320.794,2.83 321.189,3.265 321.459,3.805C321.739,4.335 321.879,4.915 321.879,5.545L321.879,5.875C321.879,5.985 321.874,6.11 321.864,6.25L315.654,6.25L315.654,5.275L320.634,5.275C320.604,4.575 320.374,4.035 319.944,3.655C319.524,3.265 318.994,3.07 318.354,3.07C317.934,3.07 317.539,3.17 317.169,3.37C316.799,3.56 316.499,3.84 316.269,4.21C316.049,4.58 315.939,5.05 315.939,5.62L315.939,6.04C315.939,6.66 316.054,7.18 316.284,7.6C316.514,8.01 316.809,8.32 317.169,8.53C317.539,8.74 317.934,8.845 318.354,8.845C318.884,8.845 319.319,8.73 319.659,8.5C320.009,8.26 320.264,7.935 320.424,7.525L321.669,7.525C321.539,7.985 321.324,8.395 321.024,8.755C320.724,9.105 320.349,9.385 319.899,9.595C319.459,9.805 318.944,9.91 318.354,9.91ZM327.534,13.03L327.534,2.185L328.674,2.185L328.794,3.415C328.954,3.175 329.159,2.95 329.409,2.74C329.659,2.52 329.959,2.345 330.309,2.215C330.659,2.075 331.064,2.005 331.524,2.005C332.254,2.005 332.889,2.18 333.429,2.53C333.979,2.87 334.404,3.34 334.704,3.94C335.014,4.53 335.169,5.21 335.169,5.98C335.169,6.74 335.014,7.415 334.704,8.005C334.404,8.595 333.979,9.06 333.429,9.4C332.879,9.74 332.239,9.91 331.509,9.91C330.899,9.91 330.359,9.785 329.889,9.535C329.419,9.285 329.054,8.935 328.794,8.485L328.794,13.03L327.534,13.03ZM331.359,8.815C331.849,8.815 332.284,8.7 332.664,8.47C333.054,8.23 333.354,7.895 333.564,7.465C333.784,7.035 333.894,6.535 333.894,5.965C333.894,5.385 333.784,4.885 333.564,4.465C333.354,4.035 333.054,3.7 332.664,3.46C332.284,3.22 331.849,3.1 331.359,3.1C330.859,3.1 330.419,3.22 330.039,3.46C329.659,3.7 329.364,4.035 329.154,4.465C328.944,4.885 328.839,5.385 328.839,5.965C328.839,6.535 328.944,7.035 329.154,7.465C329.364,7.895 329.659,8.23 330.039,8.47C330.419,8.7 330.859,8.815 331.359,8.815ZM336.938,9.73L336.938,-1.07L338.198,-1.07L338.198,9.73L336.938,9.73ZM342.753,9.91C342.143,9.91 341.633,9.805 341.223,9.595C340.813,9.375 340.508,9.09 340.308,8.74C340.108,8.38 340.008,7.995 340.008,7.585C340.008,7.075 340.138,6.645 340.398,6.295C340.668,5.935 341.043,5.665 341.523,5.485C342.013,5.295 342.583,5.2 343.233,5.2L345.243,5.2C345.243,4.72 345.168,4.325 345.018,4.015C344.878,3.705 344.668,3.47 344.388,3.31C344.118,3.15 343.778,3.07 343.368,3.07C342.888,3.07 342.473,3.19 342.123,3.43C341.773,3.67 341.558,4.025 341.478,4.495L340.188,4.495C340.248,3.955 340.428,3.505 340.728,3.145C341.038,2.775 341.428,2.495 341.898,2.305C342.368,2.105 342.858,2.005 343.368,2.005C344.068,2.005 344.648,2.135 345.108,2.395C345.568,2.645 345.913,3 346.143,3.46C346.383,3.91 346.503,4.44 346.503,5.05L346.503,9.73L345.378,9.73L345.303,8.395C345.203,8.605 345.073,8.805 344.913,8.995C344.763,9.175 344.583,9.335 344.373,9.475C344.173,9.605 343.938,9.71 343.668,9.79C343.398,9.87 343.093,9.91 342.753,9.91ZM342.948,8.845C343.298,8.845 343.613,8.775 343.893,8.635C344.183,8.485 344.428,8.285 344.628,8.035C344.828,7.785 344.978,7.505 345.078,7.195C345.188,6.875 345.243,6.55 345.243,6.22L345.243,6.175L343.338,6.175C342.858,6.175 342.468,6.235 342.168,6.355C341.868,6.465 341.653,6.625 341.523,6.835C341.393,7.035 341.328,7.265 341.328,7.525C341.328,7.785 341.388,8.015 341.508,8.215C341.638,8.415 341.823,8.57 342.063,8.68C342.303,8.79 342.598,8.845 342.948,8.845ZM348.437,9.73L348.437,2.185L349.577,2.185L349.652,3.505C349.892,3.035 350.232,2.67 350.672,2.41C351.122,2.14 351.632,2.005 352.202,2.005C352.792,2.005 353.302,2.125 353.732,2.365C354.162,2.595 354.497,2.95 354.737,3.43C354.977,3.9 355.097,4.5 355.097,5.23L355.097,9.73L353.837,9.73L353.837,5.365C353.837,4.605 353.667,4.035 353.327,3.655C352.997,3.275 352.527,3.085 351.917,3.085C351.497,3.085 351.117,3.19 350.777,3.4C350.447,3.6 350.182,3.895 349.982,4.285C349.792,4.675 349.697,5.15 349.697,5.71L349.697,9.73L348.437,9.73ZM361.11,9.73L361.11,-0.77L364.545,-0.77C365.365,-0.77 366.04,-0.63 366.57,-0.35C367.11,-0.08 367.505,0.285 367.755,0.745C368.015,1.205 368.145,1.73 368.145,2.32C368.145,2.89 368.015,3.41 367.755,3.88C367.505,4.34 367.115,4.71 366.585,4.99C366.055,5.26 365.375,5.395 364.545,5.395L362.37,5.395L362.37,9.73L361.11,9.73ZM362.37,4.33L364.515,4.33C365.355,4.33 365.955,4.15 366.315,3.79C366.675,3.42 366.855,2.93 366.855,2.32C366.855,1.67 366.675,1.17 366.315,0.82C365.955,0.46 365.355,0.28 364.515,0.28L362.37,0.28L362.37,4.33ZM369.722,9.73L369.722,2.185L370.862,2.185L370.967,3.625C371.137,3.285 371.352,2.995 371.612,2.755C371.881,2.515 372.202,2.33 372.572,2.2C372.952,2.07 373.377,2.005 373.847,2.005L373.847,3.325L373.397,3.325C373.077,3.325 372.772,3.37 372.482,3.46C372.192,3.54 371.932,3.675 371.702,3.865C371.482,4.055 371.307,4.315 371.177,4.645C371.047,4.965 370.982,5.365 370.982,5.845L370.982,9.73L369.722,9.73ZM378.37,9.91C377.67,9.91 377.04,9.75 376.48,9.43C375.92,9.1 375.475,8.64 375.145,8.05C374.825,7.45 374.665,6.755 374.665,5.965C374.665,5.155 374.83,4.455 375.16,3.865C375.49,3.275 375.935,2.82 376.495,2.5C377.065,2.17 377.7,2.005 378.4,2.005C379.11,2.005 379.745,2.17 380.305,2.5C380.865,2.82 381.305,3.275 381.625,3.865C381.945,4.455 382.105,5.155 382.105,5.965C382.105,6.765 381.94,7.46 381.61,8.05C381.29,8.64 380.845,9.1 380.275,9.43C379.715,9.75 379.08,9.91 378.37,9.91ZM378.37,8.83C378.81,8.83 379.215,8.725 379.585,8.515C379.955,8.295 380.25,7.975 380.47,7.555C380.7,7.125 380.815,6.595 380.815,5.965C380.815,5.315 380.705,4.78 380.485,4.36C380.265,3.94 379.97,3.625 379.6,3.415C379.23,3.195 378.83,3.085 378.4,3.085C377.98,3.085 377.58,3.195 377.2,3.415C376.83,3.625 376.53,3.945 376.3,4.375C376.07,4.795 375.955,5.325 375.955,5.965C375.955,6.595 376.07,7.125 376.3,7.555C376.53,7.975 376.825,8.295 377.185,8.515C377.555,8.725 377.95,8.83 378.37,8.83ZM387.466,5.2L387.466,4.015L396.151,4.015L391.771,-0.125L392.566,-0.935L397.966,4.255L397.966,4.915L392.566,10.12L391.756,9.295L396.106,5.2L387.466,5.2ZM406.53,13.21C405.86,13.21 405.26,13.12 404.73,12.94C404.21,12.77 403.805,12.505 403.515,12.145C403.225,11.785 403.08,11.34 403.08,10.81C403.08,10.58 403.125,10.335 403.215,10.075C403.315,9.825 403.48,9.575 403.71,9.325C403.95,9.075 404.285,8.85 404.715,8.65L405.57,9.16C405.05,9.38 404.71,9.63 404.55,9.91C404.39,10.19 404.31,10.45 404.31,10.69C404.31,11.02 404.405,11.295 404.595,11.515C404.785,11.735 405.05,11.9 405.39,12.01C405.73,12.12 406.11,12.175 406.53,12.175C406.96,12.175 407.33,12.11 407.64,11.98C407.95,11.86 408.19,11.69 408.36,11.47C408.53,11.26 408.615,11.005 408.615,10.705C408.615,10.365 408.485,10.075 408.225,9.835C407.975,9.605 407.485,9.47 406.755,9.43C406.165,9.39 405.67,9.335 405.27,9.265C404.87,9.195 404.54,9.115 404.28,9.025C404.02,8.925 403.8,8.815 403.62,8.695C403.45,8.575 403.295,8.45 403.155,8.32L403.155,7.975L404.61,6.52L405.705,6.91L404.205,8.275L404.4,7.75C404.51,7.83 404.615,7.905 404.715,7.975C404.815,8.035 404.95,8.09 405.12,8.14C405.29,8.19 405.525,8.24 405.825,8.29C406.135,8.33 406.54,8.37 407.04,8.41C407.72,8.46 408.265,8.58 408.675,8.77C409.095,8.96 409.395,9.215 409.575,9.535C409.765,9.855 409.86,10.23 409.86,10.66C409.86,11.09 409.74,11.495 409.5,11.875C409.27,12.265 408.91,12.585 408.42,12.835C407.93,13.085 407.3,13.21 406.53,13.21ZM406.515,7.36C405.885,7.36 405.35,7.245 404.91,7.015C404.47,6.775 404.135,6.455 403.905,6.055C403.675,5.645 403.56,5.19 403.56,4.69C403.56,4.19 403.675,3.74 403.905,3.34C404.135,2.94 404.47,2.62 404.91,2.38C405.35,2.13 405.885,2.005 406.515,2.005C407.155,2.005 407.695,2.13 408.135,2.38C408.575,2.62 408.91,2.94 409.14,3.34C409.37,3.74 409.485,4.19 409.485,4.69C409.485,5.19 409.37,5.645 409.14,6.055C408.91,6.455 408.575,6.775 408.135,7.015C407.695,7.245 407.155,7.36 406.515,7.36ZM406.515,6.325C407.055,6.325 407.48,6.185 407.79,5.905C408.11,5.625 408.27,5.22 408.27,4.69C408.27,4.16 408.11,3.755 407.79,3.475C407.48,3.195 407.055,3.055 406.515,3.055C405.985,3.055 405.56,3.195 405.24,3.475C404.92,3.755 404.76,4.16 404.76,4.69C404.76,5.22 404.92,5.625 405.24,5.905C405.56,6.185 405.985,6.325 406.515,6.325ZM407.745,3.25L407.37,2.185L410.46,2.185L410.46,3.13L407.745,3.25ZM414.369,9.91C413.759,9.91 413.249,9.805 412.839,9.595C412.429,9.375 412.124,9.09 411.924,8.74C411.724,8.38 411.624,7.995 411.624,7.585C411.624,7.075 411.754,6.645 412.014,6.295C412.284,5.935 412.659,5.665 413.139,5.485C413.629,5.295 414.199,5.2 414.849,5.2L416.859,5.2C416.859,4.72 416.784,4.325 416.634,4.015C416.494,3.705 416.284,3.47 416.004,3.31C415.734,3.15 415.394,3.07 414.984,3.07C414.504,3.07 414.089,3.19 413.739,3.43C413.389,3.67 413.174,4.025 413.094,4.495L411.804,4.495C411.864,3.955 412.044,3.505 412.344,3.145C412.654,2.775 413.044,2.495 413.514,2.305C413.984,2.105 414.474,2.005 414.984,2.005C415.684,2.005 416.264,2.135 416.724,2.395C417.184,2.645 417.529,3 417.759,3.46C417.999,3.91 418.119,4.44 418.119,5.05L418.119,9.73L416.994,9.73L416.919,8.395C416.819,8.605 416.689,8.805 416.529,8.995C416.379,9.175 416.199,9.335 415.989,9.475C415.789,9.605 415.554,9.71 415.284,9.79C415.014,9.87 414.709,9.91 414.369,9.91ZM414.564,8.845C414.914,8.845 415.229,8.775 415.509,8.635C415.799,8.485 416.044,8.285 416.244,8.035C416.444,7.785 416.594,7.505 416.694,7.195C416.804,6.875 416.859,6.55 416.859,6.22L416.859,6.175L414.954,6.175C414.474,6.175 414.084,6.235 413.784,6.355C413.484,6.465 413.269,6.625 413.139,6.835C413.009,7.035 412.944,7.265 412.944,7.525C412.944,7.785 413.004,8.015 413.124,8.215C413.254,8.415 413.439,8.57 413.679,8.68C413.919,8.79 414.214,8.845 414.564,8.845ZM420.189,9.73L420.189,2.185L421.449,2.185L421.449,9.73L420.189,9.73ZM420.819,0.565C420.569,0.565 420.359,0.485 420.189,0.325C420.029,0.155 419.949,-0.055 419.949,-0.305C419.949,-0.555 420.029,-0.755 420.189,-0.905C420.359,-1.065 420.569,-1.145 420.819,-1.145C421.059,-1.145 421.264,-1.065 421.434,-0.905C421.604,-0.755 421.689,-0.555 421.689,-0.305C421.689,-0.055 421.604,0.155 421.434,0.325C421.264,0.485 421.059,0.565 420.819,0.565ZM423.642,9.73L423.642,2.185L424.782,2.185L424.857,3.505C425.097,3.035 425.437,2.67 425.877,2.41C426.327,2.14 426.837,2.005 427.407,2.005C427.997,2.005 428.507,2.125 428.937,2.365C429.367,2.595 429.702,2.95 429.942,3.43C430.182,3.9 430.302,4.5 430.302,5.23L430.302,9.73L429.042,9.73L429.042,5.365C429.042,4.605 428.872,4.035 428.532,3.655C428.202,3.275 427.732,3.085 427.122,3.085C426.702,3.085 426.322,3.19 425.982,3.4C425.652,3.6 425.387,3.895 425.187,4.285C424.997,4.675 424.902,5.15 424.902,5.71L424.902,9.73L423.642,9.73ZM439.555,9.91C438.855,9.91 438.23,9.745 437.68,9.415C437.13,9.085 436.695,8.625 436.375,8.035C436.065,7.445 435.91,6.755 435.91,5.965C435.91,5.165 436.065,4.47 436.375,3.88C436.685,3.29 437.115,2.83 437.665,2.5C438.225,2.17 438.865,2.005 439.585,2.005C440.325,2.005 440.955,2.17 441.475,2.5C441.995,2.83 442.39,3.265 442.66,3.805C442.94,4.335 443.08,4.915 443.08,5.545L443.08,5.875C443.08,5.985 443.075,6.11 443.065,6.25L436.855,6.25L436.855,5.275L441.835,5.275C441.805,4.575 441.575,4.035 441.145,3.655C440.725,3.265 440.195,3.07 439.555,3.07C439.135,3.07 438.74,3.17 438.37,3.37C438,3.56 437.7,3.84 437.47,4.21C437.25,4.58 437.14,5.05 437.14,5.62L437.14,6.04C437.14,6.66 437.255,7.18 437.485,7.6C437.715,8.01 438.01,8.32 438.37,8.53C438.74,8.74 439.135,8.845 439.555,8.845C440.085,8.845 440.52,8.73 440.86,8.5C441.21,8.26 441.465,7.935 441.625,7.525L442.87,7.525C442.74,7.985 442.525,8.395 442.225,8.755C441.925,9.105 441.55,9.385 441.1,9.595C440.66,9.805 440.145,9.91 439.555,9.91ZM447.601,9.91C446.991,9.91 446.451,9.81 445.981,9.61C445.511,9.4 445.136,9.105 444.856,8.725C444.586,8.345 444.416,7.9 444.346,7.39L445.636,7.39C445.696,7.65 445.806,7.895 445.966,8.125C446.126,8.345 446.341,8.52 446.611,8.65C446.891,8.78 447.226,8.845 447.616,8.845C447.976,8.845 448.271,8.795 448.501,8.695C448.731,8.585 448.901,8.44 449.011,8.26C449.121,8.08 449.176,7.885 449.176,7.675C449.176,7.375 449.101,7.145 448.951,6.985C448.811,6.815 448.601,6.685 448.321,6.595C448.051,6.505 447.716,6.425 447.316,6.355C446.986,6.295 446.661,6.215 446.341,6.115C446.031,6.005 445.751,5.87 445.501,5.71C445.251,5.55 445.051,5.35 444.901,5.11C444.751,4.86 444.676,4.565 444.676,4.225C444.676,3.795 444.786,3.415 445.006,3.085C445.236,2.745 445.551,2.48 445.951,2.29C446.361,2.1 446.846,2.005 447.406,2.005C448.206,2.005 448.856,2.2 449.356,2.59C449.866,2.98 450.161,3.545 450.241,4.285L448.996,4.285C448.956,3.905 448.796,3.61 448.516,3.4C448.236,3.18 447.861,3.07 447.391,3.07C446.921,3.07 446.561,3.165 446.311,3.355C446.071,3.545 445.951,3.795 445.951,4.105C445.951,4.305 446.016,4.485 446.146,4.645C446.286,4.795 446.491,4.925 446.761,5.035C447.031,5.135 447.356,5.225 447.736,5.305C448.236,5.395 448.691,5.515 449.101,5.665C449.511,5.805 449.841,6.025 450.091,6.325C450.351,6.615 450.476,7.03 450.466,7.57C450.476,8.04 450.361,8.45 450.121,8.8C449.891,9.15 449.561,9.425 449.131,9.625C448.701,9.815 448.191,9.91 447.601,9.91ZM454.913,9.73C454.463,9.73 454.073,9.66 453.743,9.52C453.413,9.38 453.158,9.145 452.978,8.815C452.808,8.475 452.723,8.02 452.723,7.45L452.723,3.25L451.418,3.25L451.418,2.185L452.723,2.185L452.888,0.37L453.983,0.37L453.983,2.185L456.188,2.185L456.188,3.25L453.983,3.25L453.983,7.45C453.983,7.92 454.078,8.24 454.268,8.41C454.458,8.57 454.793,8.65 455.273,8.65L456.083,8.65L456.083,9.73L454.913,9.73ZM457.938,9.73L457.938,2.185L459.198,2.185L459.198,9.73L457.938,9.73ZM458.568,0.565C458.318,0.565 458.108,0.485 457.938,0.325C457.778,0.155 457.698,-0.055 457.698,-0.305C457.698,-0.555 457.778,-0.755 457.938,-0.905C458.108,-1.065 458.318,-1.145 458.568,-1.145C458.808,-1.145 459.013,-1.065 459.183,-0.905C459.353,-0.755 459.438,-0.555 459.438,-0.305C459.438,-0.055 459.353,0.155 459.183,0.325C459.013,0.485 458.808,0.565 458.568,0.565ZM461.391,9.73L461.391,2.185L462.531,2.185L462.621,3.265C462.861,2.865 463.181,2.555 463.581,2.335C463.981,2.115 464.426,2.005 464.916,2.005C465.306,2.005 465.656,2.06 465.966,2.17C466.286,2.27 466.566,2.43 466.806,2.65C467.056,2.86 467.256,3.13 467.406,3.46C467.666,3 468.021,2.645 468.471,2.395C468.931,2.135 469.416,2.005 469.926,2.005C470.516,2.005 471.026,2.125 471.456,2.365C471.896,2.595 472.231,2.95 472.461,3.43C472.701,3.9 472.821,4.5 472.821,5.23L472.821,9.73L471.576,9.73L471.576,5.365C471.576,4.605 471.421,4.035 471.111,3.655C470.801,3.275 470.361,3.085 469.791,3.085C469.401,3.085 469.051,3.19 468.741,3.4C468.431,3.6 468.186,3.895 468.006,4.285C467.826,4.675 467.736,5.155 467.736,5.725L467.736,9.73L466.476,9.73L466.476,5.365C466.476,4.605 466.321,4.035 466.011,3.655C465.701,3.275 465.266,3.085 464.706,3.085C464.326,3.085 463.976,3.19 463.656,3.4C463.346,3.6 463.101,3.895 462.921,4.285C462.741,4.675 462.651,5.155 462.651,5.725L462.651,9.73L461.391,9.73ZM478.081,9.91C477.381,9.91 476.756,9.745 476.206,9.415C475.656,9.085 475.221,8.625 474.901,8.035C474.591,7.445 474.436,6.755 474.436,5.965C474.436,5.165 474.591,4.47 474.901,3.88C475.211,3.29 475.641,2.83 476.191,2.5C476.751,2.17 477.391,2.005 478.111,2.005C478.851,2.005 479.481,2.17 480.001,2.5C480.521,2.83 480.916,3.265 481.186,3.805C481.466,4.335 481.606,4.915 481.606,5.545L481.606,5.875C481.606,5.985 481.601,6.11 481.591,6.25L475.381,6.25L475.381,5.275L480.361,5.275C480.331,4.575 480.101,4.035 479.671,3.655C479.251,3.265 478.721,3.07 478.081,3.07C477.661,3.07 477.266,3.17 476.896,3.37C476.526,3.56 476.226,3.84 475.996,4.21C475.776,4.58 475.666,5.05 475.666,5.62L475.666,6.04C475.666,6.66 475.781,7.18 476.011,7.6C476.241,8.01 476.536,8.32 476.896,8.53C477.266,8.74 477.661,8.845 478.081,8.845C478.611,8.845 479.046,8.73 479.386,8.5C479.736,8.26 479.991,7.935 480.151,7.525L481.396,7.525C481.266,7.985 481.051,8.395 480.751,8.755C480.451,9.105 480.076,9.385 479.626,9.595C479.186,9.805 478.671,9.91 478.081,9.91ZM476.581,1.54L476.461,0.625L479.491,-1.28L479.656,-0.2L476.581,1.54ZM487.711,9.805C487.471,9.805 487.266,9.725 487.096,9.565C486.936,9.395 486.856,9.19 486.856,8.95C486.856,8.71 486.936,8.51 487.096,8.35C487.266,8.18 487.471,8.095 487.711,8.095C487.971,8.095 488.176,8.18 488.326,8.35C488.486,8.51 488.566,8.71 488.566,8.95C488.566,9.19 488.486,9.395 488.326,9.565C488.176,9.725 487.971,9.805 487.711,9.805ZM487.711,3.715C487.471,3.715 487.266,3.635 487.096,3.475C486.936,3.305 486.856,3.1 486.856,2.86C486.856,2.62 486.936,2.42 487.096,2.26C487.266,2.09 487.471,2.005 487.711,2.005C487.971,2.005 488.176,2.09 488.326,2.26C488.486,2.42 488.566,2.62 488.566,2.86C488.566,3.1 488.486,3.305 488.326,3.475C488.176,3.635 487.971,3.715 487.711,3.715ZM497.053,11.035L497.053,-2.135L498.088,-2.135L498.088,11.035L497.053,11.035ZM497.698,9.91C496.928,9.91 496.258,9.77 495.688,9.49C495.118,9.21 494.678,8.82 494.368,8.32C494.058,7.82 493.903,7.24 493.903,6.58L495.223,6.58C495.223,6.99 495.318,7.37 495.508,7.72C495.698,8.06 495.973,8.335 496.333,8.545C496.703,8.745 497.158,8.845 497.698,8.845C498.168,8.845 498.568,8.77 498.898,8.62C499.238,8.46 499.493,8.245 499.663,7.975C499.843,7.705 499.933,7.4 499.933,7.06C499.933,6.65 499.843,6.32 499.663,6.07C499.493,5.81 499.253,5.6 498.943,5.44C498.643,5.28 498.298,5.14 497.908,5.02C497.518,4.89 497.108,4.75 496.678,4.6C495.848,4.32 495.238,3.975 494.848,3.565C494.458,3.145 494.263,2.6 494.263,1.93C494.263,1.36 494.393,0.86 494.653,0.43C494.923,0 495.303,-0.335 495.793,-0.575C496.293,-0.825 496.883,-0.95 497.563,-0.95C498.233,-0.95 498.813,-0.825 499.303,-0.575C499.803,-0.325 500.193,0.02 500.473,0.46C500.753,0.89 500.893,1.39 500.893,1.96L499.573,1.96C499.573,1.67 499.498,1.385 499.348,1.105C499.198,0.825 498.968,0.595 498.658,0.415C498.358,0.225 497.978,0.13 497.518,0.13C497.138,0.12 496.798,0.185 496.498,0.325C496.208,0.455 495.978,0.645 495.808,0.895C495.648,1.145 495.568,1.45 495.568,1.81C495.568,2.15 495.638,2.425 495.778,2.635C495.928,2.845 496.138,3.025 496.408,3.175C496.688,3.315 497.013,3.445 497.383,3.565C497.753,3.685 498.163,3.82 498.613,3.97C499.123,4.14 499.573,4.35 499.963,4.6C500.363,4.84 500.673,5.15 500.893,5.53C501.123,5.91 501.238,6.395 501.238,6.985C501.238,7.485 501.103,7.96 500.833,8.41C500.573,8.85 500.183,9.21 499.663,9.49C499.143,9.77 498.488,9.91 497.698,9.91ZM502.874,9.73L502.874,8.845C503.594,8.285 504.274,7.72 504.914,7.15C505.554,6.58 506.124,6.015 506.624,5.455C507.124,4.885 507.514,4.33 507.794,3.79C508.084,3.25 508.229,2.73 508.229,2.23C508.229,1.86 508.164,1.52 508.034,1.21C507.904,0.89 507.699,0.63 507.419,0.43C507.139,0.23 506.754,0.13 506.264,0.13C505.804,0.13 505.419,0.235 505.109,0.445C504.799,0.645 504.564,0.915 504.404,1.255C504.244,1.585 504.164,1.95 504.164,2.35L502.949,2.35C502.959,1.66 503.109,1.07 503.399,0.58C503.689,0.08 504.084,-0.3 504.584,-0.56C505.084,-0.82 505.654,-0.95 506.294,-0.95C506.914,-0.95 507.464,-0.83 507.944,-0.59C508.424,-0.36 508.799,-0.015 509.069,0.445C509.349,0.905 509.489,1.485 509.489,2.185C509.489,2.675 509.389,3.165 509.189,3.655C508.989,4.145 508.719,4.625 508.379,5.095C508.039,5.555 507.659,6 507.239,6.43C506.829,6.86 506.404,7.265 505.964,7.645C505.534,8.025 505.124,8.37 504.734,8.68L509.849,8.68L509.849,9.73L502.874,9.73ZM516.202,9.73L516.202,7.48L510.877,7.48L510.877,6.505L515.977,-0.77L517.447,-0.77L517.447,6.37L519.007,6.37L519.007,7.48L517.447,7.48L517.447,9.73L516.202,9.73ZM512.272,6.37L516.262,6.37L516.262,0.625L512.272,6.37ZM524.579,9.91C523.659,9.91 522.869,9.685 522.209,9.235C521.549,8.775 521.039,8.14 520.679,7.33C520.319,6.51 520.139,5.56 520.139,4.48C520.139,3.4 520.319,2.455 520.679,1.645C521.039,0.825 521.549,0.19 522.209,-0.26C522.869,-0.72 523.659,-0.95 524.579,-0.95C525.499,-0.95 526.284,-0.72 526.934,-0.26C527.594,0.19 528.099,0.825 528.449,1.645C528.809,2.455 528.989,3.4 528.989,4.48C528.989,5.56 528.809,6.51 528.449,7.33C528.099,8.14 527.594,8.775 526.934,9.235C526.284,9.685 525.499,9.91 524.579,9.91ZM524.579,8.8C525.179,8.8 525.714,8.63 526.184,8.29C526.654,7.94 527.024,7.445 527.294,6.805C527.564,6.155 527.699,5.38 527.699,4.48C527.699,3.58 527.564,2.81 527.294,2.17C527.024,1.52 526.654,1.025 526.184,0.685C525.714,0.345 525.179,0.175 524.579,0.175C523.969,0.175 523.424,0.345 522.944,0.685C522.474,1.025 522.104,1.52 521.834,2.17C521.564,2.81 521.429,3.58 521.429,4.48C521.429,5.38 521.564,6.155 521.834,6.805C522.104,7.445 522.474,7.94 522.944,8.29C523.424,8.63 523.969,8.8 524.579,8.8ZM529.522,11.155L533.287,-1.73L534.532,-1.73L530.767,11.155L529.522,11.155ZM535.732,9.73L535.732,2.185L536.872,2.185L536.962,3.265C537.202,2.865 537.522,2.555 537.922,2.335C538.322,2.115 538.767,2.005 539.257,2.005C539.647,2.005 539.997,2.06 540.307,2.17C540.627,2.27 540.907,2.43 541.147,2.65C541.397,2.86 541.597,3.13 541.747,3.46C542.007,3 542.362,2.645 542.812,2.395C543.272,2.135 543.757,2.005 544.267,2.005C544.857,2.005 545.367,2.125 545.797,2.365C546.237,2.595 546.572,2.95 546.802,3.43C547.042,3.9 547.162,4.5 547.162,5.23L547.162,9.73L545.917,9.73L545.917,5.365C545.917,4.605 545.762,4.035 545.452,3.655C545.142,3.275 544.702,3.085 544.132,3.085C543.742,3.085 543.392,3.19 543.082,3.4C542.772,3.6 542.527,3.895 542.347,4.285C542.167,4.675 542.077,5.155 542.077,5.725L542.077,9.73L540.817,9.73L540.817,5.365C540.817,4.605 540.662,4.035 540.352,3.655C540.042,3.275 539.607,3.085 539.047,3.085C538.667,3.085 538.317,3.19 537.997,3.4C537.687,3.6 537.442,3.895 537.262,4.285C537.082,4.675 536.992,5.155 536.992,5.725L536.992,9.73L535.732,9.73ZM552.482,9.91C551.782,9.91 551.152,9.75 550.592,9.43C550.032,9.1 549.587,8.64 549.257,8.05C548.937,7.45 548.777,6.755 548.777,5.965C548.777,5.155 548.942,4.455 549.272,3.865C549.602,3.275 550.047,2.82 550.607,2.5C551.177,2.17 551.812,2.005 552.512,2.005C553.222,2.005 553.857,2.17 554.417,2.5C554.977,2.82 555.417,3.275 555.737,3.865C556.057,4.455 556.217,5.155 556.217,5.965C556.217,6.765 556.052,7.46 555.722,8.05C555.402,8.64 554.957,9.1 554.387,9.43C553.827,9.75 553.192,9.91 552.482,9.91ZM552.482,8.83C552.922,8.83 553.327,8.725 553.697,8.515C554.067,8.295 554.362,7.975 554.582,7.555C554.812,7.125 554.927,6.595 554.927,5.965C554.927,5.315 554.817,4.78 554.597,4.36C554.377,3.94 554.082,3.625 553.712,3.415C553.342,3.195 552.942,3.085 552.512,3.085C552.092,3.085 551.692,3.195 551.312,3.415C550.942,3.625 550.642,3.945 550.412,4.375C550.182,4.795 550.067,5.325 550.067,5.965C550.067,6.595 550.182,7.125 550.412,7.555C550.642,7.975 550.937,8.295 551.297,8.515C551.667,8.725 552.062,8.83 552.482,8.83ZM558.118,9.73L558.118,2.185L559.378,2.185L559.378,9.73L558.118,9.73ZM558.748,0.565C558.498,0.565 558.288,0.485 558.118,0.325C557.958,0.155 557.878,-0.055 557.878,-0.305C557.878,-0.555 557.958,-0.755 558.118,-0.905C558.288,-1.065 558.498,-1.145 558.748,-1.145C558.988,-1.145 559.193,-1.065 559.363,-0.905C559.533,-0.755 559.618,-0.555 559.618,-0.305C559.618,-0.055 559.533,0.155 559.363,0.325C559.193,0.485 558.988,0.565 558.748,0.565ZM564.422,9.91C563.812,9.91 563.272,9.81 562.802,9.61C562.332,9.4 561.957,9.105 561.677,8.725C561.407,8.345 561.237,7.9 561.167,7.39L562.457,7.39C562.517,7.65 562.627,7.895 562.787,8.125C562.947,8.345 563.162,8.52 563.432,8.65C563.712,8.78 564.047,8.845 564.437,8.845C564.797,8.845 565.092,8.795 565.322,8.695C565.552,8.585 565.722,8.44 565.832,8.26C565.942,8.08 565.997,7.885 565.997,7.675C565.997,7.375 565.922,7.145 565.772,6.985C565.632,6.815 565.422,6.685 565.142,6.595C564.872,6.505 564.537,6.425 564.137,6.355C563.807,6.295 563.482,6.215 563.162,6.115C562.852,6.005 562.572,5.87 562.322,5.71C562.072,5.55 561.872,5.35 561.722,5.11C561.572,4.86 561.497,4.565 561.497,4.225C561.497,3.795 561.607,3.415 561.827,3.085C562.057,2.745 562.372,2.48 562.772,2.29C563.182,2.1 563.667,2.005 564.227,2.005C565.027,2.005 565.677,2.2 566.177,2.59C566.687,2.98 566.982,3.545 567.062,4.285L565.817,4.285C565.777,3.905 565.617,3.61 565.337,3.4C565.057,3.18 564.682,3.07 564.212,3.07C563.742,3.07 563.382,3.165 563.132,3.355C562.892,3.545 562.772,3.795 562.772,4.105C562.772,4.305 562.837,4.485 562.967,4.645C563.107,4.795 563.312,4.925 563.582,5.035C563.852,5.135 564.177,5.225 564.557,5.305C565.057,5.395 565.512,5.515 565.922,5.665C566.332,5.805 566.662,6.025 566.912,6.325C567.172,6.615 567.297,7.03 567.287,7.57C567.297,8.04 567.182,8.45 566.942,8.8C566.712,9.15 566.382,9.425 565.952,9.625C565.522,9.815 565.012,9.91 564.422,9.91Z" fill-rule="nonzero" transform="matrix(1,0,0,1,-1662.62875,-534.270184) matrix(2,0,0,2,1654,538.54018)"/></g></g></svg>