<?xml version="1.0" encoding="UTF-8" standalone="no"?><svg xmlns="http://www.w3.org/2000/svg" xmlns:xlink="http://www.w3.org/1999/xlink" contentScriptType="text/ecmascript" zoomAndPan="magnify" contentStyleType="text/css" stroke="#000000" stroke-linecap="square" version="1" width="366" stroke-miterlimit="10" fill="#000000" preserveAspectRatio="xMidYMid meet" viewBox="0 0 366.44 186.05" height="186"><defs><clipPath id="a"><path d="M0 0V186.05H366.44V0Z"/></clipPath><clipPath id="b" clip-path="url(#a)"><path d="M-719 595.88H721v-2106H-719Z"/></clipPath></defs><g><g fill="#ffffff" stroke="#ffffff"><path d="M0 10.88Zm3.47.18l-1.18-.12c-.91-.48-1.26-.83-1.51-1.27L.42 8.67 1.7 8.06l.05.67.41.8c.51.33.86.41 1.29.41l.75-.08.66-.53.26-.87V.38H6.39V8.1c0 .94-.26 1.67-.78 2.19s-1.23.77-2.14.77Zm4.05-.18Zm4.37.18l-1.34-.16c-1.09-.66-1.51-1.12-1.82-1.71L8.25 7.1c0-.8.15-1.5.45-2.09l.74-1.05c1.11-.66 1.75-.83 2.47-.83l1.37.16c1.03.66 1.43 1.1 1.7 1.63l.42 1.12c0 .74 0 .85 0 .96l0 .23-6.19.14V6.4h4.96c-.03-.69-.26-1.23-.69-1.62l-.95-.59c-1.07 0-1.47.1-1.84.3l-.65.47c-.44.75-.55 1.22-.55 1.78v.42c0 .62.11 1.14.33 1.56l.53.73c.73.42 1.12.53 1.54.53l.97-.12c.69-.47.94-.79 1.09-1.19h1.25l-.33.86c-.6.72-.98 1.01-1.43 1.22l-.95.3Zm8.14-.18Zm1.05 3.3V3.32h1.14l.1 1.23.37-.47.8-.61c.7-.27 1.1-.34 1.55-.34l1.38.17c1.09.7 1.51 1.17 1.82 1.78l.46 2.02c0 .76-.15 1.44-.46 2.04L27.5 10.2c-1.1.68-1.75.85-2.49.85l-1.15-.12c-.93-.5-1.29-.85-1.54-1.3v4.54H21.07Zm3.81-4.21l.92-.12c.76-.48 1.06-.81 1.26-1.23l.33-.93c0-1.15-.11-1.65-.33-2.08l-.5-.77c-.76-.48-1.19-.6-1.68-.6l-.94.12c-.76.48-1.05.82-1.26 1.25l-.31.93c0 1.15.11 1.65.31 2.08l.5.75c.76.48 1.2.6 1.7.6Zm4.53.91Zm1.05 0V3.32H31.6l.09 1.44.38-.63c.53-.48.85-.66 1.22-.8l.81-.19.48 1.32h-.47l-.62.05-.84.31c-.45.38-.62.64-.75.97l-.18.72v4.38H30.46Zm4.22 0Zm4.36.18l-1.34-.16c-1.09-.66-1.51-1.12-1.82-1.71L35.42 7.1c0-.8.15-1.5.45-2.09l.74-1.05c1.11-.66 1.75-.83 2.47-.83l1.37.16c1.03.66 1.42 1.1 1.7 1.63l.42 1.12c0 .74 0 .85 0 .96l-.01.23-6.19.14V6.4h4.97c-.03-.69-.26-1.23-.69-1.62l-.95-.59c-1.07 0-1.47.1-1.84.3l-.65.47c-.44.75-.55 1.22-.55 1.78v.42c0 .62.11 1.14.33 1.56l.53.73c.73.42 1.12.53 1.54.53l.97-.12c.69-.47.94-.79 1.09-1.19h1.25l-.33.86c-.6.72-.98 1.01-1.43 1.22l-.95.3Zm4.16-.18Zm1.05 0V3.32H45.4l.06 1.32.58-.84c.89-.53 1.4-.66 1.97-.66l1.1.12c.86.47 1.19.82 1.43 1.3l.36 1.07v5.24H49.65V6.49c0-.76-.17-1.33-.51-1.71l-.8-.57c-1.03 0-1.4.11-1.74.32l-.59.5c-.39.77-.49 1.24-.49 1.81v4.04H44.26Zm7.56 0Zm4.38.18l-1.37-.17c-1.1-.69-1.52-1.16-1.83-1.77l-.45-2.04c0-.76.15-1.43.45-2.02l.73-1.07c1.11-.68 1.75-.85 2.49-.85l1.16.12c.93.5 1.29.85 1.54 1.3V.08h1.26v10.8H59.04l-.11-1.24-.37.48-.8.61c-.7.27-1.1.34-1.56.34Zm.15-1.1l.94-.12c.76-.48 1.05-.81 1.26-1.23l.31-.93c0-1.15-.11-1.65-.31-2.08l-.5-.77c-.76-.48-1.2-.6-1.7-.6l-.92.12c-.76.48-1.06.82-1.26 1.25l-.32.93c0 1.15.11 1.65.32 2.08l.5.75c.76.48 1.19.6 1.68.6Zm4.87.91Zm3.9.18l-1.18-.11c-.93-.42-1.3-.71-1.58-1.08l-.44-.82 1.23-.51.16.5.53.62c.55.27.89.34 1.29.34l.64-.05.63-.36.29-.56-.08-.75-.5-.45-.9-.27c-.73-.13-1.06-.21-1.38-.31l-.61-.23-.7-.54-.36-.78c0-.78.11-1.16.33-1.49l.53-.61c.83-.38 1.32-.47 1.87-.47.81 0 1.47.19 1.97.59l.79.95-1.15.74-.22-.67c-.55-.43-.92-.54-1.4-.54l-.83.1-.61.63.06.69.47.44.86.31c.89.16 1.35.28 1.75.43l.74.38c.51.59.64 1 .64 1.54l-.12.88c-.47.7-.8.97-1.23 1.17l-.93.29Zm7.61-.18Zm1.05 0V.08h1.26v10.8H73.79Zm2.29 0Zm3.51.18l-1.12-.11c-.82-.43-1.12-.72-1.33-1.07l-.3-.75c0-.93.13-1.36.39-1.71l.64-.63c.97-.37 1.54-.47 2.21-.47h1.99c0-.47-.07-.86-.22-1.17l-.35-.56-.89-.4c-.89 0-1.31.12-1.65.36l-.57.6-1.37.47.24-.99c.61-.73 1-1.01 1.47-1.2l.96-.3c1.21 0 1.79.13 2.25.39l.82.61c.46.91.58 1.44.58 2.06v4.68H82.22l-.08-1.34-.23.41-.49.53-.66.38-.83.2Zm.19-1.07l.66-.07.82-.49c.4-.51.55-.8.65-1.11l.16-.63V7.31H80.19c-.49 0-.88.06-1.18.18l-.51.27-.33.64.06.77.43.55.78.28Zm8.44.88Zm1.05 0V3.32h1.14l.08 1.08.56-.69c.81-.45 1.25-.57 1.74-.57l.74.06.91.37c.48.43.68.7.83 1.03l.62-.81c.91-.51 1.4-.64 1.92-.64l1.09.12c.87.47 1.2.82 1.43 1.3l.36 1.07v5.24H99.43V6.49c0-.76-.15-1.33-.47-1.71l-.75-.57c-.95 0-1.3.11-1.61.32l-.56.5c-.36.78-.45 1.26-.45 1.83v4.02H94.35V6.49c0-.76-.15-1.33-.46-1.71l-.75-.57c-.95 0-1.3.11-1.61.32l-.54.5c-.36.78-.45 1.26-.45 1.83v4.02H89.28Zm12.31 0Zm3.51.18l-1.12-.11c-.82-.43-1.12-.72-1.32-1.07l-.3-.75c0-.93.13-1.36.39-1.71l.64-.63c.97-.37 1.55-.47 2.21-.47h2c0-.47-.08-.86-.23-1.17l-.35-.56-.89-.4c-.89 0-1.3.12-1.65.36l-.56.6-1.37.47.24-.99c.61-.73 1-1.01 1.47-1.2l.96-.3c1.21 0 1.79.13 2.25.39l.82.61c.46.91.57 1.44.57 2.06v4.68h-1.12l-.07-1.34-.23.41-.49.53-.66.38-.83.2Zm.2-1.07l.66-.07.82-.49c.4-.51.55-.8.65-1.11l.16-.63V7.31H105.7c-.49 0-.88.06-1.19.18l-.51.27-.32.64.06.77.44.55.78.28Zm4.45.88Zm1.17 0V3.32h1.26v7.56h-1.26Zm.63-9.16l-.46-.08-.41-.54.08-.7.54-.39.69.08.43.51-.09.71-.55.41Zm1.8 9.16Zm1.05 0V3.32h1.14l.06 1.32.58-.84c.89-.53 1.4-.66 1.97-.66l1.1.12c.86.47 1.2.82 1.43 1.3l.36 1.07v5.24h-1.26V6.49c0-.76-.17-1.33-.51-1.71l-.8-.57c-1.03 0-1.4.11-1.74.32l-.6.5c-.39.77-.49 1.24-.49 1.81v4.04H114.4Zm11.55 0Zm1.05 3.3V3.32h1.14l.11 1.23.37-.47.8-.61c.7-.27 1.1-.34 1.55-.34l1.38.17c1.09.7 1.51 1.17 1.82 1.78l.46 2.02c0 .76-.15 1.44-.46 2.04l-.73 1.05c-1.1.68-1.75.85-2.49.85l-1.15-.12c-.93-.5-1.29-.85-1.54-1.3v4.54H127Zm3.81-4.21l.92-.12c.76-.48 1.06-.81 1.26-1.23l.33-.93c0-1.15-.11-1.65-.33-2.08l-.5-.77c-.76-.48-1.19-.6-1.68-.6l-.94.12c-.76.48-1.05.82-1.26 1.25l-.31.93c0 1.15.11 1.65.31 2.08l.5.75c.76.48 1.2.6 1.7.6Zm4.53.91Zm4.42.18l-1.33-.16c-1.12-.65-1.56-1.11-1.88-1.7l-.48-2.09c0-.81.16-1.51.48-2.1l.77-1.06c1.13-.65 1.76-.82 2.47-.82l1.36.16c1.11.65 1.55 1.11 1.87 1.71l.49 2.09c0 .8-.16 1.5-.49 2.1l-.78 1.05c-1.12.65-1.76.81-2.48.81Zm.02-1.08l.83-.11c.74-.43 1.04-.75 1.27-1.18l.35-.96c0-1.27-.12-1.8-.35-2.22l-.51-.75c-.73-.43-1.13-.54-1.57-.54l-.82.11c-.75.43-1.05.75-1.28 1.18l-.33.95c0 1.27.11 1.8.33 2.23l.52.76c.73.43 1.13.53 1.56.53Zm4.45.9Zm3.79.18l-1.09-.12c-.87-.46-1.2-.82-1.44-1.3l-.35-1.08V3.32h1.26V7.71c0 .75.16 1.32.49 1.69l.79.57c1.02 0 1.4-.1 1.74-.3l.61-.5c.39-.77.49-1.25.49-1.81V3.32h1.26v7.56h-1.14l-.08-1.32-.57.84c-.9.53-1.41.66-1.98.66Zm4.8-.18Zm1.05 0V3.32h1.14l.09 1.44.38-.63c.53-.48.85-.66 1.22-.8l.81-.19.48 1.32h-.46l-.62.05-.84.31c-.45.38-.62.64-.75.97l-.18.72v4.38h-1.26Zm8.49 0Zm1.05 0V.08h1.26v10.8h-1.26Zm2.29 0Zm4.37.18l-1.34-.16c-1.09-.66-1.51-1.12-1.82-1.71l-.47-2.09c0-.8.15-1.5.45-2.09l.74-1.05c1.11-.66 1.75-.83 2.47-.83l1.37.16c1.03.66 1.43 1.1 1.7 1.63l.42 1.12c0 .74 0 .85 0 .96l0 .23-6.19.14V6.4h4.96c-.03-.69-.26-1.23-.69-1.62l-.95-.59c-1.07 0-1.47.1-1.84.3l-.65.47c-.44.75-.55 1.22-.55 1.78v.42c0 .62.11 1.14.33 1.56l.52.73c.73.42 1.12.53 1.54.53l.97-.12c.69-.47.94-.79 1.09-1.19h1.25l-.33.86c-.6.72-.98 1.01-1.42 1.22l-.96.3Zm8.14-.18Zm3.9.18l-1.18-.11c-.93-.42-1.3-.71-1.58-1.08l-.43-.82 1.23-.51.15.5.53.62c.55.27.89.34 1.29.34l.64-.05.63-.36.29-.56-.07-.75-.5-.45-.9-.27c-.73-.13-1.05-.21-1.38-.31l-.61-.23-.7-.54-.36-.78c0-.78.11-1.16.33-1.49l.53-.61c.83-.38 1.31-.47 1.87-.47.81 0 1.47.19 1.97.59l.79.95-1.15.74-.22-.67c-.55-.43-.92-.54-1.4-.54l-.83.1-.61.63.07.69.47.44.86.31c.89.16 1.35.28 1.75.43l.74.38c.51.59.64 1 .64 1.54l-.12.88c-.47.7-.8.97-1.23 1.17l-.94.29Zm3.63-.18Zm3.8.18l-1.09-.12c-.87-.46-1.21-.82-1.45-1.3l-.34-1.08V3.32h1.26V7.71c0 .75.16 1.32.5 1.69l.79.57c1.02 0 1.4-.1 1.74-.3l.61-.5c.39-.77.49-1.25.49-1.81V3.32h1.26v7.56h-1.14l-.08-1.32-.57.84c-.9.53-1.41.66-1.98.66Zm4.8-.18Zm1.05 3.3V3.32h1.14l.11 1.23.37-.47.8-.61c.7-.27 1.1-.34 1.55-.34l1.38.17c1.09.7 1.51 1.17 1.82 1.78l.46 2.02c0 .76-.15 1.44-.46 2.04l-.73 1.05c-1.1.68-1.75.85-2.49.85l-1.15-.12c-.93-.5-1.29-.85-1.54-1.3v4.54h-1.26Zm3.81-4.21l.92-.12c.76-.48 1.06-.81 1.26-1.23l.33-.93c0-1.15-.11-1.65-.33-2.08l-.5-.77c-.76-.48-1.19-.6-1.68-.6l-.94.12c-.76.48-1.05.82-1.26 1.25l-.31.93c0 1.15.1 1.65.31 2.08l.5.75c.76.48 1.2.6 1.7.6Zm4.53.91Zm1.05 3.3V3.32h1.14l.11 1.23.37-.47.8-.61c.7-.27 1.1-.34 1.55-.34l1.38.17c1.09.7 1.51 1.17 1.81 1.78l.47 2.02c0 .76-.15 1.44-.47 2.04l-.72 1.05c-1.1.68-1.75.85-2.49.85l-1.15-.12c-.93-.5-1.29-.85-1.54-1.3v4.54h-1.26Zm3.81-4.21l.93-.12c.76-.48 1.05-.81 1.26-1.23l.33-.93c0-1.15-.11-1.65-.33-2.08l-.5-.77c-.76-.48-1.19-.6-1.68-.6l-.94.12c-.76.48-1.05.82-1.26 1.25l-.31.93c0 1.15.1 1.65.31 2.08l.51.75c.76.48 1.2.6 1.7.6Zm4.53.91Zm4.42.18l-1.33-.16c-1.12-.65-1.56-1.11-1.88-1.7l-.48-2.09c0-.81.16-1.51.48-2.1l.77-1.06c1.13-.65 1.76-.82 2.47-.82l1.35.16c1.11.65 1.55 1.11 1.87 1.71l.5 2.09c0 .8-.16 1.5-.5 2.1l-.77 1.05c-1.12.65-1.76.81-2.48.81Zm.01-1.08l.83-.11c.74-.43 1.04-.75 1.27-1.18l.35-.96c0-1.27-.12-1.8-.35-2.22l-.51-.75c-.73-.43-1.13-.54-1.57-.54l-.82.11c-.75.43-1.05.75-1.28 1.18l-.33.95c0 1.27.11 1.8.33 2.23l.52.76c.73.43 1.13.53 1.56.53Zm4.45.9Zm1.05 0V3.32h1.14l.09 1.44.38-.63c.53-.48.85-.66 1.22-.8l.81-.19.48 1.32h-.47l-.62.05-.84.31c-.45.38-.62.64-.75.97l-.18.72v4.38h-1.26Zm4.5 0Zm4.02 0l-.84-.07c-.66-.28-.92-.52-1.1-.85l-.25-.8V4.38h-1.32V3.32h1.32l.16-1.83h1.1V3.32h2.19V4.38h-2.19V8.6c0 .47.1.79.28.96l.53.24h1.29v1.08h-1.17ZM0 60.88Zm.45 0l3.87-10.5H5.65l3.86 10.5H8.17L4.98 51.95 1.77 60.88H.45Zm1.77-2.7l.36-1.02H7.34l.36 1.02H2.22Zm7.58 2.7Zm3.8.18l-1.09-.12c-.87-.46-1.21-.82-1.45-1.3l-.34-1.08V53.32h1.26v4.39c0 .75.16 1.32.5 1.69l.79.57c1.02 0 1.4-.1 1.74-.3l.61-.5c.39-.77.49-1.25.49-1.81V53.32h1.26v7.56H16.22l-.08-1.32-.57.84c-.9.53-1.41.66-1.98.66Zm4.8-.18Zm-.4 3.3V63.1h.58l.65-.08.4-.57V53.32h1.26v8.79c0 .48-.08.87-.24 1.17l-.4.53c-.63.29-1.02.37-1.48.37h-.78Zm2.28-12.46l-.46-.08-.41-.54.08-.7.54-.39.69.08.42.51-.09.71-.53.41Zm1.77 9.16Zm4.42.18l-1.33-.16c-1.12-.65-1.56-1.11-1.88-1.7l-.48-2.09c0-.81.16-1.51.48-2.1l.77-1.06c1.13-.65 1.77-.82 2.47-.82l1.36.16c1.11.65 1.55 1.11 1.87 1.71l.5 2.09c0 .8-.16 1.5-.5 2.1l-.77 1.05c-1.12.65-1.76.81-2.48.81Zm.01-1.08l.83-.11c.74-.43 1.04-.75 1.27-1.18l.35-.96c0-1.27-.12-1.8-.35-2.22l-.51-.75c-.73-.43-1.13-.54-1.57-.54l-.82.11c-.75.43-1.05.75-1.28 1.18l-.33.95c0 1.27.11 1.8.33 2.23l.53.76c.73.43 1.13.53 1.56.53Zm4.45.9Zm3.79.18l-1.09-.12c-.87-.46-1.21-.82-1.45-1.3l-.35-1.08V53.32h1.26v4.39c0 .75.17 1.32.5 1.69l.8.57c1.02 0 1.4-.1 1.74-.3l.6-.5c.39-.77.49-1.25.49-1.81V53.32H38.5v7.56H37.36l-.07-1.32-.57.84c-.9.53-1.41.66-1.98.66Zm4.8-.18Zm1.05 0V53.32h1.14l.09 1.44.38-.63c.53-.48.85-.66 1.22-.8l.81-.19.48 1.32h-.47l-.62.05-.84.31c-.45.38-.62.64-.75.97l-.18.72v4.38H40.59Zm4.22 0Zm4.38.18l-1.37-.17c-1.1-.69-1.53-1.16-1.83-1.77l-.45-2.04c0-.76.15-1.43.45-2.02l.73-1.07c1.11-.68 1.75-.85 2.49-.85l1.16.12c.93.5 1.29.85 1.54 1.3V50.08h1.26v10.8H52.02l-.11-1.24-.37.48-.8.61c-.7.27-1.11.34-1.56.34Zm.15-1.1l.94-.12c.76-.48 1.06-.81 1.26-1.23l.32-.93c0-1.15-.11-1.65-.32-2.08l-.5-.77c-.76-.48-1.2-.6-1.7-.6l-.93.12c-.76.48-1.05.82-1.26 1.25l-.31.93c0 1.15.11 1.65.31 2.08l.5.75c.76.48 1.2.6 1.69.6Zm4.87.91Zm.76-8.27l-.2-3.06h1.25l-.18 3.06h-.87Zm1.62 8.27Zm1.05 0V50.08h1.26v4.51c.25-.45.6-.8 1.05-1.06l.96-.39c1.12 0 1.62.12 2.05.36l.76.59c.46.96.58 1.57.58 2.3v4.5H63.07V56.51c0-.76-.16-1.33-.48-1.71l-.78-.59c-1.04 0-1.43.11-1.78.32l-.61.51c-.4.78-.5 1.26-.5 1.83v4.01H57.65Zm7.58 0Zm3.79.18l-1.09-.12c-.87-.46-1.21-.82-1.44-1.3l-.35-1.08V53.32H67.4v4.39c0 .75.17 1.32.5 1.69l.8.57c1.02 0 1.4-.1 1.74-.3l.6-.5c.39-.77.49-1.25.49-1.81V53.32h1.26v7.56H71.65l-.08-1.32-.57.84c-.9.53-1.41.66-1.98.66Zm4.8-.18Zm1.17 0V53.32h1.26v7.56H75Zm.63-9.16l-.46-.08-.41-.54.08-.7.54-.39.69.08.43.51-.09.71-.54.41Zm5.79 9.16Zm1.5.08l-.46-.08-.41-.53.08-.68.54-.41.7.09.4.53-.08.68-.52.41Zm0-6.11l-.46-.08-.41-.54.08-.68.54-.41.7.09.4.53-.08.68-.52.41Zm5.52 6.03Zm.96 0v-.88c.71-.56 1.38-1.12 2.02-1.69l1.73-1.7c.5-.57.89-1.12 1.17-1.66l.44-1.06c0-.87-.07-1.21-.2-1.52l-.34-.58c-.57-.4-.95-.5-1.43-.5l-.86.11c-.62.41-.86.68-1.01 1.02l-.23.69-1.22.4.16-1.28c.57-.99.96-1.37 1.46-1.63l1.07-.39c1.27 0 1.82.12 2.3.36l.86.58c.55.92.69 1.5.69 2.2l-.11.98c-.41.98-.68 1.46-1.02 1.93l-.72.9c-.83.86-1.25 1.27-1.7 1.64l-.83.73 4.74.31v1.05H89.39Zm7.68 0Zm4.39.18l-1.28-.12c-1.09-.49-1.52-.86-1.84-1.35l-.49-1.1 1.25-.73.11.77c.37.67.64.93.99 1.13l.77.3c.98 0 1.39-.1 1.72-.29l.58-.44c.34-.63.43-.98.43-1.38l-.12-.88c-.47-.61-.79-.83-1.19-.97l-.82-.22h-1.25V54.71h.78c.69 0 1.23-.16 1.62-.48l.59-.76c0-1.02-.16-1.4-.47-1.71l-.76-.47c-1.21 0-1.68.17-2.03.51l-.55.78-1.33.53.19-1.08c.56-.88.94-1.22 1.42-1.46l1.05-.38c1.33 0 1.9.12 2.36.36l.8.56c.47.8.59 1.24.59 1.72l-.07.7c-.26.63-.45.9-.72 1.14l-.59.41.38.34c.65.46.91.76 1.1 1.13l.28.8c0 1.07-.13 1.6-.4 2.09l-.65.87c-1.04.59-1.68.74-2.45.74Zm8.45-.18Zm4.02 0l-.84-.07c-.66-.28-.91-.52-1.1-.85l-.25-.8V54.38h-1.32V53.32h1.32l.17-1.83h1.09v1.83h2.19v1.07h-2.19V58.6c0 .47.1.79.29.96l.52.24h1.29v1.08h-1.17Zm1.85 0Zm1.17 0V53.32h1.26v7.56h-1.26Zm.63-9.16l-.46-.08-.41-.54.08-.7.54-.39.7.08.42.51-.09.71-.54.41Zm1.8 9.16Zm4.46.18l-1.35-.16c-1.13-.66-1.57-1.12-1.89-1.71l-.48-2.07c0-.8.16-1.49.48-2.08l.76-1.05c1.13-.67 1.77-.84 2.48-.84.9 0 1.65.23 2.25.7s.98 1.08 1.14 1.86h-1.29c-.1-.47-.34-.84-.73-1.1l-.85-.39c-.96 0-1.36.11-1.73.33l-.66.53c-.44.86-.55 1.39-.55 2.02l.07.89c.26.73.43 1.03.65 1.27l.48.42.9.31c.68 0 1-.06 1.29-.16l.54-.3.53-.73 1.36-.31-.55 1.38c-1.21.95-1.95 1.19-2.84 1.19Zm4.13-.18Zm5.7 0l-3.6-4.14 3.29-3.42h1.54l-3.76 3.87.01-.9 4.12 4.59h-1.61Zm-4.65 0V50.08h1.26v10.8h-1.26Zm5.97 0Zm4.37.18l-1.34-.16c-1.09-.66-1.51-1.12-1.82-1.71l-.47-2.09c0-.8.15-1.5.45-2.09l.74-1.05c1.11-.66 1.75-.83 2.47-.83l1.37.16c1.03.66 1.42 1.1 1.7 1.63l.42 1.12c0 .74 0 .85 0 .96l0 .23-6.19.14V56.4h4.97c-.03-.69-.26-1.23-.69-1.62L140 54.2c-1.07 0-1.47.1-1.84.3l-.65.47c-.44.75-.55 1.22-.55 1.78v.42c0 .62.11 1.14.33 1.56l.53.73c.73.42 1.12.53 1.54.53l.97-.12c.69-.47.94-.79 1.09-1.19h1.25l-.33.86c-.6.72-.98 1.01-1.43 1.22l-.95.3Zm3.91-.18Zm4.02 0l-.84-.07c-.66-.28-.91-.52-1.1-.85l-.25-.8V54.38h-1.32V53.32h1.32l.16-1.83h1.1v1.83h2.19v1.07h-2.19V58.6c0 .47.1.79.28.96l.53.24h1.29v1.08H147.3Zm1.85 0Zm3.9.18l-1.18-.11c-.93-.42-1.3-.71-1.58-1.08l-.43-.82 1.23-.51.15.5.53.62c.55.27.89.34 1.29.34l.64-.05.63-.36.29-.56-.08-.75-.5-.45-.9-.27c-.73-.13-1.05-.21-1.38-.31l-.61-.23-.7-.54-.36-.78c0-.78.11-1.16.33-1.49l.53-.61c.83-.38 1.31-.47 1.87-.47.81 0 1.46.19 1.96.59l.8.95-1.15.74-.22-.67c-.55-.43-.93-.54-1.4-.54l-.83.1-.61.63.07.69.47.44.86.31c.89.16 1.35.28 1.75.43l.74.38c.51.59.64 1 .64 1.54l-.12.88c-.47.7-.8.97-1.23 1.17l-.94.29Zm7.61-.18Zm4.43.18l-1.33-.16c-1.12-.65-1.56-1.11-1.88-1.7l-.48-2.09c0-.81.16-1.51.48-2.1l.77-1.06c1.13-.65 1.76-.82 2.47-.82l1.36.16c1.11.65 1.55 1.11 1.87 1.71l.5 2.09c0 .8-.17 1.5-.5 2.1l-.78 1.05c-1.12.65-1.76.81-2.48.81Zm.01-1.08l.83-.11c.74-.43 1.04-.75 1.27-1.18l.35-.96c0-1.27-.12-1.8-.35-2.22l-.51-.75c-.73-.43-1.13-.54-1.57-.54l-.82.11c-.75.43-1.05.75-1.28 1.18l-.33.95c0 1.27.11 1.8.33 2.23l.52.76c.73.43 1.13.53 1.56.53Zm4.45.9Zm3.79.18l-1.09-.12c-.87-.46-1.2-.82-1.44-1.3l-.35-1.08V53.32h1.26v4.39c0 .75.16 1.32.5 1.69l.79.57c1.02 0 1.4-.1 1.74-.3l.61-.5c.39-.77.49-1.25.49-1.81V53.32h1.26v7.56h-1.14l-.08-1.32-.57.84c-.9.53-1.41.66-1.98.66Zm4.8-.18Zm3.23 0l-2.87-7.56h1.32l2.28 6.35 2.29-6.35h1.29l-2.87 7.56h-1.45Zm4.3 0Zm4.37.18l-1.34-.16c-1.09-.66-1.51-1.12-1.82-1.71l-.47-2.09c0-.8.15-1.5.45-2.09l.74-1.05c1.11-.66 1.75-.83 2.47-.83l1.37.16c1.03.66 1.43 1.1 1.7 1.63l.42 1.12c0 .74 0 .85 0 .96l0 .23-6.19.14V56.4h4.96c-.03-.69-.26-1.23-.69-1.62l-.95-.59c-1.07 0-1.47.1-1.84.3l-.65.47c-.44.75-.55 1.22-.55 1.78v.42c0 .62.11 1.14.33 1.56l.52.73c.73.42 1.12.53 1.54.53l.97-.12c.69-.47.94-.79 1.09-1.19h1.25l-.33.86c-.6.72-.98 1.01-1.42 1.22l-.96.3Zm4.16-.18Zm1.05 0V53.32h1.14l.09 1.44.38-.63c.53-.48.85-.66 1.22-.8l.81-.19.48 1.32h-.47l-.62.05-.84.31c-.45.38-.62.64-.75.97l-.18.72v4.38h-1.26Zm4.5 0Zm4.02 0l-.84-.07c-.66-.28-.92-.52-1.1-.85l-.25-.8V54.38h-1.32V53.32h1.32l.16-1.83h1.1v1.83h2.19v1.07h-2.19V58.6c0 .47.1.79.28.96l.52.24h1.29v1.08h-1.17Zm1.85 0Zm3.9.18l-1.18-.11c-.93-.42-1.3-.71-1.58-1.08l-.43-.82 1.23-.51.15.5.53.62c.55.27.89.34 1.29.34l.64-.05.63-.36.29-.56-.08-.75-.5-.45-.9-.27c-.73-.13-1.05-.21-1.38-.31l-.61-.23-.7-.54-.36-.78c0-.78.11-1.16.33-1.49l.54-.61c.83-.38 1.31-.47 1.87-.47.81 0 1.46.19 1.96.59l.8.95-1.16.74-.21-.67c-.55-.43-.93-.54-1.41-.54l-.83.1-.61.63.06.69.47.44.86.31c.89.16 1.35.28 1.75.43l.74.38c.51.59.64 1 .64 1.54l-.12.88c-.47.7-.8.97-1.23 1.17l-.93.29Zm3.63-.18Zm.06 1.85l.87-3.32h1.3l-1.3 3.32h-.87Zm6.65-1.85Zm4.38.18l-1.37-.17c-1.1-.69-1.53-1.16-1.83-1.77l-.45-2.04c0-.76.15-1.43.45-2.02l.73-1.07c1.11-.68 1.75-.85 2.49-.85l1.16.12c.93.5 1.29.85 1.54 1.3V50.08h1.26v10.8h-1.14l-.11-1.24-.36.48-.8.61c-.7.27-1.11.34-1.56.34Zm.15-1.1l.94-.12c.76-.48 1.06-.81 1.26-1.23l.32-.93c0-1.15-.11-1.65-.32-2.08l-.5-.77c-.76-.48-1.2-.6-1.7-.6l-.93.12c-.76.48-1.05.82-1.26 1.25l-.31.93c0 1.15.11 1.65.31 2.08l.5.75c.76.48 1.2.6 1.69.6Zm4.87.91Zm4.42.18l-1.33-.16c-1.12-.65-1.56-1.11-1.88-1.7l-.48-2.09c0-.81.16-1.51.48-2.1l.78-1.06c1.13-.65 1.76-.82 2.46-.82l1.36.16c1.11.65 1.55 1.11 1.87 1.71l.5 2.09c0 .8-.16 1.5-.5 2.1l-.77 1.05c-1.12.65-1.76.81-2.48.81Zm.01-1.08l.83-.11c.74-.43 1.04-.75 1.27-1.18l.35-.96c0-1.27-.12-1.8-.35-2.22l-.51-.75c-.73-.43-1.13-.54-1.57-.54l-.82.11c-.75.43-1.05.75-1.28 1.18l-.33.95c0 1.27.11 1.8.33 2.23l.53.76c.73.43 1.13.53 1.56.53Zm4.45.9Zm1.05 0V53.32h1.14l.06 1.32.58-.84c.89-.53 1.4-.66 1.97-.66l1.1.12c.86.47 1.2.82 1.44 1.3l.36 1.07v5.24H244.6V56.49c0-.76-.17-1.33-.51-1.71l-.8-.57c-1.03 0-1.4.11-1.74.32l-.59.5c-.39.77-.49 1.24-.49 1.81v4.04h-1.26Zm7.56 0Zm4.02 0l-.84-.07c-.66-.28-.91-.52-1.1-.85l-.25-.8V54.38h-1.32V53.32h1.32l.17-1.83h1.09v1.83h2.19v1.07h-2.19V58.6c0 .47.1.79.29.96l.52.24h1.29v1.08H250.8Zm5.84 0Zm5.88 0V58.62H257.2v-.97l5.1-7.28h1.47v7.14h1.56v1.11h-1.56v2.25h-1.25Zm-3.93-3.36h3.99V51.77l-3.99 5.75Zm11.14 3.36Zm1.05 0V50.08h1.26v4.51c.25-.45.6-.8 1.05-1.06l.96-.39c1.12 0 1.62.12 2.05.36l.76.59c.46.96.58 1.57.58 2.3v4.5H276.2V56.51c0-.76-.16-1.33-.48-1.71l-.78-.59c-1.04 0-1.43.11-1.78.32l-.61.51c-.4.78-.5 1.26-.5 1.83v4.01h-1.26Zm7.58 0Zm3.51.18l-1.12-.11c-.82-.43-1.12-.72-1.33-1.07l-.3-.75c0-.93.13-1.36.39-1.71l.64-.63c.97-.37 1.54-.47 2.21-.47h2c0-.47-.08-.86-.23-1.17l-.35-.56-.89-.4c-.89 0-1.3.12-1.65.36l-.57.6-1.37.47.24-.99c.61-.73 1-1.01 1.47-1.2l.96-.3c1.21 0 1.79.13 2.25.39l.82.61c.46.91.58 1.44.58 2.06v4.68H284.5l-.08-1.34-.23.41-.49.53-.66.38-.83.2Zm.19-1.07l.67-.07.81-.49c.4-.51.55-.8.65-1.11l.17-.63v-.38h-1.89c-.49 0-.88.06-1.19.18l-.51.27-.33.64.06.77.43.55.79.28Zm4.45.88Zm3.79.18l-1.09-.12c-.87-.46-1.2-.82-1.44-1.3l-.35-1.08V53.32h1.26v4.39c0 .75.17 1.32.5 1.69l.8.57c1.02 0 1.4-.1 1.74-.3l.61-.5c.39-.77.49-1.25.49-1.81V53.32h1.26v7.56h-1.14l-.07-1.32-.57.84c-.9.53-1.41.66-1.98.66Zm4.8-.18Zm4.02 0l-.84-.07c-.66-.28-.92-.52-1.1-.85l-.25-.8V54.38h-1.32V53.32h1.32l.16-1.83h1.1v1.83h2.19v1.07h-2.19V58.6c0 .47.1.79.28.96l.53.24h1.29v1.08h-1.17Zm1.65 0Zm4.36.18l-1.34-.16c-1.09-.66-1.51-1.12-1.83-1.71l-.47-2.09c0-.8.15-1.5.45-2.09l.74-1.05c1.11-.66 1.75-.83 2.47-.83l1.37.16c1.03.66 1.43 1.1 1.7 1.63l.42 1.12c0 .74 0 .85 0 .96l0 .23-6.19.14V56.4h4.96c-.03-.69-.26-1.23-.69-1.62l-.95-.59c-1.07 0-1.47.1-1.84.3l-.65.47c-.44.75-.55 1.22-.55 1.78v.42c0 .62.11 1.14.33 1.56l.52.73c.73.42 1.12.53 1.54.53l.97-.12c.69-.47.94-.79 1.09-1.19h1.24l-.33.86c-.6.72-.97 1.01-1.42 1.22l-.95.3Zm8.14-.18Zm1.05 3.3V53.32h1.14l.11 1.23.37-.47.8-.61c.7-.27 1.1-.34 1.55-.34l1.38.17c1.09.7 1.51 1.17 1.82 1.78l.46 2.02c0 .76-.15 1.44-.46 2.04l-.73 1.05c-1.1.68-1.74.85-2.48.85l-1.15-.12c-.93-.5-1.28-.85-1.53-1.3v4.54h-1.26Zm3.81-4.21l.92-.12c.76-.48 1.06-.81 1.27-1.23l.33-.93c0-1.15-.11-1.65-.33-2.08l-.51-.77c-.76-.48-1.19-.6-1.68-.6l-.94.12c-.76.48-1.06.82-1.27 1.25l-.31.93c0 1.15.11 1.65.31 2.08l.51.75c.76.48 1.2.6 1.7.6Zm4.53.91Zm1.05 0V53.32h1.14l.09 1.44.38-.63c.53-.48.85-.66 1.22-.8l.81-.19.48 1.32h-.46l-.62.05-.84.31c-.45.38-.62.64-.75.97l-.18.72v4.38h-1.26Zm4.5 0Zm1.17 0V53.32h1.26v7.56h-1.26Zm.63-9.16l-.46-.08-.41-.54.08-.7.54-.39.7.08.42.51-.09.71-.55.41Zm1.8 9.16Zm4.42.18l-1.33-.16c-1.12-.65-1.56-1.11-1.88-1.7l-.48-2.09c0-.81.16-1.51.48-2.1l.78-1.06c1.13-.65 1.77-.82 2.46-.82l1.36.16c1.11.65 1.55 1.11 1.87 1.71l.49 2.09c0 .8-.16 1.5-.49 2.1l-.78 1.05c-1.12.65-1.76.81-2.48.81Zm.02-1.08l.83-.11c.74-.43 1.04-.75 1.27-1.18l.35-.96c0-1.27-.12-1.8-.35-2.22l-.51-.75c-.73-.43-1.13-.54-1.57-.54l-.82.11c-.75.43-1.05.75-1.28 1.18l-.33.95c0 1.27.11 1.8.33 2.23l.53.76c.73.43 1.13.53 1.56.53Zm4.45.9Zm1.05 0V53.32h1.14l.09 1.44.38-.63c.53-.48.85-.66 1.22-.8l.81-.19.48 1.32h-.47l-.62.05-.84.31c-.45.38-.62.64-.75.97l-.18.72v4.38h-1.26Zm4.5 0Zm1.17 0V53.32h1.26v7.56h-1.26Zm.63-9.16l-.46-.08-.41-.54.08-.7.54-.39.7.08.42.51-.09.71-.55.41Zm1.8 9.16Zm4.02 0l-.84-.07c-.66-.28-.92-.52-1.1-.85l-.26-.8V54.38H350.4V53.32h1.32l.16-1.83h1.1v1.83h2.19v1.07h-2.19V58.6c0 .47.1.79.29.96l.52.24h1.29v1.08h-1.17Zm1.65 0Zm4.37.18l-1.34-.16c-1.09-.66-1.52-1.12-1.83-1.71l-.46-2.09c0-.8.15-1.5.45-2.09l.74-1.05c1.11-.66 1.75-.83 2.47-.83l1.36.16c1.03.66 1.43 1.1 1.69 1.63l.42 1.12c0 .74 0 .85 0 .96l0 .23-6.19.14V56.4h4.97c-.03-.69-.26-1.23-.69-1.62l-.95-.59c-1.07 0-1.47.1-1.84.3l-.65.47c-.44.75-.55 1.22-.55 1.78v.42c0 .62.11 1.14.33 1.56l.53.73c.73.42 1.12.53 1.54.53l.97-.12c.69-.47.94-.79 1.09-1.19h1.25l-.33.86c-.6.72-.97 1.01-1.42 1.22l-.96.3Zm-1.5-8.38l-.13-.9 3.02-1.92.18 1.08-3.06 1.74Zm5.66 8.2Zm1.5.08l-.46-.08-.41-.53.08-.68.54-.41.7.09.4.53-.08.68-.53.41ZM0 110.88Zm2.68-3.19l-.62-.08-.77-.53c-.32-.55-.4-.86-.4-1.18l.08-.65.53-.77c.55-.32.85-.4 1.17-.4l.65.08.77.54c.32.55.4.86.4 1.2l-.08.63-.54.76c-.55.32-.86.4-1.2.4Zm6.71 3.19Zm3.59 0v-9.46H9.84v-1.04h7.53v1.04H14.24v9.46H12.98Zm4.82 0Zm1.17 0v-7.56h1.26v7.56H18.97Zm.63-9.16l-.46-.08-.41-.54.08-.7.54-.39.7.08.42.51-.08.71-.55.41Zm1.8 9.16Zm4.46.18l-1.35-.16c-1.13-.66-1.57-1.12-1.89-1.71l-.48-2.07c0-.8.16-1.49.48-2.08l.76-1.05c1.13-.67 1.77-.84 2.48-.84.9 0 1.65.23 2.25.7s.98 1.08 1.14 1.86H27.96c-.1-.47-.35-.84-.74-1.1l-.85-.39c-.96 0-1.36.11-1.73.33l-.66.53c-.44.86-.55 1.39-.55 2.02l.06.89c.26.73.44 1.03.65 1.27l.48.42.9.31c.68 0 1-.06 1.3-.16l.53-.3.53-.73 1.36-.31-.54 1.38c-1.21.95-1.96 1.19-2.85 1.19Zm4.13-.18Zm5.7 0l-3.6-4.14 3.28-3.42h1.54l-3.76 3.87.01-.9 4.12 4.59H35.68Zm-4.65 0v-10.8h1.26v10.8H31.03Zm5.97 0Zm4.37.18l-1.34-.16c-1.09-.66-1.52-1.12-1.83-1.71l-.47-2.09c0-.8.15-1.5.45-2.09l.74-1.05c1.11-.66 1.75-.83 2.47-.83l1.36.16c1.03.66 1.43 1.1 1.7 1.63l.42 1.12c0 .74 0 .85 0 .96l0 .23-6.19.14v-.98h4.97c-.03-.69-.26-1.23-.69-1.62l-.95-.59c-1.07 0-1.47.1-1.84.3l-.65.47c-.44.75-.55 1.22-.55 1.78v.42c0 .62.11 1.14.33 1.56l.52.73c.73.42 1.12.53 1.54.53l.97-.12c.69-.47.94-.79 1.09-1.19h1.25l-.33.86c-.6.72-.98 1.01-1.42 1.22l-.96.3Zm3.91-.18Zm4.02 0l-.84-.07c-.66-.28-.91-.52-1.09-.85l-.26-.8v-4.78H45.79v-1.07h1.32l.17-1.83h1.1v1.83h2.19v1.07H48.37v4.21c0 .47.09.79.28.96l.52.24h1.29v1.08H49.3Zm5.84 0Zm6.51 0l2.22-10.59h1.19l-2.21 10.59h-1.2Zm-4.35 0l2.22-10.59h1.2L58.5 110.88H57.3Zm-1.47-2.95V106.8H65.85v1.12H55.83Zm.62-3.57v-1.11H66.49v1.11H56.44Zm10.75 6.53Zm2.28 0v-9.09l-1.8.45v-.9l2.22-.96h.85v10.5H69.47Zm2.39 0Zm5.14.18c-.92 0-1.72-.23-2.38-.67l-1.51-1.91c-.35-.82-.52-1.77-.52-2.85l.52-2.84c.35-.82.86-1.45 1.51-1.9s1.47-.69 2.38-.69 1.71.23 2.36.69 1.16 1.09 1.51 1.9l.52 2.84c0 1.08-.17 2.03-.52 2.85l-1.51 1.91c-.65.45-1.44.67-2.36.67ZM77 109.94l1.13-.17c.94-.69 1.31-1.19 1.58-1.83l.4-2.33c0-.9-.13-1.67-.4-2.31l-.64-1.14c-.94-.68-1.48-.85-2.08-.85l-1.14.17c-.95.68-1.32 1.17-1.59 1.83l-.39 2.31c0 .9.13 1.67.39 2.33l.64 1.13c.95.69 1.49.86 2.09.86Zm5.12.93Zm5.88 0v-2.25H82.67v-.97l5.1-7.28h1.47v7.14H90.8v1.11H89.24v2.25H88Zm-3.93-3.36h3.99v-5.75l-3.99 5.75Zm7.16 3.36Zm.96 0v-.88c.71-.56 1.38-1.12 2.02-1.69l1.73-1.7c.5-.57.89-1.12 1.17-1.66l.43-1.06c0-.87-.06-1.21-.19-1.52l-.34-.58c-.57-.4-.95-.5-1.43-.5l-.86.11c-.62.41-.86.68-1.01 1.02l-.23.69-1.21.4.15-1.28c.57-.99.97-1.37 1.47-1.63l1.07-.39c1.27 0 1.82.12 2.3.36l.86.58c.55.92.69 1.5.69 2.2l-.1.98c-.41.98-.68 1.46-1.02 1.93l-.72.9c-.83.86-1.25 1.27-1.69 1.64l-.84.73 4.74.31v1.05H92.19Zm11.67 0Zm1.08-3.9v-1.06h10.92v1.06H104.94Zm16 3.9Zm1.12 0v-10.5h3.39c.82 0 1.49.14 2.01.42l.9.63c.5.92.62 1.44.62 2.02l-.13 1.08c-.51.94-.9 1.31-1.43 1.59l-2.04.42h-2.07v4.34h-1.26Zm5.55 0l-2.31-4.69h1.41l2.38 4.69h-1.49Zm-4.29-5.33h2.04c.8 0 1.38-.19 1.75-.59l.57-.89c0-1.23-.18-1.72-.55-2.08l-.96-.55h-2.85v4.11Zm6.07 5.33Zm4.37.18l-1.34-.16c-1.09-.66-1.51-1.12-1.82-1.71l-.47-2.09c0-.8.15-1.5.45-2.09l.74-1.05c1.11-.66 1.75-.83 2.47-.83l1.37.16c1.03.66 1.43 1.1 1.7 1.63l.42 1.12c0 .74 0 .85 0 .96l0 .23-6.19.14v-.98h4.96c-.03-.69-.26-1.23-.69-1.62l-.95-.59c-1.07 0-1.47.1-1.84.3l-.65.47c-.44.75-.55 1.22-.55 1.78v.42c0 .62.11 1.14.33 1.56l.53.73c.73.42 1.12.53 1.54.53l.97-.12c.69-.47.94-.79 1.09-1.19h1.25l-.33.86c-.6.72-.98 1.01-1.43 1.22l-.95.3Zm4.16-.18Zm1.05 0v-7.56h1.14l.07 1.08.56-.69c.81-.45 1.25-.57 1.74-.57l.74.06.91.37c.48.43.67.7.83 1.03l.62-.81c.91-.51 1.4-.64 1.92-.64l1.09.12c.87.47 1.2.82 1.43 1.3l.36 1.07v5.24h-1.25v-4.38c0-.76-.15-1.33-.47-1.71l-.75-.57c-.95 0-1.3.11-1.61.32l-.55.5c-.36.78-.45 1.26-.45 1.83v4.02h-1.26v-4.38c0-.76-.15-1.33-.46-1.71l-.75-.57c-.95 0-1.3.11-1.61.32l-.54.5c-.36.78-.45 1.26-.45 1.83v4.02h-1.26Zm12.31 0Zm5.01.18l-.82-.06c-.69-.25-.99-.42-1.25-.63l-.48-.45-.17-.28-.1 1.24h-1.14v-10.8h1.26v4.48c.24-.39.59-.72 1.04-1l1-.42c1.39 0 2.03.17 2.58.53l.98.81c.61 1.19.76 1.87.76 2.62l-.46 2.04c-.3.6-.73 1.07-1.28 1.41l-1.19.51Zm-.15-1.1l.92-.12c.76-.48 1.06-.81 1.26-1.23l.33-.93c0-1.15-.11-1.65-.33-2.08l-.5-.77c-.76-.48-1.19-.6-1.68-.6l-.94.12c-.76.48-1.05.82-1.26 1.25l-.31.93c0 1.15.11 1.65.31 2.08l.5.75c.76.48 1.2.6 1.7.6Zm4.53.91Zm4.43.18l-1.33-.16c-1.12-.65-1.56-1.11-1.88-1.7l-.48-2.09c0-.81.16-1.51.48-2.1l.77-1.06c1.13-.65 1.76-.82 2.47-.82l1.36.16c1.11.65 1.55 1.11 1.87 1.71l.5 2.09c0 .8-.17 1.5-.5 2.1l-.78 1.05c-1.12.65-1.76.81-2.48.81Zm.01-1.08l.83-.11c.74-.43 1.04-.75 1.27-1.18l.35-.96c0-1.27-.12-1.8-.35-2.22l-.51-.75c-.73-.43-1.13-.54-1.57-.54l-.82.11c-.75.43-1.05.75-1.28 1.18l-.33.95c0 1.27.11 1.8.33 2.23l.52.76c.73.43 1.13.53 1.56.53Zm4.45.9Zm3.79.18l-1.09-.12c-.87-.46-1.2-.82-1.44-1.3l-.35-1.08v-5.25h1.26v4.39c0 .75.16 1.32.5 1.69l.79.57c1.02 0 1.4-.1 1.74-.3l.61-.5c.39-.77.49-1.25.49-1.81v-4.05h1.26v7.56h-1.14l-.08-1.32-.57.84c-.9.53-1.41.66-1.98.66Zm4.8-.18Zm1.05 0v-7.56h1.14l.09 1.44.38-.63c.53-.48.85-.66 1.22-.8l.81-.19.48 1.32h-.46l-.62.05-.84.31c-.45.38-.62.64-.75.97l-.18.72v4.38H179.2Zm4.5 0Zm3.9.18l-1.18-.11c-.93-.42-1.3-.71-1.58-1.08l-.44-.82 1.23-.51.16.5.53.62c.55.27.89.34 1.29.34l.64-.05.63-.36.29-.56-.08-.75-.5-.45-.9-.27c-.73-.13-1.06-.21-1.38-.31l-.61-.23-.7-.54-.36-.78c0-.78.11-1.16.33-1.49l.53-.61c.83-.38 1.32-.47 1.87-.47.81 0 1.47.19 1.97.59l.79.95-1.15.74-.22-.67c-.55-.43-.92-.54-1.4-.54l-.83.1-.61.63.06.69.47.44.86.31c.89.16 1.35.28 1.75.43l.74.38c.51.59.64 1 .64 1.54l-.12.88c-.47.7-.8.97-1.23 1.17l-.93.29Zm3.63-.18Zm4.37.18l-1.34-.16c-1.09-.66-1.51-1.12-1.83-1.71l-.46-2.09c0-.8.15-1.5.45-2.09l.74-1.05c1.11-.66 1.75-.83 2.47-.83l1.37.16c1.03.66 1.42 1.1 1.7 1.63l.42 1.12c0 .74 0 .85 0 .96l0 .23-6.19.14v-.98h4.97c-.03-.69-.26-1.23-.69-1.62l-.95-.59c-1.07 0-1.47.1-1.84.3l-.65.47c-.44.75-.55 1.22-.55 1.78v.42c0 .62.11 1.14.33 1.56l.52.73c.73.42 1.12.53 1.55.53l.97-.12c.69-.47.94-.79 1.09-1.19h1.25l-.33.86c-.6.72-.98 1.01-1.43 1.22l-.95.3Zm4.16-.18Zm1.05 0v-7.56h1.14l.07 1.08.56-.69c.81-.45 1.25-.57 1.74-.57l.74.06.91.37c.48.43.67.7.83 1.03l.61-.81c.91-.51 1.4-.64 1.92-.64l1.09.12c.87.47 1.2.82 1.43 1.3l.36 1.07v5.24h-1.25v-4.38c0-.76-.15-1.33-.47-1.71l-.75-.57c-.95 0-1.3.11-1.61.32l-.55.5c-.36.78-.45 1.26-.45 1.83v4.02h-1.26v-4.38c0-.76-.15-1.33-.46-1.71l-.75-.57c-.95 0-1.3.11-1.61.32l-.54.5c-.36.78-.45 1.26-.45 1.83v4.02h-1.26Zm12.31 0Zm4.37.18l-1.34-.16c-1.09-.66-1.51-1.12-1.82-1.71l-.47-2.09c0-.8.15-1.5.45-2.09l.74-1.05c1.11-.66 1.75-.83 2.47-.83l1.37.16c1.03.66 1.42 1.1 1.7 1.63l.42 1.12c0 .74 0 .85 0 .96l0 .23-6.19.14v-.98h4.97c-.03-.69-.26-1.23-.69-1.62l-.95-.59c-1.07 0-1.47.1-1.84.3l-.65.47c-.44.75-.55 1.22-.55 1.78v.42c0 .62.11 1.14.33 1.56l.53.73c.73.42 1.12.53 1.54.53l.97-.12c.69-.47.94-.79 1.09-1.19h1.25l-.33.86c-.6.72-.98 1.01-1.43 1.22l-.95.3Zm4.16-.18Zm1.05 0v-7.56h1.14l.06 1.32.58-.84c.89-.53 1.4-.66 1.97-.66l1.1.12c.86.47 1.19.82 1.43 1.3l.36 1.07v5.24h-1.26v-4.38c0-.76-.17-1.33-.51-1.71l-.8-.57c-1.03 0-1.41.11-1.74.32l-.6.5c-.39.77-.48 1.24-.48 1.81v4.04H222.7Zm7.56 0Zm4.02 0l-.84-.07c-.66-.28-.91-.52-1.09-.85l-.25-.8v-4.78h-1.32v-1.07h1.32l.16-1.83h1.1v1.83h2.19v1.07h-2.19v4.21c0 .47.09.79.28.96l.52.24h1.29v1.08h-1.17Zm5.84 0Zm4.28 0l-3.95-10.5h1.37l3.31 9.16 3.35-9.16h1.34l-3.95 10.5h-1.47Zm5.76 0Zm1.12 0v-10.5h1.26v10.5h-1.26Zm2.39 0Zm1.12 0v-10.5h3.42c.83 0 1.51.14 2.04.42l.94.63c.51.92.64 1.44.64 2.03l-.13 1.09c-.51.93-.9 1.3-1.43 1.58l-2.06.42h-2.16v4.32h-1.26Zm1.26-5.38h2.14c.84 0 1.44-.18 1.8-.56l.54-.86c0-1.26-.18-1.76-.54-2.11l-.96-.54h-2.99v4.07Zm10.3 5.38Zm1.12 0v-10.5h3.09c1.23 0 2.24.21 3.03.64s1.39 1.03 1.77 1.82.58 1.72.58 2.82c0 1.08-.19 2.01-.58 2.79s-.97 1.38-1.77 1.8-1.8.63-3.03.63h-3.09Zm1.26-1.05h1.8c1.02 0 1.83-.16 2.43-.5l1.03-.82c.52-1.25.65-1.99.65-2.86l-.39-2.26c-.26-.63-.69-1.12-1.29-1.46s-1.41-.51-2.43-.51h-1.8v8.4Zm7.94 1.05Zm3.8.18l-1.09-.12c-.87-.46-1.21-.82-1.44-1.3l-.35-1.08v-5.25h1.26v4.39c0 .75.16 1.32.5 1.69l.79.57c1.02 0 1.4-.1 1.74-.3l.61-.5c.39-.77.49-1.25.49-1.81v-4.05h1.26v7.56H283.1l-.08-1.32-.57.84c-.9.53-1.41.66-1.98.66Zm4.8-.18Zm1.05 3.3V103.32h1.14l.11 1.23.37-.47.8-.61c.7-.27 1.1-.34 1.55-.34l1.38.17c1.09.7 1.51 1.17 1.81 1.78l.47 2.02c0 .76-.15 1.44-.47 2.04l-.72 1.05c-1.1.68-1.75.85-2.49.85l-1.15-.12c-.93-.5-1.29-.85-1.54-1.3v4.54h-1.26Zm3.81-4.21l.92-.12c.76-.48 1.06-.81 1.26-1.23l.33-.93c0-1.15-.11-1.65-.33-2.08l-.5-.77c-.76-.48-1.19-.6-1.68-.6l-.94.12c-.76.48-1.05.82-1.26 1.25l-.31.93c0 1.15.1 1.65.31 2.08l.5.75c.76.48 1.2.6 1.7.6Zm4.53.91Zm4.42.18l-1.33-.16c-1.12-.65-1.56-1.11-1.88-1.7l-.48-2.09c0-.81.16-1.51.48-2.1l.77-1.06c1.13-.65 1.76-.82 2.47-.82l1.35.16c1.11.65 1.55 1.11 1.87 1.71l.5 2.09c0 .8-.16 1.5-.5 2.1l-.77 1.05c-1.12.65-1.76.81-2.48.81Zm.01-1.08l.83-.11c.74-.43 1.04-.75 1.27-1.18l.35-.96c0-1.27-.12-1.8-.35-2.22l-.51-.75c-.73-.43-1.13-.54-1.57-.54l-.82.11c-.75.43-1.05.75-1.28 1.18l-.33.95c0 1.27.11 1.8.33 2.23l.52.76c.73.43 1.13.53 1.56.53Zm4.45.9Zm1.05 0v-7.56h1.14l.06 1.32.58-.84c.89-.53 1.4-.66 1.97-.66l1.1.12c.86.47 1.19.82 1.43 1.3l.36 1.07v5.24h-1.26v-4.38c0-.76-.17-1.33-.51-1.71l-.8-.57c-1.03 0-1.4.11-1.73.32l-.6.5c-.39.77-.48 1.24-.48 1.81v4.04h-1.26Zm7.56 0Zm4.02 0l-.84-.07c-.66-.28-.91-.52-1.1-.85l-.26-.8v-4.78h-1.32v-1.07H314l.16-1.83h1.1v1.83h2.19v1.07h-2.19v4.21c0 .47.1.79.29.96l.53.24h1.29v1.08h-1.17ZM0 135.88Zm3.74 2.17l-1.5-1.86c-.46-.71-.83-1.51-1.11-2.4l-.4-2.91c0-1.05.13-2.02.4-2.91l1.11-2.41c.46-.72.96-1.34 1.5-1.85H5.02v.12l-1.61 2.01c-.45.74-.8 1.54-1.06 2.38l-.38 2.66c0 .93.12 1.82.38 2.67l1.08 2.37c.46.74.99 1.41 1.59 2.01v.12H3.74Zm1.86-2.17Zm3.23 0l-2.87-7.56H7.28l2.28 6.35 2.29-6.35h1.29l-2.87 7.56H8.82Zm4.3 0Zm3.51.18l-1.12-.11c-.82-.43-1.12-.72-1.32-1.07l-.3-.75c0-.93.13-1.36.39-1.71l.64-.63c.97-.37 1.55-.47 2.21-.47h2c0-.47-.08-.86-.23-1.17l-.35-.56-.89-.4c-.89 0-1.3.12-1.65.36l-.56.6-1.37.47.24-.99c.61-.73 1-1.01 1.47-1.2l.96-.3c1.21 0 1.79.13 2.25.39l.82.61c.46.91.58 1.44.58 2.06v4.68H19.26l-.08-1.34-.23.41-.49.53-.66.38-.83.2Zm.2-1.07l.66-.07.81-.49c.4-.51.55-.8.65-1.11l.16-.63v-.38H17.24c-.49 0-.88.06-1.19.18l-.51.27-.32.64.06.77.44.55.78.28Zm4.45.88Zm1.05 0v-10.8h1.26v10.8H22.33Zm2.29 0Zm1.17 0v-7.56h1.26v7.56H25.79Zm.63-9.16l-.46-.08-.41-.54.08-.7.54-.39.7.08.42.51-.09.71-.54.41Zm1.8 9.16Zm4.38.18l-1.37-.17c-1.1-.69-1.53-1.16-1.83-1.77l-.45-2.04c0-.76.15-1.43.45-2.02l.73-1.07c1.11-.68 1.75-.85 2.49-.85l1.16.12c.93.5 1.29.85 1.54 1.3v-4.48h1.26v10.8H35.44l-.11-1.24-.37.48-.8.61c-.7.27-1.11.34-1.57.34Zm.15-1.1l.94-.12c.76-.48 1.06-.81 1.26-1.23l.32-.93c0-1.15-.11-1.65-.32-2.08l-.5-.77c-.76-.48-1.2-.6-1.7-.6l-.93.12c-.76.48-1.05.82-1.26 1.25l-.31.93c0 1.15.1 1.65.31 2.08l.5.75c.76.48 1.2.6 1.69.6Zm4.87.91Zm3.51.18l-1.12-.11c-.82-.43-1.12-.72-1.33-1.07l-.3-.75c0-.93.13-1.36.39-1.71l.64-.63c.97-.37 1.54-.47 2.2-.47h2c0-.47-.07-.86-.22-1.17l-.35-.56-.89-.4c-.89 0-1.31.12-1.66.36l-.56.6-1.37.47.24-.99c.61-.73 1-1.01 1.47-1.2l.96-.3c1.21 0 1.79.13 2.25.39l.82.61c.46.91.58 1.44.58 2.06v4.68H43.77l-.08-1.34-.23.41-.49.53-.66.38-.83.2Zm.19-1.07l.66-.07.82-.49c.4-.51.55-.8.65-1.11l.16-.63v-.38H41.74c-.49 0-.88.06-1.18.18l-.51.27-.33.64.06.77.43.55.78.28Zm4.25.88Zm4.02 0l-.84-.07c-.66-.28-.91-.52-1.09-.85l-.25-.8v-4.78H46.1v-1.07h1.32l.16-1.83h1.1v1.83h2.19v1.07H48.68v4.21c0 .47.09.79.28.96l.52.24h1.29v1.08H49.61Zm1.85 0Zm1.17 0v-7.56h1.26v7.56H52.63Zm.63-9.16l-.46-.08-.41-.54.08-.7.54-.39.7.08.42.51-.09.71-.54.41Zm1.8 9.16Zm4.43.18l-1.33-.16c-1.12-.65-1.56-1.11-1.88-1.7l-.48-2.09c0-.81.16-1.51.48-2.1l.77-1.06c1.13-.65 1.76-.82 2.47-.82l1.36.16c1.11.65 1.55 1.11 1.87 1.71l.5 2.09c0 .8-.17 1.5-.5 2.1l-.77 1.05c-1.12.65-1.76.81-2.48.81Zm.01-1.08l.83-.11c.74-.43 1.04-.75 1.27-1.18l.35-.96c0-1.27-.12-1.8-.35-2.22l-.51-.75c-.73-.43-1.13-.54-1.57-.54l-.82.11c-.75.43-1.05.75-1.28 1.18l-.33.95c0 1.27.11 1.8.33 2.23l.52.76c.73.43 1.13.53 1.56.53Zm4.45.9Zm1.05 0v-7.56h1.14l.06 1.32.58-.84c.89-.53 1.4-.66 1.97-.66l1.1.12c.86.47 1.19.82 1.43 1.3l.36 1.07v5.24H70.39v-4.38c0-.76-.17-1.33-.51-1.71l-.8-.57c-1.03 0-1.41.11-1.74.32l-.6.5c-.39.77-.49 1.24-.49 1.81v4.04H65Zm11.55 0Zm1.05 0v-7.56h1.14l.09 1.44.38-.63c.53-.48.85-.66 1.22-.8l.81-.19.48 1.32h-.46l-.62.05-.84.31c-.45.38-.62.64-.75.97l-.18.72v4.38H77.6Zm4.22 0Zm4.37.18l-1.34-.16c-1.09-.66-1.51-1.12-1.83-1.71l-.46-2.09c0-.8.15-1.5.45-2.09l.74-1.05c1.11-.66 1.75-.83 2.47-.83l1.37.16c1.03.66 1.42 1.1 1.69 1.63l.42 1.12c0 .74 0 .85 0 .96l0 .23-6.19.14v-.98h4.97c-.03-.69-.26-1.23-.69-1.62l-.95-.59c-1.07 0-1.47.1-1.84.3l-.65.47c-.44.75-.55 1.22-.55 1.78v.42c0 .62.11 1.14.33 1.56l.52.73c.73.42 1.12.53 1.55.53l.96-.12c.69-.47.94-.79 1.09-1.19h1.25l-.33.86c-.6.72-.97 1.01-1.42 1.22l-.96.3Zm4.16-.18Zm7.1 3.3v-4.53c-.24.39-.59.72-1.05 1.01l-1 .4c-1.39 0-2.04-.17-2.59-.51l-.98-.82c-.6-1.19-.75-1.87-.75-2.63l.45-2.03c.3-.6.72-1.07 1.27-1.41l1.93-.53c.43 0 .82.06 1.16.18l.65.29.73.67.16.28.12-1.24h1.14v10.86H97.45Zm-2.57-4.21l.94-.12c.76-.48 1.05-.81 1.26-1.23l.32-.93c0-1.15-.11-1.65-.32-2.08l-.5-.77c-.76-.48-1.2-.6-1.7-.6l-.92.12c-.76.48-1.05.82-1.26 1.25l-.32.93c0 1.15.11 1.65.32 2.08l.5.75c.76.48 1.2.6 1.68.6Zm4.87.91Zm3.8.18l-1.09-.12c-.87-.46-1.21-.82-1.45-1.3l-.34-1.08v-5.25h1.26v4.39c0 .75.16 1.32.5 1.69l.79.57c1.02 0 1.4-.1 1.74-.3l.61-.5c.39-.77.49-1.25.49-1.81v-4.05h1.26v7.56h-1.14l-.08-1.32-.57.84c-.9.53-1.41.66-1.98.66Zm4.8-.18Zm1.17 0v-7.56h1.26v7.56h-1.26Zm.63-9.16l-.46-.08-.41-.54.08-.7.54-.39.7.08.42.51-.08.71-.55.41Zm1.8 9.16Zm3.9.18l-1.18-.11c-.93-.42-1.3-.71-1.58-1.08l-.43-.82 1.23-.51.15.5.53.62c.55.27.89.34 1.29.34l.64-.05.63-.36.29-.56-.08-.75-.5-.45-.9-.27c-.73-.13-1.05-.21-1.38-.31l-.61-.23-.7-.54-.36-.78c0-.78.11-1.16.33-1.49l.53-.61c.83-.38 1.31-.47 1.87-.47.81 0 1.47.19 1.97.59l.79.95-1.15.74-.22-.67c-.55-.43-.92-.54-1.4-.54l-.83.1-.61.63.07.69.47.44.86.31c.89.16 1.35.28 1.75.43l.74.38c.51.59.64 1 .64 1.54l-.12.88c-.47.7-.8.97-1.23 1.17l-.94.29Zm3.63-.18Zm4.37.18l-1.34-.16c-1.09-.66-1.51-1.12-1.82-1.71l-.47-2.09c0-.8.15-1.5.45-2.09l.74-1.05c1.11-.66 1.75-.83 2.47-.83l1.37.16c1.03.66 1.43 1.1 1.7 1.63l.42 1.12c0 .74 0 .85 0 .96l0 .23-6.19.14v-.98h4.96c-.03-.69-.26-1.23-.69-1.62l-.95-.59c-1.07 0-1.47.1-1.84.3l-.65.47c-.44.75-.55 1.22-.55 1.78v.42c0 .62.11 1.14.33 1.56l.52.73c.73.42 1.12.53 1.54.53l.97-.12c.69-.47.94-.79 1.09-1.19h1.25l-.33.86c-.6.72-.98 1.01-1.42 1.22l-.96.3Zm4.16-.18Zm1.86 2.17h-1.29v-.12l1.59-2.01c.46-.74.82-1.53 1.07-2.37l.39-2.67c0-.93-.13-1.82-.39-2.66l-1.07-2.38c-.45-.74-.98-1.41-1.59-2.01v-.12h1.29c.55.51 1.05 1.12 1.5 1.85l1.09 2.41c.28.89.42 1.86.42 2.91l-.42 2.91c-.27.89-.63 1.69-1.09 2.4l-1.5 1.86ZM0 160.88Zm2.68-3.19l-.62-.08-.77-.53c-.32-.55-.4-.86-.4-1.18l.08-.65.53-.77c.55-.32.85-.4 1.17-.4l.65.08.77.54c.32.55.4.86.4 1.2l-.08.63-.54.76c-.55.32-.86.4-1.2.4Zm6.71 3.19Zm3.59 0v-9.46H9.84v-1.04h7.53v1.04H14.24v9.46H12.98Zm3.48 0Zm4.37.18l-1.34-.16c-1.09-.66-1.51-1.12-1.83-1.71l-.47-2.09c0-.8.15-1.5.45-2.09l.74-1.05c1.11-.66 1.75-.83 2.47-.83l1.37.16c1.03.66 1.42 1.1 1.69 1.63l.42 1.12c0 .74 0 .85 0 .96l0 .23-6.19.14v-.98H23.1c-.03-.69-.26-1.23-.69-1.62l-.95-.59c-1.07 0-1.47.1-1.84.3l-.65.47c-.44.75-.55 1.22-.55 1.78v.42c0 .62.11 1.14.33 1.56l.52.73c.73.42 1.12.53 1.55.53l.96-.12c.69-.47.94-.79 1.09-1.19h1.25l-.33.86c-.6.72-.98 1.01-1.42 1.22l-.96.3Zm4.16-.18Zm1.05 0v-7.56h1.14l.07 1.08.56-.69c.81-.45 1.25-.57 1.73-.57l.74.06.91.37c.48.43.67.7.82 1.03l.62-.81c.91-.51 1.4-.64 1.92-.64l1.08.12c.87.47 1.21.82 1.44 1.3l.36 1.07v5.24H36.18v-4.38c0-.76-.16-1.33-.47-1.71l-.75-.57c-.95 0-1.3.11-1.61.32l-.55.5c-.36.78-.45 1.26-.45 1.83v4.02H31.1v-4.38c0-.76-.15-1.33-.47-1.71l-.75-.57c-.95 0-1.29.11-1.61.32l-.54.5c-.36.78-.45 1.26-.45 1.83v4.02H26.03Zm12.31 0Zm1.05 3.3V153.32h1.14l.11 1.23.37-.47.8-.61c.7-.27 1.1-.34 1.55-.34l1.38.17c1.09.7 1.51 1.17 1.81 1.78l.47 2.02c0 .76-.15 1.44-.47 2.04l-.72 1.05c-1.1.68-1.75.85-2.49.85l-1.15-.12c-.93-.5-1.28-.85-1.53-1.3v4.54H39.38Zm3.81-4.21l.92-.12c.76-.48 1.05-.81 1.26-1.23l.33-.93c0-1.15-.11-1.65-.33-2.08l-.5-.77c-.76-.48-1.2-.6-1.68-.6l-.94.12c-.76.48-1.05.82-1.26 1.25l-.32.93c0 1.15.11 1.65.32 2.08l.5.75c.76.48 1.2.6 1.7.6Zm4.53.91Zm3.9.18l-1.18-.11c-.93-.42-1.3-.71-1.58-1.08l-.44-.82 1.23-.51.16.5.53.62c.55.27.89.34 1.29.34l.64-.05.63-.36.29-.56-.08-.75-.5-.45-.9-.27c-.73-.13-1.06-.21-1.38-.31l-.61-.23-.7-.54-.36-.78c0-.78.11-1.16.33-1.49l.53-.61c.83-.38 1.32-.47 1.87-.47.81 0 1.47.19 1.97.59l.79.95-1.15.74-.22-.67c-.55-.43-.92-.54-1.4-.54l-.83.1-.61.63.06.69.47.44.86.31c.89.16 1.35.28 1.75.43l.74.38c.51.59.64 1 .64 1.54l-.12.88c-.47.7-.8.97-1.23 1.17l-.93.29Zm7.61-.18Zm1.05 0v-7.56h1.14l.08 1.08.56-.69c.81-.45 1.25-.57 1.74-.57l.74.06.91.37c.48.43.68.7.83 1.03l.62-.81c.91-.51 1.4-.64 1.92-.64l1.09.12c.87.47 1.2.82 1.43 1.3l.36 1.07v5.24H70.44v-4.38c0-.76-.15-1.33-.47-1.71l-.75-.57c-.95 0-1.3.11-1.61.32l-.56.5c-.36.78-.45 1.26-.45 1.83v4.02H65.36v-4.38c0-.76-.15-1.33-.46-1.71l-.75-.57c-.95 0-1.3.11-1.61.32l-.54.5c-.36.78-.45 1.26-.45 1.83v4.02H60.29Zm12.31 0Zm4.43.18l-1.33-.16c-1.12-.65-1.56-1.11-1.88-1.7l-.48-2.09c0-.81.16-1.51.48-2.1l.77-1.06c1.13-.65 1.76-.82 2.47-.82l1.36.16c1.11.65 1.55 1.11 1.87 1.71l.5 2.09c0 .8-.17 1.5-.5 2.1l-.77 1.05c-1.12.65-1.76.81-2.48.81Zm.01-1.08l.83-.11c.74-.43 1.04-.75 1.27-1.18l.34-.96c0-1.27-.11-1.8-.34-2.22l-.51-.75c-.73-.43-1.13-.54-1.57-.54l-.82.11c-.75.43-1.05.75-1.28 1.18l-.33.95c0 1.27.11 1.8.33 2.23l.52.76c.73.43 1.13.53 1.56.53Zm3.85.9Zm1.88 3.3l1.85-4.14h-.44l-2.97-6.72h1.37l2.46 5.77 2.58-5.77h1.3l-4.83 10.86H82.76Zm5.76-3.3Zm4.36.18l-1.34-.16c-1.09-.66-1.52-1.12-1.83-1.71l-.47-2.09c0-.8.15-1.5.45-2.09l.74-1.05c1.11-.66 1.75-.83 2.47-.83l1.36.16c1.03.66 1.43 1.1 1.7 1.63l.42 1.12c0 .74 0 .85 0 .96l0 .23-6.19.14v-.98h4.97c-.03-.69-.26-1.23-.69-1.62l-.95-.59c-1.07 0-1.47.1-1.84.3l-.65.47c-.44.75-.55 1.22-.55 1.78v.42c0 .62.11 1.14.33 1.56l.53.73c.73.42 1.12.53 1.54.53l.97-.12c.69-.47.94-.79 1.09-1.19h1.24l-.33.86c-.6.72-.98 1.01-1.42 1.22l-.96.3Zm4.16-.18Zm1.05 0v-7.56h1.14l.06 1.32.58-.84c.89-.53 1.4-.66 1.97-.66l1.1.12c.86.47 1.19.82 1.43 1.3l.36 1.07v5.24h-1.26v-4.38c0-.76-.17-1.33-.51-1.71l-.8-.57c-1.03 0-1.41.11-1.74.32l-.6.5c-.39.77-.49 1.24-.49 1.81v4.04H98.1Zm11.55 0Zm4.38.18l-1.37-.17c-1.1-.69-1.52-1.16-1.83-1.77l-.45-2.04c0-.76.15-1.43.45-2.02l.73-1.07c1.11-.68 1.75-.85 2.49-.85l1.16.12c.93.5 1.29.85 1.54 1.3v-4.48H118v10.8h-1.14l-.11-1.24-.37.48-.8.61c-.7.27-1.11.34-1.57.34Zm.15-1.1l.94-.12c.76-.48 1.05-.81 1.26-1.23l.31-.93c0-1.15-.1-1.65-.31-2.08l-.5-.77c-.76-.48-1.2-.6-1.7-.6l-.92.12c-.76.48-1.06.82-1.26 1.25l-.32.93c0 1.15.11 1.65.32 2.08l.5.75c.76.48 1.19.6 1.68.6Zm4.87.91Zm4.37.18l-1.34-.16c-1.09-.66-1.51-1.12-1.82-1.71l-.47-2.09c0-.8.15-1.5.45-2.09l.74-1.05c1.11-.66 1.75-.83 2.47-.83l1.37.16c1.03.66 1.42 1.1 1.7 1.63l.42 1.12c0 .74 0 .85 0 .96l0 .23-6.19.14v-.98h4.97c-.03-.69-.26-1.23-.69-1.62l-.95-.59c-1.07 0-1.47.1-1.84.3l-.65.47c-.44.75-.55 1.22-.55 1.78v.42c0 .62.11 1.14.33 1.56l.53.73c.73.42 1.12.53 1.54.53l.97-.12c.69-.47.94-.79 1.09-1.19h1.25l-.33.86c-.6.72-.98 1.01-1.43 1.22l-.95.3Zm8.14-.18Zm1.05 0v-7.56h1.14l.09 1.44.38-.63c.53-.48.85-.66 1.22-.8l.81-.19.48 1.32h-.46l-.62.05-.84.31c-.45.38-.62.64-.75.97l-.18.72v4.38h-1.26Zm4.22 0Zm4.37.18l-1.34-.16c-1.09-.66-1.51-1.12-1.83-1.71l-.46-2.09c0-.8.15-1.5.45-2.09l.74-1.05c1.11-.66 1.75-.83 2.47-.83l1.37.16c1.03.66 1.42 1.1 1.69 1.63l.42 1.12c0 .74 0 .85 0 .96l0 .23-6.19.14v-.98h4.97c-.03-.69-.26-1.23-.69-1.62l-.95-.59c-1.07 0-1.47.1-1.84.3l-.65.47c-.44.75-.55 1.22-.55 1.78v.42c0 .62.11 1.14.33 1.56l.52.73c.73.42 1.12.53 1.55.53l.96-.12c.69-.47.94-.79 1.09-1.19h1.25l-.33.86c-.6.72-.98 1.01-1.43 1.22l-.96.3Zm-1.5-8.38l-.13-.9 3.01-1.92.18 1.08-3.06 1.74Zm5.66 8.2Zm3.9.18l-1.18-.11c-.93-.42-1.3-.71-1.58-1.08l-.43-.82 1.23-.51.15.5.53.62c.55.27.89.34 1.29.34l.64-.05.63-.36.29-.56-.08-.75-.5-.45-.9-.27c-.73-.13-1.05-.21-1.38-.31l-.61-.23-.7-.54-.36-.78c0-.78.11-1.16.33-1.49l.54-.61c.83-.38 1.31-.47 1.87-.47.81 0 1.46.19 1.96.59l.8.95-1.16.74-.21-.67c-.55-.43-.93-.54-1.41-.54l-.83.1-.61.63.06.69.47.44.86.31c.89.16 1.35.28 1.75.43l.74.38c.51.59.64 1 .64 1.54l-.12.88c-.47.7-.8.97-1.23 1.17l-.93.29Zm3.63-.18Zm4.43.18l-1.33-.16c-1.12-.65-1.56-1.11-1.88-1.7l-.48-2.09c0-.81.16-1.51.48-2.1l.77-1.06c1.13-.65 1.76-.82 2.47-.82l1.36.16c1.11.65 1.55 1.11 1.87 1.71l.5 2.09c0 .8-.17 1.5-.5 2.1l-.77 1.05c-1.12.65-1.76.81-2.48.81Zm.01-1.08l.83-.11c.74-.43 1.04-.75 1.27-1.18l.34-.96c0-1.27-.12-1.8-.34-2.22l-.52-.75c-.73-.43-1.13-.54-1.57-.54l-.82.11c-.75.43-1.05.75-1.28 1.18l-.33.95c0 1.27.11 1.8.33 2.23l.52.76c.73.43 1.13.53 1.56.53Zm4.45.9Zm1.05 0v-10.8h1.26v10.8h-1.26Zm2.29 0Zm3.8.18l-1.09-.12c-.87-.46-1.21-.82-1.45-1.3l-.34-1.08v-5.25h1.26v4.39c0 .75.16 1.32.5 1.69l.79.57c1.02 0 1.4-.1 1.74-.3l.61-.5c.39-.77.49-1.25.49-1.81v-4.05h1.26v7.56h-1.14l-.08-1.32-.57.84c-.9.53-1.41.66-1.98.66Zm4.8-.18Zm4.02 0l-.84-.07c-.66-.28-.91-.52-1.09-.85l-.25-.8v-4.78h-1.32v-1.07h1.32l.16-1.83h1.1v1.83H179v1.07h-2.19v4.21c0 .47.09.79.28.96l.52.24h1.29v1.08h-1.17Zm1.85 0Zm1.17 0v-7.56h1.26v7.56h-1.26Zm.63-9.16l-.46-.08-.41-.54.08-.7.54-.39.7.08.42.51-.09.71-.54.41Zm1.8 9.16Zm4.43.18l-1.33-.16c-1.12-.65-1.56-1.11-1.88-1.7l-.48-2.09c0-.81.16-1.51.48-2.1l.77-1.06c1.13-.65 1.76-.82 2.47-.82l1.36.16c1.11.65 1.55 1.11 1.87 1.71l.5 2.09c0 .8-.17 1.5-.5 2.1l-.78 1.05c-1.12.65-1.76.81-2.48.81Zm.01-1.08l.83-.11c.74-.43 1.04-.75 1.27-1.18l.35-.96c0-1.27-.12-1.8-.35-2.22l-.51-.75c-.73-.43-1.13-.54-1.57-.54l-.82.11c-.75.43-1.05.75-1.28 1.18l-.33.95c0 1.27.11 1.8.33 2.23l.52.76c.73.43 1.13.53 1.56.53Zm4.45.9Zm1.05 0v-7.56h1.14l.06 1.32.58-.84c.89-.53 1.4-.66 1.97-.66l1.1.12c.86.47 1.19.82 1.43 1.3l.36 1.07v5.24h-1.26v-4.38c0-.76-.17-1.33-.51-1.71l-.8-.57c-1.03 0-1.41.11-1.74.32l-.6.5c-.39.77-.49 1.24-.49 1.81v4.04h-1.26Zm11.55 0Zm1.5.08l-.46-.08-.41-.53.08-.68.54-.41.71.09.4.53-.08.68-.52.41Zm0-6.11l-.46-.08-.41-.54.08-.68.54-.41.71.09.4.53-.08.68-.52.41Zm5.52 6.03Zm.96 0v-.88c.71-.56 1.38-1.12 2.02-1.69l1.73-1.7c.5-.57.89-1.12 1.17-1.66l.44-1.06c0-.87-.07-1.21-.2-1.52l-.34-.58c-.57-.4-.95-.5-1.43-.5l-.86.11c-.62.41-.86.68-1.01 1.02l-.23.69-1.21.4.15-1.28c.57-.99.97-1.37 1.47-1.63l1.07-.39c1.27 0 1.83.12 2.31.36l.85.58c.55.92.69 1.5.69 2.2l-.11.98c-.41.98-.68 1.46-1.02 1.93l-.72.9c-.83.86-1.25 1.27-1.69 1.64l-.84.73 4.74.31v1.05h-6.98Zm7.68 0Zm1.05 0v-10.8h1.26v4.51c.25-.45.6-.8 1.05-1.06l.96-.39c1.12 0 1.62.12 2.05.36l.76.59c.46.96.58 1.57.58 2.3v4.5h-1.25v-4.37c0-.76-.16-1.33-.48-1.71l-.78-.59c-1.04 0-1.43.11-1.78.32l-.61.51c-.4.78-.5 1.26-.5 1.83v4.01h-1.26Zm7.58 0Zm2.28 0v-9.09l-1.8.45v-.9l2.22-.96h.86v10.5h-1.27Zm2.39 0Zm5.88 0v-2.25H234.2v-.97l5.1-7.28h1.47v7.14h1.56v1.11h-1.56v2.25h-1.25Zm-3.93-3.36h3.99v-5.75l-3.99 5.75ZM0 185.88Zm2.68-3.19l-.62-.08-.77-.53c-.32-.55-.4-.86-.4-1.18l.08-.65.53-.77c.55-.32.85-.4 1.17-.4l.65.08.77.54c.32.55.4.86.4 1.2l-.08.63-.54.76c-.55.32-.86.4-1.2.4Zm6.71 3.19Zm3.59 0v-9.46H9.84v-1.04h7.53v1.04H14.24v9.46H12.98Zm3.71 0Zm3.51.18l-1.12-.11c-.82-.43-1.12-.72-1.33-1.07l-.3-.75c0-.93.13-1.36.39-1.71l.64-.63c.97-.37 1.54-.47 2.21-.47h1.99c0-.47-.07-.86-.22-1.17l-.35-.56-.89-.4c-.89 0-1.31.12-1.65.36l-.57.6-1.37.47.24-.99c.61-.73 1-1.01 1.47-1.2l.96-.3c1.21 0 1.79.13 2.25.39l.82.61c.46.91.58 1.44.58 2.06v4.68H22.82l-.08-1.34-.23.41-.49.53-.66.38-.83.2Zm.19-1.07l.66-.07.82-.49c.4-.51.55-.8.65-1.11l.16-.63v-.38H20.79c-.49 0-.88.06-1.18.18l-.51.27-.33.64.06.77.43.55.78.28Zm4.45.88Zm3.79.18l-1.09-.12c-.87-.46-1.2-.82-1.44-1.3l-.35-1.08v-5.25h1.26v4.39c0 .75.16 1.32.5 1.69l.79.57c1.02 0 1.4-.1 1.74-.3l.61-.5c.39-.77.49-1.25.49-1.81v-4.05H32.4v7.56H31.26l-.08-1.32-.57.84c-.9.53-1.41.66-1.98.66Zm4.8-.18Zm.3 0l2.57-3.78-2.57-3.78h1.38l2.04 3.09 2.07-3.09h1.35l-2.56 3.78 2.56 3.78H39.23l-2.07-3.11-2.04 3.11H33.74Zm11.13 0Zm4.38.18l-1.37-.17c-1.1-.69-1.53-1.16-1.83-1.77l-.45-2.04c0-.76.15-1.43.45-2.02l.73-1.07c1.11-.68 1.75-.85 2.49-.85l1.16.12c.93.5 1.29.85 1.54 1.3v-4.48h1.26v10.8H52.08l-.11-1.24-.36.48-.8.61c-.7.27-1.11.34-1.56.34Zm.15-1.1l.94-.12c.76-.48 1.06-.81 1.26-1.23l.32-.93c0-1.15-.11-1.65-.32-2.08l-.5-.77c-.76-.48-1.2-.6-1.7-.6l-.93.12c-.76.48-1.05.82-1.26 1.25l-.31.93c0 1.15.11 1.65.31 2.08l.5.75c.76.48 1.2.6 1.69.6Zm4.87.91Zm4.36.18l-1.34-.16c-1.09-.66-1.51-1.12-1.83-1.71l-.47-2.09c0-.8.15-1.5.45-2.09l.74-1.05c1.11-.66 1.75-.83 2.47-.83l1.37.16c1.03.66 1.42 1.1 1.69 1.63l.42 1.12c0 .74 0 .85 0 .96l0 .23-6.19.14v-.98h4.97c-.03-.69-.26-1.23-.69-1.62l-.95-.59c-1.07 0-1.47.1-1.84.3l-.65.47c-.44.75-.55 1.22-.55 1.78v.42c0 .62.11 1.14.33 1.56l.52.73c.73.42 1.12.53 1.54.53l.97-.12c.69-.47.94-.79 1.09-1.19h1.25l-.33.86c-.6.72-.98 1.01-1.42 1.22l-.96.3Zm8.15-.18Zm1.05 0v-7.56h1.14l.09 1.44.38-.63c.53-.48.85-.66 1.22-.8l.81-.19.48 1.32h-.47l-.62.05-.84.31c-.45.38-.62.64-.75.97l-.18.72v4.38H67.83Zm4.22 0Zm4.37.18l-1.34-.16c-1.09-.66-1.51-1.12-1.83-1.71l-.46-2.09c0-.8.15-1.5.45-2.09l.74-1.05c1.11-.66 1.75-.83 2.47-.83l1.37.16c1.03.66 1.42 1.1 1.69 1.63l.42 1.12c0 .74 0 .85 0 .96l0 .23-6.19.14v-.98H78.7c-.03-.69-.26-1.23-.69-1.62l-.95-.59c-1.07 0-1.47.1-1.84.3l-.65.47c-.44.75-.55 1.22-.55 1.78v.42c0 .62.11 1.14.33 1.56l.52.73c.73.42 1.12.53 1.55.53l.96-.12c.69-.47.94-.79 1.09-1.19h1.25l-.33.86c-.6.72-.97 1.01-1.42 1.22l-.96.3Zm-1.5-8.38l-.14-.9 3.02-1.92.18 1.08-3.06 1.74Zm5.66 8.2Zm3.9.18l-1.18-.11c-.93-.42-1.3-.71-1.58-1.08l-.44-.82 1.23-.51.16.5.53.62c.55.27.89.34 1.29.34l.64-.05.63-.36.29-.56-.08-.75-.5-.45-.9-.27c-.73-.13-1.06-.21-1.38-.31l-.61-.23-.7-.54-.36-.78c0-.78.11-1.16.33-1.49l.53-.61c.83-.38 1.32-.47 1.87-.47.81 0 1.47.19 1.97.59l.79.95-1.15.74-.22-.67c-.55-.43-.92-.54-1.4-.54l-.83.1-.61.63.06.69.47.44.86.31c.89.16 1.35.28 1.75.43l.74.38c.51.59.64 1 .64 1.54l-.12.88c-.47.7-.8.97-1.23 1.17l-.93.29Zm3.63-.18Zm4.42.18l-1.33-.16c-1.12-.65-1.56-1.11-1.88-1.7l-.48-2.09c0-.81.16-1.51.48-2.1l.77-1.06c1.13-.65 1.76-.82 2.47-.82l1.35.16c1.11.65 1.55 1.11 1.87 1.71l.5 2.09c0 .8-.16 1.5-.5 2.1l-.77 1.05c-1.12.65-1.76.81-2.48.81Zm.01-1.08l.83-.11c.74-.43 1.04-.75 1.27-1.18l.35-.96c0-1.27-.12-1.8-.35-2.22l-.51-.75c-.73-.43-1.13-.54-1.57-.54l-.82.11c-.75.43-1.05.75-1.28 1.18l-.33.95c0 1.27.11 1.8.33 2.23l.52.76c.73.43 1.13.53 1.56.53Zm4.45.9Zm1.05 0v-10.8h1.26v10.8H98.05Zm2.29 0Zm3.79.18l-1.09-.12c-.87-.46-1.21-.82-1.45-1.3l-.35-1.08v-5.25h1.26v4.39c0 .75.16 1.32.49 1.69l.8.57c1.02 0 1.4-.1 1.74-.3l.61-.5c.39-.77.49-1.25.49-1.81v-4.05h1.26v7.56h-1.14l-.07-1.32-.57.84c-.9.53-1.41.66-1.98.66Zm4.8-.18Zm4.02 0l-.84-.07c-.66-.28-.91-.52-1.1-.85l-.25-.8v-4.78h-1.32v-1.07h1.32l.16-1.83h1.1v1.83h2.19v1.07h-2.19v4.21c0 .47.1.79.29.96l.52.24h1.29v1.08h-1.17Zm1.85 0Zm1.17 0v-7.56h1.26v7.56h-1.26Zm.63-9.16l-.46-.08-.41-.54.08-.7.54-.39.69.08.43.51-.09.71-.54.41Zm1.8 9.16Zm4.42.18l-1.33-.16c-1.12-.65-1.56-1.11-1.88-1.7l-.48-2.09c0-.81.16-1.51.48-2.1l.77-1.06c1.13-.65 1.76-.82 2.47-.82l1.35.16c1.11.65 1.55 1.11 1.87 1.71l.5 2.09c0 .8-.16 1.5-.5 2.1l-.77 1.05c-1.12.65-1.76.81-2.48.81Zm.01-1.08l.83-.11c.74-.43 1.04-.75 1.27-1.18l.35-.96c0-1.27-.12-1.8-.35-2.22l-.51-.75c-.73-.43-1.13-.54-1.57-.54l-.82.11c-.75.43-1.05.75-1.28 1.18l-.33.95c0 1.27.11 1.8.33 2.23l.52.76c.73.43 1.13.53 1.56.53Zm4.45.9Zm1.05 0v-7.56h1.14l.06 1.32.58-.84c.89-.53 1.4-.66 1.97-.66l1.1.12c.86.47 1.19.82 1.43 1.3l.36 1.07v5.24h-1.26v-4.38c0-.76-.17-1.33-.51-1.71l-.8-.57c-1.03 0-1.4.11-1.73.32l-.6.5c-.39.77-.49 1.24-.49 1.81v4.04h-1.26Zm11.55 0Zm3.51.18l-1.12-.11c-.82-.43-1.12-.72-1.33-1.07l-.3-.75c0-.93.13-1.36.39-1.71l.64-.63c.97-.37 1.54-.47 2.21-.47h2c0-.47-.08-.86-.23-1.17l-.35-.56-.89-.4c-.89 0-1.31.12-1.65.36l-.57.6-1.37.47.24-.99c.61-.73 1-1.01 1.47-1.2l.96-.3c1.21 0 1.79.13 2.25.39l.82.61c.46.91.58 1.44.58 2.06v4.68h-1.12l-.08-1.34-.23.41-.49.53-.66.38-.83.2Zm.19-1.07l.67-.07.81-.49c.4-.51.55-.8.65-1.11l.17-.63v-.38h-1.89c-.49 0-.89.06-1.19.18l-.51.27-.33.64.06.77.43.55.79.28Zm4.45.88Zm3.79.18l-1.09-.12c-.87-.46-1.2-.82-1.44-1.3l-.35-1.08v-5.25h1.26v4.39c0 .75.16 1.32.5 1.69l.79.57c1.02 0 1.4-.1 1.74-.3l.61-.5c.39-.77.49-1.25.49-1.81v-4.05h1.26v7.56h-1.14l-.08-1.32-.57.84c-.9.53-1.41.66-1.98.66Zm4.8-.18Zm4.02 0l-.84-.07c-.66-.28-.92-.52-1.1-.85l-.25-.8v-4.78h-1.32v-1.07h1.32l.16-1.83h1.1v1.83h2.19v1.07h-2.19v4.21c0 .47.1.79.28.96l.53.24h1.29v1.08h-1.17Zm1.65 0Zm4.43.18l-1.33-.16c-1.12-.65-1.56-1.11-1.88-1.7l-.48-2.09c0-.81.16-1.51.48-2.1l.77-1.06c1.13-.65 1.77-.82 2.47-.82l1.36.16c1.11.65 1.55 1.11 1.87 1.71l.5 2.09c0 .8-.16 1.5-.5 2.1l-.77 1.05c-1.12.65-1.76.81-2.48.81Zm.01-1.08l.83-.11c.74-.43 1.04-.75 1.27-1.18l.35-.96c0-1.27-.12-1.8-.35-2.22l-.51-.75c-.73-.43-1.13-.54-1.57-.54l-.82.11c-.75.43-1.05.75-1.28 1.18l-.33.95c0 1.27.11 1.8.33 2.23l.53.76c.73.43 1.13.53 1.56.53Zm8.44.9Zm1.12 0v-10.5h1.26l5.6 8.41v-8.41h1.26v10.5h-1.26l-5.6-8.41v8.41h-1.26Zm9.25 0Zm2.28 0v-9.09l-1.8.45v-.9l2.22-.96h.86v10.5h-1.27Zm6.38 0Zm1.5.08l-.46-.08-.41-.53.08-.68.54-.41.7.09.4.53-.08.68-.52.41Zm0-6.11l-.46-.08-.41-.54.08-.68.54-.41.7.09.4.53-.08.68-.52.41Zm5.52 6.03Zm4.54.18l-1.22-.12c-.94-.51-1.32-.86-1.6-1.29l-.44-.92 1.11-.52.34 1c.76.61 1.24.76 1.82.76l1-.16c.82-.64 1.15-1.12 1.4-1.77l.43-2.51c0-.03 0-.06 0-.09l-.37.51c-.58.54-.92.75-1.32.91l-.83.24c-1.08 0-1.64-.14-2.17-.42l-.95-.67c-.65-1.01-.81-1.61-.81-2.29l.14-1.15c.58-1.08 1-1.52 1.53-1.86l1.18-.51c1.49 0 2.12.14 2.65.44l.93.66c.63.95.86 1.49 1 2.09l.21 1.21c0 1.77-.16 2.78-.48 3.66s-.77 1.57-1.38 2.07-1.33.74-2.19.74Zm.09-5.06l.88-.11c.74-.42 1.03-.7 1.24-1.07l.33-.75c0-.89-.11-1.3-.33-1.64l-.5-.62c-.74-.4-1.15-.5-1.62-.5l-.88.11c-.73.41-1.01.68-1.23 1.03l-.31.76c0 .93.11 1.34.31 1.69l.5.62c.73.39 1.14.48 1.61.48Zm4.78 4.88Zm5.88 0v-2.25h-5.32v-.97l5.1-7.28h1.47v7.14h1.56v1.11H217.8v2.25h-1.25Zm-3.93-3.36h3.99v-5.75l-3.99 5.75Zm7.1 3.36Zm2.18 0l6.1-10.5h1.26l-6.11 10.5H221.9Zm6.62.18l-.86-.1c-.72-.41-1.01-.7-1.23-1.09l-.32-.82c0-1.03.11-1.48.32-1.85l.51-.67c.72-.41 1.12-.51 1.58-.51l.86.1c.71.41 1 .7 1.21 1.08l.32.82c0 1.03-.11 1.47-.32 1.85l-.5.68c-.72.41-1.12.51-1.57.51Zm-.02-.98l.46-.05.56-.41.31-.74-.06-.98-.4-.63-.62-.29-.69.06-.58.4-.31.75.06.98.42.63.62.28Zm-5.76-4.83l-.86-.1c-.72-.41-1.01-.71-1.23-1.09l-.32-.83c0-1.03.11-1.47.32-1.85l.51-.67c.73-.41 1.14-.51 1.59-.51l.86.11c.72.41 1 .7 1.22 1.08l.32.82c0 1.03-.11 1.47-.32 1.86l-.5.67c-.73.41-1.13.51-1.59.51Zm0-.97l.46-.06.56-.4.3-.75-.06-.98-.4-.64-.62-.29-.68.06-.59.4-.31.76.06.97.41.63.63.29Zm0 0" stroke="none" clip-path="url(#b)"/></g></g></svg>