<?xml version="1.0" encoding="UTF-8" standalone="no"?><svg xmlns="http://www.w3.org/2000/svg" xmlns:xlink="http://www.w3.org/1999/xlink" contentScriptType="text/ecmascript" zoomAndPan="magnify" contentStyleType="text/css" stroke="#000000" stroke-linecap="square" version="1" width="384" stroke-miterlimit="10" fill="#000000" preserveAspectRatio="xMidYMid meet" viewBox="0 0 384 295" height="295"><defs><clipPath id="a"><path d="M0 0V295H384V0Z"/></clipPath><clipPath id="e" clip-path="url(#a)"><path d="M-400 790H1040V-1394H-400Z"/></clipPath><clipPath id="b"><path d="M0 0V295H384V0Z"/></clipPath><clipPath id="c" clip-path="url(#b)"><path d="M-400 790H1040V-1394H-400Z"/></clipPath><clipPath id="f" clip-path="url(#c)"><path d="M30 5H354c13.81 0 25 11.19 25 25V265c0 13.81-11.19 25-25 25H8c-1.66 0-3-1.34-3-3V30C5 16.19 16.19 5 30 5Z"/></clipPath><clipPath id="d"><path d="M0 0V295H384V0Z"/></clipPath><clipPath id="g" clip-path="url(#d)"><path d="M-400 790H1040V-1394H-400Z"/></clipPath></defs><g><g fill="#1c2243" stroke="none"><path d="M30 5H354c13.81 0 25 11.19 25 25V265c0 13.81-11.19 25-25 25H8c-1.66 0-3-1.34-3-3V30C5 16.19 16.19 5 30 5Z" clip-path="url(#e)"/><path fill="#03456d" d="M30 5V6H354V5 4H30V5ZM379 30h-1V265h1 1V30h-1ZM354 290v-1H8v1 1H354v-1ZM5 287H6V30H5 4V287H5Zm3 3v-1c-1.1 0-2-.9-2-2H5 4c0 2.21 1.79 4 4 4v-1Zm371-25h-1c0 13.25-10.75 24-24 24v1 1c14.36 0 26-11.64 26-26h-1ZM354 5V6c13.25 0 24 10.75 24 24h1 1c0-14.36-11.64-26-26-26V5ZM30 5V4C15.64 4 4 15.64 4 30H5 6C6 16.75 16.75 6 30 6V5Z" clip-path="url(#f)"/><path fill="#ffffff" d="M29 45Zm3.46.18l-1.17-.12c-.91-.48-1.26-.83-1.51-1.27l-.36-.99 1.28-.62.05.67.42.8c.5.32.85.4 1.28.4l.75-.08.66-.53.27-.86V34.5h1.26v7.72c0 .95-.26 1.68-.78 2.2-.51.5-1.22.76-2.15.76ZM36.51 45Zm4.37.18l-1.34-.16c-1.09-.67-1.52-1.12-1.83-1.72l-.46-2.08c0-.8.15-1.5.45-2.08l.74-1.05c1.11-.67 1.75-.83 2.47-.83l1.36.16c1.03.67 1.43 1.1 1.7 1.64l.42 1.11c0 .74 0 .85 0 .96l-.01.23-6.19.15v-.98h4.97c-.03-.69-.26-1.23-.69-1.62l-.95-.58c-1.07 0-1.47.09-1.84.3l-.65.47c-.44.75-.55 1.22-.55 1.78v.41l.11 1.14c.45.85.74 1.16 1.1 1.37l.77.31c.95 0 1.38-.11 1.72-.34l.6-.56 1.4-.4-.33.86c-.6.72-.98 1-1.43 1.21l-.95.3ZM49.02 45Zm4.04 3.48l-1.29-.09c-1.05-.35-1.45-.61-1.74-.97l-.44-.81c0-.76.05-1.01.14-1.27l.26-.51c.47-.5.81-.73 1.24-.92l.87.51-.88.47c-.32.57-.4.83-.4 1.07l.1.61.64.6c.68.22 1.07.28 1.5.28l.8-.06.86-.42.42-.69-.13-.95c-.52-.47-1.01-.61-1.74-.65l-1.09-.09c-.8-.14-1.13-.22-1.39-.31l-.48-.21-.5-.36-.14-.48 1.45-1.44 1.1.39-1.5 1.35.19-.52.22.15.33.2.58.15c.61.07 1.01.12 1.51.16l1.24.16c.83.38 1.13.64 1.31.96l.29.7c0 .87-.12 1.28-.36 1.66l-.59.7c-.98.5-1.61.63-2.38.63Zm-.02-5.85l-1.17-.12c-.89-.48-1.22-.8-1.45-1.2l-.35-.86c0-1 .12-1.46.35-1.86l.58-.71c.88-.49 1.41-.62 2.04-.62l1.17.13c.88.49 1.21.81 1.44 1.2l.35.86c0 1-.12 1.45-.35 1.86l-.56.72c-.88.48-1.42.6-2.05.6Zm0-1.04l.97-.13c.62-.56.77-.98.77-1.51l-.15-.94c-.62-.56-1.05-.7-1.59-.7l-.96.14c-.65.56-.81.96-.81 1.5l.16.95c.64.56 1.07.69 1.61.69Zm1.23-3.08l-.37-1.07h3.09v.95l-2.72.12ZM57.1 45Zm4.36.18l-1.34-.16c-1.09-.67-1.51-1.12-1.82-1.72l-.47-2.08c0-.8.15-1.5.45-2.08l.74-1.05c1.11-.67 1.75-.83 2.47-.83l1.37.16c1.03.67 1.42 1.1 1.69 1.64l.42 1.11c0 .74 0 .85 0 .96v.23l-6.19.15v-.98h4.96c-.03-.69-.26-1.23-.69-1.62l-.95-.58c-1.07 0-1.47.09-1.84.3l-.65.47c-.44.75-.55 1.22-.55 1.78v.41l.11 1.14c.45.85.75 1.16 1.11 1.37l.76.31c.95 0 1.39-.11 1.73-.34l.6-.56 1.39-.4-.33.86c-.6.72-.97 1-1.42 1.21l-.96.3Zm-1.5-8.39l-.13-.89 3.01-1.93.18 1.08-3.06 1.74ZM65.62 45Zm1.05 0V37.44h1.14l.06 1.32.58-.84c.89-.52 1.4-.66 1.97-.66l1.1.12c.86.47 1.2.83 1.44 1.3l.36 1.08V45H72.06V40.62c0-.76-.17-1.33-.51-1.71l-.8-.57c-1.03 0-1.41.11-1.74.32l-.59.49c-.39.77-.49 1.25-.49 1.81V45H66.67Zm7.56 0Zm4.37.18l-1.34-.16c-1.09-.67-1.52-1.12-1.83-1.72l-.46-2.08c0-.8.15-1.5.45-2.08l.74-1.05c1.11-.67 1.75-.83 2.47-.83l1.36.16c1.03.67 1.43 1.1 1.7 1.64l.42 1.11c0 .74 0 .85 0 .96l-.01.23-6.19.15v-.98h4.97c-.03-.69-.26-1.23-.69-1.62l-.95-.58c-1.07 0-1.47.09-1.84.3l-.65.47c-.44.75-.55 1.22-.55 1.78v.41l.11 1.14c.45.85.74 1.16 1.1 1.37l.77.31c.95 0 1.38-.11 1.72-.34l.6-.56 1.4-.4-.33.86c-.6.72-.98 1-1.43 1.21l-.95.3Zm1.42-8.39l-3.06-1.74.18-1.08 3.02 1.93-.14.89ZM82.76 45Zm1.05 0V37.44h1.14l.09 1.44.38-.63c.53-.48.85-.66 1.22-.79l.81-.2.48 1.32h-.46l-.63.05-.84.3c-.45.38-.62.64-.75.97l-.18.72V45H83.81Zm4.22 0Zm4.37.18l-1.34-.16c-1.09-.67-1.52-1.12-1.83-1.72l-.46-2.08c0-.8.15-1.5.45-2.08l.74-1.05c1.11-.67 1.75-.83 2.47-.83l1.36.16c1.03.67 1.43 1.1 1.7 1.64l.42 1.11c0 .74 0 .85 0 .96l-.01.23-6.19.15v-.98h4.97c-.03-.69-.26-1.23-.69-1.62l-.95-.58c-1.07 0-1.47.09-1.84.3l-.65.47c-.44.75-.55 1.22-.55 1.78v.41l.11 1.14c.45.85.74 1.16 1.1 1.37l.77.31c.95 0 1.38-.11 1.72-.34l.6-.56 1.4-.4-.33.86c-.6.72-.98 1-1.43 1.21l-.95.3Zm8.14-.18Zm1.05 0V34.2h1.26V45h-1.26Zm2.29 0Zm4.37.18l-1.34-.16c-1.09-.67-1.52-1.12-1.83-1.72l-.46-2.08c0-.8.15-1.5.45-2.08l.74-1.05c1.11-.67 1.75-.83 2.47-.83l1.36.16c1.03.67 1.43 1.1 1.7 1.64l.42 1.11c0 .74 0 .85 0 .96l-.01.23-6.19.15v-.98h4.97c-.03-.69-.26-1.23-.69-1.62l-.95-.58c-1.07 0-1.47.09-1.84.3l-.65.47c-.44.75-.55 1.22-.55 1.78v.41l.11 1.14c.45.85.74 1.16 1.1 1.37l.77.31c.95 0 1.38-.11 1.72-.34l.6-.56 1.4-.4-.33.86c-.6.72-.98 1-1.43 1.21l-.95.3Zm8.14-.18Zm1.05 0V37.44h1.14l.09 1.44.39-.63c.53-.48.85-.66 1.22-.79l.81-.2.48 1.32h-.47l-.62.05-.84.3c-.45.38-.63.64-.76.97l-.18.72V45h-1.26Zm4.5 0Zm3.51.18l-1.12-.1c-.82-.43-1.12-.72-1.32-1.07l-.3-.75c0-.93.13-1.36.39-1.71l.64-.63c.97-.37 1.55-.46 2.21-.46h1.99c0-.48-.07-.87-.22-1.17l-.35-.57-.89-.39c-.89 0-1.31.12-1.66.35l-.56.6-1.37.47.24-.99c.61-.73 1-1.01 1.47-1.2l.96-.3c1.21 0 1.79.13 2.25.39l.82.61c.46.9.57 1.44.57 2.06V45h-1.12L128 43.67l-.23.41-.49.52-.66.38-.83.2Zm.2-1.07l.66-.07.82-.49c.4-.51.55-.79.65-1.1l.16-.63v-.39h-1.89c-.49 0-.88.06-1.18.18l-.52.27-.32.64.06.77.43.55.79.27Zm4.45.89Zm1.05 3.3V37.44h1.14l.11 1.23.36-.46.8-.61c.7-.27 1.1-.34 1.55-.34l1.38.17c1.09.71 1.52 1.18 1.82 1.78l.46 2.02c0 .76-.15 1.44-.46 2.05l-.73 1.05c-1.1.68-1.74.85-2.48.85l-1.15-.13c-.93-.5-1.29-.84-1.54-1.29V48.3h-1.26Zm3.81-4.22l.93-.12c.76-.48 1.05-.8 1.26-1.23l.33-.93c0-1.15-.11-1.65-.33-2.08l-.5-.76c-.76-.49-1.2-.61-1.69-.61l-.94.12c-.76.49-1.05.82-1.26 1.25l-.32.93c0 1.15.11 1.65.32 2.08l.5.75c.76.48 1.2.6 1.7.6Zm4.53.92Zm1.05 3.3V37.44h1.14l.11 1.23.36-.46.8-.61c.7-.27 1.1-.34 1.55-.34l1.38.17c1.09.71 1.52 1.18 1.82 1.78l.46 2.02c0 .76-.15 1.44-.46 2.05l-.73 1.05c-1.1.68-1.74.85-2.48.85l-1.15-.13c-.93-.5-1.29-.84-1.54-1.29V48.3h-1.26Zm3.81-4.22l.93-.12c.76-.48 1.05-.8 1.26-1.23l.33-.93c0-1.15-.11-1.65-.33-2.08l-.5-.76c-.76-.49-1.2-.61-1.69-.61l-.94.12c-.76.49-1.05.82-1.26 1.25l-.32.93c0 1.15.11 1.65.32 2.08l.5.75c.76.48 1.2.6 1.7.6Zm4.53.92Zm4.43.18l-1.33-.16c-1.12-.65-1.56-1.11-1.88-1.7l-.48-2.09c0-.81.16-1.51.48-2.09l.77-1.06c1.13-.66 1.77-.82 2.47-.82l1.35.16c1.11.66 1.55 1.12 1.87 1.72l.5 2.08c0 .8-.17 1.5-.5 2.1l-.77 1.05c-1.12.65-1.76.81-2.48.81Zm.01-1.08l.83-.11c.74-.42 1.04-.75 1.27-1.18l.35-.96c0-1.27-.12-1.8-.35-2.22l-.51-.75c-.73-.43-1.13-.54-1.57-.54l-.82.11c-.75.43-1.05.75-1.28 1.18l-.33.95c0 1.27.11 1.8.33 2.23l.52.76c.73.42 1.13.53 1.56.53Zm4.45.9Zm1.05 0V37.44h1.14l.09 1.44.39-.63c.53-.48.85-.66 1.22-.79l.81-.2.48 1.32h-.47l-.62.05-.84.3c-.45.38-.63.64-.76.97l-.18.72V45h-1.26Zm4.51 0Zm4.02 0l-.84-.07c-.66-.28-.92-.52-1.1-.85l-.25-.79V38.51h-1.32V37.44h1.32l.16-1.83h1.1v1.83h2.19v1.07h-2.19v4.21c0 .47.09.79.28.96l.53.24h1.29V45h-1.17Zm5.83 0Zm1.05 0V34.2h1.26v4.51c.25-.44.6-.8 1.05-1.06l.96-.39c1.12 0 1.63.12 2.06.36l.76.59c.46.95.57 1.56.57 2.29V45h-1.24V40.64c0-.76-.16-1.34-.48-1.72l-.79-.58c-1.04 0-1.43.11-1.78.32l-.61.5c-.4.79-.5 1.26-.5 1.83V45h-1.26Zm7.58 0Zm4.37.18l-1.34-.16c-1.09-.67-1.52-1.12-1.83-1.72l-.46-2.08c0-.8.15-1.5.45-2.08l.74-1.05c1.11-.67 1.75-.83 2.47-.83l1.36.16c1.03.67 1.43 1.1 1.7 1.64l.42 1.11c0 .74 0 .85 0 .96l-.01.23-6.19.15v-.98h4.97c-.03-.69-.26-1.23-.69-1.62l-.95-.58c-1.07 0-1.47.09-1.84.3l-.65.47c-.44.75-.55 1.22-.55 1.78v.41l.11 1.14c.45.85.74 1.16 1.1 1.37l.77.31c.95 0 1.38-.11 1.72-.34l.6-.56 1.4-.4-.33.86c-.6.72-.98 1-1.43 1.21l-.95.3Zm4.16-.18Zm5.01.18l-.82-.06c-.69-.25-.99-.42-1.25-.63l-.48-.45-.17-.28-.1 1.24h-1.14V34.2h1.26v4.48c.24-.39.58-.72 1.03-1l1.01-.42c1.39 0 2.03.17 2.58.53l.97.8c.61 1.2.77 1.87.77 2.63l-.47 2.04c-.3.6-.72 1.07-1.27 1.41l-1.19.51Zm-.15-1.1l.92-.12c.76-.48 1.06-.8 1.27-1.23l.33-.93c0-1.15-.11-1.65-.33-2.08l-.51-.76c-.76-.49-1.19-.61-1.68-.61l-.94.12c-.76.49-1.06.82-1.27 1.25l-.31.93c0 1.15.1 1.65.31 2.08l.51.75c.76.48 1.2.6 1.7.6Zm4.53.92Zm4.38.18l-1.37-.17c-1.1-.69-1.53-1.17-1.83-1.77l-.45-2.03c0-.76.15-1.44.45-2.03l.73-1.07c1.11-.68 1.75-.85 2.48-.85l1.16.13c.93.5 1.29.84 1.54 1.29V34.2h1.26V45h-1.14l-.1-1.24-.37.48-.8.6c-.7.27-1.1.34-1.56.34Zm.15-1.1l.94-.12c.76-.48 1.05-.8 1.26-1.23l.32-.93c0-1.15-.11-1.65-.32-2.08l-.5-.76c-.76-.49-1.2-.61-1.7-.61l-.93.12c-.76.49-1.05.82-1.26 1.25l-.32.93c0 1.15.11 1.65.32 2.08l.5.75c.76.48 1.2.6 1.69.6Zm4.87.92Zm4.43.18l-1.33-.16c-1.12-.65-1.56-1.11-1.88-1.7l-.48-2.09c0-.81.16-1.51.48-2.09l.77-1.06c1.13-.66 1.77-.82 2.47-.82l1.35.16c1.11.66 1.55 1.12 1.87 1.72l.5 2.08c0 .8-.17 1.5-.5 2.1l-.77 1.05c-1.12.65-1.76.81-2.48.81Zm.01-1.08l.83-.11c.74-.42 1.04-.75 1.27-1.18l.35-.96c0-1.27-.12-1.8-.35-2.22l-.51-.75c-.73-.43-1.13-.54-1.57-.54l-.82.11c-.75.43-1.05.75-1.28 1.18l-.33.95c0 1.27.11 1.8.33 2.23l.52.76c.73.42 1.13.53 1.56.53Zm4.45.9Zm1.05 0V37.44h1.14l.08 1.08.56-.69c.81-.45 1.25-.57 1.73-.57l.74.06.91.36c.48.43.68.71.83 1.03l.61-.81c.91-.51 1.4-.64 1.92-.64l1.09.12c.87.47 1.2.83 1.43 1.3l.36 1.08V45h-1.24V40.62c0-.76-.16-1.33-.47-1.71l-.74-.57c-.95 0-1.3.11-1.61.32l-.56.49c-.36.78-.45 1.26-.45 1.83V45h-1.26V40.62c0-.76-.15-1.33-.46-1.71l-.75-.57c-.95 0-1.3.11-1.61.32l-.54.49c-.36.78-.45 1.26-.45 1.83V45h-1.26Zm12.31 0Zm3.51.18l-1.12-.1c-.82-.43-1.12-.72-1.32-1.07l-.3-.75c0-.93.13-1.36.39-1.71l.64-.63c.97-.37 1.55-.46 2.21-.46h1.99c0-.48-.07-.87-.22-1.17l-.35-.57-.89-.39c-.89 0-1.31.12-1.66.35l-.56.6-1.37.47.24-.99c.61-.73 1-1.01 1.47-1.2l.96-.3c1.21 0 1.79.13 2.25.39l.82.61c.46.9.57 1.44.57 2.06V45h-1.12l-.08-1.33-.23.41-.49.52-.66.38-.83.2Zm.2-1.07l.66-.07.82-.49c.4-.51.55-.79.65-1.1l.16-.63v-.39h-1.89c-.49 0-.88.06-1.18.18l-.52.27-.32.64.06.77.43.55.79.27Zm4.45.89Zm4.38.18l-1.37-.17c-1.1-.69-1.52-1.17-1.82-1.77l-.45-2.03c0-.76.15-1.44.45-2.03l.72-1.07c1.11-.68 1.76-.85 2.49-.85l1.16.13c.93.5 1.29.84 1.54 1.29V34.2h1.26V45h-1.14l-.11-1.24-.36.48-.8.6c-.7.27-1.11.34-1.57.34Zm.15-1.1l.94-.12c.76-.48 1.06-.8 1.27-1.23l.31-.93c0-1.15-.1-1.65-.31-2.08l-.51-.76c-.76-.49-1.2-.61-1.7-.61l-.92.12c-.76.49-1.06.82-1.27 1.25l-.31.93c0 1.15.1 1.65.31 2.08l.51.75c.76.48 1.19.6 1.68.6Zm4.88.92Zm3.51.18l-1.12-.1c-.82-.43-1.13-.72-1.33-1.07l-.3-.75c0-.93.13-1.36.39-1.71l.65-.63c.97-.37 1.54-.46 2.2-.46h2c0-.48-.08-.87-.23-1.17l-.35-.57-.89-.39c-.89 0-1.3.12-1.65.35l-.57.6-1.37.47.24-.99c.61-.73 1-1.01 1.47-1.2l.96-.3c1.21 0 1.79.13 2.25.39l.82.61c.46.9.58 1.44.58 2.06V45h-1.13l-.07-1.33-.23.41-.49.52-.66.38-.83.2Zm.19-1.07l.67-.07.81-.49c.4-.51.55-.79.65-1.1l.17-.63v-.39h-1.89c-.49 0-.89.06-1.19.18l-.51.27-.33.64.06.77.44.55.78.27Zm4.46.89Zm1.17 0V37.44h1.26V45h-1.26Zm.63-9.16l-.46-.08-.41-.55.08-.69.54-.39.69.08.43.5-.09.71-.54.42Zm1.8 9.16Zm1.05 0V37.44h1.14l.09 1.44.38-.63c.53-.48.85-.66 1.22-.79l.81-.2.48 1.32h-.46l-.63.05-.84.3c-.45.38-.62.64-.75.97l-.18.72V45h-1.26Zm4.22 0Zm4.37.18l-1.34-.16c-1.09-.67-1.52-1.12-1.83-1.72l-.46-2.08c0-.8.15-1.5.45-2.08l.74-1.05c1.11-.67 1.75-.83 2.47-.83l1.36.16c1.03.67 1.43 1.1 1.7 1.64l.42 1.11c0 .74 0 .85 0 .96l-.01.23-6.19.15v-.98h4.97c-.03-.69-.26-1.23-.69-1.62l-.95-.58c-1.07 0-1.47.09-1.84.3l-.65.47c-.44.75-.55 1.22-.55 1.78v.41l.11 1.14c.45.85.74 1.16 1.1 1.37l.77.31c.95 0 1.38-.11 1.72-.34l.6-.56 1.4-.4-.33.86c-.6.72-.98 1-1.43 1.21l-.95.3Zm8.14-.18Zm4.47.18l-2.01-.42c-.57-.28-1.01-.67-1.32-1.17l-.46-1.08 1.32-.66.09.79c.38.69.66.96 1.02 1.18l.82.29c1.01 0 1.41-.07 1.74-.22l.6-.37.44-.85c0-.75-.09-1.08-.27-1.33l-.41-.47c-.6-.32-.95-.46-1.35-.58l-.8-.26c-1.26-.43-1.87-.77-2.26-1.19l-.58-.97c0-1.24.13-1.74.39-2.17l.65-.77c.99-.48 1.58-.61 2.26-.61l1.25.13c.99.5 1.38.84 1.66 1.28l.42.93-1.32.57-.08-.57-.53-.8c-.61-.37-.99-.46-1.45-.46l-.72.06-.82.45c-.33.5-.41.81-.41 1.17l.07.62.5.59c.55.3.88.42 1.25.55l.78.25c.96.32 1.41.53 1.8.78l.71.55c.45.76.56 1.24.56 1.84l-.13.97c-.53.89-.92 1.25-1.44 1.53l-1.97.42Zm4.23-.18Zm2.28 0V35.91l-1.8.45v-.9l2.22-.96h.86V45h-1.28Zm2.4 0Zm2.28 0V35.91l-1.8.45v-.9l2.22-.96h.85V45h-1.27Zm2.39 0Zm1.5.08l-.46-.09-.41-.53.08-.68.54-.42.7.09.4.53-.08.68-.52.42Zm1.47-.08Zm1.5.08l-.46-.09-.41-.53.08-.68.54-.42.71.09.4.53-.08.68-.53.42Zm1.48-.08Zm1.5.08l-.46-.09-.41-.53.08-.68.54-.42.7.09.4.53-.08.68-.52.42ZM29 95Zm5.68.18c-1.01 0-1.9-.22-2.65-.67-.74-.47-1.31-1.1-1.71-1.91s-.6-1.77-.6-2.85.2-2.03.6-2.83c.4-.83.97-1.46 1.71-1.91.75-.46 1.64-.69 2.65-.69 1.21 0 2.18.28 2.93.85s1.23 1.38 1.44 2.42h-1.4c-.16-.65-.48-1.17-.97-1.56s-1.16-.6-2-.6l-1.95.53c-.55.33-.97.83-1.27 1.48l-.45 2.31c0 .9.15 1.67.45 2.33l.72 1.13c1.11.69 1.75.86 2.5.86.84 0 1.51-.19 2-.57l.81-.91 1.56-.63-.69 1.8c-1.5 1.14-2.47 1.42-3.68 1.42ZM39.75 95Zm4.43.18l-1.33-.16c-1.12-.65-1.56-1.11-1.88-1.7l-.48-2.09c0-.81.16-1.51.48-2.09l.77-1.06c1.13-.66 1.77-.82 2.47-.82l1.35.16c1.11.66 1.55 1.12 1.87 1.72l.5 2.08c0 .8-.17 1.5-.5 2.1l-.77 1.05c-1.12.65-1.76.81-2.48.81Zm.01-1.08l.83-.11c.74-.42 1.04-.75 1.27-1.18l.35-.96c0-1.27-.12-1.8-.35-2.22l-.51-.75c-.73-.43-1.13-.54-1.57-.54l-.82.11c-.75.43-1.05.75-1.28 1.18l-.33.95c0 1.27.11 1.8.33 2.23l.52.76c.73.42 1.13.53 1.56.53Zm4.45.9Zm1.05 0V87.44h1.14l.06 1.32.58-.84c.89-.52 1.4-.66 1.97-.66l1.1.12c.86.47 1.2.83 1.44 1.3l.36 1.08V95H55.08V90.62c0-.76-.17-1.33-.51-1.71l-.8-.57c-1.03 0-1.41.11-1.74.32l-.59.49c-.39.77-.49 1.25-.49 1.81V95H49.69Zm7.57 0Zm3.9.18l-1.18-.1c-.93-.42-1.3-.72-1.58-1.09l-.44-.82 1.23-.51.16.5.53.62c.55.27.89.33 1.29.33l.64-.04.63-.36.29-.55-.07-.76-.5-.44-.9-.28c-.73-.13-1.06-.21-1.38-.31l-.6-.23-.7-.54-.36-.77c0-.78.11-1.16.33-1.49l.53-.61c.83-.38 1.32-.47 1.87-.47.81 0 1.46.2 1.96.58l.8.96-1.16.74-.21-.68c-.55-.43-.93-.53-1.41-.53l-.83.09-.61.63.07.69.47.44.86.31c.89.16 1.34.28 1.75.43l.74.37c.51.6.64 1.01.64 1.55l-.12.88c-.47.7-.8.98-1.23 1.18l-.93.28ZM64.79 95Zm4.42.18l-1.33-.16c-1.12-.65-1.56-1.11-1.88-1.7l-.48-2.09c0-.81.16-1.51.48-2.09l.78-1.06c1.13-.66 1.76-.82 2.46-.82l1.36.16c1.11.66 1.55 1.12 1.87 1.72l.49 2.08c0 .8-.16 1.5-.49 2.1l-.78 1.05c-1.12.65-1.76.81-2.48.81Zm.02-1.08l.83-.11c.74-.42 1.04-.75 1.27-1.18l.34-.96c0-1.27-.11-1.8-.34-2.22l-.52-.75c-.73-.43-1.13-.54-1.57-.54l-.82.11c-.75.43-1.05.75-1.28 1.18l-.33.95c0 1.27.11 1.8.33 2.23l.53.76c.73.42 1.13.53 1.56.53Zm4.45.9Zm1.05 0V84.2h1.26V95H74.73Zm2.29 0Zm1.17 0V87.44h1.26V95H78.19Zm.63-9.17l-.46-.07-.41-.55.08-.69.54-.39.69.08.43.5-.09.71-.54.41ZM80.62 95Zm4.38.18l-1.37-.17c-1.1-.69-1.52-1.17-1.82-1.77l-.45-2.03c0-.76.15-1.44.45-2.03l.72-1.07c1.11-.68 1.76-.85 2.49-.85l1.16.13c.93.5 1.29.84 1.54 1.29V84.2h1.26V95H87.84l-.11-1.24-.36.48-.8.6c-.7.27-1.11.34-1.57.34Zm.15-1.1l.94-.12c.76-.48 1.06-.8 1.27-1.23l.31-.93c0-1.15-.1-1.65-.31-2.08l-.51-.76c-.76-.49-1.2-.61-1.7-.61l-.92.12c-.76.49-1.06.82-1.27 1.25l-.31.93c0 1.15.1 1.65.31 2.08l.51.75c.76.48 1.19.6 1.68.6Zm4.88.92Zm3.51.18l-1.12-.1c-.82-.43-1.13-.72-1.33-1.07l-.3-.75c0-.93.13-1.36.39-1.71l.65-.63c.97-.37 1.54-.46 2.2-.46h2c0-.48-.08-.87-.23-1.17l-.35-.57-.89-.39c-.89 0-1.3.12-1.65.35l-.57.6-1.37.47.24-.99c.61-.73 1-1.01 1.47-1.2l.96-.3c1.21 0 1.79.13 2.25.39l.82.61c.46.91.58 1.44.58 2.06V95H96.16l-.07-1.33-.23.41-.49.52-.66.38-.83.2Zm.19-1.07l.67-.07.81-.49c.4-.51.55-.79.65-1.1l.17-.63v-.39H94.14c-.49 0-.89.06-1.19.18l-.51.27-.33.64.06.77.44.55.78.27Zm4.25.89ZM102 95l-.84-.07c-.66-.28-.92-.51-1.1-.85l-.25-.79V88.51H98.49V87.44h1.32l.16-1.83h1.1v1.83h2.19v1.07h-2.19v4.21c0 .47.09.79.28.96l.53.24h1.29V95H102Zm1.85 0Zm1.17 0V87.44h1.26V95h-1.26Zm.63-9.17l-.46-.07-.41-.55.08-.69.54-.39.7.08.42.5-.08.71-.55.41ZM107.46 95Zm4.42.18l-1.33-.16c-1.12-.65-1.56-1.11-1.88-1.7l-.48-2.09c0-.81.16-1.51.48-2.09l.78-1.06c1.13-.66 1.76-.82 2.46-.82l1.36.16c1.11.66 1.55 1.12 1.87 1.72l.49 2.08c0 .8-.16 1.5-.49 2.1l-.78 1.05c-1.12.65-1.76.81-2.48.81Zm.02-1.08l.83-.11c.74-.42 1.04-.75 1.27-1.18l.34-.96c0-1.27-.11-1.8-.34-2.22l-.52-.75c-.73-.43-1.13-.54-1.57-.54l-.82.11c-.75.43-1.05.75-1.28 1.18l-.33.95c0 1.27.11 1.8.33 2.23l.53.76c.73.42 1.13.53 1.56.53Zm4.45.9Zm1.05 0V87.44h1.14l.06 1.32.58-.84c.89-.52 1.4-.66 1.97-.66l1.1.12c.86.47 1.19.83 1.43 1.3l.36 1.08V95h-1.26V90.62c0-.76-.17-1.33-.51-1.71l-.8-.57c-1.03 0-1.4.11-1.73.32l-.6.49c-.39.77-.48 1.25-.48 1.81V95H117.4Zm11.55 0Zm4.38.18l-1.37-.17c-1.1-.69-1.53-1.17-1.83-1.77l-.45-2.03c0-.76.15-1.44.45-2.03l.73-1.07c1.11-.68 1.75-.85 2.48-.85l1.16.13c.93.5 1.29.84 1.54 1.29V84.2h1.26V95h-1.14l-.1-1.24-.37.48-.8.6c-.7.27-1.1.34-1.56.34Zm.15-1.1l.94-.12c.76-.48 1.05-.8 1.26-1.23l.32-.93c0-1.15-.11-1.65-.32-2.08l-.5-.76c-.76-.49-1.2-.61-1.7-.61l-.93.12c-.76.49-1.05.82-1.26 1.25l-.32.93c0 1.15.11 1.65.32 2.08l.5.75c.76.48 1.2.6 1.69.6Zm4.87.92Zm4.37.18l-1.34-.16c-1.09-.67-1.52-1.12-1.83-1.72l-.46-2.08c0-.8.15-1.5.45-2.08l.74-1.06c1.11-.66 1.75-.82 2.47-.82l1.36.16c1.03.66 1.43 1.1 1.7 1.64l.42 1.11c0 .75 0 .85 0 .96l-.01.23-6.19.15v-.98H145c-.03-.69-.26-1.23-.69-1.62l-.95-.58c-1.07 0-1.47.09-1.84.3l-.65.47c-.44.75-.55 1.22-.55 1.78v.41l.11 1.14c.45.85.74 1.16 1.1 1.37l.77.31c.95 0 1.38-.11 1.72-.34l.6-.56 1.4-.4-.33.86c-.6.72-.98 1-1.43 1.21l-.95.3Zm4.16-.18Zm3.9.18l-1.18-.1c-.93-.42-1.3-.72-1.58-1.09l-.44-.82 1.23-.51.16.5.53.62c.55.27.89.33 1.29.33l.64-.04.63-.36.29-.55-.07-.76-.5-.44-.9-.28c-.73-.13-1.06-.21-1.38-.31l-.6-.23-.7-.54-.36-.77c0-.78.11-1.16.33-1.49l.53-.61c.83-.38 1.32-.47 1.87-.47.81 0 1.46.2 1.96.58l.8.96-1.16.74-.21-.68c-.55-.43-.93-.53-1.41-.53l-.83.09-.61.63.07.69.47.44.86.31c.89.16 1.34.28 1.75.43l.74.37c.51.6.64 1.01.64 1.55l-.12.88c-.47.7-.8.98-1.23 1.18l-.93.28Zm7.61-.18Zm4.38.18l-1.37-.17c-1.1-.69-1.53-1.17-1.83-1.77l-.45-2.03c0-.76.15-1.44.45-2.03l.73-1.07c1.11-.68 1.75-.85 2.48-.85l1.16.13c.93.5 1.29.84 1.54 1.29V84.2h1.26V95H165.6l-.1-1.24-.37.48-.8.6c-.7.27-1.1.34-1.56.34Zm.15-1.1l.94-.12c.76-.48 1.05-.8 1.26-1.23l.32-.93c0-1.15-.11-1.65-.32-2.08l-.5-.76c-.76-.49-1.2-.61-1.7-.61l-.93.12c-.76.49-1.05.82-1.26 1.25l-.32.93c0 1.15.11 1.65.32 2.08l.5.75c.76.48 1.2.6 1.69.6Zm4.87.92Zm4.43.18l-1.33-.16c-1.12-.65-1.56-1.11-1.88-1.7l-.48-2.09c0-.81.16-1.51.48-2.09l.77-1.06c1.13-.66 1.77-.82 2.47-.82l1.35.16c1.11.66 1.55 1.12 1.87 1.72l.5 2.08c0 .8-.17 1.5-.5 2.1l-.77 1.05c-1.12.65-1.76.81-2.48.81Zm.01-1.08l.83-.11c.74-.42 1.04-.75 1.27-1.18l.35-.96c0-1.27-.12-1.8-.35-2.22l-.51-.75c-.73-.43-1.13-.54-1.57-.54l-.82.11c-.75.43-1.05.75-1.28 1.18l-.33.95c0 1.27.11 1.8.33 2.23l.52.76c.73.42 1.13.53 1.56.53Zm4.46.9Zm1.05 0V87.44h1.14l.06 1.32.58-.84c.89-.52 1.4-.66 1.97-.66l1.1.12c.86.47 1.19.83 1.43 1.3l.36 1.08V95h-1.26V90.62c0-.76-.17-1.33-.51-1.71l-.8-.57c-1.03 0-1.4.11-1.73.32l-.6.49c-.39.77-.48 1.25-.48 1.81V95h-1.26Zm7.56 0Zm1.05 0V87.44h1.14l.06 1.32.58-.84c.89-.52 1.4-.66 1.97-.66l1.1.12c.86.47 1.19.83 1.43 1.3l.36 1.08V95h-1.26V90.62c0-.76-.17-1.33-.51-1.71l-.8-.57c-1.03 0-1.4.11-1.73.32l-.6.49c-.39.77-.48 1.25-.48 1.81V95h-1.26Zm7.56 0Zm4.37.18l-1.34-.16c-1.09-.67-1.52-1.12-1.83-1.72l-.46-2.08c0-.8.15-1.5.45-2.08l.74-1.06c1.11-.66 1.75-.82 2.47-.82l1.36.16c1.03.66 1.43 1.1 1.7 1.64l.42 1.11c0 .75 0 .85 0 .96l-.01.23-6.19.15v-.98h4.97c-.03-.69-.26-1.23-.69-1.62l-.95-.58c-1.07 0-1.47.09-1.84.3l-.65.47c-.44.75-.55 1.22-.55 1.78v.41l.11 1.14c.45.85.74 1.16 1.1 1.37l.77.31c.95 0 1.38-.11 1.72-.34l.6-.56 1.4-.4-.33.86c-.6.72-.98 1-1.43 1.21l-.95.3Zm-1.5-8.39l-.14-.89 3.02-1.93.18 1.08-3.06 1.74ZM202.44 95Zm4.36.18l-1.34-.16c-1.09-.67-1.51-1.12-1.82-1.72l-.47-2.08c0-.8.15-1.5.45-2.08l.74-1.06c1.11-.66 1.75-.82 2.47-.82l1.37.16c1.03.66 1.42 1.1 1.69 1.64l.42 1.11c0 .75 0 .85 0 .96v.23l-6.19.15v-.98h4.96c-.03-.69-.26-1.23-.69-1.62l-.95-.58c-1.07 0-1.47.09-1.84.3l-.65.47c-.44.75-.55 1.22-.55 1.78v.41l.11 1.14c.45.85.75 1.16 1.11 1.37l.76.31c.95 0 1.39-.11 1.73-.34l.6-.56 1.39-.4-.33.86c-.6.72-.97 1-1.42 1.21l-.96.3Zm4.16-.18Zm3.9.18l-1.18-.1c-.93-.42-1.3-.72-1.58-1.09l-.43-.82 1.23-.51.15.5.54.62c.55.27.89.33 1.29.33l.64-.04.63-.36.29-.55-.08-.76-.5-.44-.9-.28c-.73-.13-1.05-.21-1.37-.31l-.61-.23-.7-.54-.36-.77c0-.78.11-1.16.33-1.49l.54-.61c.83-.38 1.31-.47 1.86-.47.81 0 1.47.2 1.97.58l.79.96-1.15.74-.22-.68c-.55-.43-.92-.53-1.4-.53l-.83.09-.61.63.06.69.47.44.86.31c.89.16 1.35.28 1.76.43l.74.37c.51.6.64 1.01.64 1.55l-.12.88c-.47.7-.8.98-1.23 1.18l-.94.28Zm7.62-.18Zm4.38.18l-1.37-.17c-1.1-.69-1.53-1.17-1.83-1.77l-.45-2.03c0-.76.15-1.44.45-2.03l.73-1.07c1.11-.68 1.75-.85 2.48-.85l1.16.13c.93.5 1.29.84 1.54 1.29V84.2h1.26V95h-1.14l-.1-1.24-.37.48-.8.6c-.7.27-1.1.34-1.56.34Zm.15-1.1l.94-.12c.76-.48 1.05-.8 1.26-1.23l.32-.93c0-1.15-.11-1.65-.32-2.08l-.5-.76c-.76-.49-1.2-.61-1.7-.61l-.93.12c-.76.49-1.05.82-1.26 1.25l-.32.93c0 1.15.11 1.65.32 2.08l.5.75c.76.48 1.2.6 1.69.6Zm4.87.92Zm4.37.18l-1.34-.16c-1.09-.67-1.52-1.12-1.83-1.72l-.46-2.08c0-.8.15-1.5.45-2.08l.74-1.06c1.11-.66 1.75-.82 2.47-.82l1.36.16c1.03.66 1.43 1.1 1.7 1.64l.42 1.11c0 .75 0 .85 0 .96l-.01.23-6.19.15v-.98h4.97c-.03-.69-.26-1.23-.69-1.62l-.95-.58c-1.07 0-1.47.09-1.84.3l-.65.47c-.44.75-.55 1.22-.55 1.78v.41l.11 1.14c.45.85.74 1.16 1.1 1.37l.77.31c.95 0 1.38-.11 1.72-.34l.6-.56 1.4-.4-.33.86c-.6.72-.98 1-1.43 1.21l-.95.3Zm8.14-.18Zm4.89.18l-1.4-.14c-1.04-.57-1.45-.95-1.76-1.42l-.54-1.02c-.29-1.2-.36-1.81-.36-2.43l.48-3.04c.32-.89.78-1.57 1.38-2.06s1.34-.75 2.19-.75l1.22.13c.95.51 1.33.85 1.61 1.28l.45.91-1.11.53-.34-.99c-.77-.61-1.26-.76-1.85-.76l-.99.16c-.84.65-1.17 1.14-1.42 1.82l-.42 2.53c0 .01 0 .03 0 .04l.38-.54c.57-.53.91-.75 1.31-.91l.85-.24c1.08 0 1.63.14 2.15.42l.94.68c.65 1.01.82 1.59.82 2.28l-.15 1.15c-.57 1.08-.98 1.52-1.52 1.86l-1.18.51Zm-.09-1.11l.87-.1c.73-.41 1.02-.69 1.22-1.04l.31-.76c0-.93-.1-1.33-.31-1.69l-.49-.62c-.73-.39-1.14-.48-1.6-.48l-.87.1c-.74.42-1.04.7-1.26 1.06l-.31.75c0 .89.1 1.29.31 1.66l.52.62c.74.4 1.15.5 1.61.5Zm8.6.93Zm3.51.18l-1.12-.1c-.82-.43-1.12-.72-1.32-1.07l-.3-.75c0-.93.13-1.36.39-1.71l.64-.63c.97-.37 1.55-.46 2.21-.46h1.99c0-.48-.07-.87-.22-1.17l-.35-.57-.89-.39c-.89 0-1.31.12-1.66.35l-.56.6-1.37.47.24-.99c.61-.73 1-1.01 1.47-1.2l.96-.3c1.21 0 1.79.13 2.25.39l.82.61c.46.91.57 1.44.57 2.06V95h-1.12l-.08-1.33-.23.41-.49.52-.66.38-.83.2Zm.2-1.07l.66-.07.82-.49c.4-.51.55-.79.65-1.1l.16-.63v-.39H261.9c-.49 0-.88.06-1.18.18l-.52.27-.32.64.06.77.43.55.79.27Zm4.45.89Zm4.04 3.48l-1.29-.09c-1.05-.35-1.45-.61-1.74-.97l-.44-.81c0-.76.05-1.01.14-1.27l.26-.51c.47-.5.81-.73 1.24-.92l.87.51-.88.47c-.32.57-.4.83-.4 1.07l.1.61.64.6c.68.22 1.07.28 1.5.28l.8-.06.86-.42.42-.69-.13-.95c-.52-.47-1.01-.61-1.74-.65l-1.09-.09c-.8-.14-1.13-.22-1.39-.31l-.48-.21-.5-.37-.14-.47 1.45-1.44 1.1.39-1.5 1.35.19-.52.22.15.33.2.58.15c.61.07 1.01.12 1.51.16l1.24.16c.83.38 1.13.64 1.31.96l.29.7c0 .87-.12 1.28-.36 1.66l-.59.7c-.98.5-1.61.63-2.38.63Zm-.02-5.85l-1.17-.12c-.89-.48-1.22-.8-1.45-1.2l-.35-.86c0-1 .12-1.46.35-1.86l.58-.71c.88-.49 1.41-.62 2.04-.62l1.17.13c.88.49 1.21.81 1.44 1.2l.35.86c0 1-.12 1.45-.35 1.86l-.56.72c-.88.48-1.42.6-2.05.6Zm0-1.04l.97-.13c.62-.56.77-.98.77-1.51l-.15-.94c-.62-.56-1.05-.7-1.59-.7l-.96.14c-.65.56-.81.97-.81 1.5l.16.95c.64.56 1.07.69 1.61.69Zm1.23-3.08l-.37-1.07h3.09v.95l-2.72.12ZM274.02 95Zm4.37.18l-1.34-.16c-1.09-.67-1.52-1.12-1.83-1.72l-.46-2.08c0-.8.15-1.5.45-2.08l.74-1.06c1.11-.66 1.75-.82 2.47-.82l1.36.16c1.03.66 1.43 1.1 1.7 1.64l.42 1.11c0 .75 0 .85 0 .96l-.01.23-6.19.15v-.98h4.97c-.03-.69-.26-1.23-.69-1.62l-.95-.58c-1.07 0-1.47.09-1.84.3l-.65.47c-.44.75-.55 1.22-.55 1.78v.41l.11 1.14c.45.85.74 1.16 1.1 1.37l.77.31c.95 0 1.38-.11 1.72-.34l.6-.56 1.4-.4-.33.86c-.6.72-.98 1-1.43 1.21l-.95.3Zm4.16-.18Zm1.05 0V87.44h1.14l.06 1.32.58-.84c.89-.52 1.4-.66 1.97-.66l1.1.12c.86.47 1.19.83 1.43 1.3l.36 1.08V95h-1.26V90.62c0-.76-.17-1.33-.51-1.71l-.8-.57c-1.03 0-1.4.11-1.73.32l-.6.49c-.39.77-.48 1.25-.48 1.81V95H283.6Zm7.56 0Zm4.02 0l-.84-.07c-.66-.28-.91-.51-1.09-.85l-.26-.79V88.51h-1.32V87.44h1.32l.17-1.83h1.09v1.83h2.19v1.07h-2.19v4.21c0 .47.1.79.29.96l.52.24h1.29V95h-1.17Zm1.86 0Zm3.9.18l-1.18-.1c-.93-.42-1.3-.72-1.58-1.09l-.44-.82 1.23-.51.16.5.53.62c.55.27.89.33 1.29.33l.64-.04.63-.36.29-.55-.07-.76-.5-.44-.9-.28c-.73-.13-1.06-.21-1.38-.31l-.6-.23-.7-.54-.36-.77c0-.78.11-1.16.33-1.49l.53-.61c.83-.38 1.32-.47 1.87-.47.81 0 1.46.2 1.96.58l.8.96-1.16.74-.21-.68c-.55-.43-.93-.53-1.41-.53l-.83.09-.61.63.07.69.47.44.86.31c.89.16 1.34.28 1.75.43l.74.37c.51.6.64 1.01.64 1.55l-.12.88c-.47.7-.8.98-1.23 1.18l-.93.28Zm7.61-.18Zm1.5.08l-.46-.09-.41-.53.08-.68.54-.42.71.09.4.53-.08.69-.53.41Zm0-6.11l-.46-.08-.41-.54.08-.68.54-.41.71.08.4.54-.08.68-.53.41ZM29 120Zm2.68-3.2l-.61-.08-.77-.53c-.32-.55-.4-.86-.4-1.18l.08-.65.54-.77c.55-.32.84-.4 1.16-.4l.65.08.77.54c.32.55.4.86.4 1.2l-.08.63-.54.77c-.55.31-.86.39-1.2.39Zm6.71 3.2Zm5.68.18c-1.02 0-1.9-.22-2.65-.67-.74-.47-1.31-1.1-1.71-1.91s-.6-1.77-.6-2.85.2-2.03.6-2.83c.4-.83.97-1.46 1.71-1.91s1.63-.69 2.65-.69c1.2 0 2.18.28 2.93.85s1.23 1.38 1.44 2.42h-1.4c-.16-.65-.48-1.17-.97-1.56s-1.16-.6-2-.6l-1.95.53c-.55.33-.97.83-1.27 1.48l-.45 2.31c0 .9.15 1.67.45 2.33l.72 1.13c1.1.69 1.75.86 2.5.86.84 0 1.51-.19 2-.57l.81-.91 1.56-.63-.69 1.8c-1.5 1.14-2.48 1.42-3.68 1.42Zm5.07-.18Zm4.43.18l-1.33-.16c-1.12-.65-1.56-1.11-1.88-1.7l-.48-2.09c0-.81.16-1.51.48-2.09l.77-1.06c1.13-.66 1.77-.82 2.47-.82l1.35.16c1.11.66 1.55 1.12 1.87 1.72l.5 2.08c0 .8-.17 1.5-.5 2.1l-.77 1.05c-1.12.65-1.76.81-2.48.81Zm.01-1.08l.83-.11c.74-.42 1.04-.75 1.27-1.18l.35-.96c0-1.27-.12-1.8-.35-2.22l-.51-.75c-.73-.43-1.13-.54-1.57-.54l-.82.11c-.75.43-1.05.75-1.28 1.18l-.33.95c0 1.27.11 1.8.33 2.23l.52.76c.73.42 1.13.53 1.56.53Zm4.45.9Zm1.05 0v-7.56h1.14l.08 1.08.56-.69c.81-.45 1.25-.57 1.73-.57l.74.06.91.36c.48.43.68.71.83 1.03l.61-.81c.91-.51 1.4-.64 1.92-.64l1.09.12c.87.47 1.2.82 1.43 1.3l.36 1.08V120H69.24v-4.38c0-.76-.16-1.33-.47-1.71l-.74-.57c-.95 0-1.3.11-1.61.32l-.56.49c-.36.78-.45 1.26-.45 1.83V120H64.15v-4.38c0-.76-.15-1.33-.46-1.71l-.75-.57c-.95 0-1.3.11-1.61.32l-.54.49c-.36.78-.45 1.26-.45 1.83V120H59.08Zm12.31 0Zm1.05 3.3V112.44h1.14l.11 1.23.36-.46.8-.61c.7-.27 1.1-.34 1.55-.34l1.38.17c1.09.71 1.52 1.18 1.82 1.78l.46 2.02c0 .76-.15 1.44-.46 2.05l-.73 1.05c-1.1.68-1.74.85-2.48.85l-1.15-.13c-.93-.5-1.29-.84-1.54-1.29v4.54H72.44Zm3.81-4.22l.93-.12c.76-.48 1.05-.8 1.26-1.23l.33-.93c0-1.15-.11-1.65-.33-2.08l-.5-.77c-.76-.48-1.2-.6-1.69-.6l-.94.12c-.76.48-1.05.82-1.26 1.25l-.32.93c0 1.15.11 1.65.32 2.08l.5.75c.76.48 1.2.6 1.7.6Zm4.24.92Zm4.02 0l-.84-.07c-.66-.28-.92-.51-1.1-.85l-.25-.79v-4.78H81v-1.07h1.32l.16-1.83h1.1v1.83h2.19v1.07H83.58v4.21c0 .47.09.79.28.96l.53.24h1.29V120H84.51Zm1.85 0Zm3.51.18l-1.12-.1c-.82-.43-1.12-.72-1.32-1.07l-.3-.75c0-.93.13-1.36.39-1.71l.64-.63c.97-.37 1.55-.46 2.21-.46h1.99c0-.48-.07-.87-.22-1.17l-.35-.57-.89-.39c-.89 0-1.31.12-1.66.35l-.56.6-1.37.47.24-.99c.61-.73 1-1.01 1.47-1.2l.96-.3c1.21 0 1.79.13 2.25.39l.82.61c.46.91.57 1.44.57 2.06V120H92.5l-.08-1.33-.23.41-.49.52-.66.38-.83.2Zm.2-1.07l.66-.07.82-.49c.4-.51.55-.79.65-1.1l.16-.63v-.39H90.47c-.49 0-.88.06-1.18.18l-.52.27-.32.64.06.77.43.55.79.27Zm4.45.89Zm5.01.18l-.82-.06c-.69-.25-.99-.42-1.25-.63l-.47-.45-.17-.28-.11 1.24H95.57V109.2h1.26v4.48c.24-.39.59-.72 1.04-1l1-.42c1.39 0 2.03.17 2.58.53l.98.8c.61 1.2.76 1.87.76 2.63l-.46 2.04c-.3.6-.73 1.07-1.28 1.41l-1.19.51Zm-.15-1.1l.93-.12c.76-.48 1.05-.8 1.26-1.23l.33-.93c0-1.15-.11-1.65-.33-2.08l-.5-.77c-.76-.48-1.2-.6-1.69-.6l-.94.12c-.76.48-1.05.82-1.26 1.25l-.32.93c0 1.15.11 1.65.32 2.08l.5.75c.76.48 1.2.6 1.7.6Zm4.53.92Zm1.05 0V109.2h1.26V120h-1.26Zm2.29 0Zm4.37.18l-1.34-.16c-1.09-.67-1.52-1.12-1.83-1.72l-.46-2.08c0-.8.15-1.5.45-2.08l.74-1.06c1.11-.66 1.75-.82 2.47-.82l1.36.16c1.03.66 1.43 1.1 1.7 1.64l.42 1.11c0 .75 0 .85 0 .96l-.01.23-6.19.15v-.98h4.97c-.03-.69-.26-1.23-.69-1.62l-.95-.58c-1.07 0-1.47.09-1.84.3l-.65.47c-.44.75-.55 1.22-.55 1.78v.41l.11 1.14c.45.85.74 1.16 1.1 1.37l.77.31c.95 0 1.38-.11 1.72-.34l.6-.56 1.4-.4-.33.86c-.6.72-.98 1-1.43 1.21l-.95.3Zm8.14-.18Zm1.5.08l-.46-.09-.41-.53.08-.68.54-.42.71.09.4.53-.08.69-.53.41Zm0-6.11l-.46-.08-.41-.54.08-.68.54-.41.71.08.4.54-.08.68-.53.41Zm5.52 6.03Zm5.68.18c-1.02 0-1.9-.22-2.65-.67-.74-.47-1.31-1.1-1.71-1.91s-.6-1.77-.6-2.85.2-2.03.6-2.83c.4-.83.97-1.46 1.71-1.91.75-.46 1.63-.69 2.65-.69 1.2 0 2.18.28 2.93.85s1.23 1.38 1.44 2.42h-1.4c-.16-.65-.48-1.17-.97-1.56s-1.16-.6-2-.6l-1.95.53c-.55.33-.97.83-1.27 1.48l-.45 2.31c0 .9.15 1.67.45 2.33l.72 1.13c1.1.69 1.75.86 2.5.86.84 0 1.51-.19 2-.57l.81-.91 1.56-.63-.69 1.8c-1.5 1.14-2.48 1.42-3.68 1.42Zm4.82-.18Zm.45 0l3.87-10.5h1.34l3.85 10.5h-1.33l-3.2-8.92-3.21 8.92h-1.32Zm1.77-2.7l.36-1.02h4.76l.36 1.02H139.5Zm11.73 2.7Zm.34-3.63v-.95h6.48v.95h-6.48Zm0-2.31v-.93h6.48v.93h-6.48Zm6.15 6.12c-1.02 0-1.9-.22-2.65-.67-.74-.47-1.31-1.1-1.71-1.91s-.6-1.77-.6-2.85.2-2.03.6-2.83c.4-.83.97-1.46 1.71-1.91s1.63-.69 2.65-.69c1.2 0 2.18.28 2.93.85s1.23 1.38 1.44 2.42h-1.4c-.16-.65-.48-1.17-.97-1.56s-1.16-.6-2-.6l-1.95.53c-.55.33-.97.83-1.27 1.48l-.45 2.31c0 .9.15 1.67.45 2.33l.72 1.13c1.1.69 1.75.86 2.5.86.84 0 1.51-.19 2-.57l.81-.91 1.56-.63-.69 1.8c-1.5 1.14-2.48 1.42-3.68 1.42Zm5.08-.18Zm2.28 0v-9.09l-1.8.45v-.9l2.22-.96h.85V120h-1.27Zm2.39 0Zm.96 0v-.89c.71-.56 1.39-1.12 2.03-1.69l1.72-1.7c.5-.56.89-1.12 1.17-1.66l.44-1.06c0-.87-.07-1.21-.2-1.52l-.34-.58c-.57-.4-.95-.5-1.43-.5l-.86.11c-.62.41-.85.67-1.01 1.02l-.23.69-1.21.4.15-1.28c.57-.99.97-1.37 1.47-1.63l1.07-.39c1.27 0 1.82.12 2.3.36l.86.58c.55.91.69 1.5.69 2.2l-.11.97c-.41.99-.68 1.47-1.02 1.93l-.72.91c-.83.86-1.25 1.27-1.69 1.65l-.84.72 4.74.31V120h-6.98Zm7.44 0Zm5.88 0v-2.25h-5.33v-.97l5.1-7.28h1.47v7.14h1.56v1.11h-1.56V120h-1.24Zm-3.93-3.36h3.99V110.9l-3.99 5.74Zm7.16 3.36Zm5.7 0l-3.6-4.14 3.28-3.42h1.55l-3.77 3.87.02-.9 4.12 4.59h-1.6Zm-4.65 0V109.2h1.26V120h-1.26Zm10.49 0Zm1.5-4.28l-.46-.07-.41-.54.08-.69.54-.4.7.07.4.53-.08.7-.52.4Zm5.46 4.28Zm2.28 0v-9.09l-1.8.45v-.9l2.22-.96h.85V120h-1.27Zm2.39 0Zm4.56.18l-1.29-.13c-1.08-.51-1.51-.86-1.83-1.31l-.48-.99c0-1.03.09-1.43.26-1.8l.4-.69c.61-.55.97-.74 1.37-.85l-1-.51c-.61-.85-.76-1.3-.76-1.79l.14-.99c.54-.84.92-1.17 1.41-1.42l1.09-.38c1.39 0 1.99.13 2.48.38l.88.58c.53.84.66 1.31.66 1.83l-.15.94c-.61.85-1.04 1.16-1.6 1.36l.76.3c.61.55.85.87 1.01 1.24l.25.77c0 1.03-.16 1.56-.48 2.02l-.74.8c-1.09.51-1.7.64-2.38.64Zm0-1.11l1.38-.18c.77-.73.96-1.22.96-1.81l-.21-1.2c-.85-.7-1.42-.87-2.13-.87l-1.28.17c-.85.7-1.06 1.22-1.06 1.9l.2 1.08c.78.73 1.36.91 2.14.91Zm0-5.11l1.13-.17c.74-.66.93-1.09.93-1.61l-.19-1.03c-.73-.6-1.23-.75-1.87-.75l-1.13.15c-.73.6-.91 1.04-.91 1.63l.18.95c.73.66 1.23.83 1.86.83Zm8.55 6.04Zm1.17 0v-7.56h1.26V120h-1.26Zm.63-9.17l-.46-.07-.41-.55.08-.69.54-.39.7.08.42.5-.08.71-.55.41Zm1.8 9.17Zm1.05 0v-7.56h1.14l.08 1.08.56-.69c.81-.45 1.25-.57 1.73-.57l.74.06.91.36c.48.43.68.71.83 1.03l.61-.81c.91-.51 1.4-.64 1.92-.64l1.09.12c.87.47 1.2.82 1.43 1.3l.36 1.08V120h-1.24v-4.38c0-.76-.16-1.33-.47-1.71l-.74-.57c-.95 0-1.3.11-1.61.32l-.56.49c-.36.78-.45 1.26-.45 1.83V120h-1.26v-4.38c0-.76-.15-1.33-.46-1.71l-.75-.57c-.95 0-1.3.11-1.61.32l-.54.49c-.36.78-.45 1.26-.45 1.83V120h-1.26Zm12.31 0Zm1.05 3.3V112.44h1.14l.11 1.23.36-.46.8-.61c.7-.27 1.1-.34 1.55-.34l1.38.17c1.09.71 1.52 1.18 1.82 1.78l.46 2.02c0 .76-.15 1.44-.46 2.05l-.73 1.05c-1.1.68-1.74.85-2.48.85l-1.15-.13c-.93-.5-1.29-.84-1.54-1.29v4.54h-1.26Zm3.81-4.22l.93-.12c.76-.48 1.05-.8 1.26-1.23l.33-.93c0-1.15-.11-1.65-.33-2.08l-.5-.77c-.76-.48-1.2-.6-1.69-.6l-.94.12c-.76.48-1.05.82-1.26 1.25l-.32.93c0 1.15.11 1.65.32 2.08l.5.75c.76.48 1.2.6 1.7.6Zm4.53.92Zm3.51.18l-1.12-.1c-.82-.43-1.12-.72-1.32-1.07l-.3-.75c0-.93.13-1.36.39-1.71l.64-.63c.97-.37 1.55-.46 2.21-.46h1.99c0-.48-.07-.87-.22-1.17l-.35-.57-.89-.39c-.89 0-1.31.12-1.66.35l-.56.6-1.37.47.24-.99c.61-.73 1-1.01 1.47-1.2l.96-.3c1.21 0 1.79.13 2.25.39l.82.61c.46.91.57 1.44.57 2.06V120h-1.12l-.08-1.33-.23.41-.49.52-.66.38-.83.2Zm.2-1.07l.66-.07.82-.49c.4-.51.55-.79.65-1.1l.16-.63v-.39h-1.89c-.49 0-.88.06-1.18.18l-.52.27-.32.64.06.77.43.55.79.27Zm4.23.89Zm1.88 3.3l1.84-4.14h-.43l-2.97-6.72h1.36l2.46 5.77 2.58-5.77h1.31l-4.83 10.86h-1.32Zm5.75-3.3Zm4.37.18l-1.34-.16c-1.09-.67-1.52-1.12-1.83-1.72l-.46-2.08c0-.8.15-1.5.45-2.08l.74-1.06c1.11-.66 1.75-.82 2.47-.82l1.36.16c1.03.66 1.43 1.1 1.7 1.64l.42 1.11c0 .75 0 .85 0 .96l-.01.23-6.19.15v-.98h4.97c-.03-.69-.26-1.23-.69-1.62l-.95-.58c-1.07 0-1.47.09-1.84.3l-.65.47c-.44.75-.55 1.22-.55 1.78v.41l.11 1.14c.45.85.74 1.16 1.1 1.37l.77.31c.95 0 1.38-.11 1.72-.34l.6-.56 1.4-.4-.33.86c-.6.72-.98 1-1.43 1.21l-.95.3Zm-1.5-8.39l-.14-.89 3.02-1.93.18 1.08-3.06 1.74Zm5.66 8.21Zm3.9.18l-1.18-.1c-.93-.42-1.3-.72-1.58-1.09l-.44-.82 1.23-.51.16.5.53.62c.55.27.89.33 1.29.33l.64-.04.63-.36.29-.55-.07-.76-.5-.44-.9-.28c-.73-.13-1.06-.21-1.38-.31l-.6-.23-.7-.54-.36-.77c0-.78.11-1.16.33-1.49l.53-.61c.83-.38 1.32-.47 1.87-.47.81 0 1.46.2 1.96.58l.8.96-1.16.74-.21-.68c-.55-.43-.93-.53-1.41-.53l-.83.09-.61.63.07.69.47.44.86.31c.89.16 1.34.28 1.75.43l.74.37c.51.6.64 1.01.64 1.55l-.12.88c-.47.7-.8.98-1.23 1.18l-.93.28ZM29 145Zm2.68-3.2l-.61-.08-.77-.53c-.32-.55-.4-.85-.4-1.18l.08-.65.54-.77c.55-.32.84-.4 1.16-.4l.65.08.77.54c.32.55.4.85.4 1.2l-.08.63-.54.77c-.55.31-.86.39-1.2.39Zm6.71 3.2Zm4.47.18l-2.01-.42c-.57-.28-1.01-.67-1.32-1.17l-.47-1.08 1.32-.66.1.79c.38.69.65.96 1.01 1.18l.83.29c1.01 0 1.41-.07 1.74-.22l.59-.37.44-.85c0-.75-.09-1.08-.27-1.33l-.4-.47c-.6-.32-.95-.46-1.35-.58l-.8-.26c-1.26-.43-1.87-.77-2.26-1.19l-.59-.97c0-1.24.13-1.74.39-2.17l.65-.77c.99-.48 1.58-.61 2.26-.61l1.25.13c.99.5 1.38.84 1.66 1.28l.42.93-1.32.57-.07-.57-.53-.8c-.61-.37-.99-.46-1.45-.46l-.72.06-.82.45c-.33.5-.41.81-.41 1.17l.07.62.5.59c.55.3.87.42 1.24.55l.78.25c.96.32 1.41.53 1.8.78l.71.55c.45.76.57 1.24.57 1.84l-.14.97c-.53.89-.92 1.25-1.44 1.53l-1.96.42Zm4.23-.18Zm3.8.18l-1.09-.11c-.87-.47-1.21-.82-1.45-1.3l-.34-1.08v-5.25h1.26v4.4c0 .75.16 1.31.49 1.69l.8.57c1.02 0 1.4-.1 1.74-.3l.6-.51c.39-.76.49-1.24.49-1.8v-4.05h1.26V145H53.51l-.07-1.32-.57.84c-.9.53-1.41.66-1.98.66Zm4.8-.18Zm1.05 3.3V137.44h1.14l.1 1.23.37-.46.8-.61c.7-.27 1.1-.34 1.55-.34l1.38.17c1.09.71 1.51 1.18 1.81 1.78l.47 2.02c0 .76-.16 1.44-.47 2.05l-.72 1.05c-1.1.68-1.75.85-2.49.85l-1.15-.13c-.93-.5-1.28-.84-1.53-1.29v4.54H56.74Zm3.81-4.21l.92-.13c.76-.48 1.06-.8 1.27-1.23l.33-.93c0-1.15-.11-1.65-.33-2.08l-.51-.76c-.76-.49-1.19-.61-1.68-.61l-.94.12c-.76.49-1.06.82-1.27 1.25l-.31.93c0 1.15.1 1.65.31 2.08l.51.75c.76.48 1.2.61 1.7.61Zm4.53.91Zm1.05 3.3V137.44h1.14l.1 1.23.37-.46.8-.61c.7-.27 1.1-.34 1.55-.34l1.38.17c1.09.71 1.51 1.18 1.81 1.78l.47 2.02c0 .76-.16 1.44-.47 2.05l-.72 1.05c-1.1.68-1.75.85-2.49.85l-1.15-.13c-.93-.5-1.28-.84-1.53-1.29v4.54H66.13Zm3.81-4.21l.92-.13c.76-.48 1.06-.8 1.27-1.23l.33-.93c0-1.15-.11-1.65-.33-2.08l-.51-.76c-.76-.49-1.19-.61-1.68-.61l-.94.12c-.76.49-1.06.82-1.27 1.25l-.31.93c0 1.15.1 1.65.31 2.08l.51.75c.76.48 1.2.61 1.7.61Zm4.53.91Zm4.42.18l-1.33-.16c-1.12-.65-1.56-1.11-1.88-1.7l-.48-2.09c0-.81.16-1.51.48-2.09l.78-1.06c1.13-.66 1.76-.82 2.46-.82l1.36.16c1.11.66 1.55 1.12 1.87 1.72l.49 2.08c0 .8-.16 1.5-.49 2.1l-.78 1.05c-1.12.65-1.76.81-2.48.81Zm.02-1.08l.83-.11c.74-.42 1.04-.75 1.27-1.18l.34-.96c0-1.27-.11-1.8-.34-2.22l-.52-.75c-.73-.43-1.13-.54-1.57-.54l-.82.11c-.75.43-1.05.75-1.28 1.18l-.33.95c0 1.27.11 1.8.33 2.23l.53.76c.73.42 1.13.53 1.56.53Zm4.45.9Zm1.05 0v-7.56h1.14l.09 1.44.39-.63c.53-.48.85-.66 1.22-.79l.81-.2.48 1.32h-.47l-.62.05-.84.3c-.45.38-.63.64-.76.97l-.18.72V145H84.41Zm4.5 0Zm4.02 0l-.84-.07c-.66-.28-.91-.52-1.09-.84l-.26-.8v-4.78H89.42v-1.07h1.32l.17-1.83H92v1.83h2.19v1.07H92v4.21c0 .47.1.79.29.96l.52.24H94.1V145H92.93Zm5.84 0Zm1.5.08l-.46-.09-.41-.53.08-.68.54-.42.71.09.4.53-.08.68-.53.42Zm0-6.11l-.46-.08-.41-.54.08-.68.54-.41.71.08.4.54-.08.68-.53.41Zm5.52 6.03Zm4.54.18l-1.22-.13c-.94-.51-1.32-.85-1.6-1.28l-.43-.92 1.11-.52.34 1c.76.6 1.24.76 1.82.76l1-.17c.82-.63 1.15-1.12 1.4-1.77l.43-2.5c0-.04 0-.06 0-.1l-.37.52c-.58.53-.92.75-1.32.91l-.83.24c-1.08 0-1.64-.14-2.17-.42l-.95-.67c-.65-1.01-.81-1.6-.81-2.29l.15-1.15c.58-1.08.99-1.52 1.53-1.86l1.18-.51c1.49 0 2.13.14 2.65.44l.93.65c.63.95.86 1.49 1 2.09l.21 1.21c0 1.77-.16 2.78-.48 3.67-.31.88-.77 1.57-1.38 2.07-.6.48-1.33.73-2.19.73Zm.09-5.05l.88-.11c.74-.42 1.03-.7 1.24-1.06l.33-.76c0-.89-.11-1.29-.33-1.65l-.5-.62c-.74-.4-1.16-.5-1.62-.5l-.87.11c-.73.41-1.02.68-1.23 1.03l-.31.76c0 .93.1 1.33.31 1.69l.5.62c.73.39 1.14.49 1.6.49Zm4.79 4.87Zm5.88 0v-2.25h-5.33v-.97l5.1-7.28h1.47v7.14h1.56v1.11h-1.56V145h-1.24Zm-3.93-3.36h3.99V135.9l-3.99 5.74Zm7.1 3.36Zm2.17 0l6.11-10.5h1.26L127.69 145h-1.26Zm6.62.18l-.86-.1c-.72-.41-1.01-.7-1.23-1.09l-.31-.82c0-1.03.1-1.47.31-1.84l.51-.67c.72-.42 1.13-.52 1.58-.52l.86.1c.71.42 1 .71 1.21 1.09l.31.81c0 1.03-.1 1.47-.31 1.85l-.5.68c-.72.41-1.12.51-1.57.51Zm-.02-.97l.46-.06.56-.41.32-.74-.06-.98-.4-.63-.62-.29-.69.06-.58.4-.31.75.06.97.42.64.61.29Zm-5.76-4.83l-.85-.1c-.72-.42-1.01-.71-1.23-1.09l-.32-.83c0-1.02.11-1.47.32-1.84l.51-.67c.73-.41 1.14-.52 1.59-.52l.85.11c.72.41 1.01.7 1.22 1.08l.31.82c0 1.02-.1 1.47-.31 1.85l-.5.67c-.73.42-1.14.52-1.59.52Zm0-.98l.46-.06.56-.4.3-.74-.06-.98-.4-.65-.61-.29-.68.06-.59.4-.31.77.06.97.41.63.63.29Zm12.77 6.6Zm1.05 0v-7.56h1.14l.09 1.44.38-.63c.53-.48.85-.66 1.22-.79l.81-.2.48 1.32h-.46l-.63.05-.84.3c-.45.38-.62.64-.75.97l-.18.72V145h-1.26Zm4.22 0Zm4.36.18l-1.34-.16c-1.09-.67-1.51-1.12-1.82-1.72l-.47-2.08c0-.8.15-1.5.45-2.08l.74-1.05c1.11-.67 1.75-.83 2.47-.83l1.37.16c1.03.67 1.42 1.1 1.69 1.64l.42 1.11c0 .74 0 .85 0 .96v.23l-6.19.15v-.98h4.96c-.03-.69-.26-1.23-.69-1.62l-.95-.58c-1.07 0-1.47.09-1.84.3l-.65.47c-.44.75-.55 1.22-.55 1.78v.41l.11 1.14c.45.85.75 1.16 1.11 1.37l.76.31c.95 0 1.39-.11 1.73-.34l.6-.56 1.39-.4-.33.85c-.6.73-.97 1.01-1.42 1.22l-.96.3Zm-1.5-8.39l-.13-.89 3.01-1.93.18 1.08-3.06 1.74Zm5.66 8.21Zm3.9.18l-1.18-.1c-.93-.42-1.3-.72-1.58-1.09l-.43-.82 1.23-.51.15.5.54.62c.55.27.89.33 1.29.33l.64-.04.63-.36.29-.55-.08-.76-.5-.44-.9-.28c-.73-.13-1.05-.21-1.37-.31l-.61-.23-.7-.54-.36-.77c0-.78.11-1.16.33-1.49l.54-.61c.83-.38 1.31-.47 1.86-.47.81 0 1.47.2 1.97.58l.79.96-1.15.74-.22-.68c-.55-.43-.92-.53-1.4-.53l-.83.09-.61.63.06.69.47.44.86.31c.89.16 1.35.28 1.76.43l.74.37c.51.6.64 1.01.64 1.55l-.12.88c-.47.7-.8.98-1.23 1.18l-.94.28Zm3.63-.18Zm4.43.18l-1.33-.16c-1.12-.65-1.56-1.11-1.88-1.7l-.48-2.09c0-.81.16-1.51.48-2.09l.77-1.06c1.13-.66 1.77-.82 2.47-.82l1.35.16c1.11.66 1.55 1.12 1.87 1.72l.5 2.08c0 .8-.17 1.5-.5 2.1l-.77 1.05c-1.12.65-1.76.81-2.48.81Zm.01-1.08l.83-.11c.74-.42 1.04-.75 1.27-1.18l.35-.96c0-1.27-.12-1.8-.35-2.22l-.51-.75c-.73-.43-1.13-.54-1.57-.54l-.82.11c-.75.43-1.05.75-1.28 1.18l-.33.95c0 1.27.11 1.8.33 2.23l.52.76c.73.42 1.13.53 1.56.53Zm4.45.9Zm1.05 0V134.2h1.26V145H171.3Zm2.29 0Zm3.8.18l-1.09-.11c-.87-.47-1.21-.82-1.45-1.3l-.34-1.08v-5.25h1.26v4.4c0 .75.16 1.31.49 1.69l.8.57c1.02 0 1.4-.1 1.74-.3l.6-.51c.39-.76.49-1.24.49-1.8v-4.05h1.26V145h-1.14l-.07-1.32-.57.84c-.9.53-1.41.66-1.98.66Zm4.8-.18Zm4.02 0l-.84-.07c-.66-.28-.91-.52-1.09-.84l-.26-.8v-4.78H182.7v-1.07h1.32l.17-1.83h1.09v1.83h2.19v1.07h-2.19v4.21c0 .47.1.79.29.96l.52.24h1.29V145h-1.17Zm1.86 0Zm1.17 0v-7.56h1.26V145h-1.26Zm.63-9.16l-.46-.08-.41-.55.08-.69.54-.39.69.08.43.5-.09.71-.54.42Zm1.8 9.16Zm4.43.18l-1.33-.16c-1.12-.65-1.56-1.11-1.88-1.7l-.48-2.09c0-.81.16-1.51.48-2.09l.77-1.06c1.13-.66 1.77-.82 2.47-.82l1.35.16c1.11.66 1.55 1.12 1.87 1.72l.5 2.08c0 .8-.17 1.5-.5 2.1l-.77 1.05c-1.12.65-1.76.81-2.48.81Zm.01-1.08l.83-.11c.74-.42 1.04-.75 1.27-1.18l.35-.96c0-1.27-.12-1.8-.35-2.22l-.51-.75c-.73-.43-1.13-.54-1.57-.54l-.82.11c-.75.43-1.05.75-1.28 1.18l-.33.95c0 1.27.11 1.8.33 2.23l.52.76c.73.42 1.13.53 1.56.53Zm4.45.9Zm1.05 0v-7.56h1.14l.06 1.32.58-.84c.89-.52 1.4-.66 1.97-.66l1.1.12c.86.47 1.2.83 1.44 1.3l.36 1.08V145H207v-4.38c0-.76-.17-1.33-.51-1.71l-.8-.57c-1.03 0-1.41.11-1.74.32l-.59.49c-.39.77-.49 1.25-.49 1.81V145h-1.26Zm11.55 0Zm1.5-4.28l-.46-.07-.41-.54.08-.7.54-.39.71.07.4.53-.08.7-.53.4Zm5.46 4.28Zm5.68.18c-1.02 0-1.9-.22-2.65-.67-.74-.47-1.31-1.1-1.71-1.91s-.6-1.77-.6-2.85.2-2.03.6-2.84c.4-.82.97-1.45 1.71-1.9s1.63-.69 2.65-.69c1.2 0 2.18.28 2.93.85s1.23 1.38 1.44 2.42h-1.4c-.16-.65-.48-1.17-.97-1.56s-1.16-.6-2-.6l-1.95.53c-.55.33-.97.83-1.27 1.48l-.45 2.31c0 .9.15 1.67.45 2.33l.72 1.13c1.1.69 1.75.86 2.5.86.84 0 1.51-.19 2-.57l.81-.91 1.56-.63-.69 1.8c-1.5 1.14-2.48 1.42-3.68 1.42Zm5.07-.18Zm4.47.18l-2.01-.42c-.57-.28-1.01-.67-1.32-1.17l-.46-1.08 1.32-.66.09.79c.38.69.66.96 1.02 1.18l.82.29c1.01 0 1.41-.07 1.74-.22l.6-.37.44-.85c0-.75-.09-1.08-.27-1.33l-.41-.47c-.6-.32-.95-.46-1.35-.58l-.8-.26c-1.26-.43-1.87-.77-2.26-1.19l-.58-.97c0-1.24.13-1.74.39-2.17l.65-.77c.99-.48 1.58-.61 2.26-.61l1.25.13c.99.5 1.38.84 1.66 1.28l.42.93-1.32.57-.08-.57-.53-.8c-.61-.37-.99-.46-1.45-.46l-.72.06-.82.45c-.33.5-.41.81-.41 1.17l.07.62.5.59c.55.3.88.42 1.25.55l.78.25c.96.32 1.41.53 1.8.78l.71.55c.45.76.56 1.24.56 1.84l-.13.97c-.53.89-.92 1.25-1.44 1.53l-1.97.42Zm4.23-.18Zm.45 0l3.87-10.5h1.34l3.85 10.5h-1.33l-3.2-8.92-3.21 8.92h-1.32Zm1.77-2.7l.36-1.02h4.76l.36 1.02h-5.48Zm6.56 2.7Zm3.58 0v-9.47H248.8V134.5h7.53v1.03h-3.14V145h-1.26Zm8.81 0Zm5.88 0v-2.25h-5.33v-.97l5.1-7.28h1.47v7.14h1.56v1.11h-1.56V145h-1.24Zm-3.93-3.36h3.99V135.9l-3.99 5.74Zm7.16 3.36Zm1.5.08l-.46-.09-.41-.53.08-.68.54-.42.7.09.4.53-.08.68-.52.42Zm1.02-.08Zm2.07 0l4.09-9.42h-5.76V134.5h7.05v.95L275.77 145h-1.33Zm4.64 0Zm.42 1.42l3.76-12.88h1.25l-3.77 12.88H279.5Zm5-1.42Zm4.66.18l-1.34-.13c-1.05-.52-1.47-.88-1.78-1.33l-.49-.95 1.15-.56c.12.56.4 1.01.83 1.37l.98.52c1.17 0 1.59-.12 1.94-.34l.64-.55c.39-.8.49-1.25.49-1.74l-.1-.95c-.4-.79-.68-1.09-1.03-1.3l-.76-.32c-1.04 0-1.52.12-1.92.37l-.7.57-1.42.39.87-5.73h5.55v1.09H287.5l-.59 3.23c.25-.29.58-.53.99-.71l.91-.28c1.07 0 1.54.09 1.96.27l.78.44c.6.66.83 1.04.99 1.48l.25.92c0 1.03-.08 1.51-.25 1.96l-.4.83c-.62.69-1 .97-1.45 1.17l-.96.28ZM29 170Zm2.68-3.2l-.61-.08-.77-.53c-.32-.55-.4-.85-.4-1.18l.08-.65.54-.77c.55-.32.84-.4 1.16-.4l.65.08.77.54c.32.55.4.85.4 1.2l-.08.63-.54.77c-.55.31-.86.39-1.2.39Zm6.71 3.2Zm4.47.18l-2.01-.42c-.57-.28-1.01-.67-1.32-1.17l-.47-1.08 1.32-.66.1.79c.38.69.65.96 1.01 1.18l.83.29c1.01 0 1.41-.07 1.74-.22l.59-.37.44-.85c0-.75-.09-1.08-.27-1.33l-.4-.47c-.6-.32-.95-.46-1.35-.58l-.8-.26c-1.26-.43-1.87-.77-2.26-1.19l-.59-.97c0-1.24.13-1.74.39-2.17l.65-.77c.99-.48 1.58-.61 2.26-.61l1.25.13c.99.5 1.38.84 1.66 1.28l.42.93-1.32.57-.07-.57-.53-.8c-.61-.37-.99-.46-1.45-.46l-.72.06-.82.45c-.33.5-.41.81-.41 1.17l.07.62.5.59c.55.3.87.42 1.24.55l.78.25c.96.32 1.41.53 1.8.78l.71.55c.45.76.57 1.24.57 1.84l-.14.97c-.53.89-.92 1.25-1.44 1.53l-1.96.42Zm4.23-.18Zm1.13 0V159.5h6.49v1.04H49.48v3.66h4.78v1.01H49.48v3.75h5.23V170H48.22Zm7.35 0Zm5.81.18c-1.01 0-1.9-.22-2.67-.67-.76-.47-1.36-1.1-1.79-1.91s-.63-1.77-.63-2.85.21-2.01.63-2.82c.43-.82 1.03-1.46 1.79-1.92.77-.46 1.66-.69 2.67-.69 1.03 0 1.92.23 2.68.69s1.35 1.1 1.77 1.92c.43.81.65 1.75.65 2.82s-.22 2.03-.65 2.85c-.42.81-1.01 1.44-1.77 1.91-.76.45-1.65.67-2.68.67Zm0-1.11l1.99-.51c.58-.35 1.03-.85 1.34-1.48l.48-2.33c0-.9-.16-1.67-.48-2.31l-.76-1.15c-1.15-.68-1.81-.84-2.57-.84l-2 .51c-.57.33-1.01.83-1.33 1.48l-.47 2.31c0 .9.16 1.67.47 2.33l.76 1.13c1.15.69 1.82.86 2.57.86Zm9.79.93Zm1.5.08l-.46-.09-.41-.53.08-.68.54-.42.71.09.4.53-.08.69-.53.41Zm0-6.11l-.46-.08-.41-.54.08-.68.54-.41.71.08.4.54-.08.68-.53.41ZM78.19 170Zm3.55-1.08v-6.54h1.13v6.54H81.74Zm-2.86-2.75v-1.06h6.85v1.06H78.88ZM86.44 170Zm2.28 0v-9.09l-1.8.45v-.9l2.22-.96h.85V170H88.72Zm2.39 0Zm4.56.18l-1.29-.13c-1.08-.51-1.51-.86-1.83-1.31l-.48-.99c0-1.03.08-1.43.25-1.8l.41-.69c.61-.55.96-.74 1.36-.85l-.99-.51c-.61-.85-.76-1.3-.76-1.79l.13-.99c.54-.84.92-1.17 1.41-1.42l1.1-.38c1.39 0 1.98.13 2.47.38l.88.58c.53.84.67 1.31.67 1.83l-.16.94c-.61.85-1.04 1.16-1.6 1.36l.77.3c.61.55.84.87 1 1.24l.26.77c0 1.03-.16 1.56-.48 2.02l-.74.8c-1.09.51-1.7.64-2.38.64Zm0-1.11l1.37-.18c.77-.73.97-1.22.97-1.81l-.22-1.2c-.85-.7-1.41-.87-2.12-.87l-1.28.17c-.85.7-1.06 1.22-1.06 1.9l.19 1.08c.78.73 1.37.91 2.15.91Zm0-5.11l1.13-.17c.74-.66.92-1.08.92-1.61l-.18-1.03c-.73-.6-1.23-.75-1.87-.75l-1.13.15c-.73.6-.91 1.04-.91 1.63l.18.95c.73.66 1.23.83 1.86.83Zm4.57 6.04Zm2.17 0l6.11-10.5h1.26L103.67 170h-1.26Zm6.62.18l-.86-.1c-.72-.41-1.01-.7-1.23-1.09l-.31-.82c0-1.03.1-1.47.31-1.84l.51-.67c.72-.42 1.13-.52 1.58-.52l.86.1c.71.42 1 .71 1.21 1.09l.31.81c0 1.03-.1 1.47-.31 1.85l-.5.68c-.72.41-1.12.51-1.57.51Zm-.02-.97l.46-.06.56-.41.32-.74-.06-.98-.4-.63-.62-.29-.69.06-.58.4-.31.75.06.98.42.63.61.29Zm-5.76-4.83l-.85-.1c-.72-.42-1.01-.71-1.23-1.09l-.32-.83c0-1.03.11-1.47.32-1.84l.51-.67c.73-.41 1.14-.51 1.59-.51l.85.1c.72.41 1.01.7 1.22 1.08l.31.81c0 1.03-.1 1.48-.31 1.86l-.5.67c-.73.42-1.14.52-1.59.52Zm0-.98l.46-.06.56-.4.3-.74-.06-.99-.4-.64-.61-.29-.68.06-.59.4-.31.77.06.97.41.63.63.29Zm12.76 6.6Zm4.02 0l-.84-.07c-.66-.28-.91-.51-1.09-.84l-.26-.8v-4.78h-1.32v-1.07h1.32l.17-1.83h1.09v1.83h2.19v1.07H119.1v4.21c0 .47.1.79.29.96l.52.24h1.29V170h-1.17Zm1.86 0Zm1.05 0v-7.56h1.14l.09 1.44.38-.63c.53-.48.85-.67 1.22-.79l.81-.2.48 1.32h-.46l-.63.05-.84.3c-.45.38-.62.64-.75.97l-.18.72V170h-1.26Zm4.5 0Zm3.51.18l-1.12-.1c-.82-.43-1.13-.72-1.33-1.07l-.3-.75c0-.93.13-1.36.39-1.71l.65-.63c.97-.37 1.54-.46 2.2-.46h2c0-.48-.08-.87-.23-1.17l-.35-.57-.89-.39c-.89 0-1.3.12-1.65.35l-.57.6-1.37.47.24-.99c.61-.73 1-1.01 1.47-1.2l.96-.3c1.21 0 1.79.13 2.25.39l.82.61c.46.9.58 1.44.58 2.06V170h-1.13l-.07-1.34-.23.42-.49.52-.66.38-.83.2Zm.19-1.07l.67-.07.81-.49c.4-.51.55-.79.65-1.1l.17-.63v-.39h-1.89c-.49 0-.89.06-1.19.18l-.51.27-.33.64.06.77.44.55.78.27Zm4.46.89Zm1.47 0v-6.49h-1.16v-1.07h1.16v-1.17c0-.48.08-.87.24-1.17l.39-.53c.63-.29 1.02-.37 1.48-.37h.75v1.08h-.55l-.64.07-.41.57v1.52h4.53V170H141.6v-6.49h-3.27V170h-1.26Zm5.17-9l-.44-.08-.43-.54.09-.7.54-.39.7.08.41.51-.08.71-.54.41Zm1.81 9Zm4.45.18l-1.35-.16c-1.13-.67-1.57-1.12-1.89-1.72l-.48-2.07c0-.8.16-1.49.48-2.08l.76-1.05c1.13-.67 1.77-.84 2.48-.84.9 0 1.65.23 2.25.7s.98 1.08 1.14 1.87H150.6c-.1-.48-.34-.84-.73-1.1l-.85-.39c-.96 0-1.36.11-1.73.33l-.67.53c-.44.86-.55 1.39-.55 2.02l.07.89c.26.73.43 1.03.65 1.27l.48.42.9.31c.68 0 1-.05 1.29-.16l.54-.29.53-.74 1.36-.31-.54 1.38c-1.21.96-1.96 1.19-2.85 1.19Zm8.12-.18Zm1.5-4.28l-.46-.07-.41-.54.08-.7.54-.39.7.07.4.53-.08.7-.52.4Zm5.46 4.28Zm4.39.18l-1.28-.12c-1.09-.49-1.52-.86-1.84-1.35l-.49-1.1 1.26-.73.1.77c.37.67.64.94.99 1.14l.77.3c.98 0 1.39-.1 1.72-.29l.58-.44c.34-.63.43-.98.43-1.38l-.12-.88c-.47-.61-.79-.83-1.19-.97l-.82-.23h-1.25v-1.06h.78c.69 0 1.23-.17 1.62-.49l.59-.76c0-1.01-.16-1.4-.47-1.71l-.76-.47c-1.21 0-1.68.17-2.03.51l-.55.78-1.32.53.18-1.07c.56-.88.94-1.23 1.42-1.46l1.05-.38c1.33 0 1.9.12 2.36.36l.8.56c.47.8.59 1.24.59 1.72l-.06.7-.46.91c-.52.47-.85.64-1.25.75l.78.23c.65.46.91.76 1.1 1.13l.28.8c0 1.07-.13 1.6-.4 2.1l-.65.87c-1.04.58-1.69.73-2.46.73Zm4.47-.18Zm5.88 0v-2.25h-5.33v-.97l5.1-7.28h1.47v7.14h1.56v1.11h-1.56V170h-1.24Zm-3.93-3.36h3.99V160.9l-3.99 5.74ZM185.53 170Zm3.59 0v-9.46h-3.14V159.5h7.53v1.04h-3.13V170h-1.26Zm3.47 0Zm4.43.18l-1.33-.16c-1.12-.65-1.56-1.11-1.88-1.7l-.48-2.09c0-.81.16-1.51.48-2.09l.77-1.06c1.13-.66 1.77-.82 2.47-.82l1.35.16c1.11.66 1.55 1.12 1.87 1.72l.5 2.08c0 .8-.17 1.5-.5 2.1l-.77 1.05c-1.12.65-1.76.81-2.48.81Zm.01-1.08l.83-.11c.74-.42 1.04-.75 1.27-1.18l.35-.96c0-1.27-.12-1.8-.35-2.22l-.51-.75c-.73-.43-1.13-.54-1.57-.54l-.82.11c-.75.43-1.05.75-1.28 1.18l-.33.95c0 1.27.11 1.8.33 2.23l.52.76c.73.42 1.13.53 1.56.53Zm4.46.9Zm1.05 3.3V162.44h1.14l.1 1.23.37-.46.8-.61c.7-.27 1.1-.34 1.55-.34l1.38.17c1.09.71 1.51 1.18 1.81 1.78l.47 2.02c0 .76-.16 1.44-.47 2.05l-.72 1.05c-1.1.68-1.75.85-2.49.85l-1.15-.13c-.93-.5-1.28-.84-1.53-1.29v4.54h-1.26Zm3.81-4.21l.92-.12c.76-.49 1.06-.81 1.27-1.24l.33-.93c0-1.15-.11-1.65-.33-2.08l-.51-.76c-.76-.49-1.19-.61-1.68-.61l-.94.12c-.76.49-1.06.82-1.27 1.25l-.31.93c0 1.15.1 1.65.31 2.08l.51.75c.76.49 1.2.61 1.7.61Zm8.51.91Zm4.39.18l-1.28-.12c-1.09-.49-1.52-.86-1.84-1.35l-.49-1.1 1.26-.73.1.77c.37.67.64.94.99 1.14l.77.3c.98 0 1.39-.1 1.72-.29l.58-.44c.34-.63.43-.98.43-1.38l-.12-.88c-.47-.61-.79-.83-1.19-.97l-.82-.23h-1.25v-1.06h.78c.69 0 1.23-.17 1.62-.49l.59-.76c0-1.01-.16-1.4-.47-1.71l-.76-.47c-1.21 0-1.68.17-2.03.51l-.55.78-1.32.53.18-1.07c.56-.88.94-1.23 1.42-1.46l1.05-.38c1.33 0 1.9.12 2.36.36l.8.56c.47.8.59 1.24.59 1.72l-.06.7-.46.91c-.52.47-.85.64-1.25.75l.78.23c.65.46.91.76 1.1 1.13l.28.8c0 1.07-.13 1.6-.4 2.1l-.65.87c-1.04.58-1.69.73-2.46.73ZM29 195Zm2.68-3.2l-.61-.08-.77-.53c-.32-.55-.4-.85-.4-1.18l.08-.65.54-.77c.55-.32.84-.4 1.16-.4l.65.08.77.54c.32.55.4.85.4 1.2l-.08.63-.54.77c-.55.31-.86.39-1.2.39Zm6.71 3.2Zm1.12 0V184.5h1.47l3.71 7.34 3.72-7.34h1.48V195H48.63v-8.25l-3.46 6.78h-.95l-3.45-6.75V195H39.51ZM51 195Zm3.51.18l-1.12-.1c-.82-.43-1.12-.72-1.32-1.07l-.3-.75c0-.93.13-1.36.39-1.71l.64-.63c.97-.37 1.55-.46 2.21-.46H57c0-.48-.07-.87-.22-1.17l-.35-.57-.89-.39c-.89 0-1.31.12-1.66.35l-.56.6-1.37.47.24-.99c.61-.73 1-1.01 1.47-1.2l.96-.3c1.21 0 1.79.13 2.25.39l.82.61c.46.9.57 1.44.57 2.06V195H57.14l-.08-1.34-.23.42-.49.52-.66.38-.83.2Zm.2-1.07l.66-.07.82-.49c.4-.51.55-.79.65-1.1l.16-.63v-.39H55.11c-.49 0-.88.06-1.18.18l-.52.27-.32.64.06.77.43.55.79.27Zm4.45.89Zm1.05 0v-7.56h1.14l.09 1.44.39-.63c.53-.48.85-.67 1.22-.79l.81-.2.48 1.32h-.47l-.62.05-.84.3c-.45.38-.63.64-.76.97l-.18.72V195H60.21Zm4.5 0Zm5.7 0l-3.6-4.14 3.29-3.42h1.54l-3.76 3.87.01-.9L72.02 195H70.41Zm-4.65 0V184.2h1.26V195H65.76Zm5.97 0Zm4.36.18l-1.34-.16c-1.09-.67-1.51-1.12-1.82-1.72l-.47-2.08c0-.8.15-1.5.45-2.08l.74-1.05c1.11-.67 1.75-.83 2.47-.83l1.37.16c1.03.67 1.42 1.1 1.69 1.64l.42 1.11c0 .74 0 .85 0 .96v.23l-6.19.15v-.98h4.96c-.03-.69-.26-1.23-.69-1.62l-.95-.58c-1.07 0-1.47.09-1.84.3l-.65.47c-.44.75-.55 1.22-.55 1.78v.41l.11 1.14c.45.85.75 1.16 1.11 1.37l.76.31c.95 0 1.39-.11 1.73-.34l.6-.56 1.39-.4-.33.85c-.6.73-.97 1.01-1.42 1.22l-.96.3Zm3.92-.18Zm4.02 0l-.84-.07c-.66-.28-.92-.51-1.1-.84l-.25-.8v-4.78H80.52v-1.07h1.32l.16-1.83h1.1v1.83h2.19v1.07H83.1v4.21c0 .47.09.79.28.96l.53.24H85.2V195H84.03Zm1.85 0Zm1.17 0v-7.56h1.26V195H87.05Zm.63-9.16l-.46-.08-.41-.55.08-.69.54-.39.69.08.43.5-.09.71-.54.42Zm1.8 9.16Zm1.05 0v-7.56h1.14l.06 1.32.58-.84c.89-.52 1.4-.66 1.97-.66l1.1.12c.86.47 1.2.83 1.44 1.3l.36 1.08V195H95.92v-4.38c0-.76-.17-1.33-.51-1.71l-.8-.57c-1.03 0-1.41.11-1.74.32l-.59.49c-.39.77-.49 1.25-.49 1.81V195H90.53Zm7.57 0Zm4.03 3.48l-1.28-.09c-1.05-.35-1.46-.61-1.75-.98l-.43-.8c0-.76.04-1.01.13-1.27l.27-.51c.47-.5.8-.73 1.23-.92l.87.5-.87.48c-.32.57-.4.83-.4 1.07l.09.61.65.6c.68.22 1.06.28 1.49.28l.8-.06.86-.42.43-.69-.13-.95c-.52-.47-1.02-.61-1.75-.65l-1.08-.09c-.8-.14-1.13-.22-1.39-.31l-.48-.21-.51-.36-.14-.48 1.46-1.44 1.09.39-1.5 1.35.2-.52.21.15.34.2.57.15c.61.07 1.02.12 1.52.15l1.24.18c.83.37 1.13.63 1.31.95l.28.7c0 .87-.12 1.28-.36 1.66l-.59.7c-.98.5-1.61.63-2.38.63Zm-.01-5.85l-1.17-.12c-.89-.48-1.23-.8-1.46-1.2l-.34-.86c0-1 .11-1.46.34-1.86l.58-.71c.88-.49 1.42-.62 2.05-.62l1.16.13c.88.49 1.22.81 1.45 1.2l.34.86c0 1-.11 1.45-.34 1.86l-.57.72c-.88.48-1.41.6-2.04.6Zm0-1.04l.96-.13c.62-.56.78-.98.78-1.51l-.16-.94c-.62-.56-1.04-.7-1.58-.7l-.96.14c-.65.56-.81.96-.81 1.5l.16.95c.64.56 1.07.69 1.61.69Zm1.23-3.08l-.38-1.07h3.09v.95l-2.71.12Zm7.1 6.49Zm1.5.08l-.46-.09-.41-.53.08-.68.54-.42.7.09.4.53-.08.69-.52.41Zm0-6.11l-.46-.08-.41-.54.08-.68.54-.41.7.08.4.54-.08.68-.52.41Zm5.51 6.03Zm1.13 0V184.5h3.39c.82 0 1.49.14 2.01.42l.9.63c.5.92.63 1.44.63 2.03l-.13 1.07c-.51.94-.9 1.31-1.43 1.59l-2.04.42h-2.07V195h-1.26Zm5.55 0l-2.31-4.7h1.41l2.38 4.7h-1.48Zm-4.29-5.33h2.04c.8 0 1.38-.19 1.75-.58l.57-.89c0-1.23-.18-1.72-.55-2.08l-.96-.55h-2.85v4.1Zm6.52 5.33Zm5.8.18c-1.01 0-1.9-.22-2.67-.67-.76-.47-1.35-1.1-1.78-1.91s-.63-1.77-.63-2.85.21-2.01.63-2.82c.43-.82 1.02-1.46 1.78-1.92s1.66-.69 2.67-.69c1.03 0 1.93.23 2.69.69s1.35 1.1 1.77 1.92c.43.81.64 1.75.64 2.82s-.21 2.03-.64 2.85-1.01 1.44-1.77 1.91c-.76.45-1.66.67-2.69.67Zm0-1.11l2-.51c.58-.35 1.02-.85 1.33-1.48l.48-2.33c0-.9-.16-1.67-.48-2.31l-.75-1.15c-1.15-.68-1.82-.84-2.58-.84l-1.99.51c-.57.33-1.02.83-1.34 1.48l-.46 2.31c0 .9.15 1.67.46 2.33l.77 1.13c1.15.69 1.81.86 2.56.86Zm5.81.93Zm1.13 0V184.5h1.26V195h-1.26Zm6.37 0Zm4.4.18l-1.28-.12c-1.09-.49-1.52-.86-1.84-1.35l-.49-1.1 1.25-.73.11.77c.37.67.64.94.99 1.14l.77.3c.98 0 1.39-.1 1.72-.29l.58-.44c.34-.63.42-.98.42-1.38l-.12-.88c-.47-.61-.78-.83-1.18-.97l-.82-.23h-1.25v-1.06h.78c.69 0 1.23-.17 1.62-.49l.58-.76c0-1.01-.15-1.4-.46-1.71l-.76-.47c-1.21 0-1.68.17-2.03.51l-.55.78-1.33.53.19-1.07c.56-.88.94-1.23 1.42-1.46l1.04-.38c1.33 0 1.9.12 2.36.36l.81.56c.47.8.59 1.24.59 1.72l-.07.7-.45.91c-.52.47-.85.64-1.25.75l.77.23c.65.46.91.76 1.1 1.13l.29.8c0 1.07-.14 1.6-.41 2.1l-.65.87c-1.04.58-1.68.73-2.45.73Zm4.22-.18Zm2.28 0v-9.09l-1.8.45v-.9l2.22-.96h.85V195h-1.27Zm2.39 0Zm.96 0v-.89c.71-.56 1.39-1.12 2.03-1.69l1.72-1.7c.5-.56.89-1.12 1.17-1.66l.44-1.06c0-.87-.07-1.21-.2-1.52l-.34-.58c-.57-.4-.95-.5-1.43-.5l-.86.11c-.62.4-.85.67-1.01 1.02l-.23.69-1.21.4.15-1.28c.57-.99.97-1.37 1.47-1.63l1.07-.39c1.27 0 1.82.12 2.3.36l.86.58c.55.91.69 1.5.69 2.2l-.11.97c-.41.99-.68 1.47-1.02 1.93l-.72.91c-.83.86-1.25 1.27-1.69 1.64l-.84.73 4.74.31V195h-6.98Zm7.68 0Zm2.18 0l6.1-10.5h1.26l-6.1 10.5h-1.26Zm6.61.18l-.85-.1c-.72-.41-1.01-.7-1.23-1.09l-.32-.82c0-1.03.11-1.47.32-1.84l.51-.67c.72-.42 1.12-.52 1.57-.52l.87.1c.71.42.99.71 1.2 1.09l.32.81c0 1.03-.11 1.47-.32 1.85l-.49.68c-.72.41-1.13.51-1.58.51Zm-.01-.97l.46-.06.56-.41.31-.74-.06-.98-.4-.63-.62-.29-.69.06-.57.4-.31.75.06.98.41.63.62.29Zm-5.76-4.83l-.86-.1c-.72-.42-1.01-.71-1.23-1.09l-.31-.83c0-1.03.1-1.47.31-1.84l.51-.67c.73-.41 1.14-.51 1.59-.51l.86.1c.72.41 1 .7 1.21 1.08l.32.81c0 1.03-.11 1.48-.32 1.86l-.5.67c-.73.42-1.13.52-1.58.52Zm0-.98l.46-.06.56-.4.3-.74-.06-.99-.4-.64-.62-.29-.68.06-.59.4-.31.77.06.97.42.63.63.29ZM29 245Zm1.13 0V234.5h3.39c.81 0 1.49.14 2 .42l.91.63c.5.92.62 1.44.62 2.03l-.13 1.07c-.5.94-.9 1.31-1.43 1.59l-2.04.42H31.39V245H30.13Zm5.54 0l-2.31-4.7h1.41l2.39 4.7H35.67Zm-4.28-5.33h2.03c.81 0 1.39-.19 1.76-.58l.57-.89c0-1.23-.18-1.72-.55-2.08l-.96-.55H31.39v4.1ZM37.7 245Zm3.51.18l-1.12-.1c-.82-.43-1.12-.72-1.32-1.07l-.3-.75c0-.93.13-1.36.39-1.71l.64-.63c.97-.37 1.55-.46 2.21-.46H43.7c0-.48-.07-.87-.22-1.17l-.35-.57-.89-.39c-.89 0-1.31.12-1.66.35l-.56.6-1.37.47.24-.99c.61-.73 1-1.01 1.47-1.2l.96-.3c1.21 0 1.79.13 2.25.39l.82.61c.46.9.57 1.44.57 2.06V245H43.84l-.08-1.34-.23.42-.49.52-.66.38-.83.2Zm.2-1.07l.66-.07.82-.49c.4-.51.55-.79.65-1.1l.16-.63v-.39H41.81c-.49 0-.88.06-1.18.18l-.52.27-.32.64.06.77.43.55.79.27Zm4.45.89Zm1.05 3.3V237.44h1.14l.11 1.23.36-.46.8-.61c.7-.27 1.1-.34 1.55-.34l1.38.17c1.09.71 1.52 1.18 1.82 1.78l.46 2.02c0 .76-.15 1.44-.46 2.05l-.73 1.05c-1.1.68-1.74.85-2.48.85l-1.15-.13c-.93-.5-1.29-.84-1.54-1.29v4.54H46.91Zm3.81-4.21l.93-.12c.76-.49 1.05-.81 1.26-1.24l.33-.93c0-1.15-.11-1.65-.33-2.08l-.5-.76c-.76-.49-1.2-.61-1.69-.61l-.94.12c-.76.49-1.05.82-1.26 1.25l-.32.93c0 1.15.11 1.65.32 2.08l.5.75c.76.49 1.2.61 1.7.61Zm4.53.91Zm1.05 3.3V237.44h1.14l.11 1.23.36-.46.8-.61c.7-.27 1.1-.34 1.55-.34l1.38.17c1.09.71 1.51 1.18 1.82 1.78l.46 2.02c0 .76-.15 1.44-.46 2.05l-.73 1.05c-1.1.68-1.75.85-2.49.85l-1.14-.13c-.93-.5-1.29-.84-1.54-1.29v4.54H56.3Zm3.81-4.21l.93-.12c.76-.49 1.05-.81 1.26-1.24l.33-.93c0-1.15-.11-1.65-.33-2.08l-.5-.76c-.76-.49-1.2-.61-1.69-.61l-.94.12c-.76.49-1.06.82-1.27 1.25l-.31.93c0 1.15.11 1.65.31 2.08l.51.75c.76.49 1.2.61 1.7.61Zm4.53.91Zm4.42.18l-1.33-.16c-1.12-.65-1.56-1.11-1.88-1.7l-.48-2.09c0-.81.16-1.51.48-2.09l.78-1.06c1.13-.66 1.76-.82 2.46-.82l1.36.16c1.11.66 1.55 1.12 1.87 1.72l.49 2.08c0 .8-.16 1.5-.49 2.1l-.78 1.05c-1.12.65-1.76.81-2.48.81Zm.02-1.08l.83-.11c.74-.42 1.04-.75 1.27-1.18l.34-.96c0-1.27-.11-1.8-.34-2.22l-.52-.75c-.73-.43-1.13-.54-1.57-.54l-.82.11c-.75.43-1.05.75-1.28 1.18l-.33.95c0 1.27.11 1.8.33 2.23l.53.76c.73.42 1.13.53 1.56.53Zm4.45.9Zm1.05 0v-7.56h1.14l.09 1.44.39-.63c.53-.48.85-.67 1.22-.79l.81-.2.48 1.32h-.47l-.62.05-.84.3c-.45.38-.63.64-.76.97l-.18.72V245H74.58Zm4.5 0Zm4.02 0l-.84-.07c-.66-.28-.91-.51-1.09-.84l-.26-.8v-4.78H79.59v-1.07h1.32l.17-1.83h1.09v1.83h2.19v1.07H82.17v4.21c0 .47.1.79.29.96l.52.24h1.29V245H83.1Zm5.84 0Zm4.38.18l-1.37-.17c-1.1-.69-1.52-1.17-1.82-1.77l-.45-2.03c0-.76.15-1.44.45-2.03l.72-1.07c1.11-.68 1.76-.85 2.49-.85l1.16.13c.93.5 1.29.84 1.54 1.29V234.2H97.3V245H96.16l-.11-1.24-.36.48-.8.6c-.7.27-1.11.34-1.57.34Zm.15-1.09l.94-.12c.76-.49 1.06-.81 1.27-1.24l.31-.93c0-1.15-.1-1.65-.31-2.08l-.51-.76c-.76-.49-1.2-.61-1.7-.61l-.92.12c-.76.49-1.06.82-1.27 1.25l-.31.93c0 1.15.1 1.65.31 2.08l.51.75c.76.49 1.19.61 1.68.61Zm4.88.91Zm4.36.18l-1.34-.16c-1.09-.67-1.51-1.12-1.82-1.72l-.47-2.08c0-.8.15-1.5.45-2.08l.74-1.05c1.11-.67 1.75-.83 2.47-.83l1.37.16c1.03.67 1.42 1.1 1.69 1.64l.42 1.11c0 .74 0 .85 0 .96v.23l-6.19.15v-.98h4.96c-.03-.69-.26-1.23-.69-1.62l-.95-.58c-1.07 0-1.47.09-1.84.3l-.65.47c-.44.75-.55 1.22-.55 1.78v.41l.11 1.14c.45.85.75 1.16 1.11 1.37l.76.31c.95 0 1.39-.11 1.73-.34l.6-.56 1.39-.4-.33.85c-.6.73-.97 1.01-1.42 1.22l-.96.3Zm8.15-.18Zm4.56.18l-1.29-.13c-1.08-.51-1.51-.86-1.83-1.31l-.48-.99c0-1.03.08-1.43.25-1.8l.41-.69c.61-.55.96-.74 1.36-.85l-.99-.51c-.61-.85-.76-1.3-.76-1.79l.13-.99c.54-.84.92-1.17 1.41-1.42l1.1-.38c1.39 0 1.98.13 2.47.38l.88.58c.53.84.67 1.31.67 1.83l-.16.94c-.61.85-1.04 1.16-1.6 1.36l.77.3c.61.55.84.87 1 1.24l.26.77c0 1.03-.16 1.56-.48 2.02l-.74.8c-1.09.51-1.7.64-2.38.64Zm0-1.11l1.37-.18c.77-.73.97-1.22.97-1.81l-.22-1.2c-.85-.7-1.41-.87-2.12-.87l-1.28.17c-.85.7-1.06 1.22-1.06 1.9l.19 1.08c.78.73 1.37.91 2.15.91Zm0-5.11l1.13-.17c.74-.66.92-1.08.92-1.61l-.18-1.03c-.73-.6-1.23-.75-1.87-.75l-1.13.15c-.73.6-.91 1.04-.91 1.63l.18.95c.73.66 1.23.83 1.86.83Zm8.55 6.04Zm1.05 3.3V237.44h1.14l.1 1.23.37-.46.8-.61c.7-.27 1.1-.34 1.55-.34l1.38.17c1.09.71 1.51 1.18 1.81 1.78l.47 2.02c0 .76-.16 1.44-.47 2.05l-.72 1.05c-1.1.68-1.75.85-2.49.85l-1.15-.13c-.93-.5-1.28-.84-1.53-1.29v4.54h-1.26Zm3.81-4.21l.92-.12c.76-.49 1.06-.81 1.27-1.24l.33-.93c0-1.15-.11-1.65-.33-2.08l-.51-.76c-.76-.49-1.19-.61-1.68-.61l-.94.12c-.76.49-1.06.82-1.27 1.25l-.31.93c0 1.15.1 1.65.31 2.08l.51.75c.76.49 1.2.61 1.7.61Zm4.53.91Zm3.51.18l-1.12-.1c-.82-.43-1.13-.72-1.33-1.07l-.3-.75c0-.93.13-1.36.39-1.71l.65-.63c.97-.37 1.54-.46 2.2-.46h2c0-.48-.08-.87-.23-1.17l-.35-.57-.89-.39c-.89 0-1.3.12-1.65.35l-.57.6-1.37.47.24-.99c.61-.73 1-1.01 1.47-1.2l.96-.3c1.21 0 1.79.13 2.25.39l.82.61c.46.9.58 1.44.58 2.06V245h-1.13l-.07-1.34-.23.42-.49.52-.66.38-.83.2Zm.19-1.07l.67-.07.81-.49c.4-.51.55-.79.65-1.1l.17-.63v-.39h-1.89c-.49 0-.89.06-1.19.18l-.51.27-.33.64.06.77.44.55.78.27Zm4.45.89Zm4.04 3.48l-1.29-.09c-1.05-.35-1.45-.61-1.74-.98l-.44-.8c0-.76.05-1.01.14-1.27l.26-.51c.47-.5.81-.73 1.24-.92l.87.5-.88.48c-.32.57-.4.83-.4 1.07l.1.61.64.6c.68.22 1.07.28 1.5.28l.8-.06.86-.42.42-.69-.13-.95c-.52-.47-1.01-.61-1.74-.65l-1.09-.09c-.8-.14-1.13-.22-1.39-.31l-.48-.21-.5-.36-.14-.48 1.45-1.44 1.1.39-1.5 1.35.19-.52.22.15.33.2.58.15c.61.07 1.01.12 1.51.15l1.24.18c.83.37 1.13.63 1.31.95l.29.7c0 .87-.12 1.28-.36 1.66l-.59.7c-.98.5-1.61.63-2.38.63Zm-.02-5.85l-1.17-.12c-.89-.48-1.22-.8-1.45-1.2l-.35-.86c0-1 .12-1.46.35-1.86l.58-.71c.88-.49 1.41-.62 2.04-.62l1.17.13c.88.49 1.21.81 1.44 1.2l.35.86c0 1-.12 1.45-.35 1.86l-.56.72c-.88.48-1.42.6-2.05.6Zm0-1.04l.97-.13c.62-.56.77-.98.77-1.51l-.15-.94c-.62-.56-1.05-.7-1.59-.7l-.96.14c-.65.56-.81.96-.81 1.5l.16.95c.64.56 1.07.69 1.61.69Zm1.23-3.08l-.37-1.07h3.09v.95l-2.72.12Zm2.83 6.49Zm4.36.18l-1.34-.16c-1.09-.67-1.51-1.12-1.82-1.72l-.47-2.08c0-.8.15-1.5.45-2.08l.74-1.05c1.11-.67 1.75-.83 2.47-.83l1.37.16c1.03.67 1.42 1.1 1.69 1.64l.42 1.11c0 .74 0 .85 0 .96v.23l-6.19.15v-.98h4.96c-.03-.69-.26-1.23-.69-1.62l-.95-.58c-1.07 0-1.47.09-1.84.3l-.65.47c-.44.75-.55 1.22-.55 1.78v.41l.11 1.14c.45.85.75 1.16 1.11 1.37l.76.31c.95 0 1.39-.11 1.73-.34l.6-.56 1.39-.4-.33.85c-.6.73-.97 1.01-1.42 1.22l-.96.3Zm4.16-.18Zm3.9.18l-1.18-.1c-.93-.42-1.3-.72-1.58-1.09l-.43-.82 1.23-.51.15.5.54.62c.55.27.89.33 1.29.33l.64-.04.63-.36.29-.55-.08-.76-.5-.44-.9-.28c-.73-.13-1.05-.21-1.37-.31l-.61-.23-.7-.54-.36-.77c0-.78.11-1.16.33-1.49l.54-.61c.83-.38 1.31-.47 1.86-.47.81 0 1.47.2 1.97.58l.79.96-1.15.74-.22-.68c-.55-.43-.92-.53-1.4-.53l-.83.09-.61.63.06.69.47.44.86.31c.89.16 1.35.28 1.76.43l.74.37c.51.6.64 1.01.64 1.55l-.12.88c-.47.7-.8.98-1.23 1.18l-.94.28Zm7.62-.18Zm1.04 3.3V237.44h1.15l.1 1.23.37-.46.8-.61c.7-.27 1.09-.34 1.55-.34l1.38.17c1.08.71 1.51 1.18 1.81 1.78l.46 2.02c0 .76-.15 1.44-.46 2.05l-.73 1.05c-1.09.68-1.74.85-2.48.85l-1.15-.13c-.93-.5-1.29-.84-1.54-1.29v4.54h-1.26Zm3.81-4.21l.93-.12c.76-.49 1.05-.81 1.26-1.24l.34-.93c0-1.15-.11-1.65-.34-2.08l-.5-.76c-.76-.49-1.2-.61-1.69-.61l-.94.12c-.75.49-1.05.82-1.26 1.25l-.32.93c0 1.15.11 1.65.32 2.08l.51.75c.75.49 1.19.61 1.69.61Zm4.53.91Zm1.05 0v-7.56h1.14l.09 1.44.39-.63c.53-.48.85-.67 1.22-.79l.81-.2.48 1.32h-.47l-.62.05-.84.3c-.45.38-.63.64-.76.97l-.18.72V245h-1.26Zm4.23 0Zm4.36.18l-1.34-.16c-1.09-.67-1.51-1.12-1.82-1.72l-.47-2.08c0-.8.15-1.5.45-2.08l.74-1.05c1.11-.67 1.75-.83 2.47-.83l1.37.16c1.03.67 1.42 1.1 1.69 1.64l.42 1.11c0 .74 0 .85 0 .96v.23l-6.19.15v-.98h4.96c-.03-.69-.26-1.23-.69-1.62l-.95-.58c-1.07 0-1.47.09-1.84.3l-.65.47c-.44.75-.55 1.22-.55 1.78v.41l.11 1.14c.45.85.75 1.16 1.11 1.37l.76.31c.95 0 1.39-.11 1.73-.34l.6-.56 1.39-.4-.33.85c-.6.73-.97 1.01-1.42 1.22l-.96.3Zm-2.08-8.43v-.99l2.05-1.22 2.06 1.22v.99l-2.06-1.26-2.05 1.26Zm5.99 8.25Zm4.02 0l-.84-.07c-.66-.28-.91-.51-1.09-.84l-.26-.8v-4.78h-1.32v-1.07h1.32l.17-1.83h1.09v1.83h2.19v1.07h-2.19v4.21c0 .47.1.79.29.96l.52.24h1.29V245h-1.17Zm1.86 0Zm1.5.08l-.46-.09-.41-.53.08-.68.54-.42.7.09.4.53-.08.69-.52.41Zm5.46-.08Zm1.12 0V234.5h6.5v1.04h-5.24v3.66h4.79v1.01h-4.79v3.75h5.24V245h-6.5Zm7.36 0Zm1.05 0v-7.56h1.14l.06 1.32.58-.84c.89-.52 1.4-.66 1.97-.66l1.1.12c.86.47 1.19.83 1.43 1.3l.36 1.08V245h-1.26v-4.38c0-.76-.17-1.33-.51-1.71l-.8-.57c-1.03 0-1.4.11-1.73.32l-.6.49c-.39.77-.48 1.25-.48 1.81V245h-1.26Zm7.41 0Zm3.23 0l-2.87-7.56h1.32l2.28 6.35 2.3-6.35h1.29L227.02 245h-1.45Zm4.3 0Zm4.43.18l-1.33-.16c-1.12-.65-1.56-1.11-1.88-1.7l-.48-2.09c0-.81.16-1.51.48-2.09l.77-1.06c1.13-.66 1.77-.82 2.47-.82l1.35.16c1.11.66 1.55 1.12 1.87 1.72l.5 2.08c0 .8-.17 1.5-.5 2.1l-.77 1.05c-1.12.65-1.76.81-2.48.81Zm.01-1.08l.83-.11c.74-.42 1.04-.75 1.27-1.18l.35-.96c0-1.27-.12-1.8-.35-2.22l-.51-.75c-.73-.43-1.13-.54-1.57-.54l-.82.11c-.75.43-1.05.75-1.28 1.18l-.33.95c0 1.27.11 1.8.33 2.23l.52.76c.73.42 1.13.53 1.56.53Zm3.86.9Zm1.87 3.3l1.85-4.14h-.44l-2.97-6.72h1.37l2.46 5.77 2.58-5.77h1.3l-4.83 10.86h-1.32Zm5.76-3.3Zm4.36.18l-1.34-.16c-1.09-.67-1.51-1.12-1.82-1.72l-.47-2.08c0-.8.15-1.5.45-2.08l.74-1.05c1.11-.67 1.75-.83 2.47-.83l1.37.16c1.03.67 1.42 1.1 1.69 1.64l.42 1.11c0 .74 0 .85 0 .96v.23l-6.19.15v-.98h4.96c-.03-.69-.26-1.23-.69-1.62l-.95-.58c-1.07 0-1.47.09-1.84.3l-.65.47c-.44.75-.55 1.22-.55 1.78v.41l.11 1.14c.45.85.75 1.16 1.11 1.37l.76.31c.95 0 1.39-.11 1.73-.34l.6-.56 1.39-.4-.33.85c-.6.73-.97 1.01-1.42 1.22l-.96.3Zm4.16-.18Zm1.05 0v-7.56h1.14l.09 1.44.39-.63c.53-.48.85-.67 1.22-.79l.81-.2.48 1.32h-.47l-.62.05-.84.3c-.45.38-.63.64-.76.97l-.18.72V245h-1.26Zm8.49 0Zm3.51.18l-1.12-.1c-.82-.43-1.13-.72-1.33-1.07l-.3-.75c0-.93.13-1.36.39-1.71l.65-.63c.97-.37 1.54-.46 2.2-.46h2c0-.48-.08-.87-.23-1.17l-.35-.57-.89-.39c-.89 0-1.3.12-1.65.35l-.57.6-1.37.47.24-.99c.61-.73 1-1.01 1.47-1.2l.96-.3c1.21 0 1.79.13 2.25.39l.82.61c.46.9.58 1.44.58 2.06V245h-1.13l-.07-1.34-.23.42-.49.52-.66.38-.83.2Zm.19-1.07l.67-.07.81-.49c.4-.51.55-.79.65-1.1l.17-.63v-.39h-1.89c-.49 0-.89.06-1.19.18l-.51.27-.33.64.06.77.44.55.78.27Zm4.46.89Zm3.79.18l-1.09-.11c-.87-.47-1.2-.82-1.44-1.3l-.35-1.08v-5.25h1.26v4.4c0 .75.17 1.31.5 1.69l.79.57c1.02 0 1.4-.1 1.74-.3l.61-.51c.39-.76.49-1.24.49-1.8v-4.05h1.26V245h-1.14l-.08-1.32-.57.84c-.9.53-1.41.66-1.98.66Zm4.81-.18Zm.3 0l2.56-3.78-2.56-3.78h1.38l2.04 3.09 2.07-3.09h1.35l-2.57 3.78 2.57 3.78h-1.35l-2.07-3.1-2.04 3.1h-1.38Zm11.12 0Zm2.28 0v-9.09l-1.8.45v-.9l2.22-.96h.86V245h-1.28Zm2.39 0Zm5.15.18c-.92 0-1.72-.22-2.39-.67l-1.51-1.91c-.35-.82-.53-1.77-.53-2.85l.53-2.84c.35-.82.85-1.45 1.51-1.9s1.47-.69 2.39-.69 1.7.23 2.35.69 1.17 1.08 1.52 1.9l.52 2.84c0 1.08-.17 2.03-.52 2.85l-1.52 1.91c-.65.45-1.43.67-2.35.67Zm-.02-1.11l1.14-.17c.94-.69 1.31-1.19 1.58-1.82l.4-2.33c0-.9-.13-1.67-.4-2.31l-.64-1.15c-.94-.68-1.48-.84-2.08-.84l-1.14.16c-.95.68-1.32 1.18-1.59 1.83l-.39 2.31c0 .9.13 1.67.39 2.33l.64 1.13c.95.69 1.49.86 2.09.86ZM29 270Zm4.38.18l-1.37-.17c-1.1-.69-1.53-1.17-1.83-1.77l-.45-2.03c0-.76.16-1.44.45-2.03l.73-1.07c1.11-.68 1.76-.85 2.48-.85l1.16.13c.93.5 1.3.84 1.55 1.29V259.2h1.26V270H36.21l-.1-1.24-.37.48-.79.6c-.71.27-1.11.34-1.57.34Zm.15-1.09l.94-.12c.76-.49 1.05-.81 1.27-1.24l.31-.93c0-1.15-.1-1.65-.31-2.08l-.51-.76c-.76-.49-1.2-.61-1.7-.61l-.92.12c-.76.49-1.06.82-1.27 1.25l-.32.93c0 1.15.11 1.65.32 2.08l.51.75c.76.49 1.19.61 1.68.61Zm4.87.91Zm4.37.18l-1.34-.16c-1.09-.67-1.52-1.12-1.83-1.72l-.46-2.08c0-.8.15-1.5.45-2.08l.74-1.05c1.11-.67 1.75-.83 2.47-.83l1.36.16c1.03.67 1.43 1.1 1.7 1.64l.42 1.11c0 .74 0 .85 0 .96l-.01.23-6.19.15v-.98h4.97c-.03-.69-.26-1.23-.69-1.62l-.95-.58c-1.07 0-1.47.09-1.84.3l-.65.47c-.44.75-.55 1.22-.55 1.78v.41l.11 1.14c.45.85.74 1.16 1.1 1.37l.77.31c.95 0 1.38-.11 1.72-.34l.6-.56 1.4-.4-.33.85c-.6.73-.98 1.01-1.43 1.22l-.95.3Zm4.16-.18Zm3.9.18l-1.18-.1c-.93-.42-1.3-.72-1.58-1.09l-.44-.82 1.23-.51.16.5.53.62c.55.27.89.33 1.29.33l.64-.04.63-.36.29-.55-.07-.76-.5-.44-.9-.28c-.73-.13-1.06-.21-1.38-.31l-.6-.23-.7-.54-.36-.77c0-.78.11-1.16.33-1.49l.53-.61c.83-.38 1.32-.47 1.87-.47.81 0 1.46.2 1.96.58l.8.96-1.16.74-.21-.68c-.55-.43-.93-.53-1.41-.53l-.83.09-.61.63.07.69.47.44.86.31c.89.16 1.34.28 1.75.43l.74.37c.51.6.64 1.01.64 1.55l-.12.88c-.47.7-.8.98-1.23 1.18l-.93.28Zm3.29-.18Zm4.02 0l-.84-.07c-.66-.28-.91-.52-1.09-.84l-.26-.8v-4.78H54.63v-1.07h1.32l.17-1.83h1.09v1.83H59.4v1.07H57.21v4.21c0 .47.1.79.29.96l.52.24h1.29V270H58.14ZM60 270Zm1.17 0v-7.56h1.26V270H61.17Zm.63-9.16l-.46-.08-.41-.55.08-.69.54-.39.69.08.43.5-.09.71-.54.42ZM63.6 270Zm1.05 0v-7.56h1.14l.06 1.32.58-.84c.89-.52 1.4-.66 1.97-.66l1.1.12c.86.47 1.19.83 1.43 1.3l.36 1.08V270H70.03v-4.38c0-.76-.17-1.33-.51-1.71l-.8-.57c-1.03 0-1.4.11-1.73.32l-.6.49c-.39.77-.48 1.25-.48 1.81V270H64.65Zm7.56 0Zm3.51.18l-1.12-.1c-.82-.43-1.12-.72-1.32-1.07l-.3-.75c0-.93.13-1.36.39-1.71l.64-.63c.97-.37 1.55-.46 2.21-.46h1.99c0-.48-.07-.87-.22-1.17l-.35-.57-.89-.39c-.89 0-1.31.12-1.66.35l-.56.6-1.37.47.24-.99c.61-.73 1-1.01 1.47-1.2l.96-.3c1.21 0 1.79.13 2.25.39l.82.61c.46.9.57 1.44.57 2.06V270H78.35l-.08-1.34-.23.42-.49.52-.66.38-.83.2Zm.2-1.07l.66-.07.82-.49c.4-.51.55-.79.65-1.1l.16-.63v-.39H76.32c-.49 0-.88.06-1.18.18l-.52.27-.32.64.06.77.43.55.79.27Zm4.25.89Zm4.02 0l-.84-.07c-.66-.28-.92-.52-1.1-.84l-.25-.8v-4.78H80.68v-1.07H82l.16-1.83h1.1v1.83h2.19v1.07H83.26v4.21c0 .47.09.79.28.96l.53.24h1.29V270H84.19Zm1.85 0Zm3.51.18l-1.12-.1c-.82-.43-1.12-.72-1.32-1.07l-.3-.75c0-.93.13-1.36.39-1.71l.64-.63c.97-.37 1.55-.46 2.21-.46h1.99c0-.48-.07-.87-.22-1.17l-.35-.57-.89-.39c-.89 0-1.31.12-1.66.35l-.56.6-1.37.47.24-.99c.61-.73 1-1.01 1.47-1.2l.96-.3c1.21 0 1.79.13 2.25.39l.82.61c.46.9.57 1.44.57 2.06V270H92.18l-.08-1.34-.23.42-.49.52-.66.38-.83.2Zm.2-1.07l.66-.07.82-.49c.4-.51.55-.79.65-1.1l.16-.63v-.39H90.15c-.49 0-.88.06-1.18.18l-.52.27-.32.64.06.77.43.55.79.27Zm4.45.89Zm1.17 0v-7.56h1.26V270H95.37Zm.63-9.16l-.46-.08-.41-.55.08-.69.54-.39.7.08.42.5-.08.71-.55.42ZM97.8 270Zm1.05 0v-7.56h1.14l.09 1.44.39-.63c.53-.48.85-.67 1.22-.79l.81-.2.48 1.32h-.47l-.62.05-.84.3c-.45.38-.63.64-.76.97l-.18.72V270H98.85Zm4.23 0Zm4.36.18l-1.34-.16c-1.09-.67-1.51-1.12-1.82-1.72l-.47-2.08c0-.8.15-1.5.45-2.08l.74-1.05c1.11-.67 1.75-.83 2.47-.83l1.37.16c1.03.67 1.42 1.1 1.69 1.64l.42 1.11c0 .74 0 .85 0 .96v.23l-6.19.15v-.98h4.96c-.03-.69-.26-1.23-.69-1.62l-.95-.58c-1.07 0-1.47.09-1.84.3l-.65.47c-.44.75-.55 1.22-.55 1.78v.41l.11 1.14c.45.85.75 1.16 1.11 1.37l.76.31c.95 0 1.39-.11 1.73-.34l.6-.56 1.39-.4-.33.85c-.6.73-.97 1.01-1.42 1.22l-.96.3Zm4.16-.18Zm3.9.18l-1.18-.1c-.93-.42-1.3-.72-1.58-1.09l-.43-.82 1.23-.51.15.5.54.62c.55.27.89.33 1.29.33l.64-.04.63-.36.29-.55-.08-.76-.5-.44-.9-.28c-.73-.13-1.05-.21-1.37-.31l-.61-.23-.7-.54-.36-.77c0-.78.11-1.16.33-1.49l.54-.61c.83-.38 1.31-.47 1.86-.47.81 0 1.47.2 1.97.58l.79.96-1.15.74-.22-.68c-.55-.43-.92-.53-1.4-.53l-.83.09-.61.63.06.69.47.44.86.31c.89.16 1.35.28 1.76.43l.74.37c.51.6.64 1.01.64 1.55l-.12.88c-.47.7-.8.98-1.23 1.18l-.94.28Zm7.62-.18Zm2.37-3.02l-.06-2.33h.46l.82-.03c.77-.11 1.11-.21 1.4-.36l.54-.4c.35-.59.44-.98.44-1.46l-.09-.79c-.36-.59-.61-.82-.93-.98l-.69-.24c-.84 0-1.21.07-1.53.24l-.57.38-.44.91-1.2.4.14-1.12c.56-.91.95-1.25 1.45-1.5l1.08-.38c1.3 0 1.87.13 2.37.38l.91.6c.57.92.71 1.47.71 2.1l-.16 1.33c-.63.93-1.06 1.26-1.61 1.47l-1.18.32-.77 1.46h-1.09Zm.54 3.1l-.46-.09-.41-.53.08-.68.54-.42.7.09.4.53-.08.68-.52.42Zm0 0" clip-path="url(#g)"/></g></g></svg>