<?xml version="1.0" encoding="UTF-8" standalone="no"?><svg xmlns="http://www.w3.org/2000/svg" xmlns:xlink="http://www.w3.org/1999/xlink" contentScriptType="text/ecmascript" zoomAndPan="magnify" contentStyleType="text/css" stroke="#000000" stroke-linecap="square" version="1" width="546" stroke-miterlimit="10" fill="#000000" preserveAspectRatio="xMidYMid meet" viewBox="0 0 545.86 54.51" height="55"><defs><clipPath id="a"><path d="M0 0V54.51H545.86V0Z"/></clipPath><clipPath id="b" clip-path="url(#a)"><path d="M-378 437.02H1107v-1549H-378Z"/></clipPath></defs><g><g fill="#e5e5e5" stroke="#e5e5e5"><path d="M0 11.02Zm4.9.18l-1.96-.44c-.58-.28-1.05-.72-1.39-1.32-.35-.59-.53-1.36-.53-2.29V.52H2.28V7.16c0 .69.11 1.24.33 1.67l.54.74c.8.41 1.27.5 1.78.5l.99-.09c.78-.41 1.09-.72 1.31-1.15l.33-.98V.52H8.82V7.15c0 .93-.18 1.7-.52 2.29l-.82 1.04c-1.18.58-1.84.72-2.58.72Zm4.93-.18Zm1.05 0V3.46h1.14l.06 1.32.58-.84c.89-.53 1.4-.66 1.97-.66l1.1.12c.86.47 1.19.83 1.43 1.3l.36 1.08v5.24H16.26V6.64c0-.76-.17-1.33-.51-1.71l-.8-.57c-1.03 0-1.4.11-1.73.31l-.6.5c-.39.77-.48 1.24-.48 1.81v4.04H10.88Zm11.55 0Zm3.51.18l-1.12-.1c-.82-.44-1.13-.72-1.33-1.07l-.3-.75c0-.93.13-1.36.39-1.71l.65-.63c.97-.37 1.54-.46 2.2-.46h2c0-.48-.08-.86-.23-1.17l-.35-.56-.89-.4c-.89 0-1.3.12-1.65.35l-.57.6-1.37.47.24-.99c.61-.73 1-1.01 1.47-1.2l.96-.3c1.21 0 1.79.13 2.25.39l.82.61c.46.91.58 1.44.58 2.06v4.68H28.56l-.07-1.33-.23.41-.49.53-.66.37-.83.2Zm.19-1.07l.67-.07.81-.49c.4-.51.55-.79.65-1.1l.17-.63V7.45H26.54c-.49 0-.89.06-1.19.18l-.51.27-.33.64.06.77.44.55.78.27Zm4.46.89Zm4.38.18l-1.37-.17c-1.1-.69-1.53-1.16-1.83-1.77l-.45-2.03c0-.76.15-1.44.45-2.03l.73-1.07c1.11-.68 1.75-.85 2.48-.85l1.16.13c.93.5 1.29.84 1.54 1.29V.22h1.26v10.8H37.8l-.1-1.24-.37.48-.8.61c-.7.26-1.1.33-1.56.33Zm.15-1.1l.94-.12c.76-.48 1.05-.81 1.26-1.23l.32-.93c0-1.15-.11-1.65-.32-2.08l-.5-.76c-.76-.48-1.2-.6-1.7-.6l-.93.12c-.76.48-1.05.81-1.26 1.24l-.32.93c0 1.15.11 1.65.32 2.08l.5.75c.76.48 1.2.6 1.69.6Zm4.87.92Zm1.05 0V3.46h1.14l.08 1.08.56-.69c.81-.45 1.25-.57 1.73-.57l.74.06.91.36c.48.43.68.71.83 1.03l.61-.81c.91-.51 1.4-.64 1.92-.64l1.09.12c.87.47 1.2.83 1.43 1.3l.36 1.08v5.24H51.2V6.64c0-.76-.16-1.33-.47-1.71l-.74-.57c-.95 0-1.3.11-1.61.31l-.56.5c-.36.78-.45 1.26-.45 1.83v4.02H46.11V6.64c0-.76-.15-1.33-.46-1.71l-.75-.57c-.95 0-1.3.11-1.61.31l-.54.5c-.36.78-.45 1.26-.45 1.83v4.02H41.04Zm12.31 0Zm1.17 0V3.46h1.26v7.56H54.52Zm.63-9.17l-.46-.07-.41-.55.08-.69.54-.39.69.07.43.51-.09.71-.54.41Zm1.8 9.17Zm1.05 0V3.46h1.14l.06 1.32.58-.84c.89-.53 1.4-.66 1.97-.66l1.1.12c.86.47 1.2.83 1.44 1.3l.36 1.08v5.24H63.39V6.64c0-.76-.17-1.33-.51-1.71l-.8-.57c-1.03 0-1.41.11-1.74.31l-.59.5c-.39.77-.49 1.24-.49 1.81v4.04H58Zm7.57 0Zm1.17 0V3.46H68v7.56H66.74Zm.63-9.17l-.46-.07-.41-.55.08-.69.54-.39.69.07.43.51-.09.71-.54.41Zm1.8 9.17Zm3.9.18l-1.18-.1c-.93-.43-1.3-.72-1.58-1.09l-.44-.82 1.23-.51.16.5.53.62c.55.27.89.33 1.29.33l.64-.04.63-.36.29-.56-.07-.75-.5-.44-.9-.28c-.73-.13-1.06-.21-1.38-.31l-.6-.23-.7-.53-.36-.78c0-.78.11-1.16.33-1.49l.53-.61c.83-.37 1.32-.47 1.87-.47.81 0 1.46.19 1.96.59l.8.95-1.16.74-.21-.68c-.55-.43-.93-.53-1.41-.53l-.83.09-.61.63.07.69.47.44.86.31c.89.16 1.34.28 1.75.43l.74.37c.51.6.64 1.01.64 1.55l-.12.88c-.47.7-.8.98-1.23 1.17l-.93.29Zm3.29-.18Zm4.02 0l-.84-.07c-.66-.28-.91-.51-1.09-.85l-.26-.79V4.53H76.87V3.46h1.32l.17-1.83h1.09V3.46h2.19V4.53H79.45V8.74c0 .47.1.79.29.96l.52.24h1.29v1.08H80.38Zm1.86 0Zm1.05 0V3.46h1.14l.09 1.44.38-.63c.53-.48.85-.67 1.22-.79l.81-.2.48 1.32h-.46l-.63.05-.84.3c-.45.38-.62.64-.75.97l-.18.72v4.38H83.29Zm4.5 0Zm3.51.18l-1.12-.1c-.82-.44-1.13-.72-1.33-1.07l-.3-.75c0-.93.13-1.36.39-1.71l.65-.63c.97-.37 1.54-.46 2.2-.46h2c0-.48-.08-.86-.23-1.17l-.35-.56-.89-.4c-.89 0-1.3.12-1.65.35l-.57.6-1.37.47.24-.99c.61-.73 1-1.01 1.47-1.2l.96-.3c1.21 0 1.79.13 2.25.39l.82.61c.46.91.58 1.44.58 2.06v4.68H93.92l-.07-1.33-.23.41-.49.53-.66.37-.83.2Zm.19-1.07l.67-.07.81-.49c.4-.51.55-.79.65-1.1l.17-.63V7.45H91.9c-.49 0-.89.06-1.19.18l-.51.27-.33.64.06.77.44.55.78.27Zm4.25.89Zm4.02 0l-.84-.07c-.66-.28-.91-.51-1.09-.85l-.26-.79V4.53H96.25V3.46h1.32l.17-1.83h1.09V3.46h2.19V4.53H98.83V8.74c0 .47.1.79.29.96l.52.24h1.29v1.08H99.76Zm1.65 0Zm4.37.18l-1.34-.16c-1.09-.66-1.52-1.13-1.83-1.72l-.46-2.08c0-.8.15-1.49.45-2.08l.74-1.06c1.11-.66 1.75-.82 2.47-.82l1.36.16c1.03.66 1.43 1.1 1.7 1.64l.42 1.11c0 .75 0 .85 0 .96l-.01.23-6.19.15V6.55h4.97c-.03-.69-.26-1.23-.69-1.62l-.95-.58c-1.07 0-1.47.09-1.84.3l-.65.47c-.44.75-.55 1.22-.55 1.78v.41c0 .63.11 1.14.33 1.57l.52.73c.73.42 1.13.52 1.55.52l.96-.11c.69-.47.94-.79 1.09-1.19h1.25l-.33.86c-.6.72-.98 1-1.43 1.21l-.95.3Zm4.16-.18Zm3.79.18l-1.09-.11c-.87-.46-1.2-.82-1.44-1.3l-.35-1.08V3.46h1.26V7.85c0 .75.17 1.32.5 1.7l.79.57c1.02 0 1.4-.1 1.74-.3l.61-.51c.39-.77.49-1.24.49-1.8V3.46h1.26v7.56h-1.14l-.08-1.32-.57.84c-.9.53-1.41.66-1.98.66Zm4.81-.18Zm1.05 0V3.46h1.14l.09 1.44.38-.63c.53-.48.85-.67 1.22-.79l.81-.2.48 1.32h-.46l-.63.05-.84.3c-.45.38-.62.64-.75.97l-.18.72v4.38h-1.26Zm8.48 0Zm1.13 0V.52h1.26v9.49h4.89v1.01H129.2Zm6.78 0Zm1.17 0V3.46h1.26v7.56h-1.26Zm.63-9.17l-.46-.07-.41-.55.08-.69.54-.39.7.07.42.51-.08.71-.55.41Zm1.8 9.17Zm1.05 0V3.46h1.14l.06 1.32.58-.84c.89-.53 1.4-.66 1.97-.66l1.1.12c.86.47 1.2.83 1.44 1.3l.36 1.08v5.24h-1.26V6.64c0-.76-.17-1.33-.51-1.71l-.8-.57c-1.03 0-1.41.11-1.74.31l-.59.5c-.39.77-.49 1.24-.49 1.81v4.04h-1.26Zm7.57 0Zm4.36.18l-1.34-.16c-1.09-.66-1.51-1.13-1.82-1.72l-.47-2.08c0-.8.15-1.49.45-2.08l.74-1.06c1.11-.66 1.75-.82 2.47-.82l1.37.16c1.03.66 1.42 1.1 1.69 1.64l.42 1.11c0 .75 0 .85 0 .96v.23l-6.19.15V6.55h4.96c-.03-.69-.26-1.23-.69-1.62l-.95-.58c-1.07 0-1.47.09-1.84.3l-.65.47c-.44.75-.55 1.22-.55 1.78v.41c0 .63.11 1.14.33 1.57l.53.73c.73.42 1.12.52 1.54.52l.97-.11c.69-.47.94-.79 1.09-1.19h1.24l-.33.86c-.6.72-.97 1-1.42 1.21l-.96.3Zm4.16-.18Zm3.51.18l-1.12-.1c-.82-.44-1.12-.72-1.32-1.07l-.3-.75c0-.93.13-1.36.39-1.71l.64-.63c.97-.37 1.55-.46 2.21-.46h1.99c0-.48-.07-.86-.22-1.17l-.35-.56-.89-.4c-.89 0-1.31.12-1.66.35l-.56.6-1.37.47.24-.99c.61-.73 1-1.01 1.47-1.2l.96-.3c1.21 0 1.79.13 2.25.39l.82.61c.46.91.57 1.44.57 2.06v4.68h-1.12l-.08-1.33-.23.41-.49.53-.66.37-.83.2Zm.2-1.07l.66-.07.82-.49c.4-.51.55-.79.65-1.1l.16-.63V7.45h-1.89c-.49 0-.88.06-1.18.18l-.52.27-.32.64.06.77.43.55.79.27Zm4.45.89Zm1.05 0V3.46h1.14l.09 1.44.39-.63c.53-.48.85-.67 1.22-.79l.81-.2.48 1.32h-.47l-.62.05-.84.3c-.45.38-.63.64-.76.97l-.18.72v4.38h-1.26Zm8.49 0Zm1.05 3.3V3.46h1.14l.1 1.23.37-.46.8-.61c.7-.27 1.1-.34 1.55-.34l1.38.17c1.09.71 1.51 1.18 1.81 1.78l.47 2.02c0 .76-.16 1.44-.47 2.04l-.72 1.06c-1.1.68-1.75.85-2.49.85l-1.15-.13c-.93-.5-1.28-.84-1.53-1.29v4.54h-1.26Zm3.81-4.22l.92-.12c.76-.48 1.06-.81 1.27-1.23l.33-.93c0-1.15-.11-1.65-.33-2.08l-.51-.76c-.76-.48-1.19-.6-1.68-.6l-.94.12c-.76.48-1.06.81-1.27 1.24l-.31.93c0 1.15.1 1.65.31 2.08l.51.75c.76.48 1.2.6 1.7.6Zm4.53.92Zm4.36.18l-1.34-.16c-1.09-.66-1.51-1.13-1.82-1.72l-.47-2.08c0-.8.15-1.49.45-2.08l.74-1.06c1.11-.66 1.75-.82 2.47-.82l1.37.16c1.03.66 1.42 1.1 1.69 1.64l.42 1.11c0 .75 0 .85 0 .96v.23l-6.19.15V6.55h4.96c-.03-.69-.26-1.23-.69-1.62l-.95-.58c-1.07 0-1.47.09-1.84.3l-.65.47c-.44.75-.55 1.22-.55 1.78v.41c0 .63.11 1.14.33 1.57l.53.73c.73.42 1.12.52 1.54.52l.97-.11c.69-.47.94-.79 1.09-1.19h1.24l-.33.86c-.6.72-.97 1-1.42 1.21l-.96.3Zm4.16-.18Zm3.8.18l-1.09-.11c-.87-.46-1.21-.82-1.45-1.3l-.34-1.08V3.46h1.26V7.85c0 .75.16 1.32.49 1.7l.8.57c1.02 0 1.4-.1 1.74-.3l.6-.51c.39-.77.49-1.24.49-1.8V3.46h1.26v7.56h-1.14l-.07-1.32-.57.84c-.9.53-1.41.66-1.98.66Zm4.8-.18Zm4.02 0l-.84-.07c-.66-.28-.91-.51-1.09-.85l-.26-.79V4.53h-1.32V3.46h1.32l.17-1.83h1.09V3.46h2.19V4.53h-2.19V8.74c0 .47.1.79.29.96l.52.24h1.29v1.08h-1.17Zm5.84 0Zm4.46.18l-1.35-.16c-1.13-.66-1.57-1.13-1.89-1.72l-.48-2.07c0-.8.16-1.49.48-2.08l.76-1.05c1.13-.67 1.77-.84 2.48-.84.9 0 1.65.23 2.25.7s.98 1.08 1.14 1.87h-1.29c-.1-.47-.35-.84-.74-1.1l-.85-.39c-.96 0-1.36.11-1.73.33l-.66.53c-.44.86-.55 1.39-.55 2.02l.06.89c.26.73.44 1.03.66 1.27l.47.42.9.31c.68 0 1.01-.05 1.3-.16l.53-.3.54-.73 1.36-.31-.55 1.38c-1.21.96-1.95 1.19-2.84 1.19Zm4.13-.18Zm4.42.18l-1.33-.16c-1.12-.65-1.56-1.11-1.88-1.7l-.48-2.09c0-.81.16-1.5.48-2.09l.77-1.06c1.13-.66 1.77-.82 2.47-.82l1.35.16c1.11.66 1.55 1.12 1.87 1.72l.5 2.08c0 .8-.16 1.5-.5 2.1l-.77 1.05c-1.12.65-1.76.81-2.48.81Zm.02-1.08l.83-.11c.74-.42 1.03-.75 1.26-1.18l.35-.96c0-1.27-.11-1.8-.35-2.22l-.51-.75c-.73-.43-1.13-.54-1.57-.54l-.82.11c-.75.43-1.05.75-1.28 1.18l-.33.95c0 1.27.11 1.8.33 2.23l.53.76c.72.42 1.13.53 1.56.53Zm4.45.9Zm1.05 0V3.46h1.14l.06 1.32.58-.84c.89-.53 1.4-.66 1.97-.66l1.1.12c.86.47 1.19.83 1.43 1.3l.36 1.08v5.24H234.7V6.64c0-.76-.17-1.33-.51-1.71l-.8-.57c-1.03 0-1.4.11-1.73.31l-.6.5c-.39.77-.48 1.24-.48 1.81v4.04h-1.26Zm7.56 0Zm1.05 0V3.46h1.14l.06 1.32.58-.84c.89-.53 1.4-.66 1.97-.66l1.1.12c.86.47 1.19.83 1.43 1.3l.36 1.08v5.24h-1.26V6.64c0-.76-.17-1.33-.51-1.71l-.8-.57c-1.03 0-1.4.11-1.73.31l-.6.5c-.39.77-.48 1.24-.48 1.81v4.04h-1.26Zm7.56 0Zm4.37.18l-1.34-.16c-1.09-.66-1.52-1.13-1.83-1.72l-.46-2.08c0-.8.15-1.49.45-2.08l.74-1.06c1.11-.66 1.75-.82 2.47-.82l1.36.16c1.03.66 1.43 1.1 1.7 1.64l.42 1.11c0 .75 0 .85 0 .96l-.01.23-6.19.15V6.55h4.97c-.03-.69-.26-1.23-.69-1.62l-.95-.58c-1.07 0-1.47.09-1.84.3l-.65.47c-.44.75-.55 1.22-.55 1.78v.41c0 .63.11 1.14.33 1.57l.52.73c.73.42 1.13.52 1.55.52l.96-.11c.69-.47.94-.79 1.09-1.19h1.25l-.33.86c-.6.72-.98 1-1.43 1.21l-.95.3Zm4.16-.18Zm4.45.18l-1.35-.16c-1.13-.66-1.57-1.13-1.89-1.72l-.48-2.07c0-.8.16-1.49.48-2.08l.76-1.05c1.13-.67 1.77-.84 2.48-.84.9 0 1.65.23 2.25.7s.98 1.08 1.14 1.87h-1.29c-.1-.47-.34-.84-.73-1.1l-.85-.39c-.96 0-1.36.11-1.73.33l-.67.53c-.44.86-.55 1.39-.55 2.02l.07.89c.26.73.43 1.03.65 1.27l.48.42.9.31c.68 0 1-.05 1.29-.16l.54-.3.53-.73 1.36-.31-.54 1.38c-1.21.96-1.96 1.19-2.85 1.19Zm3.93-.18Zm4.02 0l-.84-.07c-.66-.28-.92-.51-1.1-.85l-.25-.79V4.53h-1.32V3.46h1.32l.16-1.83h1.1V3.46h2.19V4.53h-2.19V8.74c0 .47.09.79.28.96l.53.24h1.29v1.08h-1.17Zm1.65 0Zm4.36.18l-1.34-.16c-1.09-.66-1.51-1.13-1.82-1.72l-.47-2.08c0-.8.15-1.49.45-2.08l.74-1.06c1.11-.66 1.75-.82 2.47-.82l1.37.16c1.03.66 1.42 1.1 1.69 1.64l.42 1.11c0 .75 0 .85 0 .96v.23l-6.19.15V6.55h4.96c-.03-.69-.26-1.23-.69-1.62l-.95-.58c-1.07 0-1.47.09-1.84.3l-.65.47c-.44.75-.55 1.22-.55 1.78v.41c0 .63.11 1.14.33 1.57l.53.73c.73.42 1.12.52 1.54.52l.97-.11c.69-.47.94-.79 1.09-1.19h1.24l-.33.86c-.6.72-.97 1-1.42 1.21l-.96.3Zm4.16-.18Zm1.05 0V3.46h1.14l.09 1.44.39-.63c.53-.48.85-.67 1.22-.79l.81-.2.48 1.32h-.47l-.62.05-.84.3c-.45.38-.63.64-.76.97l-.18.72v4.38h-1.26Zm8.49 0Zm3.9.18l-1.18-.1c-.93-.43-1.3-.72-1.58-1.09l-.44-.82 1.23-.51.16.5.53.62c.55.27.89.33 1.29.33l.64-.04.63-.36.29-.56-.07-.75-.5-.44-.9-.28c-.73-.13-1.06-.21-1.38-.31l-.6-.23-.7-.53-.36-.78c0-.78.11-1.16.33-1.49l.53-.61c.83-.37 1.32-.47 1.87-.47.81 0 1.46.19 1.96.59l.8.95-1.16.74-.21-.68c-.55-.43-.93-.53-1.41-.53l-.83.09-.61.63.07.69.47.44.86.31c.89.16 1.34.28 1.75.43l.74.37c.51.6.64 1.01.64 1.55l-.12.88c-.47.7-.8.98-1.23 1.17l-.93.29Zm3.63-.18Zm4.42.18l-1.33-.16c-1.12-.65-1.56-1.11-1.88-1.7l-.48-2.09c0-.81.16-1.5.48-2.09l.78-1.06c1.13-.66 1.76-.82 2.46-.82l1.36.16c1.11.66 1.55 1.12 1.87 1.72l.49 2.08c0 .8-.16 1.5-.49 2.1l-.78 1.05c-1.12.65-1.76.81-2.48.81Zm.02-1.08l.83-.11c.74-.42 1.04-.75 1.27-1.18l.34-.96c0-1.27-.11-1.8-.34-2.22l-.52-.75c-.73-.43-1.13-.54-1.57-.54l-.82.11c-.75.43-1.05.75-1.28 1.18l-.33.95c0 1.27.11 1.8.33 2.23l.53.76c.73.42 1.13.53 1.56.53Zm4.45.9Zm1.05 0V3.46h1.14l.06 1.32.58-.84c.89-.53 1.4-.66 1.97-.66l1.1.12c.86.47 1.19.83 1.43 1.3l.36 1.08v5.24h-1.26V6.64c0-.76-.17-1.33-.51-1.71l-.8-.57c-1.03 0-1.4.11-1.73.31l-.6.5c-.39.77-.48 1.24-.48 1.81v4.04H303.6Zm11.55 0Zm4.45.18l-1.35-.16c-1.13-.66-1.57-1.13-1.89-1.72l-.48-2.07c0-.8.16-1.49.48-2.08l.76-1.05c1.13-.67 1.77-.84 2.48-.84.9 0 1.65.23 2.25.7s.98 1.08 1.14 1.87H321.7c-.1-.47-.34-.84-.73-1.1l-.85-.39c-.96 0-1.36.11-1.73.33l-.67.53c-.44.86-.55 1.39-.55 2.02l.07.89c.26.73.43 1.03.65 1.27l.48.42.9.31c.68 0 1-.05 1.29-.16l.54-.3.53-.73 1.36-.31-.54 1.38c-1.21.96-1.96 1.19-2.85 1.19Zm4.13-.18Zm4.43.18l-1.33-.16c-1.12-.65-1.56-1.11-1.88-1.7l-.48-2.09c0-.81.16-1.5.48-2.09l.77-1.06c1.13-.66 1.77-.82 2.47-.82l1.35.16c1.11.66 1.55 1.12 1.87 1.72l.5 2.08c0 .8-.17 1.5-.5 2.1l-.77 1.05c-1.12.65-1.76.81-2.48.81Zm.01-1.08l.83-.11c.74-.42 1.04-.75 1.27-1.18l.35-.96c0-1.27-.12-1.8-.35-2.22l-.51-.75c-.73-.43-1.13-.54-1.57-.54l-.82.11c-.75.43-1.05.75-1.28 1.18l-.33.95c0 1.27.11 1.8.33 2.23l.52.76c.73.42 1.13.53 1.56.53Zm4.45.9Zm1.05 0V3.46h1.14l.08 1.08.56-.69c.81-.45 1.25-.57 1.73-.57l.74.06.91.36c.48.43.68.71.83 1.03l.61-.81c.91-.51 1.4-.64 1.92-.64l1.09.12c.87.47 1.2.83 1.43 1.3l.36 1.08v5.24h-1.24V6.64c0-.76-.16-1.33-.47-1.71l-.74-.57c-.95 0-1.3.11-1.61.31l-.56.5c-.36.78-.45 1.26-.45 1.83v4.02h-1.26V6.64c0-.76-.15-1.33-.46-1.71l-.75-.57c-.95 0-1.3.11-1.61.31l-.54.5c-.36.78-.45 1.26-.45 1.83v4.02h-1.26Zm12.31 0Zm1.05 3.3V3.46h1.14l.11 1.23.36-.46.8-.61c.7-.27 1.1-.34 1.55-.34l1.38.17c1.09.71 1.52 1.18 1.82 1.78l.46 2.02c0 .76-.15 1.44-.46 2.04l-.73 1.06c-1.1.68-1.74.85-2.48.85l-1.15-.13c-.93-.5-1.29-.84-1.54-1.29v4.54h-1.26Zm3.81-4.22l.93-.12c.76-.48 1.05-.81 1.26-1.23l.33-.93c0-1.15-.11-1.65-.33-2.08l-.5-.76c-.76-.48-1.2-.6-1.69-.6l-.94.12c-.76.48-1.05.81-1.26 1.24l-.32.93c0 1.15.11 1.65.32 2.08l.5.75c.76.48 1.2.6 1.7.6Zm4.24.92Zm4.02 0l-.84-.07c-.66-.28-.92-.51-1.1-.85l-.25-.79V4.53h-1.32V3.46h1.32l.16-1.83h1.1V3.46h2.19V4.53h-2.19V8.74c0 .47.09.79.28.96l.53.24h1.29v1.08H359.1Zm1.65 0Zm4.36.18l-1.34-.16c-1.09-.66-1.51-1.13-1.82-1.72l-.47-2.08c0-.8.15-1.49.45-2.08l.74-1.06c1.11-.66 1.75-.82 2.47-.82l1.37.16c1.03.66 1.42 1.1 1.69 1.64l.42 1.11c0 .75 0 .85 0 .96v.23l-6.19.15V6.55h4.96c-.03-.69-.26-1.23-.69-1.62l-.95-.58c-1.07 0-1.47.09-1.84.3l-.65.47c-.44.75-.55 1.22-.55 1.78v.41c0 .63.11 1.14.33 1.57l.53.73c.73.42 1.12.52 1.54.52l.97-.11c.69-.47.94-.79 1.09-1.19h1.24l-.33.86c-.6.72-.97 1-1.42 1.21l-.96.3Zm8.15-.18Zm5.64.18c-.98 0-1.84-.22-2.58-.67-.74-.47-1.32-1.1-1.73-1.91s-.61-1.75-.61-2.83.2-2.02.61-2.84 1.01-1.46 1.77-1.92 1.68-.69 2.72-.69c1.18 0 2.16.29 2.95.85s1.3 1.35 1.52 2.36h-1.46c-.14-.63-.47-1.13-.99-1.5s-1.19-.55-2.02-.55l-2.03.52c-.57.34-1.01.83-1.32 1.47l-.46 2.3c0 .88.15 1.65.46 2.31l.74 1.13c1.11.68 1.75.84 2.47.84 1.12 0 1.97-.32 2.54-.98s.89-1.56.97-2.69h-3.03V5.41h4.32v5.61h-1.15l-.11-1.73-.54.77c-.65.57-1.03.78-1.47.93l-.96.21Zm5.72-.18Zm4.43.18l-1.33-.16c-1.12-.65-1.56-1.11-1.88-1.7l-.48-2.09c0-.81.16-1.5.48-2.09l.77-1.06c1.13-.66 1.77-.82 2.47-.82l1.35.16c1.11.66 1.55 1.12 1.87 1.72l.5 2.08c0 .8-.17 1.5-.5 2.1l-.77 1.05c-1.12.65-1.76.81-2.48.81Zm.01-1.08l.83-.11c.74-.42 1.04-.75 1.27-1.18l.35-.96c0-1.27-.12-1.8-.35-2.22l-.51-.75c-.73-.43-1.13-.54-1.57-.54l-.82.11c-.75.43-1.05.75-1.28 1.18l-.33.95c0 1.27.11 1.8.33 2.23l.52.76c.73.42 1.13.53 1.56.53Zm4.46.9Zm4.42.18l-1.33-.16c-1.12-.65-1.56-1.11-1.88-1.7l-.48-2.09c0-.81.16-1.5.48-2.09l.78-1.06c1.13-.66 1.76-.82 2.46-.82l1.36.16c1.11.66 1.55 1.12 1.87 1.72l.49 2.08c0 .8-.16 1.5-.49 2.1l-.78 1.05c-1.12.65-1.76.81-2.48.81Zm.02-1.08l.83-.11c.74-.42 1.04-.75 1.27-1.18l.34-.96c0-1.27-.11-1.8-.34-2.22l-.52-.75c-.73-.43-1.13-.54-1.57-.54l-.82.11c-.75.43-1.05.75-1.28 1.18l-.33.95c0 1.27.11 1.8.33 2.23l.53.76c.73.42 1.13.53 1.56.53Zm4.12.9Zm4.04 3.48l-1.29-.09c-1.05-.35-1.45-.62-1.74-.97l-.44-.81c0-.76.05-1 .14-1.26l.26-.52c.47-.5.81-.72 1.24-.93l.87.52-.88.47c-.32.57-.4.83-.4 1.07l.1.61.65.6c.67.22 1.06.28 1.49.28l.8-.06.86-.41.42-.71-.13-.94c-.52-.47-1.01-.6-1.74-.65l-1.09-.09c-.8-.14-1.13-.22-1.39-.31l-.47-.21-.51-.36-.14-.48 1.45-1.44 1.1.39-1.5 1.35.19-.52.22.15.33.2.58.15c.61.07 1.01.12 1.51.16l1.24.16c.83.38 1.13.64 1.31.96l.29.7c0 .87-.12 1.28-.36 1.65l-.59.72c-.98.5-1.61.62-2.38.62Zm-.02-5.85l-1.17-.12c-.89-.48-1.22-.8-1.45-1.2l-.35-.86c0-1 .12-1.46.35-1.85l.58-.72c.88-.49 1.41-.62 2.04-.62l1.17.13c.88.49 1.21.81 1.44 1.21l.35.85c0 1-.12 1.45-.35 1.86l-.56.72c-.88.48-1.42.6-2.05.6Zm0-1.03l.97-.14c.62-.57.77-.98.77-1.51l-.15-.94c-.62-.56-1.05-.7-1.59-.7l-.96.14c-.65.56-.81.97-.81 1.5l.16.94c.64.57 1.07.71 1.61.71Zm1.23-3.09l-.37-1.07h3.09v.95l-2.72.12Zm3.12 6.49Zm1.05 0V.22h1.26v10.8H411.5Zm2.29 0Zm4.36.18l-1.34-.16c-1.09-.66-1.51-1.13-1.82-1.72l-.47-2.08c0-.8.15-1.49.45-2.08l.74-1.06c1.11-.66 1.75-.82 2.47-.82l1.37.16c1.03.66 1.42 1.1 1.69 1.64l.42 1.11c0 .75 0 .85 0 .96v.23l-6.19.15V6.55h4.96c-.03-.69-.26-1.23-.69-1.62l-.95-.58c-1.07 0-1.47.09-1.84.3l-.65.47c-.44.75-.55 1.22-.55 1.78v.41c0 .63.11 1.14.33 1.57l.53.73c.73.42 1.12.52 1.54.52l.97-.11c.69-.47.94-.79 1.09-1.19h1.24l-.33.86c-.6.72-.97 1-1.42 1.21l-.96.3Zm8.15-.18Zm3.51.18l-1.12-.1c-.82-.44-1.13-.72-1.33-1.07l-.3-.75c0-.93.13-1.36.39-1.71l.65-.63c.97-.37 1.54-.46 2.2-.46h2c0-.48-.08-.86-.23-1.17l-.35-.56-.89-.4c-.89 0-1.3.12-1.65.35l-.57.6-1.37.47.24-.99c.61-.73 1-1.01 1.47-1.2l.96-.3c1.21 0 1.79.13 2.25.39l.82.61c.46.91.58 1.44.58 2.06v4.68h-1.13l-.07-1.33-.23.41-.49.53-.66.37-.83.2Zm.19-1.07l.67-.07.81-.49c.4-.51.55-.79.65-1.1l.17-.63V7.45h-1.89c-.49 0-.89.06-1.19.18l-.51.27-.33.64.06.77.44.55.78.27Zm1.79-7.32l-3.06-1.74.18-1.07 3.01 1.91-.13.9Zm6.65 8.21Zm1.13 0V.52h1.26v9.49h4.89v1.01h-6.15Zm6.78 0Zm1.17 0V3.46h1.26v7.56h-1.26Zm.63-9.17l-.46-.07-.41-.55.08-.69.54-.39.7.07.42.51-.08.71-.55.41Zm1.81 9.17Zm1.05 0V3.46h1.14l.06 1.32.58-.84c.89-.53 1.4-.66 1.97-.66l1.1.12c.86.47 1.19.83 1.43 1.3l.36 1.08v5.24h-1.26V6.64c0-.76-.17-1.33-.51-1.71l-.8-.57c-1.03 0-1.4.11-1.73.31l-.6.5c-.39.77-.48 1.24-.48 1.81v4.04h-1.26Zm7.56 0Zm4.36.18l-1.34-.16c-1.09-.66-1.51-1.13-1.82-1.72l-.47-2.08c0-.8.15-1.49.45-2.08l.74-1.06c1.11-.66 1.75-.82 2.47-.82l1.37.16c1.03.66 1.42 1.1 1.69 1.64l.42 1.11c0 .75 0 .85 0 .96v.23l-6.19.15V6.55h4.96c-.03-.69-.26-1.23-.69-1.62l-.95-.58c-1.07 0-1.47.09-1.84.3l-.65.47c-.44.75-.55 1.22-.55 1.78v.41c0 .63.11 1.14.33 1.57l.53.73c.73.42 1.12.52 1.54.52l.97-.11c.69-.47.94-.79 1.09-1.19h1.24l-.33.86c-.6.72-.97 1-1.42 1.21l-.96.3Zm4.16-.18Zm3.51.18l-1.12-.1c-.82-.44-1.12-.72-1.32-1.07l-.3-.75c0-.93.13-1.36.39-1.71l.64-.63c.97-.37 1.55-.46 2.21-.46h1.99c0-.48-.07-.86-.22-1.17l-.35-.56-.89-.4c-.89 0-1.31.12-1.66.35l-.56.6-1.37.47.24-.99c.61-.73 1-1.01 1.47-1.2l.96-.3c1.21 0 1.79.13 2.25.39l.82.61c.46.91.57 1.44.57 2.06v4.68h-1.12l-.08-1.33-.23.41-.49.53-.66.37-.83.2Zm.2-1.07l.66-.07.82-.49c.4-.51.55-.79.65-1.1l.16-.63V7.45H471.2c-.49 0-.88.06-1.18.18l-.52.27-.32.64.06.77.43.55.79.27Zm4.45.89Zm1.05 0V3.46h1.14l.09 1.44.39-.63c.53-.48.85-.67 1.22-.79l.81-.2.48 1.32h-.47l-.62.05-.84.3c-.45.38-.63.64-.76.97l-.18.72v4.38H476.3Zm8.49 0Zm4.38.18l-1.37-.17c-1.1-.69-1.52-1.16-1.82-1.77l-.45-2.03c0-.76.15-1.44.45-2.03l.72-1.07c1.11-.68 1.76-.85 2.49-.85l1.16.13c.93.5 1.29.84 1.54 1.29V.22h1.26v10.8h-1.14l-.11-1.24-.36.48-.8.61c-.7.26-1.11.33-1.57.33Zm.15-1.1l.94-.12c.76-.48 1.06-.81 1.27-1.23l.31-.93c0-1.15-.11-1.65-.31-2.08l-.51-.76c-.76-.48-1.2-.6-1.7-.6l-.92.12c-.76.48-1.06.81-1.27 1.24l-.31.93c0 1.15.1 1.65.31 2.08l.51.75c.76.48 1.19.6 1.68.6Zm4.87.92Zm3.51.18l-1.12-.1c-.82-.44-1.12-.72-1.32-1.07l-.3-.75c0-.93.13-1.36.39-1.71l.64-.63c.97-.37 1.55-.46 2.21-.46h1.99c0-.48-.07-.86-.22-1.17l-.35-.56-.89-.4c-.89 0-1.31.12-1.66.35l-.56.6-1.37.47.24-.99c.61-.73 1-1.01 1.47-1.2l.96-.3c1.21 0 1.79.13 2.25.39l.82.61c.46.91.57 1.44.57 2.06v4.68h-1.12l-.08-1.33-.23.41-.49.53-.66.37-.83.2Zm.2-1.07l.66-.07.82-.49c.4-.51.55-.79.65-1.1l.16-.63V7.45H498.3c-.49 0-.88.06-1.18.18l-.52.27-.32.64.06.77.43.55.79.27Zm4.45.89Zm1.05 0V3.46h1.14l.06 1.32.58-.84c.89-.53 1.4-.66 1.97-.66l1.1.12c.86.47 1.2.83 1.44 1.3l.36 1.08v5.24h-1.26V6.64c0-.76-.17-1.33-.51-1.71l-.8-.57c-1.03 0-1.41.11-1.74.31l-.59.5c-.39.77-.49 1.24-.49 1.81v4.04H503.4Zm7.57 0Zm3.9.18l-1.18-.1c-.93-.43-1.3-.72-1.58-1.09l-.44-.82 1.23-.51.16.5.53.62c.55.27.89.33 1.29.33l.64-.04.63-.36.29-.56-.07-.75-.5-.44-.9-.28c-.73-.13-1.06-.21-1.38-.31l-.6-.23-.7-.53-.36-.78c0-.78.11-1.16.33-1.49l.53-.61c.83-.37 1.32-.47 1.87-.47.81 0 1.46.19 1.96.59l.8.95-1.16.74-.21-.68c-.55-.43-.93-.53-1.41-.53l-.83.09-.61.63.07.69.47.44.86.31c.89.16 1.34.28 1.75.43l.74.37c.51.6.64 1.01.64 1.55l-.12.88c-.47.7-.8.98-1.23 1.17l-.93.29Zm7.61-.18Zm1.05 0V.22h1.26v10.8h-1.26Zm2.29 0Zm4.37.18l-1.34-.16c-1.09-.66-1.52-1.13-1.83-1.72l-.46-2.08c0-.8.15-1.49.45-2.08l.74-1.06c1.11-.66 1.75-.82 2.47-.82l1.36.16c1.03.66 1.43 1.1 1.7 1.64l.42 1.11c0 .75 0 .85 0 .96l-.01.23-6.19.15V6.55h4.97c-.03-.69-.26-1.23-.69-1.62l-.95-.58c-1.07 0-1.47.09-1.84.3l-.65.47c-.44.75-.55 1.22-.55 1.78v.41c0 .63.11 1.14.33 1.57l.52.73c.73.42 1.13.52 1.55.52l.96-.11c.69-.47.94-.79 1.09-1.19h1.25l-.33.86c-.6.72-.98 1-1.43 1.21l-.95.3Zm4.16-.18Zm3.9.18l-1.18-.1c-.93-.43-1.3-.72-1.58-1.09l-.44-.82 1.23-.51.16.5.53.62c.55.27.89.33 1.29.33l.64-.04.63-.36.29-.56-.07-.75-.5-.44-.9-.28c-.73-.13-1.06-.21-1.38-.31l-.6-.23-.7-.53-.36-.78c0-.78.11-1.16.33-1.49l.53-.61c.83-.37 1.32-.47 1.87-.47.81 0 1.46.19 1.96.59l.8.95-1.16.74-.21-.68c-.55-.43-.93-.53-1.41-.53l-.83.09-.61.63.07.69.47.44.86.31c.89.16 1.34.28 1.75.43l.74.37c.51.6.64 1.01.64 1.55l-.12.88c-.47.7-.8.98-1.23 1.17l-.93.29ZM0 31.02Zm1.05 3.3V23.46H2.19l.11 1.23.36-.47.8-.6c.7-.27 1.1-.34 1.55-.34l1.38.17c1.09.71 1.51 1.18 1.81 1.78l.47 2.02c0 .76-.15 1.44-.47 2.04l-.72 1.06c-1.1.68-1.75.85-2.49.85l-1.14-.13c-.93-.5-1.29-.84-1.54-1.29v4.54H1.05ZM4.86 30.1l.93-.12c.76-.48 1.05-.81 1.26-1.23l.33-.93c0-1.15-.11-1.65-.33-2.08l-.5-.77c-.76-.47-1.2-.59-1.69-.59l-.94.12c-.76.47-1.06.81-1.27 1.24l-.31.93c0 1.15.11 1.65.31 2.08l.51.75c.76.48 1.2.6 1.7.6Zm4.53.92Zm3.51.18l-1.12-.1c-.82-.44-1.13-.72-1.33-1.07l-.3-.75c0-.93.13-1.36.39-1.71l.65-.63c.97-.37 1.54-.47 2.2-.47h2c0-.47-.08-.85-.23-1.16l-.35-.56-.89-.4c-.89 0-1.3.12-1.65.35l-.57.6-1.37.47.24-.99c.61-.73 1-1.01 1.47-1.2l.96-.3c1.21 0 1.79.13 2.25.39l.82.61c.46.91.58 1.44.58 2.06v4.68H15.52l-.07-1.33-.23.41-.49.53-.66.37-.83.2Zm.19-1.07l.67-.06.81-.5c.4-.5.55-.79.65-1.1l.17-.63v-.39H13.5c-.49 0-.89.06-1.19.18l-.51.27-.33.64.06.77.44.55.78.27Zm4.46.89Zm1.05 0V23.46h1.14l.09 1.44.38-.63c.53-.48.85-.67 1.22-.8l.81-.19.48 1.32h-.46l-.63.05-.84.3c-.45.38-.62.64-.75.97l-.18.72v4.38H18.6Zm4.5 0Zm3.51.18l-1.12-.1c-.82-.44-1.12-.72-1.32-1.07l-.3-.75c0-.93.13-1.36.39-1.71l.64-.63c.97-.37 1.55-.47 2.21-.47H29.1c0-.47-.07-.85-.22-1.16l-.35-.56-.89-.4c-.89 0-1.31.12-1.66.35l-.56.6-1.37.47.24-.99c.61-.73 1-1.01 1.47-1.2l.96-.3c1.21 0 1.79.13 2.25.39l.82.61c.46.91.57 1.44.57 2.06v4.68H29.24l-.08-1.33-.23.41-.49.53-.66.37-.83.2Zm.2-1.07l.66-.06.82-.5c.4-.5.55-.79.65-1.1l.16-.63v-.39H27.21c-.49 0-.88.06-1.18.18l-.52.27-.32.64.06.77.43.55.79.27Zm4.45.89Zm1.05 0V23.46h1.14l.07 1.08.56-.69c.81-.45 1.26-.57 1.74-.57l.74.06.91.36c.48.43.67.71.82 1.03l.62-.81c.91-.51 1.4-.64 1.92-.64l1.08.12c.87.47 1.21.82 1.44 1.3l.36 1.08v5.24H42.46V26.64c0-.76-.15-1.33-.46-1.71l-.75-.57c-.95 0-1.3.11-1.61.31l-.55.5c-.36.78-.45 1.26-.45 1.83v4.02H37.38V26.64c0-.76-.16-1.33-.47-1.71l-.75-.57c-.95 0-1.29.11-1.6.31l-.54.5c-.36.78-.45 1.26-.45 1.83v4.02H32.31Zm12.31 0Zm4.36.18l-1.34-.16c-1.09-.66-1.51-1.13-1.82-1.72l-.47-2.08c0-.8.15-1.49.45-2.08l.74-1.06c1.11-.66 1.75-.82 2.47-.82l1.37.16c1.03.66 1.42 1.1 1.69 1.64l.42 1.11c0 .75 0 .85 0 .96v.23l-6.19.15v-.98h4.96c-.03-.69-.26-1.23-.69-1.62l-.95-.58c-1.07 0-1.47.09-1.84.3l-.65.47c-.44.75-.55 1.22-.55 1.78v.42c0 .62.11 1.13.33 1.56l.53.73c.73.42 1.12.52 1.54.52l.97-.11c.69-.47.94-.79 1.09-1.19h1.24l-.33.86c-.6.72-.97 1-1.42 1.21l-.96.3Zm1.43-8.38l-3.06-1.75.18-1.07 3.01 1.91-.13.91Zm2.49 8.2Zm4.02 0l-.84-.07c-.66-.28-.92-.51-1.1-.85l-.25-.79V24.53H53.41V23.46h1.32l.16-1.83h1.1v1.83h2.19v1.07H55.99v4.21c0 .47.09.79.28.96l.53.24h1.29v1.08H56.92Zm1.85 0Zm1.05 0V23.46h1.14l.09 1.44.38-.63c.53-.48.85-.67 1.22-.8l.81-.19.48 1.32h-.46l-.63.05-.84.3c-.45.38-.62.64-.75.97l-.18.72v4.38H59.82Zm4.22 0Zm4.37.18l-1.34-.16c-1.09-.66-1.52-1.13-1.83-1.72l-.46-2.08c0-.8.15-1.49.45-2.08l.74-1.06c1.11-.66 1.75-.82 2.47-.82l1.36.16c1.03.66 1.43 1.1 1.7 1.64l.42 1.11c0 .75 0 .85 0 .96l-.01.23-6.19.15v-.98h4.97c-.03-.69-.26-1.23-.69-1.62l-.95-.58c-1.07 0-1.47.09-1.84.3l-.65.47c-.44.75-.55 1.22-.55 1.78v.42c0 .62.11 1.13.33 1.56l.52.73c.73.42 1.13.52 1.55.52l.96-.11c.69-.47.94-.79 1.09-1.19h1.25l-.33.86c-.6.72-.98 1-1.43 1.21l-.95.3Zm4.16-.18Zm3.9.18l-1.18-.1c-.93-.43-1.3-.72-1.58-1.09l-.44-.82 1.23-.51.16.5.53.62c.55.27.89.33 1.29.33l.64-.04.63-.36.29-.56-.07-.75-.5-.45-.9-.27c-.73-.13-1.06-.21-1.38-.31l-.6-.23-.7-.53-.36-.78c0-.78.11-1.16.33-1.49l.53-.61c.83-.37 1.32-.47 1.87-.47.81 0 1.46.19 1.96.59l.8.95-1.16.74-.21-.68c-.55-.43-.93-.53-1.41-.53l-.83.09-.61.63.07.69.47.44.86.31c.89.16 1.34.28 1.75.43l.74.38c.51.59.64 1 .64 1.54l-.12.88c-.47.7-.8.98-1.23 1.17l-.93.29Zm3.63-.18Zm1.5.08l-.46-.09-.41-.53.08-.68.54-.42.7.09.4.53-.08.69-.52.41Zm5.46-.08Zm4.47.18l-2.01-.42c-.57-.28-1.01-.67-1.32-1.17l-.47-1.08 1.32-.66.1.79c.38.69.65.97 1.01 1.18l.83.29c1.01 0 1.41-.07 1.74-.22l.59-.37.44-.85c0-.75-.09-1.08-.27-1.33l-.4-.47c-.6-.32-.95-.46-1.35-.58l-.8-.27c-1.26-.41-1.87-.76-2.26-1.19l-.59-.96c0-1.24.13-1.74.39-2.17l.65-.77c.99-.48 1.58-.61 2.26-.61l1.25.13c.99.5 1.38.84 1.66 1.28l.42.93-1.32.57-.07-.58-.53-.79c-.61-.37-.99-.46-1.45-.46l-.72.05-.82.47c-.33.5-.41.8-.41 1.16l.07.62.5.6c.55.28.87.41 1.24.53l.78.26c.96.32 1.41.53 1.8.78l.71.55c.45.76.57 1.25.57 1.84l-.14.97c-.53.89-.92 1.25-1.44 1.53l-1.96.42Zm4.23-.18Zm4.36.18l-1.34-.16c-1.09-.66-1.51-1.13-1.82-1.72l-.47-2.08c0-.8.15-1.49.45-2.08l.74-1.06c1.11-.66 1.75-.82 2.47-.82l1.37.16c1.03.66 1.42 1.1 1.69 1.64l.42 1.11c0 .75 0 .85 0 .96v.23l-6.19.15v-.98h4.96c-.03-.69-.26-1.23-.69-1.62l-.95-.58c-1.07 0-1.47.09-1.84.3l-.65.47c-.44.75-.55 1.22-.55 1.78v.42c0 .62.11 1.13.33 1.56l.53.73c.73.42 1.12.52 1.54.52l.97-.11c.69-.47.94-.79 1.09-1.19h1.24l-.33.86c-.6.72-.97 1-1.42 1.21l-.96.3Zm4.16-.18Zm3.8.18l-1.09-.11c-.87-.46-1.21-.82-1.45-1.3l-.34-1.08V23.46h1.26v4.39c0 .75.16 1.32.49 1.7l.8.57c1.02 0 1.4-.1 1.74-.3l.6-.5c.39-.78.49-1.25.49-1.81V23.46h1.26v7.56H110.7l-.07-1.32-.57.84c-.9.53-1.41.66-1.98.66Zm4.8-.18Zm1.05 0V20.22h1.26v10.8h-1.26Zm6.28 0Zm1.05 0V20.22h1.26v10.8h-1.26Zm2.28 0Zm.77-8.27l-.2-3.06h1.25l-.18 3.06h-.87Zm1.62 8.27Zm3.8.18l-1.09-.11c-.87-.46-1.21-.82-1.45-1.3l-.34-1.08V23.46h1.26v4.39c0 .75.16 1.32.49 1.7l.8.57c1.02 0 1.4-.1 1.74-.3l.6-.5c.39-.78.49-1.25.49-1.81V23.46h1.26v7.56h-1.14l-.07-1.32-.57.84c-.9.53-1.41.66-1.98.66Zm4.8-.18Zm4.02 0l-.84-.07c-.66-.28-.91-.51-1.09-.85l-.26-.79V24.53h-1.32V23.46h1.32l.17-1.83h1.09v1.83h2.19v1.07h-2.19v4.21c0 .47.1.79.29.96l.52.24h1.29v1.08h-1.17Zm1.86 0Zm1.17 0V23.46h1.26v7.56h-1.26Zm.63-9.17l-.46-.07-.41-.55.08-.69.54-.39.69.07.43.51-.09.71-.54.41Zm1.8 9.17Zm1.05 0V20.22h1.26v10.8h-1.26Zm2.29 0Zm1.17 0V23.46h1.26v7.56h-1.26Zm.63-9.17l-.46-.07-.41-.55.08-.69.54-.39.69.07.43.51-.09.71-.54.41Zm1.8 9.17Zm3.9.18l-1.18-.1c-.93-.43-1.3-.72-1.58-1.09l-.43-.82 1.23-.51.15.5.54.62c.55.27.89.33 1.29.33l.64-.04.63-.36.29-.56-.08-.75-.5-.45-.9-.27c-.73-.13-1.05-.21-1.37-.31l-.61-.23-.7-.53-.36-.78c0-.78.11-1.16.33-1.49l.54-.61c.83-.37 1.31-.47 1.86-.47.81 0 1.47.19 1.97.59l.79.95-1.15.74-.22-.68c-.55-.43-.92-.53-1.4-.53l-.83.09-.61.63.06.69.47.44.86.31c.89.16 1.35.28 1.76.43l.74.38c.51.59.64 1 .64 1.54l-.12.88c-.47.7-.8.98-1.23 1.17l-.94.29Zm3.63-.18Zm3.51.18l-1.12-.1c-.82-.44-1.12-.72-1.32-1.07l-.3-.75c0-.93.13-1.36.39-1.71l.64-.63c.97-.37 1.55-.47 2.21-.47h1.99c0-.47-.07-.85-.22-1.16l-.35-.56-.89-.4c-.89 0-1.31.12-1.66.35l-.56.6-1.37.47.24-.99c.61-.73 1-1.01 1.47-1.2l.96-.3c1.21 0 1.79.13 2.25.39l.82.61c.46.91.57 1.44.57 2.06v4.68h-1.12l-.08-1.33-.23.41-.49.53-.66.37-.83.2Zm.2-1.07l.66-.06.82-.5c.4-.5.55-.79.65-1.1l.16-.63v-.39h-1.89c-.49 0-.88.06-1.18.18l-.52.27-.32.64.06.77.43.55.79.27Zm4.25.89Zm4.02 0l-.84-.07c-.66-.28-.92-.51-1.1-.85l-.25-.79V24.53h-1.32V23.46h1.32l.16-1.83h1.1v1.83h2.19v1.07h-2.19v4.21c0 .47.09.79.28.96l.53.24h1.29v1.08h-1.17Zm1.64 0Zm4.37.18l-1.34-.16c-1.09-.66-1.52-1.13-1.83-1.72l-.46-2.08c0-.8.15-1.49.45-2.08l.74-1.06c1.11-.66 1.75-.82 2.47-.82l1.36.16c1.03.66 1.43 1.1 1.7 1.64l.42 1.11c0 .75 0 .85 0 .96l-.01.23-6.19.15v-.98h4.97c-.03-.69-.26-1.23-.69-1.62l-.95-.58c-1.07 0-1.47.09-1.84.3l-.65.47c-.44.75-.55 1.22-.55 1.78v.42c0 .62.11 1.13.33 1.56l.52.73c.73.42 1.13.52 1.55.52l.96-.11c.69-.47.94-.79 1.09-1.19h1.25l-.33.86c-.6.72-.98 1-1.43 1.21l-.95.3Zm4.16-.18Zm3.79.18l-1.09-.11c-.87-.46-1.2-.82-1.44-1.3l-.35-1.08V23.46h1.26v4.39c0 .75.17 1.32.5 1.7l.79.57c1.02 0 1.4-.1 1.74-.3l.61-.5c.39-.78.49-1.25.49-1.81V23.46h1.26v7.56h-1.14l-.08-1.32-.57.84c-.9.53-1.41.66-1.98.66Zm4.81-.18Zm1.05 0V23.46h1.14l.09 1.44.38-.63c.53-.48.85-.67 1.22-.8l.81-.19.48 1.32h-.46l-.63.05-.84.3c-.45.38-.62.64-.75.97l-.18.72v4.38h-1.26Zm8.48 0Zm3.51.18l-1.12-.1c-.82-.44-1.12-.72-1.32-1.07l-.3-.75c0-.93.13-1.36.39-1.71l.64-.63c.97-.37 1.55-.47 2.21-.47h1.99c0-.47-.07-.85-.22-1.16l-.35-.56-.89-.4c-.89 0-1.31.12-1.66.35l-.56.6-1.37.47.24-.99c.61-.73 1-1.01 1.47-1.2l.96-.3c1.21 0 1.79.13 2.25.39l.82.61c.46.91.57 1.44.57 2.06v4.68H204.9l-.08-1.33-.23.41-.49.53-.66.37-.83.2Zm.2-1.07l.66-.06.82-.5c.4-.5.55-.79.65-1.1l.16-.63v-.39h-1.89c-.49 0-.88.06-1.18.18l-.52.27-.32.64.06.77.43.55.79.27Zm4.23.89Zm1.88 3.3l1.84-4.14h-.43l-2.97-6.72h1.36l2.46 5.77 2.58-5.77h1.31L209.9 34.32h-1.32Zm5.99-3.3Zm3.51.18l-1.12-.1c-.82-.44-1.12-.72-1.32-1.07l-.3-.75c0-.93.13-1.36.39-1.71l.64-.63c.97-.37 1.55-.47 2.21-.47h1.99c0-.47-.07-.85-.22-1.16l-.35-.56-.89-.4c-.89 0-1.31.12-1.66.35l-.56.6-1.37.47.24-.99c.61-.73 1-1.01 1.47-1.2l.96-.3c1.21 0 1.79.13 2.25.39l.82.61c.46.91.57 1.44.57 2.06v4.68h-1.12l-.08-1.33-.23.41-.49.53-.66.37-.83.2Zm.2-1.07l.66-.06.82-.5c.4-.5.55-.79.65-1.1l.16-.63v-.39h-1.89c-.49 0-.88.06-1.18.18l-.52.27-.32.64.06.77.43.55.79.27Zm4.45.89Zm1.05 0V23.46h1.14l.06 1.32.58-.84c.89-.53 1.4-.66 1.97-.66l1.1.12c.86.47 1.19.82 1.43 1.3l.36 1.08v5.24h-1.26V26.64c0-.76-.17-1.33-.51-1.71l-.8-.57c-1.03 0-1.4.11-1.73.31l-.6.5c-.39.77-.48 1.24-.48 1.81v4.04h-1.26Zm7.56 0Zm4.02 0l-.84-.07c-.66-.28-.91-.51-1.09-.85l-.26-.79V24.53h-1.32V23.46h1.32l.17-1.83h1.09v1.83h2.19v1.07h-2.19v4.21c0 .47.1.79.29.96l.52.24h1.29v1.08h-1.17Zm5.84 0Zm4.46.18l-1.35-.16c-1.13-.66-1.57-1.13-1.89-1.72l-.48-2.07c0-.8.16-1.49.48-2.08l.76-1.05c1.13-.67 1.77-.84 2.48-.84.9 0 1.65.23 2.25.7s.98 1.09 1.14 1.87h-1.29c-.1-.47-.35-.84-.74-1.1l-.85-.39c-.96 0-1.36.11-1.73.33l-.66.53c-.44.86-.55 1.39-.55 2.02l.06.89c.26.73.44 1.03.66 1.27l.47.42.9.31c.68 0 1.01-.05 1.3-.16l.53-.3.54-.73 1.36-.31-.55 1.38c-1.21.96-1.95 1.19-2.84 1.19Zm4.13-.18Zm1.05 0V23.46h1.14l.09 1.44.38-.63c.53-.48.85-.67 1.22-.8l.81-.19.48 1.32h-.46l-.63.05-.84.3c-.45.38-.62.64-.75.97l-.18.72v4.38h-1.26Zm4.22 0Zm4.36.18l-1.34-.16c-1.09-.66-1.51-1.13-1.82-1.72l-.47-2.08c0-.8.15-1.49.45-2.08l.74-1.06c1.11-.66 1.75-.82 2.47-.82l1.37.16c1.03.66 1.42 1.1 1.69 1.64l.42 1.11c0 .75 0 .85 0 .96v.23l-6.19.15v-.98h4.96c-.03-.69-.26-1.23-.69-1.62l-.95-.58c-1.07 0-1.47.09-1.84.3l-.65.47c-.44.75-.55 1.22-.55 1.78v.42c0 .62.11 1.13.33 1.56l.53.73c.73.42 1.12.52 1.54.52l.97-.11c.69-.47.94-.79 1.09-1.19h1.24l-.33.86c-.6.72-.97 1-1.42 1.21l-.96.3Zm-1.5-8.38l-.13-.91L260.8 20l.18 1.07-3.06 1.75Zm5.66 8.2Zm4.37.18l-1.34-.16c-1.09-.66-1.52-1.13-1.83-1.72l-.46-2.08c0-.8.15-1.49.45-2.08l.74-1.06c1.11-.66 1.75-.82 2.47-.82l1.36.16c1.03.66 1.43 1.1 1.7 1.64l.42 1.11c0 .75 0 .85 0 .96l-.01.23-6.19.15v-.98h4.97c-.03-.69-.26-1.23-.69-1.62l-.95-.58c-1.07 0-1.47.09-1.84.3l-.65.47c-.44.75-.55 1.22-.55 1.78v.42c0 .62.11 1.13.33 1.56l.52.73c.73.42 1.13.52 1.55.52l.96-.11c.69-.47.94-.79 1.09-1.19h1.25l-.33.86c-.6.72-.98 1-1.43 1.21l-.95.3Zm-1.5-8.38l-.14-.91L269.33 20l.18 1.07-3.06 1.75Zm9.64 8.2Zm1.05 0V20.22h1.26v10.8h-1.26Zm2.29 0Zm3.51.18l-1.12-.1c-.82-.44-1.12-.72-1.32-1.07l-.3-.75c0-.93.13-1.36.39-1.71l.64-.63c.97-.37 1.55-.47 2.21-.47h1.99c0-.47-.07-.85-.22-1.16l-.35-.56-.89-.4c-.89 0-1.31.12-1.66.35l-.56.6-1.37.47.24-.99c.61-.73 1-1.01 1.47-1.2l.96-.3c1.21 0 1.79.13 2.25.39l.82.61c.46.91.57 1.44.57 2.06v4.68h-1.12l-.08-1.33-.23.41-.49.53-.66.37-.83.2Zm.2-1.07l.66-.06.82-.5c.4-.5.55-.79.65-1.1l.16-.63v-.39h-1.89c-.49 0-.88.06-1.18.18l-.52.27-.32.64.06.77.43.55.79.27Zm8.44.89Zm1.47 0V22.29c0-.48.08-.87.24-1.17l.39-.53c.63-.3 1.02-.37 1.48-.37h.86V21.3h-.66l-.64.08-.41.56v9.08h-1.26Zm-1.16-6.49V23.46h4.32v1.07h-4.32Zm4.49 6.49Zm4.37.18l-1.34-.16c-1.09-.66-1.52-1.13-1.83-1.72l-.46-2.08c0-.8.15-1.49.45-2.08l.74-1.06c1.11-.66 1.75-.82 2.47-.82l1.36.16c1.03.66 1.43 1.1 1.7 1.64l.42 1.11c0 .75 0 .85 0 .96l-.01.23-6.19.15v-.98h4.97c-.03-.69-.26-1.23-.69-1.62l-.95-.58c-1.07 0-1.47.09-1.84.3l-.65.47c-.44.75-.55 1.22-.55 1.78v.42c0 .62.11 1.13.33 1.56l.52.73c.73.42 1.13.52 1.55.52l.96-.11c.69-.47.94-.79 1.09-1.19h1.25l-.33.86c-.6.72-.98 1-1.43 1.21l-.95.3Zm4.16-.18Zm3.79.18l-1.09-.11c-.87-.46-1.2-.82-1.44-1.3l-.35-1.08V23.46h1.26v4.39c0 .75.17 1.32.5 1.7l.79.57c1.02 0 1.4-.1 1.74-.3l.61-.5c.39-.78.49-1.25.49-1.81V23.46h1.26v7.56h-1.14l-.08-1.32-.57.84c-.9.53-1.41.66-1.98.66Zm4.81-.18Zm1.17 0V23.46h1.26v7.56h-1.26Zm.63-9.17l-.46-.07-.41-.55.08-.69.54-.39.69.07.43.51-.09.71-.54.41Zm1.8 9.17Zm1.05 0V20.22h1.26v10.8h-1.26Zm2.29 0Zm1.05 0V20.22h1.26v10.8H321.5Zm2.29 0Zm4.36.18l-1.34-.16c-1.09-.66-1.51-1.13-1.82-1.72l-.47-2.08c0-.8.15-1.49.45-2.08l.74-1.06c1.11-.66 1.75-.82 2.47-.82l1.37.16c1.03.66 1.42 1.1 1.69 1.64l.42 1.11c0 .75 0 .85 0 .96v.23l-6.19.15v-.98h4.96c-.03-.69-.26-1.23-.69-1.62l-.95-.58c-1.07 0-1.47.09-1.84.3l-.65.47c-.44.75-.55 1.22-.55 1.78v.42c0 .62.11 1.13.33 1.56l.53.73c.73.42 1.12.52 1.54.52l.97-.11c.69-.47.94-.79 1.09-1.19h1.24l-.33.86c-.6.72-.97 1-1.42 1.21l-.96.3Zm8.15-.18Zm1.87 3.3l1.85-4.14h-.44l-2.97-6.72h1.37l2.46 5.77 2.58-5.77h1.3l-4.83 10.86h-1.32Zm10.45-3.3Zm3.51.18l-1.12-.1c-.82-.44-1.13-.72-1.33-1.07l-.3-.75c0-.93.13-1.36.39-1.71l.65-.63c.97-.37 1.54-.47 2.2-.47h2c0-.47-.08-.85-.23-1.16l-.35-.56-.89-.4c-.89 0-1.3.12-1.65.35l-.57.6-1.37.47.24-.99c.61-.73 1-1.01 1.47-1.2l.96-.3c1.21 0 1.79.13 2.25.39l.82.61c.46.91.58 1.44.58 2.06v4.68h-1.13l-.07-1.33-.23.41-.49.53-.66.37-.83.2Zm.19-1.07l.67-.06.81-.5c.4-.5.55-.79.65-1.1l.17-.63v-.39h-1.89c-.49 0-.89.06-1.19.18l-.51.27-.33.64.06.77.44.55.78.27Zm4.46.89Zm3.79.18l-1.09-.11c-.87-.46-1.2-.82-1.44-1.3l-.35-1.08V23.46h1.26v4.39c0 .75.17 1.32.5 1.7l.79.57c1.02 0 1.4-.1 1.74-.3l.61-.5c.39-.78.49-1.25.49-1.81V23.46h1.26v7.56H363.2l-.08-1.32-.57.84c-.9.53-1.41.66-1.98.66Zm4.81-.18Zm1.05 0V23.46h1.14l.09 1.44.38-.63c.53-.48.85-.67 1.22-.8l.81-.19.48 1.32h-.46l-.63.05-.84.3c-.45.38-.62.64-.75.97l-.18.72v4.38h-1.26Zm4.5 0Zm3.51.18l-1.12-.1c-.82-.44-1.13-.72-1.33-1.07l-.3-.75c0-.93.13-1.36.39-1.71l.65-.63c.97-.37 1.54-.47 2.2-.47h2c0-.47-.08-.85-.23-1.16l-.35-.56-.89-.4c-.89 0-1.3.12-1.65.35l-.57.6-1.37.47.24-.99c.61-.73 1-1.01 1.47-1.2l.96-.3c1.21 0 1.79.13 2.25.39l.82.61c.46.91.58 1.44.58 2.06v4.68h-1.13l-.07-1.33-.23.41-.49.53-.66.37-.83.2Zm.19-1.07l.67-.06.81-.5c.4-.5.55-.79.65-1.1l.17-.63v-.39h-1.89c-.49 0-.89.06-1.19.18l-.51.27-.33.64.06.77.44.55.78.27Zm8.44.89Zm3.51.18l-1.12-.1c-.82-.44-1.12-.72-1.32-1.07l-.3-.75c0-.93.13-1.36.39-1.71l.64-.63c.97-.37 1.55-.47 2.21-.47h1.99c0-.47-.07-.85-.22-1.16l-.35-.56-.89-.4c-.89 0-1.31.12-1.66.35l-.56.6-1.37.47.24-.99c.61-.73 1-1.01 1.47-1.2l.96-.3c1.21 0 1.79.13 2.25.39l.82.61c.46.91.57 1.44.57 2.06v4.68h-1.12l-.08-1.33-.23.41-.49.53-.66.37-.83.2Zm.2-1.07l.66-.06.82-.5c.4-.5.55-.79.65-1.1l.16-.63v-.39h-1.89c-.49 0-.88.06-1.18.18l-.52.27-.32.64.06.77.43.55.79.27Zm4.45.89Zm4.46.18l-1.35-.16c-1.13-.66-1.57-1.13-1.89-1.72l-.48-2.07c0-.8.16-1.49.48-2.08l.76-1.05c1.13-.67 1.77-.84 2.48-.84.9 0 1.65.23 2.25.7s.98 1.09 1.14 1.87h-1.29c-.1-.47-.35-.84-.74-1.1l-.85-.39c-.96 0-1.36.11-1.73.33l-.66.53c-.44.86-.55 1.39-.55 2.02l.06.89c.26.73.44 1.03.66 1.27l.47.42.9.31c.68 0 1.01-.05 1.3-.16l.53-.3.54-.73 1.36-.31-.55 1.38c-1.21.96-1.95 1.19-2.84 1.19Zm4.12-.18Zm4.46.18l-1.35-.16c-1.13-.66-1.57-1.13-1.89-1.72l-.48-2.07c0-.8.16-1.49.48-2.08l.76-1.05c1.13-.67 1.77-.84 2.48-.84.9 0 1.65.23 2.25.7s.98 1.09 1.14 1.87h-1.29c-.1-.47-.35-.84-.74-1.1l-.85-.39c-.96 0-1.36.11-1.73.33l-.66.53c-.44.86-.55 1.39-.55 2.02l.06.89c.26.73.44 1.03.66 1.27l.47.42.9.31c.68 0 1.01-.05 1.3-.16l.53-.3.54-.73 1.36-.31-.55 1.38c-1.21.96-1.95 1.19-2.84 1.19Zm4.13-.18Zm4.36.18l-1.34-.16c-1.09-.66-1.51-1.13-1.82-1.72l-.47-2.08c0-.8.15-1.49.45-2.08l.74-1.06c1.11-.66 1.75-.82 2.47-.82l1.37.16c1.03.66 1.42 1.1 1.69 1.64l.42 1.11c0 .75 0 .85 0 .96v.23l-6.19.15v-.98h4.96c-.03-.69-.26-1.23-.69-1.62l-.95-.58c-1.07 0-1.47.09-1.84.3l-.65.47c-.44.75-.55 1.22-.55 1.78v.42c0 .62.11 1.13.33 1.56l.53.73c.73.42 1.12.52 1.54.52l.97-.11c.69-.47.94-.79 1.09-1.19h1.24l-.33.86c-.6.72-.97 1-1.42 1.21l-.96.3Zm1.43-8.38l-3.06-1.75.18-1.07 3.01 1.91-.13.91Zm2.73 8.2Zm3.9.18l-1.18-.1c-.93-.43-1.3-.72-1.58-1.09l-.43-.82 1.23-.51.15.5.54.62c.55.27.89.33 1.29.33l.64-.04.63-.36.29-.56-.08-.75-.5-.45-.9-.27c-.73-.13-1.05-.21-1.37-.31l-.61-.23-.7-.53-.36-.78c0-.78.11-1.16.33-1.49l.54-.61c.83-.37 1.31-.47 1.86-.47.81 0 1.47.19 1.97.59l.79.95-1.15.74-.22-.68c-.55-.43-.92-.53-1.4-.53l-.83.09-.61.63.06.69.47.44.86.31c.89.16 1.35.28 1.76.43l.74.38c.51.59.64 1 .64 1.54l-.12.88c-.47.7-.8.98-1.23 1.17l-.94.29Zm7.62-.18Zm1.87-6.03l-.46-.08-.41-.53.08-.69.54-.41.71.09.4.53-.08.68-.53.41Zm-1.51 7.88l.87-3.32h1.3l-1.3 3.32h-.87Zm7.02-1.85Zm3.8.18l-1.09-.11c-.87-.46-1.21-.82-1.45-1.3l-.34-1.08V23.46H438v4.39c0 .75.16 1.32.49 1.7l.8.57c1.02 0 1.4-.1 1.74-.3l.6-.5c.39-.78.49-1.25.49-1.81V23.46h1.26v7.56h-1.14l-.07-1.32-.57.84c-.9.53-1.41.66-1.98.66Zm4.8-.18Zm4.02 0l-.84-.07c-.66-.28-.92-.51-1.1-.85l-.25-.79V24.53h-1.32V23.46h1.32l.16-1.83h1.1v1.83h2.19v1.07h-2.19v4.21c0 .47.09.79.28.96l.53.24h1.29v1.08h-1.17Zm1.85 0Zm1.17 0V23.46h1.26v7.56h-1.26Zm.63-9.17l-.46-.07-.41-.55.08-.69.54-.39.7.07.42.51-.08.71-.55.41Zm1.81 9.17Zm1.05 0V20.22h1.26v10.8h-1.26Zm2.29 0Zm1.17 0V23.46h1.26v7.56h-1.26Zm.63-9.17l-.46-.07-.41-.55.08-.69.54-.39.69.07.43.51-.09.71-.54.41Zm1.8 9.17Zm3.9.18l-1.18-.1c-.93-.43-1.3-.72-1.58-1.09l-.44-.82 1.23-.51.16.5.53.62c.55.27.89.33 1.29.33l.64-.04.63-.36.29-.56-.07-.75-.5-.45-.9-.27c-.73-.13-1.06-.21-1.38-.31l-.6-.23-.7-.53-.36-.78c0-.78.11-1.16.33-1.49l.53-.61c.83-.37 1.32-.47 1.87-.47.81 0 1.46.19 1.96.59l.8.95-1.16.74-.21-.68c-.55-.43-.93-.53-1.41-.53l-.83.09-.61.63.07.69.47.44.86.31c.89.16 1.34.28 1.75.43l.74.38c.51.59.64 1 .64 1.54l-.12.88c-.47.7-.8.98-1.23 1.17l-.93.29Zm3.63-.18Zm4.36.18l-1.34-.16c-1.09-.66-1.51-1.13-1.82-1.72l-.47-2.08c0-.8.15-1.49.45-2.08l.74-1.06c1.11-.66 1.75-.82 2.47-.82l1.37.16c1.03.66 1.42 1.1 1.69 1.64l.42 1.11c0 .75 0 .85 0 .96v.23l-6.19.15v-.98h4.96c-.03-.69-.26-1.23-.69-1.62l-.95-.58c-1.07 0-1.47.09-1.84.3l-.65.47c-.44.75-.55 1.22-.55 1.78v.42c0 .62.11 1.13.33 1.56l.53.73c.73.42 1.12.52 1.54.52l.97-.11c.69-.47.94-.79 1.09-1.19h1.24l-.33.86c-.6.72-.97 1-1.42 1.21l-.96.3Zm4.16-.18Zm.54 0V29.98l4.19-5.47h-4.11V23.46h5.55V24.5l-4.2 5.47h4.27v1.05h-5.7Zm10.32 0Zm4.38.18l-1.37-.17c-1.1-.69-1.53-1.16-1.83-1.77l-.45-2.04c0-.75.15-1.43.45-2.02l.73-1.07c1.11-.68 1.75-.85 2.48-.85l1.16.13c.93.5 1.29.84 1.54 1.29V20.22h1.26v10.8h-1.14l-.1-1.24-.37.48-.8.61c-.7.26-1.1.33-1.56.33Zm.15-1.1l.94-.12c.76-.48 1.05-.81 1.26-1.23l.32-.93c0-1.15-.11-1.65-.32-2.08l-.5-.77c-.76-.47-1.2-.59-1.7-.59l-.93.12c-.76.47-1.05.81-1.26 1.24l-.32.93c0 1.15.11 1.65.32 2.08l.5.75c.76.48 1.2.6 1.69.6Zm4.87.92Zm4.43.18l-1.33-.16c-1.12-.65-1.56-1.11-1.88-1.7l-.48-2.09c0-.81.16-1.5.48-2.09l.77-1.06c1.13-.66 1.77-.82 2.47-.82l1.35.16c1.11.66 1.55 1.12 1.87 1.72l.5 2.08c0 .8-.17 1.5-.5 2.1l-.77 1.05c-1.12.65-1.76.81-2.48.81Zm.01-1.08l.83-.11c.74-.42 1.04-.75 1.27-1.18l.35-.96c0-1.27-.12-1.8-.35-2.22l-.51-.75c-.73-.43-1.13-.54-1.57-.54l-.82.11c-.75.43-1.05.75-1.28 1.18l-.33.95c0 1.27.11 1.8.33 2.23l.52.76c.73.42 1.13.53 1.56.53Zm4.45.9Zm1.05 0V23.46h1.14l.06 1.32.58-.84c.89-.53 1.4-.66 1.97-.66l1.1.12c.86.47 1.2.82 1.44 1.3l.36 1.08v5.24h-1.26V26.64c0-.76-.17-1.33-.51-1.71l-.8-.57c-1.03 0-1.41.11-1.74.31l-.59.5c-.39.77-.49 1.24-.49 1.81v4.04h-1.26Zm7.57 0Zm4.45.18l-1.35-.16c-1.13-.66-1.57-1.13-1.89-1.72l-.48-2.07c0-.8.16-1.49.48-2.08l.76-1.05c1.13-.67 1.77-.84 2.48-.84.9 0 1.65.23 2.25.7s.98 1.09 1.14 1.87h-1.29c-.1-.47-.34-.84-.73-1.1l-.85-.39c-.96 0-1.36.11-1.73.33l-.67.53c-.44.86-.55 1.39-.55 2.02l.07.89c.26.73.43 1.03.65 1.27l.48.42.9.31c.68 0 1-.05 1.29-.16l.54-.3.53-.73 1.36-.31-.54 1.38c-1.21.96-1.96 1.19-2.85 1.19Zm8.12-.18Zm1.05 0V20.22h1.26v10.8h-1.26Zm2.29 0Zm4.36.18l-1.34-.16c-1.09-.66-1.51-1.13-1.82-1.72l-.47-2.08c0-.8.15-1.49.45-2.08l.74-1.06c1.11-.66 1.75-.82 2.47-.82l1.37.16c1.03.66 1.42 1.1 1.69 1.64l.42 1.11c0 .75 0 .85 0 .96v.23l-6.19.15v-.98h4.96c-.03-.69-.26-1.23-.69-1.62l-.95-.58c-1.07 0-1.47.09-1.84.3l-.65.47c-.44.75-.55 1.22-.55 1.78v.42c0 .62.11 1.13.33 1.56l.53.73c.73.42 1.12.52 1.54.52l.97-.11c.69-.47.94-.79 1.09-1.19h1.24l-.33.86c-.6.72-.97 1-1.42 1.21l-.96.3Zm4.16-.18Zm3.9.18l-1.18-.1c-.93-.43-1.3-.72-1.58-1.09l-.43-.82 1.23-.51.15.5.54.62c.55.27.89.33 1.29.33l.64-.04.63-.36.29-.56-.08-.75-.5-.45-.9-.27c-.73-.13-1.05-.21-1.37-.31l-.61-.23-.7-.53-.36-.78c0-.78.11-1.16.33-1.49l.54-.61c.83-.37 1.31-.47 1.86-.47.81 0 1.47.19 1.97.59l.79.95-1.15.74-.22-.68c-.55-.43-.92-.53-1.4-.53l-.83.09-.61.63.06.69.47.44.86.31c.89.16 1.35.28 1.76.43l.74.38c.51.59.64 1 .64 1.54l-.12.88c-.47.7-.8.98-1.23 1.17l-.94.29ZM0 51.02Zm1.05 3.3V43.46H2.19l.11 1.23.36-.46.8-.61c.7-.27 1.1-.34 1.55-.34l1.38.17c1.09.71 1.51 1.18 1.81 1.78l.47 2.03c0 .75-.15 1.43-.47 2.03l-.72 1.06c-1.1.68-1.75.85-2.49.85l-1.14-.13c-.93-.5-1.29-.84-1.54-1.29v4.54H1.05ZM4.86 50.1l.93-.12c.76-.47 1.05-.81 1.26-1.22l.33-.94c0-1.15-.11-1.65-.33-2.08l-.5-.76c-.76-.48-1.2-.6-1.69-.6l-.94.12c-.76.48-1.06.81-1.27 1.24l-.31.93c0 1.15.11 1.65.31 2.09l.51.75c.76.47 1.2.59 1.7.59Zm4.53.92Zm3.51.18l-1.12-.1c-.82-.44-1.13-.72-1.33-1.07l-.3-.75c0-.93.13-1.36.39-1.71l.65-.63c.97-.37 1.54-.46 2.2-.46h2c0-.47-.08-.86-.23-1.17l-.35-.56-.89-.4c-.89 0-1.3.12-1.65.35l-.57.6-1.37.47.24-.99c.61-.73 1-1.01 1.47-1.2l.96-.3c1.21 0 1.79.13 2.25.39l.82.61c.46.91.58 1.44.58 2.06v4.68H15.52l-.07-1.33-.23.41-.49.53-.66.37-.83.2Zm.19-1.07l.67-.06.81-.5c.4-.5.55-.79.65-1.1l.17-.63v-.39H13.5c-.49 0-.89.06-1.19.18l-.51.27-.33.64.06.77.44.55.78.27Zm4.46.89Zm1.05 0V43.46h1.14l.09 1.44.38-.63c.53-.48.85-.67 1.22-.8l.81-.19.48 1.32h-.46l-.63.05-.84.3c-.45.38-.62.64-.75.97l-.18.72v4.38H18.6Zm4.5 0Zm3.51.18l-1.12-.1c-.82-.44-1.12-.72-1.32-1.07l-.3-.75c0-.93.13-1.36.39-1.71l.64-.63c.97-.37 1.55-.46 2.21-.46H29.1c0-.47-.07-.86-.22-1.17l-.35-.56-.89-.4c-.89 0-1.31.12-1.66.35l-.56.6-1.37.47.24-.99c.61-.73 1-1.01 1.47-1.2l.96-.3c1.21 0 1.79.13 2.25.39l.82.61c.46.91.57 1.44.57 2.06v4.68H29.24l-.08-1.33-.23.41-.49.53-.66.37-.83.2Zm.2-1.07l.66-.06.82-.5c.4-.5.55-.79.65-1.1l.16-.63v-.39H27.21c-.49 0-.88.06-1.18.18l-.52.27-.32.64.06.77.43.55.79.27Zm4.45.89Zm1.05 0V43.46h1.14l.07 1.08.56-.69c.81-.45 1.26-.57 1.74-.57l.74.06.91.36c.48.43.67.71.82 1.03l.62-.81c.91-.51 1.4-.64 1.92-.64l1.08.12c.87.47 1.21.83 1.44 1.3l.36 1.08v5.24H42.46V46.64c0-.76-.15-1.33-.46-1.71l-.75-.57c-.95 0-1.3.11-1.61.31l-.55.5c-.36.78-.45 1.26-.45 1.83v4.02H37.38V46.64c0-.76-.16-1.33-.47-1.71l-.75-.57c-.95 0-1.29.11-1.6.31l-.54.5c-.36.78-.45 1.26-.45 1.83v4.02H32.31Zm12.31 0Zm4.36.18l-1.34-.16c-1.09-.66-1.51-1.13-1.82-1.72l-.47-2.08c0-.8.15-1.49.45-2.08l.74-1.06c1.11-.66 1.75-.82 2.47-.82l1.37.16c1.03.66 1.42 1.1 1.69 1.64l.42 1.11c0 .75 0 .85 0 .96v.23l-6.19.15v-.98h4.96c-.03-.69-.26-1.23-.69-1.62l-.95-.58c-1.07 0-1.47.09-1.84.3l-.65.47c-.44.75-.55 1.22-.55 1.78v.41c0 .63.11 1.14.33 1.57l.53.73c.73.42 1.12.52 1.54.52l.97-.11c.69-.47.94-.79 1.09-1.19h1.24l-.33.86c-.6.72-.97 1-1.42 1.21l-.96.3Zm1.43-8.39l-3.06-1.74.18-1.07 3.01 1.91-.13.9Zm2.49 8.21Zm4.02 0l-.84-.07c-.66-.28-.92-.51-1.1-.85l-.25-.79V44.53H53.41V43.46h1.32l.16-1.83h1.1v1.83h2.19v1.07H55.99v4.21c0 .47.09.79.28.96l.53.24h1.29v1.08H56.92Zm1.85 0Zm1.05 0V43.46h1.14l.09 1.44.38-.63c.53-.48.85-.67 1.22-.8l.81-.19.48 1.32h-.46l-.63.05-.84.3c-.45.38-.62.64-.75.97l-.18.72v4.38H59.82Zm4.22 0Zm4.37.18l-1.34-.16c-1.09-.66-1.52-1.13-1.83-1.72l-.46-2.08c0-.8.15-1.49.45-2.08l.74-1.06c1.11-.66 1.75-.82 2.47-.82l1.36.16c1.03.66 1.43 1.1 1.7 1.64l.42 1.11c0 .75 0 .85 0 .96l-.01.23-6.19.15v-.98h4.97c-.03-.69-.26-1.23-.69-1.62l-.95-.58c-1.07 0-1.47.09-1.84.3l-.65.47c-.44.75-.55 1.22-.55 1.78v.41c0 .63.11 1.14.33 1.57l.52.73c.73.42 1.13.52 1.55.52l.96-.11c.69-.47.94-.79 1.09-1.19h1.25l-.33.86c-.6.72-.98 1-1.43 1.21l-.95.3Zm4.16-.18Zm3.9.18l-1.18-.1c-.93-.43-1.3-.72-1.58-1.09l-.44-.82 1.23-.51.16.5.53.62c.55.27.89.33 1.29.33l.64-.04.63-.36.29-.56-.07-.75-.5-.44-.9-.28c-.73-.13-1.06-.21-1.38-.31l-.6-.23-.7-.53-.36-.78c0-.78.11-1.16.33-1.49l.53-.61c.83-.37 1.32-.47 1.87-.47.81 0 1.46.19 1.96.59l.8.95-1.16.74-.21-.68c-.55-.43-.93-.53-1.41-.53l-.83.09-.61.63.07.69.47.44.86.31c.89.16 1.34.28 1.75.43l.74.38c.51.59.64 1 .64 1.54l-.12.88c-.47.7-.8.98-1.23 1.17l-.93.29Zm7.61-.18Zm4.38.18l-1.37-.17c-1.1-.69-1.52-1.16-1.82-1.77l-.45-2.04c0-.75.15-1.43.45-2.02l.72-1.07c1.11-.68 1.76-.85 2.49-.85l1.16.13c.93.5 1.29.85 1.54 1.29V40.22h1.26v10.8H91.3l-.11-1.24-.36.48-.8.61c-.7.26-1.11.33-1.57.33Zm.15-1.1l.94-.12c.76-.47 1.06-.81 1.27-1.22l.31-.94c0-1.15-.1-1.65-.31-2.08l-.51-.76c-.76-.48-1.2-.6-1.7-.6l-.92.12c-.76.48-1.06.81-1.27 1.24l-.31.93c0 1.15.1 1.65.31 2.09l.51.75c.76.47 1.19.59 1.68.59Zm4.88.92Zm4.36.18l-1.34-.16c-1.09-.66-1.51-1.13-1.82-1.72l-.47-2.08c0-.8.15-1.49.45-2.08l.74-1.06c1.11-.66 1.75-.82 2.47-.82l1.37.16c1.03.66 1.42 1.1 1.69 1.64l.42 1.11c0 .75 0 .85 0 .96v.23l-6.19.15v-.98h4.96c-.03-.69-.26-1.23-.69-1.62l-.95-.58c-1.07 0-1.47.09-1.84.3l-.65.47c-.44.75-.55 1.22-.55 1.78v.41c0 .63.11 1.14.33 1.57l.53.73c.73.42 1.12.52 1.54.52l.97-.11c.69-.47.94-.79 1.09-1.19h1.24l-.33.86c-.6.72-.97 1-1.42 1.21l-.96.3Zm8.15-.18Zm1.05 3.3V43.46h1.14l.1 1.23.37-.46.8-.61c.7-.27 1.1-.34 1.55-.34l1.38.17c1.09.71 1.51 1.18 1.81 1.78l.47 2.03c0 .75-.16 1.43-.47 2.03l-.72 1.06c-1.1.68-1.75.85-2.49.85l-1.15-.13c-.93-.5-1.28-.84-1.53-1.29v4.54h-1.26Zm3.81-4.22l.92-.12c.76-.47 1.06-.81 1.27-1.22l.33-.94c0-1.15-.11-1.65-.33-2.08l-.51-.76c-.76-.48-1.19-.6-1.68-.6l-.94.12c-.76.48-1.06.81-1.27 1.24l-.31.93c0 1.15.1 1.65.31 2.09l.51.75c.76.47 1.2.59 1.7.59Zm4.53.92Zm3.51.18l-1.12-.1c-.82-.44-1.13-.72-1.33-1.07l-.3-.75c0-.93.13-1.36.39-1.71l.65-.63c.97-.37 1.54-.46 2.2-.46h2c0-.47-.08-.86-.23-1.17l-.35-.56-.89-.4c-.89 0-1.3.12-1.65.35l-.57.6-1.37.47.24-.99c.61-.73 1-1.01 1.47-1.2l.96-.3c1.21 0 1.79.13 2.25.39l.82.61c.46.91.58 1.44.58 2.06v4.68h-1.13l-.07-1.33-.23.41-.49.53-.66.37-.83.2Zm.19-1.07l.67-.06.81-.5c.4-.5.55-.79.65-1.1l.17-.63v-.39H119.5c-.49 0-.89.06-1.19.18l-.51.27-.33.64.06.77.44.55.78.27Zm4.45.89Zm1.05 0V43.46h1.14l.09 1.44.39-.63c.53-.48.85-.67 1.22-.8l.81-.19.48 1.32h-.47l-.62.05-.84.3c-.45.38-.63.64-.76.97l-.18.72v4.38h-1.26Zm4.51 0Zm4.02 0l-.84-.07c-.66-.28-.92-.51-1.1-.85l-.25-.79V44.53h-1.32V43.46h1.32l.16-1.83h1.1v1.83h2.19v1.07h-2.19v4.21c0 .47.09.79.28.96l.53.24h1.29v1.08h-1.17Zm1.85 0Zm3.51.18l-1.12-.1c-.82-.44-1.12-.72-1.32-1.07l-.3-.75c0-.93.13-1.36.39-1.71l.64-.63c.97-.37 1.55-.46 2.21-.46h1.99c0-.47-.07-.86-.22-1.17l-.35-.56-.89-.4c-.89 0-1.31.12-1.66.35l-.56.6-1.37.47.24-.99c.61-.73 1-1.01 1.47-1.2l.96-.3c1.21 0 1.79.13 2.25.39l.82.61c.46.91.57 1.44.57 2.06v4.68h-1.12l-.08-1.33-.23.41-.49.53-.66.37-.83.2Zm.2-1.07l.66-.06.82-.5c.4-.5.55-.79.65-1.1l.16-.63v-.39h-1.89c-.49 0-.88.06-1.18.18l-.52.27-.32.64.06.77.43.55.79.27Zm4.45.89Zm4.03 3.48l-1.28-.09c-1.05-.35-1.46-.62-1.75-.97l-.43-.81c0-.76.04-1 .13-1.26l.27-.52c.47-.5.8-.72 1.23-.93l.87.52-.87.47-.4.83.09.85.65.6c.68.22 1.06.28 1.49.28l.8-.06.86-.41.43-.71-.13-.94c-.52-.47-1.02-.6-1.75-.65l-1.08-.09c-.8-.14-1.13-.22-1.39-.31l-.48-.21-.51-.36-.14-.48 1.46-1.44 1.09.39-1.5 1.35.2-.52.21.15.34.2.57.15c.61.07 1.02.12 1.52.16l1.24.16c.83.38 1.13.64 1.31.96l.28.7c0 .87-.12 1.28-.36 1.65l-.59.72c-.98.5-1.61.62-2.38.62Zm-.01-5.85l-1.17-.12c-.89-.48-1.23-.8-1.46-1.2l-.34-.86c0-1 .11-1.46.34-1.85l.58-.72c.88-.49 1.42-.62 2.05-.62l1.16.13c.88.49 1.22.81 1.45 1.21l.34.85c0 1-.11 1.45-.34 1.86l-.57.72c-.88.48-1.41.6-2.04.6Zm0-1.03l.96-.14c.62-.57.78-.97.78-1.51l-.16-.94c-.62-.56-1.04-.7-1.58-.7l-.96.14c-.65.56-.81.97-.81 1.5l.16.94c.64.57 1.07.71 1.61.71Zm1.23-3.09L148 43.46h3.09v.95l-2.71.12Zm2.82 6.49Zm4.37.18l-1.34-.16c-1.09-.66-1.52-1.13-1.83-1.72l-.46-2.08c0-.8.15-1.49.45-2.08l.74-1.06c1.11-.66 1.75-.82 2.47-.82l1.36.16c1.03.66 1.43 1.1 1.7 1.64l.42 1.11c0 .75 0 .85 0 .96l-.01.23-6.19.15v-.98h4.97c-.03-.69-.26-1.23-.69-1.62l-.95-.58c-1.07 0-1.47.09-1.84.3l-.65.47c-.44.75-.55 1.22-.55 1.78v.41c0 .63.11 1.14.33 1.57l.52.73c.73.42 1.13.52 1.55.52l.96-.11c.69-.47.94-.79 1.09-1.19h1.25l-.33.86c-.6.72-.98 1-1.43 1.21l-.95.3Zm8.14-.18Zm4.38.18l-1.37-.17c-1.1-.69-1.52-1.16-1.82-1.77l-.45-2.04c0-.75.15-1.43.45-2.02l.72-1.07c1.11-.68 1.76-.85 2.49-.85l1.16.13c.93.5 1.29.85 1.54 1.29V40.22h1.26v10.8h-1.14l-.11-1.24-.36.48-.8.61c-.7.26-1.11.33-1.57.33Zm.15-1.1l.94-.12c.76-.47 1.06-.81 1.27-1.22l.31-.94c0-1.15-.1-1.65-.31-2.08l-.51-.76c-.76-.48-1.2-.6-1.7-.6l-.92.12c-.76.48-1.06.81-1.27 1.24l-.31.93c0 1.15.1 1.65.31 2.09l.51.75c.76.47 1.19.59 1.68.59Zm4.88.92Zm4.36.18l-1.34-.16c-1.09-.66-1.51-1.13-1.82-1.72l-.47-2.08c0-.8.15-1.49.45-2.08l.74-1.06c1.11-.66 1.75-.82 2.47-.82l1.37.16c1.03.66 1.42 1.1 1.69 1.64l.42 1.11c0 .75 0 .85 0 .96v.23l-6.19.15v-.98h4.96c-.03-.69-.26-1.23-.69-1.62l-.95-.58c-1.07 0-1.47.09-1.84.3l-.65.47c-.44.75-.55 1.22-.55 1.78v.41c0 .63.11 1.14.33 1.57l.53.73c.73.42 1.12.52 1.54.52l.97-.11c.69-.47.94-.79 1.09-1.19h1.24l-.33.86c-.6.72-.97 1-1.42 1.21l-.96.3Zm8.15-.18Zm5.64.18c-.98 0-1.85-.22-2.59-.67-.73-.47-1.31-1.1-1.72-1.91s-.62-1.75-.62-2.83.21-2.02.62-2.84 1.01-1.46 1.77-1.92 1.68-.69 2.72-.69c1.18 0 2.16.29 2.95.85s1.3 1.35 1.51 2.36h-1.45c-.14-.63-.47-1.13-.99-1.5s-1.19-.55-2.02-.55l-2.03.52c-.57.34-1.01.83-1.32 1.47l-.46 2.3c0 .88.15 1.65.46 2.31l.74 1.12c1.11.69 1.75.85 2.47.85 1.12 0 1.97-.32 2.53-.98s.9-1.56.98-2.69h-3.03v-.99h4.32v5.61h-1.15l-.11-1.73-.54.77c-.65.57-1.03.78-1.47.93l-.96.21Zm5.72-.18Zm4.43.18l-1.33-.16c-1.12-.65-1.56-1.11-1.88-1.7l-.48-2.08c0-.82.16-1.51.48-2.1l.77-1.06c1.13-.66 1.77-.82 2.47-.82l1.35.16c1.11.66 1.55 1.12 1.87 1.72l.5 2.08c0 .8-.17 1.5-.5 2.1l-.77 1.05c-1.12.65-1.76.81-2.48.81Zm.01-1.08l.83-.11c.74-.42 1.04-.75 1.27-1.18l.35-.96c0-1.27-.12-1.8-.35-2.22l-.51-.75c-.73-.43-1.13-.54-1.57-.54l-.82.11c-.75.43-1.05.75-1.28 1.18l-.33.95c0 1.27.11 1.8.33 2.23l.52.76c.73.42 1.13.53 1.56.53Zm4.45.9Zm4.43.18l-1.33-.16c-1.12-.65-1.56-1.11-1.88-1.7l-.48-2.08c0-.82.16-1.51.48-2.1l.77-1.06c1.13-.66 1.77-.82 2.47-.82l1.35.16c1.11.66 1.55 1.12 1.87 1.72l.5 2.08c0 .8-.17 1.5-.5 2.1l-.77 1.05c-1.12.65-1.76.81-2.48.81Zm.01-1.08l.83-.11c.74-.42 1.04-.75 1.27-1.18l.35-.96c0-1.27-.12-1.8-.35-2.22l-.51-.75c-.73-.43-1.13-.54-1.57-.54l-.82.11c-.75.43-1.05.75-1.28 1.18l-.33.95c0 1.27.11 1.8.33 2.23l.52.76c.73.42 1.13.53 1.56.53Zm4.13.9Zm4.04 3.48l-1.29-.09c-1.05-.35-1.45-.62-1.74-.97l-.44-.81c0-.76.05-1 .14-1.26l.26-.52c.47-.5.81-.72 1.24-.93l.87.52-.88.47c-.32.56-.4.83-.4 1.07l.1.61.64.6c.68.22 1.07.28 1.5.28l.8-.06.86-.41.42-.71-.13-.94c-.52-.47-1.01-.6-1.74-.65l-1.09-.09c-.8-.14-1.13-.22-1.39-.31l-.48-.21-.5-.36-.14-.48 1.45-1.44 1.1.39-1.5 1.35.19-.52.22.15.33.2.58.15c.61.07 1.01.12 1.51.16l1.24.16c.83.38 1.13.64 1.31.96l.29.7c0 .87-.12 1.28-.36 1.65l-.59.72c-.98.5-1.61.62-2.38.62Zm-.02-5.85l-1.17-.12c-.89-.48-1.22-.8-1.45-1.2l-.35-.86c0-1 .12-1.46.35-1.85l.58-.72c.88-.49 1.41-.62 2.04-.62l1.17.13c.88.49 1.21.81 1.44 1.21l.35.85c0 1-.12 1.45-.35 1.86l-.56.72c-.88.48-1.42.6-2.05.6Zm0-1.03l.97-.14c.62-.57.77-.97.77-1.51l-.15-.94c-.62-.56-1.05-.7-1.59-.7l-.96.14c-.65.56-.81.97-.81 1.5l.16.94c.64.57 1.07.71 1.61.71Zm1.23-3.09l-.37-1.07h3.09v.95l-2.72.12Zm3.12 6.49Zm1.05 0V40.22h1.26v10.8h-1.26Zm2.29 0Zm4.36.18l-1.34-.16c-1.09-.66-1.51-1.13-1.82-1.72l-.47-2.08c0-.8.15-1.49.45-2.08l.74-1.06c1.11-.66 1.75-.82 2.47-.82l1.37.16c1.03.66 1.42 1.1 1.69 1.64l.42 1.11c0 .75 0 .85 0 .96v.23l-6.19.15v-.98h4.96c-.03-.69-.26-1.23-.69-1.62l-.95-.58c-1.07 0-1.47.09-1.84.3l-.65.47c-.44.75-.55 1.22-.55 1.78v.41c0 .63.11 1.14.33 1.57l.53.73c.73.42 1.12.52 1.54.52l.97-.11c.69-.47.94-.79 1.09-1.19h1.24l-.33.86c-.6.72-.97 1-1.42 1.21l-.96.3Zm8.15-.18Zm4.47.18l-2.01-.42c-.57-.28-1.01-.67-1.32-1.17l-.47-1.08 1.32-.66.1.79c.38.69.65.97 1.01 1.18l.83.29c1.01 0 1.41-.07 1.74-.22l.59-.37.44-.85c0-.75-.09-1.08-.27-1.33l-.4-.47c-.6-.32-.95-.46-1.35-.58l-.8-.27c-1.26-.41-1.87-.76-2.26-1.19l-.59-.96c0-1.24.13-1.74.39-2.17l.65-.77c.99-.48 1.58-.61 2.26-.61l1.25.13c.99.5 1.38.84 1.66 1.28l.42.93-1.32.57-.07-.58-.53-.79c-.61-.37-.99-.46-1.45-.46l-.72.05-.82.47c-.33.5-.41.8-.41 1.16l.07.62.5.6c.55.28.87.41 1.24.53l.78.26c.96.32 1.41.53 1.8.78l.71.55c.45.76.57 1.25.57 1.84l-.14.97c-.53.89-.92 1.25-1.44 1.53l-1.96.42Zm4.23-.18Zm1.05 0V40.22h1.26v4.51c.25-.44.6-.8 1.05-1.06l.96-.39c1.12 0 1.62.12 2.05.36l.76.59c.46.96.58 1.56.58 2.29v4.5h-1.25V46.66c0-.76-.16-1.34-.48-1.72l-.78-.58c-1.04 0-1.43.11-1.78.31l-.61.52c-.4.78-.5 1.25-.5 1.82v4.01h-1.26Zm7.58 0Zm4.36.18l-1.34-.16c-1.09-.66-1.51-1.13-1.82-1.72l-.47-2.08c0-.8.15-1.49.45-2.08l.74-1.06c1.11-.66 1.75-.82 2.47-.82l1.37.16c1.03.66 1.42 1.1 1.69 1.64l.42 1.11c0 .75 0 .85 0 .96v.23l-6.19.15v-.98h4.96c-.03-.69-.26-1.23-.69-1.62l-.95-.58c-1.07 0-1.47.09-1.84.3l-.65.47c-.44.75-.55 1.22-.55 1.78v.41c0 .63.11 1.14.33 1.57l.53.73c.73.42 1.12.52 1.54.52l.97-.11c.69-.47.94-.79 1.09-1.19h1.24l-.33.86c-.6.72-.97 1-1.42 1.21l-.96.3Zm4.16-.18Zm4.37.18l-1.34-.16c-1.09-.66-1.52-1.13-1.83-1.72l-.46-2.08c0-.8.15-1.49.45-2.08l.74-1.06c1.11-.66 1.75-.82 2.47-.82l1.36.16c1.03.66 1.43 1.1 1.7 1.64l.42 1.11c0 .75 0 .85 0 .96l-.01.23-6.19.15v-.98h4.97c-.03-.69-.26-1.23-.69-1.62l-.95-.58c-1.07 0-1.47.09-1.84.3l-.65.47c-.44.75-.55 1.22-.55 1.78v.41c0 .63.11 1.14.33 1.57l.52.73c.73.42 1.13.52 1.55.52l.96-.11c.69-.47.94-.79 1.09-1.19h1.25l-.33.86c-.6.72-.98 1-1.43 1.21l-.95.3Zm3.91-.18Zm4.02 0l-.84-.07c-.66-.28-.92-.51-1.1-.85l-.25-.79V44.53h-1.32V43.46h1.32l.16-1.83h1.1v1.83h2.19v1.07h-2.19v4.21c0 .47.09.79.28.96l.53.24h1.29v1.08h-1.17Zm1.85 0Zm3.9.18l-1.18-.1c-.93-.43-1.3-.72-1.58-1.09l-.43-.82 1.23-.51.15.5.54.62c.55.27.89.33 1.29.33l.64-.04.63-.36.29-.56-.08-.75-.5-.44-.9-.28c-.73-.13-1.05-.21-1.37-.31l-.61-.23-.7-.53-.36-.78c0-.78.11-1.16.33-1.49l.54-.61c.83-.37 1.31-.47 1.86-.47.81 0 1.47.19 1.97.59l.79.95-1.15.74-.22-.68c-.55-.43-.92-.53-1.4-.53l-.83.09-.61.63.06.69.47.44.86.31c.89.16 1.35.28 1.76.43l.74.38c.51.59.64 1 .64 1.54l-.12.88c-.47.7-.8.98-1.23 1.17l-.94.29Zm7.62-.18Zm1.05 3.3V43.46h1.14l.1 1.23.37-.46.8-.61c.7-.27 1.1-.34 1.55-.34l1.38.17c1.09.71 1.51 1.18 1.81 1.78l.47 2.03c0 .75-.16 1.43-.47 2.03l-.72 1.06c-1.1.68-1.75.85-2.49.85l-1.15-.13c-.93-.5-1.28-.84-1.53-1.29v4.54h-1.26Zm3.81-4.22l.92-.12c.76-.47 1.06-.81 1.27-1.22l.33-.94c0-1.15-.11-1.65-.33-2.08l-.51-.76c-.76-.48-1.19-.6-1.68-.6l-.94.12c-.76.48-1.06.81-1.27 1.24l-.31.93c0 1.15.1 1.65.31 2.09l.51.75c.76.47 1.2.59 1.7.59Zm4.53.92Zm4.42.18l-1.33-.16c-1.12-.65-1.56-1.11-1.88-1.7l-.48-2.08c0-.82.16-1.51.48-2.1l.78-1.06c1.13-.66 1.76-.82 2.46-.82l1.36.16c1.11.66 1.55 1.12 1.87 1.72l.49 2.08c0 .8-.16 1.5-.49 2.1l-.78 1.05c-1.12.65-1.76.81-2.48.81Zm.02-1.08l.83-.11c.74-.42 1.04-.75 1.27-1.18l.34-.96c0-1.27-.11-1.8-.34-2.22l-.52-.75c-.73-.43-1.13-.54-1.57-.54l-.82.11c-.75.43-1.05.75-1.28 1.18l-.33.95c0 1.27.11 1.8.33 2.23l.53.76c.73.42 1.13.53 1.56.53Zm4.45.9Zm3.79.18l-1.09-.11c-.87-.46-1.2-.82-1.44-1.3l-.35-1.08V43.46h1.26v4.39c0 .75.17 1.32.5 1.7l.79.57c1.02 0 1.4-.1 1.74-.3l.61-.5c.39-.78.49-1.25.49-1.81V43.46h1.26v7.56h-1.14l-.08-1.32-.57.84c-.9.53-1.41.66-1.98.66Zm4.81-.18Zm1.05 0V43.46h1.14l.09 1.44.38-.63c.53-.48.85-.67 1.22-.8l.81-.19.48 1.32h-.46l-.63.05-.84.3c-.45.38-.62.64-.75.97l-.18.72v4.38h-1.26Zm8.48 0Zm1.17 0V43.46h1.26v7.56h-1.26Zm.63-9.17l-.46-.07-.41-.55.08-.69.54-.39.7.07.42.51-.08.71-.55.41Zm1.81 9.17Zm1.05 0V43.46h1.14l.06 1.32.58-.84c.89-.53 1.4-.66 1.97-.66l1.1.12c.86.47 1.19.83 1.43 1.3l.36 1.08v5.24h-1.26V46.64c0-.76-.17-1.33-.51-1.71l-.8-.57c-1.03 0-1.4.11-1.73.31l-.6.5c-.39.77-.48 1.24-.48 1.81v4.04h-1.26Zm7.41 0Zm3.23 0l-2.87-7.56h1.32l2.28 6.35 2.3-6.35h1.29l-2.87 7.56H341.9Zm4.68 0Zm1.17 0V43.46h1.26v7.56h-1.26Zm.63-9.17l-.46-.07-.41-.55.08-.69.54-.39.7.07.42.51-.08.71-.55.41Zm1.81 9.17Zm4.02 0l-.84-.07c-.66-.28-.92-.51-1.1-.85l-.25-.79V44.53H350.7V43.46h1.32l.16-1.83h1.1v1.83h2.19v1.07h-2.19v4.21c0 .47.09.79.28.96l.53.24h1.29v1.08h-1.17Zm1.64 0Zm4.37.18l-1.34-.16c-1.09-.66-1.52-1.13-1.83-1.72l-.46-2.08c0-.8.15-1.49.45-2.08l.74-1.06c1.11-.66 1.75-.82 2.47-.82l1.36.16c1.03.66 1.43 1.1 1.7 1.64l.42 1.11c0 .75 0 .85 0 .96l-.01.23-6.19.15v-.98h4.97c-.03-.69-.26-1.23-.69-1.62l-.95-.58c-1.07 0-1.47.09-1.84.3l-.65.47c-.44.75-.55 1.22-.55 1.78v.41c0 .63.11 1.14.33 1.57l.52.73c.73.42 1.13.52 1.55.52l.96-.11c.69-.47.94-.79 1.09-1.19h1.25l-.33.86c-.6.72-.98 1-1.43 1.21l-.95.3Zm4.16-.18Zm1.05 0V43.46h1.14l.09 1.44.38-.63c.53-.48.85-.67 1.22-.8l.81-.19.48 1.32h-.46l-.63.05-.84.3c-.45.38-.62.64-.75.97l-.18.72v4.38h-1.26Zm8.49 0Zm4.38.18l-1.37-.17c-1.1-.69-1.53-1.16-1.83-1.77l-.45-2.04c0-.75.15-1.43.45-2.02l.73-1.07c1.11-.68 1.75-.85 2.48-.85l1.16.13c.93.5 1.29.85 1.54 1.29V40.22h1.26v10.8h-1.14l-.1-1.24-.37.48-.8.61c-.7.26-1.1.33-1.56.33Zm.15-1.1l.94-.12c.76-.47 1.05-.81 1.26-1.22l.32-.94c0-1.15-.11-1.65-.32-2.08l-.5-.76c-.76-.48-1.2-.6-1.7-.6l-.93.12c-.76.48-1.05.81-1.26 1.24l-.32.93c0 1.15.11 1.65.32 2.09l.5.75c.76.47 1.2.59 1.69.59Zm4.87.92Zm.77-8.26l-.2-3.07h1.25l-.18 3.07h-.87Zm1.62 8.26Zm3.51.18l-1.12-.1c-.82-.44-1.13-.72-1.33-1.07l-.3-.75c0-.93.13-1.36.39-1.71l.65-.63c.97-.37 1.54-.46 2.2-.46h2c0-.47-.08-.86-.23-1.17l-.35-.56-.89-.4c-.89 0-1.3.12-1.65.35l-.57.6-1.37.47.24-.99c.61-.73 1-1.01 1.47-1.2l.96-.3c1.21 0 1.79.13 2.25.39l.82.61c.46.91.58 1.44.58 2.06v4.68h-1.13l-.07-1.33-.23.41-.49.53-.66.37-.83.2Zm.19-1.07l.67-.06.81-.5c.4-.5.55-.79.65-1.1l.17-.63v-.39h-1.89c-.49 0-.89.06-1.19.18l-.51.27-.33.64.06.77.44.55.78.27Zm4.46.89Zm3.79.18l-1.09-.11c-.87-.46-1.2-.82-1.44-1.3l-.35-1.08V43.46h1.26v4.39c0 .75.17 1.32.5 1.7l.79.57c1.02 0 1.4-.1 1.74-.3l.61-.5c.39-.78.49-1.25.49-1.81V43.46h1.26v7.56h-1.14l-.08-1.32-.57.84c-.9.53-1.41.66-1.98.66Zm4.81-.18Zm4.02 0l-.84-.07c-.66-.28-.92-.51-1.1-.85l-.25-.79V44.53h-1.32V43.46h1.32l.16-1.83h1.1v1.83h2.19v1.07h-2.19v4.21c0 .47.09.79.28.96l.53.24h1.29v1.08h-1.17Zm1.85 0Zm1.05 0V43.46h1.14l.09 1.44.38-.63c.53-.48.85-.67 1.22-.8l.81-.19.48 1.32h-.46l-.63.05-.84.3c-.45.38-.62.64-.75.97l-.18.72v4.38h-1.26Zm4.22 0Zm4.37.18l-1.34-.16c-1.09-.66-1.52-1.13-1.83-1.72l-.46-2.08c0-.8.15-1.49.45-2.08l.74-1.06c1.11-.66 1.75-.82 2.47-.82l1.36.16c1.03.66 1.43 1.1 1.7 1.64l.42 1.11c0 .75 0 .85 0 .96l-.01.23-6.19.15v-.98h4.97c-.03-.69-.26-1.23-.69-1.62l-.95-.58c-1.07 0-1.47.09-1.84.3l-.65.47c-.44.75-.55 1.22-.55 1.78v.41c0 .63.11 1.14.33 1.57l.52.73c.73.42 1.13.52 1.55.52l.96-.11c.69-.47.94-.79 1.09-1.19h1.25l-.33.86c-.6.72-.98 1-1.43 1.21l-.95.3Zm4.16-.18Zm3.9.18l-1.18-.1c-.93-.43-1.3-.72-1.58-1.09l-.44-.82 1.23-.51.16.5.53.62c.55.27.89.33 1.29.33l.64-.04.63-.36.29-.56-.07-.75-.5-.44-.9-.28c-.73-.13-1.06-.21-1.38-.31l-.6-.23-.7-.53-.36-.78c0-.78.11-1.16.33-1.49l.53-.61c.83-.37 1.32-.47 1.87-.47.81 0 1.46.19 1.96.59l.8.95-1.16.74-.21-.68c-.55-.43-.93-.53-1.41-.53l-.83.09-.61.63.07.69.47.44.86.31c.89.16 1.34.28 1.75.43l.74.38c.51.59.64 1 .64 1.54l-.12.88c-.47.7-.8.98-1.23 1.17l-.93.29Zm7.61-.18Zm1.05 3.3V43.46h1.14l.11 1.23.36-.46.8-.61c.7-.27 1.1-.34 1.55-.34l1.38.17c1.09.71 1.52 1.18 1.82 1.78l.46 2.03c0 .75-.15 1.43-.46 2.03l-.73 1.06c-1.1.68-1.74.85-2.48.85l-1.15-.13c-.93-.5-1.29-.84-1.54-1.29v4.54H434.7Zm3.81-4.22l.93-.12c.76-.47 1.05-.81 1.26-1.22l.33-.94c0-1.15-.11-1.65-.33-2.08l-.5-.76c-.76-.48-1.2-.6-1.69-.6l-.94.12c-.76.48-1.05.81-1.26 1.24l-.32.93c0 1.15.11 1.65.32 2.09l.5.75c.76.47 1.2.59 1.7.59Zm4.53.92Zm4.37.18l-1.34-.16c-1.09-.66-1.52-1.13-1.83-1.72l-.46-2.08c0-.8.15-1.49.45-2.08l.74-1.06c1.11-.66 1.75-.82 2.47-.82l1.36.16c1.03.66 1.43 1.1 1.7 1.64l.42 1.11c0 .75 0 .85 0 .96l-.01.23-6.19.15v-.98h4.97c-.03-.69-.26-1.23-.69-1.62l-.95-.58c-1.07 0-1.47.09-1.84.3l-.65.47c-.44.75-.55 1.22-.55 1.78v.41c0 .63.11 1.14.33 1.57l.52.73c.73.42 1.13.52 1.55.52l.96-.11c.69-.47.94-.79 1.09-1.19h1.25l-.33.86c-.6.72-.98 1-1.43 1.21l-.95.3Zm4.16-.18Zm1.05 0V43.46h1.14l.09 1.44.38-.63c.53-.48.85-.67 1.22-.8l.81-.19.48 1.32h-.46l-.63.05-.84.3c-.45.38-.62.64-.75.97l-.18.72v4.38h-1.26Zm4.5 0Zm3.9.18l-1.18-.1c-.93-.43-1.3-.72-1.58-1.09l-.44-.82 1.23-.51.16.5.53.62c.55.27.89.33 1.29.33l.64-.04.63-.36.29-.56-.07-.75-.5-.44-.9-.28c-.73-.13-1.06-.21-1.38-.31l-.6-.23-.7-.53-.36-.78c0-.78.11-1.16.33-1.49l.53-.61c.83-.37 1.32-.47 1.87-.47.81 0 1.46.19 1.96.59l.8.95-1.16.74-.21-.68c-.55-.43-.93-.53-1.41-.53l-.83.09-.61.63.07.69.47.44.86.31c.89.16 1.34.28 1.75.43l.74.38c.51.59.64 1 .64 1.54l-.12.88c-.47.7-.8.98-1.23 1.17l-.93.29Zm3.63-.18Zm4.42.18l-1.33-.16c-1.12-.65-1.56-1.11-1.88-1.7l-.48-2.08c0-.82.16-1.51.48-2.1l.78-1.06c1.13-.66 1.76-.82 2.46-.82l1.36.16c1.11.66 1.55 1.12 1.87 1.72l.49 2.08c0 .8-.16 1.5-.49 2.1l-.78 1.05c-1.12.65-1.76.81-2.48.81Zm.02-1.08l.83-.11c.74-.42 1.04-.75 1.27-1.18l.34-.96c0-1.27-.11-1.8-.34-2.22l-.52-.75c-.73-.43-1.13-.54-1.57-.54l-.82.11c-.75.43-1.05.75-1.28 1.18l-.33.95c0 1.27.11 1.8.33 2.23l.53.76c.73.42 1.13.53 1.56.53Zm4.45.9Zm1.05 0V43.46h1.14l.06 1.32.58-.84c.89-.53 1.4-.66 1.97-.66l1.1.12c.86.47 1.2.83 1.44 1.3l.36 1.08v5.24h-1.26V46.64c0-.76-.17-1.33-.51-1.71l-.8-.57c-1.03 0-1.41.11-1.74.31l-.59.5c-.39.77-.49 1.24-.49 1.81v4.04h-1.26Zm7.56 0Zm1.05 0V43.46h1.14l.06 1.32.58-.84c.89-.53 1.4-.66 1.97-.66l1.1.12c.86.47 1.2.83 1.44 1.3l.36 1.08v5.24h-1.26V46.64c0-.76-.17-1.33-.51-1.71l-.8-.57c-1.03 0-1.41.11-1.74.31l-.59.5c-.39.77-.49 1.24-.49 1.81v4.04H483.2Zm7.57 0Zm4.36.18l-1.34-.16c-1.09-.66-1.51-1.13-1.82-1.72l-.47-2.08c0-.8.15-1.49.45-2.08l.74-1.06c1.11-.66 1.75-.82 2.47-.82l1.37.16c1.03.66 1.42 1.1 1.69 1.64l.42 1.11c0 .75 0 .85 0 .96v.23l-6.19.15v-.98h4.96c-.03-.69-.26-1.23-.69-1.62l-.95-.58c-1.07 0-1.47.09-1.84.3l-.65.47c-.44.75-.55 1.22-.55 1.78v.41c0 .63.11 1.14.33 1.57l.53.73c.73.42 1.12.52 1.54.52l.97-.11c.69-.47.94-.79 1.09-1.19h1.24l-.33.86c-.6.72-.97 1-1.42 1.21l-.96.3Zm4.16-.18Zm3.9.18l-1.18-.1c-.93-.43-1.3-.72-1.58-1.09l-.43-.82 1.23-.51.15.5.54.62c.55.27.89.33 1.29.33l.64-.04.63-.36.29-.56-.08-.75-.5-.44-.9-.28c-.73-.13-1.05-.21-1.37-.31l-.61-.23-.7-.53-.36-.78c0-.78.11-1.16.33-1.49l.54-.61c.83-.37 1.31-.47 1.86-.47.81 0 1.47.19 1.97.59l.79.95-1.15.74-.22-.68c-.55-.43-.92-.53-1.4-.53l-.83.09-.61.63.06.69.47.44.86.31c.89.16 1.35.28 1.76.43l.74.38c.51.59.64 1 .64 1.54l-.12.88c-.47.7-.8.98-1.23 1.17l-.94.29Zm3.63-.18Zm1.5.08l-.46-.09-.41-.53.08-.68.54-.42.71.09.4.53-.08.69-.53.41Zm0 0" clip-path="url(#b)" opacity="0.8" stroke="none"/></g></g></svg>