<?xml version="1.0" encoding="UTF-8" standalone="no"?><svg xmlns="http://www.w3.org/2000/svg" xmlns:xlink="http://www.w3.org/1999/xlink" contentScriptType="text/ecmascript" zoomAndPan="magnify" contentStyleType="text/css" stroke="#000000" stroke-linecap="square" version="1" width="326" stroke-miterlimit="10" fill="#000000" preserveAspectRatio="xMidYMid meet" viewBox="0 0 325.51 239.32" height="239"><defs><clipPath id="a"><path d="M0 0V239.32H325.51V0Z"/></clipPath><clipPath id="b" clip-path="url(#a)"><path d="M-420 1940.03H1020v-2184H-420Z"/></clipPath></defs><g><g fill="#ffffff" stroke="#ffffff"><path d="M0 11.03Zm1.13 0V.53H4.82c.73 0 1.35.12 1.82.36l.86.55c.48.81.6 1.26.6 1.76l-.12.99c-.47.72-.78.99-1.15 1.18l-.77.31-.21-.11.86.13c.77.46 1.06.77 1.28 1.16l.35.82c0 1.01-.13 1.5-.39 1.94l-.65.77c-1 .52-1.63.64-2.37.64H1.13ZM2.39 9.98H4.8c.71 0 1.26-.17 1.65-.5l.6-.8c0-1.2-.2-1.67-.62-2.01l-.95-.55H2.39V9.98Zm0-4.86H4.73c.67 0 1.19-.16 1.54-.48l.54-.76c0-1.08-.18-1.5-.54-1.82l-.88-.48h-3V5.12Zm6.65 5.91Zm4.42.18l-1.33-.16c-1.12-.65-1.56-1.11-1.88-1.7L9.77 7.26c0-.81.16-1.51.48-2.09l.78-1.07c1.13-.65 1.76-.81 2.46-.81l1.36.16c1.11.65 1.55 1.11 1.87 1.72l.49 2.08c0 .8-.16 1.5-.49 2.1l-.78 1.05c-1.12.65-1.76.81-2.48.81Zm.02-1.08l.83-.11c.74-.43 1.04-.75 1.27-1.18l.34-.96c0-1.27-.11-1.8-.34-2.22l-.52-.75c-.73-.43-1.13-.54-1.57-.54l-.82.11c-.75.43-1.05.75-1.28 1.18l-.33.95c0 1.27.11 1.8.33 2.23l.53.75c.73.43 1.13.54 1.56.54Zm4.45.9Zm1.05 0V3.47h1.14l.06 1.32.58-.84c.89-.52 1.4-.66 1.97-.66l1.1.12c.86.47 1.19.82 1.43 1.3l.36 1.08v5.24H24.36V6.65c0-.76-.17-1.33-.51-1.71l-.8-.57c-1.03 0-1.4.1-1.73.31l-.6.5c-.39.77-.48 1.25-.48 1.81v4.04H18.98Zm7.56 0Zm-.4 3.3V13.25h.58l.65-.08.4-.57V3.47h1.26v8.79c0 .48-.08.87-.24 1.17l-.4.53c-.63.29-1.01.37-1.47.37h-.78ZM28.42 1.86l-.46-.07-.41-.55.08-.7.54-.38.69.07.41.51-.08.71-.53.41Zm1.77 9.17Zm4.43.18l-1.33-.16c-1.12-.65-1.56-1.11-1.88-1.7l-.48-2.09c0-.81.16-1.51.48-2.09l.77-1.07c1.13-.65 1.77-.81 2.47-.81L36 3.45c1.11.65 1.55 1.11 1.87 1.72l.5 2.08c0 .8-.17 1.5-.5 2.1L37.1 10.4c-1.12.65-1.76.81-2.48.81Zm.01-1.08l.83-.11c.74-.43 1.04-.75 1.27-1.18l.35-.96c0-1.27-.12-1.8-.35-2.22l-.51-.75c-.73-.43-1.13-.54-1.57-.54l-.82.11c-.75.43-1.05.75-1.28 1.18l-.33.95c0 1.27.11 1.8.33 2.23l.52.75c.73.43 1.13.54 1.56.54Zm4.45.9Zm3.8.18l-1.09-.12c-.87-.46-1.21-.81-1.45-1.29L40 8.72V3.47h1.26V7.86c0 .75.16 1.32.49 1.7l.8.57c1.02 0 1.4-.1 1.74-.3l.6-.51c.39-.77.49-1.24.49-1.8V3.47h1.26v7.56H45.5l-.07-1.32-.57.84c-.9.53-1.41.66-1.98.66Zm4.8-.18Zm1.05 0V3.47h1.14l.09 1.44.39-.63c.53-.48.85-.67 1.22-.8l.81-.19.48 1.32h-.47l-.62.05-.84.3c-.45.38-.63.64-.76.97l-.18.72v4.38H48.73Zm8.49 0Zm1.12 0V.53H59.6v9.49h4.89v1.01H58.34Zm6.46 0Zm4.37.18l-1.34-.17c-1.09-.66-1.52-1.11-1.83-1.71l-.46-2.08c0-.8.15-1.5.45-2.08l.74-1.06c1.11-.66 1.75-.82 2.47-.82l1.36.16c1.03.66 1.43 1.1 1.7 1.64l.42 1.11c0 .74 0 .85 0 .96l-.01.23-6.19.15V6.56h4.97c-.03-.69-.26-1.23-.69-1.62l-.95-.59c-1.07 0-1.47.1-1.84.31l-.65.47c-.44.75-.55 1.21-.55 1.78v.41l.11 1.14c.45.84.74 1.16 1.1 1.37l.77.31c.95 0 1.38-.11 1.72-.34l.6-.56 1.4-.4-.33.85c-.6.73-.98 1.01-1.43 1.22l-.95.3Zm-1.5-8.39l-.14-.89L70.55 0l.18 1.08-3.06 1.74Zm5.66 8.21Zm4.43.18l-1.33-.16c-1.12-.65-1.56-1.11-1.88-1.7l-.48-2.09c0-.81.16-1.51.48-2.09l.77-1.07c1.13-.65 1.77-.81 2.47-.81l1.35.16c1.11.65 1.55 1.11 1.87 1.72l.5 2.08c0 .8-.17 1.5-.5 2.1l-.77 1.05c-1.12.65-1.76.81-2.48.81Zm.01-1.08l.83-.11c.74-.43 1.04-.75 1.27-1.18l.35-.96c0-1.27-.12-1.8-.35-2.22l-.51-.75c-.73-.43-1.13-.54-1.57-.54l-.82.11c-.75.43-1.05.75-1.28 1.18l-.33.95c0 1.27.11 1.8.33 2.23l.52.75c.73.43 1.13.54 1.56.54Zm27.42.9Zm3.47.18l-1.18-.12c-.91-.48-1.26-.83-1.51-1.28l-.36-.98 1.28-.62.05.67.42.8c.51.32.85.4 1.28.4l.75-.08.67-.53.26-.87V.53h1.26V8.25c0 .94-.26 1.68-.78 2.19-.51.51-1.22.77-2.14.77Zm4.05-.18Zm4.36.18l-1.34-.17c-1.09-.66-1.51-1.11-1.82-1.71l-.47-2.08c0-.8.15-1.5.45-2.08l.74-1.06c1.11-.66 1.75-.82 2.47-.82l1.37.16c1.03.66 1.42 1.1 1.69 1.64l.42 1.11c0 .74 0 .85 0 .96v.23l-6.19.15V6.56h4.96c-.03-.69-.26-1.23-.69-1.62l-.95-.59c-1.07 0-1.47.1-1.84.31l-.65.47c-.44.75-.55 1.21-.55 1.78v.41l.11 1.14c.45.84.75 1.16 1.11 1.37l.76.31c.95 0 1.39-.11 1.73-.34l.6-.56 1.39-.4-.33.85c-.6.73-.97 1.01-1.42 1.22l-.96.3Zm8.14-.18Zm3.9.18l-1.18-.11c-.93-.42-1.3-.71-1.58-1.08l-.43-.82 1.23-.51.15.5.54.62c.55.27.89.33 1.29.33l.64-.05.63-.35.29-.56-.08-.75-.5-.45-.9-.27c-.73-.13-1.05-.21-1.37-.31l-.61-.23-.7-.54-.36-.77c0-.78.11-1.16.33-1.49l.54-.61c.83-.38 1.31-.47 1.86-.47.81 0 1.47.19 1.97.58l.79.96-1.15.74-.22-.68c-.55-.43-.92-.54-1.4-.54l-.83.1-.61.63.06.69.47.44.86.31c.89.16 1.35.28 1.76.43l.74.37c.51.6.64 1.01.64 1.55l-.12.88c-.47.7-.8.97-1.23 1.18l-.94.28Zm3.63-.18Zm3.8.18l-1.09-.12c-.87-.46-1.21-.81-1.45-1.29l-.34-1.08V3.47h1.26V7.86c0 .75.16 1.32.49 1.7l.8.57c1.02 0 1.4-.1 1.74-.3l.6-.51c.39-.77.49-1.24.49-1.8V3.47h1.26v7.56h-1.14l-.07-1.32-.57.84c-.9.53-1.41.66-1.98.66Zm4.8-.18Zm1.17 0V3.47h1.26v7.56h-1.26Zm.63-9.17l-.46-.07-.41-.55.08-.7.54-.38.7.07.42.51-.08.71-.55.41Zm1.81 9.17Zm3.9.18l-1.18-.11c-.93-.42-1.3-.71-1.58-1.08l-.44-.82 1.23-.51.16.5.53.62c.55.27.89.33 1.29.33l.64-.05.63-.35.29-.56-.07-.75-.5-.45-.9-.27c-.73-.13-1.06-.21-1.38-.31l-.6-.23-.7-.54-.36-.77c0-.78.11-1.16.33-1.49l.53-.61c.83-.38 1.32-.47 1.87-.47.81 0 1.46.19 1.96.58l.8.96-1.16.74-.21-.68c-.55-.43-.93-.54-1.41-.54l-.83.1-.61.63.07.69.47.44.86.31c.89.16 1.34.28 1.75.43l.74.37c.51.6.64 1.01.64 1.55l-.12.88c-.47.7-.8.97-1.23 1.18l-.93.28Zm7.61-.18Zm3.22 0l-2.86-7.56h1.32l2.28 6.34 2.29-6.34H164l-2.86 7.56h-1.46Zm4.31 0Zm4.42.18l-1.33-.16c-1.12-.65-1.56-1.11-1.88-1.7l-.48-2.09c0-.81.16-1.51.48-2.09l.78-1.07c1.13-.65 1.76-.81 2.46-.81l1.36.16c1.11.65 1.55 1.11 1.87 1.72l.49 2.08c0 .8-.16 1.5-.49 2.1l-.78 1.05c-1.12.65-1.76.81-2.48.81Zm.02-1.08l.83-.11c.74-.43 1.04-.75 1.27-1.18l.34-.96c0-1.27-.11-1.8-.34-2.22l-.52-.75c-.73-.43-1.13-.54-1.57-.54l-.82.11c-.75.43-1.05.75-1.28 1.18l-.33.95c0 1.27.11 1.8.33 2.23l.53.75c.73.43 1.13.54 1.56.54Zm4.16.9Zm4.02 0l-.84-.07c-.66-.28-.92-.52-1.1-.85l-.25-.79V4.54H173.1V3.47h1.32l.16-1.83h1.1V3.47h2.19V4.54h-2.19V8.75c0 .47.09.79.28.96l.53.24h1.29v1.08h-1.17Zm1.85 0Zm1.05 0V3.47h1.14l.09 1.44.39-.63c.53-.48.85-.67 1.22-.8l.81-.19.48 1.32h-.47l-.62.05-.84.3c-.45.38-.63.64-.76.97l-.18.72v4.38h-1.26Zm4.23 0Zm4.36.18l-1.34-.17c-1.09-.66-1.51-1.11-1.82-1.71l-.47-2.08c0-.8.15-1.5.45-2.08l.74-1.06c1.11-.66 1.75-.82 2.47-.82l1.37.16c1.03.66 1.42 1.1 1.69 1.64l.42 1.11c0 .74 0 .85 0 .96v.23l-6.19.15V6.56h4.96c-.03-.69-.26-1.23-.69-1.62l-.95-.59c-1.07 0-1.47.1-1.84.31l-.65.47c-.44.75-.55 1.21-.55 1.78v.41l.11 1.14c.45.84.75 1.16 1.11 1.37l.76.31c.95 0 1.39-.11 1.73-.34l.6-.56 1.39-.4-.33.85c-.6.73-.97 1.01-1.42 1.22l-.96.3Zm8.15-.18Zm.45 0L200.57.53h1.33l3.86 10.5h-1.34L201.23 2.1l-3.21 8.93H196.7Zm1.77-2.7l.36-1.02h4.75l.36 1.02h-5.47Zm7.74 2.7Zm4.03 3.48l-1.28-.09c-1.05-.35-1.46-.62-1.75-.98l-.43-.8c0-.76.04-1.01.13-1.27l.27-.51c.47-.5.8-.73 1.23-.93l.87.51-.87.48c-.32.56-.4.83-.4 1.07l.09.6.65.61c.68.22 1.06.27 1.49.27l.8-.05.86-.42.43-.7-.13-.94c-.52-.47-1.02-.61-1.75-.65l-1.08-.09c-.8-.14-1.13-.22-1.39-.31l-.48-.21-.51-.37-.14-.47 1.46-1.44 1.09.39-1.5 1.35.2-.52.21.15.34.2.57.15c.61.07 1.02.12 1.52.15l1.24.17c.83.38 1.13.64 1.31.96l.28.7c0 .87-.12 1.27-.36 1.66l-.59.7c-.98.5-1.61.63-2.38.63Zm-.01-5.85l-1.17-.12c-.89-.48-1.23-.8-1.46-1.2l-.34-.87c0-1 .11-1.45.34-1.85l.58-.71c.88-.49 1.42-.62 2.05-.62l1.16.13c.88.49 1.22.8 1.45 1.2l.34.85c0 1-.11 1.46-.34 1.87l-.57.72c-.88.48-1.41.6-2.04.6Zm0-1.04l.96-.14c.62-.55.78-.97.78-1.51l-.16-.93c-.62-.56-1.04-.7-1.58-.7l-.96.14c-.65.56-.81.96-.81 1.49l.16.96c.64.55 1.07.69 1.61.69Zm1.23-3.08l-.38-1.07h3.09v.95l-2.71.12Zm2.82 6.49Zm4.36.18l-1.34-.17c-1.09-.66-1.51-1.11-1.82-1.71l-.47-2.08c0-.8.15-1.5.45-2.08l.74-1.06c1.11-.66 1.75-.82 2.47-.82l1.37.16c1.03.66 1.42 1.1 1.69 1.64l.42 1.11c0 .74 0 .85 0 .96v.23l-6.19.15V6.56h4.96c-.03-.69-.26-1.23-.69-1.62l-.95-.59c-1.07 0-1.47.1-1.84.31l-.65.47c-.44.75-.55 1.21-.55 1.78v.41l.11 1.14c.45.84.75 1.16 1.11 1.37l.76.31c.95 0 1.39-.11 1.73-.34l.6-.56 1.39-.4-.33.85c-.6.73-.97 1.01-1.42 1.22l-.96.3Zm4.16-.18Zm1.05 0V3.47h1.14l.06 1.32.58-.84c.89-.52 1.4-.66 1.97-.66l1.1.12c.86.47 1.2.82 1.44 1.3l.36 1.08v5.24h-1.26V6.65c0-.76-.17-1.33-.51-1.71l-.8-.57c-1.03 0-1.41.1-1.74.31l-.59.5c-.39.77-.49 1.25-.49 1.81v4.04h-1.26Zm7.57 0Zm4.02 0l-.84-.07c-.66-.28-.92-.52-1.1-.85l-.25-.79V4.54h-1.32V3.47h1.32l.16-1.83h1.1V3.47h2.19V4.54h-2.19V8.75c0 .47.09.79.28.96l.53.24h1.29v1.08h-1.17Zm5.83 0Zm4.47.18l-2.01-.42c-.57-.28-1.01-.67-1.32-1.17l-.46-1.08 1.32-.66.09.79c.38.69.66.96 1.02 1.17l.82.3c1.01 0 1.41-.07 1.74-.22l.6-.38.44-.84c0-.75-.09-1.08-.27-1.33l-.41-.47c-.6-.32-.95-.46-1.35-.58l-.8-.27c-1.26-.42-1.87-.76-2.26-1.19l-.58-.96c0-1.24.13-1.74.39-2.17l.65-.77c.99-.49 1.58-.61 2.26-.61l1.25.12c.99.5 1.38.85 1.66 1.29l.42.93-1.32.57-.08-.58-.53-.79c-.61-.37-.99-.46-1.45-.46l-.72.05-.82.46c-.33.5-.41.81-.41 1.17l.07.61.5.6c.55.29.88.42 1.25.54l.78.26c.96.32 1.41.53 1.8.78l.71.55c.45.76.56 1.24.56 1.84l-.13.97c-.53.89-.92 1.25-1.44 1.53l-1.97.42Zm4.24-.18Zm3.79.18l-1.09-.12c-.87-.46-1.2-.81-1.44-1.29l-.35-1.08V3.47h1.26V7.86c0 .75.17 1.32.5 1.7l.79.57c1.02 0 1.4-.1 1.74-.3l.61-.51c.39-.77.49-1.24.49-1.8V3.47h1.26v7.56H256.4l-.08-1.32-.57.84c-.9.53-1.41.66-1.98.66Zm4.8-.18Zm1.05 3.3V3.47h1.14l.11 1.23.36-.47.8-.6c.7-.27 1.1-.34 1.55-.34l1.38.17c1.09.71 1.52 1.18 1.82 1.78l.46 2.02c0 .76-.15 1.44-.46 2.04l-.73 1.06c-1.1.68-1.74.85-2.48.85l-1.15-.13c-.93-.5-1.29-.85-1.54-1.29v4.54h-1.26Zm3.81-4.22l.93-.12c.76-.48 1.05-.81 1.26-1.23l.33-.93c0-1.15-.11-1.65-.33-2.08l-.5-.77c-.76-.48-1.2-.6-1.69-.6l-.94.12c-.76.48-1.05.82-1.26 1.25l-.32.93c0 1.15.11 1.65.32 2.08l.5.75c.76.48 1.2.6 1.7.6Zm4.53.92Zm4.37.18l-1.34-.17c-1.09-.66-1.52-1.11-1.83-1.71l-.46-2.08c0-.8.15-1.5.45-2.08l.74-1.06c1.11-.66 1.75-.82 2.47-.82l1.36.16c1.03.66 1.43 1.1 1.7 1.64l.42 1.11c0 .74 0 .85 0 .96l-.01.23-6.19.15V6.56h4.97c-.03-.69-.26-1.23-.69-1.62l-.95-.59c-1.07 0-1.47.1-1.84.31l-.65.47c-.44.75-.55 1.21-.55 1.78v.41l.11 1.14c.45.84.74 1.16 1.1 1.37l.77.31c.95 0 1.38-.11 1.72-.34l.6-.56 1.4-.4-.33.85c-.6.73-.98 1.01-1.43 1.22l-.95.3Zm4.16-.18Zm1.05 0V3.47h1.14l.09 1.44.38-.63c.53-.48.85-.67 1.22-.8l.81-.19.48 1.32h-.46l-.63.05-.84.3c-.45.38-.62.64-.75.97l-.18.72v4.38h-1.26Zm4.5 0Zm3.23 0L282.4 3.47h1.32L286 9.81l2.3-6.34h1.29l-2.87 7.56h-1.45Zm4.68 0Zm1.17 0V3.47h1.26v7.56h-1.26Zm.63-9.17l-.46-.07-.41-.55.08-.7.54-.38.7.07.42.51-.08.71-.55.41Zm1.8 9.17Zm3.9.18l-1.18-.11c-.93-.42-1.3-.71-1.58-1.08l-.43-.82 1.23-.51.15.5.54.62c.55.27.89.33 1.29.33l.64-.05.63-.35.29-.56-.08-.75-.5-.45-.9-.27c-.73-.13-1.05-.21-1.37-.31l-.61-.23-.7-.54-.36-.77c0-.78.11-1.16.33-1.49l.54-.61c.83-.38 1.31-.47 1.86-.47.81 0 1.47.19 1.97.58l.79.96-1.15.74-.22-.68c-.55-.43-.92-.54-1.4-.54l-.83.1-.61.63.06.69.47.44.86.31c.89.16 1.35.28 1.76.43l.74.37c.51.6.64 1.01.64 1.55l-.12.88c-.47.7-.8.97-1.23 1.18l-.94.28Zm3.63-.18Zm4.37.18l-1.34-.17c-1.09-.66-1.52-1.11-1.83-1.71l-.46-2.08c0-.8.15-1.5.45-2.08l.74-1.06c1.11-.66 1.75-.82 2.47-.82l1.36.16c1.03.66 1.43 1.1 1.7 1.64l.42 1.11c0 .74 0 .85 0 .96l-.01.23-6.19.15V6.56h4.97c-.03-.69-.26-1.23-.69-1.62l-.95-.59c-1.07 0-1.47.1-1.84.31l-.65.47c-.44.75-.55 1.21-.55 1.78v.41l.11 1.14c.45.84.74 1.16 1.1 1.37l.77.31c.95 0 1.38-.11 1.72-.34l.6-.56 1.4-.4-.33.85c-.6.73-.98 1.01-1.43 1.22l-.95.3Zm4.16-.18Zm3.79.18l-1.09-.12c-.87-.46-1.2-.81-1.44-1.29l-.35-1.08V3.47h1.26V7.86c0 .75.17 1.32.5 1.7l.79.57c1.02 0 1.4-.1 1.74-.3l.61-.51c.39-.77.49-1.24.49-1.8V3.47h1.26v7.56h-1.14l-.08-1.32-.57.84c-.9.53-1.41.66-1.98.66Zm4.81-.18Zm1.05 0V3.47h1.14l.09 1.44.38-.63c.53-.48.85-.67 1.22-.8l.81-.19.48 1.32h-.46l-.63.05-.84.3c-.45.38-.62.64-.75.97l-.18.72v4.38h-1.26Zm3.9 0Zm1.5.07l-.46-.08-.41-.53.08-.68.54-.42.7.09.4.53-.08.68-.52.41ZM0 36.03Zm3.46.18l-1.17-.12c-.91-.48-1.26-.83-1.51-1.28l-.36-.98 1.28-.62.05.67.42.8c.5.32.85.4 1.28.4L4.2 35l.66-.53.27-.87V25.53H6.39v7.72c0 .94-.26 1.68-.78 2.19s-1.22.77-2.15.77Zm4.05-.18Zm4.37.18l-1.34-.17c-1.09-.66-1.52-1.11-1.83-1.71l-.46-2.08c0-.8.15-1.5.45-2.08l.74-1.06c1.11-.66 1.75-.82 2.47-.82l1.36.16c1.03.66 1.43 1.1 1.7 1.64l.42 1.11c0 .74 0 .85 0 .96l-.01.23-6.19.15v-.98h4.97c-.03-.69-.26-1.23-.69-1.62l-.95-.59c-1.07 0-1.47.1-1.84.31l-.65.47c-.44.75-.55 1.21-.55 1.78v.41l.11 1.14c.45.84.74 1.16 1.1 1.37l.77.31c.95 0 1.38-.11 1.72-.34l.6-.56 1.4-.4-.33.85c-.6.73-.98 1.01-1.43 1.22l-.95.3Zm8.14-.18Zm4.46.18l-1.35-.17c-1.13-.66-1.57-1.11-1.89-1.71l-.48-2.07c0-.8.16-1.49.48-2.08L22 29.13c1.13-.67 1.77-.84 2.48-.84.9 0 1.65.23 2.25.7s.98 1.08 1.14 1.86H26.58c-.1-.47-.35-.83-.74-1.09l-.85-.39c-.96 0-1.36.11-1.73.33l-.66.53c-.44.86-.55 1.39-.55 2.02l.06.89c.26.73.44 1.03.66 1.27l.47.42.9.31c.68 0 1.01-.05 1.3-.16l.53-.3.54-.73 1.36-.31-.55 1.38c-1.21.95-1.95 1.19-2.84 1.19Zm4.13-.18Zm4.42.18l-1.33-.16c-1.12-.65-1.56-1.11-1.88-1.7l-.48-2.09c0-.81.16-1.51.48-2.09l.78-1.07c1.13-.65 1.76-.81 2.46-.81l1.36.16c1.11.65 1.55 1.11 1.87 1.72l.49 2.08c0 .8-.16 1.5-.49 2.1l-.78 1.05c-1.12.65-1.76.81-2.48.81Zm.02-1.08l.83-.11c.74-.43 1.04-.75 1.27-1.18l.34-.96c0-1.27-.11-1.8-.34-2.22l-.52-.75c-.73-.43-1.13-.54-1.57-.54l-.82.11c-.75.43-1.05.75-1.28 1.18l-.33.95c0 1.27.11 1.8.33 2.23l.53.75c.73.43 1.13.54 1.56.54Zm4.45.9Zm4.42.18l-1.32-.16c-1.12-.65-1.56-1.11-1.89-1.7l-.48-2.09c0-.81.16-1.51.48-2.09l.78-1.07c1.13-.65 1.77-.81 2.47-.81l1.35.16c1.11.65 1.55 1.11 1.87 1.72l.49 2.08c0 .8-.16 1.5-.49 2.1L44.4 35.4c-1.11.65-1.76.81-2.48.81Zm.02-1.08l.83-.11c.74-.43 1.04-.75 1.27-1.18l.35-.96c0-1.27-.12-1.8-.35-2.22l-.52-.75c-.72-.43-1.13-.54-1.56-.54l-.82.11c-.75.43-1.06.75-1.28 1.18l-.34.95c0 1.27.12 1.8.34 2.23l.52.75c.73.43 1.13.54 1.56.54Zm4.45.9Zm1.05 0V28.47h1.14l.09 1.44.39-.63c.53-.48.85-.67 1.22-.8l.81-.19.48 1.32H51.1l-.62.05-.84.3c-.45.38-.63.64-.76.97l-.18.72v4.38H47.44Zm4.23 0Zm4.38.18l-1.37-.17c-1.1-.69-1.53-1.17-1.83-1.77l-.45-2.04c0-.76.15-1.43.45-2.02l.73-1.07c1.11-.68 1.75-.85 2.48-.85l1.16.13c.93.5 1.29.84 1.54 1.29V25.23h1.26v10.8H58.88l-.1-1.24-.37.48-.8.6c-.7.27-1.1.34-1.56.34Zm.15-1.1l.94-.12c.76-.48 1.05-.81 1.26-1.23l.32-.93c0-1.15-.11-1.65-.32-2.08l-.5-.77c-.76-.48-1.2-.6-1.7-.6l-.93.12c-.76.48-1.05.82-1.26 1.25l-.32.93c0 1.15.11 1.65.32 2.08l.5.75c.76.48 1.2.6 1.69.6Zm4.87.92Zm4.42.18l-1.33-.16c-1.12-.65-1.56-1.11-1.88-1.7l-.48-2.09c0-.81.16-1.51.48-2.09l.78-1.07c1.13-.65 1.76-.81 2.46-.81l1.36.16c1.11.65 1.55 1.11 1.87 1.72l.49 2.08c0 .8-.16 1.5-.49 2.1l-.78 1.05c-1.12.65-1.76.81-2.48.81Zm.02-1.08l.83-.11c.74-.43 1.04-.75 1.27-1.18l.34-.96c0-1.27-.11-1.8-.34-2.22l-.52-.75c-.73-.43-1.13-.54-1.57-.54l-.82.11c-.75.43-1.05.75-1.28 1.18l-.33.95c0 1.27.11 1.8.33 2.23l.53.75c.73.43 1.13.54 1.56.54Zm4.45.9Zm1.05 0V28.47h1.14l.06 1.32.58-.84c.89-.52 1.4-.66 1.97-.66l1.1.12c.86.47 1.2.82 1.44 1.3l.36 1.08v5.24H76.4V31.65c0-.76-.17-1.33-.51-1.71l-.8-.57c-1.03 0-1.41.1-1.74.31l-.59.5c-.39.77-.49 1.25-.49 1.81v4.04H71.01Zm7.56 0Zm1.05 0V28.47h1.14l.06 1.32.58-.84c.89-.52 1.4-.66 1.97-.66l1.1.12c.86.47 1.2.82 1.44 1.3l.36 1.08v5.24H85.01V31.65c0-.76-.17-1.33-.51-1.71l-.8-.57c-1.03 0-1.41.1-1.74.31l-.59.5c-.39.77-.49 1.25-.49 1.81v4.04H79.62Zm7.57 0Zm4.36.18l-1.34-.17c-1.09-.66-1.51-1.11-1.82-1.71l-.47-2.08c0-.8.15-1.5.45-2.08l.74-1.06c1.11-.66 1.75-.82 2.47-.82l1.37.16c1.03.66 1.42 1.1 1.69 1.64l.42 1.11c0 .74 0 .85 0 .96v.23l-6.19.15v-.98h4.96c-.03-.69-.26-1.23-.69-1.62l-.95-.59c-1.07 0-1.47.1-1.84.31l-.65.47c-.44.75-.55 1.21-.55 1.78v.41l.11 1.14c.45.84.75 1.16 1.11 1.37l.76.31c.95 0 1.39-.11 1.73-.34l.6-.56 1.39-.4-.33.85c-.6.73-.97 1.01-1.42 1.22l-.96.3Zm8.15-.18Zm1.05 0V25.23h1.26v10.8h-1.26Zm2.29 0Zm.76-8.27l-.19-3.06h1.24l-.18 3.06h-.87Zm.98 8.27Zm4.37.18l-1.34-.17c-1.09-.66-1.52-1.11-1.83-1.71l-.46-2.08c0-.8.15-1.5.45-2.08l.74-1.06c1.11-.66 1.75-.82 2.47-.82l1.36.16c1.03.66 1.43 1.1 1.7 1.64l.42 1.11c0 .74 0 .85 0 .96l-.01.23-6.19.15v-.98h4.97c-.03-.69-.26-1.23-.69-1.62l-.95-.59c-1.07 0-1.47.1-1.84.31l-.65.47c-.44.75-.55 1.21-.55 1.78v.41l.11 1.14c.45.84.74 1.16 1.1 1.37l.77.31c.95 0 1.38-.11 1.72-.34l.6-.56 1.4-.4-.33.85c-.6.73-.98 1.01-1.43 1.22l-.95.3Zm4.16-.18Zm1.05 0V28.47h1.14l.06 1.32.58-.84c.89-.52 1.4-.66 1.97-.66l1.1.12c.86.47 1.19.82 1.43 1.3l.36 1.08v5.24h-1.26V31.65c0-.76-.17-1.33-.51-1.71l-.8-.57c-1.03 0-1.4.1-1.73.31l-.6.5c-.39.77-.48 1.25-.48 1.81v4.04h-1.26Zm7.56 0Zm3.9.18l-1.18-.11c-.93-.42-1.3-.71-1.58-1.08l-.44-.82 1.23-.51.16.5.53.62c.55.27.89.33 1.29.33l.64-.05.63-.35.29-.56-.07-.75-.5-.45-.9-.27c-.73-.13-1.06-.21-1.38-.31l-.6-.23-.7-.54-.36-.77c0-.78.11-1.16.33-1.49l.53-.61c.83-.38 1.32-.47 1.87-.47.81 0 1.46.19 1.96.58l.8.96-1.16.74-.21-.68c-.55-.43-.93-.54-1.41-.54l-.83.1-.61.63.07.69.47.44.86.31c.89.16 1.34.28 1.75.43l.74.37c.51.6.64 1.01.64 1.55l-.12.88c-.47.7-.8.97-1.23 1.18l-.93.28Zm3.63-.18Zm4.36.18l-1.34-.17c-1.09-.66-1.51-1.11-1.82-1.71l-.47-2.08c0-.8.15-1.5.45-2.08l.74-1.06c1.11-.66 1.75-.82 2.47-.82l1.37.16c1.03.66 1.42 1.1 1.69 1.64l.42 1.11c0 .74 0 .85 0 .96v.23l-6.19.15v-.98h4.96c-.03-.69-.26-1.23-.69-1.62l-.95-.59c-1.07 0-1.47.1-1.84.31l-.65.47c-.44.75-.55 1.21-.55 1.78v.41l.11 1.14c.45.84.75 1.16 1.11 1.37l.76.31c.95 0 1.39-.11 1.73-.34l.6-.56 1.39-.4-.33.85c-.6.73-.97 1.01-1.42 1.22l-.96.3Zm4.16-.18Zm1.05 0V28.47h1.14l.08 1.08.56-.7c.81-.44 1.25-.56 1.73-.56l.74.05.91.37c.48.43.68.71.83 1.03l.61-.81c.91-.51 1.4-.64 1.92-.64l1.09.12c.87.47 1.2.82 1.43 1.3l.36 1.08v5.24h-1.24V31.65c0-.76-.16-1.33-.47-1.71l-.74-.57c-.95 0-1.3.1-1.61.31l-.56.5c-.36.78-.45 1.26-.45 1.83v4.02h-1.26V31.65c0-.76-.15-1.33-.46-1.71l-.75-.57c-.95 0-1.3.1-1.61.31l-.54.5c-.36.78-.45 1.26-.45 1.83v4.02h-1.26Zm12.31 0Zm5.01.18l-.82-.06c-.69-.25-.99-.42-1.25-.63l-.47-.46-.17-.27-.11 1.24h-1.14V25.23h1.26v4.48c.24-.39.59-.72 1.04-1l1-.42c1.39 0 2.03.17 2.58.52l.98.81c.61 1.19.76 1.87.76 2.63l-.46 2.04c-.3.6-.73 1.07-1.28 1.41l-1.19.51Zm-.15-1.1l.93-.12c.76-.48 1.05-.81 1.26-1.23l.33-.93c0-1.15-.11-1.65-.33-2.08l-.5-.77c-.76-.48-1.2-.6-1.69-.6l-.94.12c-.76.48-1.05.82-1.26 1.25l-.32.93c0 1.15.11 1.65.32 2.08l.5.75c.76.48 1.2.6 1.7.6Zm4.53.92Zm1.05 0V25.23h1.26v10.8h-1.26Zm2.29 0Zm4.37.18l-1.34-.17c-1.09-.66-1.52-1.11-1.83-1.71l-.46-2.08c0-.8.15-1.5.45-2.08l.74-1.06c1.11-.66 1.75-.82 2.47-.82l1.36.16c1.03.66 1.43 1.1 1.7 1.64l.42 1.11c0 .74 0 .85 0 .96l-.01.23-6.19.15v-.98h4.97c-.03-.69-.26-1.23-.69-1.62l-.95-.59c-1.07 0-1.47.1-1.84.31l-.65.47c-.44.75-.55 1.21-.55 1.78v.41l.11 1.14c.45.84.74 1.16 1.1 1.37l.77.31c.95 0 1.38-.11 1.72-.34l.6-.56 1.4-.4-.33.85c-.6.73-.98 1.01-1.43 1.22l-.95.3Zm8.14-.18Zm4.38.18l-1.37-.17c-1.1-.69-1.52-1.17-1.82-1.77l-.45-2.04c0-.76.15-1.43.45-2.02l.72-1.07c1.11-.68 1.76-.85 2.49-.85l1.16.13c.93.5 1.29.84 1.54 1.29V25.23h1.26v10.8h-1.14l-.11-1.24-.36.48-.8.6c-.7.27-1.11.34-1.57.34Zm.15-1.1l.94-.12c.76-.48 1.06-.81 1.27-1.23l.31-.93c0-1.15-.1-1.65-.31-2.08l-.51-.77c-.76-.48-1.2-.6-1.7-.6l-.92.12c-.76.48-1.06.82-1.27 1.25l-.31.93c0 1.15.1 1.65.31 2.08l.51.75c.76.48 1.19.6 1.68.6Zm4.88.92Zm4.36.18L189 36.04c-1.09-.66-1.51-1.11-1.82-1.71l-.47-2.08c0-.8.15-1.5.45-2.08l.74-1.06c1.11-.66 1.75-.82 2.47-.82l1.37.16c1.03.66 1.42 1.1 1.69 1.64l.42 1.11c0 .74 0 .85 0 .96v.23l-6.19.15v-.98h4.96c-.03-.69-.26-1.23-.69-1.62l-.95-.59c-1.07 0-1.47.1-1.84.31l-.65.47c-.44.75-.55 1.21-.55 1.78v.41l.11 1.14c.45.84.75 1.16 1.11 1.37l.76.31c.95 0 1.39-.11 1.73-.34l.6-.56 1.39-.4-.33.85c-.6.73-.97 1.01-1.42 1.22l-.96.3Zm8.15-.18Zm3.22 0l-2.86-7.56h1.32l2.28 6.34 2.29-6.34h1.29l-2.86 7.56h-1.46Zm4.31 0Zm4.42.18l-1.33-.16c-1.12-.65-1.56-1.11-1.88-1.7l-.48-2.09c0-.81.16-1.51.48-2.09l.78-1.07c1.13-.65 1.76-.81 2.46-.81l1.36.16c1.11.65 1.55 1.11 1.87 1.72l.49 2.08c0 .8-.16 1.5-.49 2.1l-.78 1.05c-1.12.65-1.76.81-2.48.81Zm.02-1.08l.83-.11c.74-.43 1.04-.75 1.27-1.18l.34-.96c0-1.27-.11-1.8-.34-2.22l-.52-.75c-.73-.43-1.13-.54-1.57-.54l-.82.11c-.75.43-1.05.75-1.28 1.18l-.33.95c0 1.27.11 1.8.33 2.23l.53.75c.73.43 1.13.54 1.56.54Zm4.45.9Zm3.9.18l-1.18-.11c-.93-.42-1.3-.71-1.58-1.08l-.44-.82 1.23-.51.16.5.53.62c.55.27.89.33 1.29.33l.64-.05.63-.35.29-.56-.07-.75-.5-.45-.9-.27c-.73-.13-1.06-.21-1.38-.31l-.6-.23-.7-.54-.36-.77c0-.78.11-1.16.33-1.49l.53-.61c.83-.38 1.32-.47 1.87-.47.81 0 1.46.19 1.96.58l.8.96-1.16.74-.21-.68c-.55-.43-.93-.54-1.41-.54l-.83.1-.61.63.07.69.47.44.86.31c.89.16 1.34.28 1.75.43l.74.37c.51.6.64 1.01.64 1.55l-.12.88c-.47.7-.8.97-1.23 1.18l-.93.28Zm7.61-.18Zm3.51.18l-1.12-.11c-.82-.42-1.12-.71-1.32-1.06l-.3-.75c0-.93.13-1.36.39-1.71l.64-.63c.97-.37 1.55-.47 2.21-.47h1.99c0-.47-.07-.86-.22-1.17l-.35-.56-.89-.4c-.89 0-1.31.12-1.66.36l-.56.6-1.37.47.24-.99c.61-.73 1-1.01 1.47-1.2l.96-.3c1.21 0 1.79.13 2.25.39l.82.6c.46.91.57 1.45.57 2.07v4.68h-1.12l-.08-1.34-.23.41-.49.53-.66.38-.83.2Zm.2-1.07l.66-.07.82-.49c.4-.51.55-.79.65-1.1l.16-.64v-.38h-1.89c-.49 0-.88.06-1.18.18l-.52.27-.32.64.06.76.43.56.79.27Zm4.45.89Zm4.04 3.48l-1.29-.09c-1.05-.35-1.45-.62-1.74-.98l-.44-.8c0-.76.05-1.01.14-1.27l.26-.51c.47-.5.81-.73 1.24-.93l.87.51-.88.48c-.32.56-.4.83-.4 1.07l.1.6.64.61c.68.22 1.07.27 1.5.27l.8-.05.86-.42.42-.7-.13-.94c-.52-.47-1.01-.61-1.74-.65l-1.09-.09c-.8-.14-1.13-.22-1.39-.31l-.48-.21-.5-.37-.14-.47 1.45-1.44 1.1.39-1.5 1.35.19-.52.22.15.33.2.58.15c.61.07 1.01.12 1.51.15l1.24.17c.83.38 1.13.64 1.31.96l.29.7c0 .87-.12 1.27-.36 1.66l-.59.7c-.98.5-1.61.63-2.38.63Zm-.02-5.85l-1.17-.12c-.89-.48-1.22-.8-1.45-1.2l-.35-.87c0-1 .12-1.45.35-1.85l.58-.71c.88-.49 1.41-.62 2.04-.62l1.17.13c.88.49 1.21.8 1.44 1.2l.35.85c0 1-.12 1.46-.35 1.87l-.56.72c-.88.48-1.42.6-2.05.6Zm0-1.04l.97-.14c.62-.55.77-.97.77-1.51l-.15-.93c-.62-.56-1.05-.7-1.59-.7l-.96.14c-.65.56-.81.96-.81 1.49l.16.96c.64.55 1.07.69 1.61.69Zm1.23-3.08l-.37-1.07h3.09v.95l-2.72.12Zm2.82 6.49Zm4.37.18l-1.34-.17c-1.09-.66-1.52-1.11-1.83-1.71l-.46-2.08c0-.8.15-1.5.45-2.08l.74-1.06c1.11-.66 1.75-.82 2.47-.82l1.36.16c1.03.66 1.43 1.1 1.7 1.64l.42 1.11c0 .74 0 .85 0 .96l-.01.23-6.19.15v-.98h4.97c-.03-.69-.26-1.23-.69-1.62l-.95-.59c-1.07 0-1.47.1-1.84.31l-.65.47c-.44.75-.55 1.21-.55 1.78v.41l.11 1.14c.45.84.74 1.16 1.1 1.37l.77.31c.95 0 1.38-.11 1.72-.34l.6-.56 1.4-.4-.33.85c-.6.73-.98 1.01-1.43 1.22l-.95.3Zm4.16-.18Zm1.05 0V28.47h1.14l.06 1.32.58-.84c.89-.52 1.4-.66 1.97-.66l1.1.12c.86.47 1.19.82 1.43 1.3l.36 1.08v5.24h-1.26V31.65c0-.76-.17-1.33-.51-1.71l-.8-.57c-1.03 0-1.4.1-1.73.31l-.6.5c-.39.77-.48 1.25-.48 1.81v4.04h-1.26Zm7.56 0Zm4.02 0l-.84-.07c-.66-.28-.91-.52-1.09-.85l-.26-.79V29.54H260.3V28.47h1.32l.17-1.83h1.09v1.83h2.19v1.07h-2.19v4.21c0 .47.1.79.29.96l.52.24h1.29v1.08h-1.17Zm1.85 0Zm3.9.18l-1.18-.11c-.93-.42-1.3-.71-1.58-1.08l-.43-.82 1.23-.51.15.5.54.62c.55.27.89.33 1.29.33l.64-.05.63-.35.29-.56-.08-.75-.5-.45-.9-.27c-.73-.13-1.05-.21-1.37-.31l-.61-.23-.7-.54-.36-.77c0-.78.11-1.16.33-1.49l.54-.61c.83-.38 1.31-.47 1.86-.47.81 0 1.47.19 1.97.58l.79.96-1.15.74-.22-.68c-.55-.43-.92-.54-1.4-.54l-.83.1-.61.63.06.69.47.44.86.31c.89.16 1.35.28 1.76.43l.74.37c.51.6.64 1.01.64 1.55l-.12.88c-.47.7-.8.97-1.23 1.18l-.94.28Zm7.62-.18Zm4.36.18l-1.34-.17c-1.09-.66-1.51-1.11-1.82-1.71l-.47-2.08c0-.8.15-1.5.45-2.08l.74-1.06c1.11-.66 1.75-.82 2.47-.82l1.37.16c1.03.66 1.42 1.1 1.69 1.64l.42 1.11c0 .74 0 .85 0 .96v.23l-6.19.15v-.98h4.96c-.03-.69-.26-1.23-.69-1.62l-.95-.59c-1.07 0-1.47.1-1.84.31l-.65.47c-.44.75-.55 1.21-.55 1.78v.41l.11 1.14c.45.84.75 1.16 1.11 1.37l.76.31c.95 0 1.39-.11 1.73-.34l.6-.56 1.39-.4-.33.85c-.6.73-.97 1.01-1.42 1.22l-.96.3Zm3.91-.18Zm4.02 0l-.84-.07c-.66-.28-.91-.52-1.09-.85l-.26-.79V29.54h-1.32V28.47h1.32l.17-1.83h1.09v1.83h2.19v1.07h-2.19v4.21c0 .47.1.79.29.96l.52.24h1.29v1.08h-1.17Zm5.84 0Zm-.4 3.3V38.25h.58l.65-.08.4-.57V28.47h1.26v8.79c0 .48-.08.87-.24 1.17l-.4.53c-.63.29-1.01.37-1.47.37h-.78Zm2.28-12.47l-.46-.07-.41-.55.08-.7.54-.38.69.07.41.51-.08.71-.53.41Zm1.77 9.17Zm4.36.18l-1.34-.17c-1.09-.66-1.51-1.11-1.82-1.71l-.47-2.08c0-.8.15-1.5.45-2.08l.74-1.06c1.11-.66 1.75-.82 2.47-.82l1.37.16c1.03.66 1.42 1.1 1.69 1.64l.42 1.11c0 .74 0 .85 0 .96v.23l-6.19.15v-.98h4.96c-.03-.69-.26-1.23-.69-1.62l-.95-.59c-1.07 0-1.47.1-1.83.31l-.66.47c-.44.75-.55 1.21-.55 1.78v.41l.11 1.14c.45.84.75 1.16 1.11 1.37l.76.31c.95 0 1.39-.11 1.73-.34l.6-.56 1.4-.4-.34.85c-.6.73-.97 1.01-1.42 1.22l-.96.3ZM0 61.03Zm1.05 3.3V53.47H2.19L2.3 54.7l.36-.47.8-.6c.7-.27 1.1-.34 1.55-.34l1.38.17c1.09.71 1.51 1.18 1.81 1.78l.47 2.02c0 .76-.15 1.44-.47 2.04l-.72 1.06c-1.1.68-1.75.85-2.49.85l-1.14-.13c-.93-.5-1.29-.85-1.54-1.3v4.55H1.05Zm3.81-4.22l.93-.12c.76-.48 1.05-.81 1.26-1.23l.33-.93c0-1.15-.11-1.65-.33-2.08l-.5-.77c-.76-.48-1.2-.6-1.69-.6l-.94.12c-.76.48-1.06.82-1.27 1.25l-.31.93c0 1.15.11 1.65.31 2.08l.51.75c.76.48 1.2.6 1.7.6Zm4.53.92Zm4.36.18l-1.34-.17c-1.09-.66-1.51-1.11-1.82-1.71l-.47-2.08c0-.8.15-1.5.45-2.08l.74-1.06c1.11-.66 1.75-.82 2.47-.82l1.37.16c1.03.66 1.42 1.1 1.69 1.64l.42 1.11c0 .74 0 .85 0 .96v.23l-6.19.14v-.97h4.96c-.03-.69-.26-1.23-.69-1.62l-.95-.59c-1.07 0-1.47.1-1.84.31l-.65.47c-.44.75-.55 1.21-.55 1.78v.41l.11 1.14c.45.84.75 1.16 1.11 1.37l.76.31c.95 0 1.39-.11 1.73-.34l.6-.56 1.39-.4-.33.85c-.6.73-.97 1.01-1.42 1.22l-.96.3Zm4.17-.18Zm3.79.18l-1.09-.12c-.87-.46-1.2-.81-1.44-1.29l-.35-1.08V53.47h1.26v4.39c0 .75.17 1.32.5 1.7l.79.57c1.02 0 1.4-.1 1.74-.3l.61-.51c.39-.77.49-1.24.49-1.8V53.47h1.26v7.56H24.34l-.08-1.32-.57.84c-.9.53-1.41.66-1.98.66Zm4.8-.18Zm.3 0l2.57-3.78-2.57-3.78h1.38l2.04 3.09 2.07-3.09h1.35l-2.56 3.78 2.56 3.78H32.3l-2.07-3.1-2.04 3.1H26.81Zm11.13 0Zm1.5.07l-.46-.08-.41-.53.08-.68.54-.42.7.09.4.53-.08.68-.52.41Zm0-6.1l-.46-.08-.41-.54.08-.68.54-.41.7.08.4.54-.08.68-.52.41ZM0 111.03Zm2.68-3.2l-.61-.08-.77-.53c-.32-.55-.4-.86-.4-1.18l.08-.65.54-.77c.55-.32.84-.4 1.16-.4l.65.08.77.54c.32.55.4.85.4 1.2l-.08.63-.54.76c-.55.32-.86.4-1.2.4Zm6.71 3.2Zm5.64.18c-.98 0-1.84-.23-2.58-.67-.74-.47-1.32-1.1-1.73-1.91s-.61-1.76-.61-2.84.2-2.01.61-2.83 1.01-1.46 1.77-1.92 1.68-.69 2.72-.69c1.18 0 2.16.28 2.95.85s1.3 1.35 1.52 2.36H18.22c-.14-.63-.47-1.13-.99-1.5s-1.19-.56-2.02-.56l-2.03.53c-.57.34-1.01.83-1.32 1.47l-.46 2.29c0 .89.15 1.66.46 2.31l.74 1.13c1.11.69 1.75.85 2.47.85 1.12 0 1.97-.33 2.54-.99s.89-1.55.97-2.68H15.55v-.99h4.32v5.61H18.72l-.11-1.73-.54.76c-.65.57-1.03.79-1.47.94l-.96.21Zm5.73-.18Zm4.36.18l-1.34-.17c-1.09-.66-1.51-1.11-1.82-1.71l-.47-2.08c0-.8.15-1.5.45-2.08l.74-1.06c1.11-.66 1.75-.82 2.47-.82l1.37.16c1.03.66 1.42 1.1 1.69 1.64l.42 1.11c0 .74 0 .85 0 .96v.23l-6.19.15v-.98H27.4c-.03-.69-.26-1.23-.69-1.62l-.95-.59c-1.07 0-1.47.1-1.84.31l-.65.47c-.44.75-.55 1.21-.55 1.78v.41l.11 1.14c.45.84.75 1.16 1.11 1.37l.76.31c.95 0 1.39-.11 1.73-.34l.6-.56 1.39-.4-.33.85c-.6.73-.97 1.01-1.42 1.22l-.96.3Zm-1.5-8.39l-.13-.89L26.5 100l.18 1.08-3.06 1.74Zm5.66 8.21Zm1.05 0v-7.56h1.14l.06 1.32.58-.84c.89-.52 1.4-.66 1.97-.66l1.1.12c.86.47 1.2.82 1.44 1.3l.36 1.08v5.24H35.72v-4.38c0-.76-.17-1.33-.51-1.71l-.8-.57c-1.03 0-1.41.1-1.74.31l-.59.5c-.39.77-.49 1.24-.49 1.81v4.04H30.33Zm7.57 0Zm4.36.18l-1.34-.17c-1.09-.66-1.51-1.11-1.82-1.71l-.47-2.08c0-.8.15-1.5.45-2.08l.74-1.06c1.11-.66 1.75-.82 2.47-.82l1.37.16c1.03.66 1.42 1.1 1.69 1.64l.42 1.11c0 .74 0 .85 0 .96v.23l-6.19.15v-.98h4.96c-.03-.69-.26-1.23-.69-1.62l-.95-.59c-1.07 0-1.47.1-1.84.31l-.65.47c-.44.75-.55 1.21-.55 1.78v.41l.11 1.14c.45.84.75 1.16 1.11 1.37l.76.31c.95 0 1.39-.11 1.73-.34l.6-.56 1.39-.4-.33.85c-.6.73-.97 1.01-1.42 1.22l-.96.3Zm-1.5-8.39l-.13-.89L43.64 100l.18 1.08-3.06 1.74Zm5.66 8.21Zm1.05 0v-7.56h1.14l.09 1.44.39-.63c.53-.48.85-.67 1.22-.8l.81-.19.48 1.32h-.47l-.62.05-.84.3c-.45.38-.63.64-.76.97l-.18.72v4.38H47.47Zm4.22 0Zm4.37.18l-1.34-.17c-1.09-.66-1.52-1.11-1.83-1.71l-.46-2.08c0-.8.15-1.5.45-2.08l.74-1.06c1.11-.66 1.75-.82 2.47-.82l1.36.16c1.03.66 1.43 1.1 1.7 1.64l.42 1.11c0 .74 0 .85 0 .96l-.01.23-6.19.15v-.98h4.97c-.03-.69-.26-1.23-.69-1.62l-.95-.59c-1.07 0-1.47.1-1.84.31l-.65.47c-.44.75-.55 1.21-.55 1.78v.41l.11 1.14c.45.84.74 1.16 1.1 1.37l.77.31c.95 0 1.38-.11 1.72-.34l.6-.56 1.4-.4-.33.85c-.6.73-.98 1.01-1.43 1.22l-.95.3Zm4.16-.18Zm1.05 0v-7.56h1.14l.09 1.44.38-.63c.53-.48.85-.67 1.22-.8l.81-.19.48 1.32h-.46l-.63.05-.84.3c-.45.38-.62.64-.75.97l-.18.72v4.38H61.27Zm8.49 0Zm3.22 0l-2.86-7.56h1.32l2.28 6.34 2.29-6.34H77.3l-2.86 7.56H72.98Zm4.31 0Zm4.42.18l-1.33-.16c-1.12-.65-1.56-1.11-1.88-1.7l-.48-2.09c0-.81.16-1.51.48-2.09l.78-1.07c1.13-.65 1.76-.81 2.46-.81l1.36.16c1.11.65 1.55 1.11 1.87 1.72l.49 2.08c0 .8-.16 1.5-.49 2.1l-.78 1.05c-1.12.65-1.76.81-2.48.81Zm.02-1.08l.83-.11c.74-.43 1.04-.75 1.27-1.18l.34-.96c0-1.27-.11-1.8-.34-2.22l-.52-.75c-.73-.43-1.13-.54-1.57-.54l-.82.11c-.75.43-1.05.75-1.28 1.18l-.33.95c0 1.27.11 1.8.33 2.23l.53.75c.73.43 1.13.54 1.56.54Zm4.15.9Zm4.02 0l-.84-.07c-.66-.28-.91-.52-1.09-.85l-.26-.79v-4.78H86.39v-1.07h1.32l.17-1.83h1.09v1.83h2.19v1.07H88.97v4.21c0 .47.1.79.29.96l.52.24h1.29v1.08H89.9Zm1.86 0Zm1.05 0v-7.56h1.14l.09 1.44.38-.63c.53-.48.85-.67 1.22-.8l.81-.19.48 1.32h-.46l-.63.05-.84.3c-.45.38-.62.64-.75.97l-.18.72v4.38H92.81Zm4.22 0Zm4.37.18l-1.34-.17c-1.09-.66-1.52-1.11-1.83-1.71l-.46-2.08c0-.8.15-1.5.45-2.08l.74-1.06c1.11-.66 1.75-.82 2.47-.82l1.36.16c1.03.66 1.43 1.1 1.7 1.64l.42 1.11c0 .74 0 .85 0 .96l-.01.23-6.19.15v-.98h4.97c-.03-.69-.26-1.23-.69-1.62l-.95-.59c-1.07 0-1.47.1-1.84.31l-.65.47c-.44.75-.55 1.21-.55 1.78v.41l.11 1.14c.45.84.74 1.16 1.1 1.37l.77.31c.95 0 1.38-.11 1.72-.34l.6-.56 1.4-.4-.33.85c-.6.73-.98 1.01-1.43 1.22l-.95.3Zm8.14-.18Zm5.01.18l-.82-.06c-.69-.25-.99-.42-1.25-.63l-.47-.46-.17-.27-.11 1.24h-1.14v-10.8h1.26v4.48c.24-.39.59-.72 1.04-1l1-.42c1.39 0 2.03.17 2.58.52l.98.81c.61 1.19.76 1.87.76 2.63l-.46 2.04c-.3.6-.73 1.07-1.28 1.41l-1.19.51Zm-.15-1.1l.93-.12c.76-.48 1.05-.81 1.26-1.23l.33-.93c0-1.15-.11-1.65-.33-2.08l-.5-.77c-.76-.48-1.2-.6-1.69-.6l-.94.12c-.76.48-1.05.82-1.26 1.25l-.32.93c0 1.15.11 1.65.32 2.08l.5.75c.76.48 1.2.6 1.7.6Zm4.53.92Zm1.05 0v-7.56h1.14l.09 1.44.39-.63c.53-.48.85-.67 1.22-.8l.81-.19.48 1.32h-.47l-.62.05-.84.3c-.45.38-.63.64-.76.97l-.18.72v4.38h-1.26Zm4.5 0Zm1.17 0v-7.56h1.26v7.56h-1.26Zm.63-9.17l-.46-.08-.41-.54.08-.7.54-.38.7.07.42.51-.08.71-.55.41Zm1.81 9.17Zm4.36.18l-1.34-.17c-1.09-.66-1.51-1.11-1.82-1.71l-.47-2.08c0-.8.15-1.5.45-2.08l.74-1.06c1.11-.66 1.75-.82 2.47-.82l1.37.16c1.03.66 1.42 1.1 1.69 1.64l.42 1.11c0 .74 0 .85 0 .96v.23l-6.19.15v-.98h4.96c-.03-.69-.26-1.23-.69-1.62l-.95-.59c-1.07 0-1.47.1-1.84.31l-.65.47c-.44.75-.55 1.21-.55 1.78v.41l.11 1.14c.45.84.75 1.16 1.11 1.37l.76.31c.95 0 1.39-.11 1.73-.34l.6-.56 1.39-.4-.33.85c-.6.73-.97 1.01-1.42 1.22l-.96.3Zm4.16-.18Zm1.47 0v-6.49h-1.15v-1.07h1.15V102.3c0-.48.08-.87.24-1.17l.4-.54c.63-.29 1.02-.36 1.48-.36h.75v1.08h-.56l-.64.07-.41.57v1.52h4.53v7.56h-1.26v-6.49h-3.27v6.49h-1.26Zm5.18-9l-.45-.08-.42-.54.08-.7.55-.39.69.08.42.51-.09.71-.53.41Zm1.8 9Zm1.05 0v-7.56h1.14l.06 1.32.58-.84c.89-.52 1.4-.66 1.97-.66l1.1.12c.86.47 1.2.82 1.44 1.3l.36 1.08v5.24H151.5v-4.38c0-.76-.17-1.33-.51-1.71l-.8-.57c-1.03 0-1.41.1-1.74.31l-.59.5c-.39.77-.49 1.24-.49 1.81v4.04h-1.26Zm7.57 0Zm4.03 3.48l-1.28-.09c-1.05-.35-1.46-.62-1.75-.98l-.43-.8c0-.76.04-1.01.13-1.27l.27-.51c.47-.5.8-.73 1.23-.93l.87.51-.87.48c-.32.56-.4.83-.4 1.07l.09.6.65.61c.68.22 1.06.27 1.49.27l.8-.05.86-.42.43-.7-.13-.94c-.52-.47-1.02-.61-1.75-.65l-1.08-.09c-.8-.14-1.13-.22-1.39-.31l-.48-.21-.51-.37-.14-.47 1.46-1.44 1.09.39-1.5 1.35.2-.52.21.15.34.2.57.15c.61.07 1.02.12 1.52.15l1.24.17c.83.38 1.13.64 1.31.96l.28.7c0 .87-.12 1.27-.36 1.65l-.59.71c-.98.5-1.61.63-2.38.63Zm-.01-5.85l-1.17-.12c-.89-.48-1.23-.8-1.46-1.2l-.34-.87c0-1 .11-1.45.34-1.85l.58-.71c.88-.49 1.42-.62 2.05-.62l1.16.13c.88.49 1.22.8 1.45 1.2l.34.85c0 1-.11 1.46-.34 1.87l-.57.72c-.88.48-1.41.6-2.04.6Zm0-1.04l.96-.14c.62-.56.78-.97.78-1.51l-.16-.93c-.62-.56-1.04-.7-1.58-.7l-.96.14c-.65.56-.81.96-.81 1.49l.16.95c.64.56 1.07.7 1.61.7Zm1.23-3.08l-.38-1.07h3.09v.95l-2.71.12Zm7.1 6.49Zm7.09 3.3V109.8c-.24.39-.59.72-1.05 1l-1 .41c-1.39 0-2.03-.17-2.58-.51l-.98-.82c-.6-1.19-.75-1.87-.75-2.63l.45-2.03c.3-.6.73-1.06 1.28-1.41l1.2-.52c1.16 0 1.55.06 1.89.18l.65.29.73.67.16.28.12-1.24h1.14v10.86h-1.26Zm-2.56-4.22l.94-.12c.76-.48 1.05-.81 1.26-1.23l.32-.93c0-1.15-.11-1.65-.32-2.08l-.5-.77c-.76-.48-1.2-.6-1.7-.6l-.93.12c-.76.48-1.05.82-1.26 1.25l-.32.93c0 1.15.11 1.65.32 2.08l.5.75c.76.48 1.2.6 1.69.6Zm4.87.92Zm3.79.18l-1.09-.12c-.87-.46-1.2-.81-1.44-1.29l-.35-1.08v-5.25h1.26v4.39c0 .75.17 1.32.5 1.7l.79.57c1.02 0 1.4-.1 1.74-.3l.61-.51c.39-.77.49-1.24.49-1.8v-4.05h1.26v7.56h-1.14l-.08-1.32-.57.84c-.9.53-1.41.66-1.98.66Zm4.81-.18Zm4.42.18l-1.33-.16c-1.12-.65-1.56-1.11-1.88-1.7l-.48-2.09c0-.81.16-1.51.48-2.09l.78-1.07c1.13-.65 1.76-.81 2.46-.81l1.36.16c1.11.65 1.55 1.11 1.87 1.72l.49 2.08c0 .8-.16 1.5-.49 2.1l-.78 1.05c-1.12.65-1.76.81-2.48.81Zm.02-1.08l.83-.11c.74-.43 1.04-.75 1.27-1.18l.34-.96c0-1.27-.11-1.8-.34-2.22l-.52-.75c-.73-.43-1.13-.54-1.57-.54l-.82.11c-.75.43-1.05.75-1.28 1.18l-.33.95c0 1.27.11 1.8.33 2.23l.53.75c.73.43 1.13.54 1.56.54Zm4.16.9Zm4.02 0l-.84-.07c-.66-.28-.92-.52-1.1-.85l-.25-.79v-4.78h-1.32v-1.07h1.32l.16-1.83h1.1v1.83h2.19v1.07h-2.19v4.21c0 .47.09.79.28.96l.53.24h1.29v1.08h-1.17Zm1.85 0Zm1.17 0v-7.56h1.26v7.56h-1.26Zm.63-9.17l-.46-.08-.41-.54.08-.7.54-.38.7.07.42.51-.08.71-.55.41Zm1.8 9.17Zm4.38.18l-1.37-.17c-1.1-.69-1.52-1.17-1.82-1.77l-.45-2.04c0-.76.15-1.43.45-2.02l.72-1.07c1.11-.68 1.76-.85 2.49-.85l1.16.13c.93.5 1.29.84 1.54 1.29v-4.48h1.26v10.8h-1.14l-.11-1.24-.36.48-.8.6c-.7.27-1.11.34-1.57.34Zm.15-1.1l.94-.12c.76-.48 1.06-.81 1.27-1.23l.31-.93c0-1.15-.1-1.65-.31-2.08l-.51-.77c-.76-.48-1.2-.6-1.7-.6l-.92.12c-.76.48-1.06.82-1.27 1.25l-.31.93c0 1.15.1 1.65.31 2.08l.51.75c.76.48 1.19.6 1.68.6Zm4.88.92Zm1.17 0v-7.56h1.26v7.56h-1.26Zm.63-9.17l-.46-.08-.41-.54.08-.7.54-.38.69.07.43.51-.09.71-.54.41Zm1.8 9.17Zm4.37.18l-1.34-.17c-1.09-.66-1.52-1.11-1.83-1.71l-.46-2.08c0-.8.15-1.5.45-2.08l.74-1.06c1.11-.66 1.75-.82 2.47-.82l1.36.16c1.03.66 1.43 1.1 1.7 1.64l.42 1.11c0 .74 0 .85 0 .96l-.01.23-6.19.15v-.98h4.97c-.03-.69-.26-1.23-.69-1.62l-.95-.59c-1.07 0-1.47.1-1.84.31l-.65.47c-.44.75-.55 1.21-.55 1.78v.41l.11 1.14c.45.84.74 1.16 1.1 1.37l.77.31c.95 0 1.38-.11 1.72-.34l.6-.56 1.4-.4-.33.85c-.6.73-.98 1.01-1.43 1.22l-.95.3Zm4.16-.18Zm1.05 0v-7.56h1.14l.06 1.32.58-.84c.89-.52 1.4-.66 1.97-.66l1.1.12c.86.47 1.19.82 1.43 1.3l.36 1.08v5.24h-1.26v-4.38c0-.76-.17-1.33-.51-1.71l-.8-.57c-1.03 0-1.4.1-1.73.31l-.6.5c-.39.77-.48 1.24-.48 1.81v4.04h-1.26ZM0 136.03Zm2.68-3.2l-.61-.08-.77-.53c-.32-.55-.4-.86-.4-1.18l.08-.65.54-.77c.55-.32.84-.4 1.16-.4l.65.08.77.54c.32.55.4.85.4 1.2l-.08.63-.54.76c-.55.32-.86.4-1.2.4Zm6.71 3.2Zm1.12 0v-10.5h1.26v9.49h4.89v1.01H10.51Zm6.79 0Zm3.51.18l-1.12-.11c-.82-.42-1.13-.71-1.33-1.06l-.3-.75c0-.93.13-1.36.39-1.71l.65-.63c.97-.37 1.54-.47 2.2-.47h2c0-.47-.08-.86-.23-1.17l-.35-.56-.89-.4c-.89 0-1.3.12-1.65.36l-.57.6-1.37.47.24-.99c.61-.73 1-1.01 1.47-1.2l.96-.3c1.21 0 1.79.13 2.25.39l.82.6c.46.91.58 1.45.58 2.07v4.68H23.43l-.07-1.34-.23.41-.49.53-.66.38-.83.2Zm.19-1.07l.67-.07.81-.49c.4-.51.55-.79.65-1.1l.17-.64v-.38H21.41c-.49 0-.89.06-1.19.18l-.51.27-.33.64.06.76.44.56.78.27Zm4.46.89Zm1.05 0v-7.56h1.14l.06 1.32.58-.84c.89-.53 1.4-.66 1.97-.66l1.1.12c.86.47 1.19.82 1.43 1.3l.36 1.08v5.24H31.89v-4.38c0-.76-.17-1.33-.51-1.71l-.8-.57c-1.03 0-1.4.1-1.73.31l-.6.5c-.39.77-.48 1.25-.48 1.81v4.04H26.51Zm7.56 0Zm4.46.18l-1.35-.17c-1.13-.66-1.57-1.11-1.89-1.71l-.48-2.07c0-.8.16-1.49.48-2.08l.76-1.05c1.13-.67 1.77-.84 2.48-.84.9 0 1.65.23 2.25.7s.98 1.08 1.14 1.86H40.63c-.1-.47-.35-.83-.74-1.09l-.85-.39c-.96 0-1.36.11-1.73.33l-.66.53c-.44.86-.55 1.39-.55 2.02l.06.89c.26.73.44 1.03.66 1.27l.47.42.9.31c.68 0 1.01-.05 1.3-.16l.53-.3.54-.73 1.36-.31-.55 1.38c-1.21.95-1.95 1.19-2.84 1.19Zm4.13-.18Zm4.36.18l-1.34-.17c-1.09-.66-1.51-1.11-1.82-1.71l-.47-2.08c0-.8.15-1.5.45-2.08l.74-1.06c1.11-.66 1.75-.82 2.47-.82l1.37.16c1.03.66 1.42 1.1 1.69 1.64l.42 1.11c0 .74 0 .85 0 .96v.23l-6.19.15v-.98H49.3c-.03-.69-.26-1.23-.69-1.62l-.95-.59c-1.07 0-1.47.1-1.84.31l-.65.47c-.44.75-.55 1.21-.55 1.78v.41l.11 1.14c.45.84.75 1.16 1.11 1.37l.76.31c.95 0 1.39-.11 1.73-.34l.6-.56 1.39-.4-.33.85c-.6.73-.97 1.01-1.42 1.22l-.96.3Zm4.16-.18Zm1.05 0v-7.56h1.14l.09 1.44.39-.63c.53-.48.85-.67 1.22-.8l.81-.19.48 1.32h-.47l-.62.05-.84.3c-.45.38-.63.64-.76.97l-.18.72v4.38H52.23Zm8.49 0Zm4.38.18l-1.37-.17c-1.1-.69-1.53-1.17-1.83-1.77l-.45-2.04c0-.76.15-1.43.45-2.02l.73-1.07c1.11-.68 1.75-.85 2.48-.85l1.16.13c.93.5 1.29.84 1.54 1.29v-4.48h1.26v10.8H67.93l-.1-1.24-.37.48-.8.6c-.7.27-1.1.34-1.56.34Zm.15-1.1l.94-.12c.76-.48 1.05-.81 1.26-1.23l.32-.93c0-1.15-.11-1.65-.32-2.08l-.5-.77c-.76-.48-1.2-.6-1.7-.6l-.93.12c-.76.48-1.05.82-1.26 1.25l-.32.93c0 1.15.11 1.65.32 2.08l.5.75c.76.48 1.2.6 1.69.6Zm4.87.92Zm4.37.18l-1.34-.17c-1.09-.66-1.52-1.11-1.83-1.71l-.46-2.08c0-.8.15-1.5.45-2.08l.74-1.06c1.11-.66 1.75-.82 2.47-.82l1.36.16c1.03.66 1.43 1.1 1.7 1.64L78 131.2c0 .74 0 .85 0 .96l-.01.23-6.19.15v-.98h4.97c-.03-.69-.26-1.23-.69-1.62l-.95-.59c-1.07 0-1.47.1-1.84.31l-.65.47c-.44.75-.55 1.21-.55 1.78v.41l.11 1.14c.45.84.74 1.16 1.1 1.37l.77.31c.95 0 1.38-.11 1.72-.34l.6-.56 1.4-.4-.33.85c-.6.73-.98 1.01-1.43 1.22l-.95.3Zm4.16-.18Zm3.9.18l-1.18-.11c-.93-.42-1.3-.71-1.58-1.08l-.44-.82 1.23-.51.16.5.53.62c.55.27.89.33 1.29.33l.64-.05.63-.35.29-.56-.07-.75-.5-.45-.9-.27c-.73-.13-1.06-.21-1.38-.31l-.6-.23-.7-.54-.36-.77c0-.78.11-1.16.33-1.49l.53-.61c.83-.38 1.32-.47 1.87-.47.81 0 1.46.19 1.96.58l.8.96-1.16.74-.21-.68c-.55-.43-.93-.54-1.41-.54l-.83.1-.61.63.07.69.47.44.86.31c.89.16 1.34.28 1.75.43l.74.37c.51.6.64 1.01.64 1.55l-.12.88c-.47.7-.8.97-1.23 1.18l-.93.28Zm7.61-.18Zm2.58 0l-2.22-7.56h1.26l1.73 6.37h-.23l1.88-6.37h1.42l1.91 6.36-.24.01 1.71-6.37h1.27l-2.2 7.56H97.74l-1.98-6.66h.25l-1.98 6.66H92.74Zm8.58 0Zm4.43.18l-1.33-.16c-1.12-.65-1.56-1.11-1.88-1.7l-.48-2.09c0-.81.16-1.51.48-2.09l.77-1.07c1.13-.65 1.77-.81 2.47-.81l1.35.16c1.11.65 1.55 1.11 1.87 1.72l.5 2.08c0 .8-.17 1.5-.5 2.1l-.77 1.05c-1.12.65-1.76.81-2.48.81Zm.01-1.08l.83-.11c.74-.43 1.04-.75 1.27-1.18l.35-.96c0-1.27-.12-1.8-.35-2.22l-.51-.75c-.73-.43-1.13-.54-1.57-.54l-.82.11c-.75.43-1.05.75-1.28 1.18l-.33.95c0 1.27.11 1.8.33 2.23l.52.75c.73.43 1.13.54 1.56.54Zm4.45.9Zm1.05 0v-7.56h1.14l.09 1.44.39-.63c.53-.48.85-.67 1.22-.8l.81-.19.48 1.32h-.47l-.62.05-.84.3c-.45.38-.63.64-.76.97l-.18.72v4.38h-1.26Zm4.51 0Zm5.7 0l-3.6-4.14 3.28-3.42h1.55l-3.77 3.87.02-.9 4.12 4.59h-1.6Zm-4.65 0v-10.8h1.26v10.8h-1.26Zm6.51 0Zm1.47 0V127.3c0-.48.08-.87.24-1.17l.39-.54c.63-.29 1.02-.36 1.48-.36h.86v1.08h-.66l-.64.07-.41.57v9.08H124.8Zm-1.16-6.49v-1.07h4.32v1.07h-4.32Zm5.84 6.49v-10.8h1.26v10.8h-1.26Zm2.3 0Zm4.42.18l-1.33-.16c-1.12-.65-1.56-1.11-1.88-1.7l-.48-2.09c0-.81.16-1.51.48-2.09l.78-1.07c1.13-.65 1.76-.81 2.46-.81l1.36.16c1.11.65 1.55 1.11 1.87 1.72l.49 2.08c0 .8-.16 1.5-.49 2.1l-.78 1.05c-1.12.65-1.76.81-2.48.81Zm.02-1.08l.83-.11c.74-.43 1.04-.75 1.27-1.18l.34-.96c0-1.27-.11-1.8-.34-2.22l-.52-.75c-.73-.43-1.13-.54-1.57-.54l-.82.11c-.75.43-1.05.75-1.28 1.18l-.33.95c0 1.27.11 1.8.33 2.23l.53.75c.73.43 1.13.54 1.56.54Zm4.17.9Zm2.58 0l-2.22-7.56h1.26l1.73 6.37h-.23l1.88-6.37h1.42l1.91 6.36-.24.01 1.71-6.37h1.27l-2.2 7.56h-1.29l-1.98-6.66h.25l-1.98 6.66h-1.29Zm8.86 0Zm3.9.18l-1.18-.11c-.93-.42-1.3-.71-1.58-1.08l-.43-.82 1.23-.51.15.5.54.62c.55.27.89.33 1.29.33l.64-.05.63-.35.29-.56-.08-.75-.5-.45-.9-.27c-.73-.13-1.05-.21-1.37-.31l-.61-.23-.7-.54-.36-.77c0-.78.11-1.16.33-1.49l.54-.61c.83-.38 1.31-.47 1.86-.47.81 0 1.47.19 1.97.58l.79.96-1.15.74-.22-.68c-.55-.43-.92-.54-1.4-.54l-.83.1-.61.63.06.69.47.44.86.31c.89.16 1.35.28 1.76.43l.74.37c.51.6.64 1.01.64 1.55l-.12.88c-.47.7-.8.97-1.23 1.18l-.94.28Zm7.61-.18Zm1.05 0v-7.56h1.14l.08 1.08.56-.7c.81-.44 1.25-.56 1.73-.56l.74.05.91.37c.48.43.68.71.83 1.03l.61-.81c.91-.51 1.4-.64 1.92-.64l1.09.12c.87.47 1.2.82 1.43 1.3l.36 1.08v5.24h-1.24v-4.38c0-.76-.16-1.33-.47-1.71l-.74-.57c-.95 0-1.3.1-1.61.31l-.56.5c-.36.78-.45 1.26-.45 1.83v4.02h-1.26v-4.38c0-.76-.15-1.33-.46-1.71l-.75-.57c-.95 0-1.3.1-1.61.31l-.54.5c-.36.78-.45 1.26-.45 1.83v4.02h-1.26Zm12.31 0Zm3.8.18l-1.09-.12c-.87-.46-1.21-.81-1.45-1.29l-.34-1.08v-5.25h1.26v4.39c0 .75.16 1.32.49 1.7l.8.57c1.02 0 1.4-.1 1.74-.3l.6-.51c.39-.77.49-1.24.49-1.8v-4.05h1.26v7.56h-1.14l-.07-1.32-.57.84c-.9.53-1.41.66-1.98.66Zm4.8-.18Zm1.05 0v-10.8h1.26v10.8h-1.26Zm2.29 0Zm4.02 0l-.84-.07c-.66-.28-.91-.52-1.09-.85l-.26-.79v-4.78h-1.32v-1.07h1.32l.17-1.83h1.09v1.83h2.19v1.07h-2.19v4.21c0 .47.1.79.29.96l.52.24h1.29v1.08h-1.17Zm1.86 0Zm1.17 0v-7.56h1.26v7.56h-1.26Zm.63-9.17l-.46-.07-.41-.55.08-.7.54-.38.69.07.43.51-.09.71-.54.41Zm1.8 9.17Zm1.08-3.9v-1.07h5.94v1.07H199.2Zm7.04 3.9Zm3.51.18l-1.12-.11c-.82-.42-1.13-.71-1.33-1.06l-.3-.75c0-.93.13-1.36.39-1.71l.65-.63c.97-.37 1.54-.47 2.2-.47h2c0-.47-.08-.86-.23-1.17l-.35-.56-.89-.4c-.89 0-1.3.12-1.65.36l-.57.6-1.37.47.24-.99c.61-.73 1-1.01 1.47-1.2l.96-.3c1.21 0 1.79.13 2.25.39l.82.6c.46.91.58 1.45.58 2.07v4.68h-1.13l-.07-1.34-.23.41-.49.53-.66.38-.83.2Zm.19-1.07l.67-.07.81-.49c.4-.51.55-.79.65-1.1l.17-.64v-.38h-1.89c-.49 0-.89.06-1.19.18l-.51.27-.33.64.06.76.44.56.78.27Zm4.45.89Zm4.04 3.48l-1.29-.09c-1.05-.35-1.45-.62-1.74-.98l-.44-.8c0-.76.05-1.01.14-1.27l.26-.51c.47-.5.81-.73 1.24-.93l.87.51-.88.48c-.32.56-.4.83-.4 1.07l.1.6.64.61c.68.22 1.07.27 1.5.27l.8-.05.86-.42.42-.7-.13-.94c-.52-.47-1.01-.61-1.74-.65l-1.09-.09c-.8-.14-1.13-.22-1.39-.31l-.48-.21-.5-.37-.14-.47 1.45-1.44 1.1.39-1.5 1.35.19-.52.22.15.33.2.58.15c.61.07 1.01.12 1.51.15l1.24.17c.83.38 1.13.64 1.31.96l.29.7c0 .87-.12 1.27-.36 1.66l-.59.7c-.98.5-1.61.63-2.38.63Zm-.02-5.85l-1.17-.12c-.89-.48-1.22-.8-1.45-1.2l-.35-.87c0-1 .12-1.45.35-1.85l.58-.71c.88-.49 1.41-.62 2.04-.62l1.17.13c.88.49 1.21.8 1.44 1.2l.35.85c0 1-.12 1.46-.35 1.87l-.56.72c-.88.48-1.42.6-2.05.6Zm0-1.04l.97-.14c.62-.55.77-.97.77-1.51l-.15-.93c-.62-.56-1.05-.7-1.59-.7l-.96.14c-.65.56-.81.96-.81 1.49l.16.96c.64.55 1.07.69 1.61.69Zm1.23-3.08l-.37-1.07h3.09v.95l-2.72.12Zm2.83 6.49Zm4.36.18l-1.34-.17c-1.09-.66-1.51-1.11-1.82-1.71l-.47-2.08c0-.8.15-1.5.45-2.08l.74-1.06c1.11-.66 1.75-.82 2.47-.82l1.37.16c1.03.66 1.42 1.1 1.69 1.64l.42 1.11c0 .74 0 .85 0 .96v.23l-6.19.15v-.98h4.96c-.03-.69-.26-1.23-.69-1.62l-.95-.59c-1.07 0-1.47.1-1.84.31l-.65.47c-.44.75-.55 1.21-.55 1.78v.41l.11 1.14c.45.84.75 1.16 1.11 1.37l.76.31c.95 0 1.39-.11 1.73-.34l.6-.56 1.39-.4-.33.85c-.6.73-.97 1.01-1.42 1.22l-.96.3Zm4.16-.18Zm1.05 0v-7.56h1.14l.06 1.32.58-.84c.89-.53 1.4-.66 1.97-.66l1.1.12c.86.47 1.2.82 1.44 1.3l.36 1.08v5.24h-1.26v-4.38c0-.76-.17-1.33-.51-1.71l-.8-.57c-1.03 0-1.41.1-1.74.31l-.59.5c-.39.77-.49 1.25-.49 1.81v4.04h-1.26Zm7.56 0Zm4.02 0l-.84-.07c-.66-.28-.91-.52-1.09-.85l-.26-.79v-4.78h-1.32v-1.07h1.32l.17-1.83h1.09v1.83h2.19v1.07h-2.19v4.21c0 .47.1.79.29.96l.52.24h1.29v1.08h-1.17Zm1.86 0Zm3.9.18l-1.18-.11c-.93-.42-1.3-.71-1.58-1.08l-.44-.82 1.23-.51.16.5.53.62c.55.27.89.33 1.29.33l.64-.05.63-.35.29-.56-.07-.75-.5-.45-.9-.27c-.73-.13-1.06-.21-1.38-.31l-.6-.23-.7-.54-.36-.77c0-.78.11-1.16.33-1.49l.53-.61c.83-.38 1.32-.47 1.87-.47.81 0 1.46.19 1.96.58l.8.96-1.16.74-.21-.68c-.55-.43-.93-.54-1.41-.54l-.83.1-.61.63.07.69.47.44.86.31c.89.16 1.34.28 1.75.43l.74.37c.51.6.64 1.01.64 1.55l-.12.88c-.47.7-.8.97-1.23 1.18l-.93.28ZM0 161.03Zm2.68-3.2l-.61-.08-.77-.53c-.32-.55-.4-.86-.4-1.18l.08-.65.54-.77c.55-.32.84-.4 1.16-.4l.65.08.77.54c.32.55.4.85.4 1.2l-.08.63-.54.76c-.55.32-.86.4-1.2.4Zm6.71 3.2Zm1.12 0v-10.5h3.42c.83 0 1.51.14 2.04.42l.94.63c.51.92.64 1.45.64 2.04l-.13 1.09c-.51.93-.9 1.3-1.43 1.58l-2.06.42H11.77v4.32H10.51Zm1.26-5.39h2.15c.84 0 1.44-.18 1.8-.55l.54-.86c0-1.26-.18-1.76-.54-2.11l-.96-.54H11.77v4.06Zm6.32 5.39Zm1.05 0v-7.56h1.14l.09 1.44.39-.63c.53-.48.85-.67 1.22-.8l.81-.19.48 1.32H22.8l-.62.05-.84.3c-.45.38-.63.64-.76.97l-.18.72v4.38H19.14Zm4.5 0Zm1.17 0v-7.56h1.26v7.56H24.81Zm.63-9.17l-.46-.07-.41-.55.08-.7.54-.38.7.07.42.51-.08.71-.55.41Zm1.81 9.17Zm4.42.18l-1.33-.16c-1.12-.65-1.56-1.11-1.88-1.7l-.48-2.09c0-.81.16-1.51.48-2.09l.78-1.07c1.13-.65 1.76-.81 2.46-.81l1.36.16c1.11.65 1.55 1.11 1.87 1.72l.49 2.08c0 .8-.16 1.5-.49 2.1l-.78 1.05c-1.12.65-1.76.81-2.48.81Zm.02-1.08l.83-.11c.74-.43 1.04-.75 1.27-1.18l.34-.96c0-1.27-.11-1.8-.34-2.22l-.52-.75c-.73-.43-1.13-.54-1.57-.54l-.82.11c-.75.43-1.05.75-1.28 1.18l-.33.95c0 1.27.11 1.8.33 2.23l.53.75c.73.43 1.13.54 1.56.54Zm4.45.9Zm1.05 0v-7.56h1.14l.09 1.44.38-.63c.53-.48.85-.67 1.22-.8l.81-.19.48 1.32h-.46l-.63.05-.84.3c-.45.38-.62.64-.75.97l-.18.72v4.38H37.19Zm4.5 0Zm1.17 0v-7.56h1.26v7.56H42.86Zm.63-9.17l-.46-.07-.41-.55.08-.7.54-.38.69.07.43.51-.09.71-.54.41Zm1.8 9.17Zm3.9.18l-1.18-.11c-.93-.42-1.3-.71-1.58-1.08L46 159.2l1.23-.51.15.5.54.62c.55.27.89.33 1.29.33l.64-.05.63-.35.29-.56-.08-.75-.5-.45-.9-.27c-.73-.13-1.05-.21-1.37-.31l-.61-.23-.7-.54-.36-.77c0-.78.11-1.16.33-1.49l.54-.61c.83-.38 1.31-.47 1.86-.47.81 0 1.47.19 1.97.58l.79.96-1.15.74-.22-.68c-.55-.43-.92-.54-1.4-.54l-.83.1-.61.63.06.69.47.44.86.31c.89.16 1.35.28 1.76.43l.74.37c.51.6.64 1.01.64 1.55l-.12.88c-.47.7-.8.97-1.23 1.18l-.94.28Zm3.63-.18Zm4.37.18l-1.34-.17c-1.09-.66-1.52-1.11-1.83-1.71l-.46-2.08c0-.8.15-1.5.45-2.08l.74-1.06c1.11-.66 1.75-.82 2.47-.82l1.36.16c1.03.66 1.43 1.1 1.7 1.64l.42 1.11c0 .74 0 .85 0 .96l-.01.23-6.19.15v-.98h4.97c-.03-.69-.26-1.23-.69-1.62l-.95-.59c-1.07 0-1.47.1-1.84.31l-.65.47c-.44.75-.55 1.21-.55 1.78v.41l.11 1.14c.45.84.74 1.16 1.1 1.37l.77.31c.95 0 1.38-.11 1.72-.34l.6-.56 1.4-.4-.33.85c-.6.73-.98 1.01-1.43 1.22l-.95.3Zm4.16-.18Zm1.05 0v-7.56h1.14l.09 1.44.38-.63c.53-.48.85-.67 1.22-.8l.81-.19.48 1.32h-.46l-.63.05-.84.3c-.45.38-.62.64-.75.97l-.18.72v4.38H62.4Zm8.48 0Zm3.23 0l-2.87-7.56h1.32l2.28 6.34 2.3-6.34h1.29l-2.87 7.56H74.11Zm4.3 0Zm4.43.18l-1.33-.16c-1.12-.65-1.56-1.11-1.88-1.7l-.48-2.09c0-.81.16-1.51.48-2.09l.77-1.07c1.13-.65 1.77-.81 2.47-.81l1.35.16c1.11.65 1.55 1.11 1.87 1.72l.5 2.08c0 .8-.17 1.5-.5 2.1l-.77 1.05c-1.12.65-1.76.81-2.48.81Zm.01-1.08l.83-.11c.74-.43 1.04-.75 1.27-1.18l.35-.96c0-1.27-.12-1.8-.35-2.22l-.51-.75c-.73-.43-1.13-.54-1.57-.54l-.82.11c-.75.43-1.05.75-1.28 1.18l-.33.95c0 1.27.11 1.8.33 2.23l.52.75c.73.43 1.13.54 1.56.54Zm4.45.9Zm3.9.18l-1.18-.11c-.93-.42-1.3-.71-1.58-1.08l-.43-.82 1.23-.51.15.5.54.62c.55.27.89.33 1.29.33l.64-.05.63-.35.29-.56-.08-.75-.5-.45-.9-.27c-.73-.13-1.05-.21-1.37-.31l-.61-.23-.7-.54-.36-.77c0-.78.11-1.16.33-1.49l.54-.61c.83-.38 1.31-.47 1.86-.47.81 0 1.47.19 1.97.58l.79.96-1.15.74-.22-.68c-.55-.43-.92-.54-1.4-.54l-.83.1-.61.63.06.69.47.44.86.31c.89.16 1.35.28 1.76.43l.74.37c.51.6.64 1.01.64 1.55l-.12.88c-.47.7-.8.97-1.23 1.18l-.94.28Zm7.62-.18Zm4.02 0l-.84-.07c-.66-.28-.92-.52-1.1-.85l-.25-.79v-4.78H99.33v-1.07h1.32l.16-1.83h1.1v1.83h2.19v1.07h-2.19v4.21c0 .47.09.79.28.96l.53.24h1.29v1.08h-1.17Zm1.85 0Zm3.51.18l-1.12-.11c-.82-.42-1.12-.71-1.32-1.06l-.3-.75c0-.93.13-1.36.39-1.71l.64-.63c.97-.37 1.55-.47 2.21-.47h1.99c0-.47-.07-.86-.22-1.17l-.35-.56-.89-.4c-.89 0-1.31.12-1.66.36l-.56.6-1.37.47.24-.99c.61-.73 1-1.01 1.47-1.2l.96-.3c1.21 0 1.79.13 2.25.39l.82.6c.46.91.57 1.45.57 2.07v4.68h-1.12l-.08-1.34-.23.41-.49.53-.66.38-.83.2Zm.2-1.07l.66-.07.82-.49c.4-.51.55-.79.65-1.1l.16-.64v-.38H108.8c-.49 0-.88.06-1.18.18l-.52.27-.32.64.06.76.43.56.79.27Zm-1.73-7.36v-.99l2.06-1.22 2.05 1.22v.99l-2.05-1.26-2.06 1.26Zm6.18 8.25Zm4.46.18l-1.35-.17c-1.13-.66-1.57-1.11-1.89-1.71l-.48-2.07c0-.8.16-1.49.48-2.08l.76-1.05c1.13-.67 1.77-.84 2.48-.84.9 0 1.65.23 2.25.7s.98 1.08 1.14 1.86h-1.29c-.1-.47-.35-.83-.74-1.09l-.85-.39c-.96 0-1.36.11-1.73.33l-.66.53c-.44.86-.55 1.39-.55 2.02l.06.89c.26.73.44 1.03.66 1.27l.47.42.9.31c.68 0 1.01-.05 1.3-.16l.53-.3.54-.73 1.36-.31-.55 1.38c-1.21.95-1.95 1.19-2.84 1.19Zm4.13-.18Zm1.05 0v-10.8h1.26v4.51c.25-.45.6-.8 1.05-1.06l.96-.39c1.12 0 1.62.12 2.05.36l.76.58c.46.96.58 1.57.58 2.3v4.5H127.9v-4.36c0-.76-.16-1.34-.48-1.72l-.78-.58c-1.04 0-1.43.1-1.78.31l-.61.51c-.4.78-.5 1.26-.5 1.83v4.01h-1.26Zm7.57 0Zm4.37.18l-1.34-.17c-1.09-.66-1.52-1.11-1.83-1.71l-.46-2.08c0-.8.15-1.5.45-2.08l.74-1.06c1.11-.66 1.75-.82 2.47-.82l1.36.16c1.03.66 1.43 1.1 1.7 1.64l.42 1.11c0 .74 0 .85 0 .96l-.01.23-6.19.15v-.98h4.97c-.03-.69-.26-1.23-.69-1.62l-.95-.59c-1.07 0-1.47.1-1.84.31l-.65.47c-.44.75-.55 1.21-.55 1.78v.41l.11 1.14c.45.84.74 1.16 1.1 1.37l.77.31c.95 0 1.38-.11 1.72-.34l.6-.56 1.4-.4-.33.85c-.6.73-.98 1.01-1.43 1.22l-.95.3Zm4.16-.18Zm3.9.18l-1.18-.11c-.93-.42-1.3-.71-1.58-1.08l-.44-.82 1.23-.51.16.5.53.62c.55.27.89.33 1.29.33l.64-.05.63-.35.29-.56-.07-.75-.5-.45-.9-.27c-.73-.13-1.06-.21-1.38-.31l-.6-.23-.7-.54-.36-.77c0-.78.11-1.16.33-1.49l.53-.61c.83-.38 1.32-.47 1.87-.47.81 0 1.46.19 1.96.58l.8.96-1.16.74-.21-.68c-.55-.43-.93-.54-1.41-.54l-.83.1-.61.63.07.69.47.44.86.31c.89.16 1.34.28 1.75.43l.74.37c.51.6.64 1.01.64 1.55l-.12.88c-.47.7-.8.97-1.23 1.18l-.93.28Zm7.61-.18Zm4.38.18l-1.37-.17c-1.1-.69-1.52-1.17-1.82-1.77l-.45-2.04c0-.76.15-1.43.45-2.02l.72-1.07c1.11-.68 1.76-.85 2.49-.85l1.16.13c.93.5 1.29.84 1.54 1.29v-4.48h1.26v10.8h-1.14l-.11-1.24-.36.48-.8.6c-.7.27-1.11.34-1.57.34Zm.15-1.1l.94-.12c.76-.48 1.06-.81 1.27-1.23l.31-.93c0-1.15-.1-1.65-.31-2.08l-.51-.77c-.76-.48-1.2-.6-1.7-.6l-.92.12c-.76.48-1.06.82-1.27 1.25l-.31.93c0 1.15.1 1.65.31 2.08l.51.75c.76.48 1.19.6 1.68.6Zm4.88.92Zm3.79.18l-1.09-.12c-.87-.46-1.2-.81-1.44-1.29l-.35-1.08v-5.25h1.26v4.39c0 .75.17 1.32.5 1.7l.79.57c1.02 0 1.4-.1 1.74-.3l.61-.51c.39-.77.49-1.24.49-1.8v-4.05h1.26v7.56h-1.14l-.08-1.32-.57.84c-.9.53-1.41.66-1.98.66Zm8.79-.18Zm-.41 3.3v-1.08h.59l.65-.08.4-.57v-9.13h1.26v8.79c0 .48-.08.87-.24 1.17l-.4.53c-.63.29-1.02.37-1.48.37h-.78Zm2.28-12.47l-.46-.07-.41-.55.08-.7.54-.38.69.07.42.51-.09.71-.53.41Zm1.78 9.17Zm4.42.18l-1.33-.16c-1.12-.65-1.56-1.11-1.88-1.7l-.48-2.09c0-.81.16-1.51.48-2.09l.78-1.07c1.13-.65 1.76-.81 2.46-.81l1.36.16c1.11.65 1.55 1.11 1.87 1.72l.49 2.08c0 .8-.16 1.5-.49 2.1l-.78 1.05c-1.12.65-1.76.81-2.48.81Zm.02-1.08l.83-.11c.74-.43 1.04-.75 1.27-1.18l.34-.96c0-1.27-.11-1.8-.34-2.22l-.52-.75c-.73-.43-1.13-.54-1.57-.54l-.82.11c-.75.43-1.05.75-1.28 1.18l-.33.95c0 1.27.11 1.8.33 2.23l.53.75c.73.43 1.13.54 1.56.54Zm4.45.9Zm3.79.18l-1.09-.12c-.87-.46-1.2-.81-1.44-1.29l-.35-1.08v-5.25h1.26v4.39c0 .75.17 1.32.5 1.7l.79.57c1.02 0 1.4-.1 1.74-.3l.61-.51c.39-.77.49-1.24.49-1.8v-4.05h1.26v7.56h-1.14l-.08-1.32-.57.84c-.9.53-1.41.66-1.98.66Zm4.81-.18Zm1.05 0v-7.56h1.14l.09 1.44.38-.63c.53-.48.85-.67 1.22-.8l.81-.19.48 1.32h-.46l-.63.05-.84.3c-.45.38-.62.64-.75.97l-.18.72v4.38h-1.26ZM0 186.03Zm2.68-3.2l-.61-.08-.77-.53c-.32-.55-.4-.86-.4-1.18l.08-.65.54-.77c.55-.32.84-.4 1.16-.4l.65.08.77.54c.32.55.4.85.4 1.2l-.08.63-.54.76c-.55.32-.86.4-1.2.4Zm6.71 3.2Zm1.12 0v-10.5H13.6c1.23 0 2.24.21 3.03.65.8.41 1.39 1.02 1.77 1.81.39.78.59 1.72.59 2.82 0 1.08-.2 2.01-.59 2.79-.38.78-.97 1.38-1.77 1.8s-1.8.63-3.03.63H10.51Zm1.26-1.05h1.8c1.02 0 1.83-.17 2.43-.5l1.03-.81c.52-1.25.65-2 .65-2.86l-.39-2.27c-.26-.62-.69-1.11-1.29-1.45s-1.41-.51-2.43-.51h-1.8v8.4Zm7.95 1.05Zm4.36.18l-1.34-.17c-1.09-.66-1.51-1.11-1.82-1.71l-.47-2.08c0-.8.15-1.5.45-2.08l.74-1.06c1.11-.66 1.75-.82 2.47-.82l1.37.16c1.03.66 1.42 1.1 1.69 1.64l.42 1.11c0 .74 0 .85 0 .96v.23l-6.19.15v-.98h4.96c-.03-.69-.26-1.23-.69-1.62l-.95-.59c-1.07 0-1.47.1-1.84.31l-.65.47c-.44.75-.55 1.21-.55 1.78v.41l.11 1.14c.45.84.75 1.16 1.11 1.37l.76.31c.95 0 1.39-.11 1.73-.34l.6-.56 1.39-.4-.33.85c-.6.73-.97 1.01-1.42 1.22l-.96.3Zm-1.5-8.39l-.13-.89L25.46 175l.18 1.08-3.06 1.74Zm5.41 8.21Zm4.02 0l-.84-.07c-.66-.28-.91-.52-1.09-.85l-.26-.79v-4.78H28.5v-1.07h1.32l.17-1.83h1.09v1.83h2.19v1.07H31.08v4.21c0 .47.1.79.29.96l.52.24h1.29v1.08H32.01Zm1.65 0Zm4.37.18l-1.34-.17c-1.09-.66-1.52-1.11-1.83-1.71l-.46-2.08c0-.8.15-1.5.45-2.08l.74-1.06c1.11-.66 1.75-.82 2.47-.82l1.36.16c1.03.66 1.43 1.1 1.7 1.64l.42 1.11c0 .74 0 .85 0 .96l-.01.23-6.19.15v-.98h4.97c-.03-.69-.26-1.23-.69-1.62l-.95-.59c-1.07 0-1.47.1-1.84.31l-.65.47c-.44.75-.55 1.21-.55 1.78v.41l.11 1.14c.45.84.74 1.16 1.1 1.37l.77.31c.95 0 1.38-.11 1.72-.34l.6-.56 1.4-.4-.33.85c-.6.73-.98 1.01-1.43 1.22l-.95.3Zm4.16-.18Zm4.45.18l-1.35-.17c-1.13-.66-1.57-1.11-1.89-1.71l-.48-2.07c0-.8.16-1.49.48-2.08l.76-1.05c1.13-.67 1.77-.84 2.48-.84.9 0 1.65.23 2.25.7s.98 1.08 1.14 1.86H48.74c-.1-.47-.34-.83-.73-1.09l-.85-.39c-.96 0-1.36.11-1.73.33l-.67.53c-.44.86-.55 1.39-.55 2.02l.07.89c.26.73.43 1.03.65 1.27l.48.42.9.31c.68 0 1-.05 1.29-.16l.54-.3.53-.73 1.36-.31-.54 1.38c-1.21.95-1.96 1.19-2.85 1.19Zm3.93-.18Zm4.02 0l-.84-.07c-.66-.28-.92-.52-1.1-.85l-.25-.79v-4.78H51.08v-1.07H52.4l.16-1.83h1.1v1.83h2.19v1.07H53.66v4.21c0 .47.09.79.28.96l.53.24h1.29v1.08H54.59Zm1.65 0Zm4.36.18l-1.34-.17c-1.09-.66-1.51-1.11-1.82-1.71l-.47-2.08c0-.8.15-1.5.45-2.08l.74-1.06c1.11-.66 1.75-.82 2.47-.82l1.37.16c1.03.66 1.42 1.1 1.69 1.64l.42 1.11c0 .74 0 .85 0 .96v.23l-6.19.15v-.98h4.96c-.03-.69-.26-1.23-.69-1.62l-.95-.59c-1.07 0-1.47.1-1.84.31l-.65.47c-.44.75-.55 1.21-.55 1.78v.41l.11 1.14c.45.84.75 1.16 1.11 1.37l.76.31c.95 0 1.39-.11 1.73-.34l.6-.56 1.39-.4-.33.85c-.6.73-.97 1.01-1.42 1.22l-.96.3Zm4.16-.18Zm1.05 0v-7.56h1.14l.09 1.44.39-.63c.53-.48.85-.67 1.22-.8l.81-.19.48 1.32h-.47l-.62.05-.84.3c-.45.38-.63.64-.76.97l-.18.72v4.38H65.81Zm8.49 0Zm4.38.18l-1.37-.17c-1.1-.69-1.53-1.17-1.83-1.77l-.45-2.04c0-.76.15-1.43.45-2.02l.73-1.07c1.11-.68 1.75-.85 2.48-.85l1.16.13c.93.5 1.29.84 1.54 1.29v-4.48h1.26v10.8H81.51l-.1-1.24-.37.48-.8.6c-.7.27-1.1.34-1.56.34Zm.15-1.1l.94-.12c.76-.48 1.05-.81 1.26-1.23l.32-.93c0-1.15-.11-1.65-.32-2.08l-.5-.77c-.76-.48-1.2-.6-1.7-.6l-.93.12c-.76.48-1.05.82-1.26 1.25l-.32.93c0 1.15.11 1.65.32 2.08l.5.75c.76.48 1.2.6 1.69.6Zm4.87.92Zm4.37.18l-1.34-.17c-1.09-.66-1.52-1.11-1.83-1.71l-.46-2.08c0-.8.15-1.5.45-2.08l.74-1.06c1.11-.66 1.75-.82 2.47-.82l1.36.16c1.03.66 1.43 1.1 1.7 1.64l.42 1.11c0 .74 0 .85 0 .96l-.01.23-6.19.15v-.98h4.97c-.03-.69-.26-1.23-.69-1.62l-.95-.59c-1.07 0-1.47.1-1.84.31l-.65.47c-.44.75-.55 1.21-.55 1.78v.41l.11 1.14c.45.84.74 1.16 1.1 1.37l.77.31c.95 0 1.38-.11 1.72-.34l.6-.56 1.4-.4-.33.85c-.6.73-.98 1.01-1.43 1.22l-.95.3Zm4.16-.18Zm3.9.18l-1.18-.11c-.93-.42-1.3-.71-1.58-1.08l-.44-.82 1.23-.51.16.5.53.62c.55.27.89.33 1.29.33l.64-.05.63-.35.29-.56-.07-.75-.5-.45-.9-.27c-.73-.13-1.06-.21-1.38-.31l-.6-.23-.7-.54-.36-.77c0-.78.11-1.16.33-1.49l.53-.61c.83-.38 1.32-.47 1.87-.47.81 0 1.46.19 1.96.58l.8.96-1.16.74-.21-.68c-.55-.43-.93-.54-1.41-.54l-.83.1-.61.63.07.69.47.44.86.31c.89.16 1.34.28 1.75.43l.74.37c.51.6.64 1.01.64 1.55l-.12.88c-.47.7-.8.97-1.23 1.18l-.93.28Zm7.61-.18Zm3.51.18l-1.12-.11c-.82-.42-1.12-.71-1.32-1.06l-.3-.75c0-.93.13-1.36.39-1.71l.64-.63c.97-.37 1.55-.47 2.21-.47h1.99c0-.47-.07-.86-.22-1.17l-.35-.56-.89-.4c-.89 0-1.31.12-1.66.36l-.56.6-1.37.47.24-.99c.61-.73 1-1.01 1.47-1.2l.96-.3c1.21 0 1.79.13 2.25.39l.82.6c.46.91.57 1.45.57 2.07v4.68h-1.12l-.08-1.34-.23.41-.49.53-.66.38-.83.2Zm.2-1.07l.66-.07.82-.49c.4-.51.55-.79.65-1.1l.16-.64v-.38h-1.89c-.49 0-.88.06-1.18.18l-.52.27-.32.64.06.76.43.56.79.27Zm4.45.89Zm1.05 0v-7.56h1.14l.06 1.32.58-.84c.89-.53 1.4-.66 1.97-.66l1.1.12c.86.47 1.19.82 1.43 1.3l.36 1.08v5.24h-1.26v-4.38c0-.76-.17-1.33-.51-1.71l-.8-.57c-1.03 0-1.4.1-1.73.31l-.6.5c-.39.77-.48 1.25-.48 1.81v4.04h-1.26Zm7.56 0Zm4.43.18l-1.33-.16c-1.12-.65-1.56-1.11-1.88-1.7l-.48-2.09c0-.81.16-1.51.48-2.09l.77-1.07c1.13-.65 1.77-.81 2.47-.81l1.35.16c1.11.65 1.55 1.11 1.87 1.72l.5 2.08c0 .8-.17 1.5-.5 2.1l-.77 1.05c-1.12.65-1.76.81-2.48.81Zm.01-1.08l.83-.11c.74-.43 1.04-.75 1.27-1.18l.35-.96c0-1.27-.12-1.8-.35-2.22l-.51-.75c-.73-.43-1.13-.54-1.57-.54l-.82.11c-.75.43-1.05.75-1.28 1.18l-.33.95c0 1.27.11 1.8.33 2.23l.52.75c.73.43 1.13.54 1.56.54Zm4.45.9Zm1.05 0v-7.56h1.14l.08 1.08.56-.7c.81-.44 1.25-.56 1.73-.56l.74.05.91.37c.48.43.68.71.83 1.03l.61-.81c.91-.51 1.4-.64 1.92-.64l1.09.12c.87.47 1.2.82 1.43 1.3l.36 1.08v5.24h-1.24v-4.38c0-.76-.16-1.33-.47-1.71l-.74-.57c-.95 0-1.3.1-1.61.31l-.56.5c-.36.78-.45 1.26-.45 1.83v4.02h-1.26v-4.38c0-.76-.15-1.33-.46-1.71l-.75-.57c-.95 0-1.3.1-1.61.31l-.54.5c-.36.78-.45 1.26-.45 1.83v4.02h-1.26Zm12.31 0Zm3.51.18l-1.12-.11c-.82-.42-1.12-.71-1.32-1.06l-.3-.75c0-.93.13-1.36.39-1.71l.64-.63c.97-.37 1.55-.47 2.21-.47h1.99c0-.47-.07-.86-.22-1.17l-.35-.56-.89-.4c-.89 0-1.31.12-1.66.36l-.56.6-1.37.47.24-.99c.61-.73 1-1.01 1.47-1.2l.96-.3c1.21 0 1.79.13 2.25.39l.82.6c.46.91.57 1.45.57 2.07v4.68H148.9l-.08-1.34-.23.41-.49.53-.66.38-.83.2Zm.2-1.07l.66-.07.82-.49c.4-.51.55-.79.65-1.1l.16-.64v-.38h-1.89c-.49 0-.88.06-1.18.18l-.52.27-.32.64.06.76.43.56.79.27Zm4.45.89Zm1.05 0v-10.8h1.26v10.8h-1.26Zm2.29 0Zm1.17 0v-7.56h1.26v7.56h-1.26Zm.63-9.17l-.46-.07-.41-.55.08-.7.54-.38.7.07.42.51-.08.71-.55.41Zm1.81 9.17Zm4.36.18l-1.34-.17c-1.09-.66-1.51-1.11-1.82-1.71l-.47-2.08c0-.8.15-1.5.45-2.08l.74-1.06c1.11-.66 1.75-.82 2.47-.82l1.37.16c1.03.66 1.42 1.1 1.69 1.64l.42 1.11c0 .74 0 .85 0 .96v.23l-6.19.15v-.98h4.96c-.03-.69-.26-1.23-.69-1.62l-.95-.59c-1.07 0-1.47.1-1.84.31l-.65.47c-.44.75-.55 1.21-.55 1.78v.41l.11 1.14c.45.84.75 1.16 1.11 1.37l.76.31c.95 0 1.39-.11 1.73-.34l.6-.56 1.39-.4-.33.85c-.6.73-.97 1.01-1.42 1.22l-.96.3Zm4.16-.18Zm3.9.18l-1.18-.11c-.93-.42-1.3-.71-1.58-1.08l-.43-.82 1.23-.51.15.5.54.62c.55.27.89.33 1.29.33l.64-.05.63-.35.29-.56-.08-.75-.5-.45-.9-.27c-.73-.13-1.05-.21-1.37-.31l-.61-.23-.7-.54-.36-.77c0-.78.11-1.16.33-1.49l.54-.61c.83-.38 1.31-.47 1.86-.47.81 0 1.47.19 1.97.58l.79.96-1.15.74-.22-.68c-.55-.43-.92-.54-1.4-.54l-.83.1-.61.63.06.69.47.44.86.31c.89.16 1.35.28 1.76.43l.74.37c.51.6.64 1.01.64 1.55l-.12.88c-.47.7-.8.97-1.23 1.18l-.94.28Zm7.62-.18Zm4.45.18l-1.35-.17c-1.13-.66-1.57-1.11-1.89-1.71l-.48-2.07c0-.8.16-1.49.48-2.08l.76-1.05c1.13-.67 1.77-.84 2.48-.84.9 0 1.65.23 2.25.7s.98 1.08 1.14 1.86h-1.29c-.1-.47-.34-.83-.73-1.09l-.85-.39c-.96 0-1.36.11-1.73.33l-.67.53c-.44.86-.55 1.39-.55 2.02l.07.89c.26.73.43 1.03.65 1.27l.48.42.9.31c.68 0 1-.05 1.29-.16l.54-.3.53-.73 1.36-.31-.54 1.38c-1.21.95-1.96 1.19-2.85 1.19Zm4.13-.18Zm1.05 0v-7.56h1.14l.09 1.44.38-.63c.53-.48.85-.67 1.22-.8l.81-.19.48 1.32h-.46l-.63.05-.84.3c-.45.38-.62.64-.75.97l-.18.72v4.38h-1.26Zm4.22 0Zm4.43.18l-1.33-.16c-1.12-.65-1.56-1.11-1.88-1.7l-.48-2.09c0-.81.16-1.51.48-2.09l.77-1.07c1.13-.65 1.77-.81 2.47-.81l1.35.16c1.11.65 1.55 1.11 1.87 1.72l.5 2.08c0 .8-.17 1.5-.5 2.1l-.77 1.05c-1.12.65-1.76.81-2.48.81Zm.01-1.08l.83-.11c.74-.43 1.04-.75 1.27-1.18l.35-.96c0-1.27-.12-1.8-.35-2.22l-.51-.75c-.73-.43-1.13-.54-1.57-.54l-.82.11c-.75.43-1.05.75-1.28 1.18l-.33.95c0 1.27.11 1.8.33 2.23l.52.75c.73.43 1.13.54 1.56.54Zm4.45.9Zm3.9.18l-1.18-.11c-.93-.42-1.3-.71-1.58-1.08l-.43-.82 1.23-.51.15.5.54.62c.55.27.89.33 1.29.33l.64-.05.63-.35.29-.56-.08-.75-.5-.45-.9-.27c-.73-.13-1.05-.21-1.37-.31l-.61-.23-.7-.54-.36-.77c0-.78.11-1.16.33-1.49l.54-.61c.83-.38 1.31-.47 1.86-.47.81 0 1.47.19 1.97.58l.79.96-1.15.74-.22-.68c-.55-.43-.92-.54-1.4-.54l-.83.1-.61.63.06.69.47.44.86.31c.89.16 1.35.28 1.76.43l.74.37c.51.6.64 1.01.64 1.55l-.12.88c-.47.7-.8.97-1.23 1.18l-.94.28Zm3.63-.18Zm3.9.18l-1.18-.11c-.93-.42-1.3-.71-1.58-1.08l-.43-.82 1.23-.51.15.5.54.62c.55.27.89.33 1.29.33l.64-.05.63-.35.29-.56-.08-.75-.5-.45-.9-.27c-.73-.13-1.05-.21-1.37-.31l-.61-.23-.7-.54-.36-.77c0-.78.11-1.16.33-1.49l.54-.61c.83-.38 1.31-.47 1.86-.47.81 0 1.47.19 1.97.58l.79.96-1.15.74-.22-.68c-.55-.43-.92-.54-1.4-.54l-.83.1-.61.63.06.69.47.44.86.31c.89.16 1.35.28 1.76.43l.74.37c.51.6.64 1.01.64 1.55l-.12.88c-.47.7-.8.97-1.23 1.18l-.94.28Zm3.63-.18Zm1.08-3.9v-1.07h5.94v1.07h-5.94Zm7.04 3.9Zm3.51.18l-1.12-.11c-.82-.42-1.13-.71-1.33-1.06l-.3-.75c0-.93.13-1.36.39-1.71l.65-.63c.97-.37 1.54-.47 2.2-.47h2c0-.47-.08-.86-.23-1.17l-.35-.56-.89-.4c-.89 0-1.3.12-1.65.36l-.57.6-1.37.47.24-.99c.61-.73 1-1.01 1.47-1.2l.96-.3c1.21 0 1.79.13 2.25.39l.82.6c.46.91.58 1.45.58 2.07v4.68h-1.13l-.07-1.34-.23.41-.49.53-.66.38-.83.2Zm.19-1.07l.67-.07.81-.49c.4-.51.55-.79.65-1.1l.17-.64v-.38h-1.89c-.49 0-.89.06-1.19.18l-.51.27-.33.64.06.76.44.56.78.27Zm4.46.89Zm4.03 3.48l-1.28-.09c-1.05-.35-1.46-.62-1.75-.98l-.43-.8c0-.76.04-1.01.13-1.27l.27-.51c.47-.5.8-.73 1.23-.93l.87.51-.87.48c-.32.56-.4.83-.4 1.07l.09.6.65.61c.68.22 1.06.27 1.49.27l.8-.05.86-.42.43-.7-.13-.94c-.52-.47-1.02-.61-1.75-.65l-1.08-.09c-.8-.14-1.13-.22-1.39-.31l-.48-.21-.51-.37-.14-.47 1.46-1.44 1.09.39-1.5 1.35.2-.52.21.15.34.2.57.15c.61.07 1.02.12 1.52.15l1.24.17c.83.38 1.13.64 1.31.96l.28.7c0 .87-.12 1.27-.36 1.66l-.59.7c-.98.5-1.61.63-2.38.63Zm-.01-5.85l-1.17-.12c-.89-.48-1.23-.8-1.46-1.2l-.34-.87c0-1 .11-1.45.34-1.85l.58-.71c.88-.49 1.42-.62 2.05-.62l1.16.13c.88.49 1.22.8 1.45 1.2l.34.85c0 1-.11 1.46-.34 1.87l-.57.72c-.88.48-1.41.6-2.04.6Zm0-1.04l.96-.14c.62-.55.78-.97.78-1.51l-.16-.93c-.62-.56-1.04-.7-1.58-.7l-.96.14c-.65.56-.81.96-.81 1.49l.16.96c.64.55 1.07.69 1.61.69Zm1.23-3.08l-.38-1.07h3.09v.95l-2.71.12Zm2.82 6.49Zm4.36.18l-1.34-.17c-1.09-.66-1.51-1.11-1.82-1.71l-.47-2.08c0-.8.15-1.5.45-2.08l.74-1.06c1.11-.66 1.75-.82 2.47-.82l1.37.16c1.03.66 1.42 1.1 1.69 1.64l.42 1.11c0 .74 0 .85 0 .96v.23l-6.19.15v-.98h4.96c-.03-.69-.26-1.23-.69-1.62l-.95-.59c-1.07 0-1.47.1-1.84.31l-.65.47c-.44.75-.55 1.21-.55 1.78v.41l.11 1.14c.45.84.75 1.16 1.11 1.37l.76.31c.95 0 1.39-.11 1.73-.34l.6-.56 1.39-.4-.33.85c-.6.73-.97 1.01-1.42 1.22l-.96.3Zm4.16-.18Zm1.05 0v-7.56h1.14l.06 1.32.58-.84c.89-.53 1.4-.66 1.97-.66l1.1.12c.86.47 1.2.82 1.44 1.3l.36 1.08v5.24h-1.26v-4.38c0-.76-.17-1.33-.51-1.71l-.8-.57c-1.03 0-1.41.1-1.74.31l-.59.5c-.39.77-.49 1.25-.49 1.81v4.04h-1.26Zm7.57 0Zm4.02 0l-.84-.07c-.66-.28-.92-.52-1.1-.85l-.25-.79v-4.78h-1.32v-1.07h1.32l.16-1.83h1.1v1.83h2.19v1.07h-2.19v4.21c0 .47.09.79.28.96l.53.24h1.29v1.08h-1.17Zm1.85 0Zm3.9.18l-1.18-.11c-.93-.42-1.3-.71-1.58-1.08l-.43-.82 1.23-.51.15.5.54.62c.55.27.89.33 1.29.33l.64-.05.63-.35.29-.56-.08-.75-.5-.45-.9-.27c-.73-.13-1.05-.21-1.37-.31l-.61-.23-.7-.54-.36-.77c0-.78.11-1.16.33-1.49l.54-.61c.83-.38 1.31-.47 1.86-.47.81 0 1.47.19 1.97.58l.79.96-1.15.74-.22-.68c-.55-.43-.92-.54-1.4-.54l-.83.1-.61.63.06.69.47.44.86.31c.89.16 1.35.28 1.76.43l.74.37c.51.6.64 1.01.64 1.55l-.12.88c-.47.7-.8.97-1.23 1.18l-.94.28ZM0 236.03Zm8.6 1.42l-3.53-5.52H6.52l3.53 5.52H8.6Zm-2.8-1.24c-1 0-1.9-.23-2.66-.67-.76-.47-1.36-1.1-1.79-1.91-.42-.82-.63-1.77-.63-2.85s.21-2.01.63-2.82 1.03-1.46 1.79-1.92 1.66-.69 2.66-.69c1.03 0 1.93.23 2.69.69s1.35 1.1 1.77 1.92.64 1.75.64 2.82-.21 2.03-.64 2.85c-.42.81-1.01 1.44-1.77 1.91-.76.44-1.66.67-2.69.67Zm0-1.11l2-.51c.58-.35 1.03-.85 1.34-1.49l.47-2.32c0-.9-.16-1.67-.47-2.31L7.8 226.98c-.57-.34-1.23-.51-2-.51l-1.99.51c-.57.34-1.01.84-1.33 1.49l-.47 2.31c0 .9.16 1.67.47 2.32l.76 1.14c1.15.69 1.81.86 2.56.86Zm5.82.93Zm3.79.18l-1.09-.12c-.87-.46-1.2-.81-1.44-1.29l-.35-1.08v-5.25h1.26v4.39c0 .75.17 1.32.5 1.7l.79.57c1.02 0 1.4-.1 1.74-.3l.61-.51c.39-.77.49-1.24.49-1.8v-4.05h1.26v7.56H18.04l-.08-1.32-.57.84c-.9.53-1.41.66-1.98.66Zm4.8-.18Zm4.37.18l-1.34-.17c-1.09-.66-1.52-1.12-1.83-1.71l-.46-2.08c0-.8.15-1.5.45-2.08l.74-1.06c1.11-.66 1.75-.82 2.47-.82l1.36.16c1.03.66 1.43 1.1 1.7 1.64l.42 1.11c0 .74 0 .85 0 .96l-.01.23-6.19.15v-.98h4.97c-.03-.69-.26-1.23-.69-1.62l-.95-.59c-1.07 0-1.47.1-1.84.31l-.65.47c-.44.75-.55 1.21-.55 1.78v.41l.11 1.14c.45.84.74 1.16 1.1 1.37l.77.31c.95 0 1.38-.11 1.72-.34l.6-.56 1.4-.4-.33.85c-.6.73-.98 1.01-1.43 1.22l-.95.3Zm8.14-.18Zm3.9.18l-1.18-.11c-.93-.42-1.3-.71-1.58-1.08l-.43-.82 1.23-.51.15.5.54.62c.55.27.89.33 1.29.33l.64-.05.63-.35.29-.56-.08-.75-.5-.45-.9-.27c-.73-.13-1.05-.21-1.37-.31l-.61-.23-.7-.54-.36-.77c0-.78.11-1.16.33-1.49l.54-.61c.83-.38 1.31-.47 1.86-.47.81 0 1.47.19 1.97.58l.79.96-1.15.74-.22-.68c-.55-.43-.92-.54-1.4-.54l-.83.1-.61.63.06.69.47.44.86.31c.89.16 1.35.28 1.76.43l.74.37c.51.6.64 1.01.64 1.55l-.12.88c-.47.7-.8.97-1.23 1.17l-.94.29Zm3.63-.18Zm4.43.18l-1.33-.16c-1.12-.65-1.56-1.11-1.88-1.7l-.48-2.09c0-.81.16-1.51.48-2.09l.77-1.07c1.13-.65 1.77-.81 2.47-.81l1.35.16c1.11.65 1.55 1.11 1.87 1.72l.5 2.08c0 .8-.17 1.5-.5 2.1l-.77 1.05c-1.12.65-1.76.81-2.48.81Zm.01-1.08l.83-.11c.74-.43 1.04-.75 1.27-1.18l.35-.96c0-1.27-.12-1.8-.35-2.22l-.51-.75c-.73-.43-1.13-.54-1.57-.54l-.82.11c-.75.43-1.05.75-1.28 1.18l-.33.95c0 1.27.11 1.8.33 2.23l.52.75c.73.43 1.13.54 1.56.54Zm4.46.9Zm3.79.18l-1.09-.12c-.87-.46-1.2-.81-1.44-1.29l-.35-1.08v-5.25h1.26v4.39c0 .75.17 1.32.5 1.7l.79.57c1.02 0 1.4-.1 1.74-.3l.61-.51c.39-.77.49-1.24.49-1.8v-4.05h1.26v7.56H55.57l-.08-1.32-.57.84c-.9.53-1.41.66-1.98.66Zm4.8-.18Zm1.05 0v-10.8h1.26v4.51c.25-.45.6-.8 1.05-1.06l.96-.39c1.12 0 1.63.12 2.06.36l.76.58c.46.96.57 1.57.57 2.3v4.5H64.21v-4.36c0-.76-.16-1.34-.48-1.72l-.79-.58c-1.04 0-1.43.1-1.78.31l-.61.51c-.4.78-.5 1.26-.5 1.83v4.01H58.79Zm7.58 0Zm3.51.18l-1.12-.11c-.82-.43-1.12-.71-1.32-1.06l-.3-.75c0-.93.13-1.36.39-1.71l.64-.63c.97-.37 1.55-.47 2.21-.47h1.99c0-.47-.07-.86-.22-1.17l-.35-.56-.89-.4c-.89 0-1.31.12-1.66.36l-.56.6-1.37.47.24-.99c.61-.73 1-1.01 1.47-1.2l.96-.3c1.21 0 1.79.13 2.25.39l.82.61c.46.9.57 1.44.57 2.06v4.68H72.51l-.08-1.34-.23.41-.49.53-.66.38-.83.2Zm.2-1.07l.66-.07.82-.49c.4-.51.55-.79.65-1.1l.16-.64v-.38H70.48c-.49 0-.88.06-1.18.18l-.52.27-.32.64.06.76.43.56.79.27Zm4.45.89Zm1.17 0v-7.56h1.26v7.56H75.7Zm.63-9.17l-.46-.07-.41-.55.08-.7.54-.38.7.07.42.51-.08.71-.55.41Zm1.8 9.17Zm4.02 0l-.84-.07c-.66-.28-.91-.52-1.09-.85l-.26-.79v-4.78H78.64v-1.07h1.32l.17-1.83h1.09v1.83h2.19v1.07H81.22v4.21c0 .47.1.79.29.96l.52.24h1.29v1.08H82.15Zm1.65 0Zm4.37.18l-1.34-.17c-1.09-.66-1.52-1.12-1.83-1.71l-.46-2.08c0-.8.15-1.5.45-2.08l.74-1.06c1.11-.66 1.75-.82 2.47-.82l1.36.16c1.03.66 1.43 1.1 1.7 1.64l.42 1.11c0 .74 0 .85 0 .96l-.01.23-6.19.15v-.98h4.97c-.03-.69-.26-1.23-.69-1.62l-.95-.59c-1.07 0-1.47.1-1.84.31l-.65.47c-.44.75-.55 1.21-.55 1.78v.41l.11 1.14c.45.84.74 1.16 1.1 1.37l.77.31c.95 0 1.38-.11 1.72-.34l.6-.56 1.4-.4-.33.85c-.6.73-.98 1.01-1.43 1.22l-.95.3Zm4.16-.18Zm.54 0v-1.04l4.18-5.47H92.94v-1.05h5.55v1.03l-4.2 5.48h4.28v1.05h-5.7Zm6.33 0Zm1.08-3.9v-1.07h5.94v1.07h-5.94Zm7.03 3.9Zm3.23 0l-2.87-7.56h1.32l2.28 6.34 2.3-6.34h1.29l-2.87 7.56h-1.45Zm4.3 0Zm4.43.18l-1.33-.16c-1.12-.65-1.56-1.11-1.88-1.7l-.48-2.09c0-.81.16-1.51.48-2.09l.77-1.07c1.13-.65 1.77-.81 2.47-.81l1.35.16c1.11.65 1.55 1.11 1.87 1.72l.5 2.08c0 .8-.17 1.5-.5 2.1l-.77 1.05c-1.12.65-1.76.81-2.48.81Zm.01-1.08l.83-.11c.74-.43 1.04-.75 1.27-1.18l.35-.96c0-1.27-.12-1.8-.35-2.22l-.51-.75c-.73-.43-1.13-.54-1.57-.54l-.82.11c-.75.43-1.05.75-1.28 1.18l-.33.95c0 1.27.11 1.8.33 2.23l.52.75c.73.43 1.13.54 1.56.54Zm4.46.9Zm3.79.18l-1.09-.12c-.87-.46-1.2-.81-1.44-1.29l-.35-1.08v-5.25h1.26v4.39c0 .75.17 1.32.5 1.7l.79.57c1.02 0 1.4-.1 1.74-.3l.61-.51c.39-.77.49-1.24.49-1.8v-4.05h1.26v7.56h-1.14l-.08-1.32-.57.84c-.9.53-1.41.66-1.98.66Zm4.8-.18Zm3.9.18l-1.18-.11c-.93-.42-1.3-.71-1.58-1.08l-.43-.82 1.23-.51.15.5.54.62c.55.27.89.33 1.29.33l.64-.05.63-.35.29-.56-.08-.75-.5-.45-.9-.27c-.73-.13-1.05-.21-1.37-.31l-.61-.23-.7-.54-.36-.77c0-.78.11-1.16.33-1.49l.54-.61c.83-.38 1.31-.47 1.86-.47.81 0 1.47.19 1.97.58l.79.96-1.15.74-.22-.68c-.55-.43-.92-.54-1.4-.54l-.83.1-.61.63.06.69.47.44.86.31c.89.16 1.35.28 1.76.43l.74.37c.51.6.64 1.01.64 1.55l-.12.88c-.47.7-.8.97-1.23 1.17l-.94.29Zm7.62-.18Zm1.47 0V227.3c0-.48.08-.87.24-1.17l.39-.54c.63-.29 1.02-.36 1.48-.36h.86v1.08h-.66l-.64.07-.41.57v9.08h-1.26Zm-1.16-6.49v-1.07h4.32v1.07h-4.32Zm4.49 6.49Zm3.51.18l-1.12-.11c-.82-.43-1.12-.71-1.32-1.06l-.3-.75c0-.93.13-1.36.39-1.71l.64-.63c.97-.37 1.55-.47 2.21-.47h1.99c0-.47-.07-.86-.22-1.17l-.35-.56-.89-.4c-.89 0-1.31.12-1.66.36l-.56.6-1.37.47.24-.99c.61-.73 1-1.01 1.47-1.2l.96-.3c1.21 0 1.79.13 2.25.39l.82.61c.46.9.57 1.44.57 2.06v4.68h-1.12l-.08-1.34-.23.41-.49.53-.66.38-.83.2Zm.2-1.07l.66-.07.82-.49c.4-.51.55-.79.65-1.1l.16-.64v-.38h-1.89c-.49 0-.88.06-1.18.18l-.52.27-.32.64.06.76.43.56.79.27Zm4.45.89Zm1.17 0v-7.56h1.26v7.56h-1.26Zm.63-9.17l-.46-.07-.41-.55.08-.7.54-.38.7.07.42.51-.08.71-.55.41Zm1.81 9.17Zm1.05 0v-7.56h1.14l.09 1.44.38-.63c.53-.48.85-.67 1.22-.8l.81-.19.48 1.32h-.46l-.63.05-.84.3c-.45.38-.62.64-.75.97l-.18.72v4.38h-1.26Zm4.22 0Zm4.36.18l-1.34-.17c-1.09-.66-1.51-1.12-1.82-1.71l-.47-2.08c0-.8.15-1.5.45-2.08l.74-1.06c1.11-.66 1.75-.82 2.47-.82l1.37.16c1.03.66 1.42 1.1 1.69 1.64l.42 1.11c0 .74 0 .85 0 .96v.23l-6.19.15v-.98h4.96c-.03-.69-.26-1.23-.69-1.62l-.95-.59c-1.07 0-1.47.1-1.84.31l-.65.47c-.44.75-.55 1.21-.55 1.78v.41l.11 1.14c.45.84.75 1.16 1.11 1.37l.76.31c.95 0 1.39-.11 1.73-.34l.6-.56 1.39-.4-.33.85c-.6.73-.97 1.01-1.42 1.22l-.96.3Zm8.15-.18Zm3.51.18l-1.12-.11c-.82-.43-1.13-.71-1.33-1.06l-.3-.75c0-.93.13-1.36.39-1.71l.65-.63c.97-.37 1.54-.47 2.2-.47h2c0-.47-.08-.86-.23-1.17l-.35-.56-.89-.4c-.89 0-1.3.12-1.65.36l-.57.6-1.37.47.24-.99c.61-.73 1-1.01 1.47-1.2l.96-.3c1.21 0 1.79.13 2.25.39l.82.61c.46.9.58 1.44.58 2.06v4.68h-1.13l-.07-1.34-.23.41-.49.53-.66.38-.83.2Zm.19-1.07l.67-.07.81-.49c.4-.51.55-.79.65-1.1l.17-.64v-.38h-1.89c-.49 0-.89.06-1.19.18l-.51.27-.33.64.06.76.44.56.78.27Zm4.46.89Zm3.79.18l-1.09-.12c-.87-.46-1.2-.81-1.44-1.29l-.35-1.08v-5.25h1.26v4.39c0 .75.17 1.32.5 1.7l.79.57c1.02 0 1.4-.1 1.74-.3l.61-.51c.39-.77.49-1.24.49-1.8v-4.05h1.26v7.56h-1.14l-.08-1.32-.57.84c-.9.53-1.41.66-1.98.66Zm4.81-.18Zm-.41 3.3v-1.08h.59l.65-.08.4-.57v-9.13h1.26v8.79c0 .48-.08.87-.24 1.17l-.4.53c-.63.29-1.02.37-1.48.37h-.78Zm2.28-12.47l-.46-.07-.41-.55.08-.7.54-.38.69.07.42.51-.09.71-.53.41Zm1.77 9.17Zm4.43.18l-1.33-.16c-1.12-.65-1.56-1.11-1.88-1.7l-.48-2.09c0-.81.16-1.51.48-2.09l.77-1.07c1.13-.65 1.77-.81 2.47-.81l1.35.16c1.11.65 1.55 1.11 1.87 1.72l.5 2.08c0 .8-.17 1.5-.5 2.1l-.77 1.05c-1.12.65-1.76.81-2.48.81Zm.01-1.08l.83-.11c.74-.43 1.04-.75 1.27-1.18l.35-.96c0-1.27-.12-1.8-.35-2.22l-.51-.75c-.73-.43-1.13-.54-1.57-.54l-.82.11c-.75.43-1.05.75-1.28 1.18l-.33.95c0 1.27.11 1.8.33 2.23l.52.75c.73.43 1.13.54 1.56.54Zm4.46.9Zm3.79.18l-1.09-.12c-.87-.46-1.2-.81-1.44-1.29l-.35-1.08v-5.25h1.26v4.39c0 .75.17 1.32.5 1.7l.79.57c1.02 0 1.4-.1 1.74-.3l.61-.51c.39-.77.49-1.24.49-1.8v-4.05h1.26v7.56h-1.14l-.08-1.32-.57.84c-.9.53-1.41.66-1.98.66Zm4.8-.18Zm1.05 0v-7.56h1.14l.09 1.44.39-.63c.53-.48.85-.67 1.22-.8l.81-.19.48 1.32h-.47l-.62.05-.84.3c-.45.38-.63.64-.76.97l-.18.72v4.38h-1.26Zm4.23 0Zm4.38.18l-1.37-.17c-1.1-.69-1.53-1.17-1.83-1.77l-.45-2.04c0-.76.15-1.43.45-2.02l.73-1.07c1.11-.68 1.75-.85 2.48-.85l1.16.13c.93.5 1.29.84 1.54 1.29v-4.48h1.26v10.8h-1.14l-.1-1.24-.37.48-.8.6c-.7.27-1.1.34-1.56.34Zm.15-1.1l.94-.12c.76-.48 1.05-.81 1.26-1.23l.32-.93c0-1.15-.11-1.65-.32-2.08l-.5-.77c-.76-.48-1.2-.6-1.7-.6l-.93.12c-.76.48-1.05.82-1.26 1.25l-.32.93c0 1.15.11 1.65.32 2.08l.5.75c.76.48 1.2.6 1.69.6Zm4.87.92Zm.77-8.27l-.2-3.06h1.25l-.18 3.06h-.87Zm1.62 8.27Zm1.05 0v-10.8h1.26v4.51c.25-.45.6-.8 1.05-1.06l.96-.39c1.12 0 1.62.12 2.05.36l.76.58c.46.96.58 1.57.58 2.3v4.5h-1.25v-4.36c0-.76-.16-1.34-.48-1.72l-.78-.58c-1.04 0-1.43.1-1.78.31l-.61.51c-.4.78-.5 1.26-.5 1.83v4.01h-1.26Zm7.58 0Zm3.79.18l-1.09-.12c-.87-.46-1.2-.81-1.44-1.29l-.35-1.08v-5.25h1.26v4.39c0 .75.17 1.32.5 1.7l.79.57c1.02 0 1.4-.1 1.74-.3l.61-.51c.39-.77.49-1.24.49-1.8v-4.05h1.26v7.56h-1.14l-.08-1.32-.57.84c-.9.53-1.41.66-1.98.66Zm4.81-.18Zm1.17 0v-7.56h1.26v7.56h-1.26Zm.63-9.17l-.46-.07-.41-.55.08-.7.54-.38.69.07.43.51-.09.71-.54.41Zm5.78 9.17Zm2.37-3.02l-.06-2.34h.47l.82-.02c.77-.11 1.11-.22 1.4-.36l.53-.4c.35-.6.44-.98.44-1.47l-.09-.78c-.36-.6-.61-.83-.93-.98l-.69-.24c-.84 0-1.21.07-1.53.24l-.57.38-.43.91-1.2.4.14-1.13c.56-.9.95-1.25 1.45-1.5l1.07-.37c1.3 0 1.88.12 2.38.37l.9.61c.57.92.72 1.46.72 2.09l-.16 1.34c-.63.92-1.06 1.26-1.61 1.47l-1.19.31-.76 1.47h-1.1Zm.54 3.09l-.46-.08-.41-.53.08-.68.54-.42.71.09.4.53-.08.68-.53.41Zm0 0" stroke="none" clip-path="url(#b)"/></g></g></svg>