<?xml version="1.0" encoding="UTF-8" standalone="no"?><svg xmlns="http://www.w3.org/2000/svg" xmlns:xlink="http://www.w3.org/1999/xlink" contentScriptType="text/ecmascript" zoomAndPan="magnify" contentStyleType="text/css" stroke="#000000" stroke-linecap="square" version="1" width="1089" stroke-miterlimit="10" fill="#000000" preserveAspectRatio="xMidYMid meet" viewBox="0 0 1089 360" height="360"><defs><clipPath id="a"><path d="M0 0V360H1089V0Z"/></clipPath><clipPath id="e" clip-path="url(#a)"><path d="M-345 682H1140V-1683H-345Z"/></clipPath><clipPath id="b"><path d="M0 0V360H1089V0Z"/></clipPath><clipPath id="c" clip-path="url(#b)"><path d="M-345 682H1140V-1683H-345Z"/></clipPath><clipPath id="f" clip-path="url(#c)"><path d="M25 5H1064c11.05 0 20 8.95 20 20V335c0 11.05-8.95 20-20 20H25c-11.05 0-20-8.95-20-20V25C5 13.95 13.95 5 25 5Z"/></clipPath><clipPath id="d"><path d="M0 0V360H1089V0Z"/></clipPath><clipPath id="g" clip-path="url(#d)"><path d="M-345 682H1140V-1683H-345Z"/></clipPath></defs><g><g fill="#0e1420" stroke="none"><path d="M25 5H1064c11.05 0 20 8.95 20 20V335c0 11.05-8.95 20-20 20H25c-11.05 0-20-8.95-20-20V25C5 13.95 13.95 5 25 5Z" clip-path="url(#e)"/><path fill="#2c3f5b" d="M25 5V6H1064V5 4H25V5ZM1084 25h-1V335h1 1V25h-1Zm-20 330v-1H25v1 1H1064v-1ZM5 335H6V25H5 4V335H5Zm20 20v-1c-10.49 0-19-8.51-19-19H5 4c0 11.6 9.4 21 21 21v-1Zm1059-20h-1c0 10.49-8.51 19-19 19v1 1c11.6 0 21-9.4 21-21h-1ZM1064 5V6c10.49 0 19 8.51 19 19h1 1c0-11.6-9.4-21-21-21V5ZM25 5V4C13.4 4 4 13.4 4 25H5 6C6 14.51 14.51 6 25 6V5Z" clip-path="url(#f)"/><path fill="#ffffff" d="M33.1 164Zm.44 0l5.12-14h3.06l5.1 14H43.96l-3.8-10.92L36.36 164H33.54Zm2.26-3.18l.72-2.1h7.12l.7 2.1H35.8ZM46.79 164Zm6.2.24c-1.01 0-1.91-.22-2.7-.66-.79-.45-1.41-1.07-1.86-1.86-.44-.79-.66-1.69-.66-2.7 0-1.03.22-1.93.66-2.7.45-.79 1.07-1.41 1.86-1.86s1.69-.68 2.7-.68c1.29 0 2.37.34 3.24 1.02.88.67 1.44 1.59 1.68 2.76H55.05c-.12-.45-.37-.81-.74-1.08s-.82-.4-1.34-.4c-.47 0-.89.12-1.26.36-.36.23-.65.56-.86 1s-.32.96-.32 1.56c0 .47.06.88.18 1.24.13.36.31.67.52.92.23.25.49.45.78.58s.61.2.96.2.66-.05.94-.16c.28-.12.52-.29.72-.52s.34-.49.42-.8h2.86c-.24 1.15-.8 2.07-1.68 2.76-.88.68-1.96 1.02-3.24 1.02Zm5.79-.24Zm5.82 0c-.71 0-1.33-.11-1.86-.32-.52-.23-.93-.59-1.22-1.1-.29-.52-.44-1.23-.44-2.12v-4.18h-1.7v-2.26h1.7l.3-2.72h2.4v2.72h2.64v2.26H63.79v4.22c0 .45.1.77.3.94s.54.26 1.02.26h1.28V164H64.61Zm2.75 0Zm1.38 0v-9.98h2.7V164h-2.7Zm1.36-11.4c-.49 0-.89-.14-1.2-.42-.31-.29-.46-.66-.46-1.1s.15-.8.46-1.08c.31-.29.71-.44 1.2-.44s.89.15 1.2.44c.32.28.48.64.48 1.08s-.16.81-.48 1.1c-.31.28-.71.42-1.2.42ZM72.83 164Zm6.08.24c-.96 0-1.83-.22-2.6-.66-.76-.45-1.37-1.07-1.82-1.86s-.68-1.69-.68-2.7c0-1.04.23-1.95.68-2.74s1.07-1.4 1.84-1.84 1.63-.66 2.58-.66c.97 0 1.85.22 2.62.66s1.38 1.05 1.82 1.84c.45.79.68 1.7.68 2.74 0 1.03-.23 1.93-.68 2.72-.45.77-1.07 1.39-1.84 1.84-.77.44-1.64.66-2.6.66Zm0-2.34c.44 0 .83-.11 1.18-.32.36-.21.65-.53.86-.96.21-.44.32-.98.32-1.62s-.11-1.17-.32-1.6-.5-.75-.86-.96c-.35-.21-.73-.32-1.16-.32s-.82.11-1.18.32-.65.53-.86.96-.32.97-.32 1.62c0 .63.11 1.16.32 1.6.21.43.49.75.84.96.36.21.75.32 1.18.32Zm6.11 2.1Zm1.3 0v-9.98H88.7l.2 1.66c.32-.57.76-1.03 1.32-1.38.57-.35 1.26-.52 2.06-.52.83 0 1.53.17 2.1.52s1.01.86 1.32 1.54.46 1.51.46 2.5V164h-2.7v-5.42c0-.81-.17-1.43-.5-1.86-.33-.44-.86-.66-1.58-.66-.45 0-.86.11-1.22.32-.35.21-.63.53-.84.94-.2.4-.3.89-.3 1.46V164h-2.7Z" clip-path="url(#g)"/><path fill="#ffffff" d="M354.1 164Zm.44 0l5.12-14h3.06l5.1 14h-2.86l-3.8-10.92-3.8 10.92h-2.82Zm2.26-3.18l.72-2.1h7.12l.7 2.1H356.8ZM368.26 164Zm5.64 4.64c-.96 0-1.8-.12-2.52-.36-.71-.23-1.26-.58-1.66-1.06-.39-.47-.58-1.05-.58-1.74 0-.47.12-.91.36-1.32s.59-.79 1.06-1.12 1.04-.63 1.72-.88l1 1.34c-.6.2-1.03.45-1.3.74-.27.31-.4.63-.4.96 0 .31.1.57.3.78.21.21.49.37.84.46.35.11.74.16 1.18.16.41 0 .77-.05 1.08-.16.32-.11.57-.27.74-.48.17-.2.26-.43.26-.7 0-.36-.13-.65-.38-.88-.24-.23-.73-.37-1.48-.42-.68-.05-1.29-.13-1.82-.22-.52-.11-.98-.23-1.38-.36-.39-.15-.72-.31-1-.48s-.51-.35-.68-.52v-.46l2.14-2.3 1.92.6-2.5 2.5.78-1.32c.13.09.27.18.4.26.15.07.33.13.54.18s.49.11.82.16c.35.05.78.1 1.3.14.88.08 1.6.25 2.16.5.57.25.99.59 1.26 1.02.27.41.4.93.4 1.54 0 .59-.17 1.14-.5 1.66-.32.53-.82.96-1.5 1.28-.67.33-1.52.5-2.56.5Zm.02-7.58c-.85 0-1.59-.16-2.2-.48-.6-.33-1.06-.77-1.38-1.32-.32-.56-.48-1.17-.48-1.84 0-.68.16-1.29.48-1.84s.79-.98 1.4-1.3c.61-.33 1.34-.5 2.18-.5s1.56.17 2.16.5c.61.32 1.08.75 1.4 1.3s.48 1.16.48 1.84c0 .67-.16 1.28-.48 1.84-.32.55-.79.99-1.4 1.32-.6.32-1.32.48-2.16.48Zm0-2.06c.51 0 .92-.13 1.24-.4.32-.28.48-.67.48-1.18 0-.49-.16-.87-.48-1.14s-.73-.4-1.24-.4c-.52 0-.95.13-1.28.4-.32.27-.48.65-.48 1.14 0 .51.16.9.48 1.18.33.27.76.4 1.28.4Zm1.64-3.08l-.46-1.9h4.16v1.6l-3.7.3Zm4.22 8.08Zm6.16.24c-1.01 0-1.91-.21-2.7-.64-.77-.44-1.38-1.05-1.82-1.82s-.66-1.67-.66-2.68c0-1.04.21-1.96.64-2.76.44-.8 1.05-1.43 1.82-1.88.79-.45 1.69-.68 2.72-.68 1 0 1.87.22 2.62.66.75.43 1.33 1.01 1.76 1.76.43.73.64 1.57.64 2.52 0 .13-.01.28-.02.44 0 .16-.01.33-.04.52h-8.2v-1.66h5.52c-.04-.63-.27-1.13-.7-1.5-.41-.37-.93-.56-1.56-.56-.47 0-.89.11-1.28.32-.39.2-.69.51-.92.94-.23.41-.34.94-.34 1.58v.58c0 .53.11 1 .32 1.4s.51.71.88.94c.39.21.82.32 1.3.32.49 0 .91-.11 1.24-.32s.58-.5.74-.86h2.76c-.19.64-.5 1.21-.94 1.72s-.98.91-1.62 1.22c-.64.29-1.36.44-2.16.44Zm5.87-.24Zm1.3 0v-9.98h2.38l.2 1.66c.32-.57.76-1.03 1.32-1.38.57-.35 1.26-.52 2.06-.52.83 0 1.53.17 2.1.52s1.01.86 1.32 1.54.46 1.51.46 2.5V164h-2.7v-5.42c0-.81-.17-1.43-.5-1.86-.33-.44-.86-.66-1.58-.66-.45 0-.86.11-1.22.32-.35.21-.63.53-.84.94-.2.4-.3.89-.3 1.46V164h-2.7Zm11 0Zm5.82 0c-.71 0-1.33-.11-1.86-.32-.52-.23-.93-.59-1.22-1.1-.29-.52-.44-1.23-.44-2.12v-4.18h-1.7v-2.26h1.7l.3-2.72h2.4v2.72h2.64v2.26h-2.64v4.22c0 .45.1.77.3.94s.54.26 1.02.26h1.28V164h-1.78Z" clip-path="url(#g)"/><path fill="#ffffff" d="M648.1 164Zm5.38 0l-5.08-14h2.88l3.86 11.24 3.9-11.24h2.86l-5.1 14h-3.32Zm7.51 0Zm6.08.24c-.96 0-1.83-.22-2.6-.66-.76-.45-1.37-1.07-1.82-1.86s-.68-1.69-.68-2.7c0-1.04.23-1.95.68-2.74s1.07-1.4 1.84-1.84 1.63-.66 2.58-.66c.97 0 1.85.22 2.62.66s1.38 1.05 1.82 1.84c.45.79.68 1.7.68 2.74 0 1.03-.23 1.93-.68 2.72-.45.77-1.07 1.39-1.84 1.84-.77.44-1.64.66-2.6.66Zm0-2.34c.44 0 .83-.11 1.18-.32.36-.21.65-.53.86-.96.21-.44.32-.98.32-1.62s-.11-1.17-.32-1.6-.5-.75-.86-.96c-.35-.21-.73-.32-1.16-.32s-.82.11-1.18.32-.65.53-.86.96-.32.97-.32 1.62c0 .63.11 1.16.32 1.6.21.43.49.75.84.96.36.21.75.32 1.18.32Zm6.11 2.1Zm1.3 0V149.6h2.7V164h-2.7Zm4.01 0Zm5.04.24c-.81 0-1.51-.17-2.1-.52-.57-.35-1.01-.85-1.32-1.52-.31-.68-.46-1.51-.46-2.5v-5.68h2.7v5.42c0 .81.17 1.44.5 1.88.33.43.86.64 1.58.64.45 0 .85-.11 1.2-.32.36-.21.64-.52.84-.92s.3-.89.3-1.48v-5.22h2.7V164h-2.36l-.22-1.66c-.31.57-.75 1.03-1.32 1.38s-1.25.52-2.04.52Zm7.26-.24Zm1.3 0v-9.98h2.38l.22 1.34c.32-.49.74-.88 1.26-1.16.53-.28 1.15-.42 1.84-.42.51 0 .96.07 1.36.2.41.12.77.31 1.08.58.32.25.58.57.78.96.37-.55.86-.97 1.46-1.28.61-.31 1.27-.46 1.98-.46.88 0 1.61.18 2.2.54.6.35 1.05.86 1.36 1.54.31.67.46 1.49.46 2.48V164H705.8v-5.42c0-.81-.16-1.43-.48-1.86-.32-.44-.81-.66-1.46-.66-.44 0-.83.11-1.16.32s-.59.53-.78.94c-.19.4-.28.89-.28 1.46V164h-2.68v-5.42c0-.81-.16-1.43-.48-1.86-.32-.44-.82-.66-1.5-.66-.43 0-.81.11-1.14.32-.32.21-.57.53-.76.94-.19.4-.28.89-.28 1.46V164h-2.7Zm17.55 0Zm6.16.24c-1.01 0-1.91-.21-2.7-.64-.77-.44-1.38-1.05-1.82-1.82s-.66-1.67-.66-2.68c0-1.04.21-1.96.64-2.76.44-.8 1.05-1.43 1.82-1.88.79-.45 1.69-.68 2.72-.68 1 0 1.87.22 2.62.66.75.43 1.33 1.01 1.76 1.76.43.73.64 1.57.64 2.52 0 .13-.01.28-.02.44 0 .16-.01.33-.04.52h-8.2v-1.66h5.52c-.04-.63-.27-1.13-.7-1.5-.41-.37-.93-.56-1.56-.56-.47 0-.89.11-1.28.32-.39.2-.69.51-.92.94-.23.41-.34.94-.34 1.58v.58c0 .53.11 1 .32 1.4s.51.71.88.94c.39.21.82.32 1.3.32.49 0 .91-.11 1.24-.32s.58-.5.74-.86h2.76c-.19.64-.5 1.21-.94 1.72s-.98.91-1.62 1.22c-.64.29-1.36.44-2.16.44Z" clip-path="url(#g)"/><path fill="#ffffff" d="M905.1 164Zm6.18.24c-1.01 0-1.92-.17-2.72-.52-.79-.35-1.41-.85-1.88-1.52-.45-.67-.69-1.47-.7-2.42h2.86c.01.41.12.79.32 1.12s.47.6.82.8c.36.19.79.28 1.28.28.43 0 .79-.07 1.1-.2.32-.15.57-.35.74-.6s.26-.55.26-.9c0-.41-.1-.75-.3-1.02-.19-.27-.45-.49-.8-.68s-.75-.35-1.2-.5c-.44-.16-.91-.32-1.4-.48-1.09-.36-1.93-.84-2.52-1.44-.57-.6-.86-1.39-.86-2.38 0-.84.2-1.56.6-2.16.41-.6.98-1.06 1.7-1.38s1.54-.48 2.46-.48c.95 0 1.77.17 2.48.5.72.32 1.29.79 1.7 1.4.43.61.65 1.33.66 2.16H913c-.01-.31-.11-.59-.28-.86-.16-.28-.39-.5-.68-.66-.29-.17-.64-.26-1.04-.26-.35-.01-.67.04-.96.16-.28.12-.51.3-.68.54-.16.23-.24.51-.24.86 0 .33.08.61.24.84.17.23.41.43.7.6.29.16.64.31 1.04.46.4.13.83.27 1.3.42.69.24 1.33.53 1.92.86.59.32 1.05.74 1.4 1.26s.52 1.21.52 2.06c0 .73-.19 1.41-.58 2.04s-.95 1.13-1.68 1.52c-.72.39-1.62.58-2.7.58Zm5.85-.24Zm5.04.24c-.81 0-1.51-.17-2.1-.52-.57-.35-1.01-.85-1.32-1.52-.31-.68-.46-1.51-.46-2.5v-5.68h2.7v5.42c0 .81.17 1.44.5 1.88.33.43.86.64 1.58.64.45 0 .85-.11 1.2-.32.36-.21.64-.52.84-.92s.3-.89.3-1.48v-5.22h2.7V164h-2.36l-.22-1.66c-.31.57-.75 1.03-1.32 1.38s-1.25.52-2.04.52Zm7.26-.24Zm6.2.24c-1.01 0-1.91-.22-2.7-.66-.79-.45-1.41-1.07-1.86-1.86-.44-.79-.66-1.69-.66-2.7 0-1.03.22-1.93.66-2.7.45-.79 1.07-1.41 1.86-1.86s1.69-.68 2.7-.68c1.29 0 2.37.34 3.24 1.02.88.67 1.44 1.59 1.68 2.76H937.7c-.12-.45-.37-.81-.74-1.08s-.82-.4-1.34-.4c-.47 0-.89.12-1.26.36-.36.23-.65.56-.86 1s-.32.96-.32 1.56c0 .47.06.88.18 1.24.13.36.31.67.52.92.23.25.49.45.78.58s.61.2.96.2.66-.05.94-.16c.28-.12.52-.29.72-.52s.34-.49.42-.8h2.86c-.24 1.15-.8 2.07-1.68 2.76-.88.68-1.96 1.02-3.24 1.02Zm5.91-.24Zm6.2.24c-1.01 0-1.91-.22-2.7-.66-.79-.45-1.41-1.07-1.86-1.86-.44-.79-.66-1.69-.66-2.7 0-1.03.22-1.93.66-2.7.45-.79 1.07-1.41 1.86-1.86s1.69-.68 2.7-.68c1.29 0 2.37.34 3.24 1.02.88.67 1.44 1.59 1.68 2.76h-2.86c-.12-.45-.37-.81-.74-1.08s-.82-.4-1.34-.4c-.47 0-.89.12-1.26.36-.36.23-.65.56-.86 1s-.32.96-.32 1.56c0 .47.06.88.18 1.24.13.36.31.67.52.92.23.25.49.45.78.58s.61.2.96.2.66-.05.94-.16c.28-.12.52-.29.72-.52s.34-.49.42-.8h2.86c-.24 1.15-.8 2.07-1.68 2.76-.88.68-1.96 1.02-3.24 1.02Zm5.91-.24Zm6.16.24c-1.01 0-1.91-.21-2.7-.64-.77-.44-1.38-1.05-1.82-1.82s-.66-1.67-.66-2.68c0-1.04.21-1.96.64-2.76.44-.8 1.05-1.43 1.82-1.88.79-.45 1.69-.68 2.72-.68 1 0 1.87.22 2.62.66.75.43 1.33 1.01 1.76 1.76.43.73.64 1.57.64 2.52 0 .13-.01.28-.02.44 0 .16-.01.33-.04.52h-8.2v-1.66h5.52c-.04-.63-.27-1.13-.7-1.5-.41-.37-.93-.56-1.56-.56-.47 0-.89.11-1.28.32-.39.2-.69.51-.92.94-.23.41-.34.94-.34 1.58v.58c0 .53.11 1 .32 1.4s.51.71.88.94c.39.21.82.32 1.3.32.49 0 .91-.11 1.24-.32s.58-.5.74-.86h2.76c-.19.64-.5 1.21-.94 1.72s-.98.91-1.62 1.22c-.64.29-1.36.44-2.16.44ZM962 153.16l-4.52-2.18.12-2.12 4.5 2.44-.1 1.86ZM965.69 164Zm5.42.24c-.89 0-1.68-.15-2.36-.44-.67-.29-1.2-.69-1.6-1.2-.4-.52-.63-1.11-.7-1.76h2.7c.05.24.16.47.32.68.17.2.39.36.66.48.28.12.6.18.96.18s.65-.05.88-.14c.23-.11.39-.24.5-.4.11-.17.16-.35.16-.54 0-.28-.08-.49-.24-.62-.16-.15-.4-.27-.72-.36-.31-.09-.67-.19-1.1-.28-.45-.11-.91-.23-1.36-.36-.44-.13-.85-.31-1.22-.52s-.67-.48-.9-.8c-.21-.33-.32-.75-.32-1.24 0-.59.16-1.12.48-1.6s.79-.85 1.4-1.12c.61-.28 1.35-.42 2.2-.42 1.2 0 2.15.27 2.86.82.72.55 1.14 1.3 1.26 2.26h-2.54c-.07-.32-.24-.57-.52-.74-.27-.17-.63-.26-1.08-.26-.47 0-.83.09-1.08.26-.24.17-.36.39-.36.64 0 .19.08.35.24.5.17.13.41.25.72.36.32.11.69.21 1.1.3.75.16 1.41.34 1.98.54.59.2 1.05.49 1.4.86s.52.92.52 1.64c0 .63-.17 1.19-.52 1.7-.33.49-.82.88-1.46 1.16-.63.28-1.38.42-2.26.42Z" clip-path="url(#g)"/><path fill="#f0f0f0" d="M33.1 186.25v.5H1056.91v-.5-.5H33.1v.5Z" clip-path="url(#g)" opacity="0.2"/><path fill="#f0f0f0" d="M33.1 278.5v.5H1056.91v-.5-.5H33.1v.5Z" clip-path="url(#g)" opacity="0.2"/><path fill="#f0f0f0" d="M33.1 326.5v.5H1056.91v-.5-.5H33.1v.5Z" clip-path="url(#g)" opacity="0.2"/><path fill="#e5e5e5" d="M33.1 310Zm1.2 0V298.8h3.62c.87 0 1.59.15 2.14.45.55.29.97.68 1.23 1.17s.4 1.05.4 1.66c0 .6-.14 1.15-.42 1.65-.27.5-.68.9-1.25 1.2s-1.29.45-2.18.45H35.65V310H34.3Zm5.92 0l-2.46-5.01h1.5L41.81 310H40.22Zm-4.58-5.68h2.18c.85 0 1.48-.21 1.87-.62.41-.42.61-.95.61-1.6 0-.66-.2-1.18-.59-1.57-.38-.39-1.02-.59-1.9-.59H35.65v4.38ZM42.12 310Zm4.66.19c-.75 0-1.41-.18-2-.53s-1.05-.84-1.39-1.47c-.33-.63-.5-1.37-.5-2.21 0-.85.17-1.59.5-2.21.33-.63.79-1.12 1.38-1.47.6-.35 1.28-.53 2.05-.53.79 0 1.46.18 2.02.53s.98.81 1.26 1.38c.3.57.45 1.19.45 1.87 0 .11 0 .22 0 .34s-.01.25-.02.4H43.9v-1.04h5.31c-.03-.74-.28-1.31-.74-1.71-.45-.42-1.01-.62-1.7-.62-.45 0-.87.11-1.26.32-.39.2-.71.5-.96.9-.23.39-.35.89-.35 1.49v.45c0 .66.12 1.22.37 1.66.25.44.56.77.94.99.39.22.82.34 1.26.34.57 0 1.03-.12 1.39-.37.37-.26.65-.6.82-1.04h1.33c-.14.49-.37.93-.69 1.31-.32.37-.72.67-1.2.9-.47.22-1.02.34-1.65.34Zm-1.62-8.91l-.11-.98 3.25-2.03.16 1.15-3.3 1.86ZM51.21 310Zm1.1 3.52V301.97h1.22l.13 1.31c.17-.26.39-.5.66-.72.27-.23.59-.42.96-.56.37-.15.81-.22 1.3-.22.78 0 1.46.19 2.03.56.59.36 1.04.86 1.36 1.5.33.63.5 1.35.5 2.16s-.17 1.53-.5 2.16c-.32.63-.77 1.13-1.36 1.49s-1.27.54-2.05.54c-.65 0-1.23-.13-1.73-.4s-.89-.64-1.17-1.12v4.85H52.32Zm4.08-4.5c.53 0 1-.12 1.41-.37.41-.26.72-.61.94-1.07.23-.46.35-.99.35-1.6s-.12-1.14-.35-1.6c-.22-.46-.54-.81-.94-1.06-.41-.26-.87-.38-1.41-.38s-1 .13-1.41.38c-.41.25-.72.6-.94 1.06s-.34.99-.34 1.6.11 1.14.34 1.6.54.82.94 1.07c.41.25.87.37 1.41.37Zm4.85.98Zm4.72.19c-.75 0-1.42-.17-2.02-.51-.6-.35-1.07-.84-1.42-1.47-.34-.63-.51-1.37-.51-2.22s.18-1.59.53-2.22.83-1.11 1.42-1.46c.61-.35 1.29-.53 2.03-.53.76 0 1.43.18 2.03.53.6.34 1.07.83 1.41 1.46s.51 1.37.51 2.22-.18 1.59-.53 2.22c-.34.63-.82 1.12-1.42 1.47-.6.34-1.27.51-2.03.51Zm0-1.15c.47 0 .9-.11 1.3-.34.39-.23.71-.58.94-1.02.25-.46.37-1.02.37-1.7 0-.68-.12-1.25-.35-1.7s-.55-.78-.94-1.01c-.39-.23-.82-.35-1.28-.35-.45 0-.87.12-1.28.35-.39.22-.71.56-.96 1.01s-.37 1.01-.37 1.7c0 .67.12 1.24.37 1.7.25.45.56.79.94 1.02.39.22.82.34 1.26.34Zm4.76.96Zm1.1 0v-8.03h1.22l.08 1.41c.26-.5.62-.89 1.09-1.17.48-.29 1.02-.43 1.63-.43.63 0 1.17.12 1.63.37s.82.62 1.07 1.14.38 1.16.38 1.94V310H77.59v-4.64c0-.81-.18-1.42-.53-1.82s-.86-.61-1.52-.61c-.45 0-.85.11-1.22.34-.35.21-.63.53-.85.94-.2.42-.3.92-.3 1.52V310H71.83Zm8.07 0Zm4.14.19c-.65 0-1.23-.11-1.73-.32-.5-.22-.9-.54-1.2-.94-.29-.41-.47-.88-.54-1.42h1.38c.06.28.18.54.35.78.17.23.4.42.69.56.3.14.66.21 1.07.21.38 0 .7-.05.94-.16.25-.12.43-.27.54-.46s.18-.4.18-.62c0-.32-.08-.57-.24-.74-.15-.17-.37-.3-.67-.4-.3-.11-.66-.2-1.07-.27-.35-.06-.7-.15-1.04-.26-.33-.11-.63-.25-.9-.42s-.48-.38-.64-.64c-.16-.27-.24-.58-.24-.94 0-.46.12-.86.35-1.22.25-.36.58-.65 1.01-.85.44-.2.95-.3 1.55-.3.85 0 1.55.21 2.08.62.54.42.86 1.02.94 1.81H85.53c-.04-.41-.21-.72-.51-.94-.3-.23-.7-.35-1.2-.35s-.89.1-1.15.3c-.26.2-.38.47-.38.8 0 .21.07.4.21.56.15.16.37.3.66.42.29.11.63.2 1.04.29.52.1 1 .22 1.44.38s.79.39 1.06.7c.28.31.42.75.42 1.33.01.5-.11.94-.37 1.31-.25.37-.6.67-1.06.88-.46.2-1 .3-1.63.3Zm3.89-.19Zm4.66.19c-.75 0-1.41-.18-2-.53s-1.05-.84-1.39-1.47c-.33-.63-.5-1.37-.5-2.21 0-.85.17-1.59.5-2.21.33-.63.79-1.12 1.38-1.47.6-.35 1.28-.53 2.05-.53.79 0 1.46.18 2.02.53s.98.81 1.26 1.38c.3.57.45 1.19.45 1.87 0 .11 0 .22 0 .34s-.01.25-.02.4H89.71v-1.04h5.31c-.03-.74-.28-1.31-.74-1.71-.45-.42-1.01-.62-1.7-.62-.45 0-.87.11-1.26.32-.39.2-.71.5-.96.9-.23.39-.35.89-.35 1.49v.45c0 .66.12 1.22.37 1.66.25.44.56.77.94.99.39.22.82.34 1.26.34.57 0 1.03-.12 1.39-.37.37-.26.65-.6.82-1.04h1.33c-.14.49-.37.93-.69 1.31-.32.37-.72.67-1.2.9-.47.22-1.02.34-1.65.34Zm8.69-.19Zm4.14.19c-.65 0-1.23-.11-1.73-.32-.5-.22-.9-.54-1.2-.94-.29-.41-.47-.88-.54-1.42h1.38c.06.28.18.54.35.78.17.23.4.42.69.56.3.14.66.21 1.07.21.38 0 .7-.05.94-.16.25-.12.43-.27.54-.46s.18-.4.18-.62c0-.32-.08-.57-.24-.74-.15-.17-.37-.3-.67-.4-.3-.11-.66-.2-1.07-.27-.35-.06-.7-.15-1.04-.26-.33-.11-.63-.25-.9-.42s-.48-.38-.64-.64c-.16-.27-.24-.58-.24-.94 0-.46.12-.86.35-1.22.25-.36.58-.65 1.01-.85.44-.2.95-.3 1.55-.3.85 0 1.55.21 2.08.62.54.42.86 1.02.94 1.81h-1.33c-.04-.41-.21-.72-.51-.94-.3-.23-.7-.35-1.2-.35s-.89.1-1.15.3c-.26.2-.38.47-.38.8 0 .21.07.4.21.56.15.16.37.3.66.42.29.11.63.2 1.04.29.52.1 1 .22 1.44.38s.79.39 1.06.7c.28.31.42.75.42 1.33.01.5-.11.94-.37 1.31-.25.37-.6.67-1.06.88-.46.2-1 .3-1.63.3Zm3.89-.19Zm4.03.19c-.62 0-1.16-.12-1.63-.37-.46-.25-.82-.62-1.07-1.14-.25-.51-.37-1.16-.37-1.94v-4.78h1.34v4.64c0 .81.18 1.42.53 1.82s.85.61 1.5.61c.45 0 .85-.11 1.22-.32.36-.22.65-.54.85-.96.21-.42.32-.92.32-1.52v-4.27h1.34V310h-1.22l-.08-1.41c-.26.5-.62.9-1.1 1.18-.48.28-1.02.42-1.63.42Zm5.14-.19Zm1.1 3.52V301.97h1.22l.13 1.31c.17-.26.39-.5.66-.72.27-.23.59-.42.96-.56.37-.15.81-.22 1.3-.22.78 0 1.46.19 2.03.56.59.36 1.04.86 1.36 1.5.33.63.5 1.35.5 2.16s-.17 1.53-.5 2.16c-.32.63-.77 1.13-1.36 1.49s-1.27.54-2.05.54c-.65 0-1.23-.13-1.73-.4s-.89-.64-1.17-1.12v4.85h-1.34Zm4.08-4.5c.53 0 1-.12 1.41-.37.41-.26.72-.61.94-1.07.23-.46.35-.99.35-1.6s-.12-1.14-.35-1.6c-.22-.46-.54-.81-.94-1.06-.41-.26-.87-.38-1.41-.38s-1 .13-1.41.38c-.41.25-.72.6-.94 1.06s-.34.99-.34 1.6.11 1.14.34 1.6.54.82.94 1.07c.41.25.87.37 1.41.37Zm4.85.98Zm1.1 3.52V301.97h1.22l.13 1.31c.17-.26.39-.5.66-.72.27-.23.59-.42.96-.56.37-.15.81-.22 1.3-.22.78 0 1.46.19 2.03.56.59.36 1.04.86 1.36 1.5.33.63.5 1.35.5 2.16s-.17 1.53-.5 2.16c-.32.63-.77 1.13-1.36 1.49s-1.27.54-2.05.54c-.65 0-1.23-.13-1.73-.4s-.89-.64-1.17-1.12v4.85h-1.34Zm4.08-4.5c.53 0 1-.12 1.41-.37.41-.26.72-.61.94-1.07.23-.46.35-.99.35-1.6s-.12-1.14-.35-1.6c-.22-.46-.54-.81-.94-1.06-.41-.26-.87-.38-1.41-.38s-1 .13-1.41.38c-.41.25-.72.6-.94 1.06s-.34.99-.34 1.6.11 1.14.34 1.6.54.82.94 1.07c.41.25.87.37 1.41.37Zm4.85.98Zm4.72.19c-.75 0-1.42-.17-2.02-.51-.6-.35-1.07-.84-1.42-1.47-.34-.63-.51-1.37-.51-2.22s.18-1.59.53-2.22.83-1.11 1.42-1.46c.61-.35 1.29-.53 2.03-.53.76 0 1.43.18 2.03.53.6.34 1.07.83 1.41 1.46s.51 1.37.51 2.22-.18 1.59-.53 2.22c-.34.63-.82 1.12-1.42 1.47-.6.34-1.27.51-2.03.51Zm0-1.15c.47 0 .9-.11 1.3-.34.39-.23.71-.58.94-1.02.25-.46.37-1.02.37-1.7 0-.68-.12-1.25-.35-1.7s-.55-.78-.94-1.01c-.39-.23-.82-.35-1.28-.35-.45 0-.87.12-1.28.35-.39.22-.71.56-.96 1.01s-.37 1.01-.37 1.7c0 .67.12 1.24.37 1.7.25.45.56.79.94 1.02.39.22.82.34 1.26.34Zm4.76.96Zm1.1 0v-8.03h1.22l.11 1.54c.18-.36.41-.67.69-.93.29-.26.63-.45 1.02-.59s.84-.21 1.34-.21v1.41h-.46c-.34 0-.67.05-.98.14-.31.09-.59.23-.83.43-.23.19-.42.46-.56.82s-.21.78-.21 1.3V310h-1.34Zm4.79 0Zm4.27 0c-.48 0-.9-.07-1.25-.22s-.62-.4-.82-.75c-.18-.36-.27-.85-.27-1.46V303.1h-1.39v-1.14h1.39l.18-1.94h1.17v1.94h2.35v1.14H157.2v4.46c0 .5.1.84.3 1.02.2.17.56.26 1.07.26h.86V310h-1.25Z" clip-path="url(#g)"/><path fill="#e5e5e5" d="M354.1 310Zm4.77.19c-.82 0-1.54-.15-2.14-.45s-1.08-.71-1.41-1.25-.5-1.15-.5-1.86h1.41c0 .44.1.84.3 1.22.2.36.5.66.88.88.39.21.88.32 1.46.32.5 0 .93-.08 1.28-.24.36-.17.63-.4.82-.69.19-.29.29-.61.29-.98 0-.44-.1-.79-.29-1.06-.19-.28-.45-.5-.77-.67s-.69-.32-1.1-.45c-.42-.14-.86-.29-1.33-.45-.87-.3-1.52-.67-1.94-1.1-.42-.45-.62-1.03-.62-1.74 0-.61.14-1.14.42-1.6.29-.46.69-.82 1.22-1.07.53-.27 1.16-.4 1.89-.4.71 0 1.33.13 1.86.4.53.27.95.63 1.25 1.1.3.46.45.99.45 1.6h-1.41c0-.31-.08-.61-.24-.91s-.41-.54-.74-.74c-.32-.2-.73-.3-1.22-.3-.41-.01-.77.06-1.09.21-.31.14-.55.34-.74.61-.17.27-.26.59-.26.98 0 .36.07.66.22.88.16.22.38.42.67.58.3.15.65.29 1.04.42s.83.27 1.31.43c.54.18 1.02.41 1.44.67.43.26.76.59.99.99.25.41.37.92.37 1.55 0 .53-.14 1.04-.43 1.52-.28.47-.69.85-1.25 1.15s-1.25.45-2.1.45Zm4.51-.19Zm4.03.19c-.62 0-1.16-.12-1.63-.37-.46-.25-.82-.62-1.07-1.14-.25-.51-.37-1.16-.37-1.94v-4.78h1.34v4.64c0 .81.18 1.42.53 1.82s.85.61 1.5.61c.45 0 .85-.11 1.22-.32.36-.22.65-.54.85-.96.21-.42.32-.92.32-1.52v-4.27h1.34V310h-1.22l-.08-1.41c-.26.5-.62.9-1.1 1.18-.48.28-1.02.42-1.63.42Zm5.14-.19Zm1.1 3.52V301.97h1.22l.13 1.31c.17-.26.39-.5.66-.72.27-.23.59-.42.96-.56.37-.15.81-.22 1.3-.22.78 0 1.46.19 2.03.56.59.36 1.04.86 1.36 1.5.33.63.5 1.35.5 2.16s-.17 1.53-.5 2.16c-.32.63-.77 1.13-1.36 1.49s-1.27.54-2.05.54c-.65 0-1.23-.13-1.73-.4s-.89-.64-1.17-1.12v4.85h-1.34Zm4.08-4.5c.53 0 1-.12 1.41-.37.41-.26.72-.61.94-1.07.23-.46.35-.99.35-1.6s-.12-1.14-.35-1.6c-.22-.46-.54-.81-.94-1.06-.41-.26-.87-.38-1.41-.38s-1 .13-1.41.38c-.41.25-.72.6-.94 1.06s-.34.99-.34 1.6.11 1.14.34 1.6.54.82.94 1.07c.41.25.87.37 1.41.37Zm4.85.98Zm1.1 3.52V301.97h1.22l.13 1.31c.17-.26.39-.5.66-.72.27-.23.59-.42.96-.56.37-.15.81-.22 1.3-.22.78 0 1.46.19 2.03.56.59.36 1.04.86 1.36 1.5.33.63.5 1.35.5 2.16s-.17 1.53-.5 2.16c-.32.63-.77 1.13-1.36 1.49s-1.27.54-2.05.54c-.65 0-1.23-.13-1.73-.4s-.89-.64-1.17-1.12v4.85h-1.34Zm4.08-4.5c.53 0 1-.12 1.41-.37.41-.26.72-.61.94-1.07.23-.46.35-.99.35-1.6s-.12-1.14-.35-1.6c-.22-.46-.54-.81-.94-1.06-.41-.26-.87-.38-1.41-.38s-1 .13-1.41.38c-.41.25-.72.6-.94 1.06s-.34.99-.34 1.6.11 1.14.34 1.6.54.82.94 1.07c.41.25.87.37 1.41.37Zm4.85.98Zm4.72.19c-.75 0-1.42-.17-2.02-.51-.6-.35-1.07-.84-1.42-1.47-.34-.63-.51-1.37-.51-2.22s.18-1.59.53-2.22.83-1.11 1.42-1.46c.61-.35 1.29-.53 2.03-.53.76 0 1.43.18 2.03.53.6.34 1.07.83 1.41 1.46s.51 1.37.51 2.22-.18 1.59-.53 2.22c-.34.63-.82 1.12-1.42 1.47-.6.34-1.27.51-2.03.51Zm0-1.15c.47 0 .9-.11 1.3-.34.39-.23.71-.58.94-1.02.25-.46.37-1.02.37-1.7 0-.68-.12-1.25-.35-1.7s-.55-.78-.94-1.01c-.39-.23-.82-.35-1.28-.35-.45 0-.87.12-1.28.35-.39.22-.71.56-.96 1.01s-.37 1.01-.37 1.7c0 .67.12 1.24.37 1.7.25.45.56.79.94 1.02.39.22.82.34 1.26.34Zm4.76.96Zm1.1 0v-8.03h1.22l.11 1.54c.18-.36.41-.67.69-.93.29-.26.63-.45 1.02-.59s.84-.21 1.34-.21v1.41h-.46c-.34 0-.67.05-.98.14-.31.09-.59.23-.83.43-.23.19-.42.46-.56.82s-.21.78-.21 1.3V310h-1.34Zm4.79 0Zm4.27 0c-.48 0-.9-.07-1.25-.22s-.62-.4-.82-.75c-.18-.36-.27-.85-.27-1.46V303.1h-1.39v-1.14h1.39l.18-1.94h1.17v1.94h2.35v1.14h-2.35v4.46c0 .5.1.84.3 1.02.2.17.56.26 1.07.26h.86V310h-1.25Z" clip-path="url(#g)"/><path fill="#e5e5e5" d="M648.1 310Zm4.98.19c-.76 0-1.42-.14-1.98-.42s-1.01-.66-1.34-1.14c-.32-.48-.52-1.02-.61-1.63h1.31c.13.61.42 1.1.88 1.47s1.05.56 1.76.56c.53 0 .99-.12 1.36-.37.38-.26.68-.59.88-1.01.21-.43.32-.9.32-1.42 0-.55-.11-1.03-.32-1.44-.2-.42-.5-.74-.88-.98-.37-.23-.81-.35-1.3-.35-.62 0-1.15.13-1.58.4-.43.27-.74.61-.94 1.04h-1.3l.94-6.11h5.9v1.17h-4.86l-.64 3.42c.27-.31.62-.56 1.07-.75.45-.2.97-.3 1.55-.3.54 0 1.04.1 1.49.3.45.19.83.46 1.15.82.33.35.58.76.75 1.23s.26.98.26 1.54c0 .53-.09 1.04-.26 1.52s-.43.91-.77 1.28c-.33.36-.74.65-1.22.86-.47.2-1.01.3-1.63.3Zm4.81-.19Zm6.27 0v-2.4h-5.68v-1.04l5.44-7.76h1.57v7.62h1.66v1.18h-1.66V310h-1.33Zm-4.19-3.58h4.26v-6.13l-4.26 6.13ZM667.6 310Zm5.5.19c-.98 0-1.83-.24-2.54-.72-.7-.49-1.25-1.17-1.63-2.03-.38-.87-.58-1.89-.58-3.04s.19-2.16.58-3.02c.38-.87.93-1.55 1.63-2.03.7-.49 1.55-.74 2.54-.74.98 0 1.82.25 2.51.74.7.48 1.24 1.16 1.62 2.03.38.86.58 1.87.58 3.02s-.19 2.17-.58 3.04c-.37.86-.91 1.54-1.62 2.03-.69.48-1.53.72-2.51.72Zm-.02-1.18c.65 0 1.23-.18 1.73-.54.5-.37.9-.9 1.18-1.58.29-.69.43-1.52.43-2.48s-.14-1.78-.43-2.46c-.29-.69-.68-1.22-1.18-1.58s-1.08-.54-1.73-.54c-.64 0-1.22.18-1.73.54-.5.36-.9.89-1.2 1.58-.29.68-.43 1.5-.43 2.46s.14 1.79.43 2.48c.3.68.7 1.21 1.2 1.58.51.36 1.09.54 1.73.54Z" clip-path="url(#g)"/><path fill="#f59e0b" d="M905.1 310Zm4.86.19c-.73 0-1.38-.13-1.97-.4-.58-.28-1.03-.66-1.38-1.14-.33-.49-.5-1.06-.5-1.7 0-.46.09-.89.27-1.28s.43-.74.75-1.02c.33-.3.71-.51 1.14-.62-.6-.21-1.06-.54-1.39-.99-.32-.45-.48-.93-.48-1.46 0-.55.14-1.06.42-1.5.29-.45.7-.81 1.23-1.07s1.17-.4 1.9-.4c.75 0 1.38.13 1.9.4.53.27.94.62 1.23 1.07s.43.95.43 1.5c0 .52-.17 1.01-.5 1.46-.32.45-.78.78-1.39.99.45.12.83.33 1.15.62.32.29.57.63.75 1.02s.27.82.27 1.28c0 .64-.17 1.21-.51 1.7-.34.48-.8.86-1.38 1.14-.58.27-1.23.4-1.97.4Zm0-1.18c.84 0 1.47-.19 1.89-.58.42-.39.62-.91.62-1.55 0-.73-.23-1.27-.69-1.65-.45-.37-1.06-.56-1.82-.56-.76 0-1.37.19-1.82.56-.45.37-.67.92-.67 1.65 0 .64.21 1.16.62 1.55.42.38 1.04.58 1.87.58Zm0-5.46c.68 0 1.22-.18 1.62-.53s.59-.81.59-1.36c0-.63-.2-1.1-.59-1.42-.38-.32-.92-.48-1.62-.48-.67 0-1.21.16-1.6.48-.38.32-.58.79-.58 1.42 0 .55.19 1.01.58 1.36.39.35.93.53 1.6.53Zm4.42 6.45Zm4.86.19c-.7 0-1.31-.14-1.81-.42s-.9-.65-1.2-1.1c-.29-.47-.47-.98-.54-1.52h1.25c.12.6.38 1.06.78 1.39.41.32.92.48 1.54.48.57 0 1.07-.17 1.5-.51s.79-.86 1.06-1.57c.28-.7.43-1.59.46-2.67 0-.02 0-.05 0-.08s0-.06 0-.1c-.17.34-.41.66-.72.94-.3.28-.66.5-1.09.67-.42.17-.89.26-1.42.26-.63 0-1.23-.15-1.79-.45-.55-.3-1.01-.71-1.36-1.25-.34-.54-.51-1.18-.51-1.9 0-.63.15-1.23.46-1.81s.75-1.05 1.33-1.41 1.26-.54 2.05-.54c.81 0 1.49.15 2.05.46.55.3 1 .7 1.33 1.22s.57 1.09.72 1.73c.16.63.24 1.27.24 1.94 0 1.23-.17 2.31-.51 3.25s-.83 1.67-1.47 2.21c-.64.52-1.42.78-2.34.78Zm.08-5.39c.5 0 .94-.11 1.33-.34.39-.23.71-.54.94-.91.23-.38.35-.81.35-1.26 0-.48-.12-.91-.35-1.28-.23-.38-.55-.68-.94-.9-.38-.21-.83-.32-1.33-.32-.49 0-.93.11-1.33.34-.38.21-.69.51-.91.88s-.34.81-.34 1.3c0 .5.11.94.34 1.31s.53.67.91.88c.39.2.84.3 1.33.3Zm5.12 5.2Zm2.29 0l6.51-11.2h1.34L928.08 310h-1.34Zm7.04.19c-.48 0-.91-.11-1.3-.32-.38-.22-.69-.54-.93-.94-.22-.41-.34-.88-.34-1.42 0-.55.11-1.03.34-1.42.23-.41.54-.71.93-.93.38-.22.82-.34 1.3-.34.49 0 .92.11 1.3.34.38.21.69.52.91.93.22.39.34.87.34 1.42 0 .54-.11 1.02-.34 1.42s-.53.72-.91.94c-.38.21-.82.32-1.3.32Zm-.02-1.04c.26 0 .49-.06.7-.18.21-.13.38-.31.51-.56.14-.25.21-.55.21-.91 0-.37-.06-.68-.19-.93s-.3-.43-.51-.54c-.21-.13-.45-.19-.7-.19-.25 0-.48.06-.7.19-.21.12-.39.3-.53.54-.13.25-.19.55-.19.93 0 .36.06.67.19.91.14.25.31.43.53.56.21.12.44.18.69.18Zm-6.1-5.15c-.48 0-.91-.11-1.3-.32-.38-.22-.69-.54-.93-.94-.22-.41-.34-.88-.34-1.42 0-.55.11-1.03.34-1.42.23-.41.54-.71.93-.93.39-.22.83-.34 1.31-.34s.91.11 1.3.34c.38.21.69.52.91.93.22.39.34.87.34 1.42 0 .54-.11 1.02-.34 1.42s-.53.72-.93.94c-.38.21-.82.32-1.3.32Zm0-1.04c.26 0 .49-.06.7-.18.21-.13.38-.31.51-.56s.19-.55.19-.91c0-.37-.06-.68-.19-.93-.13-.26-.3-.44-.51-.56-.21-.13-.44-.19-.69-.19s-.48.06-.7.19c-.22.12-.41.3-.54.56-.13.25-.19.55-.19.93 0 .36.06.67.19.91.14.25.31.43.53.56.22.12.46.18.7.18Z" clip-path="url(#g)"/><path fill="#f0f0f0" d="M33.1 234.5v.5H1056.91v-.5-.5H33.1v.5Z" clip-path="url(#g)" opacity="0.2"/><path fill="#e5e5e5" d="M33.1 218Zm1.2 0V206.8h3.66c.87 0 1.59.15 2.16.45.57.29.99.68 1.26 1.17s.42 1.05.42 1.66-.14 1.18-.42 1.68c-.27.49-.68.89-1.25 1.18-.57.29-1.29.43-2.18.43H35.65V218H34.3Zm1.34-5.76h2.29c.9 0 1.54-.19 1.92-.58.38-.39.58-.92.58-1.58 0-.68-.19-1.21-.58-1.58-.38-.38-1.02-.58-1.92-.58H35.65v4.32ZM42.38 218Zm4.03.19c-.62 0-1.16-.12-1.63-.37-.46-.25-.82-.62-1.07-1.14-.25-.51-.37-1.16-.37-1.94v-4.78h1.34v4.64c0 .81.18 1.42.53 1.82s.85.61 1.5.61c.45 0 .85-.11 1.22-.32.36-.22.65-.54.85-.96.21-.42.32-.92.32-1.52v-4.27h1.34V218H49.23l-.08-1.41c-.26.5-.62.9-1.1 1.18-.48.28-1.02.42-1.63.42Zm5.14-.19Zm5.34.19c-.46 0-.87-.06-1.25-.19-.36-.13-.68-.3-.96-.53-.28-.23-.51-.5-.69-.8L53.88 218H52.66V206.48H54v4.8c.26-.41.62-.76 1.1-1.06s1.08-.45 1.79-.45c.79 0 1.47.18 2.05.54.59.36 1.04.86 1.36 1.5.33.63.5 1.35.5 2.16s-.17 1.54-.5 2.18c-.32.63-.77 1.13-1.36 1.49s-1.27.54-2.05.54Zm-.16-1.17c.53 0 1-.12 1.41-.37.41-.26.72-.61.94-1.07.23-.46.35-.99.35-1.6s-.12-1.14-.35-1.6c-.22-.46-.54-.81-.94-1.06-.41-.26-.87-.38-1.41-.38s-1 .13-1.41.38c-.41.25-.72.6-.94 1.06s-.34.99-.34 1.6.11 1.14.34 1.6.54.82.94 1.07c.41.25.87.37 1.41.37Zm4.85.98Zm1.1 0V206.48h1.34V218H62.69Zm2.46 0Zm1.25 0v-8.03h1.34V218H66.4Zm.67-9.76c-.27 0-.49-.09-.67-.26-.17-.18-.26-.41-.26-.67s.09-.48.26-.64c.18-.17.41-.26.67-.26.26 0 .47.09.66.26.18.16.27.37.27.64s-.09.49-.27.67c-.18.17-.4.26-.66.26ZM68.98 218Zm4.75.19c-.76 0-1.44-.18-2.05-.53-.6-.35-1.07-.84-1.42-1.47-.34-.63-.51-1.37-.51-2.21s.17-1.58.51-2.21c.35-.63.83-1.12 1.42-1.47.61-.35 1.29-.53 2.05-.53.96 0 1.76.25 2.4.75.64.49 1.05 1.15 1.22 1.98H75.97c-.11-.5-.37-.89-.78-1.17s-.91-.42-1.47-.42c-.46 0-.89.12-1.28.35-.38.22-.7.57-.94 1.02-.25.45-.37 1.01-.37 1.68 0 .5.07.94.21 1.33.15.38.34.71.58.98.23.26.51.45.82.58.32.13.65.19.99.19.38 0 .73-.06 1.04-.18.31-.13.57-.31.78-.54.21-.25.36-.54.43-.88h1.38c-.17.82-.58 1.48-1.23 1.98-.64.5-1.43.75-2.38.75Zm4.39-.19Zm3.74.19c-.65 0-1.19-.11-1.63-.34-.44-.23-.76-.54-.98-.91-.21-.38-.32-.79-.32-1.23 0-.54.14-1 .42-1.38.29-.38.69-.67 1.2-.86.52-.2 1.13-.3 1.82-.3h2.14c0-.5-.08-.92-.24-1.25-.15-.33-.37-.58-.67-.75s-.66-.26-1.09-.26c-.51 0-.95.13-1.33.38s-.6.63-.69 1.14H79.13c.06-.58.26-1.06.58-1.44.33-.39.75-.69 1.25-.9.5-.21 1.02-.32 1.57-.32.75 0 1.37.14 1.86.42.49.27.86.65 1.1 1.14.26.48.38 1.05.38 1.7V218h-1.2l-.08-1.42c-.11.22-.25.44-.42.64-.16.19-.35.36-.58.51-.21.14-.46.25-.75.34s-.61.13-.98.13Zm.21-1.14c.37 0 .71-.07 1.01-.22.31-.16.57-.37.78-.64s.37-.57.48-.9c.12-.34.18-.69.18-1.04v-.05H82.49c-.51 0-.93.06-1.25.19-.32.12-.55.29-.69.51-.14.21-.21.46-.21.74 0 .29.06.54.19.75.14.2.34.36.59.48s.57.18.94.18Zm4.53.94Zm4.27 0c-.48 0-.9-.07-1.25-.22s-.62-.4-.82-.75c-.18-.36-.27-.85-.27-1.46V211.1H87.15v-1.14h1.39l.18-1.94h1.17v1.94h2.35v1.14H89.88v4.46c0 .5.1.84.3 1.02.2.17.56.26 1.07.26h.86V218H90.88Zm1.98 0Zm1.25 0v-8.03h1.34V218H94.1Zm.67-9.76c-.27 0-.49-.09-.67-.26-.17-.18-.26-.41-.26-.67s.09-.48.26-.64c.18-.17.41-.26.67-.26.26 0 .47.09.66.26.18.16.27.37.27.64s-.09.49-.27.67c-.18.17-.4.26-.66.26ZM96.68 218Zm4.72.19c-.75 0-1.42-.17-2.02-.51-.6-.35-1.07-.84-1.42-1.47-.34-.63-.51-1.37-.51-2.22s.18-1.59.53-2.22.83-1.11 1.42-1.46c.61-.35 1.29-.53 2.03-.53.76 0 1.43.18 2.03.53.6.34 1.07.83 1.41 1.46s.51 1.37.51 2.22-.18 1.59-.53 2.22c-.34.63-.82 1.12-1.42 1.47-.6.34-1.27.51-2.03.51Zm0-1.15c.47 0 .9-.11 1.3-.34.39-.23.71-.58.94-1.02.25-.46.37-1.02.37-1.7 0-.68-.12-1.25-.35-1.7s-.55-.78-.94-1.01c-.39-.23-.82-.35-1.28-.35-.45 0-.87.12-1.28.35-.39.22-.71.56-.96 1.01s-.37 1.01-.37 1.7c0 .67.12 1.24.37 1.7.25.45.56.79.94 1.02.39.22.82.34 1.26.34Zm4.76.96Zm1.1 0v-8.03h1.22l.08 1.41c.26-.5.62-.89 1.09-1.17.48-.29 1.02-.43 1.63-.43.63 0 1.17.12 1.63.37s.82.62 1.07 1.14.38 1.16.38 1.94V218h-1.34v-4.64c0-.81-.18-1.42-.53-1.82s-.86-.61-1.52-.61c-.45 0-.85.11-1.22.34-.35.21-.63.53-.85.94-.2.42-.3.92-.3 1.52V218h-1.34Zm12.32 0Zm1.2 0V206.8h1.34v10.13h5.22V218h-6.56Zm7.22 0Zm1.25 0v-8.03h1.34V218h-1.34Zm.67-9.76c-.27 0-.49-.09-.67-.26-.17-.18-.26-.41-.26-.67s.09-.48.26-.64c.18-.17.41-.26.67-.26.26 0 .47.09.66.26.18.16.27.37.27.64s-.09.49-.27.67c-.18.17-.4.26-.66.26Zm1.91 9.76Zm1.1 0v-8.03h1.22l.08 1.41c.26-.5.62-.89 1.09-1.17.48-.29 1.02-.43 1.63-.43.63 0 1.17.12 1.63.37s.82.62 1.07 1.14.38 1.16.38 1.94V218H138.7v-4.64c0-.81-.18-1.42-.53-1.82s-.86-.61-1.52-.61c-.45 0-.85.11-1.22.34-.35.21-.63.53-.85.94-.2.42-.3.92-.3 1.52V218h-1.34Zm8.07 0Zm6.08 0l-3.86-4.4 3.5-3.63h1.65l-4.02 4.11.02-.96L148.8 218h-1.71Zm-4.98 0V206.48h1.34V218h-1.34Zm6.38 0Zm4.66.19c-.75 0-1.41-.18-2-.53s-1.05-.84-1.39-1.47c-.33-.63-.5-1.37-.5-2.21 0-.85.17-1.59.5-2.21.33-.63.79-1.12 1.38-1.47.6-.35 1.28-.53 2.05-.53.79 0 1.46.18 2.02.53s.98.81 1.26 1.38c.3.57.45 1.19.45 1.87 0 .11 0 .22 0 .34s-.01.25-.02.4h-6.62v-1.04h5.31c-.03-.74-.28-1.31-.74-1.71-.45-.42-1.01-.62-1.7-.62-.45 0-.87.11-1.26.32-.39.2-.71.5-.96.9-.23.39-.35.89-.35 1.49v.45c0 .66.12 1.22.37 1.66.25.44.56.77.94.99.39.22.82.34 1.26.34.57 0 1.03-.12 1.39-.37.37-.26.65-.6.82-1.04h1.33c-.14.49-.37.93-.69 1.31-.32.37-.72.67-1.2.9-.47.22-1.02.34-1.65.34Zm4.44-.19Zm4.69.19c-.78 0-1.47-.18-2.06-.54-.59-.37-1.05-.87-1.38-1.5-.32-.64-.48-1.37-.48-2.18s.16-1.53.48-2.16c.33-.63.79-1.13 1.38-1.49.6-.36 1.29-.54 2.08-.54.65 0 1.23.13 1.73.4s.89.64 1.15 1.12v-4.82h1.34V218H165.3l-.13-1.31c-.17.26-.39.5-.66.74-.26.22-.57.41-.94.56-.37.14-.81.21-1.3.21Zm.14-1.17c.53 0 1-.12 1.41-.37.42-.26.74-.61.96-1.07s.34-.99.34-1.6-.11-1.14-.34-1.6-.54-.81-.96-1.06c-.41-.26-.87-.38-1.41-.38-.51 0-.98.13-1.39.38-.41.25-.73.6-.96 1.06-.22.46-.34.99-.34 1.6s.11 1.14.34 1.6c.23.46.55.82.96 1.07.42.25.88.37 1.39.37Zm5.2.98Zm1.2 0V206.8h1.34V218h-1.34Zm2.53 0Zm1.1 0v-8.03h1.22l.08 1.41c.26-.5.62-.89 1.09-1.17.48-.29 1.02-.43 1.63-.43.63 0 1.17.12 1.63.37s.82.62 1.07 1.14.38 1.16.38 1.94V218h-1.34v-4.64c0-.81-.18-1.42-.53-1.82s-.86-.61-1.52-.61c-.45 0-.85.11-1.22.34-.35.21-.63.53-.85.94-.2.42-.3.92-.3 1.52V218h-1.34Z" clip-path="url(#g)"/><path fill="#e5e5e5" d="M354.1 218Zm1.2 0V206.8h1.57l3.97 7.82 3.97-7.82h1.58V218h-1.34v-8.8l-3.7 7.23h-1.01l-3.7-7.2V218H355.3Zm12.28 0Zm3.74.19c-.65 0-1.19-.11-1.63-.34-.44-.23-.76-.54-.98-.91-.21-.38-.32-.79-.32-1.23 0-.54.14-1 .42-1.38.29-.38.69-.67 1.2-.86.52-.2 1.13-.3 1.82-.3h2.14c0-.5-.08-.92-.24-1.25-.15-.33-.37-.58-.67-.75s-.66-.26-1.09-.26c-.51 0-.95.13-1.33.38s-.6.63-.69 1.14H368.6c.06-.58.26-1.06.58-1.44.33-.39.75-.69 1.25-.9.5-.21 1.02-.32 1.57-.32.75 0 1.37.14 1.86.42.49.27.86.65 1.1 1.14.26.48.38 1.05.38 1.7V218h-1.2l-.08-1.42c-.11.22-.25.44-.42.64-.16.19-.35.36-.58.51-.21.14-.46.25-.75.34s-.61.13-.98.13Zm.21-1.14c.37 0 .71-.07 1.01-.22.31-.16.57-.37.78-.64s.37-.57.48-.9c.12-.34.18-.69.18-1.04v-.05h-2.03c-.51 0-.93.06-1.25.19-.32.12-.55.29-.69.51-.14.21-.21.46-.21.74 0 .29.06.54.19.75.14.2.34.36.59.48s.57.18.94.18Zm4.75.94Zm1.1 0v-8.03h1.22l.11 1.54c.18-.36.41-.67.69-.93.29-.26.63-.45 1.02-.59s.84-.21 1.34-.21v1.41h-.46c-.34 0-.67.05-.98.14-.31.09-.59.23-.83.43-.23.19-.42.46-.56.82s-.21.78-.21 1.3V218H377.4Zm4.79 0Zm6.08 0l-3.86-4.4 3.5-3.63h1.65l-4.02 4.11.02-.96 4.42 4.88h-1.71Zm-4.98 0V206.48h1.34V218h-1.34Zm6.38 0Zm4.66.19c-.75 0-1.41-.18-2-.53s-1.05-.84-1.39-1.47c-.33-.63-.5-1.37-.5-2.21 0-.85.17-1.59.5-2.21.33-.63.79-1.12 1.38-1.47.6-.35 1.28-.53 2.05-.53.79 0 1.46.18 2.02.53s.98.81 1.26 1.38c.3.57.45 1.19.45 1.87 0 .11 0 .22 0 .34s-.01.25-.02.4h-6.62v-1.04h5.31c-.03-.74-.28-1.31-.74-1.71-.45-.42-1.01-.62-1.7-.62-.45 0-.87.11-1.26.32-.39.2-.71.5-.96.9-.23.39-.35.89-.35 1.49v.45c0 .66.12 1.22.37 1.66.25.44.56.77.94.99.39.22.82.34 1.26.34.57 0 1.03-.12 1.39-.37.37-.26.65-.6.82-1.04h1.33c-.14.49-.37.93-.69 1.31-.32.37-.72.67-1.2.9-.47.22-1.02.34-1.65.34Zm4.17-.19Zm4.27 0c-.48 0-.9-.07-1.25-.22s-.62-.4-.82-.75c-.18-.36-.27-.85-.27-1.46V211.1h-1.39v-1.14h1.39l.18-1.94h1.17v1.94h2.35v1.14h-2.35v4.46c0 .5.1.84.3 1.02.2.17.56.26 1.07.26h.86V218h-1.25Zm1.98 0Zm1.25 0v-8.03h1.34V218h-1.34Zm.67-9.76c-.27 0-.49-.09-.67-.26-.17-.18-.26-.41-.26-.67s.09-.48.26-.64c.18-.17.41-.26.67-.26.26 0 .47.09.66.26.18.16.27.37.27.64s-.09.49-.27.67c-.18.17-.4.26-.66.26Zm1.91 9.76Zm1.1 0v-8.03h1.22l.08 1.41c.26-.5.62-.89 1.09-1.17.48-.29 1.02-.43 1.63-.43.63 0 1.17.12 1.63.37s.82.62 1.07 1.14.38 1.16.38 1.94V218h-1.34v-4.64c0-.81-.18-1.42-.53-1.82s-.86-.61-1.52-.61c-.45 0-.85.11-1.22.34-.35.21-.63.53-.85.94-.2.42-.3.92-.3 1.52V218h-1.34Zm8.07 0Zm4.29 3.71c-.73 0-1.37-.1-1.92-.29-.55-.18-.99-.46-1.3-.85s-.46-.86-.46-1.42c0-.25.05-.51.14-.78.11-.27.28-.53.53-.8.26-.27.61-.51 1.07-.72l.91.54c-.55.23-.92.5-1.09.8s-.26.58-.26.83c0 .35.1.65.3.88s.48.41.83.53c.36.12.77.18 1.23.18s.85-.07 1.18-.21c.33-.13.59-.31.77-.54.18-.22.27-.5.27-.82 0-.36-.14-.67-.42-.93-.28-.25-.8-.39-1.57-.43-.64-.04-1.17-.1-1.6-.18-.42-.07-.76-.16-1.04-.26-.28-.11-.51-.22-.7-.35-.18-.13-.35-.26-.5-.4v-.37l1.55-1.55 1.17.42-1.6 1.46.21-.56c.12.09.23.17.34.24.11.06.25.12.43.18s.43.11.75.16c.32.04.75.09 1.3.13.73.05 1.31.18 1.74.38.45.2.77.47.96.82.2.34.3.74.3 1.2s-.13.89-.38 1.3c-.25.42-.63.76-1.15 1.02s-1.19.4-2.02.4Zm-.02-6.24c-.67 0-1.24-.12-1.71-.37-.47-.26-.83-.6-1.07-1.02-.25-.44-.37-.92-.37-1.46s.12-1.01.37-1.44.6-.77 1.07-1.02 1.04-.38 1.71-.38c.68 0 1.26.13 1.73.38s.83.6 1.07 1.02.37.91.37 1.44-.12 1.02-.37 1.46c-.25.43-.6.77-1.07 1.02-.47.25-1.05.37-1.73.37Zm0-1.1c.58 0 1.03-.14 1.36-.43.34-.3.51-.74.51-1.31 0-.55-.17-.98-.51-1.28-.33-.3-.78-.45-1.36-.45-.57 0-1.02.15-1.36.45s-.51.73-.51 1.28c0 .58.17 1.01.51 1.31.34.29.79.43 1.36.43Zm1.31-3.26l-.4-1.14h3.3v1.01l-2.9.13Z" clip-path="url(#g)"/><path fill="#e5e5e5" d="M648.1 218Zm2.4 0v-9.7l-1.9.46v-.94l2.35-1.02h.91V218H650.5Zm6.8 0Zm1.01 0v-.94c.77-.6 1.49-1.2 2.18-1.81s1.29-1.21 1.82-1.81c.53-.61.95-1.2 1.25-1.78.31-.58.46-1.13.46-1.66 0-.39-.07-.76-.21-1.09-.14-.34-.36-.62-.66-.83s-.71-.32-1.23-.32c-.49 0-.91.11-1.25.34-.33.21-.58.5-.75.86-.16.35-.24.74-.24 1.17h-1.3c.01-.74.17-1.37.48-1.89.31-.53.73-.94 1.26-1.22s1.14-.42 1.81-.42 1.26.13 1.78.38c.51.25.91.61 1.2 1.1.3.49.45 1.11.45 1.86 0 .52-.11 1.05-.32 1.57s-.5 1.03-.86 1.54c-.36.49-.77.97-1.22 1.42-.44.46-.89.89-1.36 1.3-.46.41-.9.77-1.31 1.1h5.46V218h-7.44Zm7.93 0Zm4.86.19c-.73 0-1.38-.13-1.97-.4-.58-.28-1.03-.66-1.38-1.14-.33-.49-.5-1.06-.5-1.7 0-.46.09-.89.27-1.28s.43-.74.75-1.02c.33-.3.71-.51 1.14-.62-.6-.21-1.06-.54-1.39-.99-.32-.45-.48-.93-.48-1.46 0-.55.14-1.06.42-1.5.29-.45.7-.81 1.23-1.07s1.17-.4 1.9-.4c.75 0 1.38.13 1.9.4.53.27.94.62 1.23 1.07s.43.95.43 1.5c0 .52-.17 1.01-.5 1.46-.32.45-.78.78-1.39.99.45.12.83.33 1.15.62.32.29.57.63.75 1.02s.27.82.27 1.28c0 .64-.17 1.21-.51 1.7-.34.48-.8.86-1.38 1.14-.58.27-1.23.4-1.97.4Zm0-1.18c.84 0 1.47-.19 1.89-.58.42-.39.62-.91.62-1.55 0-.73-.23-1.27-.69-1.65-.45-.37-1.06-.56-1.82-.56-.76 0-1.37.19-1.82.56-.45.37-.67.92-.67 1.65 0 .64.21 1.16.62 1.55.42.38 1.04.58 1.87.58Zm0-5.46c.68 0 1.22-.18 1.62-.53s.59-.81.59-1.36c0-.63-.2-1.1-.59-1.42-.38-.32-.92-.48-1.62-.48-.67 0-1.21.16-1.6.48-.38.32-.58.79-.58 1.42 0 .55.19 1.01.58 1.36.39.35.93.53 1.6.53Zm4.89 6.45Zm5.5.19c-.98 0-1.83-.24-2.54-.72-.7-.49-1.25-1.17-1.63-2.03-.38-.87-.58-1.89-.58-3.04s.19-2.16.58-3.02c.38-.87.93-1.55 1.63-2.03.7-.49 1.55-.74 2.54-.74.98 0 1.82.25 2.51.74.7.48 1.24 1.16 1.62 2.03.38.86.58 1.87.58 3.02s-.19 2.17-.58 3.04c-.37.86-.91 1.54-1.62 2.03-.69.48-1.53.72-2.51.72Zm-.02-1.18c.65 0 1.23-.18 1.73-.54.5-.37.9-.9 1.18-1.58.29-.69.43-1.52.43-2.48s-.14-1.78-.43-2.46c-.29-.69-.68-1.22-1.18-1.58s-1.08-.54-1.73-.54c-.64 0-1.22.18-1.73.54-.5.36-.9.89-1.2 1.58-.29.68-.43 1.5-.43 2.46s.14 1.79.43 2.48c.3.68.7 1.21 1.2 1.58.51.36 1.09.54 1.73.54Z" clip-path="url(#g)"/><path fill="#22c55e" d="M905.1 218Zm4.86.19c-.7 0-1.31-.14-1.81-.42s-.9-.65-1.2-1.1c-.29-.47-.47-.98-.54-1.52h1.25c.12.6.38 1.06.78 1.39.41.32.92.48 1.54.48.57 0 1.07-.17 1.5-.51s.79-.86 1.06-1.57c.28-.7.43-1.59.46-2.67 0-.02 0-.05 0-.08s0-.06 0-.1c-.17.34-.41.66-.72.94-.3.28-.66.5-1.09.67-.42.17-.89.26-1.42.26-.63 0-1.23-.15-1.79-.45-.55-.3-1.01-.71-1.36-1.25-.34-.54-.51-1.18-.51-1.9 0-.63.15-1.23.46-1.81s.75-1.05 1.33-1.41 1.26-.54 2.05-.54c.81 0 1.49.15 2.05.46.55.3 1 .7 1.33 1.22s.57 1.09.72 1.73c.16.63.24 1.27.24 1.94 0 1.23-.17 2.31-.51 3.25s-.83 1.67-1.47 2.21c-.64.52-1.42.78-2.34.78Zm.08-5.39c.5 0 .94-.11 1.33-.34.39-.23.71-.54.94-.91.23-.38.35-.81.35-1.26 0-.48-.12-.91-.35-1.28-.23-.38-.55-.68-.94-.9-.38-.21-.83-.32-1.33-.32-.49 0-.93.11-1.33.34-.38.21-.69.51-.91.88s-.34.81-.34 1.3c0 .5.11.94.34 1.31s.53.67.91.88c.39.2.84.3 1.33.3Zm4.7 5.2Zm2.19 0l4.38-10.05h-6.14V206.8h7.52v1.01L918.36 218h-1.42Zm6.35 0Zm2.29 0l6.51-11.2h1.34L926.92 218h-1.34Zm7.04.19c-.48 0-.91-.11-1.3-.32-.38-.22-.69-.54-.93-.94-.22-.41-.34-.88-.34-1.42 0-.55.11-1.03.34-1.42.23-.41.54-.71.93-.93.38-.22.82-.34 1.3-.34.49 0 .92.11 1.3.34.38.21.69.52.91.93.22.39.34.87.34 1.42 0 .54-.11 1.02-.34 1.42s-.53.72-.91.94c-.38.21-.82.32-1.3.32Zm-.02-1.04c.26 0 .49-.06.7-.18.21-.13.38-.31.51-.56.14-.25.21-.55.21-.91 0-.37-.06-.68-.19-.93s-.3-.43-.51-.54c-.21-.13-.45-.19-.7-.19-.25 0-.48.06-.7.19-.21.12-.39.3-.53.54-.13.25-.19.55-.19.93 0 .36.06.67.19.91.14.25.31.43.53.56.21.12.44.18.69.18Zm-6.1-5.15c-.48 0-.91-.11-1.3-.32-.38-.22-.69-.54-.93-.94-.22-.41-.34-.88-.34-1.42 0-.55.11-1.03.34-1.42.23-.41.54-.71.93-.93.39-.22.83-.34 1.31-.34s.91.11 1.3.34c.38.21.69.52.91.93.22.39.34.87.34 1.42 0 .54-.11 1.02-.34 1.42s-.53.72-.93.94c-.38.21-.82.32-1.3.32Zm0-1.04c.26 0 .49-.06.7-.18.21-.13.38-.31.51-.56s.19-.55.19-.91c0-.37-.06-.68-.19-.93-.13-.26-.3-.44-.51-.56-.21-.13-.44-.19-.69-.19s-.48.06-.7.19c-.22.12-.41.3-.54.56-.13.25-.19.55-.19.93 0 .36.06.67.19.91.14.25.31.43.53.56.22.12.46.18.7.18Z" clip-path="url(#g)"/><path fill="#e5e5e5" d="M33.1 262Zm1.2 0V250.8h6.82v1.1H35.65v3.94H40.3v1.09H35.65V262H34.3Zm6.82 0Zm3.74.19c-.65 0-1.19-.11-1.63-.34-.44-.23-.76-.54-.98-.91-.21-.38-.32-.79-.32-1.23 0-.54.14-1 .42-1.38.29-.38.69-.67 1.2-.86.52-.2 1.13-.3 1.82-.3h2.14c0-.5-.08-.92-.24-1.25-.15-.33-.37-.58-.67-.75s-.66-.26-1.09-.26c-.51 0-.95.13-1.33.38s-.6.63-.69 1.14H42.13c.06-.58.26-1.06.58-1.44.33-.39.75-.69 1.25-.9.5-.21 1.02-.32 1.57-.32.75 0 1.37.14 1.86.42.49.27.86.65 1.1 1.14.26.48.38 1.05.38 1.7V262h-1.2l-.08-1.42c-.11.22-.25.44-.42.64-.16.19-.35.36-.58.51-.21.14-.46.25-.75.34s-.61.13-.98.13Zm.21-1.14c.37 0 .71-.07 1.01-.22.31-.16.57-.37.78-.64s.37-.57.48-.9c.12-.34.18-.69.18-1.04v-.05H45.49c-.51 0-.93.06-1.25.19-.32.12-.55.29-.69.51-.14.21-.21.46-.21.74 0 .29.06.54.19.75.14.2.34.36.59.48s.57.18.94.18Zm4.75.94Zm4.75.19c-.76 0-1.44-.18-2.05-.53-.6-.35-1.07-.84-1.42-1.47-.34-.63-.51-1.37-.51-2.21s.17-1.58.51-2.21c.35-.63.83-1.12 1.42-1.47.61-.35 1.29-.53 2.05-.53.96 0 1.76.25 2.4.75.64.49 1.05 1.15 1.22 1.98H56.81c-.11-.5-.37-.89-.78-1.17s-.91-.42-1.47-.42c-.46 0-.89.12-1.28.35-.38.22-.7.57-.94 1.02-.25.45-.37 1.01-.37 1.68 0 .5.07.94.21 1.33.15.38.34.71.58.98.23.26.51.45.82.58.32.13.65.19.99.19.38 0 .73-.06 1.04-.18.31-.13.57-.31.78-.54.21-.25.36-.54.43-.88h1.38c-.17.82-.58 1.48-1.23 1.98-.64.5-1.43.75-2.38.75Zm4.17-.19Zm4.27 0c-.48 0-.9-.07-1.25-.22s-.62-.4-.82-.75c-.18-.36-.27-.85-.27-1.46V255.1H59.29v-1.14h1.39l.18-1.94h1.17v1.94h2.35v1.14H62.02v4.46c0 .5.1.84.3 1.02.2.17.56.26 1.07.26h.86V262H63.02Zm1.98 0Zm4.03.19c-.62 0-1.16-.12-1.63-.37-.46-.25-.82-.62-1.07-1.14-.25-.51-.37-1.16-.37-1.94v-4.78H67.3v4.64c0 .81.18 1.42.53 1.82s.85.61 1.5.61c.45 0 .85-.11 1.22-.32.36-.22.65-.54.85-.96.21-.42.32-.92.32-1.52v-4.27h1.34V262H71.84l-.08-1.41c-.26.5-.62.9-1.1 1.18-.48.28-1.02.42-1.63.42Zm5.14-.19Zm1.1 0v-8.03h1.22l.11 1.54c.18-.36.41-.67.69-.93.29-.26.63-.45 1.02-.59s.84-.21 1.34-.21v1.41h-.46c-.34 0-.67.05-.98.14-.31.09-.59.23-.83.43-.23.19-.42.46-.56.82s-.21.78-.21 1.3V262H75.27Zm4.79 0Zm3.74.19c-.65 0-1.19-.11-1.63-.34-.44-.23-.76-.54-.98-.91-.21-.38-.32-.79-.32-1.23 0-.54.14-1 .42-1.38.29-.38.69-.67 1.2-.86.52-.2 1.13-.3 1.82-.3h2.14c0-.5-.08-.92-.24-1.25-.15-.33-.37-.58-.67-.75s-.66-.26-1.09-.26c-.51 0-.95.13-1.33.38s-.6.63-.69 1.14H81.06c.06-.58.26-1.06.58-1.44.33-.39.75-.69 1.25-.9.5-.21 1.02-.32 1.57-.32.75 0 1.37.14 1.86.42.49.27.86.65 1.1 1.14.26.48.38 1.05.38 1.7V262H86.6l-.08-1.42c-.11.22-.25.44-.42.64-.16.19-.35.36-.58.51-.21.14-.46.25-.75.34s-.61.13-.98.13Zm.21-1.14c.37 0 .71-.07 1.01-.22.31-.16.57-.37.78-.64s.37-.57.48-.9c.12-.34.18-.69.18-1.04v-.05H84.42c-.51 0-.93.06-1.25.19-.32.12-.55.29-.69.51-.14.21-.21.46-.21.74 0 .29.06.54.19.75.14.2.34.36.59.48s.57.18.94.18Zm4.53.94Zm4.27 0c-.48 0-.9-.07-1.25-.22s-.62-.4-.82-.75c-.18-.36-.27-.85-.27-1.46V255.1H89.09v-1.14h1.39l.18-1.94h1.17v1.94h2.35v1.14H91.82v4.46c0 .5.1.84.3 1.02.2.17.56.26 1.07.26h.86V262H92.81Zm1.98 0Zm1.25 0v-8.03h1.34V262H96.04Zm.67-9.76c-.27 0-.49-.09-.67-.26-.17-.18-.26-.41-.26-.67s.09-.48.26-.64c.18-.17.41-.26.67-.26.26 0 .47.09.66.26.18.16.27.37.27.64s-.09.49-.27.67c-.18.17-.4.26-.66.26ZM98.62 262Zm4.72.19c-.75 0-1.42-.17-2.02-.51-.6-.35-1.07-.84-1.42-1.47-.34-.63-.51-1.37-.51-2.22s.18-1.59.53-2.22.83-1.11 1.42-1.46c.61-.35 1.29-.53 2.03-.53.76 0 1.43.18 2.03.53.6.34 1.07.83 1.41 1.46s.51 1.37.51 2.22-.18 1.59-.53 2.22c-.34.63-.82 1.12-1.42 1.47-.6.34-1.27.51-2.03.51Zm0-1.15c.47 0 .9-.11 1.3-.34.39-.23.71-.58.94-1.02.25-.46.37-1.02.37-1.7 0-.68-.12-1.25-.35-1.7s-.55-.78-.94-1.01c-.39-.23-.82-.35-1.28-.35-.45 0-.87.12-1.28.35-.39.22-.71.56-.96 1.01s-.37 1.01-.37 1.7c0 .67.12 1.24.37 1.7.25.45.56.79.94 1.02.39.22.82.34 1.26.34Zm4.76.96Zm1.1 0v-8.03h1.22l.08 1.41c.26-.5.62-.89 1.09-1.17.48-.29 1.02-.43 1.63-.43.63 0 1.17.12 1.63.37s.82.62 1.07 1.14.38 1.16.38 1.94V262h-1.34v-4.64c0-.81-.18-1.42-.53-1.82s-.86-.61-1.52-.61c-.45 0-.85.11-1.22.34-.35.21-.63.53-.85.94-.2.42-.3.92-.3 1.52V262h-1.34Zm12.32 0Zm4.75.19c-.76 0-1.44-.18-2.05-.53-.6-.35-1.07-.84-1.42-1.47-.34-.63-.51-1.37-.51-2.21s.17-1.58.51-2.21c.35-.63.83-1.12 1.42-1.47.61-.35 1.29-.53 2.05-.53.96 0 1.76.25 2.4.75.64.49 1.05 1.15 1.22 1.98h-1.38c-.11-.5-.37-.89-.78-1.17s-.91-.42-1.47-.42c-.46 0-.89.12-1.28.35-.38.22-.7.57-.94 1.02-.25.45-.37 1.01-.37 1.68 0 .5.07.94.21 1.33.15.38.34.71.58.98.23.26.51.45.82.58.32.13.65.19.99.19.38 0 .73-.06 1.04-.18.31-.13.57-.31.78-.54.21-.25.36-.54.43-.88h1.38c-.17.82-.58 1.48-1.23 1.98-.64.5-1.43.75-2.38.75Zm4.39-.19Zm1.1 0V250.48h1.34V262h-1.34Zm2.46 0Zm1.25 0v-8.03h1.34V262h-1.34Zm.67-9.76c-.27 0-.49-.09-.67-.26-.17-.18-.26-.41-.26-.67s.09-.48.26-.64c.18-.17.41-.26.67-.26.26 0 .47.09.66.26.18.16.27.37.27.64s-.09.49-.27.67c-.18.17-.4.26-.66.26Zm1.91 9.76Zm4.66.19c-.75 0-1.41-.18-2-.53s-1.05-.84-1.39-1.47c-.33-.63-.5-1.37-.5-2.21 0-.85.17-1.59.5-2.21.33-.63.79-1.12 1.38-1.47.6-.35 1.28-.53 2.05-.53.79 0 1.46.18 2.02.53s.98.81 1.26 1.38c.3.57.45 1.19.45 1.87 0 .11 0 .22 0 .34s-.01.25-.02.4h-6.62v-1.04h5.31c-.03-.74-.28-1.31-.74-1.71-.45-.42-1.01-.62-1.7-.62-.45 0-.87.11-1.26.32-.39.2-.71.5-.96.9-.23.39-.35.89-.35 1.49v.45c0 .66.12 1.22.37 1.66.25.44.56.77.94.99.39.22.82.34 1.26.34.57 0 1.03-.12 1.39-.37.37-.26.65-.6.82-1.04h1.33c-.14.49-.37.93-.69 1.31-.32.37-.72.67-1.2.9-.47.22-1.02.34-1.65.34Zm4.44-.19Zm1.1 0v-8.03h1.22l.08 1.41c.26-.5.62-.89 1.09-1.17.48-.29 1.02-.43 1.63-.43.63 0 1.17.12 1.63.37s.82.62 1.07 1.14.38 1.16.38 1.94V262h-1.34v-4.64c0-.81-.18-1.42-.53-1.82s-.86-.61-1.52-.61c-.45 0-.85.11-1.22.34-.35.21-.63.53-.85.94-.2.42-.3.92-.3 1.52V262h-1.34Zm8.07 0Zm4.27 0c-.48 0-.9-.07-1.25-.22s-.62-.4-.82-.75c-.18-.36-.27-.85-.27-1.46V255.1h-1.39v-1.14h1.39l.18-1.94h1.17v1.94h2.35v1.14H159.6v4.46c0 .5.1.84.3 1.02.2.17.56.26 1.07.26h.86V262h-1.25Z" clip-path="url(#g)"/><path fill="#e5e5e5" d="M354.1 262Zm6.06.19c-1.09 0-2.03-.24-2.83-.72-.79-.49-1.4-1.17-1.84-2.03-.43-.87-.64-1.89-.64-3.04s.21-2.16.64-3.02c.44-.87 1.05-1.55 1.84-2.03.8-.49 1.74-.74 2.83-.74 1.29 0 2.33.3 3.12.91.8.61 1.31 1.47 1.54 2.58h-1.47c-.17-.69-.52-1.25-1.04-1.66-.52-.43-1.24-.64-2.14-.64-.79 0-1.48.19-2.08.56-.59.36-1.05.89-1.38 1.58-.32.68-.48 1.5-.48 2.46s.16 1.79.48 2.48c.33.68.79 1.21 1.38 1.58.6.36 1.29.54 2.08.54.91 0 1.62-.2 2.14-.61.52-.42.87-.97 1.04-1.65h1.47c-.22 1.08-.74 1.92-1.54 2.53-.79.61-1.83.91-3.12.91Zm5.42-.19Zm4.72.19c-.75 0-1.42-.17-2.02-.51-.6-.35-1.07-.84-1.42-1.47-.34-.63-.51-1.37-.51-2.22s.18-1.59.53-2.22.83-1.11 1.42-1.46c.61-.35 1.29-.53 2.03-.53.76 0 1.43.18 2.03.53.6.34 1.07.83 1.41 1.46s.51 1.37.51 2.22-.18 1.59-.53 2.22c-.34.63-.82 1.12-1.42 1.47-.6.34-1.27.51-2.03.51Zm0-1.15c.47 0 .9-.11 1.3-.34.39-.23.71-.58.94-1.02.25-.46.37-1.02.37-1.7 0-.68-.12-1.25-.35-1.7s-.55-.78-.94-1.01c-.39-.23-.82-.35-1.28-.35-.45 0-.87.12-1.28.35-.39.22-.71.56-.96 1.01s-.37 1.01-.37 1.7c0 .67.12 1.24.37 1.7.25.45.56.79.94 1.02.39.22.82.34 1.26.34Zm4.76.96Zm1.1 0v-8.03h1.22l.1 1.15c.26-.43.6-.76 1.02-.99s.9-.35 1.42-.35c.42 0 .79.06 1.14.18.34.11.64.28.9.51.26.22.46.51.62.86.28-.49.66-.87 1.14-1.14.49-.28 1.01-.42 1.57-.42.62 0 1.16.13 1.62.38.47.25.83.62 1.09 1.14.26.5.38 1.14.38 1.92V262h-1.33v-4.64c0-.81-.17-1.42-.5-1.82s-.8-.61-1.41-.61c-.42 0-.79.11-1.14.34-.33.21-.59.53-.78.94-.18.42-.27.93-.27 1.54V262h-1.34v-4.64c0-.81-.17-1.42-.5-1.82s-.8-.61-1.41-.61c-.41 0-.78.11-1.12.34-.33.21-.59.53-.78.94s-.29.93-.29 1.54V262h-1.34Zm13.16 0Zm1.1 3.52V253.97h1.22l.13 1.31c.17-.26.39-.5.66-.72.27-.23.59-.42.96-.56.37-.15.81-.22 1.3-.22.78 0 1.46.19 2.03.56.59.36 1.04.86 1.36 1.5.33.63.5 1.35.5 2.16s-.17 1.53-.5 2.16c-.32.63-.77 1.13-1.36 1.49s-1.27.54-2.05.54c-.65 0-1.23-.13-1.73-.4s-.89-.64-1.17-1.12v4.85h-1.34Zm4.08-4.5c.53 0 1-.12 1.41-.37.41-.26.72-.61.94-1.07.23-.46.35-.99.35-1.6s-.12-1.14-.35-1.6c-.22-.46-.54-.81-.94-1.06-.41-.26-.87-.38-1.41-.38s-1 .13-1.41.38c-.41.25-.72.6-.94 1.06s-.34.99-.34 1.6.11 1.14.34 1.6.54.82.94 1.07c.41.25.87.37 1.41.37Zm4.53.98Zm4.27 0c-.48 0-.9-.07-1.25-.22s-.62-.4-.82-.75c-.18-.36-.27-.85-.27-1.46V255.1H399.6v-1.14h1.39l.18-1.94h1.17v1.94h2.35v1.14h-2.35v4.46c0 .5.1.84.3 1.02.2.17.56.26 1.07.26h.86V262h-1.25Zm1.98 0Zm3.74.19c-.65 0-1.19-.11-1.63-.34-.44-.23-.76-.54-.98-.91-.21-.38-.32-.79-.32-1.23 0-.54.14-1 .42-1.38.29-.38.69-.67 1.2-.86.52-.2 1.13-.3 1.82-.3h2.14c0-.5-.08-.92-.24-1.25-.15-.33-.37-.58-.67-.75s-.66-.26-1.09-.26c-.51 0-.95.13-1.33.38s-.6.63-.69 1.14h-1.38c.06-.58.26-1.06.58-1.44.33-.39.75-.69 1.25-.9.5-.21 1.02-.32 1.57-.32.75 0 1.37.14 1.86.42.49.27.86.65 1.1 1.14.26.48.38 1.05.38 1.7V262h-1.2l-.08-1.42c-.11.22-.25.44-.42.64-.16.19-.35.36-.58.51-.21.14-.46.25-.75.34s-.61.13-.98.13Zm.21-1.14c.37 0 .71-.07 1.01-.22.31-.16.57-.37.78-.64s.37-.57.48-.9c.12-.34.18-.69.18-1.04v-.05h-2.03c-.51 0-.93.06-1.25.19-.32.12-.55.29-.69.51-.14.21-.21.46-.21.74 0 .29.06.54.19.75.14.2.34.36.59.48s.57.18.94.18Zm4.75.94Zm5.34.19c-.46 0-.87-.06-1.25-.19-.36-.13-.68-.3-.96-.53-.28-.23-.51-.5-.69-.8l-.13 1.33h-1.22V250.48h1.34v4.8c.26-.41.62-.76 1.1-1.06s1.08-.45 1.79-.45c.79 0 1.47.18 2.05.54.59.36 1.04.86 1.36 1.5.33.63.5 1.35.5 2.16s-.17 1.54-.5 2.18c-.32.63-.77 1.13-1.36 1.49s-1.27.54-2.05.54Zm-.16-1.17c.53 0 1-.12 1.41-.37.41-.26.72-.61.94-1.07.23-.46.35-.99.35-1.6s-.12-1.14-.35-1.6c-.22-.46-.54-.81-.94-1.06-.41-.26-.87-.38-1.41-.38s-1 .13-1.41.38c-.41.25-.72.6-.94 1.06s-.34.99-.34 1.6.11 1.14.34 1.6.54.82.94 1.07c.41.25.87.37 1.41.37Zm4.85.98Zm1.25 0v-8.03h1.34V262h-1.34Zm.67-9.76c-.27 0-.49-.09-.67-.26-.17-.18-.26-.41-.26-.67s.09-.48.26-.64c.18-.17.41-.26.67-.26.26 0 .47.09.66.26.18.16.27.37.27.64s-.09.49-.27.67c-.18.17-.4.26-.66.26Zm1.91 9.76Zm1.1 0V250.48h1.34V262h-1.34Zm2.46 0Zm1.25 0v-8.03h1.34V262h-1.34Zm.67-9.76c-.27 0-.49-.09-.67-.26-.17-.18-.26-.41-.26-.67s.09-.48.26-.64c.18-.17.41-.26.67-.26.26 0 .47.09.66.26.18.16.27.37.27.64s-.09.49-.27.67c-.18.17-.4.26-.66.26Zm1.91 9.76Zm4.27 0c-.48 0-.9-.07-1.25-.22s-.62-.4-.82-.75c-.18-.36-.27-.85-.27-1.46V255.1H435.8v-1.14h1.39l.18-1.94h1.17v1.94h2.35v1.14h-2.35v4.46c0 .5.1.84.3 1.02.2.17.56.26 1.07.26h.86V262h-1.25Zm1.76 0Zm4.66.19c-.75 0-1.41-.18-2-.53s-1.05-.84-1.39-1.47c-.33-.63-.5-1.37-.5-2.21 0-.85.17-1.59.5-2.21.33-.63.79-1.12 1.38-1.47.6-.35 1.28-.53 2.05-.53.79 0 1.46.18 2.02.53s.98.81 1.26 1.38c.3.57.45 1.19.45 1.87 0 .11 0 .22 0 .34s-.01.25-.02.4h-6.62v-1.04h5.31c-.03-.74-.28-1.31-.74-1.71-.45-.42-1.01-.62-1.7-.62-.45 0-.87.11-1.26.32-.39.2-.71.5-.96.9-.23.39-.35.89-.35 1.49v.45c0 .66.12 1.22.37 1.66.25.44.56.77.94.99.39.22.82.34 1.26.34.57 0 1.03-.12 1.39-.37.37-.26.65-.6.82-1.04h1.33c-.14.49-.37.93-.69 1.31-.32.37-.72.67-1.2.9-.47.22-1.02.34-1.65.34Zm-1.62-8.91l-.11-.98 3.25-2.03.16 1.15-3.3 1.86Z" clip-path="url(#g)"/><path fill="#ffffff" d="M648 262Zm4.86.19c-.73 0-1.38-.13-1.97-.4-.58-.28-1.03-.66-1.38-1.14-.33-.49-.5-1.06-.5-1.7 0-.46.09-.89.27-1.28s.43-.74.75-1.02c.33-.3.71-.51 1.14-.62-.6-.21-1.06-.54-1.39-.99-.32-.45-.48-.93-.48-1.46 0-.55.14-1.06.42-1.5.29-.45.7-.81 1.23-1.07s1.17-.4 1.9-.4c.75 0 1.38.13 1.9.4.53.27.94.62 1.23 1.07s.43.95.43 1.5c0 .52-.17 1.01-.5 1.46-.32.45-.78.78-1.39.99.45.12.83.33 1.15.62.32.29.57.63.75 1.02s.27.82.27 1.28c0 .64-.17 1.21-.51 1.7-.34.48-.8.86-1.38 1.14-.58.27-1.23.4-1.97.4Zm0-1.18c.84 0 1.47-.19 1.89-.58.42-.39.62-.91.62-1.55 0-.73-.23-1.27-.69-1.65-.45-.37-1.06-.56-1.82-.56-.76 0-1.37.19-1.82.56-.45.37-.67.92-.67 1.65 0 .64.21 1.16.62 1.55.42.38 1.04.58 1.87.58Zm0-5.46c.68 0 1.22-.18 1.62-.53s.59-.81.59-1.36c0-.63-.2-1.1-.59-1.42-.38-.32-.92-.48-1.62-.48-.67 0-1.21.16-1.6.48-.38.32-.58.79-.58 1.42 0 .55.19 1.01.58 1.36.39.35.93.53 1.6.53Zm4.89 6.45Zm5.22.19c-.81 0-1.49-.15-2.05-.45-.55-.31-1-.72-1.33-1.23s-.58-1.08-.74-1.71c-.15-.64-.22-1.29-.22-1.95 0-1.24.17-2.32.51-3.25.34-.94.83-1.67 1.47-2.19.65-.53 1.43-.8 2.34-.8.7 0 1.31.14 1.81.42.51.28.91.65 1.2 1.1.3.46.48.97.54 1.52h-1.25c-.11-.6-.36-1.06-.77-1.38-.41-.33-.92-.5-1.55-.5-.55 0-1.06.18-1.5.53-.45.34-.81.86-1.07 1.57-.26.7-.41 1.61-.45 2.7 0 .02 0 .04 0 .06s0 .04 0 .06c.16-.34.39-.65.7-.93.31-.29.68-.52 1.1-.69s.9-.26 1.42-.26c.64 0 1.24.15 1.79.45s1 .72 1.34 1.26c.35.53.53 1.16.53 1.89 0 .63-.15 1.23-.46 1.81s-.75 1.05-1.33 1.41-1.26.54-2.05.54Zm-.1-1.18c.49 0 .93-.11 1.31-.32.39-.22.7-.52.93-.9.22-.38.34-.82.34-1.3 0-.5-.11-.94-.34-1.31s-.53-.66-.93-.86c-.38-.21-.82-.32-1.31-.32s-.93.12-1.33.35c-.39.22-.71.53-.94.91-.22.37-.34.79-.34 1.25 0 .48.11.91.34 1.28.23.37.55.67.94.9.39.21.84.32 1.33.32Zm4.94.99Zm5.5.19c-.98 0-1.83-.24-2.54-.72-.7-.49-1.25-1.17-1.63-2.03-.38-.87-.58-1.89-.58-3.04s.19-2.16.58-3.02c.38-.87.93-1.55 1.63-2.03.7-.49 1.55-.74 2.54-.74.98 0 1.82.25 2.51.74.7.48 1.24 1.16 1.62 2.03.38.86.58 1.87.58 3.02s-.19 2.17-.58 3.04c-.37.86-.91 1.54-1.62 2.03-.69.48-1.53.72-2.51.72Zm-.02-1.18c.65 0 1.23-.18 1.73-.54.5-.37.9-.9 1.18-1.58.29-.69.43-1.52.43-2.48s-.14-1.78-.43-2.46c-.29-.69-.68-1.22-1.18-1.58s-1.08-.54-1.73-.54c-.64 0-1.22.18-1.73.54-.5.36-.9.89-1.2 1.58-.29.68-.43 1.5-.43 2.46s.14 1.79.43 2.48c.3.68.7 1.21 1.2 1.58.51.36 1.09.54 1.73.54Z" clip-path="url(#g)"/><path fill="#22c55e" d="M905 262Zm4.86.19c-.7 0-1.31-.14-1.81-.42s-.9-.65-1.2-1.1c-.29-.47-.47-.98-.54-1.52h1.25c.12.6.38 1.06.78 1.39.41.32.92.48 1.54.48.57 0 1.07-.17 1.5-.51s.79-.86 1.06-1.57c.28-.7.43-1.59.46-2.67 0-.02 0-.05 0-.08s0-.06 0-.1c-.17.34-.41.66-.72.94-.3.28-.66.5-1.09.67-.42.17-.89.26-1.42.26-.63 0-1.23-.15-1.79-.45-.55-.3-1.01-.71-1.36-1.25-.34-.54-.51-1.18-.51-1.9 0-.63.15-1.23.46-1.81s.75-1.05 1.33-1.41 1.26-.54 2.05-.54c.81 0 1.49.15 2.05.46.55.3 1 .7 1.33 1.22s.57 1.09.72 1.73c.16.63.24 1.27.24 1.94 0 1.23-.17 2.31-.51 3.25s-.83 1.67-1.47 2.21c-.64.52-1.42.78-2.34.78Zm.08-5.39c.5 0 .94-.11 1.33-.34.39-.23.71-.54.94-.91.23-.38.35-.81.35-1.26 0-.48-.12-.91-.35-1.28-.23-.38-.55-.68-.94-.9-.38-.21-.83-.32-1.33-.32-.49 0-.93.11-1.33.34-.38.21-.69.51-.91.88s-.34.81-.34 1.3c0 .5.11.94.34 1.31s.53.67.91.88c.39.2.84.3 1.33.3Zm5.12 5.2Zm4.86.19c-.7 0-1.31-.14-1.81-.42s-.9-.65-1.2-1.1c-.29-.47-.47-.98-.54-1.52h1.25c.12.6.38 1.06.78 1.39.41.32.92.48 1.54.48.57 0 1.07-.17 1.5-.51s.79-.86 1.06-1.57c.28-.7.43-1.59.46-2.67 0-.02 0-.05 0-.08s0-.06 0-.1c-.17.34-.41.66-.72.94-.3.28-.66.5-1.09.67-.42.17-.89.26-1.42.26-.63 0-1.23-.15-1.79-.45-.55-.3-1.01-.71-1.36-1.25-.34-.54-.51-1.18-.51-1.9 0-.63.15-1.23.46-1.81s.75-1.05 1.33-1.41 1.26-.54 2.05-.54c.81 0 1.49.15 2.05.46.55.3 1 .7 1.33 1.22s.57 1.09.72 1.73c.16.63.24 1.27.24 1.94 0 1.23-.17 2.31-.51 3.25s-.83 1.67-1.47 2.21c-.64.52-1.42.78-2.34.78Zm.08-5.39c.5 0 .94-.11 1.33-.34.39-.23.71-.54.94-.91.23-.38.35-.81.35-1.26 0-.48-.12-.91-.35-1.28-.23-.38-.55-.68-.94-.9-.38-.21-.83-.32-1.33-.32-.49 0-.93.11-1.33.34-.38.21-.69.51-.91.88s-.34.81-.34 1.3c0 .5.11.94.34 1.31s.53.67.91.88c.39.2.84.3 1.33.3Zm5.12 5.2Zm2.29 0l6.51-11.2h1.34L928.76 262h-1.34Zm7.04.19c-.48 0-.91-.11-1.3-.32-.38-.22-.69-.54-.93-.94-.22-.41-.34-.88-.34-1.42 0-.55.11-1.03.34-1.42.23-.41.54-.71.93-.93.38-.22.82-.34 1.3-.34.49 0 .92.11 1.3.34.38.21.69.52.91.93.22.39.34.87.34 1.42 0 .54-.11 1.02-.34 1.42s-.53.72-.91.94c-.38.21-.82.32-1.3.32Zm-.02-1.04c.26 0 .49-.06.7-.18.21-.13.38-.31.51-.56.14-.25.21-.55.21-.91 0-.37-.06-.68-.19-.93s-.3-.43-.51-.54c-.21-.13-.45-.19-.7-.19-.25 0-.48.06-.7.19-.21.12-.39.3-.53.54-.13.25-.19.55-.19.93 0 .36.06.67.19.91.14.25.31.43.53.56.21.12.44.18.69.18Zm-6.1-5.15c-.48 0-.91-.11-1.3-.32-.38-.22-.69-.54-.93-.94-.22-.41-.34-.88-.34-1.42 0-.55.11-1.03.34-1.42.23-.41.54-.71.93-.93.39-.22.83-.34 1.31-.34s.91.11 1.3.34c.38.21.69.52.91.93.22.39.34.87.34 1.42 0 .54-.11 1.02-.34 1.42s-.53.72-.93.94c-.38.21-.82.32-1.3.32Zm0-1.04c.26 0 .49-.06.7-.18.21-.13.38-.31.51-.56s.19-.55.19-.91c0-.37-.06-.68-.19-.93-.13-.26-.3-.44-.51-.56-.21-.13-.44-.19-.69-.19s-.48.06-.7.19c-.22.12-.41.3-.54.56-.13.25-.19.55-.19.93 0 .36.06.67.19.91.14.25.31.43.53.56.22.12.46.18.7.18Z" clip-path="url(#g)"/><path fill="#ffffff" d="M33 71Zm.53 0l6.14-16.8h3.67L49.46 71H46.03L41.5 57.9 36.94 71H33.53Zm2.71-3.82l.86-2.52h8.54l.84 2.52H36.24ZM49.45 71Zm7.44.29c-1.22 0-2.3-.27-3.24-.82s-1.68-1.29-2.21-2.23-.79-2.02-.79-3.24c0-1.25.26-2.34.79-3.29.53-.96 1.26-1.71 2.21-2.26.94-.56 2.02-.84 3.24-.84 1.55 0 2.86.41 3.91 1.22s1.73 1.94 2.02 3.36H59.39c-.14-.56-.45-1-.91-1.32l-.98-.48c-1.18 0-1.69.14-2.14.43l-.78.68c-.5 1.07-.62 1.7-.62 2.44l.07 1.06c.29.88.49 1.26.74 1.58l.56.54c.72.32 1.11.4 1.53.4l.79-.07c.69-.29.98-.49 1.22-.74l.41-.6 3.53-.38c-.29 1.39-.97 2.5-2.04 3.34-1.06.82-2.35 1.22-3.89 1.22Zm7-.29Zm7.03 0l-2.23-.38c-.62-.27-1.11-.71-1.46-1.32-.35-.62-.53-1.47-.53-2.54V61.62H64.63V58.9H66.7l.36-3.29h2.88V58.9h3.19v2.71H69.94V66.8c0 .54.12.92.36 1.13l.65.31h2.16V71H70.92Zm3.35 0Zm1.66 0V58.9h3.24V71H75.93Zm1.63-13.75l-1.06-.17c-.75-.69-.94-1.13-.94-1.66l.18-.96c.75-.69 1.23-.86 1.81-.86l1.07.18c.75.69.94 1.12.94 1.65l-.19.97c-.75.69-1.23.86-1.82.86ZM80.86 71Zm7.3.29c-1.15 0-2.19-.26-3.12-.79-.91-.54-1.64-1.29-2.18-2.23-.53-.96-.79-2.06-.79-3.29 0-1.26.26-2.37.79-3.31.54-.96 1.28-1.7 2.21-2.23.93-.54 1.97-.82 3.12-.82 1.17 0 2.21.27 3.12.82.93.53 1.66 1.27 2.18 2.23.54.94.82 2.04.82 3.29s-.27 2.35-.82 3.31c-.53.94-1.26 1.69-2.18 2.23-.93.53-1.98.79-3.14.79Zm0-2.81l1.02-.13c.85-.51 1.18-.9 1.42-1.43l.38-1.97c0-.78-.13-1.43-.38-1.94l-.58-.92c-.85-.53-1.32-.66-1.85-.66l-.98.14c-.86.53-1.21.92-1.46 1.45l-.36 1.16c0 1.57.12 2.22.36 2.75l.59.92c.85.51 1.32.64 1.83.64ZM95.51 71Zm1.58 0V58.9h2.86l.24 1.97.89-1.22c1.36-.83 2.18-1.04 3.12-1.04 1.01 0 1.86.21 2.54.62s1.21 1.02 1.56 1.82c.37.8.55 1.78.55 2.95V71h-3.22V64.33c0-.96-.21-1.7-.62-2.21-.4-.51-1.02-.77-1.87-.77l-1.03.13c-.85.51-1.18.88-1.42 1.36l-.36 1.03V71H97.09Zm13.23 0Zm6.53.29l-2.88-.53c-.82-.35-1.46-.84-1.92-1.46l-.79-2.11h3.22c.08.3.22.58.41.84l.45.43c.64.29 1.02.36 1.47.36l.78-.06.74-.41.34-.63-.1-.82-.66-.52c-.74-.22-1.18-.34-1.71-.45l-1.14-.25c-1.1-.34-1.59-.55-2.02-.81l-.78-.58c-.51-.8-.64-1.3-.64-1.89l.58-1.92c.38-.58.94-1.03 1.68-1.37l2.66-.5c1.46 0 2.61.33 3.46.98s1.35 1.56 1.51 2.71h-3.05c-.1-.37-.31-.66-.65-.86l-.75-.34c-1.12 0-1.56.1-1.86.31l-.46.48.1.76.69.5c.74.24 1.18.35 1.71.46l2.45.67c.7.24 1.26.59 1.66 1.06.4.45.6 1.1.6 1.97l-.62 2.06c-.42.59-1.01 1.06-1.78 1.39l-2.69.5ZM128.74 71Zm1.58 0V53.72h3.24V71h-3.24Zm4.81 0Zm7.39.29c-1.22 0-2.3-.26-3.24-.77-.93-.53-1.66-1.26-2.18-2.18-.51-.94-.77-2.03-.77-3.26 0-1.26.26-2.38.77-3.34.53-.98 1.26-1.74 2.18-2.28.93-.56 2.01-.84 3.24-.84 1.2 0 2.25.26 3.14.79s1.59 1.24 2.09 2.14.74 1.91.74 3.05v.34l-.02.6-9.85.21V63.78h6.6c-.05-.78-.33-1.4-.84-1.85l-1.12-.67c-1.3 0-1.8.13-2.26.38l-.83.62c-.53 1.02-.66 1.67-.66 2.46v.7c0 .66.12 1.23.36 1.73l.61.86c.9.53 1.42.66 2.01.66l1.08-.13c.78-.51 1.08-.84 1.27-1.24h3.31c-.22.75-.6 1.43-1.13 2.04l-1.94 1.44c-.77.35-1.62.53-2.57.53Zm7.04-.29Zm6.53.29l-2.88-.53c-.82-.35-1.46-.84-1.92-1.46l-.79-2.11h3.22c.08.3.22.58.41.84l.45.43c.64.29 1.02.36 1.47.36l.78-.06.74-.41.34-.63-.1-.82-.66-.52c-.74-.22-1.18-.34-1.71-.45l-1.14-.25c-1.1-.34-1.59-.55-2.02-.81l-.78-.58c-.51-.8-.64-1.3-.64-1.89l.58-1.92c.38-.58.94-1.03 1.68-1.37l2.66-.5c1.46 0 2.61.33 3.46.98s1.35 1.56 1.51 2.71h-3.05c-.1-.37-.31-.66-.65-.86l-.75-.34c-1.12 0-1.56.1-1.86.31l-.46.48.1.76.69.5c.74.24 1.18.35 1.71.46l2.45.67c.7.24 1.26.59 1.66 1.06.4.45.6 1.1.6 1.97l-.62 2.06c-.42.59-1.01 1.06-1.78 1.39l-2.69.5ZM168 71Zm1.58 5.28V58.9h2.88l.36 1.68.56-.67c.7-.59 1.12-.83 1.6-1.01l1.07-.29c1.79 0 2.79.28 3.66.84s1.54 1.32 2.04 2.28c.51.94.77 2.02.77 3.24s-.26 2.3-.77 3.26c-.51.94-1.2 1.69-2.06 2.23s-1.85.82-2.95.82l-2.33-.48c-.64-.34-1.17-.79-1.58-1.37v6.84h-3.24Zm6.38-7.82l1.2-.14c.98-.58 1.36-.98 1.63-1.51l.41-1.14c0-1.38-.14-1.98-.41-2.51l-.66-.96c-.98-.59-1.54-.74-2.18-.74l-1.18.15c-.98.59-1.36 1-1.65 1.53l-.41 1.14c0 1.38.14 1.99.41 2.54l.67.94c.98.58 1.54.72 2.16.72ZM183.73 71Zm1.58 0V53.72h3.24V71h-3.24Zm4.81 0Zm6.1.29c-.98 0-1.82-.2-2.52-.6-.69-.42-1.22-1.02-1.58-1.8-.37-.8-.55-1.78-.55-2.95V58.9h3.24v6.7c0 .98.2 1.71.6 2.21.42.5 1.05.74 1.9.74l1.02-.12c.83-.5 1.16-.86 1.4-1.32l.38-1.06V58.9h3.22V71h-2.83l-.26-1.97-.87 1.24c-1.38.82-2.19 1.02-3.14 1.02Zm8.69-.29Zm6.53.29l-2.88-.53c-.82-.35-1.46-.84-1.92-1.46l-.79-2.11h3.22c.08.3.22.58.41.84l.45.43c.64.29 1.02.36 1.47.36l.78-.06.74-.41.34-.63-.1-.82-.66-.52c-.74-.22-1.18-.34-1.71-.45l-1.14-.25c-1.1-.34-1.59-.55-2.02-.81l-.78-.58c-.51-.8-.64-1.3-.64-1.89l.58-1.92c.38-.58.94-1.03 1.68-1.37l2.66-.5c1.46 0 2.61.33 3.46.98s1.35 1.56 1.51 2.71h-3.05c-.1-.37-.31-.66-.65-.86l-.75-.34c-1.12 0-1.56.1-1.86.31l-.46.48.1.76.69.5c.74.24 1.18.35 1.71.46l2.45.67c.7.24 1.26.59 1.66 1.06.4.45.6 1.1.6 1.97l-.62 2.06c-.42.59-1.01 1.06-1.78 1.39l-2.69.5ZM223.34 71Zm7.39.29c-1.22 0-2.3-.26-3.24-.77-.93-.53-1.66-1.26-2.18-2.18-.51-.94-.77-2.03-.77-3.26 0-1.26.26-2.38.77-3.34.53-.98 1.26-1.74 2.18-2.28.93-.56 2.01-.84 3.24-.84 1.2 0 2.25.26 3.14.79s1.59 1.24 2.09 2.14.74 1.91.74 3.05v.34l-.02.6-9.85.21V63.78h6.6c-.05-.78-.33-1.4-.84-1.85l-1.12-.67c-1.3 0-1.8.13-2.26.38l-.83.62c-.53 1.02-.66 1.67-.66 2.46v.7c0 .66.12 1.23.36 1.73l.61.86c.9.53 1.42.66 2.01.66l1.08-.13c.78-.51 1.08-.84 1.27-1.24h3.31c-.22.75-.6 1.43-1.13 2.04l-1.94 1.44c-.77.35-1.62.53-2.57.53Zm6.18-.29Zm.46 0l4.34-6.05-4.34-6.05h3.5l2.9 4.15 2.9-4.15h3.48l-4.34 6.05L250.15 71h-3.48l-2.9-4.18-2.9 4.18h-3.5Zm12.62 0Zm7.39.29c-1.22 0-2.3-.26-3.24-.77-.93-.53-1.66-1.26-2.18-2.18-.51-.94-.77-2.03-.77-3.26 0-1.26.26-2.38.77-3.34.53-.98 1.26-1.74 2.18-2.28.93-.56 2.01-.84 3.24-.84 1.2 0 2.25.26 3.14.79s1.59 1.24 2.09 2.14.74 1.91.74 3.05v.34l-.02.6-9.85.21V63.78h6.6c-.05-.78-.33-1.4-.84-1.85l-1.12-.67c-1.3 0-1.8.13-2.26.38l-.83.62c-.53 1.02-.66 1.67-.66 2.46v.7c0 .66.12 1.23.36 1.73l.61.86c.9.53 1.42.66 2.01.66l1.08-.13c.78-.51 1.08-.84 1.27-1.24h3.31c-.22.75-.6 1.43-1.13 2.04l-1.94 1.44c-.77.35-1.62.53-2.57.53Zm-2.59-13.42l-.29-2.14 5.26-3 .38 2.47-5.35 2.66ZM264.42 71Zm7.44.29c-1.22 0-2.3-.27-3.24-.82s-1.68-1.29-2.21-2.23-.79-2.02-.79-3.24c0-1.25.26-2.34.79-3.29.53-.96 1.26-1.71 2.21-2.26.94-.56 2.02-.84 3.24-.84 1.55 0 2.86.41 3.91 1.22s1.73 1.94 2.02 3.36h-3.43c-.14-.56-.45-1-.91-1.32l-.98-.48c-1.18 0-1.69.14-2.14.43l-.78.68c-.5 1.07-.62 1.7-.62 2.44l.07 1.06c.29.88.49 1.26.74 1.58l.56.54c.72.32 1.11.4 1.53.4l.79-.07c.69-.29.98-.49 1.22-.74l.41-.6 3.53-.38c-.29 1.39-.97 2.5-2.04 3.34-1.06.82-2.35 1.22-3.89 1.22ZM279 71Zm6.1.29c-.98 0-1.82-.2-2.52-.6-.69-.42-1.22-1.02-1.58-1.8-.37-.8-.55-1.78-.55-2.95V58.9h3.24v6.7c0 .98.2 1.71.6 2.21.42.5 1.05.74 1.9.74l1.02-.12c.83-.5 1.16-.86 1.4-1.32l.38-1.06V58.9h3.22V71h-2.83l-.26-1.97-.87 1.24c-1.38.82-2.19 1.02-3.14 1.02Zm8.69-.29Zm7.03 0l-2.23-.38c-.62-.27-1.11-.71-1.46-1.32-.35-.62-.53-1.47-.53-2.54V61.62h-2.06V58.9h2.06l.36-3.29h2.88V58.9h3.19v2.71h-3.19V66.8c0 .54.12.92.36 1.13l.65.31H303V71h-2.18Zm3.05 0Zm7.39.29c-1.22 0-2.3-.26-3.24-.77-.93-.53-1.66-1.26-2.18-2.18-.51-.94-.77-2.03-.77-3.26 0-1.26.26-2.38.77-3.34.53-.98 1.26-1.74 2.18-2.28.93-.56 2.01-.84 3.24-.84 1.2 0 2.25.26 3.14.79s1.59 1.24 2.09 2.14.74 1.91.74 3.05v.34l-.02.6-9.85.21V63.78h6.6c-.05-.78-.33-1.4-.84-1.85l-1.12-.67c-1.3 0-1.8.13-2.26.38l-.83.62c-.53 1.02-.66 1.67-.66 2.46v.7c0 .66.12 1.23.36 1.73l.61.86c.9.53 1.42.66 2.01.66l1.08-.13c.78-.51 1.08-.84 1.27-1.24h3.31c-.22.75-.6 1.43-1.13 2.04l-1.94 1.44c-.77.35-1.62.53-2.57.53Zm-2.59-13.42l-.29-2.14 5.26-3 .38 2.47-5.35 2.66ZM318.3 71Zm7.39.29c-1.22 0-2.3-.26-3.24-.77-.93-.53-1.66-1.26-2.18-2.18-.51-.94-.77-2.03-.77-3.26 0-1.26.26-2.38.77-3.34.53-.98 1.26-1.74 2.18-2.28.93-.56 2.01-.84 3.24-.84 1.2 0 2.25.26 3.14.79s1.59 1.24 2.09 2.14.74 1.91.74 3.05v.34l-.02.6-9.85.21V63.78h6.6c-.05-.78-.33-1.4-.84-1.85l-1.12-.67c-1.3 0-1.8.13-2.26.38l-.83.62c-.53 1.02-.66 1.67-.66 2.46v.7c0 .66.12 1.23.36 1.73l.61.86c.9.53 1.42.66 2.01.66l1.08-.13c.78-.51 1.08-.84 1.27-1.24h3.31c-.22.75-.6 1.43-1.13 2.04l-1.94 1.44c-.77.35-1.62.53-2.57.53Zm7.04-.29Zm6.53.29l-2.88-.53c-.82-.35-1.46-.84-1.92-1.46l-.79-2.11h3.22c.08.3.22.58.41.84l.45.43c.64.29 1.02.36 1.47.36l.78-.06.74-.41.34-.63-.1-.82-.66-.52c-.74-.22-1.18-.34-1.71-.45l-1.14-.25c-1.1-.34-1.59-.55-2.02-.81l-.78-.58c-.51-.8-.64-1.3-.64-1.89l.58-1.92c.38-.58.94-1.03 1.68-1.37l2.66-.5c1.46 0 2.61.33 3.46.98s1.35 1.56 1.51 2.71h-3.05c-.1-.37-.31-.66-.65-.86l-.75-.34c-1.12 0-1.56.1-1.86.31l-.46.48.1.76.69.5c.74.24 1.18.35 1.71.46l2.45.67c.7.24 1.26.59 1.66 1.06.4.45.6 1.1.6 1.97l-.62 2.06c-.42.59-1.01 1.06-1.78 1.39l-2.69.5Zm0 0" clip-path="url(#g)"/></g></g></svg>