<?xml version="1.0" encoding="UTF-8" standalone="no"?><svg xmlns="http://www.w3.org/2000/svg" xmlns:xlink="http://www.w3.org/1999/xlink" contentScriptType="text/ecmascript" zoomAndPan="magnify" contentStyleType="text/css" stroke="#000000" stroke-linecap="square" version="1" width="347" stroke-miterlimit="10" fill="#000000" preserveAspectRatio="xMidYMid meet" viewBox="0 0 346.81 186.2" height="186"><defs><clipPath id="a"><path d="M0 0V186.2H346.81V0Z"/></clipPath><clipPath id="b" clip-path="url(#a)"><path d="M-716 1500.03H724v-2106H-716Z"/></clipPath></defs><g><g fill="#ffffff" stroke="#ffffff"><path d="M0 11.03Zm1.13 0V.53H4.82c.73 0 1.34.12 1.83.36l.85.55c.48.81.6 1.26.6 1.76l-.12.99c-.47.72-.77 1-1.15 1.18l-.77.31-.21-.11.87.13c.75.46 1.06.77 1.27 1.16l.35.83c0 1-.13 1.49-.39 1.93l-.65.77c-1.01.52-1.63.64-2.37.64H1.13ZM2.39 9.98H4.8c.71 0 1.26-.17 1.65-.5l.6-.8c0-1.2-.21-1.67-.62-2.01l-.95-.55H2.39V9.98Zm0-4.86H4.72c.69 0 1.2-.16 1.55-.48l.54-.76c0-1.08-.18-1.5-.54-1.82l-.88-.48h-3V5.12Zm6.65 5.91Zm4.42.18l-1.33-.16c-1.12-.65-1.56-1.11-1.88-1.7L9.77 7.26c0-.81.16-1.51.48-2.09l.78-1.07c1.13-.65 1.76-.81 2.46-.81l1.36.16c1.11.65 1.55 1.11 1.87 1.72l.49 2.08c0 .8-.16 1.5-.49 2.1l-.78 1.05c-1.12.65-1.76.81-2.48.81Zm.02-1.08l.83-.11c.74-.43 1.04-.75 1.27-1.18l.34-.96c0-1.27-.11-1.8-.34-2.22l-.52-.75c-.73-.43-1.13-.54-1.57-.54l-.82.11c-.75.43-1.05.75-1.28 1.18l-.33.95c0 1.27.11 1.8.33 2.23l.53.75c.73.43 1.13.54 1.56.54Zm4.45.9Zm1.05 0V3.47h1.14l.06 1.32.58-.84c.89-.52 1.4-.66 1.97-.66l1.1.12c.86.47 1.19.82 1.43 1.3l.36 1.08v5.24H24.36V6.65c0-.76-.17-1.33-.51-1.71l-.8-.57c-1.03 0-1.4.1-1.73.32l-.6.49c-.39.77-.48 1.25-.48 1.81v4.04H18.98Zm7.56 0Zm-.4 3.3V13.25h.58l.65-.08.4-.57V3.47h1.26v8.79c0 .48-.08.87-.24 1.17l-.4.53c-.63.29-1.01.37-1.47.37h-.78ZM28.42 1.86l-.46-.07-.41-.55.08-.69.54-.39.69.07.41.51-.08.71-.53.41Zm1.77 9.17Zm4.43.18l-1.33-.16c-1.12-.65-1.56-1.11-1.88-1.7l-.48-2.09c0-.81.16-1.51.48-2.09l.77-1.07c1.13-.65 1.77-.81 2.47-.81L36 3.45c1.11.65 1.55 1.11 1.87 1.72l.5 2.08c0 .8-.17 1.5-.5 2.1L37.1 10.4c-1.12.65-1.76.81-2.48.81Zm.01-1.08l.83-.11c.74-.43 1.04-.75 1.27-1.18l.35-.96c0-1.27-.12-1.8-.35-2.22l-.51-.75c-.73-.43-1.13-.54-1.57-.54l-.82.11c-.75.43-1.05.75-1.28 1.18l-.33.95c0 1.27.11 1.8.33 2.23l.52.75c.73.43 1.13.54 1.56.54Zm4.45.9Zm3.8.18l-1.09-.12c-.87-.46-1.21-.81-1.45-1.29L40 8.72V3.47h1.26V7.86c0 .75.16 1.32.49 1.7l.8.57c1.02 0 1.4-.1 1.74-.3l.6-.51c.39-.77.49-1.24.49-1.8V3.47h1.26v7.56H45.5l-.07-1.32-.57.84c-.9.53-1.41.66-1.98.66Zm4.8-.18Zm1.05 0V3.47h1.14l.09 1.44.39-.63c.53-.48.85-.67 1.22-.8l.81-.19.48 1.32h-.47l-.62.05-.84.3c-.45.38-.63.64-.76.97l-.18.72v4.38H48.73Zm8.49 0Zm1.12 0V.53H59.6v9.49h4.89v1.01H58.34Zm6.46 0Zm4.37.18l-1.34-.16c-1.09-.67-1.52-1.12-1.83-1.72l-.46-2.08c0-.8.15-1.5.45-2.08l.74-1.06c1.11-.66 1.75-.82 2.47-.82l1.36.16c1.03.66 1.43 1.1 1.7 1.64l.42 1.11c0 .74 0 .85 0 .96l-.01.23-6.19.15V6.56h4.97c-.03-.69-.26-1.23-.69-1.62l-.95-.59c-1.07 0-1.47.1-1.84.31l-.65.47c-.44.75-.55 1.21-.55 1.78v.41l.11 1.14c.45.84.74 1.16 1.1 1.37l.77.31c.95 0 1.38-.11 1.72-.34l.6-.56 1.4-.4-.33.86c-.6.72-.98 1-1.43 1.21l-.95.3Zm-1.5-8.39l-.14-.89L70.55 0l.18 1.08-3.06 1.74Zm5.66 8.21Zm3.51.18l-1.12-.11c-.82-.42-1.12-.71-1.32-1.06l-.3-.75c0-.93.13-1.36.39-1.71l.64-.63c.97-.37 1.55-.47 2.21-.47h1.99c0-.47-.07-.86-.22-1.17l-.35-.56-.89-.4c-.89 0-1.31.12-1.66.36l-.56.6-1.37.47.24-.99c.61-.73 1-1.01 1.47-1.2l.96-.3c1.21 0 1.79.13 2.25.39l.82.61c.46.9.57 1.44.57 2.06v4.68H79.47L79.39 9.7l-.23.4-.49.53-.66.38-.83.2Zm.2-1.07l.66-.07.82-.49c.4-.51.55-.79.65-1.1l.16-.64V7.46H77.44c-.49 0-.88.06-1.18.18l-.52.27-.32.64.06.76.43.56.79.27Zm4.45.89Zm1.5.07l-.46-.08-.41-.53.08-.68.54-.42.7.09.4.53-.08.68-.52.41Zm5.46-.07Zm4.27 0L88.78.53h1.36L93.46 9.7 96.8.53h1.34l-3.95 10.5H92.72Zm4.78 0Zm4.42.18l-1.33-.16c-1.12-.65-1.56-1.11-1.88-1.7l-.48-2.09c0-.81.17-1.51.48-2.09l.78-1.07c1.13-.65 1.77-.81 2.47-.81l1.35.16c1.11.65 1.55 1.11 1.87 1.72l.49 2.08c0 .8-.16 1.5-.49 2.1l-.77 1.05c-1.13.65-1.76.81-2.49.81Zm.02-1.08l.83-.11c.74-.43 1.04-.75 1.27-1.18l.35-.96c0-1.27-.12-1.8-.35-2.22l-.51-.75c-.74-.43-1.13-.54-1.57-.54l-.82.11c-.75.43-1.05.75-1.29 1.18l-.32.95c0 1.27.11 1.8.32 2.23l.53.75c.73.43 1.13.54 1.56.54Zm4.45.9Zm1.17 0V3.47h1.26v7.56h-1.26Zm.63-9.17l-.46-.07-.41-.55.08-.69.54-.39.7.07.42.51-.08.71-.55.41ZM110 11.03Zm4.45.18l-1.35-.16c-1.13-.67-1.57-1.12-1.89-1.72l-.48-2.07c0-.8.16-1.49.48-2.08l.76-1.05c1.13-.67 1.77-.84 2.48-.84.9 0 1.65.23 2.25.7.6.46.98 1.08 1.14 1.86h-1.29c-.1-.47-.34-.83-.73-1.09l-.85-.39c-.96 0-1.36.11-1.73.33l-.67.53c-.44.86-.55 1.39-.55 2.02l.07.89c.26.73.43 1.03.65 1.27l.48.42.9.31c.68 0 1-.05 1.29-.16l.54-.29.53-.74 1.36-.31-.54 1.38c-1.21.95-1.96 1.19-2.85 1.19Zm4.13-.18Zm1.17 0V3.47h1.26v7.56h-1.26Zm.63-9.17l-.46-.07-.41-.55.08-.69.54-.39.69.07.43.51-.09.71-.54.41Zm5.79 9.17Zm1.05 0V.23h1.26v10.8h-1.26Zm2.29 0Zm3.51.18l-1.12-.11c-.82-.42-1.13-.71-1.33-1.06l-.3-.75c0-.93.13-1.36.39-1.71l.65-.63c.97-.37 1.54-.47 2.2-.47h2c0-.47-.08-.86-.23-1.17l-.35-.56-.89-.4c-.89 0-1.3.12-1.65.36l-.57.6-1.37.47.24-.99c.61-.73 1-1.01 1.47-1.2l.96-.3c1.21 0 1.79.13 2.25.39l.82.61c.46.9.58 1.44.58 2.06v4.68h-1.13l-.07-1.33-.23.4-.49.53-.66.38-.83.2Zm.19-1.07l.67-.07.81-.49c.4-.51.55-.79.65-1.1l.17-.64V7.46h-1.89c-.49 0-.89.06-1.19.18l-.51.27-.33.64.06.76.44.56.78.27Zm8.44.89Zm3.9.18l-1.18-.11c-.93-.41-1.3-.71-1.58-1.08l-.43-.82 1.23-.51.15.5.54.62c.55.27.89.33 1.29.33l.64-.05.63-.35.29-.55-.08-.76-.5-.45-.9-.27c-.73-.13-1.05-.21-1.37-.31l-.61-.23-.7-.54-.36-.77c0-.78.11-1.16.33-1.49l.54-.61c.83-.38 1.31-.47 1.86-.47.81 0 1.47.19 1.97.58l.79.96-1.15.74-.22-.68c-.55-.43-.92-.54-1.4-.54l-.83.1-.61.63.06.69.47.44.86.31c.89.16 1.35.28 1.76.43l.74.37c.51.6.64 1.01.64 1.55l-.12.88c-.47.7-.8.97-1.23 1.18l-.94.28Zm3.63-.18Zm1.17 0V3.47h1.26v7.56h-1.26Zm.63-9.17l-.46-.07-.41-.55.08-.69.54-.39.69.07.43.51-.09.71-.54.41Zm1.8 9.17Zm4.02 0l-.84-.07c-.66-.28-.91-.52-1.09-.85l-.26-.79V4.54h-1.32V3.47h1.32l.17-1.83h1.09V3.47h2.19V4.54h-2.19V8.75c0 .47.1.79.29.96l.52.24h1.29v1.08H156.8Zm1.86 0Zm3.79.18l-1.09-.12c-.87-.46-1.2-.81-1.44-1.29l-.35-1.08V3.47h1.26V7.86c0 .75.17 1.32.5 1.7l.79.57c1.02 0 1.4-.1 1.74-.3l.61-.51c.39-.77.49-1.24.49-1.8V3.47h1.26v7.56h-1.14L165 9.71l-.57.84c-.9.53-1.41.66-1.98.66Zm4.81-.18Zm3.51.18l-1.12-.11c-.82-.42-1.13-.71-1.33-1.06l-.3-.75c0-.93.13-1.36.39-1.71l.65-.63c.97-.37 1.54-.47 2.2-.47h2c0-.47-.08-.86-.23-1.17l-.35-.56-.89-.4c-.89 0-1.3.12-1.65.36l-.57.6-1.37.47.24-.99c.61-.73 1-1.01 1.47-1.2l.96-.3c1.21 0 1.79.13 2.25.39l.82.61c.46.9.58 1.44.58 2.06v4.68h-1.13l-.07-1.33-.23.4-.49.53-.66.38-.83.2Zm.19-1.07l.67-.07.81-.49c.4-.51.55-.79.65-1.1l.17-.64V7.46h-1.89c-.49 0-.89.06-1.19.18l-.51.27-.33.64.06.76.44.56.78.27Zm4.25.89Zm4.02 0l-.84-.07c-.66-.28-.92-.52-1.1-.85l-.25-.79V4.54h-1.32V3.47h1.32l.16-1.83h1.1V3.47h2.19V4.54H178.3V8.75c0 .47.09.79.28.96l.53.24h1.29v1.08h-1.17Zm1.85 0Zm1.17 0V3.47h1.26v7.56h-1.26Zm.63-9.17l-.46-.07-.41-.55.08-.69.54-.39.7.07.42.51-.08.71-.55.41Zm1.81 9.17Zm4.42.18l-1.33-.16c-1.12-.65-1.56-1.11-1.88-1.7l-.48-2.09c0-.81.16-1.51.48-2.09l.78-1.07c1.13-.65 1.76-.81 2.46-.81l1.36.16c1.11.65 1.55 1.11 1.87 1.72l.49 2.08c0 .8-.16 1.5-.49 2.1l-.78 1.05c-1.12.65-1.76.81-2.48.81Zm.02-1.08l.83-.11c.74-.43 1.04-.75 1.27-1.18l.34-.96c0-1.27-.11-1.8-.34-2.22l-.52-.75c-.73-.43-1.13-.54-1.57-.54l-.82.11c-.75.43-1.05.75-1.28 1.18l-.33.95c0 1.27.11 1.8.33 2.23l.53.75c.73.43 1.13.54 1.56.54Zm4.45.9Zm1.05 0V3.47h1.14l.06 1.32.58-.84c.89-.52 1.4-.66 1.97-.66l1.1.12c.86.47 1.19.82 1.43 1.3l.36 1.08v5.24h-1.26V6.65c0-.76-.17-1.33-.51-1.71l-.8-.57c-1.03 0-1.4.1-1.73.32l-.6.49c-.39.77-.48 1.25-.48 1.81v4.04h-1.26Zm11.55 0Zm1.5.07l-.46-.08-.41-.53.08-.68.54-.42.7.09.4.53-.08.68-.52.41Zm0-6.1l-.46-.08-.41-.54.08-.68.54-.41.7.08.4.54-.08.68-.52.41ZM0 61.03Zm2.68-3.2l-.61-.08-.77-.53c-.32-.55-.4-.86-.4-1.18l.08-.65.54-.77c.55-.32.84-.4 1.16-.4l.65.08.77.54c.32.55.4.85.4 1.2l-.08.63-.54.77c-.55.31-.85.39-1.2.39Zm6.71 3.2Zm5.68.18c-1.02 0-1.9-.23-2.65-.67-.74-.47-1.31-1.1-1.71-1.91-.4-.82-.6-1.77-.6-2.85s.2-2.03.6-2.84.97-1.45 1.71-1.9 1.63-.69 2.65-.69c1.2 0 2.18.28 2.93.85s1.23 1.38 1.44 2.42h-1.4c-.16-.65-.48-1.17-.97-1.56s-1.16-.6-2-.6l-1.95.52c-.55.34-.97.84-1.27 1.49l-.45 2.31c0 .9.15 1.67.45 2.32l.72 1.14c1.1.69 1.75.86 2.5.86.84 0 1.51-.19 2-.57l.81-.91 1.56-.64-.69 1.81c-1.5 1.14-2.48 1.42-3.68 1.42Zm4.82-.18Zm.45 0l3.87-10.5h1.34l3.85 10.5H28.07l-3.2-8.93-3.21 8.93H20.34Zm1.77-2.7l.36-1.02h4.76l.36 1.02H22.11Zm11.73 2.7Zm4.45.18l-1.35-.16c-1.13-.67-1.57-1.12-1.89-1.72l-.48-2.07c0-.8.16-1.49.48-2.08l.76-1.05c1.13-.67 1.77-.84 2.48-.84.9 0 1.65.23 2.25.7.6.46.98 1.08 1.14 1.86H40.39c-.1-.47-.34-.83-.73-1.09l-.85-.39c-.96 0-1.36.11-1.73.33l-.67.53c-.44.86-.55 1.39-.55 2.02l.07.89c.26.73.43 1.03.65 1.27l.48.42.9.31c.68 0 1-.05 1.29-.16l.54-.29.53-.74 1.36-.31-.54 1.38c-1.21.95-1.96 1.19-2.85 1.19Zm4.13-.18Zm4.37.18l-1.34-.16c-1.09-.67-1.52-1.12-1.83-1.72l-.46-2.08c0-.8.15-1.5.45-2.08l.74-1.06c1.11-.66 1.75-.82 2.47-.82l1.36.16c1.03.66 1.43 1.1 1.7 1.64l.42 1.11c0 .74 0 .85 0 .96l-.01.23-6.19.15v-.98h4.97c-.03-.69-.26-1.23-.69-1.62l-.95-.59c-1.07 0-1.47.1-1.84.31l-.65.47c-.44.75-.55 1.21-.55 1.78v.41l.11 1.14c.45.85.74 1.16 1.1 1.37l.77.31c.95 0 1.38-.11 1.72-.34l.6-.56 1.4-.4-.33.85c-.6.73-.98 1.01-1.43 1.22l-.95.3Zm8.14-.18Zm1.05 0V53.47h1.14l.08 1.08.56-.7c.81-.44 1.25-.56 1.73-.56l.74.05.91.37c.48.43.68.71.83 1.03l.61-.81c.91-.51 1.4-.64 1.92-.64l1.09.12c.87.47 1.2.82 1.43 1.3l.36 1.08v5.24H66.14V56.65c0-.76-.16-1.33-.47-1.71l-.74-.57c-.95 0-1.3.1-1.61.32l-.56.49c-.36.78-.45 1.26-.45 1.83v4.02H61.05V56.65c0-.76-.15-1.33-.46-1.71l-.75-.57c-.95 0-1.3.1-1.61.32l-.54.49c-.36.78-.45 1.26-.45 1.83v4.02H55.98Zm12.31 0Zm4.43.18l-1.33-.16c-1.12-.65-1.56-1.11-1.88-1.7l-.48-2.09c0-.81.16-1.51.48-2.09l.77-1.07c1.13-.65 1.77-.81 2.47-.81l1.35.16c1.11.65 1.55 1.11 1.87 1.72l.5 2.08c0 .8-.17 1.5-.5 2.1L75.2 60.4c-1.12.65-1.76.81-2.48.81Zm.01-1.08l.83-.11c.74-.43 1.04-.75 1.27-1.18l.35-.96c0-1.27-.12-1.8-.35-2.22l-.51-.75c-.73-.43-1.13-.54-1.57-.54l-.82.11c-.75.43-1.05.75-1.28 1.18l-.33.95c0 1.27.11 1.8.33 2.23l.52.75c.73.43 1.13.54 1.56.54Zm4.45.9Zm1.17 0V53.47h1.26v7.56H78.35Zm.63-9.17l-.46-.07-.41-.55.08-.69.54-.39.7.07.42.51-.08.71-.55.41Zm1.81 9.17Zm3.9.18l-1.18-.11c-.93-.41-1.3-.71-1.58-1.08l-.44-.82 1.23-.51.16.5.53.62c.55.27.89.33 1.29.33l.64-.05.63-.35.29-.55-.07-.76-.5-.45-.9-.27c-.73-.13-1.06-.21-1.38-.31l-.6-.23-.7-.54-.36-.77c0-.78.11-1.16.33-1.49l.53-.61c.83-.38 1.32-.47 1.87-.47.81 0 1.46.19 1.96.58l.8.96-1.16.74-.21-.68c-.55-.43-.93-.54-1.41-.54l-.83.1-.61.63.07.69.47.44.86.31c.89.16 1.34.28 1.75.43l.74.37c.51.6.64 1.01.64 1.55l-.12.88c-.47.7-.8.97-1.23 1.18l-.93.28Zm7.61-.18Zm1.5.07l-.46-.08-.41-.53.08-.68.54-.42.7.09.4.53-.08.68-.52.41Zm0-6.1l-.46-.08-.41-.54.08-.68.54-.41.7.08.4.54-.08.68-.52.41Zm5.52 6.03Zm.34-3.63v-.95h6.48v.95H99.66Zm0-2.31v-.93h6.48v.93H99.66Zm6.15 6.12c-1.02 0-1.9-.23-2.65-.67-.74-.47-1.31-1.1-1.71-1.91-.4-.82-.6-1.77-.6-2.85s.2-2.03.6-2.84.97-1.45 1.71-1.9 1.63-.69 2.65-.69c1.2 0 2.18.28 2.93.85s1.23 1.38 1.44 2.42h-1.4c-.16-.65-.48-1.17-.97-1.56s-1.16-.6-2-.6l-1.95.52c-.55.34-.97.84-1.27 1.49l-.45 2.31c0 .9.15 1.67.45 2.32l.72 1.14c1.1.69 1.75.86 2.5.86.84 0 1.51-.19 2-.57l.81-.91 1.56-.64-.69 1.81c-1.5 1.14-2.48 1.42-3.68 1.42Zm5.08-.18Zm2.28 0V51.94l-1.8.45v-.9l2.22-.96h.85v10.5h-1.27Zm2.39 0Zm.96 0v-.89c.71-.56 1.39-1.12 2.03-1.69l1.72-1.7c.5-.56.89-1.12 1.17-1.66l.44-1.06c0-.87-.07-1.21-.2-1.52l-.34-.58c-.57-.4-.95-.5-1.43-.5l-.86.11c-.62.4-.85.67-1.01 1.02l-.23.69-1.21.4.15-1.28c.57-.99.97-1.37 1.47-1.63l1.07-.39c1.27 0 1.82.12 2.3.36l.86.58c.55.91.69 1.5.69 2.19l-.11.98c-.41.98-.68 1.47-1.02 1.93l-.72.91c-.83.86-1.25 1.26-1.69 1.64l-.84.73 4.74.31v1.05h-6.98Zm7.44 0Zm5.88 0V58.78h-5.33v-.97l5.1-7.28h1.47v7.14h1.56v1.11h-1.56v2.25h-1.24Zm-3.93-3.36h3.99V51.93l-3.99 5.74Zm11.14 3.36Zm5.15.18c-.92 0-1.72-.23-2.39-.67l-1.51-1.91c-.35-.82-.53-1.77-.53-2.85l.53-2.84c.35-.82.85-1.45 1.51-1.9.67-.46 1.47-.69 2.39-.69s1.7.23 2.35.69c.66.45 1.17 1.08 1.52 1.9l.52 2.84c0 1.08-.17 2.03-.52 2.85l-1.52 1.91c-.65.44-1.43.67-2.35.67Zm-.02-1.11l1.14-.17c.94-.69 1.31-1.19 1.58-1.83l.4-2.32c0-.9-.13-1.67-.4-2.31l-.64-1.15c-.94-.68-1.48-.85-2.08-.85l-1.14.17c-.95.68-1.32 1.18-1.59 1.83l-.39 2.31c0 .9.13 1.67.39 2.32l.64 1.14c.95.69 1.49.86 2.09.86Zm5.12.93Zm5.15.18c-.92 0-1.72-.23-2.39-.67l-1.51-1.91c-.35-.82-.53-1.77-.53-2.85l.53-2.84c.35-.82.85-1.45 1.51-1.9.67-.46 1.47-.69 2.39-.69s1.7.23 2.35.69c.66.45 1.17 1.08 1.52 1.9l.52 2.84c0 1.08-.17 2.03-.52 2.85l-1.52 1.91c-.65.44-1.43.67-2.35.67Zm-.02-1.11l1.14-.17c.94-.69 1.31-1.19 1.58-1.83l.4-2.32c0-.9-.13-1.67-.4-2.31l-.64-1.15c-.94-.68-1.48-.85-2.08-.85l-1.14.17c-.95.68-1.32 1.18-1.59 1.83l-.39 2.31c0 .9.13 1.67.39 2.32l.64 1.14c.95.69 1.49.86 2.09.86Zm5.13.93Zm5.14.18c-.92 0-1.71-.23-2.38-.67l-1.52-1.91c-.35-.82-.52-1.77-.52-2.85l.52-2.84c.35-.82.86-1.45 1.52-1.9s1.46-.69 2.38-.69 1.71.23 2.36.69c.66.45 1.16 1.08 1.51 1.9l.53 2.84c0 1.08-.18 2.03-.53 2.85l-1.51 1.91c-.65.44-1.44.67-2.36.67Zm-.01-1.11l1.13-.17c.94-.69 1.31-1.19 1.58-1.83l.41-2.32c0-.9-.14-1.67-.41-2.31l-.64-1.15c-.94-.68-1.47-.85-2.07-.85l-1.14.17c-.95.68-1.32 1.18-1.59 1.83l-.39 2.31c0 .9.13 1.67.39 2.32l.64 1.14c.95.69 1.49.86 2.09.86Zm9.11.93Zm3.73 2.17l-1.5-1.86c-.46-.71-.83-1.51-1.11-2.4l-.4-2.9c0-1.06.13-2.03.4-2.92l1.11-2.41c.46-.72.96-1.34 1.5-1.85h1.29v.12l-1.6 2.01c-.45.74-.81 1.54-1.07 2.39l-.37 2.66c0 .92.12 1.81.37 2.66l1.08 2.37c.46.74.99 1.41 1.59 2.01v.12h-1.29Zm1.86-2.17Zm3.56-1.08V53.41h1.12v6.54h-1.12Zm-2.87-2.75V56.14h6.86V57.2h-6.86Zm7.56 3.83Zm2.28 0V51.94l-1.8.45v-.9l2.22-.96h.85v10.5h-1.27Zm2.39 0Zm.96 0v-.89c.71-.56 1.39-1.12 2.03-1.69l1.72-1.7c.5-.56.89-1.12 1.17-1.66l.44-1.06c0-.87-.07-1.21-.2-1.52l-.34-.58c-.57-.4-.95-.5-1.43-.5l-.86.11c-.62.4-.85.67-1.01 1.02l-.23.69-1.21.4.15-1.28c.57-.99.97-1.37 1.47-1.63l1.07-.39c1.27 0 1.82.12 2.3.36l.86.58c.55.91.69 1.5.69 2.19l-.11.98c-.41.98-.68 1.47-1.02 1.93l-.72.91c-.83.86-1.25 1.26-1.69 1.64l-.84.73 4.74.31v1.05h-6.98Zm7.69 0Zm2.17 0l6.11-10.5h1.26l-6.11 10.5h-1.26Zm6.62.18l-.86-.1c-.72-.41-1.01-.7-1.23-1.09l-.31-.82c0-1.03.1-1.48.31-1.85l.51-.66c.72-.42 1.13-.52 1.58-.52l.86.1c.71.42 1 .7 1.21 1.08l.31.82c0 1.03-.1 1.47-.31 1.85l-.5.68c-.72.41-1.12.51-1.57.51Zm-.02-.98l.46-.05.56-.41.32-.74-.06-.98-.4-.63-.62-.29-.69.06-.58.4-.31.75.06.97.42.64.61.28Zm-5.76-4.82l-.85-.1c-.72-.42-1.01-.71-1.23-1.09l-.32-.83c0-1.03.11-1.47.32-1.84l.51-.67c.73-.41 1.14-.52 1.59-.52l.85.11c.72.41 1.01.7 1.22 1.08l.31.81c0 1.03-.1 1.48-.31 1.86l-.5.67c-.73.42-1.14.52-1.59.52Zm0-.98l.46-.06.56-.4.3-.75-.06-.98-.4-.64-.61-.29-.68.06-.59.4-.31.77.06.97.41.63.63.29Zm12.76 6.6Zm3.23 0l-2.87-7.56h1.32l2.28 6.34 2.3-6.34h1.29l-2.87 7.56h-1.45Zm4.29 0Zm3.9.18l-1.18-.11c-.93-.41-1.3-.71-1.58-1.08l-.44-.82 1.23-.51.16.5.53.62c.55.27.89.33 1.29.33l.64-.05.63-.35.29-.55-.07-.76-.5-.45-.9-.27c-.73-.13-1.06-.21-1.38-.31l-.6-.23-.7-.54-.36-.77c0-.78.11-1.16.33-1.49l.53-.61c.83-.38 1.32-.47 1.87-.47.81 0 1.46.19 1.96.58l.8.96-1.16.74-.21-.68c-.55-.43-.93-.54-1.41-.54l-.83.1-.61.63.07.69.47.44.86.31c.89.16 1.34.28 1.75.43l.74.37c.51.6.64 1.01.64 1.55l-.12.88c-.47.7-.8.97-1.23 1.18l-.93.28Zm7.61-.18Zm1.12 0V50.53h1.47l3.71 7.33 3.72-7.33h1.48v10.5H244V52.78l-3.46 6.78h-.95l-3.45-6.75v8.22h-1.26Zm11.49 0Zm1.08-3.9V56.06h5.94v1.07h-5.94Zm7.04 3.9Zm2.28 0V51.94l-1.8.45v-.9l2.22-.96h.85v10.5h-1.27Zm2.39 0Zm1.86 2.17h-1.29v-.12l1.59-2.01c.46-.74.82-1.52 1.07-2.37l.39-2.66c0-.94-.13-1.82-.39-2.66l-1.07-2.39c-.45-.74-.98-1.41-1.59-2.01v-.12h1.29c.55.51 1.05 1.13 1.5 1.85l1.1 2.41c.28.89.42 1.86.42 2.92l-.42 2.9c-.27.89-.64 1.69-1.1 2.4l-1.5 1.86ZM0 86.03Zm2.68-3.2l-.61-.08-.77-.53c-.32-.55-.4-.86-.4-1.18l.08-.65.54-.77c.55-.32.84-.4 1.16-.4l.65.08.77.54c.32.55.4.85.4 1.2l-.08.63-.54.77c-.55.31-.85.39-1.2.39Zm6.71 3.2Zm2.28 0V76.94l-1.8.45v-.9l2.22-.96h.85v10.5H11.67Zm2.39 0Zm4.56.18l-1.29-.13c-1.08-.51-1.51-.86-1.83-1.31l-.48-.99c0-1.03.09-1.43.26-1.8l.4-.69c.61-.55.97-.74 1.37-.85l-1-.51c-.61-.85-.76-1.3-.76-1.79l.14-.99c.54-.84.92-1.18 1.41-1.43l1.09-.37c1.39 0 1.99.12 2.48.37l.88.59c.53.84.66 1.31.66 1.83l-.15.94c-.61.85-1.04 1.15-1.6 1.36l.76.3c.61.55.85.87 1.01 1.24l.25.77c0 1.03-.16 1.56-.48 2.02l-.74.8c-1.09.51-1.7.64-2.38.64Zm0-1.11L20 84.92c.77-.73.96-1.22.96-1.82l-.21-1.19c-.85-.7-1.42-.87-2.13-.87l-1.28.17c-.85.7-1.06 1.22-1.06 1.89l.2 1.09c.78.73 1.36.91 2.14.91Zm0-5.12l1.13-.16c.74-.66.93-1.09.93-1.61l-.19-1.03c-.73-.6-1.23-.75-1.87-.75l-1.13.15c-.73.6-.91 1.04-.91 1.63l.18.95c.73.66 1.23.82 1.86.82Zm8.55 6.05Zm1.47 0V77.3c0-.48.08-.87.24-1.17l.4-.54c.63-.28 1.02-.36 1.48-.36h.85v1.08h-.66l-.64.07-.41.57v9.08H28.64Zm-1.15-6.49V78.47h4.32v1.07H27.49Zm4.49 6.49Zm3.51.18l-1.12-.11c-.82-.42-1.13-.71-1.33-1.06l-.3-.75c0-.93.13-1.36.39-1.71l.65-.63c.97-.37 1.54-.47 2.2-.47h2c0-.47-.08-.86-.23-1.17l-.35-.56-.89-.4c-.89 0-1.3.12-1.65.36l-.57.6-1.37.47.24-.99c.61-.73 1-1.01 1.47-1.2l.96-.3c1.21 0 1.79.13 2.25.39l.82.61c.46.9.58 1.44.58 2.06v4.68H38.11l-.07-1.34-.23.41-.49.53-.66.38-.83.2Zm.19-1.07l.67-.07.81-.49c.4-.51.55-.79.65-1.1l.17-.64v-.38H36.09c-.49 0-.89.06-1.19.18l-.51.27-.33.64.06.76.44.56.78.27Zm4.46.89Zm4.45.18l-1.35-.16c-1.13-.67-1.57-1.12-1.89-1.72l-.48-2.07c0-.8.16-1.49.48-2.08l.76-1.05c1.13-.67 1.77-.84 2.48-.84.9 0 1.65.23 2.25.7.6.46.98 1.08 1.14 1.86H46.69c-.1-.47-.34-.83-.73-1.09l-.85-.39c-.96 0-1.36.11-1.73.33l-.67.53c-.44.86-.55 1.39-.55 2.02l.07.89c.26.73.43 1.03.65 1.27l.48.42.9.31c.68 0 1-.05 1.29-.16l.54-.29.53-.74 1.36-.31-.54 1.38c-1.21.95-1.96 1.19-2.85 1.19Zm3.93-.18Zm4.02 0l-.84-.07c-.66-.28-.92-.52-1.1-.85l-.25-.79V79.54H49.03V78.47h1.32l.16-1.83h1.1v1.83H53.8v1.07H51.61v4.21c0 .47.09.79.28.96l.53.24h1.29v1.08H52.54Zm1.85 0Zm3.79.18l-1.09-.12c-.87-.46-1.2-.81-1.44-1.29l-.35-1.08V78.47h1.26v4.39c0 .75.17 1.32.5 1.7l.79.57c1.02 0 1.4-.1 1.74-.3l.61-.51c.39-.76.49-1.24.49-1.8V78.47h1.26v7.56H60.81l-.08-1.32-.57.84c-.9.53-1.41.66-1.98.66Zm4.81-.18Zm1.05 0V78.47h1.14l.09 1.44.38-.63c.53-.48.85-.67 1.22-.8l.81-.19.48 1.32H67.7l-.63.05-.84.3c-.45.38-.62.64-.75.97l-.18.72v4.38H64.04Zm4.22 0Zm4.37.18l-1.34-.16c-1.09-.67-1.52-1.12-1.83-1.72L69 82.25c0-.8.15-1.5.45-2.08l.74-1.06c1.11-.66 1.75-.82 2.47-.82l1.36.16c1.03.66 1.43 1.1 1.7 1.64l.42 1.11c0 .74 0 .85 0 .96l-.01.23-6.19.15v-.98h4.97c-.03-.69-.26-1.23-.69-1.62l-.95-.59c-1.07 0-1.47.1-1.84.31l-.65.47c-.44.75-.55 1.21-.55 1.78v.41l.11 1.14c.45.85.74 1.16 1.1 1.37l.77.31c.95 0 1.38-.11 1.72-.34l.6-.56 1.4-.4-.33.85c-.6.73-.98 1.01-1.43 1.22l-.95.3Zm4.16-.18Zm3.9.18l-1.18-.11c-.93-.41-1.3-.71-1.58-1.08l-.44-.82 1.23-.51.16.5.53.62c.55.27.89.33 1.29.33l.64-.05.63-.35.29-.55-.07-.76-.5-.45-.9-.27c-.73-.13-1.06-.21-1.38-.31l-.6-.23-.7-.54-.36-.77c0-.78.11-1.16.33-1.49l.53-.61c.83-.38 1.32-.47 1.87-.47.81 0 1.46.19 1.96.58l.8.96-1.16.74-.21-.68c-.55-.43-.93-.54-1.41-.54l-.83.1-.61.63.07.69.47.44.86.31c.89.16 1.34.28 1.75.43l.74.37c.51.6.64 1.01.64 1.55l-.12.88c-.47.7-.8.97-1.23 1.18l-.93.28Zm7.61-.18Zm1.17 0V78.47h1.26v7.56H89.47Zm.63-9.17l-.46-.07-.41-.55.08-.69.54-.39.7.07.42.51-.08.71-.55.41Zm1.8 9.17Zm1.05 0V78.47h1.14l.08 1.08.56-.7c.81-.44 1.25-.56 1.73-.56l.74.05.91.37c.48.43.68.71.83 1.03l.61-.81c.91-.51 1.4-.64 1.92-.64l1.09.12c.87.47 1.2.82 1.43 1.3l.36 1.08v5.24h-1.24V81.65c0-.76-.16-1.33-.47-1.71l-.74-.57c-.95 0-1.3.1-1.61.32l-.56.49c-.36.78-.45 1.26-.45 1.83v4.02H98.02V81.65c0-.76-.15-1.33-.46-1.71l-.75-.57c-.95 0-1.3.1-1.61.32l-.54.49c-.36.78-.45 1.26-.45 1.83v4.02H92.95Zm12.31 0Zm1.05 3.3V78.47h1.14l.11 1.23.36-.47.8-.6c.7-.27 1.1-.34 1.55-.34l1.38.17c1.09.71 1.52 1.18 1.82 1.78l.46 2.02c0 .76-.15 1.44-.46 2.05l-.73 1.05c-1.1.68-1.74.85-2.48.85l-1.15-.13c-.93-.5-1.29-.85-1.54-1.29v4.54h-1.26Zm3.81-4.22l.93-.12c.76-.48 1.05-.8 1.26-1.23l.33-.93c0-1.15-.11-1.65-.33-2.08l-.5-.77c-.76-.48-1.2-.6-1.69-.6l-.94.12c-.76.48-1.05.82-1.26 1.25l-.32.93c0 1.15.11 1.65.32 2.08l.5.75c.76.48 1.2.6 1.7.6Zm4.53.92Zm3.51.18l-1.12-.11c-.82-.42-1.12-.71-1.32-1.06l-.3-.75c0-.93.13-1.36.39-1.71l.64-.63c.97-.37 1.55-.47 2.21-.47h1.99c0-.47-.07-.86-.22-1.17l-.35-.56-.89-.4c-.89 0-1.31.12-1.66.36l-.56.6-1.37.47.24-.99c.61-.73 1-1.01 1.47-1.2l.96-.3c1.21 0 1.79.13 2.25.39l.82.61c.46.9.57 1.44.57 2.06v4.68h-1.12l-.08-1.34-.23.41-.49.53-.66.38-.83.2Zm.2-1.07l.66-.07.82-.49c.4-.51.55-.79.65-1.1l.16-.64v-.38h-1.89c-.49 0-.88.06-1.18.18l-.52.27-.32.64.06.76.43.56.79.27Zm4.23.89Zm1.88 3.3l1.84-4.14h-.43l-2.97-6.72h1.36l2.46 5.77 2.58-5.77h1.31l-4.83 10.86h-1.32Zm5.75-3.3Zm4.37.18l-1.34-.16c-1.09-.67-1.52-1.12-1.83-1.72l-.46-2.08c0-.8.15-1.5.45-2.08l.74-1.06c1.11-.66 1.75-.82 2.47-.82l1.36.16c1.03.66 1.43 1.1 1.7 1.64l.42 1.11c0 .74 0 .85 0 .96l-.01.23-6.19.15v-.98h4.97c-.03-.69-.26-1.23-.69-1.62l-.95-.59c-1.07 0-1.47.1-1.84.31l-.65.47c-.44.75-.55 1.21-.55 1.78v.41l.11 1.14c.45.85.74 1.16 1.1 1.37l.77.31c.95 0 1.38-.11 1.72-.34l.6-.56 1.4-.4-.33.85c-.6.73-.98 1.01-1.43 1.22l-.95.3Zm-1.5-8.39l-.14-.89L135.97 75l.18 1.08-3.06 1.74Zm5.66 8.21Zm4.36.18l-1.33-.16c-1.1-.67-1.52-1.12-1.83-1.72l-.47-2.08c0-.8.16-1.5.45-2.08l.74-1.06c1.12-.66 1.75-.82 2.48-.82l1.36.16c1.03.66 1.42 1.1 1.7 1.64l.42 1.11c0 .74 0 .85 0 .96l-.01.23-6.19.15v-.98h4.97c-.04-.69-.26-1.23-.69-1.62l-.95-.59c-1.08 0-1.47.1-1.85.31l-.64.47c-.44.75-.56 1.21-.56 1.78v.41l.12 1.14c.45.85.74 1.16 1.1 1.37l.77.31c.95 0 1.38-.11 1.72-.34l.6-.56 1.39-.4-.32.85c-.61.73-.98 1.01-1.43 1.22l-.95.3Zm4.17-.18Zm3.9.18L150 86.1c-.93-.41-1.3-.71-1.58-1.08l-.44-.82 1.23-.51.16.5.53.62c.55.27.89.33 1.29.33l.64-.05.63-.35.29-.55-.07-.76-.5-.45-.9-.27c-.73-.13-1.06-.21-1.38-.31l-.6-.23-.7-.54-.36-.77c0-.78.11-1.16.33-1.49l.53-.61c.83-.38 1.32-.47 1.87-.47.81 0 1.46.19 1.96.58l.8.96-1.16.74-.21-.68c-.55-.43-.93-.54-1.41-.54l-.83.1-.61.63.07.69.47.44.86.31c.89.16 1.34.28 1.75.43l.74.37c.51.6.64 1.01.64 1.55l-.12.88c-.47.7-.8.97-1.23 1.18l-.93.28Zm7.61-.18Zm1.05 3.3V78.47h1.14l.1 1.23.37-.47.8-.6c.7-.27 1.1-.34 1.55-.34l1.38.17c1.09.71 1.51 1.18 1.81 1.78l.47 2.02c0 .76-.16 1.44-.47 2.05l-.72 1.05c-1.1.68-1.75.85-2.49.85l-1.15-.13c-.93-.5-1.28-.85-1.53-1.29v4.54h-1.26Zm3.81-4.22l.92-.12c.76-.48 1.06-.8 1.27-1.23l.33-.93c0-1.15-.11-1.65-.33-2.08l-.51-.77c-.76-.48-1.19-.6-1.68-.6l-.94.12c-.76.48-1.06.82-1.27 1.25l-.31.93c0 1.15.1 1.65.31 2.08l.51.75c.76.48 1.2.6 1.7.6Zm4.53.92Zm4.42.18l-1.33-.16c-1.12-.65-1.56-1.11-1.88-1.7l-.48-2.09c0-.81.16-1.51.48-2.09l.78-1.07c1.13-.65 1.76-.81 2.46-.81l1.36.16c1.11.65 1.55 1.11 1.87 1.72l.49 2.08c0 .8-.16 1.5-.49 2.1l-.78 1.05c-1.12.65-1.76.81-2.48.81Zm.02-1.08l.83-.11c.74-.43 1.04-.75 1.27-1.18l.34-.96c0-1.27-.11-1.8-.34-2.22l-.52-.75c-.73-.43-1.13-.54-1.57-.54l-.82.11c-.75.43-1.05.75-1.28 1.18l-.33.95c0 1.27.11 1.8.33 2.23l.53.75c.73.43 1.13.54 1.56.54Zm4.45.9Zm3.8.18l-1.09-.12c-.87-.46-1.21-.81-1.45-1.29l-.34-1.08V78.47h1.26v4.39c0 .75.16 1.32.49 1.7l.8.57c1.02 0 1.4-.1 1.74-.3l.6-.51c.39-.76.49-1.24.49-1.8V78.47h1.26v7.56h-1.14l-.07-1.32-.57.84c-.9.53-1.41.66-1.98.66Zm4.8-.18Zm1.05 0V78.47h1.14l.09 1.44.38-.63c.53-.48.85-.67 1.22-.8l.81-.19.48 1.32h-.46l-.63.05-.84.3c-.45.38-.62.64-.75.97l-.18.72v4.38h-1.26Zm8.49 0Zm3.79.18l-1.09-.12c-.87-.46-1.2-.81-1.44-1.29l-.35-1.08V78.47h1.26v4.39c0 .75.17 1.32.5 1.7l.79.57c1.02 0 1.4-.1 1.74-.3l.61-.51c.39-.76.49-1.24.49-1.8V78.47h1.26v7.56h-1.14l-.08-1.32-.57.84c-.9.53-1.41.66-1.98.66Zm4.8-.18Zm1.05 0V78.47h1.14l.06 1.32.58-.84c.89-.52 1.4-.66 1.97-.66l1.1.12c.86.47 1.2.82 1.44 1.3l.36 1.08v5.24h-1.26V81.65c0-.76-.17-1.33-.51-1.71l-.8-.57c-1.03 0-1.41.1-1.74.32l-.59.49c-.39.77-.49 1.25-.49 1.81v4.04h-1.26Zm11.55 0Zm4.02 0l-.84-.07c-.66-.28-.91-.52-1.09-.85l-.26-.79V79.54h-1.32V78.47h1.32l.17-1.83h1.09v1.83h2.19v1.07h-2.19v4.21c0 .47.1.79.29.96l.52.24h1.29v1.08h-1.17Zm1.65 0Zm4.43.18l-1.33-.16c-1.12-.65-1.56-1.11-1.88-1.7l-.48-2.09c0-.81.16-1.51.48-2.09l.77-1.07c1.13-.65 1.77-.81 2.47-.81l1.35.16c1.11.65 1.55 1.11 1.87 1.72l.5 2.08c0 .8-.17 1.5-.5 2.1l-.77 1.05c-1.12.65-1.76.81-2.48.81Zm.01-1.08l.83-.11c.74-.43 1.04-.75 1.27-1.18l.35-.96c0-1.27-.12-1.8-.35-2.22l-.51-.75c-.73-.43-1.13-.54-1.57-.54l-.82.11c-.75.43-1.05.75-1.28 1.18l-.33.95c0 1.27.11 1.8.33 2.23l.52.75c.73.43 1.13.54 1.56.54Zm4.16.9Zm4.02 0l-.84-.07c-.66-.28-.92-.52-1.1-.85l-.25-.79V79.54h-1.32V78.47h1.32l.16-1.83h1.1v1.83h2.19v1.07h-2.19v4.21c0 .47.09.79.28.96l.53.24h1.29v1.08h-1.17Zm1.85 0Zm3.51.18l-1.12-.11c-.82-.42-1.12-.71-1.32-1.06l-.3-.75c0-.93.13-1.36.39-1.71l.64-.63c.97-.37 1.55-.47 2.21-.47h1.99c0-.47-.07-.86-.22-1.17l-.35-.56-.89-.4c-.89 0-1.31.12-1.66.36l-.56.6-1.37.47.24-.99c.61-.73 1-1.01 1.47-1.2l.96-.3c1.21 0 1.79.13 2.25.39l.82.61c.46.9.57 1.44.57 2.06v4.68h-1.12l-.08-1.34-.23.41-.49.53-.66.38-.83.2Zm.2-1.07l.66-.07.82-.49c.4-.51.55-.79.65-1.1l.16-.64v-.38h-1.89c-.49 0-.88.06-1.18.18l-.52.27-.32.64.06.76.43.56.79.27Zm4.45.89Zm1.05 0V75.23h1.26v10.8h-1.26Zm6.28 0Zm4.38.18l-1.37-.17c-1.1-.69-1.53-1.17-1.83-1.77l-.45-2.04c0-.76.15-1.43.45-2.02l.73-1.07c1.11-.68 1.75-.85 2.48-.85l1.16.13c.93.5 1.29.84 1.54 1.29V75.23h1.26v10.8h-1.14l-.1-1.24-.37.48-.8.6c-.7.27-1.1.34-1.56.34Zm.15-1.1l.94-.12c.76-.48 1.05-.8 1.26-1.23l.32-.93c0-1.15-.11-1.65-.32-2.08l-.5-.77c-.76-.48-1.2-.6-1.7-.6l-.93.12c-.76.48-1.05.82-1.26 1.25l-.32.93c0 1.15.11 1.65.32 2.08l.5.75c.76.48 1.2.6 1.69.6Zm4.87.92Zm4.37.18l-1.34-.16c-1.09-.67-1.52-1.12-1.83-1.72l-.46-2.08c0-.8.15-1.5.45-2.08l.74-1.06c1.11-.66 1.75-.82 2.47-.82l1.36.16c1.03.66 1.43 1.1 1.7 1.64l.42 1.11c0 .74 0 .85 0 .96l-.01.23-6.19.15v-.98h4.97c-.03-.69-.26-1.23-.69-1.62l-.95-.59c-1.07 0-1.47.1-1.84.31l-.65.47c-.44.75-.55 1.21-.55 1.78v.41l.11 1.14c.45.85.74 1.16 1.1 1.37l.77.31c.95 0 1.38-.11 1.72-.34l.6-.56 1.4-.4-.33.85c-.6.73-.98 1.01-1.43 1.22l-.95.3Zm8.14-.18Zm.35-3.63v-.95h6.48v.95h-6.48Zm0-2.31v-.93h6.48v.93h-6.48Zm6.15 6.12c-1.02 0-1.91-.23-2.66-.67-.74-.47-1.31-1.1-1.71-1.91-.4-.82-.6-1.77-.6-2.85s.2-2.03.6-2.84.97-1.45 1.71-1.9 1.64-.69 2.66-.69c1.2 0 2.17.28 2.92.85s1.23 1.38 1.44 2.42h-1.39c-.16-.65-.49-1.17-.98-1.56s-1.15-.6-1.99-.6l-1.95.52c-.55.34-.98.84-1.28 1.49l-.45 2.31c0 .9.15 1.67.45 2.32l.73 1.14c1.1.69 1.75.86 2.5.86.84 0 1.5-.19 1.99-.57l.82-.91 1.55-.64-.69 1.81c-1.5 1.14-2.47 1.42-3.67 1.42Zm5.07-.18Zm4.4.18l-1.28-.12c-1.09-.49-1.52-.86-1.84-1.35l-.49-1.1 1.25-.73.11.77c.37.67.64.93.99 1.13l.77.3c.98 0 1.39-.09 1.72-.28l.58-.44c.34-.63.42-.98.42-1.38l-.12-.88c-.47-.61-.78-.83-1.18-.97l-.82-.23h-1.25V79.86h.78c.69 0 1.23-.16 1.62-.48l.58-.76c0-1.02-.15-1.4-.46-1.71l-.76-.47c-1.21 0-1.68.17-2.03.51l-.55.78-1.33.53.19-1.07c.56-.88.94-1.23 1.42-1.47l1.04-.37c1.33 0 1.9.12 2.36.36l.81.56c.47.8.59 1.24.59 1.72l-.07.7-.45.9c-.52.48-.85.65-1.25.75l.77.24c.65.46.91.76 1.1 1.13l.29.8c0 1.07-.14 1.6-.41 2.09l-.65.87c-1.04.59-1.68.74-2.45.74Zm4.47-.18Zm4.55.18l-1.28-.13c-1.08-.51-1.51-.86-1.83-1.31l-.49-.99c0-1.03.09-1.43.26-1.8l.4-.69c.61-.55.97-.74 1.37-.85l-1-.51c-.6-.85-.76-1.3-.76-1.79l.14-.99c.54-.84.92-1.18 1.41-1.43l1.09-.37c1.4 0 1.99.12 2.48.37l.88.59c.53.84.67 1.31.67 1.83l-.16.94c-.61.85-1.04 1.15-1.6 1.36l.77.3c.61.55.84.87 1 1.24l.26.77c0 1.03-.16 1.56-.49 2.02l-.73.8c-1.1.51-1.71.64-2.39.64Zm0-1.11l1.38-.18c.77-.73.97-1.22.97-1.82l-.22-1.19c-.85-.7-1.41-.87-2.13-.87l-1.27.17c-.86.7-1.07 1.22-1.07 1.89l.2 1.09c.78.73 1.37.91 2.14.91Zm0-5.12l1.14-.16c.73-.66.92-1.09.92-1.61l-.19-1.03c-.73-.6-1.23-.75-1.87-.75l-1.13.15c-.73.6-.9 1.04-.9 1.63l.17.95c.73.66 1.23.82 1.86.82Zm8.56 6.05Zm5.88 0V83.78h-5.33v-.97l5.1-7.28h1.47v7.14h1.56v1.11h-1.56v2.25h-1.24Zm-3.93-3.36h3.99V76.93l-3.99 5.74Zm7.16 3.36Zm5.14.18c-.92 0-1.71-.23-2.38-.67l-1.52-1.91c-.35-.82-.52-1.77-.52-2.85l.52-2.84c.35-.82.86-1.45 1.52-1.9.67-.46 1.46-.69 2.38-.69s1.71.23 2.36.69c.66.45 1.16 1.08 1.51 1.9l.53 2.84c0 1.08-.18 2.03-.53 2.85l-1.51 1.91c-.65.44-1.44.67-2.36.67Zm-.01-1.11l1.13-.17c.94-.69 1.31-1.19 1.58-1.83l.41-2.32c0-.9-.14-1.67-.41-2.31l-.64-1.15c-.94-.68-1.47-.85-2.07-.85l-1.14.17c-.95.68-1.32 1.18-1.59 1.83l-.39 2.31c0 .9.13 1.67.39 2.32l.64 1.14c.95.69 1.49.86 2.09.86Zm5.12.93Zm5.15.18c-.92 0-1.72-.23-2.39-.67l-1.51-1.91c-.35-.82-.53-1.77-.53-2.85l.53-2.84c.35-.82.85-1.45 1.51-1.9.67-.46 1.47-.69 2.39-.69s1.7.23 2.35.69c.66.45 1.17 1.08 1.52 1.9l.52 2.84c0 1.08-.17 2.03-.52 2.85l-1.52 1.91c-.65.44-1.43.67-2.35.67Zm-.02-1.11l1.14-.17c.94-.69 1.31-1.19 1.58-1.83l.4-2.32c0-.9-.13-1.67-.4-2.31l-.64-1.15c-.94-.68-1.48-.85-2.08-.85l-1.14.17c-.95.68-1.32 1.18-1.59 1.83l-.39 2.31c0 .9.13 1.67.39 2.32l.64 1.14c.95.69 1.49.86 2.09.86ZM0 111.03Zm2.68-3.2l-.61-.08-.77-.53c-.32-.55-.4-.86-.4-1.18l.08-.65.54-.77c.55-.32.84-.4 1.16-.4l.65.08.77.54c.32.55.4.85.4 1.2l-.08.63-.54.77c-.55.31-.85.39-1.2.39Zm6.71 3.2Zm3.58 0v-9.47H9.84v-1.03h7.53v1.03H14.23v9.47H12.97Zm3.98 0Zm1.05 0v-7.56h1.14l.09 1.44.38-.63c.53-.48.85-.67 1.22-.8l.81-.19.48 1.32h-.46l-.63.05-.84.3c-.45.38-.62.64-.75.97l-.18.72v4.38H18Zm4.22 0Zm4.37.18l-1.34-.16c-1.09-.67-1.52-1.12-1.83-1.72l-.46-2.08c0-.8.15-1.5.45-2.08l.74-1.06c1.11-.66 1.75-.82 2.47-.82l1.36.16c1.03.66 1.43 1.1 1.7 1.64l.42 1.11c0 .74 0 .85 0 .96l-.01.23-6.19.15v-.98h4.97c-.03-.69-.26-1.23-.69-1.62l-.95-.59c-1.07 0-1.47.1-1.84.31l-.65.47c-.44.75-.55 1.21-.55 1.78v.41l.11 1.14c.45.85.74 1.16 1.1 1.37l.77.31c.95 0 1.38-.11 1.72-.34l.6-.56 1.4-.4-.33.85c-.6.73-.98 1.01-1.43 1.22l-.95.3Zm-1.5-8.39l-.14-.89L27.97 100l.18 1.08-3.06 1.74Zm5.66 8.21Zm3.9.18l-1.18-.11c-.93-.41-1.3-.71-1.58-1.08l-.44-.82 1.23-.51.16.5.53.62c.55.27.89.33 1.29.33l.64-.05.63-.35.29-.55-.07-.76-.5-.45-.9-.27c-.73-.13-1.06-.21-1.38-.31l-.6-.23-.7-.54-.36-.77c0-.78.11-1.16.33-1.49l.53-.61c.83-.38 1.32-.47 1.87-.47.81 0 1.46.19 1.96.58l.8.96-1.16.74-.21-.68c-.55-.43-.93-.54-1.41-.54l-.83.1-.61.63.07.69.47.44.86.31c.89.16 1.34.28 1.75.43l.74.37c.51.6.64 1.01.64 1.55l-.12.88c-.47.7-.8.97-1.23 1.18l-.93.28Zm3.63-.18Zm4.42.18l-1.33-.16c-1.12-.65-1.56-1.11-1.88-1.7l-.48-2.09c0-.81.16-1.51.48-2.09l.78-1.07c1.13-.65 1.76-.81 2.46-.81l1.36.16c1.11.65 1.55 1.11 1.87 1.72l.49 2.08c0 .8-.16 1.5-.49 2.1l-.78 1.05c-1.12.65-1.76.81-2.48.81Zm.02-1.08l.83-.11c.74-.43 1.04-.75 1.27-1.18l.34-.96c0-1.27-.11-1.8-.34-2.22l-.52-.75c-.73-.43-1.13-.54-1.57-.54l-.82.11c-.75.43-1.05.75-1.28 1.18l-.33.95c0 1.27.11 1.8.33 2.23l.53.75c.73.43 1.13.54 1.56.54Zm4.45.9Zm1.05 0v-7.56h1.14l.09 1.44.38-.63c.53-.48.85-.67 1.22-.8l.81-.19.48 1.32h-.46l-.63.05-.84.3c-.45.38-.62.64-.75.97l-.18.72v4.38H48.22Zm4.22 0Zm4.37.18l-1.34-.16c-1.09-.67-1.52-1.12-1.83-1.72l-.46-2.08c0-.8.15-1.5.45-2.08l.74-1.06c1.11-.66 1.75-.82 2.47-.82l1.36.16c1.03.66 1.43 1.1 1.7 1.64l.42 1.11c0 .74 0 .85 0 .96l-.01.23-6.19.15v-.98h4.97c-.03-.69-.26-1.23-.69-1.62l-.95-.59c-1.07 0-1.47.1-1.84.31l-.65.47c-.44.75-.55 1.21-.55 1.78v.41l.11 1.14c.45.85.74 1.16 1.1 1.37l.77.31c.95 0 1.38-.11 1.72-.34l.6-.56 1.4-.4-.33.85c-.6.73-.98 1.01-1.43 1.22l-.95.3Zm4.16-.18Zm1.05 0v-7.56h1.14l.09 1.44.38-.63c.53-.48.85-.67 1.22-.8l.81-.19.48 1.32h-.46l-.63.05-.84.3c-.45.38-.62.64-.75.97l-.18.72v4.38H62.02Zm4.5 0Zm1.17 0v-7.56h1.26v7.56H67.69Zm.63-9.17l-.46-.07-.41-.55.08-.69.54-.39.69.07.43.51-.09.71-.54.41Zm1.8 9.17Zm4.37.18l-1.34-.16c-1.09-.67-1.52-1.12-1.83-1.72l-.46-2.08c0-.8.15-1.5.45-2.08l.74-1.06c1.11-.66 1.75-.82 2.47-.82l1.36.16c1.03.66 1.43 1.1 1.7 1.64L78 106.2c0 .74 0 .85 0 .96l-.01.23-6.19.15v-.98h4.97c-.03-.69-.26-1.23-.69-1.62l-.95-.59c-1.07 0-1.47.1-1.84.31l-.65.47c-.44.75-.55 1.21-.55 1.78v.41l.11 1.14c.45.85.74 1.16 1.1 1.37l.77.31c.95 0 1.38-.11 1.72-.34l.6-.56 1.4-.4-.33.85c-.6.73-.98 1.01-1.43 1.22l-.95.3Zm8.14-.18Zm1.5.07l-.46-.08-.41-.53.08-.68.54-.42.71.09.4.53-.08.68-.53.41Zm0-6.1l-.46-.08-.41-.54.08-.68.54-.41.71.08.4.54-.08.68-.53.41Zm5.52 6.03Zm.34-3.63v-.95h6.48v.95H89.99Zm0-2.31v-.93h6.48v.93H89.99Zm6.15 6.12c-1.02 0-1.9-.23-2.65-.67-.74-.47-1.31-1.1-1.71-1.91-.4-.82-.6-1.77-.6-2.85s.2-2.03.6-2.84.97-1.45 1.71-1.9 1.63-.69 2.65-.69c1.2 0 2.18.28 2.93.85s1.23 1.38 1.44 2.42h-1.4c-.16-.65-.48-1.17-.97-1.56s-1.16-.6-2-.6l-1.95.52c-.55.34-.97.84-1.27 1.49l-.45 2.31c0 .9.15 1.67.45 2.32l.72 1.14c1.1.69 1.75.86 2.5.86.84 0 1.51-.19 2-.57l.81-.91 1.56-.64-.69 1.81c-1.5 1.14-2.48 1.42-3.68 1.42Zm5.08-.18Zm5.88 0v-2.25h-5.32v-.97l5.1-7.28h1.47v7.14h1.56v1.11h-1.56v2.25H107.1Zm-3.93-3.36h3.99v-5.74l-3.99 5.74Zm7.16 3.36Zm4.4.18l-1.28-.12c-1.09-.49-1.52-.86-1.84-1.35l-.49-1.1 1.25-.73.11.77c.37.67.64.93.99 1.13l.77.3c.98 0 1.39-.09 1.72-.28l.58-.44c.34-.63.42-.98.42-1.38l-.12-.88c-.47-.61-.78-.83-1.18-.97l-.82-.23h-1.25v-1.07h.78c.69 0 1.23-.16 1.62-.48l.58-.76c0-1.02-.15-1.4-.46-1.71l-.76-.47c-1.21 0-1.68.17-2.03.51l-.55.78-1.33.53.19-1.07c.56-.88.94-1.23 1.42-1.47l1.04-.37c1.33 0 1.9.12 2.36.36l.81.56c.47.8.59 1.24.59 1.72l-.07.7-.45.9c-.52.48-.85.65-1.25.75l.77.24c.65.46.91.76 1.1 1.13l.29.8c0 1.07-.14 1.6-.41 2.09l-.65.87c-1.04.59-1.68.74-2.45.74Zm8.45-.18Zm5.14.18c-.92 0-1.71-.23-2.38-.67l-1.52-1.91c-.35-.82-.52-1.77-.52-2.85l.52-2.84c.35-.82.86-1.45 1.52-1.9s1.46-.69 2.38-.69 1.71.23 2.36.69c.66.45 1.16 1.08 1.51 1.9l.53 2.84c0 1.08-.18 2.03-.53 2.85l-1.51 1.91c-.65.44-1.44.67-2.36.67Zm-.01-1.11l1.13-.17c.94-.69 1.31-1.19 1.58-1.83l.41-2.32c0-.9-.14-1.67-.41-2.31l-.64-1.15c-.94-.68-1.47-.85-2.07-.85l-1.14.17c-.95.68-1.32 1.18-1.59 1.83l-.39 2.31c0 .9.13 1.67.39 2.32l.64 1.14c.95.69 1.49.86 2.09.86Zm5.12.93Zm5.15.18c-.92 0-1.72-.23-2.39-.67l-1.51-1.91c-.35-.82-.53-1.77-.53-2.85l.53-2.84c.35-.82.85-1.45 1.51-1.9s1.47-.69 2.39-.69 1.7.23 2.35.69c.66.45 1.17 1.08 1.52 1.9l.52 2.84c0 1.08-.17 2.03-.52 2.85l-1.52 1.91c-.65.44-1.43.67-2.35.67Zm-.02-1.11l1.14-.17c.94-.69 1.31-1.19 1.58-1.83l.4-2.32c0-.9-.13-1.67-.4-2.31l-.64-1.15c-.94-.68-1.48-.85-2.08-.85l-1.14.17c-.95.68-1.32 1.18-1.59 1.83l-.39 2.31c0 .9.13 1.67.39 2.32l.64 1.14c.95.69 1.49.86 2.09.86Zm5.13.93Zm5.14.18c-.92 0-1.71-.23-2.38-.67l-1.52-1.91c-.35-.82-.52-1.77-.52-2.85l.52-2.84c.35-.82.86-1.45 1.52-1.9s1.46-.69 2.38-.69 1.71.23 2.36.69 1.16 1.08 1.51 1.9l.53 2.84c0 1.08-.18 2.03-.53 2.85l-1.51 1.91c-.65.44-1.44.67-2.36.67Zm-.01-1.11l1.13-.17c.94-.69 1.31-1.19 1.58-1.83l.41-2.32c0-.9-.14-1.67-.41-2.31l-.64-1.15c-.94-.68-1.47-.85-2.07-.85l-1.14.17c-.95.68-1.32 1.18-1.59 1.83l-.39 2.31c0 .9.13 1.67.39 2.32l.64 1.14c.95.69 1.49.86 2.09.86Zm9.1.93Zm1.08-3.9v-1.07h10.92v1.07H159Zm16 3.9Zm1.05 3.3V103.47h1.14l.11 1.23.36-.47.8-.6c.7-.27 1.1-.34 1.55-.34l1.38.17c1.09.71 1.52 1.18 1.82 1.78l.46 2.02c0 .76-.15 1.44-.46 2.05l-.73 1.05c-1.1.68-1.74.85-2.48.85l-1.15-.13c-.93-.5-1.29-.85-1.54-1.29v4.54h-1.26Zm3.81-4.22l.93-.12c.76-.48 1.05-.8 1.26-1.23l.33-.93c0-1.15-.11-1.65-.33-2.08l-.5-.77c-.76-.48-1.2-.6-1.69-.6l-.94.12c-.76.48-1.05.82-1.26 1.25l-.32.93c0 1.15.11 1.65.32 2.08l.5.75c.76.48 1.2.6 1.7.6Zm4.53.92Zm1.05 0v-7.56h1.14l.09 1.44.39-.63c.53-.48.85-.67 1.22-.8l.81-.19.48 1.32h-.47l-.62.05-.84.3c-.45.38-.63.64-.76.97l-.18.72v4.38h-1.26Zm4.23 0Zm4.36.18l-1.34-.16c-1.09-.67-1.51-1.12-1.82-1.72l-.47-2.08c0-.8.15-1.5.45-2.08l.74-1.06c1.11-.66 1.75-.82 2.47-.82l1.37.16c1.03.66 1.42 1.1 1.69 1.64l.42 1.11c0 .74 0 .85 0 .96v.23l-6.19.15v-.98h4.96c-.03-.69-.26-1.23-.69-1.62l-.95-.59c-1.07 0-1.47.1-1.84.31l-.65.47c-.44.75-.55 1.21-.55 1.78v.41l.11 1.14c.45.85.75 1.16 1.11 1.37l.76.31c.95 0 1.39-.11 1.73-.34l.6-.56 1.39-.4-.33.85c-.6.73-.97 1.01-1.42 1.22l-.96.3Zm-1.5-8.39l-.13-.89 3.01-1.93.18 1.08-3.06 1.74Zm5.37 8.21Zm3.23 0l-2.87-7.56h1.32l2.28 6.34 2.3-6.34h1.29l-2.87 7.56h-1.45Zm4.68 0Zm1.17 0v-7.56h1.26v7.56h-1.26Zm.63-9.17l-.46-.07-.41-.55.08-.69.54-.39.7.07.42.51-.08.71-.55.41Zm1.8 9.17Zm3.9.18l-1.18-.11c-.93-.41-1.3-.71-1.58-1.08l-.43-.82 1.23-.51.15.5.54.62c.55.27.89.33 1.29.33l.64-.05.63-.35.29-.55-.08-.76-.5-.45-.9-.27c-.73-.13-1.05-.21-1.37-.31l-.61-.23-.7-.54-.36-.77c0-.78.11-1.16.33-1.49l.54-.61c.83-.38 1.31-.47 1.86-.47.81 0 1.47.19 1.97.58l.79.96-1.15.74-.22-.68c-.55-.43-.92-.54-1.4-.54l-.83.1-.61.63.06.69.47.44.86.31c.89.16 1.35.28 1.76.43l.74.37c.51.6.64 1.01.64 1.55l-.12.88c-.47.7-.8.97-1.23 1.18l-.94.28Zm3.63-.18Zm1.17 0v-7.56h1.26v7.56h-1.26Zm.63-9.17l-.46-.07-.41-.55.08-.69.54-.39.7.07.42.51-.08.71-.55.41Zm1.81 9.17Zm4.42.18l-1.33-.16c-1.12-.65-1.56-1.11-1.88-1.7l-.48-2.09c0-.81.16-1.51.48-2.09l.78-1.07c1.13-.65 1.76-.81 2.46-.81l1.36.16c1.11.65 1.55 1.11 1.87 1.72l.49 2.08c0 .8-.16 1.5-.49 2.1l-.78 1.05c-1.12.65-1.76.81-2.48.81Zm.02-1.08l.83-.11c.74-.43 1.04-.75 1.27-1.18l.34-.96c0-1.27-.11-1.8-.34-2.22l-.52-.75c-.73-.43-1.13-.54-1.57-.54l-.82.11c-.75.43-1.05.75-1.28 1.18l-.33.95c0 1.27.11 1.8.33 2.23l.53.75c.73.43 1.13.54 1.56.54Zm4.45.9Zm1.05 0v-7.56h1.14l.06 1.32.58-.84c.89-.52 1.4-.66 1.97-.66l1.1.12c.86.47 1.19.82 1.43 1.3l.36 1.08v5.24h-1.26v-4.38c0-.76-.17-1.33-.51-1.71l-.8-.57c-1.03 0-1.4.1-1.73.32l-.6.49c-.39.77-.48 1.25-.48 1.81v4.04h-1.26Zm11.55 0Zm3.46.18l-1.17-.12c-.91-.48-1.26-.83-1.51-1.28l-.36-.98 1.27-.62.06.67.41.8c.51.32.86.4 1.29.4l.75-.08.66-.53.27-.87v-8.07h1.26v7.72c0 .94-.26 1.68-.78 2.19s-1.23.77-2.15.77Zm4.05-.18Zm3.56-1.08v-6.54h1.12v6.54h-1.12Zm-2.87-2.75v-1.06h6.86v1.06h-6.86Zm7.56 3.83Zm4.39.18l-1.28-.12c-1.09-.49-1.52-.86-1.84-1.35l-.49-1.1 1.26-.73.1.77c.37.67.64.93.99 1.13l.77.3c.98 0 1.39-.09 1.72-.28l.58-.44c.34-.63.43-.98.43-1.38l-.12-.88c-.47-.61-.79-.83-1.19-.97l-.82-.23h-1.25v-1.07h.78c.69 0 1.23-.16 1.62-.48l.59-.76c0-1.02-.16-1.4-.47-1.71l-.76-.47c-1.21 0-1.68.17-2.03.51l-.55.78-1.32.53.18-1.07c.56-.88.94-1.23 1.42-1.47l1.05-.37c1.33 0 1.9.12 2.36.36l.8.56c.47.8.59 1.24.59 1.72l-.06.7-.46.9c-.52.48-.85.65-1.25.75l.78.24c.65.46.91.76 1.1 1.13l.28.8c0 1.07-.13 1.6-.4 2.09l-.65.87c-1.04.59-1.69.74-2.46.74Zm4.47-.18Zm5.15.18c-.92 0-1.72-.23-2.39-.67l-1.51-1.91c-.35-.82-.53-1.77-.53-2.85l.53-2.84c.35-.82.85-1.45 1.51-1.9.67-.46 1.47-.69 2.39-.69s1.7.23 2.35.69c.66.45 1.17 1.08 1.52 1.9l.52 2.84c0 1.08-.17 2.03-.52 2.85l-1.52 1.91c-.65.44-1.43.67-2.35.67Zm-.02-1.11l1.14-.17c.94-.69 1.31-1.19 1.58-1.83l.4-2.32c0-.9-.13-1.67-.4-2.31l-.64-1.15c-.94-.68-1.48-.85-2.08-.85l-1.14.17c-.95.68-1.32 1.18-1.59 1.83l-.39 2.31c0 .9.13 1.67.39 2.32l.64 1.14c.95.69 1.49.86 2.09.86Zm9.11.93Zm1.5.07l-.46-.08-.41-.53.08-.68.54-.42.7.09.4.53-.08.68-.52.41Zm0-6.1l-.46-.08-.41-.54.08-.68.54-.41.7.08.4.54-.08.68-.52.41Zm5.52 6.03Zm.34-3.63v-.95h6.48v.95h-6.48Zm0-2.31v-.93h6.48v.93h-6.48Zm6.15 6.12c-1.02 0-1.9-.23-2.65-.67-.74-.47-1.31-1.1-1.71-1.91-.4-.82-.6-1.77-.6-2.85s.2-2.03.6-2.84.97-1.45 1.71-1.9 1.63-.69 2.65-.69c1.2 0 2.18.28 2.93.85s1.23 1.38 1.44 2.42h-1.4c-.16-.65-.48-1.17-.97-1.56s-1.16-.6-2-.6l-1.95.52c-.55.34-.97.84-1.27 1.49l-.45 2.31c0 .9.15 1.67.45 2.32l.72 1.14c1.1.69 1.75.86 2.5.86.84 0 1.51-.19 2-.57l.81-.91 1.56-.64-.69 1.81c-1.5 1.14-2.48 1.42-3.68 1.42Zm5.08-.18Zm4.39.18l-1.28-.12c-1.09-.49-1.52-.86-1.84-1.35l-.49-1.1 1.26-.73.1.77c.37.67.64.93.99 1.13l.77.3c.98 0 1.39-.09 1.72-.28l.58-.44c.34-.63.43-.98.43-1.38l-.12-.88c-.47-.61-.79-.83-1.19-.97l-.82-.23h-1.25v-1.07h.78c.69 0 1.23-.16 1.62-.48l.59-.76c0-1.02-.16-1.4-.47-1.71l-.76-.47c-1.21 0-1.68.17-2.03.51l-.55.78-1.32.53.18-1.07c.56-.88.94-1.23 1.42-1.47l1.05-.37c1.33 0 1.9.12 2.36.36l.8.56c.47.8.59 1.24.59 1.72l-.06.7-.46.9c-.52.48-.85.65-1.25.75l.78.24c.65.46.91.76 1.1 1.13l.28.8c0 1.07-.13 1.6-.4 2.09l-.65.87c-1.04.59-1.69.74-2.46.74Zm4.22-.18Zm2.28 0v-9.09l-1.8.45v-.9l2.22-.96h.86v10.5h-1.28Zm6.38 0Zm5.14.18c-.92 0-1.71-.23-2.38-.67L318 108.63c-.35-.82-.52-1.77-.52-2.85l.52-2.84c.35-.82.86-1.45 1.52-1.9s1.46-.69 2.38-.69 1.71.23 2.36.69 1.16 1.08 1.51 1.9l.53 2.84c0 1.08-.18 2.03-.53 2.85l-1.51 1.91c-.65.44-1.44.67-2.36.67Zm-.01-1.11l1.13-.17c.94-.69 1.31-1.19 1.58-1.83l.41-2.32c0-.9-.14-1.67-.41-2.31l-.64-1.15c-.94-.68-1.47-.85-2.07-.85l-1.14.17c-.95.68-1.32 1.18-1.59 1.83l-.39 2.31c0 .9.13 1.67.39 2.32l.64 1.14c.95.69 1.49.86 2.09.86Zm5.12.93Zm5.15.18c-.92 0-1.72-.23-2.39-.67l-1.51-1.91c-.35-.82-.53-1.77-.53-2.85l.53-2.84c.35-.82.85-1.45 1.51-1.9s1.47-.69 2.39-.69 1.7.23 2.35.69 1.17 1.08 1.52 1.9l.52 2.84c0 1.08-.17 2.03-.52 2.85l-1.52 1.91c-.65.44-1.43.67-2.35.67Zm-.02-1.11l1.14-.17c.94-.69 1.31-1.19 1.58-1.83l.4-2.32c0-.9-.13-1.67-.4-2.31l-.64-1.15c-.94-.68-1.48-.85-2.08-.85l-1.14.17c-.95.68-1.32 1.18-1.59 1.83l-.39 2.31c0 .9.13 1.67.39 2.32l.64 1.14c.95.69 1.49.86 2.09.86Zm5.13.93Zm5.14.18c-.92 0-1.71-.23-2.38-.67l-1.52-1.91c-.35-.82-.52-1.77-.52-2.85l.52-2.84c.35-.82.86-1.45 1.52-1.9s1.46-.69 2.38-.69 1.71.23 2.36.69 1.16 1.08 1.51 1.9l.53 2.84c0 1.08-.18 2.03-.53 2.85l-1.51 1.91c-.65.44-1.44.67-2.36.67Zm-.01-1.11l1.13-.17c.94-.69 1.31-1.19 1.58-1.83l.41-2.32c0-.9-.14-1.67-.41-2.31l-.64-1.15c-.94-.68-1.47-.85-2.07-.85l-1.14.17c-.95.68-1.32 1.18-1.59 1.83l-.39 2.31c0 .9.13 1.67.39 2.32l.64 1.14c.95.69 1.49.86 2.09.86ZM0 161.03Zm3.47.18l-1.18-.12c-.91-.48-1.26-.83-1.51-1.28l-.36-.98 1.28-.62.05.67.41.8c.51.32.86.4 1.29.4L4.2 160l.66-.53.27-.87v-8.07H6.39v7.72c0 .94-.26 1.68-.78 2.19s-1.22.77-2.14.77Zm4.04-.18Zm.77-8.27l-.2-3.06H9.33l-.18 3.06H8.28Zm1.62 8.27Zm3.51.18l-1.12-.11c-.82-.42-1.12-.71-1.32-1.06l-.3-.75c0-.93.13-1.36.39-1.71l.64-.63c.97-.37 1.55-.47 2.21-.47H15.9c0-.47-.07-.86-.22-1.17l-.35-.56-.89-.4c-.89 0-1.31.12-1.66.36l-.56.6-1.37.47.24-.99c.61-.73 1-1.01 1.47-1.2l.96-.3c1.21 0 1.79.13 2.25.39l.82.61c.46.9.57 1.44.57 2.06v4.68H16.04l-.08-1.34-.23.41-.49.53-.66.38-.83.2Zm.2-1.07l.66-.07.82-.49c.4-.51.55-.79.65-1.1l.16-.64v-.38H14.01c-.49 0-.88.06-1.18.18l-.52.27-.32.64.06.76.43.56.79.27Zm4.45.89Zm1.17 0v-7.56h1.26v7.56H19.23Zm.63-9.17l-.46-.07-.41-.55.08-.69.54-.39.7.07.42.51-.08.71-.55.41Zm5.79 9.17Zm1.05 3.3V153.47h1.14l.1 1.23.37-.47.8-.6c.7-.27 1.1-.34 1.55-.34l1.38.17c1.09.71 1.51 1.18 1.81 1.78l.47 2.02c0 .76-.16 1.44-.47 2.04l-.72 1.06c-1.1.68-1.75.85-2.49.85l-1.15-.13c-.93-.5-1.28-.85-1.53-1.29v4.54H26.7Zm3.81-4.22l.92-.12c.76-.48 1.06-.8 1.27-1.23l.33-.93c0-1.15-.11-1.65-.33-2.08l-.51-.77c-.76-.48-1.19-.6-1.68-.6l-.94.12c-.76.48-1.06.82-1.27 1.25l-.31.93c0 1.15.1 1.65.31 2.08l.51.75c.76.48 1.2.6 1.7.6Zm4.53.92Zm1.05 0v-7.56h1.14l.09 1.44.38-.63c.53-.48.85-.67 1.22-.8l.81-.19.48 1.32h-.46l-.63.05-.84.3c-.45.38-.62.64-.75.97l-.18.72v4.38H36.09Zm4.22 0Zm4.37.18l-1.34-.16c-1.09-.67-1.52-1.12-1.83-1.72l-.46-2.08c0-.8.15-1.5.45-2.08l.74-1.06c1.11-.66 1.75-.82 2.47-.82l1.36.16c1.03.66 1.43 1.1 1.7 1.64l.42 1.11c0 .74 0 .85 0 .96l-.01.23-6.19.15v-.98h4.97c-.03-.69-.26-1.23-.69-1.62l-.95-.59c-1.07 0-1.47.1-1.84.31l-.65.47c-.44.75-.55 1.21-.55 1.78v.41l.11 1.14c.45.84.74 1.16 1.1 1.37l.77.31c.95 0 1.38-.11 1.72-.34l.6-.56 1.4-.4-.33.85c-.6.73-.98 1.01-1.43 1.22l-.95.3Zm-1.5-8.39l-.14-.89L46.06 150l.18 1.08-3.06 1.74Zm5.66 8.21Zm1.05 3.3V153.47h1.14l.1 1.23.37-.47.8-.6c.7-.27 1.1-.34 1.55-.34l1.38.17c1.09.71 1.51 1.18 1.81 1.78l.47 2.02c0 .76-.16 1.44-.47 2.04l-.72 1.06c-1.1.68-1.75.85-2.49.85l-1.15-.13c-.93-.5-1.28-.85-1.53-1.29v4.54H49.89Zm3.81-4.22l.92-.12c.76-.48 1.06-.8 1.27-1.23l.33-.93c0-1.15-.11-1.65-.33-2.08l-.51-.77c-.76-.48-1.19-.6-1.68-.6l-.94.12c-.76.48-1.06.82-1.27 1.25l-.31.93c0 1.15.1 1.65.31 2.08l.51.75c.76.48 1.2.6 1.7.6Zm4.53.92Zm3.51.18l-1.12-.11c-.82-.42-1.13-.71-1.33-1.06l-.3-.75c0-.93.13-1.36.39-1.71l.65-.63c.97-.37 1.54-.47 2.2-.47h2c0-.47-.08-.86-.23-1.17l-.35-.56-.89-.4c-.89 0-1.3.12-1.65.36l-.57.6-1.37.47.24-.99c.61-.73 1-1.01 1.47-1.2l.96-.3c1.21 0 1.79.13 2.25.39l.82.61c.46.9.58 1.44.58 2.06v4.68H64.36l-.07-1.34-.23.41-.49.53-.66.38-.83.2Zm.19-1.07l.67-.07.81-.49c.4-.51.55-.79.65-1.1l.17-.64v-.38H62.34c-.49 0-.89.06-1.19.18l-.51.27-.33.64.06.76.44.56.78.27Zm4.46.89Zm1.05 0v-7.56h1.14l.09 1.44.38-.63c.53-.48.85-.67 1.22-.8l.81-.19.48 1.32H71.1l-.63.05-.84.3c-.45.38-.62.64-.75.97l-.18.72v4.38H67.44Zm4.22 0Zm4.37.18l-1.34-.16c-1.09-.67-1.52-1.12-1.83-1.72l-.46-2.08c0-.8.15-1.5.45-2.08l.74-1.06c1.11-.66 1.75-.82 2.47-.82l1.36.16c1.03.66 1.43 1.1 1.7 1.64l.42 1.11c0 .74 0 .85 0 .96l-.01.23-6.19.15v-.98h4.97c-.03-.69-.26-1.23-.69-1.62l-.95-.59c-1.07 0-1.47.1-1.84.31l-.65.47c-.44.75-.55 1.21-.55 1.78v.41l.11 1.14c.45.84.74 1.16 1.1 1.37l.77.31c.95 0 1.38-.11 1.72-.34l.6-.56 1.4-.4-.33.85c-.6.73-.98 1.01-1.43 1.22l-.95.3Zm-1.5-8.39l-.14-.89L77.41 150l.18 1.08-3.06 1.74Zm9.64 8.21Zm1.05 0v-10.8h1.26v10.8H85.22Zm2.29 0Zm4.36.18l-1.34-.16c-1.09-.67-1.51-1.12-1.82-1.72l-.47-2.08c0-.8.15-1.5.45-2.08l.74-1.06c1.11-.66 1.75-.82 2.47-.82l1.37.16c1.03.66 1.42 1.1 1.69 1.64l.42 1.11c0 .74 0 .85 0 .96v.23l-6.19.15v-.98h4.96c-.03-.69-.26-1.23-.69-1.62l-.95-.59c-1.07 0-1.47.1-1.84.31l-.65.47c-.44.75-.55 1.21-.55 1.78v.41l.11 1.14c.45.84.75 1.16 1.11 1.37l.76.31c.95 0 1.39-.11 1.73-.34l.6-.56 1.39-.4-.33.85c-.6.73-.97 1.01-1.42 1.22l-.96.3Zm4.17-.18Zm3.9.18l-1.18-.11c-.93-.41-1.3-.71-1.58-1.08l-.44-.82 1.23-.51.16.5.53.62c.55.27.89.33 1.29.33l.64-.05.63-.35.29-.55-.07-.76-.5-.45-.9-.27c-.73-.13-1.06-.21-1.38-.31l-.6-.23-.7-.54-.36-.77c0-.78.11-1.16.33-1.49l.53-.61c.83-.38 1.32-.47 1.87-.47.81 0 1.46.19 1.96.58l.8.96-1.16.74-.21-.68c-.55-.43-.93-.54-1.41-.54l-.83.1-.61.63.07.69.47.44.86.31c.89.16 1.34.28 1.75.43l.74.37c.51.6.64 1.01.64 1.55l-.12.88c-.47.7-.8.97-1.23 1.18l-.93.28Zm7.61-.18Zm1.05 0v-7.56h1.14l.09 1.44.38-.63c.53-.48.85-.67 1.22-.8l.81-.19.48 1.32h-.46l-.63.05-.84.3c-.45.38-.62.64-.75.97l-.18.72v4.38H108.6Zm4.22 0Zm4.37.18l-1.34-.16c-1.09-.67-1.52-1.12-1.83-1.72l-.46-2.08c0-.8.15-1.5.45-2.08l.74-1.06c1.11-.66 1.75-.82 2.47-.82l1.36.16c1.03.66 1.43 1.1 1.7 1.64l.42 1.11c0 .74 0 .85 0 .96l-.01.23-6.19.15v-.98h4.97c-.03-.69-.26-1.23-.69-1.62l-.95-.59c-1.07 0-1.47.1-1.84.31l-.65.47c-.44.75-.55 1.21-.55 1.78v.41l.11 1.14c.45.84.74 1.16 1.1 1.37l.77.31c.95 0 1.38-.11 1.72-.34l.6-.56 1.4-.4-.33.85c-.6.73-.98 1.01-1.43 1.22l-.95.3Zm4.16-.18Zm1.05 0v-10.8h1.26v10.8H122.4Zm2.29 0Zm3.51.18l-1.12-.11c-.82-.42-1.13-.71-1.33-1.06l-.3-.75c0-.93.13-1.36.39-1.71l.65-.63c.97-.37 1.54-.47 2.2-.47h2c0-.47-.08-.86-.23-1.17l-.35-.56-.89-.4c-.89 0-1.3.12-1.65.36l-.57.6-1.37.47.24-.99c.61-.73 1-1.01 1.47-1.2l.96-.3c1.21 0 1.79.13 2.25.39l.82.61c.46.9.58 1.44.58 2.06v4.68h-1.13l-.07-1.34-.23.41-.49.53-.66.38-.83.2Zm.19-1.07l.67-.07.81-.49c.4-.51.55-.79.65-1.1l.17-.64v-.38H128.8c-.49 0-.89.06-1.19.18l-.51.27-.33.64.06.76.44.56.78.27Zm4.46.89Zm1.05 0v-7.56h1.14l.06 1.32.58-.84c.89-.52 1.4-.66 1.97-.66l1.1.12c.86.47 1.19.82 1.43 1.3l.36 1.08v5.24h-1.26v-4.38c0-.76-.17-1.33-.51-1.71l-.8-.57c-1.03 0-1.4.1-1.73.32l-.6.49c-.39.77-.48 1.25-.48 1.81v4.04H133.9Zm7.56 0Zm4.45.18l-1.35-.16c-1.13-.67-1.57-1.12-1.89-1.72l-.48-2.07c0-.8.16-1.49.48-2.08l.76-1.05c1.13-.67 1.77-.84 2.48-.84.9 0 1.65.23 2.25.7.6.46.98 1.08 1.14 1.86h-1.29c-.1-.47-.34-.83-.73-1.09l-.85-.39c-.96 0-1.36.11-1.73.33l-.67.53c-.44.86-.55 1.39-.55 2.02l.07.89c.26.73.43 1.03.65 1.27l.48.42.9.31c.68 0 1-.05 1.29-.16l.54-.29.53-.74 1.36-.31-.54 1.38c-1.21.95-1.96 1.19-2.85 1.19Zm4.13-.18Zm4.37.18l-1.34-.16c-1.09-.67-1.52-1.12-1.83-1.72l-.46-2.08c0-.8.15-1.5.45-2.08l.74-1.06c1.11-.66 1.75-.82 2.47-.82l1.36.16c1.03.66 1.43 1.1 1.7 1.64l.42 1.11c0 .74 0 .85 0 .96l-.01.23-6.19.15v-.98h4.97c-.03-.69-.26-1.23-.69-1.62l-.95-.59c-1.07 0-1.47.1-1.84.31l-.65.47c-.44.75-.55 1.21-.55 1.78v.41l.11 1.14c.45.84.74 1.16 1.1 1.37l.77.31c.95 0 1.38-.11 1.72-.34l.6-.56 1.4-.4-.33.85c-.6.73-.98 1.01-1.43 1.22l-.95.3Zm4.16-.18Zm3.9.18l-1.18-.11c-.93-.41-1.3-.71-1.58-1.08l-.44-.82 1.23-.51.16.5.53.62c.55.27.89.33 1.29.33l.64-.05.63-.35.29-.55-.07-.76-.5-.45-.9-.27c-.73-.13-1.06-.21-1.38-.31l-.6-.23-.7-.54-.36-.77c0-.78.11-1.16.33-1.49l.53-.61c.83-.38 1.32-.47 1.87-.47.81 0 1.46.19 1.96.58l.8.96-1.16.74-.21-.68c-.55-.43-.93-.54-1.41-.54l-.83.1-.61.63.07.69.47.44.86.31c.89.16 1.34.28 1.75.43l.74.37c.51.6.64 1.01.64 1.55l-.12.88c-.47.7-.8.97-1.23 1.18l-.93.28Zm7.61-.18Zm4.04 3.48l-1.29-.09c-1.05-.35-1.45-.62-1.74-.98l-.44-.8c0-.76.05-1.01.14-1.27l.26-.51c.47-.5.81-.73 1.24-.92l.87.5-.88.48c-.32.56-.4.83-.4 1.07l.1.6.64.61c.68.22 1.07.27 1.5.27l.8-.05.86-.42.42-.69-.13-.95c-.52-.47-1.01-.61-1.74-.65l-1.09-.09c-.8-.14-1.13-.22-1.39-.31l-.48-.21-.5-.37-.14-.47 1.45-1.44 1.1.39-1.5 1.35.19-.52.22.15.33.2.58.15c.61.07 1.01.12 1.51.15l1.24.17c.83.38 1.13.64 1.31.96l.29.7c0 .87-.12 1.28-.36 1.66l-.59.7c-.98.5-1.61.63-2.38.63Zm-.02-5.85l-1.17-.12c-.89-.48-1.22-.8-1.45-1.2l-.35-.87c0-1 .12-1.45.35-1.85l.58-.71c.88-.49 1.41-.62 2.04-.62l1.17.13c.88.49 1.21.8 1.44 1.2l.35.85c0 1-.12 1.46-.35 1.87l-.56.72c-.88.48-1.42.6-2.05.6Zm0-1.04l.97-.14c.62-.55.77-.97.77-1.51l-.15-.93c-.62-.56-1.05-.7-1.59-.7l-.96.14c-.65.56-.81.96-.81 1.49l.16.96c.64.55 1.07.69 1.61.69Zm1.23-3.08l-.37-1.07h3.09v.95l-2.72.12Zm3.12 6.49Zm1.05 0v-7.56h1.14l.09 1.44.38-.63c.53-.48.85-.67 1.22-.8l.81-.19.48 1.32h-.46l-.63.05-.84.3c-.45.38-.62.64-.75.97l-.18.72v4.38H179.5Zm4.22 0Zm4.43.18l-1.33-.16c-1.12-.65-1.56-1.11-1.88-1.7l-.48-2.09c0-.81.16-1.51.48-2.09l.77-1.07c1.13-.65 1.77-.81 2.47-.81l1.35.16c1.11.65 1.55 1.11 1.87 1.72l.5 2.08c0 .8-.17 1.5-.5 2.1l-.77 1.05c-1.12.65-1.76.81-2.48.81Zm.01-1.08l.83-.11c.74-.43 1.04-.75 1.27-1.18l.35-.96c0-1.27-.12-1.8-.35-2.22l-.51-.75c-.73-.43-1.13-.54-1.57-.54l-.82.11c-.75.43-1.05.75-1.28 1.18l-.33.95c0 1.27.11 1.8.33 2.23l.52.75c.73.43 1.13.54 1.56.54Zm4.45.9Zm3.8.18l-1.09-.12c-.87-.46-1.21-.81-1.45-1.29l-.34-1.08v-5.25h1.26v4.39c0 .75.16 1.32.49 1.7l.8.57c1.02 0 1.4-.1 1.74-.3l.6-.51c.39-.77.49-1.24.49-1.8v-4.05h1.26v7.56h-1.14l-.07-1.32-.57.84c-.9.53-1.41.66-1.98.66Zm4.8-.18Zm1.05 3.3V153.47h1.14l.11 1.23.36-.47.8-.6c.7-.27 1.1-.34 1.55-.34l1.38.17c1.09.71 1.52 1.18 1.82 1.78l.46 2.02c0 .76-.15 1.44-.46 2.04l-.73 1.06c-1.1.68-1.74.85-2.48.85l-1.15-.13c-.93-.5-1.29-.85-1.54-1.29v4.54h-1.26Zm3.81-4.22l.93-.12c.76-.48 1.05-.8 1.26-1.23l.33-.93c0-1.15-.11-1.65-.33-2.08l-.5-.77c-.76-.48-1.2-.6-1.69-.6l-.94.12c-.76.48-1.05.82-1.26 1.25l-.32.93c0 1.15.11 1.65.32 2.08l.5.75c.76.48 1.2.6 1.7.6Zm4.53.92Zm4.37.18l-1.34-.16c-1.09-.67-1.52-1.12-1.83-1.72l-.46-2.08c0-.8.15-1.5.45-2.08l.74-1.06c1.11-.66 1.75-.82 2.47-.82l1.36.16c1.03.66 1.43 1.1 1.7 1.64l.42 1.11c0 .74 0 .85 0 .96l-.01.23-6.19.15v-.98h4.97c-.03-.69-.26-1.23-.69-1.62l-.95-.59c-1.07 0-1.47.1-1.84.31l-.65.47c-.44.75-.55 1.21-.55 1.78v.41l.11 1.14c.45.84.74 1.16 1.1 1.37l.77.31c.95 0 1.38-.11 1.72-.34l.6-.56 1.4-.4-.33.85c-.6.73-.98 1.01-1.43 1.22l-.95.3Zm-1.5-8.39l-.14-.89 3.02-1.93.18 1.08-3.06 1.74Zm5.66 8.21Zm4.36.18l-1.34-.16c-1.09-.67-1.51-1.12-1.82-1.72l-.47-2.08c0-.8.15-1.5.45-2.08l.74-1.06c1.11-.66 1.75-.82 2.47-.82l1.37.16c1.03.66 1.42 1.1 1.69 1.64l.42 1.11c0 .74 0 .85 0 .96v.23l-6.19.15v-.98h4.96c-.03-.69-.26-1.23-.69-1.62l-.95-.59c-1.07 0-1.47.1-1.84.31l-.65.47c-.44.75-.55 1.21-.55 1.78v.41l.11 1.14c.45.84.75 1.16 1.11 1.37l.76.31c.95 0 1.39-.11 1.73-.34l.6-.56 1.39-.4-.33.85c-.6.73-.97 1.01-1.42 1.22l-.96.3Zm4.16-.18Zm3.9.18l-1.18-.11c-.93-.41-1.3-.71-1.58-1.08l-.43-.82 1.23-.51.15.5.54.62c.55.27.89.33 1.29.33l.64-.05.63-.35.29-.55-.08-.76-.5-.45-.9-.27c-.73-.13-1.05-.21-1.37-.31l-.61-.23-.7-.54-.36-.77c0-.78.11-1.16.33-1.49l.54-.61c.83-.38 1.31-.47 1.86-.47.81 0 1.47.19 1.97.58l.79.96-1.15.74-.22-.68c-.55-.43-.92-.54-1.4-.54l-.83.1-.61.63.06.69.47.44.86.31c.89.16 1.35.28 1.76.43l.74.37c.51.6.64 1.01.64 1.55l-.12.88c-.47.7-.8.97-1.23 1.18l-.94.28Zm7.62-.18Zm1.05 3.3V153.47h1.14l.1 1.23.37-.47.8-.6c.7-.27 1.1-.34 1.55-.34l1.38.17c1.09.71 1.51 1.18 1.81 1.78l.47 2.02c0 .76-.16 1.44-.47 2.04l-.72 1.06c-1.1.68-1.75.85-2.49.85l-1.15-.13c-.93-.5-1.28-.85-1.53-1.29v4.54h-1.26Zm3.81-4.22l.92-.12c.76-.48 1.06-.8 1.27-1.23l.33-.93c0-1.15-.11-1.65-.33-2.08l-.51-.77c-.76-.48-1.19-.6-1.68-.6l-.94.12c-.76.48-1.06.82-1.27 1.25l-.31.93c0 1.15.1 1.65.31 2.08l.51.75c.76.48 1.2.6 1.7.6Zm4.52.92Zm4.43.18l-1.33-.16c-1.12-.65-1.56-1.11-1.88-1.7l-.48-2.09c0-.81.16-1.51.48-2.09l.77-1.07c1.13-.65 1.77-.81 2.47-.81l1.35.16c1.11.65 1.55 1.11 1.87 1.72l.5 2.08c0 .8-.17 1.5-.5 2.1l-.77 1.05c-1.12.65-1.76.81-2.48.81Zm.01-1.08l.83-.11c.74-.43 1.04-.75 1.27-1.18l.35-.96c0-1.27-.12-1.8-.35-2.22l-.51-.75c-.73-.43-1.13-.54-1.57-.54l-.82.11c-.75.43-1.05.75-1.28 1.18l-.33.95c0 1.27.11 1.8.33 2.23l.52.75c.73.43 1.13.54 1.56.54Zm4.46.9Zm3.79.18l-1.09-.12c-.87-.46-1.2-.81-1.44-1.29l-.35-1.08v-5.25h1.26v4.39c0 .75.17 1.32.5 1.7l.79.57c1.02 0 1.4-.1 1.74-.3l.61-.51c.39-.77.49-1.24.49-1.8v-4.05h1.26v7.56h-1.14l-.08-1.32-.57.84c-.9.53-1.41.66-1.98.66Zm4.8-.18Zm1.05 0v-7.56h1.14l.09 1.44.39-.63c.53-.48.85-.67 1.22-.8l.81-.19.48 1.32h-.47l-.62.05-.84.3c-.45.38-.63.64-.76.97l-.18.72v4.38h-1.26Zm8.49 0Zm1.05 0v-10.8h1.26v10.8h-1.26Zm2.29 0Zm4.37.18l-1.34-.16c-1.09-.67-1.52-1.12-1.83-1.72l-.46-2.08c0-.8.15-1.5.45-2.08l.74-1.06c1.11-.66 1.75-.82 2.47-.82l1.36.16c1.03.66 1.43 1.1 1.7 1.64l.42 1.11c0 .74 0 .85 0 .96l-.01.23-6.19.15v-.98h4.97c-.03-.69-.26-1.23-.69-1.62l-.95-.59c-1.07 0-1.47.1-1.84.31l-.65.47c-.44.75-.55 1.21-.55 1.78v.41l.11 1.14c.45.84.74 1.16 1.1 1.37l.77.31c.95 0 1.38-.11 1.72-.34l.6-.56 1.4-.4-.33.85c-.6.73-.98 1.01-1.43 1.22l-.95.3Zm4.16-.18Zm3.9.18l-1.18-.11c-.93-.41-1.3-.71-1.58-1.08l-.44-.82 1.23-.51.16.5.53.62c.55.27.89.33 1.29.33l.64-.05.63-.35.29-.55-.07-.76-.5-.45-.9-.27c-.73-.13-1.06-.21-1.38-.31l-.6-.23-.7-.54-.36-.77c0-.78.11-1.16.33-1.49l.53-.61c.83-.38 1.32-.47 1.87-.47.81 0 1.46.19 1.96.58l.8.96-1.16.74-.21-.68c-.55-.43-.93-.54-1.41-.54l-.83.1-.61.63.07.69.47.44.86.31c.89.16 1.34.28 1.75.43l.74.37c.51.6.64 1.01.64 1.55l-.12.88c-.47.7-.8.97-1.23 1.18l-.93.28Zm7.61-.18Zm2.28 0v-9.09l-1.8.45v-.9l2.22-.96h.85v10.5h-1.27Zm2.39 0Zm4.56.18l-1.29-.13c-1.08-.51-1.51-.86-1.83-1.31l-.48-.99c0-1.03.09-1.43.26-1.8l.4-.69c.61-.55.97-.74 1.37-.85l-1-.51c-.61-.85-.76-1.3-.76-1.79l.14-.99c.54-.84.92-1.18 1.41-1.43l1.09-.37c1.39 0 1.99.12 2.48.37l.88.59c.53.84.66 1.31.66 1.83l-.15.94c-.61.85-1.04 1.15-1.6 1.36l.76.3c.61.55.85.87 1.01 1.24l.25.77c0 1.03-.16 1.56-.48 2.02l-.74.8c-1.09.51-1.7.64-2.38.64Zm0-1.11l1.38-.18c.77-.73.96-1.22.96-1.82l-.21-1.19c-.85-.7-1.42-.87-2.13-.87l-1.28.17c-.85.7-1.06 1.22-1.06 1.89l.2 1.09c.78.73 1.36.91 2.14.91Zm0-5.12l1.13-.16c.74-.66.93-1.09.93-1.61l-.19-1.03c-.73-.6-1.23-.75-1.87-.75l-1.13.15c-.73.6-.91 1.04-.91 1.63l.18.95c.73.66 1.23.82 1.86.82ZM0 186.03Zm1.47 0V177.3c0-.48.08-.87.24-1.17l.39-.54c.63-.29 1.03-.36 1.49-.36h.85v1.08H3.78l-.64.07-.41.57v9.08H1.47ZM.32 179.54v-1.07H4.64v1.07H.32Zm4.48 6.49Zm3.51.18l-1.12-.11c-.82-.42-1.12-.71-1.32-1.06l-.3-.75c0-.93.13-1.36.39-1.71l.64-.63c.97-.37 1.55-.47 2.21-.47H10.8c0-.47-.07-.86-.22-1.17l-.35-.56-.89-.4c-.89 0-1.31.12-1.66.36l-.56.6-1.37.47.24-.99c.61-.73 1-1.01 1.47-1.2l.96-.3c1.21 0 1.79.13 2.25.39l.82.61c.46.9.57 1.44.57 2.06v4.68H10.94l-.08-1.34-.23.41-.49.53-.66.38-.83.2Zm.2-1.07l.66-.07.82-.49c.4-.51.55-.79.65-1.1l.16-.64v-.38H8.91c-.49 0-.88.06-1.18.18l-.52.27-.32.64.06.76.43.56.79.27Zm4.45.89Zm4.46.18l-1.35-.16c-1.13-.67-1.57-1.12-1.89-1.72l-.48-2.07c0-.8.16-1.49.48-2.08l.76-1.05c1.13-.67 1.77-.84 2.48-.84.9 0 1.65.23 2.25.7.6.46.98 1.08 1.14 1.86H19.52c-.1-.47-.35-.83-.74-1.09l-.85-.39c-.96 0-1.36.11-1.73.33l-.66.53c-.44.86-.55 1.39-.55 2.02l.06.89c.26.73.44 1.03.66 1.27l.47.42.9.31c.68 0 1.01-.05 1.3-.16l.53-.29.54-.74 1.36-.31-.55 1.38c-1.21.95-1.95 1.19-2.84 1.19Zm3.92-.18Zm4.02 0l-.84-.07c-.66-.28-.91-.51-1.09-.85l-.26-.79v-4.78H21.85v-1.07h1.32l.17-1.83h1.09v1.83h2.19v1.07H24.43v4.21c0 .47.1.79.29.96l.52.24h1.29v1.08H25.36Zm1.86 0Zm3.79.18l-1.09-.12c-.87-.46-1.2-.81-1.44-1.29l-.35-1.08v-5.25h1.26v4.39c0 .75.17 1.32.5 1.7l.79.57c1.02 0 1.4-.1 1.74-.3l.61-.51c.39-.77.49-1.24.49-1.8v-4.05h1.26v7.56H33.64l-.08-1.32-.57.84c-.9.53-1.41.66-1.98.66Zm4.81-.18Zm1.05 0v-7.56h1.14l.09 1.44.38-.63c.53-.48.85-.67 1.22-.8l.81-.19.48 1.32h-.46l-.63.05-.84.3c-.45.38-.62.64-.75.97l-.18.72v4.38H36.87Zm4.22 0Zm4.36.18l-1.34-.16c-1.09-.67-1.51-1.12-1.82-1.72l-.47-2.08c0-.8.15-1.5.45-2.08l.74-1.06c1.11-.66 1.75-.82 2.47-.82l1.37.16c1.03.66 1.42 1.1 1.69 1.64l.42 1.11c0 .74 0 .85 0 .96v.23l-6.19.15v-.98h4.96c-.03-.69-.26-1.23-.69-1.62l-.95-.59c-1.07 0-1.47.1-1.84.31l-.65.47c-.44.75-.55 1.21-.55 1.78v.41l.11 1.14c.45.84.75 1.16 1.11 1.37l.76.31c.95 0 1.39-.11 1.73-.34l.6-.56 1.39-.4-.33.85c-.6.73-.97 1.01-1.42 1.22l-.96.3Zm4.16-.18Zm3.9.18l-1.18-.11c-.93-.41-1.3-.71-1.58-1.08l-.43-.82 1.23-.51.15.5.54.62c.55.27.89.33 1.29.33l.64-.05.63-.35.29-.55-.08-.76-.5-.45-.9-.27c-.73-.13-1.05-.21-1.37-.31l-.61-.23-.7-.54-.36-.77c0-.78.11-1.16.33-1.49l.54-.61c.83-.38 1.31-.47 1.86-.47.81 0 1.47.19 1.97.58l.79.96-1.15.74-.22-.68c-.55-.43-.92-.54-1.4-.54l-.83.1-.61.63.06.69.47.44.86.31c.89.16 1.35.28 1.76.43l.74.37c.51.6.64 1.01.64 1.55l-.12.88c-.47.7-.8.97-1.23 1.18l-.94.28Zm3.63-.18Zm1.5.07l-.46-.08-.41-.53.08-.68.54-.42.71.09.4.53-.08.69-.53.4Zm5.46-.07Zm4.47.18l-2.01-.42c-.57-.28-1.01-.67-1.32-1.17l-.46-1.08 1.32-.66.09.79c.38.69.66.96 1.02 1.17l.82.3c1.01 0 1.41-.07 1.74-.22l.6-.37.44-.85c0-.75-.09-1.08-.27-1.33l-.41-.47c-.6-.32-.95-.46-1.35-.58l-.8-.27c-1.26-.42-1.87-.76-2.26-1.19l-.58-.96c0-1.24.13-1.74.39-2.17l.65-.77c.99-.49 1.58-.61 2.26-.61l1.25.12c.99.5 1.38.85 1.66 1.29l.42.93-1.32.57-.08-.58-.53-.79c-.61-.37-.99-.46-1.45-.46l-.72.05-.82.46c-.33.5-.41.81-.41 1.17l.07.61.5.6c.55.29.88.42 1.25.54l.78.26c.96.32 1.41.53 1.8.78l.71.55c.45.76.56 1.24.56 1.84l-.13.97c-.53.89-.92 1.25-1.44 1.53l-1.97.42Zm4.23-.18Zm4.43.18l-1.33-.16c-1.12-.65-1.56-1.11-1.88-1.7l-.48-2.09c0-.81.16-1.51.48-2.09l.77-1.07c1.13-.65 1.77-.81 2.47-.81l1.35.16c1.11.65 1.55 1.11 1.87 1.72l.5 2.08c0 .8-.17 1.5-.5 2.1l-.77 1.05c-1.12.65-1.76.81-2.48.81Zm.01-1.08l.83-.11c.74-.43 1.04-.75 1.27-1.18l.35-.96c0-1.27-.12-1.8-.35-2.22l-.51-.75c-.73-.43-1.13-.54-1.57-.54l-.82.11c-.75.43-1.05.75-1.28 1.18l-.33.95c0 1.27.11 1.8.33 2.23l.52.75c.73.43 1.13.54 1.56.54Zm4.45.9Zm3.8.18l-1.09-.12c-.87-.46-1.21-.81-1.45-1.29l-.34-1.08v-5.25h1.26v4.39c0 .75.16 1.32.49 1.7l.8.57c1.02 0 1.4-.1 1.74-.3l.6-.51c.39-.77.49-1.24.49-1.8v-4.05h1.26v7.56H88.11l-.07-1.32-.57.84c-.9.53-1.41.66-1.98.66Zm4.8-.18Zm1.05 0v-10.8H92.6v4.51c.25-.44.6-.8 1.05-1.06l.96-.39c1.12 0 1.63.12 2.06.36l.76.58c.46.96.57 1.57.57 2.3v4.5H96.76v-4.36c0-.76-.16-1.34-.48-1.72l-.79-.58c-1.04 0-1.43.1-1.78.31l-.61.51c-.4.78-.5 1.26-.5 1.83v4.01H91.34Zm7.58 0Zm3.51.18l-1.12-.11c-.82-.42-1.12-.71-1.32-1.06l-.3-.75c0-.93.13-1.36.39-1.71l.64-.63c.97-.37 1.55-.47 2.21-.47h1.99c0-.47-.07-.86-.22-1.17l-.35-.56-.89-.4c-.89 0-1.31.12-1.66.36l-.56.6-1.37.47.24-.99c.61-.73 1-1.01 1.47-1.2l.96-.3c1.21 0 1.79.13 2.25.39l.82.61c.46.9.57 1.44.57 2.06v4.68h-1.12l-.08-1.34-.23.41-.49.53-.66.38-.83.2Zm.2-1.07l.66-.07.82-.49c.4-.51.55-.79.65-1.1l.16-.64v-.38h-1.89c-.49 0-.88.06-1.18.18l-.52.27-.32.64.06.76.43.56.79.27Zm4.45.89Zm1.17 0v-7.56h1.26v7.56h-1.26Zm.63-9.17l-.46-.07-.41-.55.08-.69.54-.39.7.07.42.51-.08.71-.55.41Zm1.8 9.17Zm4.02 0l-.84-.07c-.66-.28-.91-.51-1.09-.85l-.26-.79v-4.78h-1.32v-1.07h1.32l.17-1.83h1.09v1.83h2.19v1.07h-2.19v4.21c0 .47.1.79.29.96l.52.24h1.29v1.08H114.7Zm1.65 0Zm4.37.18l-1.34-.16c-1.09-.67-1.52-1.12-1.83-1.72l-.46-2.08c0-.8.15-1.5.45-2.08l.74-1.06c1.11-.66 1.75-.82 2.47-.82l1.36.16c1.03.66 1.43 1.1 1.7 1.64l.42 1.11c0 .74 0 .85 0 .96l-.01.23-6.19.15v-.98H123c-.03-.69-.26-1.23-.69-1.62l-.95-.59c-1.07 0-1.47.1-1.84.31l-.65.47c-.44.75-.55 1.21-.55 1.78v.41l.11 1.14c.45.84.74 1.16 1.1 1.37l.77.31c.95 0 1.38-.11 1.72-.34l.6-.56 1.4-.4-.33.85c-.6.73-.98 1.01-1.43 1.22l-.95.3Zm4.16-.18Zm.54 0v-1.04l4.18-5.47h-4.11v-1.05h5.55v1.03l-4.2 5.48h4.28v1.05h-5.7Zm6.33 0Zm1.08-3.9v-1.07h5.94v1.07h-5.94Zm7.03 3.9Zm3.23 0l-2.87-7.56h1.32l2.28 6.34 2.3-6.34h1.29l-2.87 7.56h-1.45Zm4.3 0Zm4.43.18l-1.33-.16c-1.12-.65-1.56-1.11-1.88-1.7l-.48-2.09c0-.81.16-1.51.48-2.09l.77-1.07c1.13-.65 1.77-.81 2.47-.81l1.35.16c1.11.65 1.55 1.11 1.87 1.72l.5 2.08c0 .8-.17 1.5-.5 2.1l-.77 1.05c-1.12.65-1.76.81-2.48.81Zm.01-1.08l.83-.11c.74-.43 1.04-.75 1.27-1.18l.35-.96c0-1.27-.12-1.8-.35-2.22l-.51-.75c-.73-.43-1.13-.54-1.57-.54l-.82.11c-.75.43-1.05.75-1.28 1.18l-.33.95c0 1.27.11 1.8.33 2.23l.52.75c.73.43 1.13.54 1.56.54Zm4.45.9Zm3.8.18l-1.09-.12c-.87-.46-1.21-.81-1.45-1.29l-.34-1.08v-5.25h1.26v4.39c0 .75.16 1.32.49 1.7l.8.57c1.02 0 1.4-.1 1.74-.3l.6-.51c.39-.77.49-1.24.49-1.8v-4.05h1.26v7.56H162.7l-.07-1.32-.57.84c-.9.53-1.41.66-1.98.66Zm4.8-.18Zm3.9.18l-1.18-.11c-.93-.41-1.3-.71-1.58-1.08l-.43-.82 1.23-.51.15.5.54.62c.55.27.89.33 1.29.33l.64-.05.63-.35.29-.55-.08-.76-.5-.45-.9-.27c-.73-.13-1.05-.21-1.37-.31l-.61-.23-.7-.54-.36-.77c0-.78.11-1.16.33-1.49l.54-.61c.83-.38 1.31-.47 1.86-.47.81 0 1.47.19 1.97.58l.79.96-1.15.74-.22-.68c-.55-.43-.92-.54-1.4-.54l-.83.1-.61.63.06.69.47.44.86.31c.89.16 1.35.28 1.76.43l.74.37c.51.6.64 1.01.64 1.55l-.12.88c-.47.7-.8.97-1.23 1.18l-.94.28Zm7.62-.18Zm1.05 0v-10.8h1.26v10.8h-1.26Zm2.29 0Zm4.36.18l-1.34-.16c-1.09-.67-1.51-1.12-1.82-1.72l-.47-2.08c0-.8.15-1.5.45-2.08l.74-1.06c1.11-.66 1.75-.82 2.47-.82l1.37.16c1.03.66 1.42 1.1 1.69 1.64l.42 1.11c0 .74 0 .85 0 .96v.23l-6.19.15v-.98h4.96c-.03-.69-.26-1.23-.69-1.62l-.95-.59c-1.07 0-1.47.1-1.84.31l-.65.47c-.44.75-.55 1.21-.55 1.78v.41l.11 1.14c.45.84.75 1.16 1.11 1.37l.76.31c.95 0 1.39-.11 1.73-.34l.6-.56 1.39-.4-.33.85c-.6.73-.97 1.01-1.42 1.22l-.96.3Zm4.16-.18Zm3.9.18l-1.18-.11c-.93-.41-1.3-.71-1.58-1.08l-.43-.82 1.23-.51.15.5.54.62c.55.27.89.33 1.29.33l.64-.05.63-.35.29-.55-.08-.76-.5-.45-.9-.27c-.73-.13-1.05-.21-1.37-.31l-.61-.23-.7-.54-.36-.77c0-.78.11-1.16.33-1.49l.54-.61c.83-.38 1.31-.47 1.86-.47.81 0 1.47.19 1.97.58l.79.96-1.15.74-.22-.68c-.55-.43-.92-.54-1.4-.54l-.83.1-.61.63.06.69.47.44.86.31c.89.16 1.35.28 1.76.43l.74.37c.51.6.64 1.01.64 1.55l-.12.88c-.47.7-.8.97-1.23 1.18l-.94.28Zm7.62-.18Zm3.22 0l-2.86-7.56h1.32l2.28 6.34 2.29-6.34h1.29l-2.86 7.56H203Zm4.3 0Zm3.51.18l-1.12-.11c-.82-.42-1.12-.71-1.32-1.06l-.3-.75c0-.93.13-1.36.39-1.71l.64-.63c.97-.37 1.55-.47 2.21-.47h1.99c0-.47-.07-.86-.22-1.17l-.35-.56-.89-.4c-.89 0-1.31.12-1.66.36l-.56.6-1.37.47.24-.99c.61-.73 1-1.01 1.47-1.2l.96-.3c1.21 0 1.79.13 2.25.39l.82.61c.46.9.57 1.44.57 2.06v4.68h-1.12l-.08-1.34-.23.41-.49.53-.66.38-.83.2Zm.2-1.07l.66-.07.82-.49c.4-.51.55-.79.65-1.1l.16-.64v-.38h-1.89c-.49 0-.88.06-1.18.18l-.52.27-.32.64.06.76.43.56.79.27Zm4.45.89Zm1.05 0v-10.8h1.26v10.8h-1.26Zm2.29 0Zm1.17 0v-7.56h1.26v7.56h-1.26Zm.63-9.17l-.46-.07-.41-.55.08-.69.54-.39.7.07.42.51-.08.71-.55.41Zm1.81 9.17Zm4.38.18l-1.37-.17c-1.1-.69-1.53-1.17-1.83-1.77l-.45-2.04c0-.76.15-1.43.45-2.02l.73-1.07c1.11-.68 1.75-.85 2.48-.85l1.16.13c.93.5 1.29.84 1.54 1.29v-4.48h1.26v10.8h-1.14l-.1-1.24-.37.48-.8.6c-.7.27-1.1.34-1.56.34Zm.15-1.1l.94-.12c.76-.48 1.05-.8 1.26-1.23l.32-.93c0-1.15-.11-1.65-.32-2.08l-.5-.77c-.76-.48-1.2-.6-1.7-.6l-.93.12c-.76.48-1.05.82-1.26 1.25l-.32.93c0 1.15.11 1.65.32 2.08l.5.75c.76.48 1.2.6 1.69.6Zm4.87.92Zm4.37.18l-1.34-.16c-1.09-.67-1.52-1.12-1.83-1.72l-.46-2.08c0-.8.15-1.5.45-2.08l.74-1.06c1.11-.66 1.75-.82 2.47-.82l1.36.16c1.03.66 1.43 1.1 1.7 1.64l.42 1.11c0 .74 0 .85 0 .96l-.01.23-6.19.15v-.98h4.97c-.03-.69-.26-1.23-.69-1.62l-.95-.59c-1.07 0-1.47.1-1.84.31l-.65.47c-.44.75-.55 1.21-.55 1.78v.41l.11 1.14c.45.84.74 1.16 1.1 1.37l.77.31c.95 0 1.38-.11 1.72-.34l.6-.56 1.4-.4-.33.85c-.6.73-.98 1.01-1.43 1.22l-.95.3Zm4.16-.18Zm1.05 0v-7.56h1.14l.09 1.44.38-.63c.53-.48.85-.67 1.22-.8l.81-.19.48 1.32h-.46l-.63.05-.84.3c-.45.38-.62.64-.75.97l-.18.72v4.38h-1.26Zm8.48 0Zm3.51.18l-1.12-.11c-.82-.42-1.12-.71-1.32-1.06l-.3-.75c0-.93.13-1.36.39-1.71l.64-.63c.97-.37 1.55-.47 2.21-.47h1.99c0-.47-.07-.86-.22-1.17l-.35-.56-.89-.4c-.89 0-1.31.12-1.66.36l-.56.6-1.37.47.24-.99c.61-.73 1-1.01 1.47-1.2l.96-.3c1.21 0 1.79.13 2.25.39l.82.61c.46.9.57 1.44.57 2.06v4.68h-1.12l-.08-1.34-.23.41-.49.53-.66.38-.83.2Zm.2-1.07l.66-.07.82-.49c.4-.51.55-.79.65-1.1l.16-.64v-.38h-1.89c-.49 0-.88.06-1.18.18l-.52.27-.32.64.06.76.43.56.79.27Zm4.17.89Zm3.23 0l-2.87-7.56h1.32l2.28 6.34 2.3-6.34h1.29l-2.87 7.56h-1.45Zm4.3 0Zm3.51.18l-1.12-.11c-.82-.42-1.12-.71-1.32-1.06l-.3-.75c0-.93.13-1.36.39-1.71l.64-.63c.97-.37 1.55-.47 2.21-.47h1.99c0-.47-.07-.86-.22-1.17l-.35-.56-.89-.4c-.89 0-1.31.12-1.66.36l-.56.6-1.37.47.24-.99c.61-.73 1-1.01 1.47-1.2l.96-.3c1.21 0 1.79.13 2.25.39l.82.61c.46.9.57 1.44.57 2.06v4.68h-1.12l-.08-1.34-.23.41-.49.53-.66.38-.83.2Zm.2-1.07l.66-.07.82-.49c.4-.51.55-.79.65-1.1l.16-.64v-.38h-1.89c-.49 0-.88.06-1.18.18l-.52.27-.32.64.06.76.43.56.79.27Zm4.45.89Zm1.05 0v-7.56h1.14l.06 1.32.58-.84c.89-.53 1.4-.66 1.97-.66l1.1.12c.86.47 1.2.82 1.44 1.3l.36 1.08v5.24h-1.26v-4.38c0-.76-.17-1.33-.51-1.71l-.8-.57c-1.03 0-1.41.1-1.74.31l-.59.5c-.39.77-.49 1.25-.49 1.81v4.04h-1.26Zm7.57 0Zm4.02 0l-.84-.07c-.66-.28-.92-.51-1.1-.85l-.25-.79v-4.78h-1.32v-1.07h1.32l.16-1.83h1.1v1.83h2.19v1.07h-2.19v4.21c0 .47.09.79.28.96l.53.24h1.29v1.08h-1.17Zm5.83 0Zm4.37.18l-1.34-.16c-1.09-.67-1.52-1.12-1.83-1.72l-.46-2.08c0-.8.15-1.5.45-2.08l.74-1.06c1.11-.66 1.75-.82 2.47-.82l1.36.16c1.03.66 1.43 1.1 1.7 1.64l.42 1.11c0 .74 0 .85 0 .96l-.01.23-6.19.15v-.98h4.97c-.03-.69-.26-1.23-.69-1.62l-.95-.59c-1.07 0-1.47.1-1.84.31l-.65.47c-.44.75-.55 1.21-.55 1.78v.41l.11 1.14c.45.84.74 1.16 1.1 1.37l.77.31c.95 0 1.38-.11 1.72-.34l.6-.56 1.4-.4-.33.85c-.6.73-.98 1.01-1.43 1.22l-.95.3Zm4.16-.18Zm1.05 0v-7.56h1.14l.06 1.32.58-.84c.89-.53 1.4-.66 1.97-.66l1.1.12c.86.47 1.19.82 1.43 1.3l.36 1.08v5.24h-1.26v-4.38c0-.76-.17-1.33-.51-1.71l-.8-.57c-1.03 0-1.4.1-1.73.31l-.6.5c-.39.77-.48 1.25-.48 1.81v4.04h-1.26Zm7.42 0Zm3.22 0l-2.86-7.56h1.32l2.28 6.34 2.29-6.34h1.29l-2.86 7.56h-1.46Zm4.31 0Zm4.42.18l-1.33-.16c-1.12-.65-1.56-1.11-1.88-1.7l-.48-2.09c0-.81.16-1.51.48-2.09l.78-1.07c1.13-.65 1.76-.81 2.46-.81l1.36.16c1.11.65 1.55 1.11 1.87 1.72l.49 2.08c0 .8-.16 1.5-.49 2.1l-.78 1.05c-1.12.65-1.76.81-2.48.81Zm.02-1.08l.83-.11c.74-.43 1.04-.75 1.27-1.18l.34-.96c0-1.27-.11-1.8-.34-2.22l-.52-.75c-.73-.43-1.13-.54-1.57-.54l-.82.11c-.75.43-1.05.75-1.28 1.18l-.33.95c0 1.27.11 1.8.33 2.23l.53.75c.73.43 1.13.54 1.56.54Zm4.45.9Zm1.17 0v-7.56h1.26v7.56H326.5Zm.63-9.17l-.46-.07-.41-.55.08-.69.54-.39.69.07.43.51-.09.71-.54.41Zm5.79 9.17Zm2.37-3.02l-.06-2.33h.46l.82-.03c.77-.11 1.11-.22 1.4-.36l.54-.4c.35-.59.44-.98.44-1.46l-.09-.79c-.36-.59-.61-.83-.94-.98l-.68-.24c-.85 0-1.21.07-1.53.24l-.57.38-.44.91-1.2.4.14-1.13c.56-.9.95-1.25 1.45-1.5l1.07-.37c1.31 0 1.88.12 2.38.37l.91.61c.57.92.71 1.47.71 2.1l-.16 1.33c-.63.92-1.06 1.26-1.61 1.47l-1.18.32-.77 1.46h-1.09Zm.54 3.09l-.47-.08-.4-.53.08-.68.54-.42.7.09.4.53-.08.69-.52.4Zm0 0" stroke="none" clip-path="url(#b)"/></g></g></svg>