<?xml version="1.0" encoding="UTF-8" standalone="no"?><svg xmlns="http://www.w3.org/2000/svg" xmlns:xlink="http://www.w3.org/1999/xlink" contentScriptType="text/ecmascript" zoomAndPan="magnify" contentStyleType="text/css" stroke="#000000" stroke-linecap="square" version="1" width="332" stroke-miterlimit="10" fill="#000000" preserveAspectRatio="xMidYMid meet" viewBox="0 0 332.41 361.05" height="361"><defs><clipPath id="a"><path d="M0 0V361.05H332.41V0Z"/></clipPath><clipPath id="b" clip-path="url(#a)"><path d="M-419.6 1534.88h1440v-2184h-1440Z"/></clipPath></defs><g><g fill="#ffffff" stroke="#ffffff"><path d="M.4 10.88Zm4.27 0L.73.38H2.1L5.41 9.53 8.76.38h1.33L6.14 10.88H4.67Zm4.78 0Zm4.43.18l-1.33-.16c-1.12-.65-1.56-1.11-1.88-1.7l-.48-2.09c0-.81.16-1.51.48-2.09l.77-1.07c1.13-.65 1.77-.81 2.47-.81l1.35.16c1.11.65 1.55 1.11 1.87 1.72l.5 2.08c0 .8-.17 1.5-.5 2.1l-.77 1.05c-1.12.65-1.76.81-2.48.81Zm.01-1.08l.83-.11c.74-.43 1.04-.75 1.27-1.18l.35-.96c0-1.27-.12-1.8-.35-2.22l-.51-.75c-.73-.43-1.13-.54-1.57-.54l-.82.11c-.75.43-1.05.75-1.28 1.18l-.33.95c0 1.27.11 1.8.33 2.23l.52.75c.73.43 1.13.54 1.56.54Zm4.45.9Zm1.17 0V3.32h1.26v7.56H19.51Zm.63-9.17l-.46-.08-.41-.54.08-.7.54-.38.7.07.42.51-.08.71-.55.41Zm1.81 9.17Zm4.45.18l-1.35-.17c-1.13-.66-1.57-1.12-1.89-1.71l-.48-2.07c0-.8.16-1.49.48-2.08l.76-1.05c1.13-.67 1.77-.84 2.48-.84.9 0 1.65.23 2.25.7.6.46.98 1.08 1.14 1.86H28.5c-.1-.47-.34-.83-.73-1.09l-.85-.39c-.96 0-1.36.11-1.73.33l-.67.53c-.44.86-.55 1.39-.55 2.02l.07.89c.26.73.43 1.03.65 1.27l.48.42.9.31c.68 0 1-.05 1.29-.16l.54-.3.53-.73 1.36-.31-.54 1.38c-1.21.95-1.96 1.19-2.85 1.19Zm4.13-.18Zm1.17 0V3.32h1.26v7.56H31.7Zm.63-9.17l-.46-.08-.41-.54.08-.7.54-.38.7.07.42.51-.08.71-.55.41Zm5.79 9.17Zm3.22 0L38.48 3.32H39.8l2.28 6.34 2.29-6.34h1.29L42.8 10.88H41.34Zm4.31 0Zm4.42.18l-1.33-.16c-1.12-.65-1.56-1.11-1.88-1.7l-.48-2.09c0-.81.16-1.51.48-2.09l.78-1.07c1.13-.65 1.76-.81 2.46-.81l1.36.16c1.11.65 1.55 1.11 1.87 1.72l.49 2.08c0 .8-.16 1.5-.49 2.1l-.78 1.05c-1.12.65-1.76.81-2.48.81Zm.02-1.08l.83-.11c.74-.43 1.04-.75 1.27-1.18l.34-.96c0-1.27-.11-1.8-.34-2.22l-.52-.75c-.73-.43-1.13-.54-1.57-.54l-.82.11c-.75.43-1.05.75-1.28 1.18l-.33.95c0 1.27.11 1.8.33 2.23l.53.75c.73.43 1.13.54 1.56.54Zm4.16.9Zm4.02 0l-.84-.07c-.66-.28-.92-.52-1.1-.85l-.25-.79V4.38H54.76V3.32h1.32l.16-1.83h1.1V3.32h2.19V4.38H57.34V8.6c0 .47.09.79.28.96l.53.24h1.29v1.08H58.27Zm1.85 0Zm1.05 0V3.32h1.14l.09 1.44.39-.63c.53-.48.85-.67 1.22-.8l.81-.19.48 1.32h-.47l-.62.05-.84.3c-.45.38-.63.64-.76.97l-.18.72v4.38H61.17Zm4.23 0Zm4.36.18l-1.34-.17c-1.09-.66-1.51-1.12-1.82-1.71L66.13 7.1c0-.8.15-1.5.45-2.08l.74-1.06c1.11-.66 1.75-.82 2.47-.82l1.37.16c1.03.66 1.42 1.1 1.69 1.64l.42 1.11c0 .74 0 .85 0 .96v.23l-6.19.14V6.4h4.96c-.03-.69-.26-1.23-.69-1.62L70.4 4.2c-1.07 0-1.47.1-1.84.31l-.65.47c-.44.75-.55 1.21-.55 1.78v.41l.11 1.14c.45.84.75 1.16 1.11 1.37l.76.31c.95 0 1.39-.11 1.73-.34l.6-.56 1.39-.4-.33.85c-.6.73-.97 1.01-1.42 1.22l-.96.3Zm8.14-.18Zm5.01.18L82.09 11c-.69-.25-.99-.42-1.25-.63l-.47-.46-.17-.28-.11 1.25H78.95V.08h1.26V4.55c.24-.39.59-.72 1.04-1l1-.42c1.39 0 2.03.17 2.58.52l.98.81c.61 1.19.76 1.87.76 2.63l-.46 2.04c-.3.6-.73 1.07-1.28 1.41l-1.19.51Zm-.15-1.1l.93-.12c.76-.48 1.05-.81 1.26-1.23l.33-.93c0-1.15-.11-1.65-.33-2.08l-.5-.77c-.76-.48-1.2-.6-1.69-.6l-.94.12c-.76.48-1.05.82-1.26 1.25l-.32.93c0 1.15.11 1.65.32 2.08l.5.75c.76.48 1.2.6 1.7.6Zm4.53.92Zm1.05 0V3.32h1.14l.09 1.44.39-.63c.53-.48.85-.67 1.22-.8l.81-.19.48 1.32H92l-.62.05-.84.3c-.45.38-.63.64-.76.97l-.18.72v4.38H88.34Zm4.51 0Zm1.17 0V3.32h1.26v7.56H94.02Zm.63-9.17l-.46-.08-.41-.54.08-.7L94.4 0l.69.07.43.51-.09.71-.54.41Zm1.8 9.17Zm4.36.18l-1.34-.17c-1.09-.66-1.51-1.12-1.82-1.71L97.18 7.1c0-.8.15-1.5.45-2.08l.74-1.06c1.11-.66 1.75-.82 2.47-.82l1.37.16c1.03.66 1.42 1.1 1.69 1.64l.42 1.11c0 .74 0 .85 0 .96v.23l-6.19.14V6.4h4.96c-.03-.69-.26-1.23-.69-1.62l-.95-.59c-1.07 0-1.47.1-1.84.31l-.65.47c-.44.75-.55 1.21-.55 1.78v.41l.11 1.14c.45.84.75 1.16 1.11 1.37l.76.31c.95 0 1.39-.11 1.73-.34l.6-.56 1.39-.4-.33.85c-.6.73-.97 1.01-1.42 1.22l-.96.3Zm4.17-.18Zm1.47 0V4.38h-1.16V3.32h1.16V2.14c0-.48.08-.87.24-1.17l.39-.54c.63-.29 1.02-.36 1.48-.36h.75V1.15h-.55l-.64.07-.41.57V3.32h4.53v7.56h-1.26V4.38h-3.27v6.5h-1.26Zm5.17-9l-.44-.08-.43-.54.09-.7.54-.39.7.08.41.51-.08.71-.54.41Zm1.81 9Zm1.05 0V3.32h1.14l.06 1.32.58-.84c.89-.53 1.4-.66 1.97-.66l1.1.12c.86.47 1.19.82 1.43 1.3l.36 1.07v5.25h-1.26V6.5c0-.76-.17-1.33-.51-1.71l-.8-.57c-1.03 0-1.4.1-1.73.31l-.6.5c-.39.77-.48 1.24-.48 1.81v4.04h-1.26Zm7.56 0Zm4.04 3.48l-1.29-.09c-1.05-.35-1.45-.62-1.74-.98l-.44-.8c0-.76.05-1.01.14-1.27l.26-.51c.47-.5.81-.73 1.24-.93l.87.51-.88.48c-.32.56-.4.83-.4 1.07l.1.6.64.61c.68.22 1.07.27 1.5.27l.8-.05.86-.42.42-.7-.13-.94c-.52-.47-1.01-.61-1.74-.65l-1.09-.09c-.8-.14-1.13-.22-1.39-.31l-.48-.21-.5-.37-.14-.47 1.45-1.44 1.1.39-1.5 1.35.19-.53.22.16.33.2.58.14c.61.08 1.01.13 1.51.16l1.24.17c.83.38 1.13.64 1.31.96l.29.7c0 .87-.12 1.27-.36 1.65l-.59.71c-.98.5-1.61.63-2.38.63Zm-.02-5.85l-1.17-.12c-.89-.48-1.22-.8-1.45-1.2l-.35-.87c0-1 .12-1.45.35-1.85l.58-.71c.88-.49 1.41-.62 2.04-.62l1.17.13c.88.49 1.21.8 1.44 1.2l.35.85c0 1-.12 1.46-.35 1.87l-.56.72c-.88.48-1.42.6-2.05.6Zm0-1.04l.97-.14c.62-.56.77-.97.77-1.51l-.15-.93c-.62-.56-1.05-.7-1.59-.7l-.96.14c-.65.56-.81.96-.81 1.49l.16.95c.64.56 1.07.7 1.61.7Zm1.23-3.09l-.37-1.06h3.09v.95l-2.72.11Zm7.1 6.5Zm4.38.18l-1.37-.17c-1.1-.69-1.53-1.17-1.83-1.77l-.45-2.04c0-.76.15-1.43.45-2.02l.73-1.07c1.11-.68 1.75-.85 2.48-.85l1.16.13c.93.5 1.29.84 1.54 1.29V.08h1.26v10.8H141.6l-.1-1.25-.37.49-.8.6c-.7.27-1.1.34-1.56.34Zm.15-1.1l.94-.12c.76-.48 1.05-.81 1.26-1.23l.32-.93c0-1.15-.11-1.65-.32-2.08l-.5-.77c-.76-.48-1.2-.6-1.7-.6l-.93.12c-.76.48-1.05.82-1.26 1.25l-.32.93c0 1.15.11 1.65.32 2.08l.5.75c.76.48 1.2.6 1.69.6Zm4.87.92Zm3.8.18l-1.09-.12c-.87-.46-1.21-.81-1.45-1.29l-.34-1.08V3.32h1.26V7.71c0 .75.16 1.32.49 1.7l.8.57c1.02 0 1.4-.1 1.74-.3l.6-.51c.39-.77.49-1.24.49-1.8V3.32h1.26v7.56h-1.14l-.07-1.32-.57.84c-.9.53-1.41.66-1.98.66Zm8.79-.18Zm2.28 0V1.78l-1.8.45v-.9l2.22-.96h.85v10.5h-1.27Zm2.39 0Zm4.56.18l-1.29-.13c-1.08-.51-1.51-.86-1.83-1.31l-.48-.99c0-1.03.08-1.43.25-1.8l.41-.69c.61-.55.96-.75 1.36-.86l-.99-.51c-.61-.84-.76-1.29-.76-1.78l.13-.99c.54-.84.92-1.18 1.41-1.43l1.1-.37c1.39 0 1.98.12 2.47.37l.88.59c.53.84.67 1.31.67 1.83l-.16.94c-.61.84-1.04 1.15-1.6 1.35l.77.31c.61.55.84.87 1 1.24l.26.77c0 1.03-.16 1.56-.48 2.02l-.74.8c-1.09.51-1.7.64-2.38.64Zm0-1.11l1.37-.18c.77-.73.97-1.22.97-1.82l-.22-1.19c-.85-.7-1.41-.88-2.12-.88l-1.28.18c-.85.7-1.06 1.21-1.06 1.89l.19 1.09c.78.73 1.37.91 2.15.91Zm0-5.12l1.13-.16c.74-.66.92-1.09.92-1.61l-.18-1.03c-.73-.6-1.23-.75-1.87-.75l-1.13.15c-.73.6-.91 1.04-.91 1.63l.18.95c.73.66 1.23.82 1.86.82Zm8.55 6.05Zm1.05 0V3.32h1.14l.07 1.08.56-.7c.81-.44 1.26-.56 1.74-.56l.74.05.91.37c.48.43.67.71.82 1.03l.62-.81c.91-.51 1.4-.64 1.92-.64l1.08.12c.87.47 1.21.82 1.44 1.3l.36 1.07v5.25h-1.25V6.5c0-.76-.15-1.33-.46-1.71l-.75-.57c-.95 0-1.3.1-1.61.31l-.55.5c-.36.78-.45 1.26-.45 1.83v4.02h-1.26V6.5c0-.76-.16-1.33-.47-1.71l-.75-.57c-.95 0-1.29.1-1.6.31l-.54.5c-.36.78-.45 1.26-.45 1.83v4.02h-1.26Zm12.31 0Zm3.51.18l-1.12-.11c-.82-.43-1.13-.71-1.33-1.06l-.3-.75c0-.93.13-1.36.39-1.71l.65-.63c.97-.37 1.54-.47 2.2-.47h2c0-.47-.08-.86-.23-1.17l-.35-.56-.89-.4c-.89 0-1.3.12-1.65.36l-.57.6-1.37.47.24-.99c.61-.73 1-1.01 1.47-1.2l.96-.3c1.21 0 1.79.13 2.25.39l.82.6c.46.91.58 1.45.58 2.07v4.68h-1.13l-.07-1.34-.23.41-.49.53-.66.38-.83.2Zm.19-1.07l.67-.07.81-.49c.4-.51.55-.79.65-1.1l.17-.64V7.3h-1.89c-.49 0-.89.06-1.19.18l-.51.27-.33.64.06.76.44.56.78.27Zm4.46.89Zm1.05 0V3.32h1.14l.09 1.44.38-.63c.53-.48.85-.67 1.22-.8l.81-.19.48 1.32h-.46l-.63.05-.84.3c-.45.38-.62.64-.75.97l-.18.72v4.38h-1.26Zm4.5 0Zm3.9.18l-1.18-.11c-.93-.42-1.3-.71-1.58-1.08l-.43-.82 1.23-.51.15.5.54.62c.55.27.89.33 1.29.33l.64-.05.63-.35.29-.56-.08-.75-.5-.45-.9-.27c-.73-.13-1.05-.21-1.37-.31l-.61-.23-.7-.54-.36-.77c0-.78.11-1.16.33-1.49l.54-.61c.83-.38 1.31-.47 1.86-.47.81 0 1.47.19 1.97.58l.79.96-1.15.74-.22-.68c-.55-.43-.92-.54-1.4-.54l-.83.1-.61.63.06.69.47.44.86.31c.89.16 1.35.28 1.76.43l.74.37c.51.6.64 1.01.64 1.55l-.12.88c-.47.7-.8.97-1.23 1.17l-.94.29Zm7.61-.18Zm1.5.07l-.46-.08-.41-.53.08-.68.54-.42.71.09.4.53-.08.68-.53.41Zm0-6.1l-.46-.08-.41-.54.08-.68.54-.41.71.08.4.54-.08.68-.53.41ZM.4 60.88Zm1.13 0V50.38H4.95c.83 0 1.5.14 2.03.42l.94.63c.51.92.64 1.45.64 2.04l-.13 1.09c-.51.93-.9 1.3-1.43 1.58l-2.05.42H2.79v4.32H1.53Zm1.26-5.39H4.93c.84 0 1.44-.18 1.8-.55l.54-.86c0-1.26-.18-1.76-.54-2.11l-.96-.54H2.79v4.06ZM9.1 60.88Zm1.05 0V53.32h1.14l.09 1.44.39-.63c.53-.48.85-.67 1.22-.8l.81-.19.48 1.32h-.47l-.62.05-.84.3c-.45.38-.63.64-.76.97l-.18.72v4.38H10.15Zm4.5 0Zm1.17 0V53.32h1.26v7.56H15.82Zm.63-9.17l-.46-.08-.41-.54.08-.7.54-.38.7.07.42.51-.08.71-.55.41Zm1.81 9.17Zm4.42.18l-1.33-.16c-1.12-.65-1.56-1.11-1.88-1.7l-.48-2.09c0-.81.16-1.51.48-2.09l.78-1.07c1.13-.65 1.76-.81 2.46-.81l1.36.16c1.11.65 1.55 1.11 1.87 1.72l.49 2.08c0 .8-.16 1.5-.49 2.1l-.78 1.05c-1.12.65-1.76.81-2.48.81Zm.02-1.08l.83-.11c.74-.43 1.04-.75 1.27-1.18l.34-.96c0-1.27-.11-1.8-.34-2.22l-.52-.75c-.73-.43-1.13-.54-1.57-.54l-.82.11c-.75.43-1.05.75-1.28 1.18l-.33.95c0 1.27.11 1.8.33 2.23l.53.75c.73.43 1.13.54 1.56.54Zm4.45.9Zm1.05 0V53.32h1.14l.09 1.44.38-.63c.53-.48.85-.67 1.22-.8l.81-.19.48 1.32h-.46l-.63.05-.84.3c-.45.38-.62.64-.75.97l-.18.72v4.38H28.2Zm4.5 0Zm1.17 0V53.32h1.26v7.56H33.87Zm.63-9.17l-.46-.08-.41-.54.08-.7.54-.38.69.07.43.51-.09.71-.54.41Zm1.8 9.17Zm4.02 0l-.84-.07c-.66-.28-.91-.52-1.09-.85l-.26-.79V54.38H36.81V53.32h1.32l.17-1.83h1.09v1.83h2.19v1.06H39.39V58.6c0 .47.1.79.29.96l.52.24h1.29v1.08H40.32Zm1.65 0Zm4.37.18L45 60.88c-1.09-.66-1.52-1.11-1.83-1.71l-.46-2.08c0-.8.15-1.5.45-2.08l.74-1.06c1.11-.66 1.75-.82 2.47-.82l1.36.16c1.03.66 1.43 1.1 1.7 1.64l.42 1.11c0 .74 0 .85 0 .96l-.01.23-6.19.14V56.4h4.97c-.03-.69-.26-1.23-.69-1.62l-.95-.59c-1.07 0-1.47.1-1.84.31l-.65.47c-.44.75-.55 1.21-.55 1.78v.41l.11 1.14c.45.84.74 1.16 1.1 1.37l.77.31c.95 0 1.38-.11 1.72-.34l.6-.56 1.4-.4-.33.85c-.6.73-.98 1.01-1.43 1.22l-.95.3Zm-1.5-8.39l-.14-.9 3.02-1.92.18 1.08-3.06 1.74Zm5.66 8.21Zm3.9.18l-1.18-.11c-.93-.42-1.3-.71-1.58-1.08l-.44-.82 1.23-.51.16.5.53.62c.55.27.89.33 1.29.33l.64-.05.63-.35.29-.56-.07-.75-.5-.45-.9-.27c-.73-.13-1.06-.21-1.38-.31l-.6-.23-.7-.54-.36-.77c0-.78.11-1.16.33-1.49l.53-.61c.83-.38 1.32-.47 1.87-.47.81 0 1.46.19 1.96.58l.8.96-1.16.74-.21-.68c-.55-.43-.93-.54-1.41-.54l-.83.1-.61.63.07.69.47.44.86.31c.89.16 1.34.28 1.75.43l.74.37c.51.6.64 1.01.64 1.55l-.12.88c-.47.7-.8.97-1.23 1.17l-.93.29Zm7.61-.18Zm4.38.18l-1.37-.17c-1.1-.69-1.52-1.17-1.82-1.77l-.45-2.04c0-.76.15-1.43.45-2.02l.72-1.07c1.11-.68 1.76-.85 2.49-.85l1.16.13c.93.5 1.29.84 1.54 1.29V50.08h1.26v10.8H69.23l-.11-1.25-.36.49-.8.6c-.7.27-1.11.34-1.57.34Zm.15-1.1l.94-.12c.76-.48 1.06-.81 1.27-1.23l.31-.93c0-1.15-.1-1.65-.31-2.08l-.51-.77c-.76-.48-1.2-.6-1.7-.6l-.92.12c-.76.48-1.06.82-1.27 1.25l-.31.93c0 1.15.1 1.65.31 2.08l.51.75c.76.48 1.19.6 1.68.6Zm4.88.92Zm3.79.18l-1.09-.12c-.87-.46-1.2-.81-1.44-1.29l-.35-1.08V53.32h1.26v4.39c0 .75.17 1.32.5 1.7l.79.57c1.02 0 1.4-.1 1.74-.3l.61-.51c.39-.77.49-1.24.49-1.8V53.32h1.26v7.56H77.84l-.08-1.32-.57.84c-.9.53-1.41.66-1.98.66ZM84 60.88Zm-.41 3.3V63.1h.59l.65-.08.4-.57V53.32h1.26v8.79c0 .48-.08.87-.24 1.17l-.4.53c-.63.29-1.02.37-1.48.37h-.78Zm2.28-12.47l-.46-.08-.41-.54.08-.7.54-.38.69.07.42.51-.09.71-.53.41Zm1.78 9.17Zm4.42.18l-1.33-.16c-1.12-.65-1.56-1.11-1.88-1.7l-.48-2.09c0-.81.16-1.51.48-2.09l.78-1.07c1.13-.65 1.76-.81 2.46-.81l1.36.16c1.11.65 1.55 1.11 1.87 1.72l.49 2.08c0 .8-.16 1.5-.49 2.1l-.78 1.05c-1.12.65-1.76.81-2.48.81Zm.02-1.08l.83-.11c.74-.43 1.04-.75 1.27-1.18l.34-.96c0-1.27-.11-1.8-.34-2.22l-.52-.75c-.73-.43-1.13-.54-1.57-.54l-.82.11c-.75.43-1.05.75-1.28 1.18l-.33.95c0 1.27.11 1.8.33 2.23l.53.75c.73.43 1.13.54 1.56.54Zm4.45.9Zm3.79.18l-1.09-.12c-.87-.46-1.2-.81-1.44-1.29l-.35-1.08V53.32h1.26v4.39c0 .75.17 1.32.5 1.7l.79.57c1.02 0 1.4-.1 1.74-.3l.61-.51c.39-.77.49-1.24.49-1.8V53.32h1.26v7.56h-1.14l-.08-1.32-.57.84c-.9.53-1.41.66-1.98.66Zm4.81-.18Zm1.05 0V53.32h1.14l.09 1.44.38-.63c.53-.48.85-.67 1.22-.8l.81-.19.48 1.32h-.46l-.63.05-.84.3c-.45.38-.62.64-.75.97l-.18.72v4.38h-1.26Zm8.48 0Zm1.5.07l-.46-.08-.41-.53.08-.68.54-.42.71.09.4.53-.08.68-.53.41Zm0-6.1l-.46-.08-.41-.54.08-.68.54-.41.71.08.4.54-.08.68-.53.41ZM.4 85.88Zm2.28 0V76.78l-1.8.45v-.9l2.22-.96h.85v10.5H2.68Zm2.39 0Zm1.5.07l-.46-.08-.41-.53.08-.68.54-.42.71.09.4.53-.08.68-.53.41Zm24.45-.07Zm2.28 0V76.78l-1.8.45v-.9l2.22-.96h.85v10.5H33.3Zm2.39 0Zm4.56.18l-1.29-.13c-1.08-.51-1.51-.86-1.83-1.31l-.48-.99c0-1.03.08-1.43.25-1.8l.41-.69c.61-.55.96-.75 1.36-.86l-.99-.5c-.61-.85-.76-1.3-.76-1.79l.13-.99c.54-.84.92-1.18 1.41-1.43l1.1-.37c1.39 0 1.98.12 2.47.37l.88.59c.53.84.67 1.31.67 1.83l-.16.94c-.61.85-1.04 1.15-1.6 1.35l.77.31c.61.55.84.87 1 1.24l.26.77c0 1.03-.16 1.56-.48 2.02l-.74.8c-1.09.51-1.7.64-2.38.64Zm0-1.11l1.37-.18c.77-.73.97-1.22.97-1.82l-.22-1.19c-.85-.7-1.41-.88-2.12-.88l-1.28.18c-.85.7-1.06 1.21-1.06 1.89l.19 1.09c.78.73 1.37.91 2.15.91Zm0-5.12l1.13-.16c.74-.66.92-1.09.92-1.61l-.18-1.03c-.73-.6-1.23-.75-1.87-.75l-1.13.15c-.73.6-.91 1.04-.91 1.63l.18.95c.73.66 1.23.82 1.86.82Zm8.55 6.05Zm1.05 0V78.32h1.14l.09 1.44.38-.63c.53-.48.85-.67 1.22-.8l.81-.19.48 1.32h-.46l-.63.05-.84.3c-.45.38-.62.64-.75.97l-.18.72v4.38H49.85Zm4.22 0Zm4.37.18l-1.34-.17c-1.09-.66-1.52-1.11-1.83-1.71l-.46-2.08c0-.8.15-1.5.45-2.08L56 78.96c1.11-.66 1.75-.82 2.47-.82l1.36.16c1.03.66 1.43 1.1 1.7 1.64l.42 1.11c0 .74 0 .85 0 .96l-.01.23-6.19.14V81.4h4.97c-.03-.69-.26-1.23-.69-1.62l-.95-.59c-1.07 0-1.47.1-1.84.31l-.65.47c-.44.75-.55 1.21-.55 1.78v.41l.11 1.14c.45.84.74 1.16 1.1 1.37l.77.31c.95 0 1.38-.11 1.72-.34l.6-.56 1.4-.4-.33.85c-.6.73-.98 1.01-1.43 1.22l-.95.3Zm4.16-.18Zm1.05 0V75.08h1.26v10.8H63.65Zm2.29 0Zm3.51.18l-1.12-.11c-.82-.42-1.13-.71-1.33-1.06l-.3-.75c0-.93.13-1.36.39-1.71l.65-.63c.97-.37 1.54-.47 2.2-.47h2c0-.47-.08-.86-.23-1.17l-.35-.56-.89-.4c-.89 0-1.3.12-1.65.36l-.57.6-1.37.47.24-.99c.61-.73 1-1.01 1.47-1.2l.96-.3c1.21 0 1.79.13 2.25.39l.82.6c.46.91.58 1.45.58 2.07v4.68H72.07L72 84.53l-.23.41-.49.53-.66.38-.83.2Zm.19-1.07l.67-.07.81-.49c.4-.51.55-.79.65-1.1l.17-.64V82.3H70.05c-.49 0-.89.06-1.19.18l-.51.27-.33.64.06.76.44.56.78.27Zm4.46.89Zm1.05 0V78.32h1.14l.06 1.32.58-.84c.89-.52 1.4-.66 1.97-.66l1.1.12c.86.47 1.19.82 1.43 1.3l.36 1.07v5.25H80.53V81.5c0-.76-.17-1.33-.51-1.71l-.8-.57c-1.03 0-1.4.1-1.73.31l-.6.5c-.39.77-.48 1.24-.48 1.81v4.04H75.15Zm7.56 0Zm4.45.18l-1.35-.17c-1.13-.66-1.57-1.11-1.89-1.71l-.48-2.07c0-.8.16-1.49.48-2.08l.76-1.05c1.13-.67 1.77-.84 2.48-.84.9 0 1.65.23 2.25.7.6.46.98 1.08 1.14 1.86H89.26c-.1-.47-.34-.83-.73-1.09l-.85-.39c-.96 0-1.36.11-1.73.33l-.67.53c-.44.86-.55 1.39-.55 2.02l.07.89c.26.73.43 1.03.65 1.27l.48.42.9.31c.68 0 1-.05 1.29-.16l.54-.3.53-.73 1.36-.31-.54 1.38c-1.21.95-1.96 1.19-2.85 1.19Zm4.13-.18Zm4.37.18l-1.34-.17c-1.09-.66-1.52-1.11-1.83-1.71l-.46-2.08c0-.8.15-1.5.45-2.08l.74-1.06c1.11-.66 1.75-.82 2.47-.82l1.36.16c1.03.66 1.43 1.1 1.7 1.64l.42 1.11c0 .74 0 .85 0 .96l-.01.23-6.19.14V81.4h4.97c-.03-.69-.26-1.23-.69-1.62l-.95-.59c-1.07 0-1.47.1-1.84.31l-.65.47c-.44.75-.55 1.21-.55 1.78v.41l.11 1.14c.45.84.74 1.16 1.1 1.37l.77.31c.95 0 1.38-.11 1.72-.34l.6-.56 1.4-.4-.33.85c-.6.73-.98 1.01-1.43 1.22l-.95.3Zm4.16-.18Zm3.9.18l-1.18-.11c-.93-.42-1.3-.71-1.58-1.08l-.44-.82 1.23-.51.16.5.53.62c.55.27.89.33 1.29.33l.64-.05.63-.35.29-.56-.07-.75-.5-.45-.9-.27c-.73-.13-1.06-.21-1.38-.31l-.6-.23-.7-.54-.36-.77c0-.78.11-1.16.33-1.49l.53-.61c.83-.38 1.32-.47 1.87-.47.81 0 1.46.19 1.96.58l.8.96-1.16.74-.21-.68c-.55-.43-.93-.54-1.41-.54l-.83.1-.61.63.07.69.47.44.86.31c.89.16 1.34.28 1.75.43l.74.37c.51.6.64 1.01.64 1.55l-.12.88c-.47.7-.8.97-1.23 1.17l-.93.29Zm7.61-.18Zm1.17 0V78.32h1.26v7.56H112.5Zm.63-9.17l-.46-.08-.41-.54.08-.7.54-.38.7.07.42.51-.08.71-.55.41Zm1.81 9.17Zm1.05 0V78.32h1.14l.07 1.08.56-.7c.81-.44 1.26-.56 1.74-.56l.74.05.91.37c.48.43.67.71.82 1.03l.62-.81c.91-.51 1.4-.64 1.92-.64l1.08.12c.87.47 1.21.82 1.44 1.3l.36 1.07v5.25h-1.25V81.5c0-.76-.15-1.33-.46-1.71l-.75-.57c-.95 0-1.3.1-1.61.31l-.55.5c-.36.78-.45 1.26-.45 1.83v4.02h-1.26V81.5c0-.76-.16-1.33-.47-1.71l-.75-.57c-.95 0-1.29.1-1.6.31l-.54.5c-.36.78-.45 1.26-.45 1.83v4.02h-1.26Zm12.31 0Zm1.05 3.3V78.32h1.14l.1 1.23.37-.47.8-.6c.7-.27 1.1-.34 1.55-.34l1.38.17c1.09.71 1.51 1.18 1.81 1.78l.47 2.02c0 .76-.16 1.44-.47 2.04l-.72 1.06c-1.1.68-1.75.85-2.49.85l-1.15-.13c-.93-.5-1.28-.85-1.53-1.3v4.55h-1.26Zm3.81-4.22l.92-.12c.76-.48 1.06-.81 1.27-1.23l.33-.93c0-1.15-.11-1.65-.33-2.08l-.51-.77c-.76-.48-1.19-.6-1.68-.6l-.94.12c-.76.48-1.06.82-1.27 1.25l-.31.93c0 1.15.1 1.65.31 2.08l.51.75c.76.48 1.2.6 1.7.6Zm4.53.92Zm3.51.18l-1.12-.11c-.82-.42-1.13-.71-1.33-1.06l-.3-.75c0-.93.13-1.36.39-1.71l.65-.63c.97-.37 1.54-.47 2.2-.47h2c0-.47-.08-.86-.23-1.17l-.35-.56-.89-.4c-.89 0-1.3.12-1.65.36l-.57.6-1.37.47.24-.99c.61-.73 1-1.01 1.47-1.2l.96-.3c1.21 0 1.79.13 2.25.39l.82.6c.46.91.58 1.45.58 2.07v4.68h-1.13l-.07-1.34-.23.41-.49.53-.66.38-.83.2Zm.19-1.07l.67-.07.81-.49c.4-.51.55-.79.65-1.1l.17-.64V82.3H141.8c-.49 0-.89.06-1.19.18l-.51.27-.33.64.06.76.44.56.78.27Zm4.23.89Zm1.88 3.3l1.84-4.14h-.43l-2.97-6.72h1.36l2.46 5.77 2.58-5.77h1.31l-4.83 10.86H147.5Zm5.76-3.3Zm4.36.18l-1.34-.17c-1.09-.66-1.51-1.11-1.82-1.71l-.47-2.08c0-.8.15-1.5.45-2.08l.74-1.06c1.11-.66 1.75-.82 2.47-.82l1.37.16c1.03.66 1.42 1.1 1.69 1.64l.42 1.11c0 .74 0 .85 0 .96v.23l-6.19.14V81.4h4.96c-.03-.69-.26-1.23-.69-1.62l-.95-.59c-1.07 0-1.47.1-1.84.31l-.65.47c-.44.75-.55 1.21-.55 1.78v.41l.11 1.14c.45.84.75 1.16 1.11 1.37l.76.31c.95 0 1.39-.11 1.73-.34l.6-.56 1.39-.4-.33.85c-.6.73-.97 1.01-1.42 1.22l-.96.3Zm-1.5-8.39l-.13-.9L159 74.85l.18 1.08-3.06 1.74Zm5.66 8.21Zm4.37.18l-1.34-.17c-1.09-.66-1.52-1.11-1.83-1.71l-.46-2.08c0-.8.15-1.5.45-2.08l.74-1.06c1.11-.66 1.75-.82 2.47-.82l1.36.16c1.03.66 1.43 1.1 1.7 1.64l.42 1.11c0 .74 0 .85 0 .96l-.01.23-6.19.14V81.4h4.97c-.03-.69-.26-1.23-.69-1.62l-.95-.59c-1.07 0-1.47.1-1.84.31l-.65.47c-.44.75-.55 1.21-.55 1.78v.41l.11 1.14c.45.84.74 1.16 1.1 1.37l.77.31c.95 0 1.38-.11 1.72-.34l.6-.56 1.4-.4-.33.85c-.6.73-.98 1.01-1.43 1.22l-.95.3Zm4.16-.18Zm3.9.18l-1.18-.11c-.93-.42-1.3-.71-1.58-1.08l-.44-.82 1.23-.51.16.5.53.62c.55.27.89.33 1.29.33l.64-.05.63-.35.29-.56-.07-.75-.5-.45-.9-.27c-.73-.13-1.06-.21-1.38-.31l-.6-.23-.7-.54-.36-.77c0-.78.11-1.16.33-1.49l.53-.61c.83-.38 1.32-.47 1.87-.47.81 0 1.46.19 1.96.58l.8.96-1.16.74-.21-.68c-.55-.43-.93-.54-1.41-.54l-.83.1-.61.63.07.69.47.44.86.31c.89.16 1.34.28 1.75.43l.74.37c.51.6.64 1.01.64 1.55l-.12.88c-.47.7-.8.97-1.23 1.17l-.93.29Zm7.61-.18Zm1.08-3.9V80.9h10.92v1.07H182.9Zm16 3.9Zm.35-3.63v-.95h6.48v.95h-6.48Zm0-2.31V79h6.48v.93h-6.48Zm6.15 6.12c-1.02 0-1.91-.23-2.66-.68s-1.31-1.09-1.71-1.9c-.4-.82-.6-1.77-.6-2.85s.2-2.03.6-2.84.97-1.45 1.71-1.9 1.64-.69 2.66-.69c1.2 0 2.17.28 2.92.85s1.23 1.38 1.44 2.42h-1.39c-.16-.65-.49-1.17-.98-1.56s-1.15-.6-1.99-.6l-1.95.52c-.55.34-.98.84-1.28 1.49l-.45 2.31c0 .9.15 1.67.45 2.32l.73 1.14c1.1.69 1.75.86 2.5.86.84 0 1.5-.19 1.99-.57l.82-.91 1.55-.64-.69 1.8c-1.5 1.14-2.47 1.43-3.67 1.43Zm5.07-.18Zm4.4.18l-1.28-.12c-1.09-.49-1.52-.86-1.84-1.35l-.49-1.1 1.25-.73.11.77c.37.67.64.93.99 1.13l.77.3c.98 0 1.39-.09 1.72-.28l.58-.44c.34-.63.42-.98.42-1.38l-.12-.88c-.47-.61-.78-.84-1.18-.97l-.82-.23h-1.25V79.71h.78c.69 0 1.23-.16 1.62-.48l.58-.76c0-1.02-.15-1.4-.46-1.71l-.76-.47c-1.21 0-1.68.17-2.03.51l-.55.78-1.33.53.19-1.08c.56-.88.94-1.22 1.42-1.46l1.04-.37c1.33 0 1.9.12 2.36.36l.81.56c.47.8.59 1.24.59 1.72l-.07.7-.45.9c-.52.48-.85.65-1.25.75l.77.24c.65.46.91.76 1.1 1.13l.29.8c0 1.07-.14 1.6-.41 2.09l-.65.87c-1.04.59-1.68.74-2.45.74Zm4.47-.18Zm4.56.18l-1.29-.13c-1.08-.51-1.51-.86-1.83-1.31l-.48-.99c0-1.03.08-1.43.25-1.8l.41-.69c.61-.55.96-.75 1.36-.86l-.99-.5c-.61-.85-.76-1.3-.76-1.79l.13-.99c.54-.84.92-1.18 1.41-1.43l1.1-.37c1.39 0 1.98.12 2.47.37l.88.59c.53.84.67 1.31.67 1.83l-.16.94c-.61.85-1.04 1.15-1.6 1.35l.77.31c.61.55.84.87 1 1.24l.26.77c0 1.03-.16 1.56-.48 2.02l-.74.8c-1.09.51-1.7.64-2.38.64Zm0-1.11l1.37-.18c.77-.73.97-1.22.97-1.82l-.22-1.19c-.85-.7-1.41-.88-2.12-.88l-1.28.18c-.85.7-1.06 1.21-1.06 1.89l.19 1.09c.78.73 1.37.91 2.15.91Zm0-5.12l1.13-.16c.74-.66.92-1.09.92-1.61l-.18-1.03c-.73-.6-1.23-.75-1.87-.75l-1.13.15c-.73.6-.91 1.04-.91 1.63l.18.95c.73.66 1.23.82 1.86.82Zm8.55 6.05Zm5.88 0V83.62H233v-.98l5.1-7.27h1.47v7.14h1.56v1.11h-1.56v2.25h-1.24Zm-3.93-3.36h3.99V76.76l-3.99 5.75Zm7.16 3.36Zm5.14.18c-.92 0-1.71-.23-2.38-.68-.66-.46-1.17-1.09-1.52-1.9l-.52-2.85c0-1.08.17-2.03.52-2.84s.86-1.45 1.52-1.9c.67-.46 1.46-.69 2.38-.69s1.71.23 2.36.69c.66.45 1.16 1.08 1.51 1.9l.53 2.84c0 1.08-.18 2.03-.53 2.85-.35.81-.85 1.44-1.51 1.9-.65.45-1.44.68-2.36.68Zm-.01-1.11l1.13-.17c.94-.69 1.31-1.19 1.58-1.83l.41-2.32c0-.9-.14-1.67-.41-2.31l-.64-1.15c-.94-.68-1.47-.85-2.07-.85l-1.14.17c-.95.68-1.32 1.18-1.59 1.83l-.39 2.31c0 .9.13 1.67.39 2.32l.64 1.14c.95.69 1.49.86 2.09.86Zm5.12.93Zm5.15.18c-.92 0-1.72-.23-2.39-.68-.66-.46-1.16-1.09-1.51-1.9l-.53-2.85c0-1.08.18-2.03.53-2.84s.85-1.45 1.51-1.9c.67-.46 1.47-.69 2.39-.69s1.7.23 2.35.69c.66.45 1.17 1.08 1.52 1.9l.52 2.84c0 1.08-.17 2.03-.52 2.85-.35.81-.86 1.44-1.52 1.9-.65.45-1.43.68-2.35.68Zm-.02-1.11l1.14-.17c.94-.69 1.31-1.19 1.58-1.83l.4-2.32c0-.9-.13-1.67-.4-2.31l-.64-1.15c-.94-.68-1.48-.85-2.08-.85l-1.14.17c-.95.68-1.32 1.18-1.59 1.83l-.39 2.31c0 .9.13 1.67.39 2.32l.64 1.14c.95.69 1.49.86 2.09.86Zm9.11.93Zm3.73 2.17l-1.5-1.86c-.46-.71-.83-1.51-1.11-2.4l-.4-2.91c0-1.05.13-2.02.4-2.91l1.11-2.41c.46-.72.96-1.34 1.5-1.85h1.29v.12l-1.6 2.01c-.45.74-.81 1.54-1.07 2.39l-.37 2.65c0 .93.12 1.82.37 2.67l1.08 2.37c.46.74.99 1.41 1.59 2.01v.12h-1.29Zm1.35-2.17Zm.45 0l3.87-10.5h1.34l3.85 10.5h-1.33l-3.2-8.93-3.21 8.93h-1.32Zm1.77-2.7l.36-1.02h4.76l.36 1.02h-5.48Zm7.74 2.7Zm4.04 3.48l-1.29-.09c-1.05-.35-1.45-.62-1.74-.98l-.44-.8c0-.76.05-1.01.14-1.27l.26-.51c.47-.5.81-.73 1.24-.93l.87.51-.88.48c-.32.56-.4.83-.4 1.07l.1.6.64.61c.68.22 1.07.27 1.5.27l.8-.05.86-.42.42-.7-.13-.94c-.52-.47-1.01-.61-1.74-.65l-1.09-.09c-.8-.14-1.13-.22-1.39-.31l-.48-.21-.5-.37-.14-.47 1.45-1.44 1.1.39-1.5 1.35.19-.53.22.16.33.2.58.14c.61.08 1.01.13 1.51.16l1.24.17c.83.38 1.13.64 1.31.96l.29.7c0 .87-.12 1.27-.36 1.65l-.59.71c-.98.5-1.61.63-2.38.63Zm-.02-5.85l-1.17-.12c-.89-.48-1.22-.8-1.45-1.2l-.35-.87c0-1 .12-1.45.35-1.85l.58-.71c.88-.49 1.41-.62 2.04-.62l1.17.13c.88.49 1.21.8 1.44 1.2l.35.85c0 1-.12 1.46-.35 1.87l-.56.72c-.88.48-1.42.6-2.05.6Zm0-1.04l.97-.14c.62-.56.77-.97.77-1.51l-.15-.93c-.62-.56-1.05-.7-1.59-.7l-.96.14c-.65.56-.81.96-.81 1.49l.16.95c.64.56 1.07.7 1.61.7Zm1.23-3.09l-.37-1.06h3.09v.95l-2.72.11Zm2.82 6.5Zm4.37.18l-1.34-.17c-1.09-.66-1.52-1.11-1.83-1.71l-.46-2.08c0-.8.15-1.5.45-2.08l.74-1.06c1.11-.66 1.75-.82 2.47-.82l1.36.16c1.03.66 1.43 1.1 1.7 1.64l.42 1.11c0 .74 0 .85 0 .96l-.01.23-6.19.14V81.4h4.97c-.03-.69-.26-1.23-.69-1.62l-.95-.59c-1.07 0-1.47.1-1.84.31l-.65.47c-.44.75-.55 1.21-.55 1.78v.41l.11 1.14c.45.84.74 1.16 1.1 1.37l.77.31c.95 0 1.38-.11 1.72-.34l.6-.56 1.4-.4-.33.85c-.6.73-.98 1.01-1.43 1.22l-.95.3Zm4.16-.18Zm1.05 0V78.32h1.14l.06 1.32.58-.84c.89-.52 1.4-.66 1.97-.66l1.1.12c.86.47 1.2.82 1.44 1.3l.36 1.07v5.25h-1.26V81.5c0-.76-.17-1.33-.51-1.71l-.8-.57c-1.03 0-1.41.1-1.74.31l-.59.5c-.39.77-.49 1.24-.49 1.81v4.04h-1.26Zm7.56 0Zm4.02 0l-.84-.07c-.66-.28-.91-.52-1.09-.85l-.26-.79V79.38h-1.32V78.32h1.32l.17-1.83h1.09v1.83h2.19v1.06h-2.19V83.6c0 .47.1.79.29.96l.52.24h1.29v1.08h-1.17ZM.4 110.88Zm5.68.18c-1.01 0-1.9-.23-2.65-.68-.74-.46-1.31-1.09-1.71-1.9-.4-.82-.6-1.77-.6-2.85s.2-2.03.6-2.84.97-1.45 1.71-1.9c.75-.46 1.64-.69 2.65-.69 1.21 0 2.18.28 2.93.85s1.23 1.38 1.44 2.42H9.05c-.16-.65-.48-1.17-.97-1.56s-1.16-.6-2-.6l-1.95.52c-.55.34-.97.84-1.27 1.49l-.45 2.31c0 .9.15 1.67.45 2.32l.72 1.14c1.11.69 1.75.86 2.5.86.84 0 1.51-.19 2-.57l.81-.91 1.56-.64-.69 1.8c-1.5 1.14-2.47 1.43-3.68 1.43Zm5.07-.18Zm4.43.18l-1.33-.16c-1.12-.65-1.56-1.11-1.88-1.7l-.48-2.09c0-.81.16-1.51.48-2.09l.77-1.07c1.13-.65 1.77-.81 2.47-.81l1.35.16c1.11.65 1.55 1.11 1.87 1.72l.5 2.08c0 .8-.17 1.5-.5 2.1l-.77 1.05c-1.12.65-1.76.81-2.48.81Zm.01-1.08l.83-.11c.74-.43 1.04-.75 1.27-1.18l.35-.96c0-1.27-.12-1.8-.35-2.22l-.51-.75c-.73-.43-1.13-.54-1.57-.54l-.82.11c-.75.43-1.05.75-1.28 1.18l-.33.95c0 1.27.11 1.8.33 2.23l.52.75c.73.43 1.13.54 1.56.54Zm4.45.9Zm1.05 0v-7.56h1.14l.08 1.08.56-.7c.81-.44 1.25-.56 1.73-.56l.74.05.91.37c.48.43.68.71.83 1.03l.61-.81c.91-.51 1.4-.64 1.92-.64l1.09.12c.87.47 1.2.82 1.43 1.3l.36 1.07v5.25H31.25V106.5c0-.76-.16-1.33-.47-1.71l-.74-.57c-.95 0-1.3.1-1.61.31l-.56.5c-.36.78-.45 1.26-.45 1.83v4.02H26.16V106.5c0-.76-.15-1.33-.46-1.71l-.75-.57c-.95 0-1.3.1-1.61.31l-.54.5c-.36.78-.45 1.26-.45 1.83v4.02H21.09Zm12.31 0Zm1.05 3.3V103.32h1.14l.11 1.23.36-.47.8-.6c.7-.27 1.1-.34 1.55-.34l1.38.17c1.09.7 1.52 1.18 1.82 1.78l.46 2.02c0 .76-.15 1.44-.46 2.04l-.73 1.06c-1.1.68-1.74.85-2.48.85l-1.15-.13c-.93-.5-1.29-.85-1.54-1.3v4.55H34.45Zm3.81-4.22l.93-.12c.76-.48 1.05-.81 1.26-1.23l.33-.93c0-1.15-.11-1.65-.33-2.08l-.5-.77c-.76-.48-1.2-.6-1.69-.6l-.94.12c-.76.48-1.05.82-1.26 1.25l-.32.93c0 1.15.11 1.65.32 2.08l.5.75c.76.48 1.2.6 1.7.6Zm4.24.92Zm4.02 0l-.84-.07c-.66-.28-.92-.52-1.1-.85l-.25-.79v-4.79H43.01v-1.06h1.32l.16-1.83h1.1v1.83h2.19v1.06H45.59v4.22c0 .47.09.79.28.96l.53.24h1.29v1.08H46.52Zm1.85 0Zm3.51.18l-1.12-.11c-.82-.43-1.12-.71-1.32-1.06l-.3-.75c0-.93.13-1.36.39-1.71l.64-.63c.97-.37 1.55-.47 2.21-.47h1.99c0-.47-.07-.86-.22-1.17l-.35-.56-.89-.4c-.89 0-1.31.12-1.66.36l-.56.6-1.37.47.24-.99c.61-.73 1-1.01 1.47-1.2l.96-.3c1.21 0 1.79.13 2.25.39l.82.6c.46.91.57 1.45.57 2.07v4.68H54.51l-.08-1.34-.23.41-.49.53-.66.38-.83.2Zm.2-1.07l.66-.07.82-.49c.4-.51.55-.79.65-1.1l.16-.64v-.38H52.48c-.49 0-.88.06-1.18.18l-.52.27-.32.64.06.76.43.56.79.27Zm4.45.89Zm5.01.18l-.82-.06c-.69-.25-.99-.42-1.25-.63L59 109.9l-.17-.28-.11 1.25H57.58v-10.8h1.26v4.48c.24-.39.59-.72 1.04-1l1-.42c1.39 0 2.03.17 2.58.52l.98.81c.61 1.19.76 1.87.76 2.63l-.46 2.04c-.3.6-.73 1.07-1.28 1.41l-1.19.51Zm-.15-1.1l.93-.12c.76-.48 1.05-.81 1.26-1.23l.33-.93c0-1.15-.11-1.65-.33-2.08l-.5-.77c-.76-.48-1.2-.6-1.69-.6l-.94.12c-.76.48-1.05.82-1.26 1.25l-.32.93c0 1.15.11 1.65.32 2.08l.5.75c.76.48 1.2.6 1.7.6Zm4.53.92Zm1.05 0v-10.8h1.26v10.8H66.97Zm2.29 0Zm4.37.18l-1.34-.17c-1.09-.66-1.52-1.12-1.83-1.71L70 107.1c0-.8.15-1.5.45-2.08l.74-1.06c1.11-.66 1.75-.82 2.47-.82l1.36.16c1.03.66 1.43 1.1 1.7 1.64l.42 1.11c0 .74 0 .85 0 .96l-.01.23-6.19.14v-.97h4.97c-.03-.69-.26-1.23-.69-1.62l-.95-.59c-1.07 0-1.47.1-1.84.31l-.65.47c-.44.75-.55 1.21-.55 1.78v.41l.11 1.14c.45.84.74 1.16 1.1 1.37l.77.31c.95 0 1.38-.11 1.72-.34l.6-.56 1.4-.4-.33.85c-.6.73-.98 1.01-1.43 1.22l-.95.3Zm4.16-.18Zm1.86 2.17H78.36v-.12l1.59-2.01c.46-.74.81-1.53 1.06-2.37l.39-2.67c0-.93-.13-1.81-.39-2.65l-1.06-2.39c-.45-.74-.98-1.41-1.59-2.01v-.12h1.29c.55.51 1.05 1.13 1.5 1.85l1.09 2.41c.28.89.42 1.86.42 2.91l-.42 2.91c-.27.89-.63 1.69-1.09 2.4l-1.5 1.86ZM.4 135.88Zm.96 0v-.89c.71-.56 1.39-1.12 2.02-1.69l1.73-1.7c.5-.57.89-1.12 1.17-1.66l.44-1.06c0-.87-.07-1.21-.2-1.52l-.34-.58c-.57-.4-.95-.5-1.43-.5l-.86.1c-.62.41-.85.68-1.01 1.02l-.23.7-1.21.4.15-1.28c.57-.99.96-1.37 1.46-1.63l1.08-.39c1.26 0 1.82.12 2.3.36l.86.57c.54.92.69 1.5.69 2.2l-.11.98c-.41.98-.68 1.46-1.02 1.93l-.72.91c-.83.86-1.25 1.26-1.69 1.64l-.84.73 4.73.31v1.05H1.36Zm7.68 0Zm1.5.07l-.46-.08-.41-.53.08-.68.54-.42.71.09.4.53-.08.68-.53.41Zm24.44-.07Zm5.69.18c-1.02 0-1.91-.23-2.66-.68s-1.31-1.09-1.71-1.9c-.4-.82-.6-1.77-.6-2.85s.2-2.03.6-2.84.97-1.45 1.71-1.9 1.64-.69 2.66-.69c1.2 0 2.17.28 2.92.85s1.23 1.38 1.44 2.42H43.64c-.16-.65-.49-1.17-.98-1.56s-1.15-.6-1.99-.6l-1.95.52c-.55.34-.98.84-1.28 1.49l-.45 2.31c0 .9.15 1.67.45 2.32l.73 1.14c1.1.69 1.75.86 2.5.86.84 0 1.5-.19 1.99-.57l.82-.91 1.55-.64-.69 1.8c-1.5 1.14-2.47 1.43-3.67 1.43Zm5.07-.18Zm4.42.18l-1.33-.16c-1.12-.65-1.56-1.11-1.88-1.7l-.48-2.09c0-.81.16-1.51.48-2.1l.78-1.06c1.13-.65 1.76-.81 2.46-.81l1.36.16c1.11.65 1.55 1.11 1.87 1.71l.49 2.09c0 .8-.16 1.5-.49 2.1l-.78 1.05c-1.12.65-1.76.81-2.48.81Zm.02-1.08l.83-.11c.74-.43 1.04-.75 1.27-1.18l.34-.96c0-1.27-.11-1.8-.34-2.22l-.52-.75c-.73-.43-1.13-.54-1.57-.54l-.82.11c-.75.43-1.05.75-1.28 1.18l-.33.95c0 1.27.11 1.8.33 2.23l.53.75c.73.43 1.13.54 1.56.54Zm4.45.9Zm1.05 0v-7.56h1.14l.06 1.32.58-.84c.89-.53 1.4-.66 1.97-.66l1.1.12c.86.47 1.19.82 1.43 1.3l.36 1.07v5.25H61.06V131.5c0-.76-.17-1.33-.51-1.71l-.8-.57c-1.03 0-1.4.1-1.73.31l-.6.5c-.39.77-.48 1.24-.48 1.81v4.04H55.68Zm7.56 0Zm4.02 0l-.84-.07c-.66-.28-.91-.52-1.09-.85l-.26-.79v-4.79H63.75v-1.06h1.32l.17-1.83h1.09v1.83h2.19v1.06H66.33v4.22c0 .47.1.79.29.96l.52.24h1.29v1.08H67.26Zm1.86 0Zm1.05 0v-7.56h1.14l.09 1.44.38-.63c.53-.48.85-.67 1.22-.8l.81-.19.48 1.32h-.46l-.63.05-.84.3c-.45.38-.62.64-.75.97l-.18.72v4.38H70.17Zm4.5 0Zm3.51.18l-1.12-.11c-.82-.43-1.13-.71-1.33-1.06l-.3-.75c0-.93.13-1.36.39-1.71l.65-.63c.97-.37 1.54-.47 2.2-.47h2c0-.47-.08-.86-.23-1.17l-.35-.56-.89-.4c-.89 0-1.3.12-1.65.36l-.57.6-1.37.47.24-.99c.61-.73 1-1.01 1.47-1.2l.96-.3c1.21 0 1.79.13 2.25.39l.82.6c.46.91.58 1.45.58 2.07v4.68H80.8l-.07-1.34-.23.41-.49.53-.66.38-.83.2Zm.19-1.07l.67-.07.81-.49c.4-.51.55-.79.65-1.1l.17-.64v-.38H78.78c-.49 0-.89.06-1.19.18l-.51.27-.33.64.06.76.44.56.78.27Zm4.25.89Zm4.02 0l-.84-.07c-.66-.28-.91-.52-1.09-.85l-.26-.79v-4.79H83.13v-1.06h1.32l.17-1.83h1.09v1.83H87.9v1.06H85.71v4.22c0 .47.1.79.29.96l.52.24h1.29v1.08H86.64Zm5.84 0Zm1.13 0v-10.5H96.7c1.23 0 2.24.21 3.03.64s1.39 1.03 1.77 1.82c.39.78.58 1.72.58 2.82 0 1.08-.19 2.01-.58 2.79s-.97 1.38-1.77 1.8-1.8.63-3.03.63H93.61Zm1.26-1.05h1.8c1.02 0 1.83-.17 2.43-.5l1.03-.81c.52-1.26.65-2 .65-2.86l-.39-2.27c-.26-.63-.69-1.11-1.29-1.45s-1.41-.51-2.43-.51h-1.8v8.4Zm7.94 1.05Zm3.79.18l-1.09-.12c-.87-.46-1.2-.81-1.44-1.29l-.35-1.08v-5.25h1.26v4.39c0 .75.17 1.32.5 1.7l.79.57c1.02 0 1.4-.1 1.74-.3l.61-.51c.39-.77.49-1.24.49-1.8v-4.05h1.26v7.56h-1.14l-.08-1.32-.57.84c-.9.53-1.41.66-1.98.66Zm4.81-.18Zm1.05 3.3V128.32h1.14l.1 1.23.37-.47.8-.6c.7-.27 1.1-.34 1.55-.34l1.38.17c1.09.7 1.51 1.18 1.81 1.78l.47 2.02c0 .76-.16 1.44-.47 2.04l-.72 1.06c-1.1.68-1.75.85-2.49.85l-1.15-.13c-.93-.5-1.28-.85-1.53-1.3v4.55h-1.26Zm3.81-4.22l.92-.12c.76-.48 1.06-.81 1.27-1.23l.33-.93c0-1.15-.11-1.65-.33-2.08l-.51-.77c-.76-.48-1.19-.6-1.68-.6l-.94.12c-.76.48-1.06.82-1.27 1.25l-.31.93c0 1.15.1 1.65.31 2.08l.51.75c.76.48 1.2.6 1.7.6Zm4.53.92Zm4.42.18l-1.33-.16c-1.12-.65-1.56-1.11-1.88-1.7l-.48-2.09c0-.81.16-1.51.48-2.1l.78-1.06c1.13-.65 1.76-.81 2.46-.81l1.36.16c1.11.65 1.55 1.11 1.87 1.71l.49 2.09c0 .8-.16 1.5-.49 2.1l-.78 1.05c-1.12.65-1.76.81-2.48.81Zm.02-1.08l.83-.11c.74-.43 1.04-.75 1.27-1.18l.34-.96c0-1.27-.11-1.8-.34-2.22l-.52-.75c-.73-.43-1.13-.54-1.57-.54l-.82.11c-.75.43-1.05.75-1.28 1.18l-.33.95c0 1.27.11 1.8.33 2.23l.53.75c.73.43 1.13.54 1.56.54Zm4.45.9Zm1.05 0v-7.56h1.14l.06 1.32.58-.84c.89-.53 1.4-.66 1.97-.66l1.1.12c.86.47 1.19.82 1.43 1.3l.36 1.07v5.25h-1.26V131.5c0-.76-.17-1.33-.51-1.71l-.8-.57c-1.03 0-1.4.1-1.73.31l-.6.5c-.39.77-.48 1.24-.48 1.81v4.04h-1.26Zm7.56 0Zm4.02 0l-.84-.07c-.66-.28-.91-.52-1.09-.85l-.26-.79v-4.79h-1.32v-1.06h1.32l.17-1.83h1.09v1.83h2.19v1.06h-2.19v4.22c0 .47.1.79.29.96l.52.24h1.29v1.08h-1.17Zm5.84 0Zm4.36.18l-1.34-.17c-1.09-.66-1.51-1.12-1.82-1.71l-.47-2.08c0-.8.15-1.5.45-2.09l.74-1.05c1.11-.66 1.75-.82 2.47-.82l1.37.16c1.03.66 1.42 1.1 1.69 1.64l.42 1.11c0 .74 0 .85 0 .96v.23l-6.19.14v-.97h4.96c-.03-.69-.26-1.23-.69-1.62l-.95-.59c-1.07 0-1.47.1-1.84.31l-.65.47c-.44.75-.55 1.21-.55 1.78v.41l.11 1.14c.45.84.75 1.16 1.11 1.37l.76.31c.95 0 1.39-.11 1.73-.34l.6-.56 1.39-.4-.33.85c-.6.72-.97 1.01-1.42 1.22l-.96.3Zm3.81-.18Zm.3 0l2.57-3.78-2.57-3.78h1.38l2.04 3.09 2.07-3.09h1.35l-2.56 3.78 2.56 3.78h-1.35l-2.07-3.11-2.04 3.11h-1.38Zm7.14 0Zm1.05 3.3V128.32h1.14l.11 1.23.36-.47.8-.6c.7-.27 1.1-.34 1.55-.34l1.38.17c1.09.7 1.52 1.18 1.82 1.78l.46 2.02c0 .76-.15 1.44-.46 2.04l-.73 1.06c-1.1.68-1.74.85-2.48.85l-1.15-.13c-.93-.5-1.29-.85-1.54-1.3v4.55h-1.26Zm3.81-4.22l.93-.12c.76-.48 1.05-.81 1.26-1.23l.33-.93c0-1.15-.11-1.65-.33-2.08l-.5-.77c-.76-.48-1.2-.6-1.69-.6l-.94.12c-.76.48-1.05.82-1.26 1.25l-.32.93c0 1.15.11 1.65.32 2.08l.5.75c.76.48 1.2.6 1.7.6Zm4.53.92Zm1.17 0v-7.56h1.26v7.56h-1.26Zm.63-9.17l-.46-.08-.41-.54.08-.7.54-.38.7.07.42.51-.08.71-.55.41Zm1.81 9.17Zm1.05 0v-7.56h1.14l.09 1.44.38-.63c.53-.48.85-.67 1.22-.8l.81-.19.48 1.32h-.46l-.63.05-.84.3c-.45.38-.62.64-.75.97l-.18.72v4.38h-1.26Zm4.22 0Zm4.37.18l-1.34-.17c-1.09-.66-1.52-1.12-1.83-1.71l-.46-2.08c0-.8.15-1.5.45-2.09l.74-1.05c1.11-.66 1.75-.82 2.47-.82l1.36.16c1.03.66 1.43 1.1 1.7 1.64l.42 1.11c0 .74 0 .85 0 .96l-.01.23-6.19.14v-.97h4.97c-.03-.69-.26-1.23-.69-1.62l-.95-.59c-1.07 0-1.47.1-1.84.31l-.65.47c-.44.75-.55 1.21-.55 1.78v.41l.11 1.14c.45.84.74 1.16 1.1 1.37l.77.31c.95 0 1.38-.11 1.72-.34l.6-.56 1.4-.4-.33.85c-.6.72-.98 1.01-1.43 1.22l-.95.3Zm8.14-.18Zm4.38.18l-1.37-.17c-1.1-.69-1.52-1.17-1.82-1.77l-.45-2.04c0-.76.15-1.43.45-2.02l.72-1.07c1.11-.68 1.76-.85 2.49-.85l1.16.12c.93.5 1.29.85 1.54 1.3v-4.48h1.26v10.8h-1.14l-.11-1.25-.36.49-.8.6c-.7.27-1.11.34-1.57.34Zm.15-1.1l.94-.12c.76-.48 1.06-.81 1.27-1.23l.31-.93c0-1.15-.1-1.65-.31-2.08l-.51-.77c-.76-.48-1.2-.6-1.7-.6l-.92.12c-.76.48-1.06.82-1.27 1.25l-.31.93c0 1.15.1 1.65.31 2.08l.51.75c.76.48 1.19.6 1.68.6Zm4.87.92Zm3.51.18l-1.12-.11c-.82-.43-1.12-.71-1.32-1.06l-.3-.75c0-.93.13-1.36.39-1.71l.64-.63c.97-.37 1.55-.47 2.21-.47h1.99c0-.47-.07-.86-.22-1.17l-.35-.56-.89-.4c-.89 0-1.31.12-1.66.36l-.56.6-1.37.47.24-.99c.61-.73 1-1.01 1.47-1.2l.96-.3c1.21 0 1.79.13 2.25.39l.82.6c.46.91.57 1.45.57 2.07v4.68h-1.12l-.08-1.34-.23.41-.49.53-.66.38-.83.2Zm.2-1.07l.66-.07.82-.49c.4-.51.55-.79.65-1.1l.16-.64v-.38h-1.89c-.49 0-.88.06-1.18.18l-.52.27-.32.64.06.76.43.56.79.27Zm4.45.89Zm1.05 0v-7.56h1.14l.06 1.32.58-.84c.89-.53 1.4-.66 1.97-.66l1.1.12c.86.47 1.2.82 1.44 1.3l.36 1.07v5.25h-1.26V131.5c0-.76-.17-1.33-.51-1.71l-.8-.57c-1.03 0-1.41.1-1.74.31l-.59.5c-.39.77-.49 1.24-.49 1.81v4.04h-1.26Zm7.57 0Zm3.9.18l-1.18-.11c-.93-.42-1.3-.71-1.58-1.08l-.44-.82 1.23-.51.16.5.53.62c.55.27.89.33 1.29.33l.64-.05.63-.35.29-.56-.07-.75-.5-.45-.9-.27c-.73-.13-1.06-.21-1.38-.31l-.6-.23-.7-.54-.36-.77c0-.78.11-1.16.33-1.49l.53-.61c.83-.38 1.32-.47 1.87-.47.81 0 1.46.19 1.96.58l.8.96-1.16.74-.21-.68c-.55-.43-.93-.54-1.41-.54l-.83.1-.61.63.07.69.47.44.86.31c.89.16 1.34.28 1.75.43l.74.37c.51.59.64 1.01.64 1.55l-.12.88c-.47.7-.8.97-1.23 1.17l-.93.29Zm7.61-.18Zm2.07 0l4.1-9.42h-5.76v-1.08h7.05v.94l-4.05 9.56h-1.34ZM.4 160.88Zm-.4 3.3V163.1H.58l.65-.08.4-.57v-9.13H2.89v8.79c0 .48-.08.87-.24 1.17l-.4.53c-.63.29-1.02.37-1.47.37H0Zm2.28-12.47l-.46-.08-.41-.54.07-.7.55-.38.69.07.41.51-.09.71-.53.41Zm1.77 9.17Zm4.42.18l-1.33-.16c-1.12-.65-1.56-1.11-1.88-1.7l-.48-2.09c0-.81.16-1.51.48-2.1l.78-1.06c1.13-.65 1.76-.81 2.46-.81l1.36.16c1.11.65 1.55 1.11 1.87 1.71l.49 2.09c0 .8-.16 1.5-.49 2.1l-.78 1.05c-1.12.65-1.76.81-2.48.81Zm.02-1.08l.83-.11c.74-.43 1.04-.75 1.27-1.18l.34-.96c0-1.27-.11-1.8-.34-2.22l-.52-.75c-.73-.43-1.13-.54-1.57-.54l-.82.11c-.75.43-1.05.75-1.28 1.18l-.33.95c0 1.27.11 1.8.33 2.23l.53.75c.73.43 1.13.54 1.56.54Zm4.45.9Zm3.79.18l-1.09-.12c-.87-.46-1.2-.81-1.44-1.29l-.35-1.08v-5.25h1.26v4.39c0 .75.17 1.32.5 1.7l.79.57c1.02 0 1.4-.1 1.74-.3l.61-.51c.39-.77.49-1.24.49-1.8v-4.05H20.5v7.56H19.36l-.08-1.32-.57.84c-.9.53-1.41.66-1.98.66Zm4.81-.18Zm1.05 0v-7.56h1.14l.09 1.44.38-.63c.53-.48.85-.67 1.22-.8l.81-.19.48 1.32h-.46l-.63.05-.84.3c-.45.38-.62.64-.75.97l-.18.72v4.38H22.59Zm4.5 0Zm3.9.18l-1.18-.11c-.93-.42-1.3-.71-1.58-1.08l-.44-.82 1.23-.51.16.5.53.62c.55.27.89.33 1.29.33l.64-.05.63-.35.29-.56-.07-.75-.5-.45-.9-.27c-.73-.13-1.06-.21-1.38-.31l-.6-.23-.7-.54-.36-.77c0-.78.11-1.16.33-1.49l.53-.61c.83-.38 1.32-.47 1.87-.47.81 0 1.46.19 1.96.58l.8.96-1.16.74-.21-.68c-.55-.43-.93-.54-1.41-.54l-.83.1-.61.63.07.69.47.44.86.31c.89.16 1.34.28 1.75.43l.74.37c.51.59.64 1.01.64 1.55l-.12.88c-.47.7-.8.97-1.23 1.17l-.93.29Zm7.61-.18Zm3.74 2.17l-1.5-1.86c-.46-.71-.83-1.51-1.11-2.4l-.41-2.91c0-1.05.14-2.02.41-2.91l1.11-2.41c.46-.72.96-1.34 1.5-1.85h1.29v.12l-1.61 2.01c-.45.74-.8 1.54-1.06 2.39l-.38 2.65c0 .93.13 1.82.38 2.67l1.08 2.37c.46.74.99 1.41 1.59 2.01v.12H42.34Zm1.86-2.17Zm3.46.18l-1.17-.12c-.91-.48-1.26-.83-1.51-1.28l-.36-.98 1.27-.62.06.67.41.79c.51.33.86.41 1.29.41l.75-.08.66-.53.27-.87v-8.07h1.26v7.72c0 .94-.26 1.67-.78 2.19s-1.23.77-2.15.77Zm4.05-.18Zm3.8.18l-1.09-.12c-.87-.46-1.21-.81-1.45-1.29l-.34-1.08v-5.25h1.26v4.39c0 .75.16 1.32.49 1.7l.8.57c1.02 0 1.4-.1 1.74-.3l.6-.51c.39-.77.49-1.24.49-1.8v-4.05h1.26v7.56H58.13l-.07-1.32-.57.84c-.9.53-1.41.66-1.98.66Zm4.8-.18Zm1.05 0v-7.56H62.5l.09 1.44.39-.63c.53-.48.85-.67 1.22-.8l.81-.19.48 1.32h-.47l-.62.05-.84.3c-.45.38-.63.64-.76.97l-.18.72v4.38H61.36Zm4.5 0Zm1.17 0v-7.56h1.26v7.56H67.03Zm.63-9.17l-.46-.08-.41-.54.08-.7.54-.38.7.07.42.51-.08.71-.55.41Zm1.81 9.17Zm4.38.18l-1.37-.17c-1.1-.69-1.53-1.17-1.83-1.77l-.45-2.04c0-.76.15-1.43.45-2.02l.73-1.07c1.11-.68 1.75-.85 2.48-.85l1.16.12c.93.5 1.29.85 1.54 1.3v-4.48h1.26v10.8H76.68l-.1-1.25-.37.49-.8.6c-.7.27-1.1.34-1.56.34Zm.15-1.1l.94-.12c.76-.48 1.05-.81 1.26-1.23l.32-.93c0-1.15-.11-1.65-.32-2.08l-.5-.77c-.76-.48-1.2-.6-1.7-.6l-.93.12c-.76.48-1.05.82-1.26 1.25l-.32.93c0 1.15.11 1.65.32 2.08l.5.75c.76.48 1.2.6 1.69.6Zm4.87.92Zm1.17 0v-7.56H81.3v7.56H80.04Zm.63-9.17l-.46-.08-.41-.54.08-.7.54-.38.7.07.42.51-.08.71-.55.41Zm1.81 9.17Zm7.09 3.3v-4.53c-.24.39-.59.72-1.05 1l-1 .41c-1.39 0-2.03-.17-2.58-.51l-.98-.82c-.6-1.19-.75-1.87-.75-2.63l.45-2.03c.3-.6.73-1.06 1.28-1.41l1.2-.52c1.16 0 1.55.06 1.89.18l.65.29.73.67.16.28.12-1.24h1.14v10.86H89.57Zm-2.56-4.22l.94-.12c.76-.48 1.05-.81 1.26-1.23l.32-.93c0-1.15-.11-1.65-.32-2.08l-.5-.77c-.76-.48-1.2-.6-1.7-.6l-.93.12c-.76.48-1.05.82-1.26 1.25l-.32.93c0 1.15.11 1.65.32 2.08l.5.75c.76.48 1.2.6 1.69.6Zm4.87.92Zm3.79.18l-1.09-.12c-.87-.46-1.2-.81-1.44-1.29l-.35-1.08v-5.25h1.26v4.39c0 .75.17 1.32.5 1.7l.79.57c1.02 0 1.4-.1 1.74-.3l.61-.51c.39-.77.49-1.24.49-1.8v-4.05h1.26v7.56H98.3l-.08-1.32-.57.84c-.9.53-1.41.66-1.98.66Zm4.81-.18Zm4.36.18l-1.34-.17c-1.09-.66-1.51-1.12-1.82-1.71l-.47-2.08c0-.8.15-1.5.45-2.09l.74-1.05c1.11-.66 1.75-.82 2.47-.82l1.37.16c1.03.66 1.42 1.1 1.69 1.64l.42 1.11c0 .74 0 .85 0 .96v.23l-6.19.14v-.97h4.96c-.03-.69-.26-1.23-.69-1.62l-.95-.59c-1.07 0-1.47.1-1.84.31l-.65.47c-.44.75-.55 1.21-.55 1.78v.41l.11 1.14c.45.84.75 1.16 1.11 1.37l.76.31c.95 0 1.39-.11 1.73-.34l.6-.56 1.39-.4-.33.85c-.6.72-.97 1.01-1.42 1.22l-.96.3Zm4.16-.18Zm1.86 2.17h-1.29v-.12l1.59-2.01c.46-.74.82-1.53 1.07-2.37l.39-2.67c0-.93-.13-1.81-.39-2.65l-1.07-2.39c-.45-.74-.98-1.41-1.59-2.01v-.12h1.29c.55.51 1.05 1.13 1.5 1.85l1.1 2.41c.28.89.42 1.86.42 2.91l-.42 2.91c-.27.89-.64 1.69-1.1 2.4l-1.5 1.86ZM.4 185.88Zm4.39.18l-1.28-.12c-1.09-.49-1.51-.86-1.84-1.35l-.48-1.1 1.25-.73.1.77c.38.67.65.93 1 1.13l.76.3c.99 0 1.4-.09 1.73-.28l.57-.44c.35-.63.43-.98.43-1.38l-.12-.88c-.47-.61-.78-.84-1.18-.97l-.82-.23H3.66v-1.07h.78c.69 0 1.23-.16 1.61-.48l.59-.76c0-1.02-.16-1.4-.47-1.71l-.75-.47c-1.22 0-1.69.17-2.04.51l-.55.78-1.32.53.19-1.08c.56-.88.93-1.22 1.41-1.46l1.05-.37c1.33 0 1.9.12 2.36.36l.8.56c.47.8.6 1.24.6 1.72l-.07.7-.46.9c-.51.48-.85.65-1.25.75l.78.24c.65.46.91.76 1.1 1.13l.28.8c0 1.07-.13 1.6-.4 2.09l-.65.87c-1.04.59-1.68.74-2.46.74Zm4.47-.18Zm1.5.07l-.46-.08-.41-.53.08-.68.54-.42.71.09.4.53-.08.68-.53.41Zm24.44-.07Zm.45 0l3.87-10.5h1.34l3.85 10.5H43.38l-3.2-8.93-3.21 8.93H35.65Zm1.77-2.7l.36-1.02h4.76l.36 1.02H37.42Zm7.75 2.7Zm1.05 0v-7.56h1.14l.09 1.44.38-.63c.53-.48.85-.67 1.22-.8l.81-.19.48 1.32h-.46l-.63.05-.84.3c-.45.38-.62.64-.75.97l-.18.72v4.38H46.22Zm4.5 0Zm4.02 0l-.84-.07c-.66-.28-.92-.52-1.1-.85l-.25-.79v-4.79H51.23v-1.06h1.32l.16-1.83h1.1v1.83H56v1.06H53.81v4.22c0 .47.09.79.28.96l.53.24h1.29v1.08H54.74Zm1.85 0Zm1.17 0v-7.56h1.26v7.56H57.76Zm.63-9.17l-.46-.08-.41-.54.08-.7.54-.38.7.07.42.51-.08.71-.55.41Zm1.8 9.17Zm4.46.18l-1.35-.17c-1.13-.66-1.57-1.12-1.89-1.71l-.48-2.07c0-.8.16-1.49.48-2.08l.76-1.05c1.13-.67 1.77-.84 2.48-.84.9 0 1.65.23 2.25.7.6.46.98 1.08 1.14 1.86H66.75c-.1-.47-.35-.83-.74-1.09l-.85-.39c-.96 0-1.36.11-1.73.33l-.66.53c-.44.86-.55 1.39-.55 2.02l.06.89c.26.73.44 1.03.66 1.27l.47.42.9.31c.68 0 1.01-.05 1.3-.16l.53-.3.54-.73 1.36-.31-.55 1.38c-1.21.95-1.95 1.19-2.84 1.19Zm4.13-.18Zm1.05 0v-10.8h1.26v10.8H69.83Zm2.29 0Zm4.36.18l-1.34-.17c-1.09-.66-1.51-1.12-1.82-1.71l-.47-2.08c0-.8.15-1.5.45-2.09l.74-1.05c1.11-.66 1.75-.82 2.47-.82l1.37.16c1.03.66 1.42 1.1 1.69 1.64l.42 1.11c0 .74 0 .85 0 .96v.23l-6.19.14v-.97h4.96c-.03-.69-.26-1.23-.69-1.62l-.95-.59c-1.07 0-1.47.1-1.84.31l-.65.47c-.44.75-.55 1.21-.55 1.78v.41l.11 1.14c.45.84.75 1.16 1.11 1.37l.76.31c.95 0 1.39-.11 1.73-.34l.6-.56 1.39-.4-.33.85c-.6.72-.97 1.01-1.42 1.22l-.96.3Zm8.15-.18Zm5.01.18l-.82-.06c-.69-.25-.99-.42-1.25-.63l-.48-.46-.17-.28-.1 1.25H85.68v-10.8h1.26v4.48c.24-.39.58-.72 1.03-1l1.01-.42c1.39 0 2.03.17 2.58.52l.97.81c.61 1.19.77 1.87.77 2.63l-.47 2.04c-.3.6-.72 1.07-1.27 1.41l-1.19.51Zm-.15-1.1l.92-.12c.76-.48 1.06-.81 1.27-1.23l.33-.93c0-1.15-.11-1.65-.33-2.08l-.51-.77c-.76-.48-1.19-.6-1.68-.6l-.94.12c-.76.48-1.06.82-1.27 1.25l-.31.93c0 1.15.1 1.65.31 2.08l.51.75c.76.48 1.2.6 1.7.6Zm4.53.92Zm1.05 0v-10.8h1.26v10.8H95.07Zm2.29 0Zm4.42.18l-1.33-.16c-1.12-.65-1.56-1.11-1.88-1.7l-.48-2.09c0-.81.16-1.51.48-2.1l.78-1.06c1.13-.65 1.76-.81 2.46-.81l1.36.16c1.11.65 1.55 1.11 1.87 1.71l.49 2.09c0 .8-.16 1.5-.49 2.1l-.78 1.05c-1.12.65-1.76.81-2.48.81Zm.02-1.08l.83-.11c.74-.43 1.04-.75 1.27-1.18l.34-.96c0-1.27-.11-1.8-.34-2.22l-.52-.75c-.73-.43-1.13-.54-1.57-.54l-.82.11c-.75.43-1.05.75-1.28 1.18l-.33.95c0 1.27.11 1.8.33 2.23l.53.75c.73.43 1.13.54 1.56.54Zm4.13.9Zm4.03 3.48l-1.28-.09c-1.05-.35-1.46-.62-1.75-.98l-.43-.8c0-.76.04-1.01.13-1.27l.27-.51c.47-.5.8-.73 1.23-.93l.87.51-.87.47c-.32.57-.4.84-.4 1.08l.09.6.65.61c.68.22 1.06.27 1.49.27l.8-.05.86-.42.43-.7-.13-.94c-.52-.47-1.02-.61-1.75-.65l-1.08-.09c-.8-.14-1.13-.22-1.39-.31l-.48-.21-.51-.37-.14-.47 1.46-1.44 1.09.39-1.5 1.35.2-.53.21.16.34.2.57.14c.61.08 1.02.13 1.52.16l1.24.17c.83.38 1.13.64 1.31.96l.28.7c0 .87-.12 1.27-.36 1.65l-.59.71c-.98.5-1.61.63-2.38.63Zm-.01-5.85l-1.17-.12c-.89-.48-1.23-.8-1.46-1.2l-.34-.87c0-1 .11-1.45.34-1.85l.58-.71c.88-.5 1.42-.62 2.05-.62l1.16.12c.88.5 1.22.81 1.45 1.21l.34.85c0 1-.11 1.46-.34 1.87l-.57.72c-.88.48-1.41.6-2.04.6Zm0-1.04l.96-.14c.62-.56.78-.97.78-1.51l-.16-.93c-.62-.56-1.04-.7-1.58-.7l-.96.14c-.65.56-.81.96-.81 1.49l.16.95c.64.56 1.07.7 1.61.7Zm1.23-3.09l-.38-1.06h3.09v.94l-2.71.12Zm7.1 6.5Zm4.36.18l-1.34-.17c-1.09-.66-1.51-1.12-1.82-1.71l-.47-2.08c0-.8.15-1.5.45-2.09l.74-1.05c1.11-.66 1.75-.82 2.47-.82l1.37.16c1.03.66 1.42 1.1 1.69 1.64l.42 1.11c0 .74 0 .85 0 .96v.23l-6.19.14v-.97h4.96c-.03-.69-.26-1.23-.69-1.62l-.95-.59c-1.07 0-1.47.1-1.84.31l-.65.47c-.44.75-.55 1.21-.55 1.78v.41l.11 1.14c.45.84.75 1.16 1.11 1.37l.76.31c.95 0 1.39-.11 1.73-.34l.6-.56 1.39-.4-.33.85c-.6.72-.97 1.01-1.42 1.22l-.96.3Zm4.16-.18Zm1.05 0v-7.56h1.14l.06 1.32.58-.84c.89-.53 1.4-.66 1.97-.66l1.1.12c.86.47 1.2.82 1.44 1.3l.36 1.07v5.25h-1.26V181.5c0-.76-.17-1.33-.51-1.71l-.8-.57c-1.03 0-1.41.1-1.74.31l-.59.5c-.39.77-.49 1.24-.49 1.81v4.04h-1.26Zm11.55 0Zm3.51.18l-1.12-.11c-.82-.43-1.13-.71-1.33-1.06l-.3-.75c0-.93.13-1.36.39-1.71l.65-.63c.97-.37 1.54-.47 2.2-.47h2c0-.47-.08-.86-.23-1.17l-.35-.56-.89-.4c-.89 0-1.3.12-1.65.36l-.57.6-1.37.47.24-.99c.61-.73 1-1.01 1.47-1.2l.96-.3c1.21 0 1.79.13 2.25.39l.82.6c.46.91.58 1.45.58 2.07v4.68h-1.13l-.07-1.34-.23.41-.49.53-.66.38-.83.2Zm.19-1.07l.67-.07.81-.49c.4-.51.55-.79.65-1.1l.17-.64v-.38h-1.89c-.49 0-.89.06-1.19.18l-.51.27-.33.64.06.76.44.56.78.27Zm4.25.89Zm4.02 0l-.84-.07c-.66-.28-.91-.52-1.09-.85l-.26-.79v-4.79h-1.32v-1.06h1.32l.17-1.83h1.09v1.83h2.19v1.06h-2.19v4.22c0 .47.1.79.29.96l.52.24h1.29v1.08h-1.17Zm1.86 0Zm4.02 0l-.84-.07c-.66-.28-.92-.52-1.1-.85l-.25-.79v-4.79h-1.32v-1.06h1.32l.16-1.83h1.1v1.83h2.19v1.06h-2.19v4.22c0 .47.09.79.28.96l.53.24h1.29v1.08h-1.17Zm1.65 0Zm4.36.18l-1.34-.17c-1.09-.66-1.51-1.12-1.82-1.71l-.47-2.08c0-.8.15-1.5.45-2.09l.74-1.05c1.11-.66 1.75-.82 2.47-.82l1.37.16c1.03.66 1.42 1.1 1.69 1.64l.42 1.11c0 .74 0 .85 0 .96v.23l-6.19.14v-.97h4.96c-.03-.69-.26-1.23-.69-1.62l-.95-.59c-1.07 0-1.47.1-1.84.31l-.65.47c-.44.75-.55 1.21-.55 1.78v.41l.11 1.14c.45.84.75 1.16 1.11 1.37l.76.31c.95 0 1.39-.11 1.73-.34l.6-.56 1.39-.4-.33.85c-.6.72-.97 1.01-1.42 1.22l-.96.3Zm4.16-.18Zm1.05 0v-7.56h1.14l.06 1.32.58-.84c.89-.53 1.4-.66 1.97-.66l1.1.12c.86.47 1.2.82 1.44 1.3l.36 1.07v5.25h-1.26V181.5c0-.76-.17-1.33-.51-1.71l-.8-.57c-1.03 0-1.41.1-1.74.31l-.59.5c-.39.77-.49 1.24-.49 1.81v4.04h-1.26Zm7.56 0Zm4.02 0l-.84-.07c-.66-.28-.91-.52-1.09-.85l-.26-.79v-4.79h-1.32v-1.06h1.32l.17-1.83h1.09v1.83h2.19v1.06h-2.19v4.22c0 .47.1.79.29.96l.52.24h1.29v1.08h-1.17Zm1.65 0Zm4.37.18l-1.34-.17c-1.09-.66-1.52-1.12-1.83-1.71l-.46-2.08c0-.8.15-1.5.45-2.09l.74-1.05c1.11-.66 1.75-.82 2.47-.82l1.36.16c1.03.66 1.43 1.1 1.7 1.64l.42 1.11c0 .74 0 .85 0 .96l-.01.23-6.19.14v-.97h4.97c-.03-.69-.26-1.23-.69-1.62l-.95-.59c-1.07 0-1.47.1-1.84.31l-.65.47c-.44.75-.55 1.21-.55 1.78v.41l.11 1.14c.45.84.74 1.16 1.1 1.37l.77.31c.95 0 1.38-.11 1.72-.34l.6-.56 1.4-.4-.33.85c-.6.72-.98 1.01-1.43 1.22l-.95.3Zm8.14-.18Zm4.38.18l-1.37-.17c-1.1-.69-1.52-1.17-1.82-1.77l-.45-2.04c0-.76.15-1.43.45-2.02l.72-1.07c1.11-.68 1.76-.85 2.49-.85l1.16.12c.93.5 1.29.85 1.54 1.3v-4.48h1.26v10.8h-1.14l-.11-1.25-.36.49-.8.6c-.7.27-1.11.34-1.57.34Zm.15-1.1l.94-.12c.76-.48 1.06-.81 1.27-1.23l.31-.93c0-1.15-.1-1.65-.31-2.08l-.51-.77c-.76-.48-1.2-.6-1.7-.6l-.92.12c-.76.48-1.06.82-1.27 1.25l-.31.93c0 1.15.1 1.65.31 2.08l.51.75c.76.48 1.19.6 1.68.6Zm4.88.92Zm4.36.18l-1.34-.17c-1.09-.66-1.51-1.12-1.82-1.71l-.47-2.08c0-.8.15-1.5.45-2.09l.74-1.05c1.11-.66 1.75-.82 2.47-.82l1.37.16c1.03.66 1.42 1.1 1.69 1.64l.42 1.11c0 .74 0 .85 0 .96v.23l-6.19.14v-.97h4.96c-.03-.69-.26-1.23-.69-1.62l-.95-.59c-1.07 0-1.47.1-1.84.31l-.65.47c-.44.75-.55 1.21-.55 1.78v.41l.11 1.14c.45.84.75 1.16 1.11 1.37l.76.31c.95 0 1.39-.11 1.73-.34l.6-.56 1.39-.4-.33.85c-.6.72-.97 1.01-1.42 1.22l-.96.3Zm8.15-.18Zm3.22 0l-2.86-7.56h1.32l2.28 6.34 2.29-6.34h1.29l-2.86 7.56h-1.46Zm4.31 0Zm3.51.18l-1.12-.11c-.82-.43-1.13-.71-1.33-1.06l-.3-.75c0-.93.13-1.36.39-1.71l.65-.63c.97-.37 1.54-.47 2.2-.47h2c0-.47-.08-.86-.23-1.17l-.35-.56-.89-.4c-.89 0-1.3.12-1.65.36l-.57.6-1.37.47.24-.99c.61-.73 1-1.01 1.47-1.2l.96-.3c1.21 0 1.79.13 2.25.39l.82.6c.46.91.58 1.45.58 2.07v4.68h-1.13l-.07-1.34-.23.41-.49.53-.66.38-.83.2Zm.19-1.07l.67-.07.81-.49c.4-.51.55-.79.65-1.1l.17-.64v-.38h-1.89c-.49 0-.89.06-1.19.18l-.51.27-.33.64.06.76.44.56.78.27Zm4.46.89Zm1.05 0v-10.8h1.26v10.8h-1.26Zm2.29 0Zm1.17 0v-7.56h1.26v7.56h-1.26Zm.63-9.17l-.46-.08-.41-.54.08-.7.54-.38.69.07.43.51-.09.71-.54.41Zm1.8 9.17Zm4.38.18l-1.37-.17c-1.1-.69-1.53-1.17-1.83-1.77l-.45-2.04c0-.76.15-1.43.45-2.02l.73-1.07c1.11-.68 1.75-.85 2.48-.85l1.16.12c.93.5 1.29.85 1.54 1.3v-4.48h1.26v10.8h-1.14l-.1-1.25-.37.49-.8.6c-.7.27-1.1.34-1.56.34Zm.15-1.1l.94-.12c.76-.48 1.05-.81 1.26-1.23l.32-.93c0-1.15-.11-1.65-.32-2.08l-.5-.77c-.76-.48-1.2-.6-1.7-.6l-.93.12c-.76.48-1.05.82-1.26 1.25l-.32.93c0 1.15.11 1.65.32 2.08l.5.75c.76.48 1.2.6 1.69.6Zm4.87.92Zm3.51.18l-1.12-.11c-.82-.43-1.12-.71-1.32-1.06l-.3-.75c0-.93.13-1.36.39-1.71l.64-.63c.97-.37 1.55-.47 2.21-.47h1.99c0-.47-.07-.86-.22-1.17l-.35-.56-.89-.4c-.89 0-1.31.12-1.66.36l-.56.6-1.37.47.24-.99c.61-.73 1-1.01 1.47-1.2l.96-.3c1.21 0 1.79.13 2.25.39l.82.6c.46.91.57 1.45.57 2.07v4.68H254.3l-.08-1.34-.23.41-.49.53-.66.38-.83.2Zm.2-1.07l.66-.07.82-.49c.4-.51.55-.79.65-1.1l.16-.64v-.38h-1.89c-.49 0-.88.06-1.18.18l-.52.27-.32.64.06.76.43.56.79.27Zm4.25.89Zm4.02 0l-.84-.07c-.66-.28-.92-.52-1.1-.85l-.25-.79v-4.79h-1.32v-1.06h1.32l.16-1.83h1.1v1.83h2.19v1.06h-2.19v4.22c0 .47.09.79.28.96l.53.24h1.29v1.08h-1.17Zm1.85 0Zm1.17 0v-7.56h1.26v7.56h-1.26Zm.63-9.17l-.46-.08-.41-.54.08-.7.54-.38.7.07.42.51-.08.71-.55.41Zm1.81 9.17Zm4.42.18l-1.33-.16c-1.12-.65-1.56-1.11-1.88-1.7l-.48-2.09c0-.81.16-1.51.48-2.1l.78-1.06c1.13-.65 1.76-.81 2.46-.81l1.36.16c1.11.65 1.55 1.11 1.87 1.71l.49 2.09c0 .8-.16 1.5-.49 2.1l-.78 1.05c-1.12.65-1.76.81-2.48.81Zm.02-1.08l.83-.11c.74-.43 1.04-.75 1.27-1.18l.34-.96c0-1.27-.11-1.8-.34-2.22l-.52-.75c-.73-.43-1.13-.54-1.57-.54l-.82.11c-.75.43-1.05.75-1.28 1.18l-.33.95c0 1.27.11 1.8.33 2.23l.53.75c.73.43 1.13.54 1.56.54Zm4.45.9Zm1.05 0v-7.56h1.14l.06 1.32.58-.84c.89-.53 1.4-.66 1.97-.66l1.1.12c.86.47 1.19.82 1.43 1.3l.36 1.07v5.25h-1.26V181.5c0-.76-.17-1.33-.51-1.71l-.8-.57c-1.03 0-1.4.1-1.73.31l-.6.5c-.39.77-.48 1.24-.48 1.81v4.04h-1.26ZM.4 210.88Zm3.73 2.17l-1.5-1.86c-.46-.71-.83-1.51-1.1-2.4l-.41-2.91c0-1.05.14-2.02.41-2.91l1.1-2.41c.47-.72.97-1.34 1.5-1.85H5.42v.12l-1.6 2.01c-.45.74-.81 1.54-1.06 2.39l-.38 2.65c0 .93.13 1.82.38 2.67l1.07 2.37c.46.74.99 1.41 1.59 2.01v.12H4.13ZM6 210.88Zm1.12 0v-10.5H8.59l3.71 7.33 3.72-7.33H17.5v10.5H16.24v-8.25l-3.46 6.78h-.95l-3.45-6.75v8.22H7.12Zm11.49 0Zm3.51.18L21 210.95c-.82-.43-1.13-.71-1.33-1.06l-.3-.75c0-.93.13-1.36.39-1.71l.65-.63c.97-.37 1.54-.47 2.2-.47h2c0-.47-.08-.86-.23-1.17l-.35-.56-.89-.4c-.89 0-1.3.12-1.65.36l-.57.6-1.37.47.24-.99c.61-.73 1-1.01 1.47-1.2l.96-.3c1.21 0 1.79.13 2.25.39l.82.6c.46.91.58 1.45.58 2.07v4.68H24.74l-.07-1.34-.23.41-.49.53-.66.38-.83.2Zm.19-1.07l.67-.07.81-.49c.4-.51.55-.79.65-1.1l.17-.64v-.38H22.72c-.49 0-.89.06-1.19.18l-.51.27-.33.64.06.76.44.56.78.27Zm4.46.89Zm1.05 0v-7.56h1.14l.09 1.44.38-.63c.53-.48.85-.67 1.22-.8l.81-.19.48 1.32h-.46l-.63.05-.84.3c-.45.38-.62.64-.75.97l-.18.72v4.38H27.82Zm4.5 0Zm5.7 0l-3.6-4.14 3.28-3.42h1.55l-3.77 3.87.02-.9 4.12 4.59h-1.6Zm-4.65 0v-10.8h1.26v10.8H33.37Zm5.97 0Zm4.36.18l-1.34-.17c-1.09-.66-1.51-1.12-1.82-1.71l-.47-2.08c0-.8.15-1.5.45-2.09l.74-1.05c1.11-.66 1.75-.82 2.47-.82l1.37.16c1.03.66 1.42 1.1 1.69 1.64l.42 1.11c0 .74 0 .85 0 .96v.23l-6.19.14v-.97h4.96c-.03-.69-.26-1.23-.69-1.62l-.95-.59c-1.07 0-1.47.1-1.84.31l-.65.47c-.44.75-.55 1.21-.55 1.78v.41l.11 1.14c.45.84.75 1.16 1.11 1.37l.76.31c.95 0 1.39-.11 1.73-.34l.6-.56 1.39-.4-.33.85c-.6.72-.97 1.01-1.42 1.22l-.96.3Zm3.91-.18Zm4.02 0l-.84-.07c-.66-.28-.91-.52-1.09-.85l-.26-.79v-4.79H48.12v-1.06h1.32l.17-1.83H50.7v1.83h2.19v1.06H50.7v4.22c0 .47.1.79.29.96l.52.24H52.8v1.08H51.63Zm1.86 0Zm1.17 0v-7.56h1.26v7.56H54.66Zm.63-9.17l-.46-.08-.41-.54.08-.7.54-.38.69.07.43.51-.09.71-.54.41Zm1.8 9.17Zm1.05 0v-7.56h1.14l.06 1.32.58-.84c.89-.53 1.4-.66 1.97-.66l1.1.12c.86.47 1.19.82 1.43 1.3l.36 1.07v5.25H63.52V206.5c0-.76-.17-1.33-.51-1.71l-.8-.57c-1.03 0-1.4.1-1.73.31l-.6.5c-.39.77-.48 1.24-.48 1.81v4.04H58.14Zm7.56 0Zm4.04 3.48l-1.29-.09c-1.05-.35-1.45-.62-1.74-.98l-.44-.8c0-.76.05-1.01.14-1.27l.26-.51c.47-.5.81-.73 1.24-.93l.87.51-.88.47c-.32.57-.4.84-.4 1.08l.1.6.64.61c.68.22 1.07.27 1.5.27l.8-.05.86-.42.42-.7-.13-.94c-.52-.47-1.01-.61-1.74-.65l-1.09-.09c-.8-.14-1.13-.22-1.39-.31l-.48-.21-.5-.37-.14-.47 1.45-1.44 1.1.39-1.5 1.35.19-.53.22.16.33.2.58.14c.61.08 1.01.13 1.51.16l1.24.17c.83.38 1.13.64 1.31.96l.29.7c0 .87-.12 1.27-.36 1.65l-.59.71c-.98.5-1.61.63-2.38.63Zm-.02-5.85l-1.17-.12c-.89-.48-1.22-.8-1.45-1.2l-.35-.87c0-1 .12-1.45.35-1.85l.58-.71c.88-.5 1.41-.62 2.04-.62l1.17.12c.88.5 1.21.81 1.44 1.21l.35.85c0 1-.12 1.46-.35 1.87l-.56.72c-.88.48-1.42.6-2.05.6Zm0-1.04l.97-.14c.62-.56.77-.97.77-1.51l-.15-.93c-.62-.56-1.05-.7-1.59-.7l-.96.14c-.65.56-.81.96-.81 1.49l.16.95c.64.56 1.07.7 1.61.7Zm1.23-3.09l-.37-1.06h3.09v.94l-2.72.12Zm3.12 6.5Zm1.86 2.17H74.64v-.12l1.59-2.01c.46-.74.81-1.53 1.06-2.37l.39-2.67c0-.93-.13-1.81-.39-2.65l-1.06-2.39c-.45-.74-.98-1.41-1.59-2.01v-.12h1.29c.55.51 1.05 1.13 1.5 1.85l1.09 2.41c.28.89.42 1.86.42 2.91l-.42 2.91c-.27.89-.63 1.69-1.09 2.4l-1.5 1.86ZM.4 260.88Zm.45 0l3.87-10.5H6.05l3.86 10.5H8.57l-3.19-8.93-3.21 8.93H.85Zm1.77-2.7l.36-1.02H7.73l.37 1.02H2.62Zm7.33 2.7Zm4.46.18l-1.35-.17c-1.13-.66-1.57-1.12-1.89-1.71l-.48-2.07c0-.8.16-1.49.48-2.08l.76-1.05c1.13-.67 1.77-.84 2.48-.84.9 0 1.65.23 2.25.7.6.46.98 1.08 1.14 1.86H16.51c-.1-.47-.35-.83-.74-1.09l-.85-.39c-.96 0-1.36.11-1.73.33l-.66.53c-.44.86-.55 1.39-.55 2.02l.06.89c.26.73.44 1.03.66 1.27l.47.42.9.31c.68 0 1.01-.05 1.3-.16l.53-.3.54-.73 1.36-.31-.55 1.38c-1.21.95-1.95 1.19-2.84 1.19Zm3.92-.18Zm4.02 0l-.84-.07c-.66-.28-.92-.52-1.1-.85l-.25-.79v-4.79H18.84v-1.06h1.32l.16-1.83h1.1v1.83h2.19v1.06H21.42v4.22c0 .47.09.79.28.96l.53.24h1.29v1.08H22.35Zm1.85 0Zm1.17 0v-7.56h1.26v7.56H25.37Zm.63-9.17l-.46-.08-.41-.54.08-.7.54-.38.7.07.42.51-.08.71-.55.41Zm1.81 9.17Zm3.22 0l-2.86-7.56h1.32l2.28 6.34 2.29-6.34h1.29l-2.86 7.56H31.03Zm4.69 0Zm1.17 0v-7.56h1.26v7.56H36.89Zm.63-9.17l-.46-.08-.41-.54.08-.7.54-.38.69.07.43.51-.09.71-.54.41Zm1.8 9.17Zm4.02 0l-.84-.07c-.66-.28-.91-.52-1.09-.85l-.26-.79v-4.79H39.83v-1.06h1.32l.17-1.83h1.09v1.83H44.6v1.06H42.41v4.22c0 .47.1.79.29.96l.52.24h1.29v1.08H43.34Zm1.65 0Zm4.36.18l-1.34-.17c-1.09-.66-1.51-1.12-1.82-1.71l-.47-2.08c0-.8.15-1.5.45-2.08l.74-1.06c1.11-.66 1.75-.82 2.47-.82l1.37.16c1.03.66 1.42 1.1 1.69 1.64l.42 1.11c0 .74 0 .85 0 .96v.23l-6.19.14v-.97h4.96c-.03-.69-.26-1.23-.69-1.62l-.95-.59c-1.07 0-1.47.1-1.84.31l-.65.47c-.44.75-.55 1.21-.55 1.78v.41l.11 1.14c.45.84.75 1.16 1.11 1.37l.76.31c.95 0 1.39-.11 1.73-.34l.6-.56 1.39-.4-.33.85c-.6.73-.97 1.01-1.42 1.22l-.96.3Zm-1.5-8.39l-.13-.9 3.01-1.92.18 1.08-3.06 1.74Zm9.65 8.21Zm1.5.07l-.46-.08-.41-.53.08-.68.54-.42.7.09.4.53-.08.68-.52.41Zm0-6.1l-.46-.08-.41-.54.08-.68.54-.41.7.08.4.54-.08.68-.52.41Zm5.52 6.03Zm5.88 0v-2.25H65.07v-.98l5.1-7.27h1.47v7.14H73.2v1.11H71.64v2.25H70.4Zm-3.93-3.36h3.99v-5.75l-3.99 5.75Zm7.16 3.36Zm2.07 0l4.09-9.42H74.03v-1.08h7.05v.94l-4.05 9.56H75.7Zm9.92 0Zm3.51.18l-1.12-.11c-.82-.43-1.12-.71-1.32-1.06l-.3-.75c0-.93.13-1.36.39-1.71l.64-.63c.97-.37 1.55-.47 2.21-.47h1.99c0-.47-.07-.86-.22-1.17l-.35-.56-.89-.4c-.89 0-1.31.12-1.66.36l-.56.6-1.37.47.24-.99c.61-.73 1-1.01 1.47-1.2l.96-.3c1.21 0 1.79.13 2.25.39l.82.6c.46.91.57 1.45.57 2.07v4.68H91.76l-.08-1.34-.23.41-.49.53-.66.38-.83.2Zm.2-1.07l.66-.07.82-.49c.4-.51.55-.79.65-1.1l.16-.64v-.38H89.73c-.49 0-.88.06-1.18.18l-.52.27-.32.64.06.76.43.56.79.27Zm4.45.89Zm4.46.18l-1.35-.17c-1.13-.66-1.57-1.12-1.89-1.71l-.48-2.07c0-.8.16-1.49.48-2.08l.76-1.05c1.13-.67 1.77-.84 2.48-.84.9 0 1.65.23 2.25.7.6.46.98 1.08 1.14 1.86h-1.29c-.1-.47-.35-.83-.74-1.09l-.85-.39c-.96 0-1.36.11-1.73.33l-.66.53c-.44.86-.55 1.39-.55 2.02l.06.89c.26.73.44 1.03.66 1.27l.47.42.9.31c.68 0 1.01-.05 1.3-.16l.53-.3.54-.73 1.36-.31-.55 1.38c-1.21.95-1.95 1.19-2.84 1.19Zm3.92-.18Zm4.02 0l-.84-.07c-.66-.28-.91-.52-1.09-.85l-.26-.79v-4.79h-1.32v-1.06h1.32l.17-1.83h1.09v1.83h2.19v1.06h-2.19v4.22c0 .47.1.79.29.96l.52.24h1.29v1.08h-1.17Zm1.86 0Zm1.17 0v-7.56h1.26v7.56h-1.26Zm.63-9.17l-.46-.08-.41-.54.08-.7.54-.38.69.07.43.51-.09.71-.54.41Zm1.8 9.17Zm4.43.18l-1.33-.16c-1.12-.65-1.56-1.11-1.88-1.7l-.48-2.09c0-.81.16-1.51.48-2.09l.77-1.07c1.13-.65 1.77-.81 2.47-.81l1.35.16c1.11.65 1.55 1.11 1.87 1.72l.5 2.08c0 .8-.17 1.5-.5 2.1l-.77 1.05c-1.12.65-1.76.81-2.48.81Zm.01-1.08l.83-.11c.74-.43 1.04-.75 1.27-1.18l.35-.96c0-1.27-.12-1.8-.35-2.22l-.51-.75c-.73-.43-1.13-.54-1.57-.54l-.82.11c-.75.43-1.05.75-1.28 1.18l-.33.95c0 1.27.11 1.8.33 2.23l.52.75c.73.43 1.13.54 1.56.54Zm4.45.9Zm1.05 0v-7.56h1.14l.06 1.32.58-.84c.89-.52 1.4-.66 1.97-.66l1.1.12c.86.47 1.2.82 1.44 1.3l.36 1.07v5.25h-1.26V256.5c0-.76-.17-1.33-.51-1.71l-.8-.57c-1.03 0-1.41.1-1.74.31l-.59.5c-.39.77-.49 1.24-.49 1.81v4.04h-1.26Zm7.57 0Zm3.9.18l-1.18-.11c-.93-.42-1.3-.71-1.58-1.08l-.44-.82 1.23-.51.16.5.53.62c.55.27.89.33 1.29.33l.64-.05.63-.35.29-.56-.07-.75-.5-.45-.9-.27c-.73-.13-1.06-.21-1.38-.31l-.6-.23-.7-.54-.36-.77c0-.78.11-1.16.33-1.49l.53-.61c.83-.38 1.32-.47 1.87-.47.81 0 1.46.19 1.96.58l.8.96-1.16.74-.21-.68c-.55-.43-.93-.54-1.41-.54l-.83.1-.61.63.07.69.47.44.86.31c.89.16 1.34.28 1.75.43l.74.37c.51.6.64 1.01.64 1.55l-.12.88c-.47.7-.8.97-1.23 1.17l-.93.29Zm7.61-.18Zm3.51.18l-1.12-.11c-.82-.43-1.13-.71-1.33-1.06l-.3-.75c0-.93.13-1.36.39-1.71l.65-.63c.97-.37 1.54-.47 2.2-.47h2c0-.47-.08-.86-.23-1.17l-.35-.56-.89-.4c-.89 0-1.3.12-1.65.36l-.57.6-1.37.47.24-.99c.61-.73 1-1.01 1.47-1.2l.96-.3c1.21 0 1.79.13 2.25.39l.82.6c.46.91.58 1.45.58 2.07v4.68h-1.13l-.07-1.34-.23.41-.49.53-.66.38-.83.2Zm.19-1.07l.67-.07.81-.49c.4-.51.55-.79.65-1.1l.17-.64v-.38h-1.89c-.49 0-.89.06-1.19.18l-.51.27-.33.64.06.76.44.56.78.27Zm4.46.89Zm3.79.18l-1.09-.12c-.87-.46-1.2-.81-1.44-1.29l-.35-1.08v-5.25h1.26v4.39c0 .75.17 1.32.5 1.7l.79.57c1.02 0 1.4-.1 1.74-.3l.61-.51c.39-.77.49-1.24.49-1.8v-4.05h1.26v7.56h-1.14l-.08-1.32-.57.84c-.9.53-1.41.66-1.98.66Zm4.81-.18Zm4.02 0l-.84-.07c-.66-.28-.92-.52-1.1-.85l-.25-.79v-4.79h-1.32v-1.06h1.32l.16-1.83h1.1v1.83h2.19v1.06h-2.19v4.22c0 .47.09.79.28.96l.53.24h1.29v1.08h-1.17Zm1.65 0Zm4.42.18l-1.33-.16c-1.12-.65-1.56-1.11-1.88-1.7l-.48-2.09c0-.81.16-1.51.48-2.09l.78-1.07c1.13-.65 1.76-.81 2.46-.81l1.36.16c1.11.65 1.55 1.11 1.87 1.72l.49 2.08c0 .8-.16 1.5-.49 2.1l-.78 1.05c-1.12.65-1.76.81-2.48.81Zm.02-1.08l.83-.11c.74-.43 1.04-.75 1.27-1.18l.34-.96c0-1.27-.11-1.8-.34-2.22l-.52-.75c-.73-.43-1.13-.54-1.57-.54l-.82.11c-.75.43-1.05.75-1.28 1.18l-.33.95c0 1.27.11 1.8.33 2.23l.53.75c.73.43 1.13.54 1.56.54Zm4.45.9Zm1.05 0v-7.56h1.14l.07 1.08.56-.7c.81-.44 1.26-.56 1.74-.56l.74.05.91.37c.48.43.67.71.82 1.03l.62-.81c.91-.51 1.4-.64 1.92-.64l1.08.12c.87.47 1.21.82 1.44 1.3l.36 1.07v5.25h-1.25V256.5c0-.76-.15-1.33-.46-1.71l-.75-.57c-.95 0-1.3.1-1.61.31l-.55.5c-.36.78-.45 1.26-.45 1.83v4.02H178.1V256.5c0-.76-.16-1.33-.47-1.71l-.75-.57c-.95 0-1.29.1-1.6.31l-.54.5c-.36.78-.45 1.26-.45 1.83v4.02h-1.26Zm12.31 0Zm3.51.18l-1.12-.11c-.82-.43-1.13-.71-1.33-1.06l-.3-.75c0-.93.13-1.36.39-1.71l.65-.63c.97-.37 1.54-.47 2.2-.47h2c0-.47-.08-.86-.23-1.17l-.35-.56-.89-.4c-.89 0-1.3.12-1.65.36l-.57.6-1.37.47.24-.99c.61-.73 1-1.01 1.47-1.2l.96-.3c1.21 0 1.79.13 2.25.39l.82.6c.46.91.58 1.45.58 2.07v4.68h-1.13l-.07-1.34-.23.41-.49.53-.66.38-.83.2Zm.19-1.07l.67-.07.81-.49c.4-.51.55-.79.65-1.1l.17-.64v-.38h-1.89c-.49 0-.89.06-1.19.18l-.51.27-.33.64.06.76.44.56.78.27Zm4.25.89Zm4.02 0l-.84-.07c-.66-.28-.91-.52-1.09-.85l-.26-.79v-4.79H193.8v-1.06h1.32l.17-1.83h1.09v1.83h2.19v1.06h-2.19v4.22c0 .47.1.79.29.96l.52.24h1.29v1.08h-1.17Zm1.85 0Zm1.17 0v-7.56h1.26v7.56h-1.26Zm.63-9.17l-.46-.08-.41-.54.08-.7.54-.38.7.07.42.51-.08.71-.55.41Zm1.81 9.17Zm3.9.18l-1.18-.11c-.93-.42-1.3-.71-1.58-1.08l-.44-.82 1.23-.51.16.5.53.62c.55.27.89.33 1.29.33l.64-.05.63-.35.29-.56-.07-.75-.5-.45-.9-.27c-.73-.13-1.06-.21-1.38-.31l-.6-.23-.7-.54-.36-.77c0-.78.11-1.16.33-1.49l.53-.61c.83-.38 1.32-.47 1.87-.47.81 0 1.46.19 1.96.58l.8.96-1.16.74-.21-.68c-.55-.43-.93-.54-1.41-.54l-.83.1-.61.63.07.69.47.44.86.31c.89.16 1.34.28 1.75.43l.74.37c.51.6.64 1.01.64 1.55l-.12.88c-.47.7-.8.97-1.23 1.17l-.93.29Zm3.63-.18Zm4.36.18l-1.34-.17c-1.09-.66-1.51-1.12-1.82-1.71l-.47-2.08c0-.8.15-1.5.45-2.08l.74-1.06c1.11-.66 1.75-.82 2.47-.82l1.37.16c1.03.66 1.42 1.1 1.69 1.64l.42 1.11c0 .74 0 .85 0 .96v.23l-6.19.14v-.97h4.96c-.03-.69-.26-1.23-.69-1.62l-.95-.59c-1.07 0-1.47.1-1.84.31l-.65.47c-.44.75-.55 1.21-.55 1.78v.41l.11 1.14c.45.84.75 1.16 1.11 1.37l.76.31c.95 0 1.39-.11 1.73-.34l.6-.56 1.39-.4-.33.85c-.6.73-.97 1.01-1.42 1.22l-.96.3Zm-1.5-8.39l-.13-.9 3.01-1.92.18 1.08-3.06 1.74Zm5.66 8.21Zm4.37.18l-1.34-.17c-1.09-.66-1.52-1.12-1.83-1.71l-.46-2.08c0-.8.15-1.5.45-2.08l.74-1.06c1.11-.66 1.75-.82 2.47-.82l1.36.16c1.03.66 1.43 1.1 1.7 1.64l.42 1.11c0 .74 0 .85 0 .96l-.01.23-6.19.14v-.97h4.97c-.03-.69-.26-1.23-.69-1.62l-.95-.59c-1.07 0-1.47.1-1.84.31l-.65.47c-.44.75-.55 1.21-.55 1.78v.41l.11 1.14c.45.84.74 1.16 1.1 1.37l.77.31c.95 0 1.38-.11 1.72-.34l.6-.56 1.4-.4-.33.85c-.6.73-.98 1.01-1.43 1.22l-.95.3Zm4.16-.18Zm3.9.18l-1.18-.11c-.93-.42-1.3-.71-1.58-1.08l-.44-.82 1.23-.51.16.5.53.62c.55.27.89.33 1.29.33l.64-.05.63-.35.29-.56-.07-.75-.5-.45-.9-.27c-.73-.13-1.06-.21-1.38-.31l-.6-.23-.7-.54-.36-.77c0-.78.11-1.16.33-1.49l.53-.61c.83-.38 1.32-.47 1.87-.47.81 0 1.46.19 1.96.58l.8.96-1.16.74-.21-.68c-.55-.43-.93-.54-1.41-.54l-.83.1-.61.63.07.69.47.44.86.31c.89.16 1.34.28 1.75.43l.74.37c.51.6.64 1.01.64 1.55l-.12.88c-.47.7-.8.97-1.23 1.17l-.93.29Zm7.61-.18Zm1.5-4.28l-.46-.08-.41-.53.08-.7.54-.4.71.08.4.53-.08.69-.53.41Zm5.46 4.28Zm4.39.18l-1.28-.12c-1.09-.49-1.52-.86-1.84-1.35l-.49-1.1 1.26-.73.1.77c.37.67.64.93.99 1.13l.77.3c.98 0 1.39-.09 1.72-.28l.58-.44c.34-.63.43-.98.43-1.38l-.12-.88c-.47-.61-.79-.84-1.19-.97l-.82-.23h-1.25v-1.07h.78c.69 0 1.23-.16 1.62-.48l.59-.76c0-1.02-.16-1.4-.47-1.71l-.76-.47c-1.21 0-1.68.17-2.03.51l-.55.78-1.32.53.18-1.08c.56-.88.94-1.22 1.42-1.46l1.05-.37c1.33 0 1.9.12 2.36.36l.8.56c.47.8.59 1.24.59 1.72l-.06.7-.46.9c-.52.48-.85.65-1.25.75l.78.24c.65.46.91.76 1.1 1.13l.28.8c0 1.07-.13 1.6-.4 2.09l-.65.87c-1.04.59-1.69.74-2.46.74Zm8.46-.18Zm3.22 0l-2.86-7.56h1.32l2.28 6.34 2.29-6.34h1.29l-2.86 7.56h-1.46Zm4.31 0Zm3.51.18l-1.12-.11c-.82-.43-1.13-.71-1.33-1.06l-.3-.75c0-.93.13-1.36.39-1.71l.65-.63c.97-.37 1.54-.47 2.2-.47h2c0-.47-.08-.86-.23-1.17l-.35-.56-.89-.4c-.89 0-1.3.12-1.65.36l-.57.6-1.37.47.24-.99c.61-.73 1-1.01 1.47-1.2l.96-.3c1.21 0 1.79.13 2.25.39l.82.6c.46.91.58 1.45.58 2.07v4.68h-1.13l-.07-1.34-.23.41-.49.53-.66.38-.83.2Zm.19-1.07l.67-.07.81-.49c.4-.51.55-.79.65-1.1l.17-.64v-.38h-1.89c-.49 0-.89.06-1.19.18l-.51.27-.33.64.06.76.44.56.78.27Zm4.46.89Zm1.05 0v-10.8h1.26v10.8h-1.26Zm2.28 0Zm1.17 0v-7.56h1.26v7.56h-1.26Zm.63-9.17l-.46-.08-.41-.54.08-.7.54-.38.7.07.42.51-.08.71-.55.41Zm1.81 9.17Zm4.38.18l-1.37-.17c-1.1-.69-1.53-1.17-1.83-1.77l-.45-2.04c0-.76.15-1.43.45-2.02l.73-1.07c1.11-.68 1.75-.85 2.48-.85l1.16.13c.93.5 1.29.84 1.54 1.29v-4.48h1.26v10.8h-1.14l-.1-1.25-.37.49-.8.6c-.7.27-1.1.34-1.56.34Zm.15-1.1l.94-.12c.76-.48 1.05-.81 1.26-1.23l.32-.93c0-1.15-.11-1.65-.32-2.08l-.5-.77c-.76-.48-1.2-.6-1.7-.6l-.93.12c-.76.48-1.05.82-1.26 1.25l-.32.93c0 1.15.11 1.65.32 2.08l.5.75c.76.48 1.2.6 1.69.6Zm4.87.92Zm3.51.18l-1.12-.11c-.82-.43-1.12-.71-1.32-1.06l-.3-.75c0-.93.13-1.36.39-1.71l.64-.63c.97-.37 1.55-.47 2.21-.47h1.99c0-.47-.07-.86-.22-1.17l-.35-.56-.89-.4c-.89 0-1.31.12-1.66.36l-.56.6-1.37.47.24-.99c.61-.73 1-1.01 1.47-1.2l.96-.3c1.21 0 1.79.13 2.25.39l.82.6c.46.91.57 1.45.57 2.07v4.68h-1.12l-.08-1.34-.23.41-.49.53-.66.38-.83.2Zm.2-1.07l.66-.07.82-.49c.4-.51.55-.79.65-1.1l.16-.64v-.38h-1.89c-.49 0-.88.06-1.18.18l-.52.27-.32.64.06.76.43.56.79.27Zm4.25.89Zm4.02 0l-.84-.07c-.66-.28-.92-.52-1.1-.85l-.25-.79v-4.79h-1.32v-1.06h1.32l.16-1.83h1.1v1.83h2.19v1.06h-2.19v4.22c0 .47.09.79.28.96l.53.24h1.29v1.08h-1.17Zm1.85 0Zm1.17 0v-7.56h1.26v7.56H305.7Zm.63-9.17l-.46-.08-.41-.54.08-.7.54-.38.7.07.42.51-.08.71-.55.41Zm1.8 9.17Zm4.43.18l-1.33-.16c-1.12-.65-1.56-1.11-1.88-1.7l-.48-2.09c0-.81.16-1.51.48-2.09l.77-1.07c1.13-.65 1.77-.81 2.47-.81l1.35.16c1.11.65 1.55 1.11 1.87 1.72l.5 2.08c0 .8-.17 1.5-.5 2.1l-.77 1.05c-1.12.65-1.76.81-2.48.81Zm.01-1.08l.83-.11c.74-.43 1.04-.75 1.27-1.18l.35-.96c0-1.27-.12-1.8-.35-2.22l-.51-.75c-.73-.43-1.13-.54-1.57-.54l-.82.11c-.75.43-1.05.75-1.28 1.18l-.33.95c0 1.27.11 1.8.33 2.23l.52.75c.73.43 1.13.54 1.56.54Zm4.46.9Zm1.05 0v-7.56h1.14l.06 1.32.58-.84c.89-.52 1.4-.66 1.97-.66l1.1.12c.86.47 1.19.82 1.43 1.3l.36 1.07v5.25h-1.26V256.5c0-.76-.17-1.33-.51-1.71l-.8-.57c-1.03 0-1.4.1-1.73.31l-.6.5c-.39.77-.48 1.24-.48 1.81v4.04h-1.26Zm7.56 0Zm3.9.18l-1.18-.11c-.93-.42-1.3-.71-1.58-1.08l-.44-.82 1.23-.51.16.5.53.62c.55.27.89.33 1.29.33l.64-.05.63-.35.29-.56-.07-.75-.5-.45-.9-.27c-.73-.13-1.06-.21-1.38-.31l-.6-.23-.7-.54-.36-.77c0-.78.11-1.16.33-1.49l.53-.61c.83-.38 1.32-.47 1.87-.47.81 0 1.46.19 1.96.58l.8.96-1.16.74-.21-.68c-.55-.43-.93-.54-1.41-.54l-.83.1-.61.63.07.69.47.44.86.31c.89.16 1.34.28 1.75.43l.74.37c.51.6.64 1.01.64 1.55l-.12.88c-.47.7-.8.97-1.23 1.17l-.93.29ZM.4 285.88Zm1.05 0v-7.56H2.59l.09 1.44.39-.63c.53-.48.85-.67 1.22-.8l.81-.19.47 1.32H5.11l-.63.05-.84.3c-.44.38-.62.64-.75.97l-.18.72v4.38H1.45Zm4.22 0Zm4.37.18l-1.34-.17c-1.09-.66-1.52-1.12-1.83-1.71l-.46-2.08c0-.8.15-1.5.45-2.08l.74-1.06c1.11-.66 1.75-.82 2.47-.82l1.36.16c1.03.66 1.43 1.1 1.7 1.64l.42 1.11c0 .74 0 .85 0 .96l-.01.23-6.19.14v-.97h4.97c-.03-.69-.26-1.23-.69-1.62l-.95-.59c-1.07 0-1.47.1-1.84.31l-.65.47c-.44.75-.55 1.21-.55 1.78v.41l.11 1.14c.45.84.74 1.16 1.1 1.37l.77.31c.95 0 1.38-.11 1.72-.34l.6-.56 1.4-.4-.33.85c-.6.73-.98 1.01-1.43 1.22l-.95.3Zm4.16-.18Zm7.09 3.3v-4.53c-.24.39-.59.72-1.05 1l-1 .41c-1.39 0-2.03-.17-2.58-.51l-.98-.82c-.6-1.19-.75-1.87-.75-2.63l.45-2.03c.3-.6.73-1.06 1.28-1.41l1.2-.52c1.16 0 1.55.06 1.89.18l.65.29.73.67.16.28.12-1.24h1.14v10.86H21.29Zm-2.56-4.22l.94-.12c.76-.48 1.05-.81 1.26-1.23l.32-.93c0-1.15-.11-1.65-.32-2.08l-.5-.77c-.76-.48-1.2-.6-1.7-.6l-.93.12c-.76.48-1.05.82-1.26 1.25l-.32.93c0 1.15.11 1.65.32 2.08l.5.75c.76.48 1.2.6 1.69.6Zm4.87.92Zm3.8.18l-1.09-.12c-.87-.46-1.21-.81-1.45-1.29l-.34-1.08v-5.25h1.26v4.39c0 .75.16 1.32.49 1.7l.8.57c1.02 0 1.4-.1 1.74-.3l.6-.51c.39-.77.49-1.24.49-1.8v-4.05h1.26v7.56H30.02l-.07-1.32-.57.84c-.9.53-1.41.66-1.98.66Zm4.8-.18Zm1.17 0v-7.56h1.26v7.56H33.37Zm.63-9.17l-.46-.08-.41-.54.08-.7.54-.38.7.07.42.51-.08.71-.55.41Zm1.81 9.17Zm3.9.18l-1.18-.11c-.93-.42-1.3-.71-1.58-1.08l-.44-.82 1.23-.51.16.5.53.62c.55.27.89.33 1.29.33l.64-.05.63-.35.29-.56-.07-.75-.5-.45-.9-.27c-.73-.13-1.06-.21-1.38-.31l-.6-.23-.7-.54-.36-.77c0-.78.11-1.16.33-1.49l.53-.61c.83-.38 1.32-.47 1.87-.47.81 0 1.46.19 1.96.58l.8.96-1.16.74-.21-.68c-.55-.43-.93-.54-1.41-.54l-.83.1-.61.63.07.69.47.44.86.31c.89.16 1.34.28 1.75.43l.74.37c.51.6.64 1.01.64 1.55l-.12.88c-.47.7-.8.97-1.23 1.17l-.93.29Zm3.62-.18Zm4.37.18l-1.34-.17c-1.09-.66-1.52-1.12-1.83-1.71l-.46-2.08c0-.8.15-1.5.45-2.08l.74-1.06c1.11-.66 1.75-.82 2.47-.82l1.36.16c1.03.66 1.43 1.1 1.7 1.64l.42 1.11c0 .74 0 .85 0 .96l-.01.23-6.19.14v-.97h4.97c-.03-.69-.26-1.23-.69-1.62l-.95-.59c-1.07 0-1.47.1-1.84.31l-.65.47c-.44.75-.55 1.21-.55 1.78v.41l.11 1.14c.45.84.74 1.16 1.1 1.37l.77.31c.95 0 1.38-.11 1.72-.34l.6-.56 1.4-.4-.33.85c-.6.73-.98 1.01-1.43 1.22l-.95.3Zm4.16-.18Zm3.9.18l-1.18-.11c-.93-.42-1.3-.71-1.58-1.08l-.44-.82 1.23-.51.16.5.53.62c.55.27.89.33 1.29.33l.64-.05.63-.35.29-.56-.07-.75-.5-.45-.9-.27c-.73-.13-1.06-.21-1.38-.31l-.6-.23-.7-.54-.36-.77c0-.78.11-1.16.33-1.49l.53-.61c.83-.38 1.32-.47 1.87-.47.81 0 1.46.19 1.96.58l.8.96-1.16.74-.21-.68c-.55-.43-.93-.54-1.41-.54l-.83.1-.61.63.07.69.47.44.86.31c.89.16 1.34.28 1.75.43l.74.37c.51.6.64 1.01.64 1.55l-.12.88c-.47.7-.8.97-1.23 1.17l-.93.29ZM.4 335.88Zm4.47.18l-2.01-.42c-.57-.28-1.01-.67-1.32-1.17l-.47-1.08 1.32-.66.1.79c.38.69.65.96 1.02 1.17l.82.3c1.01 0 1.41-.07 1.74-.22l.6-.38.43-.84c0-.75-.09-1.08-.27-1.33l-.4-.47c-.6-.32-.95-.46-1.35-.58l-.8-.27c-1.26-.42-1.87-.77-2.26-1.19l-.58-.96c0-1.24.13-1.74.38-2.17l.66-.77c.99-.49 1.57-.61 2.25-.61l1.25.12c1 .5 1.38.85 1.66 1.29l.43.93-1.32.57-.08-.58-.53-.79c-.61-.37-.99-.46-1.45-.46l-.72.05-.82.46c-.33.5-.41.81-.41 1.17l.07.61.5.6c.55.29.88.42 1.24.54l.78.26c.96.32 1.42.53 1.81.78l.71.55c.44.76.56 1.24.56 1.83l-.13.98c-.53.89-.93 1.25-1.45 1.53l-1.96.42Zm4.23-.18Zm4.43.18l-1.33-.16c-1.12-.65-1.56-1.11-1.88-1.7l-.48-2.09c0-.81.16-1.51.48-2.09l.77-1.07c1.13-.65 1.77-.81 2.47-.81l1.35.16c1.11.65 1.55 1.11 1.87 1.72l.5 2.08c0 .8-.17 1.5-.5 2.1l-.77 1.05c-1.12.65-1.76.81-2.48.81Zm.01-1.08l.83-.11c.74-.43 1.04-.75 1.27-1.18l.35-.96c0-1.27-.12-1.8-.35-2.22l-.51-.75c-.73-.43-1.13-.54-1.57-.54l-.82.11c-.75.43-1.05.75-1.28 1.18l-.33.95c0 1.27.11 1.8.33 2.23l.52.75c.73.43 1.13.54 1.56.54Zm4.45.9Zm3.8.18l-1.09-.12c-.87-.46-1.21-.81-1.45-1.29l-.34-1.08v-5.25h1.26v4.39c0 .75.16 1.32.49 1.7l.8.57c1.02 0 1.4-.1 1.74-.3l.6-.51c.39-.77.49-1.24.49-1.8v-4.05h1.26v7.56H24.41l-.07-1.32-.57.84c-.9.53-1.41.66-1.98.66Zm4.8-.18Zm1.05 0v-10.8H28.9v4.51c.25-.45.6-.8 1.05-1.06l.96-.39c1.12 0 1.63.12 2.06.36l.76.58c.46.96.57 1.57.57 2.3v4.5H33.06v-4.36c0-.76-.16-1.34-.48-1.72l-.79-.58c-1.04 0-1.43.1-1.78.31l-.61.51c-.4.78-.5 1.26-.5 1.83v4.01H27.64Zm7.58 0Zm3.51.18l-1.12-.11c-.82-.43-1.13-.71-1.33-1.06l-.3-.75c0-.93.13-1.36.39-1.71l.65-.63c.97-.37 1.54-.47 2.2-.47h2c0-.47-.08-.86-.23-1.17l-.35-.56-.89-.4c-.89 0-1.3.12-1.65.36l-.57.6-1.37.47.24-.99c.61-.73 1-1.01 1.47-1.2l.96-.3c1.21 0 1.79.13 2.25.39l.82.6c.46.91.58 1.45.58 2.07v4.68H41.35l-.07-1.34-.23.41-.49.53-.66.38-.83.2Zm.19-1.07l.67-.07.81-.49c.4-.51.55-.79.65-1.1l.17-.64v-.38H39.33c-.49 0-.89.06-1.19.18l-.51.27-.33.64.06.76.44.56.78.27Zm4.46.89Zm1.17 0v-7.56h1.26v7.56H44.55Zm.63-9.17l-.46-.08-.41-.54.08-.7.54-.38.69.07.43.51-.09.71-.54.41Zm1.8 9.17Zm4.02 0l-.84-.07c-.66-.28-.91-.52-1.09-.85l-.26-.79v-4.79H47.49v-1.06h1.32l.17-1.83h1.09v1.83h2.19v1.06H50.07v4.22c0 .47.1.79.29.96l.52.24h1.29v1.08H51Zm1.65 0Zm4.37.18l-1.34-.17c-1.09-.66-1.52-1.12-1.83-1.71l-.46-2.08c0-.8.15-1.5.45-2.08l.74-1.06c1.11-.66 1.75-.82 2.47-.82l1.36.16c1.03.66 1.43 1.1 1.7 1.64l.42 1.11c0 .74 0 .85 0 .96l-.01.23-6.19.14v-.97H59.3c-.03-.69-.26-1.23-.69-1.62l-.95-.59c-1.07 0-1.47.1-1.84.31l-.65.47c-.44.75-.55 1.21-.55 1.78v.41l.11 1.14c.45.84.74 1.16 1.1 1.37l.77.31c.95 0 1.38-.11 1.72-.34l.6-.56 1.4-.4-.33.85c-.6.73-.98 1.01-1.43 1.22l-.95.3Zm4.16-.18Zm.54 0v-1.04l4.18-5.47H61.79v-1.05h5.55v1.03l-4.2 5.48h4.28v1.05h-5.7Zm6.33 0Zm1.08-3.9V330.9h5.94v1.07H69.13Zm7.03 3.9Zm3.23 0l-2.87-7.56h1.32l2.28 6.34 2.3-6.34h1.29l-2.87 7.56H79.39Zm4.3 0Zm4.43.18l-1.33-.16c-1.12-.65-1.56-1.11-1.88-1.7l-.48-2.09c0-.81.16-1.51.48-2.09l.77-1.07c1.13-.65 1.77-.81 2.47-.81l1.35.16c1.11.65 1.55 1.11 1.87 1.72l.5 2.08c0 .8-.17 1.5-.5 2.1l-.77 1.05c-1.12.65-1.76.81-2.48.81Zm.01-1.08l.83-.11c.74-.43 1.04-.75 1.27-1.18l.35-.96c0-1.27-.12-1.8-.35-2.22l-.51-.75c-.73-.43-1.13-.54-1.57-.54l-.82.11c-.75.43-1.05.75-1.28 1.18l-.33.95c0 1.27.11 1.8.33 2.23l.52.75c.73.43 1.13.54 1.56.54Zm4.45.9Zm3.8.18l-1.09-.12c-.87-.46-1.21-.81-1.45-1.29l-.34-1.08v-5.25h1.26v4.39c0 .75.16 1.32.49 1.7l.8.57c1.02 0 1.4-.1 1.74-.3l.6-.51c.39-.77.49-1.24.49-1.8v-4.05h1.26v7.56H99l-.07-1.32-.57.84c-.9.53-1.41.66-1.98.66Zm4.8-.18Zm3.9.18l-1.18-.11c-.93-.42-1.3-.71-1.58-1.08l-.43-.82 1.23-.51.15.5.54.62c.55.27.89.33 1.29.33l.64-.05.63-.35.29-.56-.08-.75-.5-.45-.9-.27c-.73-.13-1.05-.21-1.37-.31l-.61-.23-.7-.54-.36-.77c0-.78.11-1.16.33-1.49l.54-.61c.83-.38 1.31-.47 1.86-.47.81 0 1.47.19 1.97.58l.79.96-1.15.74-.22-.68c-.55-.43-.92-.54-1.4-.54l-.83.1-.61.63.06.69.47.44.86.31c.89.16 1.35.28 1.76.43l.74.37c.51.6.64 1.01.64 1.55l-.12.88c-.47.7-.8.97-1.23 1.17l-.94.29Zm7.61-.18Zm7.1 3.3v-4.53c-.24.39-.59.72-1.05 1l-1 .41c-1.39 0-2.04-.17-2.59-.51l-.97-.82c-.6-1.19-.75-1.87-.75-2.63l.45-2.03c.3-.6.72-1.06 1.27-1.41l1.94-.52c.43 0 .81.06 1.15.18l.66.29.73.67.16.28.12-1.24h1.14v10.86h-1.26Zm-2.57-4.22l.94-.12c.76-.48 1.06-.81 1.27-1.23l.31-.93c0-1.15-.1-1.65-.31-2.08l-.51-.77c-.76-.48-1.2-.6-1.7-.6l-.92.12c-.76.48-1.06.82-1.27 1.25l-.31.93c0 1.15.1 1.65.31 2.08l.51.75c.76.48 1.19.6 1.68.6Zm4.88.92Zm3.79.18l-1.09-.12c-.87-.46-1.2-.81-1.44-1.29l-.35-1.08v-5.25h1.26v4.39c0 .75.17 1.32.5 1.7l.79.57c1.02 0 1.4-.1 1.74-.3l.61-.51c.39-.77.49-1.24.49-1.8v-4.05h1.26v7.56h-1.14l-.08-1.32-.57.84c-.9.53-1.41.66-1.98.66Zm4.81-.18Zm4.36.18l-1.34-.17c-1.09-.66-1.51-1.12-1.82-1.71l-.47-2.08c0-.8.15-1.5.45-2.08l.74-1.06c1.11-.66 1.75-.82 2.47-.82l1.37.16c1.03.66 1.42 1.1 1.69 1.64l.42 1.11c0 .74 0 .85 0 .96v.23l-6.19.14v-.97h4.96c-.03-.69-.26-1.23-.69-1.62l-.95-.59c-1.07 0-1.47.1-1.84.31l-.65.47c-.44.75-.55 1.21-.55 1.78v.41l.11 1.14c.45.84.75 1.16 1.11 1.37l.76.31c.95 0 1.39-.11 1.73-.34l.6-.56 1.39-.4-.33.85c-.6.73-.97 1.01-1.42 1.22l-.96.3Zm8.15-.18Zm-.41 3.3V338.1h.59l.65-.08.4-.57v-9.13h1.26v8.79c0 .48-.08.87-.24 1.17l-.4.53c-.63.29-1.02.37-1.48.37h-.78Zm2.28-12.47l-.46-.08-.41-.54.08-.7.54-.38.69.07.42.51-.09.71-.53.41Zm1.78 9.17Zm4.36.18l-1.34-.17c-1.09-.66-1.51-1.12-1.82-1.71l-.47-2.08c0-.8.15-1.5.45-2.08l.74-1.06c1.11-.66 1.75-.82 2.47-.82l1.37.16c1.03.66 1.42 1.1 1.69 1.64l.42 1.11c0 .74 0 .85 0 .96v.23l-6.19.14v-.97h4.96c-.03-.69-.26-1.23-.69-1.62l-.95-.59c-1.07 0-1.47.1-1.84.31l-.65.47c-.44.75-.55 1.21-.55 1.78v.41l.11 1.14c.45.84.75 1.16 1.11 1.37l.76.31c.95 0 1.39-.11 1.73-.34l.6-.56 1.39-.4-.33.85c-.6.73-.97 1.01-1.42 1.22l-.96.3Zm8.14-.18Zm4.38.18l-1.37-.17c-1.1-.69-1.52-1.17-1.82-1.77l-.45-2.04c0-.76.15-1.43.45-2.02l.72-1.07c1.11-.68 1.76-.85 2.49-.85l1.16.13c.93.5 1.29.84 1.54 1.29v-4.48h1.26v10.8h-1.14l-.11-1.25-.36.49-.8.6c-.7.27-1.11.34-1.57.34Zm.15-1.1l.94-.12c.76-.48 1.06-.81 1.27-1.23l.31-.93c0-1.15-.1-1.65-.31-2.08l-.51-.77c-.76-.48-1.2-.6-1.7-.6l-.92.12c-.76.48-1.06.82-1.27 1.25l-.31.93c0 1.15.1 1.65.31 2.08l.51.75c.76.48 1.19.6 1.68.6Zm4.88.92Zm4.36.18l-1.34-.17c-1.09-.66-1.51-1.12-1.82-1.71l-.47-2.08c0-.8.15-1.5.45-2.08l.74-1.06c1.11-.66 1.75-.82 2.47-.82l1.37.16c1.03.66 1.42 1.1 1.69 1.64l.42 1.11c0 .74 0 .85 0 .96v.23l-6.19.14v-.97h4.96c-.03-.69-.26-1.23-.69-1.62l-.95-.59c-1.07 0-1.47.1-1.84.31l-.65.47c-.44.75-.55 1.21-.55 1.78v.41l.11 1.14c.45.84.75 1.16 1.11 1.37l.76.31c.95 0 1.39-.11 1.73-.34l.6-.56 1.39-.4-.33.85c-.6.73-.97 1.01-1.42 1.22l-.96.3Zm-1.5-8.39l-.13-.9 3.01-1.92.18 1.08-3.06 1.74Zm5.66 8.21Zm1.05 0v-10.8h1.26v10.8h-1.26Zm2.29 0Zm4.37.18l-1.34-.17c-1.09-.66-1.52-1.12-1.83-1.71l-.46-2.08c0-.8.15-1.5.45-2.08l.74-1.06c1.11-.66 1.75-.82 2.47-.82l1.36.16c1.03.66 1.43 1.1 1.7 1.64l.42 1.11c0 .74 0 .85 0 .96l-.01.23-6.19.14v-.97h4.97c-.03-.69-.26-1.23-.69-1.62l-.95-.59c-1.07 0-1.47.1-1.84.31l-.65.47c-.44.75-.55 1.21-.55 1.78v.41l.11 1.14c.45.84.74 1.16 1.1 1.37l.77.31c.95 0 1.38-.11 1.72-.34l.6-.56 1.4-.4-.33.85c-.6.73-.98 1.01-1.43 1.22l-.95.3Zm1.42-8.39l-3.06-1.74.18-1.08 3.02 1.92-.14.9Zm2.7 8.21Zm4.03 3.48l-1.28-.09c-1.05-.35-1.46-.62-1.75-.98l-.43-.8c0-.76.04-1.01.13-1.27l.27-.51c.47-.5.8-.73 1.23-.93l.87.51-.87.48c-.32.56-.4.83-.4 1.07l.09.6.65.61c.68.22 1.06.27 1.49.27l.8-.05.86-.42.43-.7-.13-.94c-.52-.47-1.02-.61-1.75-.65l-1.08-.09c-.8-.14-1.13-.22-1.39-.31l-.48-.21-.51-.37-.14-.47 1.46-1.44 1.09.39-1.5 1.35.2-.53.21.16.34.2.57.14c.61.08 1.02.13 1.52.16l1.24.17c.83.38 1.13.64 1.31.96l.28.7c0 .87-.12 1.27-.36 1.65l-.59.71c-.98.5-1.61.63-2.38.63Zm-.01-5.85l-1.17-.12c-.89-.48-1.23-.8-1.46-1.2l-.34-.87c0-1 .11-1.45.34-1.85l.58-.71c.88-.49 1.42-.62 2.05-.62l1.16.13c.88.49 1.22.8 1.45 1.2l.34.85c0 1-.11 1.46-.34 1.87l-.57.72c-.88.48-1.41.6-2.04.6Zm0-1.04l.96-.14c.62-.56.78-.97.78-1.51l-.16-.93c-.62-.56-1.04-.7-1.58-.7l-.96.14c-.65.56-.81.96-.81 1.49l.16.95c.64.56 1.07.7 1.61.7Zm1.23-3.09l-.38-1.06h3.09v.95l-2.71.11Zm3.11 6.5Zm3.8.18l-1.09-.12c-.87-.46-1.21-.81-1.45-1.29l-.34-1.08v-5.25h1.26v4.39c0 .75.16 1.32.49 1.7l.8.57c1.02 0 1.4-.1 1.74-.3l.6-.51c.39-.77.49-1.24.49-1.8v-4.05h1.26v7.56H203.9l-.07-1.32-.57.84c-.9.53-1.41.66-1.98.66Zm4.8-.18Zm4.36.18l-1.34-.17c-1.09-.66-1.51-1.12-1.82-1.71l-.47-2.08c0-.8.15-1.5.45-2.08l.74-1.06c1.11-.66 1.75-.82 2.47-.82l1.37.16c1.03.66 1.42 1.1 1.69 1.64l.42 1.11c0 .74 0 .85 0 .96v.23l-6.19.14v-.97h4.96c-.03-.69-.26-1.23-.69-1.62l-.95-.59c-1.07 0-1.47.1-1.84.31l-.65.47c-.44.75-.55 1.21-.55 1.78v.41l.11 1.14c.45.84.75 1.16 1.11 1.37l.76.31c.95 0 1.39-.11 1.73-.34l.6-.56 1.39-.4-.33.85c-.6.73-.97 1.01-1.42 1.22l-.96.3Zm8.15-.18Zm1.05 0v-10.8h1.26v10.8h-1.26Zm2.29 0Zm.76-8.27l-.19-3.06h1.24l-.18 3.06h-.87Zm1.63 8.27Zm3.79.18l-1.09-.12c-.87-.46-1.2-.81-1.44-1.29l-.35-1.08v-5.25h1.26v4.39c0 .75.17 1.32.5 1.7l.79.57c1.02 0 1.4-.1 1.74-.3l.61-.51c.39-.77.49-1.24.49-1.8v-4.05h1.26v7.56h-1.14l-.08-1.32-.57.84c-.9.53-1.41.66-1.98.66Zm4.8-.18Zm1.05 0v-7.56h1.14l.06 1.32.58-.84c.89-.52 1.4-.66 1.97-.66l1.1.12c.86.47 1.2.82 1.44 1.3l.36 1.07v5.25h-1.26V331.5c0-.76-.17-1.33-.51-1.71l-.8-.57c-1.03 0-1.41.1-1.74.31l-.59.5c-.39.77-.49 1.24-.49 1.81v4.04h-1.26Zm7.57 0Zm4.36.18l-1.34-.17c-1.09-.66-1.51-1.12-1.82-1.71l-.47-2.08c0-.8.15-1.5.45-2.08l.74-1.06c1.11-.66 1.75-.82 2.47-.82l1.37.16c1.03.66 1.42 1.1 1.69 1.64l.42 1.11c0 .74 0 .85 0 .96v.23l-6.19.14v-.97h4.96c-.03-.69-.26-1.23-.69-1.62l-.95-.59c-1.07 0-1.47.1-1.84.31l-.65.47c-.44.75-.55 1.21-.55 1.78v.41l.11 1.14c.45.84.75 1.16 1.11 1.37l.76.31c.95 0 1.39-.11 1.73-.34l.6-.56 1.39-.4-.33.85c-.6.73-.97 1.01-1.42 1.22l-.96.3Zm8.15-.18Zm4.38.18l-1.37-.17c-1.1-.69-1.53-1.17-1.83-1.77l-.45-2.04c0-.76.15-1.43.45-2.02l.73-1.07c1.11-.68 1.75-.85 2.48-.85l1.16.13c.93.5 1.29.84 1.54 1.29v-4.48h1.26v10.8h-1.14l-.1-1.25-.37.49-.8.6c-.7.27-1.1.34-1.56.34Zm.15-1.1l.94-.12c.76-.48 1.05-.81 1.26-1.23l.32-.93c0-1.15-.11-1.65-.32-2.08l-.5-.77c-.76-.48-1.2-.6-1.7-.6l-.93.12c-.76.48-1.05.82-1.26 1.25l-.32.93c0 1.15.11 1.65.32 2.08l.5.75c.76.48 1.2.6 1.69.6Zm4.87.92Zm4.37.18l-1.34-.17c-1.09-.66-1.52-1.12-1.83-1.71l-.46-2.08c0-.8.15-1.5.45-2.08l.74-1.06c1.11-.66 1.75-.82 2.47-.82l1.36.16c1.03.66 1.43 1.1 1.7 1.64l.42 1.11c0 .74 0 .85 0 .96l-.01.23-6.19.14v-.97h4.97c-.03-.69-.26-1.23-.69-1.62l-.95-.59c-1.07 0-1.47.1-1.84.31l-.65.47c-.44.75-.55 1.21-.55 1.78v.41l.11 1.14c.45.84.74 1.16 1.1 1.37l.77.31c.95 0 1.38-.11 1.72-.34l.6-.56 1.4-.4-.33.85c-.6.73-.98 1.01-1.43 1.22l-.95.3Zm8.14-.18Zm4.46.18l-1.35-.17c-1.13-.66-1.57-1.12-1.89-1.71l-.48-2.07c0-.8.16-1.49.48-2.08l.76-1.05c1.13-.67 1.77-.84 2.48-.84.9 0 1.65.23 2.25.7.6.46.98 1.08 1.14 1.86h-1.29c-.1-.47-.35-.83-.74-1.09l-.85-.39c-.96 0-1.36.11-1.73.33l-.66.53c-.44.86-.55 1.39-.55 2.02l.06.89c.26.73.44 1.03.66 1.27l.47.42.9.31c.68 0 1.01-.05 1.3-.16l.53-.3.54-.73 1.36-.31-.55 1.38c-1.21.95-1.95 1.19-2.84 1.19Zm4.13-.18Zm4.36.18l-1.34-.17c-1.09-.66-1.51-1.12-1.82-1.71l-.47-2.08c0-.8.15-1.5.45-2.08l.74-1.06c1.11-.66 1.75-.82 2.47-.82l1.37.16c1.03.66 1.42 1.1 1.69 1.64l.42 1.11c0 .74 0 .85 0 .96v.23l-6.19.14v-.97h4.96c-.03-.69-.26-1.23-.69-1.62l-.95-.59c-1.07 0-1.47.1-1.84.31l-.65.47c-.44.75-.55 1.21-.55 1.78v.41l.11 1.14c.45.84.75 1.16 1.11 1.37l.76.31c.95 0 1.39-.11 1.73-.34l.6-.56 1.39-.4-.33.85c-.6.73-.97 1.01-1.42 1.22l-.96.3Zm4.16-.18Zm3.9.18l-1.18-.11c-.93-.42-1.3-.71-1.58-1.08l-.43-.82 1.23-.51.15.5.54.62c.55.27.89.33 1.29.33l.64-.05.63-.35.29-.56-.08-.75-.5-.45-.9-.27c-.73-.13-1.05-.21-1.37-.31l-.61-.23-.7-.54-.36-.77c0-.78.11-1.16.33-1.49l.54-.61c.83-.38 1.31-.47 1.86-.47.81 0 1.47.19 1.97.58l.79.96-1.15.74-.22-.68c-.55-.43-.92-.54-1.4-.54l-.83.1-.61.63.06.69.47.44.86.31c.89.16 1.35.28 1.76.43l.74.37c.51.6.64 1.01.64 1.55l-.12.88c-.47.7-.8.97-1.23 1.17l-.94.29ZM.4 360.88Zm4.02 0l-.84-.07c-.66-.28-.91-.52-1.1-.85l-.25-.79v-4.79H.91v-1.06H2.23l.16-1.83h1.1v1.83H5.68v1.06H3.49v4.22c0 .47.09.79.29.96l.52.24H5.59v1.08H4.42Zm1.85 0Zm3.51.18l-1.12-.11c-.82-.43-1.12-.71-1.32-1.06l-.3-.75c0-.93.13-1.36.39-1.71l.64-.63c.97-.37 1.55-.47 2.21-.47h1.99c0-.47-.07-.86-.22-1.17l-.35-.56-.89-.4c-.89 0-1.31.12-1.66.36l-.56.6-1.37.47.24-.99c.61-.73 1-1.01 1.47-1.2l.96-.3c1.21 0 1.79.13 2.25.39l.82.6c.46.91.57 1.45.57 2.07v4.68H12.41l-.08-1.34-.23.41-.49.53-.66.38-.83.2Zm.2-1.07l.66-.07.82-.49c.4-.51.55-.79.65-1.1l.16-.64v-.38H10.38c-.49 0-.88.06-1.18.18l-.52.27-.32.64.06.76.43.56.79.27Zm-1.73-7.36v-.99l2.06-1.22 2.05 1.22v.99l-2.05-1.26-2.06 1.26Zm6.18 8.25Zm4.46.18l-1.35-.17c-1.13-.66-1.57-1.12-1.89-1.71l-.48-2.07c0-.8.16-1.49.48-2.08l.76-1.05c1.13-.67 1.77-.84 2.48-.84.9 0 1.65.23 2.25.7.6.46.98 1.08 1.14 1.86H20.99c-.1-.47-.35-.83-.74-1.09l-.85-.39c-.96 0-1.36.11-1.73.33l-.66.53c-.44.86-.55 1.39-.55 2.02l.06.89c.26.73.44 1.03.66 1.27l.47.42.9.31c.68 0 1.01-.05 1.3-.16l.53-.3.54-.73 1.36-.31-.55 1.38c-1.21.95-1.95 1.19-2.84 1.19Zm4.13-.18Zm1.05 0v-10.8h1.26v4.51c.25-.44.6-.8 1.05-1.06l.96-.39c1.12 0 1.62.12 2.05.36l.76.58c.46.96.58 1.57.58 2.3v4.5H29.48v-4.36c0-.77-.16-1.34-.48-1.72l-.78-.58c-1.04 0-1.43.1-1.78.31l-.61.51c-.4.78-.5 1.26-.5 1.83v4.01H24.07Zm7.58 0Zm4.36.18l-1.34-.17c-1.09-.66-1.51-1.12-1.82-1.71l-.47-2.08c0-.8.15-1.5.45-2.09l.74-1.05c1.11-.66 1.75-.82 2.47-.82l1.37.16c1.03.66 1.42 1.1 1.69 1.64l.42 1.11c0 .74 0 .85 0 .96v.23l-6.19.14v-.97h4.96c-.03-.69-.26-1.23-.69-1.62l-.95-.59c-1.07 0-1.47.1-1.84.3l-.65.48c-.44.75-.55 1.21-.55 1.77v.42c0 .62.11 1.14.33 1.56l.53.74c.73.42 1.12.52 1.54.52l.97-.11c.69-.47.94-.79 1.09-1.19h1.24l-.33.85c-.6.73-.97 1.01-1.42 1.22l-.96.3Zm4.16-.18Zm3.9.18l-1.18-.11c-.93-.42-1.3-.71-1.58-1.08l-.43-.82 1.23-.51.15.5.54.62c.55.27.89.33 1.29.33l.64-.05.63-.35.29-.56-.08-.75-.5-.45-.9-.27c-.73-.13-1.05-.21-1.37-.31l-.61-.23-.7-.54-.36-.77c0-.78.11-1.16.33-1.49l.54-.61c.83-.38 1.31-.47 1.86-.47.81 0 1.47.19 1.97.58l.79.96-1.15.74-.22-.68c-.55-.43-.92-.54-1.4-.54l-.83.1-.61.63.06.69.47.44.86.31c.89.16 1.35.28 1.76.43l.74.37c.51.6.64 1.01.64 1.55l-.12.88c-.47.7-.8.97-1.23 1.17l-.94.29Zm7.61-.18Zm2.37-3.02l-.06-2.34h.47l.82-.02c.77-.11 1.11-.22 1.4-.37l.53-.39c.35-.6.44-.99.44-1.47l-.09-.78c-.36-.6-.61-.83-.93-.99l-.69-.23c-.84 0-1.21.07-1.53.23l-.57.39-.43.91-1.2.4.14-1.13c.56-.9.95-1.25 1.45-1.5l1.07-.37c1.3 0 1.88.12 2.38.37l.9.61c.57.92.72 1.46.72 2.09l-.16 1.34c-.63.92-1.06 1.26-1.61 1.47l-1.19.31-.76 1.47h-1.1Zm.54 3.09l-.46-.08-.41-.53.08-.68.54-.42.71.09.4.53-.08.68-.53.41Zm0 0" stroke="none" clip-path="url(#b)"/></g></g></svg>