<?xml version="1.0" encoding="UTF-8" standalone="no"?><svg xmlns="http://www.w3.org/2000/svg" xmlns:xlink="http://www.w3.org/1999/xlink" contentScriptType="text/ecmascript" zoomAndPan="magnify" contentStyleType="text/css" stroke="#000000" stroke-linecap="square" version="1" width="340" stroke-miterlimit="10" fill="#000000" preserveAspectRatio="xMidYMid meet" viewBox="0 0 340 260" height="260"><defs><clipPath id="a"><path d="M0 0V260H340V0Z"/></clipPath><clipPath id="g" clip-path="url(#a)"><path d="M-699 298H741V-1102H-699Z"/></clipPath><clipPath id="b"><path d="M0 0V260H340V0Z"/></clipPath><clipPath id="c" clip-path="url(#b)"><path d="M-699 298H741V-1102H-699Z"/></clipPath><clipPath id="h" clip-path="url(#c)"><path d="M25 5H315c11.05 0 20 8.95 20 20V235c0 11.05-8.95 20-20 20H25c-11.05 0-20-8.95-20-20V25C5 13.95 13.95 5 25 5Z"/></clipPath><clipPath id="d"><path d="M0 0V260H340V0Z"/></clipPath><clipPath id="i" clip-path="url(#d)"><path d="M-699 298H741V-1102H-699Z"/></clipPath><clipPath id="e"><path d="M0 0V260H340V0Z"/></clipPath><clipPath id="f" clip-path="url(#e)"><path d="M-699 298H741V-1102H-699Z"/></clipPath><clipPath id="j" clip-path="url(#f)"><path d="M35 34.14H58.89c5.52 0 10 4.48 10 10V68.02c0 5.52-4.48 10-10 10H35c-5.52 0-10-4.48-10-10V44.14c0-5.52 4.48-10 10-10Z"/></clipPath></defs><g><g fill="#0c1420" stroke="none"><path d="M25 5H315c11.05 0 20 8.95 20 20V235c0 11.05-8.95 20-20 20H25c-11.05 0-20-8.95-20-20V25C5 13.95 13.95 5 25 5Z" clip-path="url(#g)"/><path fill="#2c3f5b" d="M25 5V6H315V5 4H25V5ZM335 25h-1V235h1 1V25h-1ZM315 255v-1H25v1 1H315v-1ZM5 235H6V25H5 4V235H5Zm20 20v-1c-10.49 0-19-8.51-19-19H5 4c0 11.6 9.4 21 21 21v-1Zm310-20h-1c0 10.49-8.51 19-19 19v1 1c11.6 0 21-9.4 21-21h-1ZM315 5V6c10.49 0 19 8.51 19 19h1 1c0-11.6-9.4-21-21-21V5ZM25 5V4C13.4 4 4 13.4 4 25H5 6C6 14.51 14.51 6 25 6V5Z" clip-path="url(#h)"/><path fill="#2c3f5b" d="M25.88 174.5v.5H317v-.5-.5H25.88v.5Z" clip-path="url(#i)"/><path fill="#5a7a94" d="M25 114Zm5.12.16c-.92 0-1.71-.2-2.39-.61l-1.54-1.72c-.36-.74-.54-1.59-.54-2.56l.54-2.55c.36-.74.87-1.31 1.54-1.71s1.47-.62 2.39-.62c1.08 0 1.96.26 2.63.77s1.11 1.24 1.3 2.17H32.79c-.14-.58-.44-1.05-.88-1.4l-1.04-.54c-1.43 0-2.01.16-2.51.47l-.88.75c-.54 1.16-.68 1.85-.68 2.66l.41 2.09c.27.58.65 1.02 1.15 1.34l1.08.46c1.43 0 2.03-.17 2.47-.51l.73-.82 1.4-.58-.62 1.62c-1.35 1.03-2.23 1.28-3.31 1.28Zm4.56-.16Zm3.98.16l-1.2-.14c-1.01-.59-1.4-1-1.69-1.53l-.43-1.17c0-1.44.14-2.07.43-2.6l.7-.95c1.02-.59 1.59-.73 2.22-.73l1.22.15c1 .59 1.4 1 1.68 1.54l.44 1.16c0 1.44-.15 2.07-.44 2.61l-.7.94c-1.01.59-1.58.73-2.23.73Zm.01-.97l.75-.09c.67-.39.94-.68 1.14-1.07l.31-.86c0-1.14-.1-1.62-.31-2l-.46-.67c-.66-.39-1.02-.49-1.41-.49l-.74.1c-.67.39-.94.67-1.15 1.06l-.3.86c0 1.14.1 1.62.3 2.01l.47.68c.66.39 1.02.48 1.4.48Zm4.01.81Zm.95 0v-9.72h1.13V114H43.62Zm2.06 0Zm.95 0v-9.72h1.13V114H46.63Zm2.06 0Zm3.93.16l-1.21-.15c-.98-.59-1.36-1.01-1.64-1.54l-.42-1.17c0-1.43.13-2.06.4-2.59l.67-.94c1-.6 1.58-.74 2.22-.74l1.23.15c.93.6 1.28.99 1.52 1.47l.38 1v.76l0 .31-5.57.12v-.88h4.47c-.03-.62-.23-1.11-.62-1.46l-.85-.53c-.96 0-1.32.09-1.66.27l-.59.43c-.4.67-.5 1.09-.5 1.6v.38l.1 1.03c.4.76.67 1.04 1 1.23l.69.28c.86 0 1.25-.1 1.55-.31l.54-.5 1.26-.36-.3.77c-.54.65-.88.9-1.28 1.09l-.86.27Zm3.75-.16Zm4.01.16l-1.22-.15c-1.02-.59-1.41-1.01-1.7-1.54l-.43-1.16c0-1.42.14-2.05.43-2.58l.68-.94c1.02-.6 1.59-.76 2.23-.76.81 0 1.48.21 2.02.63l.88.97-1.02.7-.31-.75c-.7-.47-1.12-.58-1.59-.58l-.75.1c-.67.39-.93.67-1.13 1.06l-.3.86c0 .99.06 1.37.18 1.7l.27.59.63.6.81.28.9-.05.74-.37.48-.66 1.22-.28-.49 1.24c-1.09.86-1.76 1.07-2.56 1.07ZM63.9 114Zm3.62 0l-.76-.06-.82-.46c-.31-.6-.39-1.01-.39-1.52v-3.79H64.36v-.96h1.19l.15-1.65h.99v1.65h1.97v.96H66.69v3.79c0 .42.08.71.26.86l.47.22h1.16V114H67.52Zm1.48 0Zm3.93.16l-1.21-.15c-.98-.59-1.36-1.01-1.64-1.54l-.42-1.17c0-1.43.13-2.06.4-2.59l.67-.94c1-.6 1.57-.74 2.22-.74l1.23.15c.93.6 1.28.99 1.52 1.47l.38 1v.76l0 .31-5.57.12v-.88h4.47c-.03-.62-.23-1.11-.62-1.46l-.86-.53c-.96 0-1.32.09-1.66.27l-.59.43c-.4.67-.5 1.09-.5 1.6v.38l.1 1.03c.4.76.67 1.04 1 1.23l.69.28c.86 0 1.25-.1 1.55-.31l.54-.5 1.25-.36-.3.77c-.54.65-.88.9-1.28 1.09l-.86.27Zm3.75-.16Zm.05 1.66l.78-2.98h1.17l-1.17 2.98h-.78ZM82.72 114Zm3.16.16l-1.01-.09c-.74-.39-1.01-.64-1.19-.96l-.27-.67c0-.84.12-1.22.35-1.54l.58-.57c.87-.33 1.39-.42 1.98-.42h1.8l-.07-.78-.45-.78-.8-.36c-.8 0-1.17.11-1.49.32l-.51.54-1.23.42.22-.89c.55-.66.9-.91 1.32-1.08l.86-.27c1.09 0 1.61.12 2.02.35l.74.55c.41.82.52 1.3.52 1.86V114H88.24l-.07-1.2-.21.37-.44.48-.59.34-.75.18Zm.18-.96l.6-.06.73-.44.5-.72c.19-.56.24-.85.24-1.16l-1.7-.04c-.44 0-.8.05-1.07.16l-.46.24-.29.58.05.69.39.5.71.25Zm4.01.8Zm.94 0v-6.8h1.03l.05 1.19.52-.75c.8-.48 1.26-.6 1.77-.6l.99.11c.77.42 1.08.74 1.29 1.17l.32.96V114H95.85v-3.94c0-.68-.15-1.2-.46-1.54l-.72-.51c-.93 0-1.26.09-1.56.28l-.53.44c-.35.69-.44 1.12-.44 1.63V114H91.01Zm6.81 0Zm3.16.16l-1.01-.09c-.74-.39-1.01-.64-1.19-.96l-.27-.67c0-.84.12-1.22.35-1.54l.58-.57c.87-.33 1.39-.42 1.98-.42h1.8l-.07-.78-.45-.78-.8-.36c-.8 0-1.17.11-1.49.32l-.51.54-1.23.42.22-.89c.55-.66.9-.91 1.32-1.08l.86-.27c1.09 0 1.61.12 2.02.35l.74.55c.41.82.52 1.3.52 1.86V114h-1.01l-.07-1.2-.21.37-.44.48-.59.34-.75.18Zm.18-.96l.6-.06.73-.44.5-.72c.19-.56.24-.85.24-1.16l-1.7-.04c-.44 0-.8.05-1.07.16l-.46.24-.29.58.05.69.39.5.71.25Zm4.01.8Zm.95 0v-9.72h1.13V114H106.1Zm2.06 0Zm1.69 2.97l1.66-3.73h-.39l-2.67-6.05h1.23l2.21 5.2 2.32-5.2h1.17l-4.35 9.77h-1.19Zm5.42-2.97Zm3.51.16l-1.06-.09c-.84-.38-1.17-.64-1.42-.97l-.39-.74 1.11-.46.14.45.48.56.8.3.94-.04.57-.32.26-.5-.07-.68-.45-.4-.81-.25c-.66-.12-.95-.19-1.24-.28l-.54-.21-.63-.48-.32-.7c0-.7.1-1.04.3-1.34l.48-.54c.75-.34 1.18-.43 1.68-.43l1.32.18c.9.7 1.16 1.21 1.25 1.88h-1.12l-.19-.61-.83-.49c-.86 0-1.18.09-1.4.26l-.32.4.06.62.42.4.77.28c.8.14 1.21.25 1.58.39l.67.34c.46.53.58.9.58 1.39l-.11.79c-.42.63-.72.88-1.11 1.06l-.84.26Zm3.27-.16Zm3.93.16l-1.21-.15c-.98-.59-1.36-1.01-1.64-1.54l-.42-1.17c0-1.43.13-2.06.4-2.59l.67-.94c1-.6 1.57-.74 2.22-.74l1.23.15c.93.6 1.28.99 1.53 1.47l.38 1v.76l0 .31-5.57.12v-.88h4.47c-.03-.62-.23-1.11-.62-1.46l-.86-.53c-.96 0-1.32.09-1.66.27l-.59.43c-.4.67-.5 1.09-.5 1.6v.38l.1 1.03c.4.76.67 1.04.99 1.23l.69.28c.86 0 1.25-.1 1.55-.31l.54-.5 1.26-.36-.3.77c-.54.65-.88.9-1.28 1.09l-.86.27Zm7.33-.16Zm3.93.16l-1.21-.15c-.98-.59-1.36-1.01-1.64-1.54l-.42-1.17c0-1.43.13-2.06.4-2.59l.67-.94c1-.6 1.58-.74 2.22-.74l1.23.15c.93.6 1.28.99 1.53 1.47l.38 1v.76l0 .31-5.57.12v-.88h4.47c-.03-.62-.23-1.11-.62-1.46l-.86-.53c-.96 0-1.32.09-1.66.27l-.59.43c-.4.67-.5 1.09-.5 1.6v.38l.1 1.03c.4.76.67 1.04.99 1.23l.69.28c.85 0 1.25-.1 1.55-.31l.54-.5 1.26-.36-.3.77c-.54.65-.88.9-1.28 1.09l-.86.27Zm3.52-.16Zm3.62 0l-.76-.06-.82-.46c-.31-.6-.39-1.01-.39-1.52v-3.79h-1.19v-.96h1.19l.15-1.65h.99v1.65h1.97v.96h-1.97v3.79c0 .42.09.71.26.86l.47.22h1.16V114h-1.05Zm5.25 0Zm2.9 0l-2.58-6.8h1.19l2.05 5.71 2.07-5.71h1.16l-2.58 6.8h-1.31Zm4.22 0Zm1.05 0v-6.8h1.13V114H157.8Zm.57-8.25l-.41-.07-.37-.49.07-.63.49-.35.62.07.38.46-.08.64-.49.37Zm1.62 8.25Zm3.51.16l-1.06-.09c-.84-.38-1.17-.64-1.42-.97l-.39-.74 1.11-.46.14.45.48.56.8.3.94-.04.57-.32.26-.5-.07-.68-.45-.4-.81-.25c-.66-.12-.95-.19-1.24-.28l-.54-.21-.63-.48-.32-.7c0-.7.1-1.04.3-1.34l.48-.54c.75-.34 1.18-.43 1.68-.43l1.32.18c.9.7 1.17 1.21 1.25 1.88h-1.12l-.19-.61-.83-.49c-.86 0-1.18.09-1.4.26l-.32.4.06.62.42.4.77.28c.8.14 1.21.25 1.58.39l.67.34c.46.53.58.9.58 1.39l-.11.79c-.42.63-.72.88-1.11 1.06l-.84.26Zm3.27-.16Zm3.42.16l-.98-.1c-.78-.41-1.08-.73-1.3-1.17l-.31-.97V107.2h1.13v3.96c0 .67.15 1.18.45 1.52l.72.51c.92 0 1.26-.09 1.57-.27l.54-.46c.35-.69.44-1.12.44-1.62V107.2h1.13V114h-1.03l-.07-1.19-.51.76c-.81.48-1.27.59-1.78.59Zm4.32-.16Zm3.16.16l-1.01-.09c-.74-.39-1.01-.64-1.19-.96l-.27-.67c0-.84.12-1.22.35-1.54l.58-.57c.87-.33 1.39-.42 1.98-.42h1.8l-.07-.78-.45-.78-.8-.36c-.8 0-1.17.11-1.49.32l-.51.54-1.23.42.22-.89c.55-.66.9-.91 1.32-1.08l.86-.27c1.09 0 1.61.12 2.02.35l.74.55c.41.82.52 1.3.52 1.86V114h-1.01l-.07-1.2-.21.37-.44.48-.59.34-.75.18Zm.18-.96l.6-.06.73-.44.5-.72c.19-.56.24-.85.24-1.16l-1.7-.04c-.44 0-.8.05-1.07.16l-.46.24-.29.58.05.69.39.5.71.25Zm4.01.8Zm.94 0v-9.72h1.13V114h-1.13Zm2.06 0Zm1.05 0v-6.8h1.13V114H185.9Zm.57-8.25l-.41-.07-.37-.49.07-.63.49-.35.63.07.38.46-.08.64-.49.37Zm1.62 8.25Zm3.51.16l-1.06-.09c-.84-.38-1.17-.64-1.42-.97l-.39-.74 1.11-.46.14.45.48.56.8.3.94-.04.57-.32.26-.5-.07-.68-.45-.4-.81-.25c-.66-.12-.95-.19-1.24-.28l-.54-.21-.63-.48-.32-.7c0-.7.1-1.04.3-1.34l.48-.54c.75-.34 1.18-.43 1.68-.43l1.32.18c.9.7 1.16 1.21 1.25 1.88h-1.12l-.19-.61-.83-.49c-.85 0-1.18.09-1.4.26l-.32.4.06.62.42.4.77.28c.8.14 1.21.25 1.58.39l.67.34c.46.53.58.9.58 1.39l-.11.79c-.42.63-.72.88-1.11 1.06l-.84.26Zm3.27-.16Zm3.93.16l-1.21-.15c-.98-.59-1.36-1.01-1.64-1.54l-.42-1.17c0-1.43.13-2.06.4-2.59l.67-.94c1-.6 1.58-.74 2.22-.74l1.23.15c.93.6 1.28.99 1.53 1.47l.38 1v.76l0 .31-5.57.12v-.88h4.47c-.03-.62-.23-1.11-.62-1.46l-.86-.53c-.96 0-1.32.09-1.66.27l-.59.43c-.4.67-.5 1.09-.5 1.6v.38l.1 1.03c.4.76.67 1.04.99 1.23l.69.28c.85 0 1.25-.1 1.55-.31l.54-.5 1.25-.36-.3.77c-.54.65-.88.9-1.28 1.09l-.86.27Zm7.33-.16Zm.94 0v-9.72h1.13V114h-1.13Zm2.06 0Zm3.93.16l-1.21-.15c-.98-.59-1.36-1.01-1.64-1.54l-.42-1.17c0-1.43.13-2.06.4-2.59l.67-.94c1-.6 1.57-.74 2.22-.74l1.23.15c.93.6 1.28.99 1.53 1.47l.38 1v.76l0 .31-5.57.12v-.88h4.47c-.03-.62-.23-1.11-.62-1.46l-.86-.53c-.96 0-1.32.09-1.66.27l-.59.43c-.4.67-.5 1.09-.5 1.6v.38l.1 1.03c.4.76.67 1.04.99 1.23l.69.28c.86 0 1.25-.1 1.55-.31l.54-.5 1.26-.36-.3.77c-.54.65-.88.9-1.28 1.09l-.86.27Zm3.74-.16Zm3.51.16l-1.06-.09c-.84-.38-1.17-.64-1.42-.97l-.39-.74 1.11-.46.14.45.48.56.8.3.94-.04.57-.32.26-.5-.07-.68-.45-.4-.81-.25c-.66-.12-.95-.19-1.24-.28l-.55-.21-.63-.48-.32-.7c0-.7.1-1.04.3-1.34l.48-.54c.75-.34 1.18-.43 1.68-.43l1.32.18c.9.7 1.17 1.21 1.25 1.88h-1.12l-.19-.61-.83-.49c-.86 0-1.18.09-1.4.26l-.32.4.06.62.42.4.77.28c.8.14 1.21.25 1.58.39l.67.34c.46.53.58.9.58 1.39l-.11.79c-.42.63-.72.88-1.11 1.06l-.84.26Zm6.85-.16Zm3.94.16l-1.23-.15c-.99-.62-1.37-1.05-1.64-1.59l-.4-1.15c0-1.37.13-1.98.4-2.51l.65-.96c1-.61 1.58-.76 2.24-.76l1.04.11c.84.45 1.16.77 1.39 1.17v-4.04h1.13V114h-1.03l-.1-1.12-.33.44-.72.55c-.63.24-1 .3-1.41.3Zm.13-.99l.85-.11c.68-.43.95-.73 1.14-1.11l.28-.84c0-1.03-.09-1.48-.28-1.87l-.45-.69c-.68-.43-1.08-.54-1.53-.54l-.83.11c-.68.43-.95.73-1.14 1.12l-.28.84c0 1.03.09 1.49.28 1.88l.46.67c.68.43 1.08.54 1.52.54Zm4.39.82Zm3.98.16l-1.2-.14c-1.01-.59-1.4-1-1.69-1.53l-.43-1.17c0-1.44.14-2.07.43-2.6l.7-.95c1.02-.59 1.59-.73 2.22-.73l1.22.15c1 .59 1.39 1 1.68 1.54l.45 1.16c0 1.44-.15 2.07-.45 2.61l-.7.94c-1.01.59-1.58.73-2.23.73Zm.01-.97l.75-.09c.67-.39.94-.68 1.14-1.07l.31-.86c0-1.14-.1-1.62-.31-2l-.46-.67c-.66-.39-1.02-.49-1.41-.49l-.74.1c-.67.39-.94.67-1.15 1.06l-.3.86c0 1.14.1 1.62.3 2.01l.47.68c.66.39 1.02.48 1.4.48Zm4.01.81Zm.95 0v-6.8h1.03l.05 1.19.52-.75c.8-.48 1.26-.6 1.77-.6l.99.11c.77.42 1.08.74 1.29 1.17l.32.96V114h-1.13v-3.94c0-.68-.15-1.2-.46-1.54l-.72-.51c-.93 0-1.26.09-1.56.28l-.54.44c-.35.69-.44 1.12-.44 1.63V114h-1.13Zm6.81 0Zm.94 0v-6.8h1.03l.05 1.19.52-.75c.8-.48 1.26-.6 1.77-.6l.99.11c.77.42 1.08.74 1.29 1.17l.32.96V114h-1.13v-3.94c0-.68-.15-1.2-.46-1.54l-.72-.51c-.93 0-1.26.09-1.56.28l-.54.44c-.35.69-.44 1.12-.44 1.63V114h-1.13Zm6.81 0Zm3.93.16l-1.21-.15c-.98-.59-1.36-1.01-1.64-1.54l-.42-1.17c0-1.43.13-2.06.4-2.59l.67-.94c1-.6 1.57-.74 2.22-.74l1.23.15c.93.6 1.28.99 1.52 1.47l.38 1v.76l0 .31-5.57.12v-.88h4.47c-.03-.62-.23-1.11-.62-1.46l-.86-.53c-.96 0-1.32.09-1.66.27l-.59.43c-.4.67-.5 1.09-.5 1.6v.38l.1 1.03c.4.76.67 1.04 1 1.23l.69.28c.86 0 1.25-.1 1.55-.31l.54-.5 1.25-.36-.3.77c-.54.65-.88.9-1.28 1.09l-.86.27Zm-1.35-7.55l-.12-.81 2.71-1.73.16.97-2.75 1.57Zm5.09 7.38Zm3.93.16l-1.21-.15c-.98-.59-1.36-1.01-1.64-1.54l-.42-1.17c0-1.43.13-2.06.4-2.59l.67-.94c1-.6 1.57-.74 2.22-.74l1.23.15c.93.6 1.28.99 1.53 1.47l.38 1v.76l0 .31-5.57.12v-.88h4.47c-.03-.62-.23-1.11-.62-1.46l-.86-.53c-.96 0-1.32.09-1.66.27l-.59.43c-.4.67-.5 1.09-.5 1.6v.38l.1 1.03c.4.76.67 1.04.99 1.23l.69.28c.86 0 1.25-.1 1.55-.31l.54-.5 1.26-.36-.3.77c-.54.65-.88.9-1.28 1.09l-.86.27Zm3.74-.16Zm3.51.16l-1.06-.09c-.84-.38-1.17-.64-1.42-.97l-.39-.74 1.11-.46.14.45.48.56.8.3.94-.04.57-.32.26-.5-.07-.68-.45-.4-.81-.25c-.66-.12-.95-.19-1.24-.28l-.55-.21-.63-.48-.32-.7c0-.7.1-1.04.3-1.34l.48-.54c.75-.34 1.18-.43 1.68-.43l1.32.18c.9.7 1.17 1.21 1.25 1.88h-1.12l-.19-.61-.83-.49c-.86 0-1.18.09-1.4.26l-.32.4.06.62.42.4.77.28c.8.14 1.21.25 1.58.39l.67.34c.46.53.58.9.58 1.39l-.11.79c-.42.63-.72.88-1.11 1.06l-.84.26Zm6.85-.16Zm3.94.16l-1.23-.15c-.99-.62-1.37-1.05-1.64-1.59l-.4-1.15c0-1.37.13-1.98.4-2.51l.65-.96c1-.61 1.58-.76 2.24-.76l1.04.11c.84.45 1.16.77 1.39 1.17v-4.04h1.13V114h-1.03l-.09-1.12-.33.44-.72.55c-.63.24-.99.3-1.41.3Zm.13-.99l.85-.11c.68-.43.95-.73 1.14-1.11l.28-.84c0-1.03-.09-1.48-.28-1.87l-.45-.69c-.68-.43-1.08-.54-1.53-.54l-.83.11c-.68.43-.95.73-1.14 1.12l-.28.84c0 1.03.09 1.49.28 1.88l.45.67c.68.43 1.08.54 1.52.54Zm4.39.82Zm3.93.16l-1.21-.15c-.98-.59-1.36-1.01-1.64-1.54l-.42-1.17c0-1.43.13-2.06.4-2.59l.67-.94c1-.6 1.58-.74 2.22-.74l1.23.15c.93.6 1.28.99 1.53 1.47l.38 1v.76l0 .31-5.57.12v-.88h4.47c-.03-.62-.23-1.11-.62-1.46l-.86-.53c-.96 0-1.32.09-1.66.27l-.58.43c-.4.67-.5 1.09-.5 1.6v.38l.1 1.03c.41.76.67 1.04.99 1.23l.69.28c.85 0 1.25-.1 1.55-.31l.54-.5 1.25-.36-.3.77c-.54.65-.88.9-1.28 1.09l-.86.27ZM25 132Zm3.62 0l-.76-.06-.82-.46c-.31-.6-.39-1.01-.39-1.52v-3.79H25.46v-.96h1.19l.15-1.65h.99v1.65h1.97v.96H27.78v3.79c0 .42.09.71.26.86l.47.22h1.16V132H28.62Zm1.48 0Zm3.98.16l-1.2-.14c-1.01-.59-1.4-1-1.69-1.53l-.43-1.17c0-1.44.14-2.07.43-2.6l.7-.95c1.02-.59 1.59-.73 2.22-.73l1.22.15c1 .59 1.39 1 1.68 1.54l.45 1.16c0 1.44-.15 2.07-.45 2.61l-.7.94c-1.01.59-1.58.73-2.23.73Zm.01-.97l.75-.09c.67-.39.94-.68 1.14-1.07l.31-.86c0-1.14-.1-1.62-.31-2l-.46-.67c-.66-.39-1.02-.49-1.41-.49l-.74.1c-.68.39-.95.67-1.15 1.06l-.3.86c0 1.14.1 1.62.3 2.01l.47.68c.66.39 1.02.48 1.4.48Zm4.01.81Zm3.42.16l-.98-.1c-.78-.41-1.09-.73-1.3-1.17l-.31-.97V125.2h1.13v3.96c0 .67.15 1.18.45 1.52l.71.51c.92 0 1.26-.09 1.57-.27l.54-.46c.35-.69.44-1.12.44-1.62V125.2h1.13V132H43.88l-.07-1.19-.51.76c-.81.48-1.27.59-1.78.59Zm4.32-.16Zm3.62 0l-.76-.06-.82-.46c-.31-.6-.39-1.01-.39-1.52v-3.79H46.3v-.96h1.19l.15-1.65h.99v1.65H50.6v.96H48.62v3.79c0 .42.09.71.26.86l.47.22h1.16V132H49.46Zm1.48 0Zm3.93.16l-1.21-.15c-.98-.59-1.36-1.01-1.64-1.54l-.42-1.17c0-1.43.13-2.06.4-2.59l.67-.94c1-.6 1.58-.74 2.22-.74l1.23.15c.93.6 1.28.99 1.53 1.47l.38 1v.76l0 .31-5.57.12v-.88h4.47c-.03-.62-.23-1.11-.62-1.46l-.85-.53c-.96 0-1.32.09-1.66.27l-.59.43c-.4.67-.49 1.09-.49 1.6v.38l.1 1.03c.4.76.67 1.04.99 1.23l.69.28c.86 0 1.25-.1 1.55-.31l.54-.5 1.26-.36-.3.77c-.54.65-.88.9-1.28 1.09l-.86.27ZM62.2 132Zm.95 0v-9.72h1.13V132H63.15Zm2.06 0Zm3.16.16l-1.01-.09c-.74-.39-1.01-.64-1.19-.96l-.27-.67c0-.84.12-1.22.35-1.54l.58-.57c.87-.33 1.39-.42 1.98-.42h1.8l-.07-.78-.45-.78-.8-.36c-.8 0-1.17.11-1.49.32l-.51.54-1.23.42.22-.89c.55-.66.9-.91 1.32-1.08l.86-.27c1.09 0 1.61.12 2.03.35l.74.55c.41.82.52 1.3.52 1.86V132H70.73l-.07-1.2-.21.37-.44.48-.59.34-.75.18Zm.17-.96l.6-.06.73-.44.5-.72c.19-.56.24-.85.24-1.16l-1.7-.04c-.44 0-.8.05-1.07.16l-.46.24-.29.58.05.69.39.5.71.25Zm7.6.8Zm.94 2.97V125.2h1.03l.1 1.11.33-.42.72-.55c.63-.24.99-.31 1.39-.31l1.24.16c.98.63 1.36 1.06 1.63 1.6l.42 1.14c0 1.37-.14 1.98-.42 2.52l-.65.95c-.99.61-1.57.77-2.24.77l-1.03-.11c-.84-.45-1.16-.76-1.38-1.17v4.09H77.08Zm3.43-3.79l.83-.11c.68-.43.95-.73 1.14-1.11l.3-.84c0-1.03-.1-1.48-.3-1.87l-.45-.69c-.68-.43-1.08-.54-1.52-.54l-.85.11c-.68.43-.95.73-1.14 1.12l-.28.84c0 1.03.1 1.49.28 1.88l.45.67c.68.43 1.08.54 1.53.54Zm4.08.82Zm.94 0v-9.72h1.13V132H85.53Zm2.06 0Zm3.16.16l-1.01-.09c-.74-.39-1.01-.64-1.19-.96l-.27-.67c0-.84.12-1.22.35-1.54l.58-.57c.87-.33 1.39-.42 1.98-.42H93l-.07-.78-.45-.78-.8-.36c-.8 0-1.17.11-1.49.32l-.51.54-1.23.42.22-.89c.55-.66.9-.91 1.32-1.08l.86-.27c1.09 0 1.61.12 2.02.35l.74.55c.41.82.52 1.3.52 1.86V132H93.12l-.07-1.2-.21.37-.44.48-.59.34-.75.18Zm.17-.96l.6-.06.73-.44.5-.72c.19-.56.24-.85.24-1.16l-1.7-.04c-.44 0-.8.05-1.07.16l-.46.24-.29.58.05.69.39.5.71.25Zm3.82.8Zm3.62 0l-.76-.06-.82-.46c-.32-.6-.39-1.01-.39-1.52v-3.79H95.21v-.96H96.4l.15-1.65h.99v1.65h1.97v.96H97.53v3.79c0 .42.09.71.26.86l.47.22h1.16V132H98.37Zm1.48 0Zm3.93.16l-1.21-.15c-.98-.59-1.36-1.01-1.64-1.54l-.42-1.17c0-1.43.13-2.06.4-2.59l.67-.94c1-.6 1.57-.74 2.22-.74l1.23.15c.93.6 1.28.99 1.53 1.47l.38 1v.76l0 .31-5.57.12v-.88h4.47c-.03-.62-.23-1.11-.62-1.46l-.86-.53c-.96 0-1.32.09-1.66.27l-.59.43c-.4.67-.5 1.09-.5 1.6v.38l.1 1.03c.4.76.67 1.04.99 1.23l.69.28c.85 0 1.25-.1 1.55-.31l.54-.5 1.26-.36-.3.77c-.54.65-.88.9-1.28 1.09l-.86.27Zm3.74-.16Zm1.32 0v-7.86c0-.43.07-.78.22-1.05l.36-.48.92-.33h1.18v.97h-.59l-.58.07-.37.51V132h-1.13Zm-1.04-5.85v-.96h3.89v.96h-3.89Zm4.04 5.85Zm3.98.16l-1.2-.14c-1.01-.59-1.4-1-1.69-1.53l-.43-1.17c0-1.44.14-2.07.43-2.6l.7-.95c1.02-.59 1.59-.73 2.22-.73l1.22.15c1 .59 1.39 1 1.68 1.54l.45 1.16c0 1.44-.15 2.07-.45 2.61l-.7.94c-1.01.59-1.58.73-2.23.73Zm.01-.97l.75-.09c.67-.39.94-.68 1.14-1.07l.31-.86c0-1.14-.1-1.62-.31-2l-.46-.67c-.66-.39-1.02-.49-1.41-.49l-.74.1c-.67.39-.95.67-1.15 1.06l-.3.86c0 1.14.1 1.62.3 2.01l.47.68c.66.39 1.02.48 1.4.48Zm4.01.81Zm.95 0v-6.8h1.03l.08 1.3.35-.57.76-.6c.67-.23 1.06-.29 1.49-.29v1.19h-.42l-.56.04-.76.28-.56.58c-.23.59-.28.94-.28 1.38V132H120.8Zm4.05 0Zm.95 0v-6.8h1.03l.07.97.5-.63c.73-.4 1.13-.51 1.56-.51l.67.05.82.33c.43.39.61.63.74.93l.55-.73c.82-.46 1.26-.58 1.73-.58l.98.11c.78.42 1.09.74 1.29 1.17l.32.96V132h-1.12v-3.94c0-.68-.14-1.2-.42-1.54l-.67-.51c-.85 0-1.17.09-1.45.28l-.5.44c-.32.7-.4 1.13-.4 1.65V132h-1.13v-3.94c0-.68-.14-1.2-.42-1.54l-.67-.51c-.86 0-1.17.09-1.44.28l-.49.44c-.32.7-.4 1.13-.4 1.65V132H125.8Zm11.08 0Zm3.93.16l-1.2-.15c-.98-.59-1.36-1.01-1.64-1.54l-.42-1.17c0-1.43.13-2.06.41-2.59l.66-.94c1-.6 1.58-.74 2.22-.74l1.23.15c.93.6 1.28.99 1.53 1.47l.38 1v.76l-.01.31-5.57.12v-.88h4.47c-.03-.62-.23-1.11-.62-1.46l-.86-.53c-.96 0-1.32.09-1.66.27l-.59.43c-.4.67-.5 1.09-.5 1.6v.38l.1 1.03c.4.76.67 1.04 1 1.23l.69.28c.85 0 1.25-.1 1.55-.31l.54-.5 1.25-.36-.3.77c-.54.65-.88.9-1.28 1.09l-.86.27Zm7.33-.16Zm.95 2.97V125.2h1.03l.09 1.11.33-.42.72-.55c.63-.24.99-.31 1.39-.31l1.24.16c.98.63 1.36 1.06 1.63 1.6l.42 1.14c0 1.37-.14 1.98-.42 2.52l-.65.95c-.99.61-1.57.77-2.24.77l-1.03-.11c-.84-.45-1.16-.76-1.38-1.17v4.09h-1.13Zm3.43-3.79l.83-.11c.68-.43.95-.73 1.14-1.11l.3-.84c0-1.03-.1-1.48-.3-1.87l-.46-.69c-.68-.43-1.07-.54-1.52-.54l-.85.11c-.68.43-.95.73-1.14 1.12l-.28.84c0 1.03.09 1.49.28 1.88l.46.67c.68.43 1.08.54 1.53.54Zm4.08.82Zm3.98.16l-1.2-.14c-1.01-.59-1.4-1-1.69-1.53l-.43-1.17c0-1.44.14-2.07.43-2.6l.7-.95c1.02-.59 1.59-.73 2.22-.73l1.22.15c1 .59 1.39 1 1.68 1.54l.45 1.16c0 1.44-.15 2.07-.45 2.61l-.7.94c-1.01.59-1.58.73-2.23.73Zm.01-.97l.75-.09c.67-.39.94-.68 1.14-1.07l.31-.86c0-1.14-.1-1.62-.31-2l-.46-.67c-.66-.39-1.02-.49-1.41-.49l-.74.1c-.67.39-.94.67-1.15 1.06l-.3.86c0 1.14.1 1.62.3 2.01l.47.68c.66.39 1.02.48 1.4.48Zm4.01.81Zm3.42.16l-.98-.1c-.78-.41-1.08-.73-1.3-1.17l-.31-.97V125.2h1.13v3.96c0 .67.15 1.18.45 1.52l.72.51c.92 0 1.26-.09 1.57-.27l.54-.46c.35-.69.44-1.12.44-1.62V125.2h1.13V132h-1.03l-.07-1.19-.51.76c-.81.48-1.27.59-1.78.59Zm4.32-.16Zm.95 0v-6.8h1.03l.08 1.3.35-.57.76-.6c.67-.23 1.06-.29 1.49-.29v1.19h-.42l-.56.04-.76.28-.56.58c-.22.59-.28.94-.28 1.38V132h-1.13Zm7.64 0Zm3.63 3.13l-1.16-.08c-.95-.31-1.31-.55-1.57-.88l-.39-.72.04-.9.32-.7c.42-.45.72-.65 1.11-.83l.78.46-.79.42-.36.75.09.76.58.54c.61.2.96.25 1.35.25l.72-.06.77-.37.38-.63-.12-.85c-.47-.42-.91-.54-1.57-.58l-.98-.08c-.72-.13-1.02-.2-1.25-.28l-.43-.19-.45-.33-.13-.43 1.31-1.3.99.35-1.35 1.21.18-.47.19.14.3.18.52.13.91.11c1.07.08 1.57.19 1.94.36l.65.4c.33.58.42.92.42 1.31l-.11.75c-.42.69-.75.98-1.19 1.21l-1.01.34Zm-.01-5.27l-1.05-.11c-.8-.43-1.1-.72-1.31-1.08l-.31-.78c0-.9.1-1.3.31-1.66l.52-.65c.79-.44 1.27-.55 1.84-.55l1.05.11c.79.44 1.09.73 1.3 1.09l.31.76c0 .9-.1 1.31-.31 1.68l-.51.65c-.79.43-1.27.54-1.84.54Zm0-.93l.87-.13c.56-.5.7-.87.7-1.36l-.14-.84c-.56-.5-.94-.63-1.43-.63l-.86.13c-.59.5-.73.87-.73 1.35l.14.85c.58.5.96.63 1.45.63Zm1.11-2.78l-.34-.96h2.78v.85l-2.44.11Zm2.54 5.85Zm3.93.16l-1.21-.15c-.98-.59-1.36-1.01-1.64-1.54l-.42-1.17c0-1.43.13-2.06.4-2.59l.67-.94c1-.6 1.58-.74 2.22-.74l1.23.15c.93.6 1.28.99 1.53 1.47l.38 1v.76l0 .31-5.57.12v-.88h4.47c-.03-.62-.23-1.11-.62-1.46l-.86-.53c-.96 0-1.32.09-1.66.27l-.59.43c-.4.67-.5 1.09-.5 1.6v.38l.1 1.03c.4.76.67 1.04.99 1.23l.69.28c.85 0 1.25-.1 1.55-.31l.54-.5 1.26-.36-.3.77c-.54.65-.88.9-1.28 1.09l-.86.27Zm-1.35-7.55l-.12-.81 2.71-1.73.16.97-2.75 1.57Zm5.09 7.38Zm.95 0v-6.8h1.03l.05 1.19.52-.75c.8-.48 1.26-.6 1.77-.6l.99.11c.77.42 1.08.74 1.29 1.17l.32.96V132h-1.13v-3.94c0-.68-.15-1.2-.46-1.54l-.72-.51c-.93 0-1.26.09-1.56.28l-.54.44c-.35.69-.44 1.12-.44 1.63V132h-1.13Zm6.81 0Zm3.93.16l-1.21-.15c-.98-.59-1.36-1.01-1.64-1.54l-.42-1.17c0-1.43.13-2.06.4-2.59l.67-.94c1-.6 1.57-.74 2.22-.74l1.23.15c.93.6 1.28.99 1.53 1.47l.38 1v.76l0 .31-5.57.12v-.88h4.47c-.03-.62-.23-1.11-.62-1.46l-.86-.53c-.96 0-1.32.09-1.66.27l-.59.43c-.4.67-.5 1.09-.5 1.6v.38l.1 1.03c.4.76.67 1.04.99 1.23l.69.28c.86 0 1.25-.1 1.55-.31l.54-.5 1.26-.36-.3.77c-.54.65-.88.9-1.28 1.09l-.86.27Zm-1.35-7.55l-.12-.81 2.71-1.73.16.97-2.75 1.57Zm5.09 7.38Zm.95 0v-6.8h1.03l.08 1.3.35-.57.77-.6c.67-.23 1.06-.29 1.49-.29v1.19h-.42l-.56.04-.76.28-.56.58c-.23.59-.28.94-.28 1.38V132h-1.13Zm3.8 0Zm3.93.16l-1.21-.15c-.98-.59-1.36-1.01-1.64-1.54l-.42-1.17c0-1.43.13-2.06.4-2.59l.67-.94c1-.6 1.58-.74 2.22-.74l1.23.15c.93.6 1.28.99 1.53 1.47l.38 1v.76l0 .31-5.57.12v-.88H222c-.03-.62-.23-1.11-.62-1.46l-.85-.53c-.96 0-1.32.09-1.66.27l-.59.43c-.4.67-.5 1.09-.5 1.6v.38l.1 1.03c.4.76.67 1.04.99 1.23l.69.28c.86 0 1.25-.1 1.55-.31l.54-.5 1.26-.36-.3.77c-.54.65-.88.9-1.28 1.09l-.86.27Zm3.74-.16Zm.94 0v-6.8h1.03l.08 1.3.35-.57.76-.6c.68-.23 1.06-.29 1.49-.29v1.19h-.42l-.56.04-.76.28-.56.58c-.23.59-.28.94-.28 1.38V132h-1.13Zm7.64 0Zm3.94.16l-1.23-.15c-.99-.62-1.37-1.05-1.64-1.59l-.41-1.15c0-1.37.13-1.98.41-2.51l.65-.96c1-.61 1.58-.76 2.24-.76l1.04.11c.84.45 1.16.77 1.39 1.17v-4.04h1.13V132h-1.03l-.09-1.12-.33.44-.72.55c-.63.24-1 .3-1.41.3Zm.13-.99l.85-.11c.68-.43.95-.73 1.14-1.11l.28-.84c0-1.03-.09-1.48-.28-1.87l-.45-.69c-.68-.43-1.08-.54-1.53-.54l-.83.11c-.68.43-.95.73-1.14 1.12l-.28.84c0 1.03.09 1.49.28 1.88l.45.67c.68.43 1.08.54 1.52.54Zm4.39.82Zm3.93.16l-1.21-.15c-.98-.59-1.36-1.01-1.64-1.54l-.42-1.17c0-1.43.13-2.06.4-2.59l.67-.94c1-.6 1.57-.74 2.22-.74l1.23.15c.93.6 1.28.99 1.53 1.47l.38 1v.76l0 .31-5.57.12v-.88h4.47c-.03-.62-.23-1.11-.62-1.46l-.86-.53c-.96 0-1.32.09-1.66.27l-.59.43c-.4.67-.5 1.09-.5 1.6v.38l.1 1.03c.4.76.67 1.04.99 1.23l.69.28c.86 0 1.25-.1 1.55-.31l.54-.5 1.26-.36-.3.77c-.54.65-.88.9-1.28 1.09l-.86.27Zm3.74-.16Zm3.51.16l-1.06-.09c-.84-.38-1.17-.64-1.42-.97l-.39-.74 1.11-.46.14.45.48.56.8.3.94-.04.57-.32.26-.5-.07-.68-.45-.4-.81-.25c-.66-.12-.95-.19-1.24-.28l-.55-.21-.63-.48-.32-.7c0-.7.1-1.04.3-1.34l.48-.54c.75-.34 1.18-.43 1.68-.43l1.32.18c.9.7 1.17 1.21 1.25 1.88h-1.12l-.19-.61-.83-.49c-.86 0-1.18.09-1.4.26l-.32.4.06.62.42.4.77.28c.8.14 1.21.25 1.58.39l.67.34c.46.53.58.9.58 1.39l-.11.79c-.42.63-.72.88-1.11 1.06l-.84.26Zm6.85-.16Zm1.05 0v-6.8h1.13V132h-1.13Zm.57-8.25l-.41-.07-.37-.49.07-.63.49-.35.62.07.38.46-.08.64-.49.37Zm1.62 8.25Zm.95 0v-6.8h1.03l.05 1.19.52-.75c.8-.48 1.26-.6 1.77-.6l.99.11c.77.42 1.07.74 1.29 1.17l.32.96V132h-1.13v-3.94c0-.68-.15-1.2-.46-1.54l-.72-.51c-.93 0-1.26.09-1.56.28l-.54.44c-.35.69-.44 1.12-.44 1.63V132h-1.13Zm6.81 0Zm3.51.16l-1.06-.09c-.84-.38-1.17-.64-1.42-.97l-.39-.74 1.11-.46.14.45.48.56.8.3.94-.04.57-.32.26-.5-.07-.68-.45-.4-.81-.25c-.66-.12-.95-.19-1.24-.28l-.54-.21-.63-.48-.32-.7c0-.7.1-1.04.3-1.34l.48-.54c.75-.34 1.18-.43 1.68-.43l1.32.18c.9.7 1.17 1.21 1.25 1.88h-1.12l-.19-.61-.83-.49c-.86 0-1.18.09-1.4.26l-.32.4.06.62.42.4.77.28c.8.14 1.21.25 1.58.39l.67.34c.46.53.58.9.58 1.39l-.11.79c-.42.63-.72.88-1.11 1.06l-.84.26Zm3.27-.16Zm1.05 0v-6.8h1.13V132H277.6Zm.57-8.25l-.41-.07-.37-.49.07-.63.49-.35.62.07.38.46-.08.64-.49.37Zm1.62 8.25Zm3.63 3.13l-1.16-.08c-.94-.31-1.31-.55-1.57-.88l-.39-.72.04-.9.32-.7c.42-.45.73-.65 1.11-.83l.78.46-.79.42-.36.75.09.76.58.54c.61.2.96.25 1.35.25l.72-.06.77-.37.38-.63-.12-.85c-.47-.42-.91-.54-1.57-.58l-.98-.08c-.72-.13-1.02-.2-1.25-.28l-.43-.19-.45-.33-.13-.43 1.31-1.3.99.35-1.35 1.21.17-.47.19.14.3.18.52.13.91.11c1.07.08 1.57.19 1.93.36l.65.4c.33.58.42.92.42 1.31l-.11.75c-.42.69-.75.98-1.19 1.21l-1.01.34Zm-.01-5.27l-1.05-.11c-.8-.43-1.1-.72-1.31-1.08l-.31-.78c0-.9.1-1.3.31-1.66l.52-.65c.79-.44 1.27-.55 1.84-.55l1.05.11c.79.44 1.09.73 1.3 1.09l.31.76c0 .9-.1 1.31-.31 1.68l-.51.65c-.79.43-1.27.54-1.84.54Zm0-.93l.87-.13c.56-.5.7-.87.7-1.36l-.14-.84c-.56-.5-.94-.63-1.43-.63l-.86.13c-.58.5-.73.87-.73 1.35l.14.85c.58.5.96.63 1.45.63Zm1.11-2.78l-.34-.96h2.78v.85l-2.44.11Zm2.8 5.85Zm.95 0v-9.72h1.13v4.06c.23-.4.54-.73.94-.96l.86-.35c1.01 0 1.46.11 1.85.32l.68.53c.41.87.52 1.41.52 2.07V132h-1.12v-3.93c0-.68-.14-1.2-.43-1.54l-.71-.53c-.94 0-1.29.09-1.6.28l-.55.46c-.36.7-.45 1.13-.45 1.65V132h-1.13Zm6.82 0Zm3.62 0l-.76-.06-.82-.46c-.32-.6-.39-1.01-.39-1.52v-3.79h-1.19v-.96h1.19l.15-1.65h.99v1.65h1.97v.96h-1.97v3.79c0 .42.09.71.26.86l.47.22h1.16V132H298.7Zm1.67 0Zm3.51.16l-1.06-.09c-.84-.38-1.17-.64-1.42-.97l-.39-.74 1.11-.46.14.45.48.56.8.3.94-.04.57-.32.26-.5-.07-.68-.45-.4-.81-.25c-.66-.12-.95-.19-1.24-.28l-.54-.21-.63-.48-.32-.7c0-.7.1-1.04.3-1.34l.48-.54c.75-.34 1.18-.43 1.68-.43l1.32.18c.9.7 1.17 1.21 1.25 1.88h-1.12l-.19-.61-.83-.49c-.86 0-1.18.09-1.4.26l-.32.4.06.62.42.4.77.28c.8.14 1.21.25 1.58.39l.67.34c.46.53.58.9.58 1.39l-.11.79c-.42.63-.72.88-1.11 1.06l-.84.26ZM25 150Zm3.16.16l-1.01-.09c-.74-.39-1.01-.64-1.19-.96l-.27-.67c0-.84.12-1.22.35-1.54l.58-.57c.87-.33 1.39-.42 1.98-.42h1.8l-.07-.78-.45-.78-.8-.36c-.8 0-1.17.11-1.49.32l-.51.54-1.23.42.22-.89c.55-.66.9-.91 1.32-1.08l.86-.27c1.09 0 1.61.12 2.03.35l.74.55c.41.82.52 1.3.52 1.86V150H30.52l-.07-1.2-.21.37-.44.48-.59.34-.75.18Zm.17-.96l.6-.06.73-.44.49-.72c.19-.56.24-.85.24-1.16l-1.7-.04c-.44 0-.8.05-1.07.16l-.46.24-.29.58.05.69.39.5.71.25Zm4.01.8Zm4.01.16l-1.21-.15c-1.02-.59-1.41-1.01-1.7-1.54L33 147.31c0-1.42.14-2.05.43-2.58l.68-.94c1.02-.6 1.59-.76 2.23-.76.81 0 1.49.21 2.03.63l.88.97-1.02.7-.31-.75c-.7-.47-1.12-.58-1.59-.58l-.75.1c-.67.39-.93.67-1.13 1.06l-.3.86c0 .99.06 1.37.17 1.7l.27.59.62.6.81.28.9-.05.74-.36.48-.66 1.22-.28-.49 1.24c-1.09.86-1.76 1.07-2.56 1.07Zm3.53-.16Zm3.62 0l-.76-.06-.82-.46c-.32-.6-.39-1.01-.39-1.52v-3.79H40.34v-.96h1.19l.15-1.65h.99v1.65h1.97v.96H42.66v3.79c0 .42.09.71.26.86l.47.22h1.16V150H43.5Zm1.67 0Zm1.05 0v-6.8h1.13V150H46.22Zm.57-8.25l-.41-.07-.37-.49.07-.63.49-.35.62.07.38.46-.08.64-.49.37ZM48.41 150Zm3.98.16l-1.2-.14c-1.01-.59-1.4-1-1.69-1.53l-.43-1.17c0-1.44.14-2.07.43-2.6l.7-.95c1.02-.59 1.59-.73 2.22-.73l1.22.15c1 .59 1.39 1 1.68 1.54l.45 1.16c0 1.44-.15 2.07-.45 2.61l-.7.94c-1.01.59-1.58.73-2.23.73Zm.01-.97l.75-.09c.67-.39.94-.68 1.14-1.07l.31-.86c0-1.14-.1-1.62-.31-2l-.46-.67c-.66-.39-1.02-.49-1.41-.49l-.74.1c-.68.39-.95.67-1.15 1.06l-.3.86c0 1.14.1 1.62.3 2.01l.47.68c.66.39 1.02.48 1.4.48Zm4.01.81Zm.94 0v-6.8h1.03l.05 1.19.52-.75c.8-.48 1.26-.6 1.77-.6l.99.11c.77.42 1.08.74 1.29 1.17l.32.96V150H62.21v-3.94c0-.68-.15-1.2-.46-1.54l-.72-.51c-.93 0-1.26.09-1.56.28l-.54.44c-.35.69-.44 1.12-.44 1.63V150H57.36Zm6.81 0Zm.95 0v-6.8h1.03l.05 1.19.52-.75c.8-.48 1.26-.6 1.77-.6l.99.11c.77.42 1.08.74 1.29 1.17l.32.96V150H69.96v-3.94c0-.68-.15-1.2-.46-1.54l-.72-.51c-.93 0-1.26.09-1.56.28l-.54.44c-.35.69-.44 1.12-.44 1.63V150H65.11Zm6.81 0Zm3.16.16l-1.01-.09c-.74-.39-1.01-.64-1.19-.96l-.27-.67c0-.84.12-1.22.35-1.54l.58-.57c.87-.33 1.39-.42 1.99-.42h1.8l-.07-.78-.45-.78-.8-.36c-.8 0-1.17.11-1.49.32l-.51.54-1.23.42.22-.89c.55-.66.9-.91 1.32-1.08l.86-.27c1.09 0 1.61.12 2.02.35l.74.55c.41.82.52 1.3.52 1.86V150H77.44l-.07-1.2-.21.37-.44.48-.59.34-.75.18Zm.18-.96l.6-.06.73-.44.5-.72c.19-.56.24-.85.24-1.16l-1.7-.04c-.44 0-.8.05-1.07.16l-.46.24-.29.58.05.69.39.5.71.25Zm4.01.8Zm4.51.16l-.74-.05-.89-.38c-.47-.38-.66-.6-.82-.85L81.24 150H80.21v-9.72h1.13v4.04c.22-.35.53-.65.93-.9l.9-.38c1.25 0 1.83.16 2.32.47l.88.73c.55 1.07.69 1.68.69 2.36l-.14 1.3c-.55 1.08-.93 1.5-1.43 1.81l-1.07.46Zm-.13-.99l.83-.11c.68-.43.95-.73 1.14-1.11l.3-.84c0-1.03-.1-1.48-.3-1.87l-.46-.69c-.68-.43-1.08-.54-1.52-.54l-.85.11c-.68.43-.95.73-1.14 1.12l-.28.84c0 1.03.09 1.49.28 1.88l.45.67c.68.43 1.08.54 1.53.54Zm4.08.82Zm.94 0v-9.72h1.13V150H88.66Zm2.06 0Zm3.93.16l-1.21-.15c-.98-.59-1.36-1.01-1.64-1.54l-.42-1.17c0-1.43.14-2.06.41-2.59l.67-.94c1-.6 1.58-.74 2.22-.74l1.23.15c.93.6 1.28.99 1.53 1.47l.38 1v.76l0 .31-5.57.13v-.88H96.7c-.03-.62-.23-1.11-.62-1.46l-.86-.53c-.96 0-1.32.09-1.66.27l-.58.43c-.4.67-.5 1.09-.5 1.6v.38l.1 1.03c.41.76.67 1.04.99 1.23l.69.28c.86 0 1.25-.1 1.55-.31l.54-.5 1.26-.36-.3.77c-.54.65-.88.9-1.28 1.09l-.86.27Zm3.74-.16Zm3.51.16l-1.06-.09c-.84-.38-1.17-.64-1.42-.97l-.39-.74 1.11-.46.14.45.48.56.8.3.94-.04.57-.32.26-.5-.07-.68-.45-.4-.81-.25c-.66-.12-.95-.19-1.24-.28l-.54-.21-.63-.48-.32-.7c0-.7.1-1.04.3-1.34l.48-.54c.75-.34 1.18-.43 1.68-.43l1.32.18c.9.7 1.16 1.21 1.25 1.88h-1.12l-.19-.61-.83-.49c-.86 0-1.18.09-1.4.26l-.32.4.06.62.42.4.77.28c.8.14 1.21.25 1.58.39l.67.34c.46.53.58.9.58 1.39l-.11.79c-.42.63-.72.88-1.11 1.06l-.84.26Zm6.85-.16Zm3.93.16l-1.21-.15c-.98-.59-1.36-1.01-1.64-1.54l-.42-1.17c0-1.43.13-2.06.4-2.59l.67-.94c1-.6 1.57-.74 2.22-.74l1.23.15c.93.6 1.28.99 1.53 1.47l.38 1v.76l0 .31-5.57.13v-.88h4.47c-.03-.62-.23-1.11-.62-1.46l-.86-.53c-.96 0-1.32.09-1.66.27l-.59.43c-.4.67-.5 1.09-.5 1.6v.38l.1 1.03c.4.76.67 1.04.99 1.23l.69.28c.85 0 1.25-.1 1.55-.31l.54-.5 1.26-.36-.3.77c-.54.65-.88.9-1.28 1.09l-.86.27Zm3.52-.16Zm3.62 0l-.76-.06-.82-.46c-.32-.6-.39-1.01-.39-1.52v-3.79h-1.19v-.96h1.19l.15-1.65h.99v1.65h1.97v.96h-1.97v3.79c0 .42.09.71.26.86l.47.22h1.16V150h-1.05Zm5.25 0Zm3.94.16l-1.23-.15c-.99-.62-1.37-1.05-1.64-1.59l-.4-1.15c0-1.37.13-1.98.4-2.51l.65-.96c1-.61 1.58-.76 2.24-.76l1.04.11c.84.45 1.16.77 1.39 1.17v-4.04h1.13V150h-1.03l-.09-1.12-.33.44-.72.55c-.63.24-.99.3-1.41.3Zm.13-.99l.85-.11c.68-.43.95-.73 1.14-1.11l.28-.84c0-1.03-.1-1.48-.28-1.87l-.45-.69c-.68-.43-1.08-.54-1.53-.54l-.83.11c-.68.43-.95.73-1.14 1.12l-.28.84c0 1.03.1 1.49.28 1.88l.45.67c.68.43 1.08.54 1.52.54Zm4.39.82Zm3.93.16l-1.21-.15c-.98-.59-1.36-1.01-1.64-1.54l-.42-1.17c0-1.43.13-2.06.4-2.59l.67-.94c1-.6 1.57-.74 2.22-.74l1.23.15c.93.6 1.28.99 1.52 1.47l.38 1v.76l0 .31-5.57.13v-.88h4.47c-.03-.62-.23-1.11-.62-1.46l-.86-.53c-.96 0-1.32.09-1.66.27l-.59.43c-.4.67-.5 1.09-.5 1.6v.38l.1 1.03c.4.76.67 1.04 1 1.23l.69.28c.86 0 1.25-.1 1.55-.31l.54-.5 1.25-.36-.3.77c-.54.65-.88.9-1.28 1.09l-.86.27Zm3.74-.16Zm3.51.16l-1.06-.09c-.84-.38-1.17-.64-1.42-.97l-.39-.74 1.11-.46.14.45.48.56.8.3.94-.04.57-.32.26-.5-.07-.68-.45-.4-.81-.25c-.66-.12-.95-.19-1.24-.28l-.55-.21-.63-.48-.32-.7c0-.7.1-1.04.3-1.34l.48-.54c.75-.34 1.18-.43 1.68-.43l1.32.18c.9.7 1.17 1.21 1.25 1.88h-1.12l-.19-.61-.83-.49c-.86 0-1.18.09-1.4.26l-.32.4.06.62.42.4.77.28c.8.14 1.21.25 1.58.39l.67.34c.46.53.58.9.58 1.39l-.11.79c-.42.63-.72.88-1.11 1.06l-.84.26Zm6.85-.16Zm.94 0v-6.8h1.03l.08 1.3.35-.57.76-.6c.67-.23 1.06-.29 1.49-.29v1.19h-.42l-.56.04-.76.28-.56.58c-.23.59-.28.94-.28 1.38V150h-1.13Zm4.05 0Zm3.16.16l-1.01-.09c-.74-.39-1.01-.64-1.19-.96l-.27-.67c0-.84.12-1.22.35-1.54l.58-.57c.87-.33 1.39-.42 1.99-.42h1.79l-.07-.78-.45-.78-.8-.36c-.8 0-1.17.11-1.49.32l-.51.54-1.23.42.22-.89c.55-.66.9-.91 1.32-1.08l.86-.27c1.09 0 1.61.12 2.02.35l.74.55c.41.82.52 1.3.52 1.86V150h-1.01l-.07-1.2-.21.37-.44.48-.59.34-.75.18Zm.18-.96l.6-.06.73-.44.5-.72c.19-.56.24-.85.24-1.16l-1.7-.04c-.44 0-.8.05-1.07.16l-.46.24-.29.58.05.69.39.5.71.25Zm4.01.8Zm.94 2.97V143.2h1.03l.09 1.11.33-.42.72-.55c.63-.24.99-.31 1.39-.31l1.24.16c.98.63 1.36 1.06 1.63 1.6l.42 1.14c0 1.37-.14 1.98-.42 2.52l-.65.95c-.99.61-1.57.77-2.24.77l-1.03-.11c-.84-.45-1.16-.76-1.38-1.17v4.09h-1.13Zm3.43-3.79l.83-.11c.68-.43.95-.73 1.14-1.11l.3-.84c0-1.03-.1-1.48-.3-1.87l-.45-.69c-.68-.43-1.08-.54-1.52-.54l-.85.11c-.68.43-.95.73-1.14 1.12l-.28.84c0 1.03.09 1.49.28 1.88l.46.67c.68.43 1.08.54 1.53.54Zm4.08.82Zm.95 2.97V143.2h1.03l.1 1.11.33-.42.72-.55c.63-.24.99-.31 1.39-.31l1.24.16c.98.63 1.36 1.06 1.63 1.6l.42 1.14c0 1.37-.14 1.98-.42 2.52l-.65.95c-.99.61-1.57.77-2.24.77l-1.03-.11c-.84-.45-1.16-.76-1.38-1.17v4.09h-1.13Zm3.43-3.79l.83-.11c.68-.43.95-.73 1.14-1.11l.3-.84c0-1.03-.1-1.48-.3-1.87l-.45-.69c-.68-.43-1.08-.54-1.52-.54l-.85.11c-.68.43-.95.73-1.14 1.12l-.28.84c0 1.03.1 1.49.28 1.88l.45.67c.68.43 1.08.54 1.53.54Zm4.08.82Zm3.98.16l-1.2-.14c-1.01-.59-1.4-1-1.69-1.53l-.43-1.17c0-1.44.14-2.07.43-2.6l.7-.95c1.02-.59 1.59-.73 2.22-.73l1.22.15c1 .59 1.39 1 1.68 1.54l.44 1.16c0 1.44-.15 2.07-.44 2.61l-.7.94c-1.01.59-1.58.73-2.23.73Zm.01-.97l.75-.09c.67-.39.94-.68 1.14-1.07l.31-.86c0-1.14-.1-1.62-.31-2l-.46-.67c-.66-.39-1.02-.49-1.41-.49l-.74.1c-.67.39-.94.67-1.15 1.06l-.3.86c0 1.14.1 1.62.3 2.01l.47.68c.66.39 1.02.48 1.4.48Zm4.01.81Zm.95 0v-6.8h1.03l.08 1.3.35-.57.76-.6c.68-.23 1.06-.29 1.49-.29v1.19h-.42l-.56.04-.76.28-.56.58c-.23.59-.28.94-.28 1.38V150h-1.13Zm4.05 0Zm3.62 0l-.76-.06-.82-.46c-.32-.6-.39-1.01-.39-1.52v-3.79h-1.19v-.96h1.19l.15-1.65h.99v1.65h1.97v.96H196.6v3.79c0 .42.09.71.26.86l.47.22h1.16V150h-1.05Zm1.67 0Zm3.51.16l-1.06-.09c-.84-.38-1.17-.64-1.42-.97l-.39-.74 1.11-.46.14.45.48.56.8.3.94-.04.57-.32.26-.5-.07-.68-.45-.4-.81-.25c-.66-.12-.95-.19-1.24-.28l-.54-.21-.63-.48-.32-.7c0-.7.1-1.04.3-1.34l.48-.54c.75-.34 1.18-.43 1.68-.43l1.32.18c.9.7 1.17 1.21 1.25 1.88h-1.12l-.19-.61-.83-.49c-.86 0-1.18.09-1.4.26l-.32.4.06.62.42.4.77.28c.8.14 1.21.25 1.58.39l.67.34c.46.53.58.9.58 1.39l-.11.79c-.42.63-.72.88-1.11 1.06l-.84.26Zm6.85-.16Zm.94 2.97V143.2h1.03l.09 1.11.33-.42.72-.55c.63-.24.99-.31 1.4-.31l1.24.16c.98.63 1.36 1.06 1.63 1.6l.42 1.14c0 1.37-.14 1.98-.42 2.52l-.65.95c-.99.61-1.57.77-2.24.77l-1.04-.11c-.84-.45-1.16-.76-1.38-1.17v4.09h-1.13Zm3.43-3.79l.83-.11c.68-.43.95-.73 1.14-1.11l.3-.84c0-1.03-.1-1.48-.3-1.87l-.45-.69c-.68-.43-1.08-.54-1.52-.54l-.85.11c-.68.43-.95.73-1.14 1.12l-.28.84c0 1.03.09 1.49.28 1.88l.45.67c.68.43 1.08.54 1.53.54Zm4.08.82Zm3.93.16l-1.21-.15c-.98-.59-1.36-1.01-1.64-1.54l-.42-1.17c0-1.43.13-2.06.4-2.59l.67-.94c1-.6 1.57-.74 2.22-.74l1.23.15c.93.6 1.28.99 1.52 1.47l.38 1v.76l0 .31-5.57.13v-.88h4.47c-.03-.62-.23-1.11-.62-1.46l-.86-.53c-.96 0-1.32.09-1.66.27l-.59.43c-.4.67-.5 1.09-.5 1.6v.38l.1 1.03c.4.76.67 1.04 1 1.23l.69.28c.86 0 1.25-.1 1.55-.31l.54-.5 1.25-.36-.3.77c-.54.65-.88.9-1.28 1.09l-.86.27Zm3.74-.16Zm.95 0v-6.8h1.03l.08 1.3.35-.57.76-.6c.68-.23 1.06-.29 1.49-.29v1.19h-.42l-.56.04-.76.28-.56.58c-.23.59-.28.94-.28 1.38V150h-1.13Zm4.05 0Zm3.51.16l-1.06-.09c-.84-.38-1.17-.64-1.42-.97l-.39-.74 1.11-.46.14.45.48.56.8.3.94-.04.57-.32.26-.5-.07-.68-.45-.4-.81-.25c-.66-.12-.95-.19-1.24-.28l-.54-.21-.63-.48-.32-.7c0-.7.1-1.04.3-1.34l.48-.54c.75-.34 1.18-.43 1.68-.43l1.32.18c.9.7 1.17 1.21 1.25 1.88h-1.12l-.19-.61-.83-.49c-.85 0-1.18.09-1.4.26l-.32.4.06.62.42.4.77.28c.8.14 1.21.25 1.58.39l.67.34c.46.53.58.9.58 1.39l-.11.79c-.42.63-.72.88-1.11 1.06l-.84.26Zm3.27-.16Zm3.98.16l-1.2-.14c-1.01-.59-1.4-1-1.69-1.53l-.43-1.17c0-1.44.14-2.07.43-2.6l.7-.95c1.02-.59 1.59-.73 2.22-.73l1.22.15c1 .59 1.39 1 1.68 1.54l.45 1.16c0 1.44-.15 2.07-.45 2.61l-.7.94c-1.01.59-1.58.73-2.23.73Zm.01-.97l.75-.09c.67-.39.94-.68 1.14-1.07l.31-.86c0-1.14-.1-1.62-.31-2l-.46-.67c-.66-.39-1.02-.49-1.41-.49l-.74.1c-.68.39-.95.67-1.15 1.06l-.3.86c0 1.14.1 1.62.3 2.01l.47.68c.66.39 1.02.48 1.4.48Zm4.01.81Zm.94 0v-6.8h1.03l.05 1.19.52-.75c.8-.48 1.26-.6 1.77-.6l.99.11c.77.42 1.08.74 1.29 1.17l.32.96V150h-1.13v-3.94c0-.68-.15-1.2-.46-1.54l-.72-.51c-.93 0-1.26.09-1.56.28l-.54.44c-.35.69-.44 1.12-.44 1.63V150h-1.13Zm6.81 0Zm.95 0v-6.8h1.03l.05 1.19.52-.75c.8-.48 1.26-.6 1.77-.6l.99.11c.77.42 1.07.74 1.29 1.17l.32.96V150h-1.13v-3.94c0-.68-.15-1.2-.46-1.54l-.72-.51c-.93 0-1.26.09-1.56.28l-.54.44c-.35.69-.44 1.12-.44 1.63V150h-1.13Zm6.81 0Zm3.16.16l-1.01-.09c-.74-.39-1.01-.64-1.19-.96l-.27-.67c0-.84.12-1.22.35-1.54l.58-.57c.87-.33 1.39-.42 1.98-.42h1.8l-.07-.78-.45-.78-.8-.36c-.8 0-1.17.11-1.49.32l-.51.54-1.23.42.22-.89c.55-.66.9-.91 1.32-1.08l.86-.27c1.09 0 1.61.12 2.02.35l.74.55c.41.82.52 1.3.52 1.86V150h-1.01l-.07-1.2-.21.37-.44.48-.59.34-.75.18Zm.17-.96l.6-.06.73-.44.5-.72c.19-.56.24-.85.24-1.16l-1.7-.04c-.44 0-.8.05-1.07.16l-.46.24-.29.58.05.69.39.5.71.25Zm4.01.8Zm.94 0v-9.72h1.13V150h-1.13Zm2.06 0Zm1.05 0v-6.8h1.13V150h-1.13Zm.57-8.25l-.41-.07-.37-.49.07-.63.49-.35.62.07.38.46-.08.64-.49.37Zm1.62 8.25Zm3.51.16l-1.06-.09c-.84-.38-1.17-.64-1.42-.97l-.39-.74 1.11-.46.14.45.48.56.8.3.94-.04.57-.32.26-.5-.07-.68-.45-.4-.81-.25c-.66-.12-.95-.19-1.24-.28l-.54-.21-.63-.48-.32-.7c0-.7.1-1.04.3-1.34l.48-.54c.75-.34 1.18-.43 1.68-.43l1.32.18c.9.7 1.17 1.21 1.25 1.88h-1.12l-.19-.61-.83-.49c-.85 0-1.18.09-1.4.26l-.32.4.06.62.42.4.77.28c.8.14 1.21.25 1.58.39l.67.34c.46.53.58.9.58 1.39l-.11.79c-.42.63-.72.88-1.11 1.06l-.84.26Zm3.27-.16Zm3.93.16l-1.21-.15c-.98-.59-1.36-1.01-1.64-1.54l-.42-1.17c0-1.43.13-2.06.4-2.59l.67-.94c1-.6 1.57-.74 2.22-.74l1.23.15c.93.6 1.28.99 1.53 1.47l.38 1v.76l0 .31-5.57.13v-.88h4.47c-.03-.62-.23-1.11-.62-1.46l-.86-.53c-.96 0-1.32.09-1.66.27l-.59.43c-.4.67-.5 1.09-.5 1.6v.38l.1 1.03c.4.76.67 1.04.99 1.23l.69.28c.86 0 1.25-.1 1.55-.31l.54-.5 1.26-.36-.3.77c-.54.65-.88.9-1.28 1.09l-.86.27Zm-1.35-7.55l-.12-.81 2.71-1.73.16.97-2.75 1.57Zm5.09 7.38Zm3.51.16l-1.06-.09c-.84-.38-1.17-.64-1.42-.97l-.39-.74 1.11-.46.14.45.48.56.8.3.94-.04.57-.32.26-.5-.07-.68-.45-.4-.81-.25c-.66-.12-.95-.19-1.24-.28l-.55-.21-.63-.48-.32-.7c0-.7.1-1.04.3-1.34l.48-.54c.75-.34 1.18-.43 1.68-.43l1.32.18c.9.7 1.17 1.21 1.25 1.88h-1.12l-.19-.61-.83-.49c-.86 0-1.18.09-1.4.26l-.32.4.06.62.42.4.77.28c.8.14 1.21.25 1.58.39l.67.34c.46.53.58.9.58 1.39l-.11.79c-.42.63-.72.88-1.11 1.06l-.84.26Zm3.27-.16Zm1.35.07l-.41-.07-.37-.48.07-.61.49-.37.63.08.36.48-.07.62-.47.37Zm0 0" clip-path="url(#i)"/><path fill="#b72a41" d="M270.5 43.02h34.12c6.9 0 12.5 5.6 12.5 12.5s-5.6 12.5-12.5 12.5H270.5c-6.9 0-12.5-5.6-12.5-12.5s5.6-12.5 12.5-12.5Z" clip-path="url(#i)" opacity="0.2"/><path d="M270.5 43.02v1h34.12v-1-1H270.5v1Zm34.12 25v-1H270.5v1 1h34.12v-1Zm-34.12 0v-1c-6.35 0-11.5-5.15-11.5-11.5h-1-1c0 7.46 6.04 13.5 13.5 13.5v-1Zm46.62-12.5h-1c0 6.35-5.15 11.5-11.5 11.5v1 1c7.46 0 13.5-6.04 13.5-13.5h-1Zm-12.5-12.5v1c6.35 0 11.5 5.15 11.5 11.5h1 1c0-7.46-6.04-13.5-13.5-13.5v1Zm-34.12 0v-1c-7.46 0-13.5 6.04-13.5 13.5h1 1c0-6.35 5.15-11.5 11.5-11.5v-1Z" clip-path="url(#i)"/><path fill="#b72a41" d="M273.56 55.52c0 2.21-1.79 4-4 4s-4-1.79-4-4 1.79-4 4-4 4 1.79 4 4Z" clip-path="url(#i)"/><path fill="#b72a41" d="M280.56 60.02Zm.36 0l3.34-9.1h1.42l3.34 9.1h-1.39l-2.67-7.54-2.68 7.54h-1.36Zm1.51-2.25l.36-1.04h4.28l.36 1.04h-5.01Zm6.6 2.25Zm3.91.16c-.63 0-1.2-.14-1.69-.43s-.88-.7-1.17-1.21-.42-1.11-.42-1.78.14-1.28.42-1.79.68-.92 1.17-1.21 1.06-.44 1.69-.44c.8 0 1.46.21 2 .62s.88.98 1.03 1.69h-1.35c-.09-.38-.29-.68-.6-.88s-.67-.31-1.09-.31c-.35 0-.67.09-.96.27s-.53.43-.71.78-.26.76-.26 1.26c0 .37.05.71.16 1s.24.53.42.73.39.35.62.46.48.14.74.14c.29 0 .54-.04.77-.13s.43-.23.59-.42.28-.4.34-.65h1.35c-.15.69-.49 1.25-1.03 1.68s-1.2.62-2 .62Zm3.53-.16Zm3.59 0c-.42 0-.78-.07-1.08-.19s-.54-.35-.7-.65-.25-.71-.25-1.24V54.58H296.9v-1.1h1.13l.16-1.64h1.14v1.64h1.86v1.1h-1.86v3.38c0 .37.08.63.23.77s.42.2.81.2h.75v1.1h-1.07Zm1.68 0Zm.97 0V53.47h1.3v6.55h-1.3Zm.66-7.79c-.25 0-.46-.08-.62-.23s-.23-.36-.23-.6.08-.42.23-.57.37-.23.62-.23.45.08.61.23.25.34.25.57-.08.44-.25.6-.37.23-.61.23Zm1.61 7.79Zm1.23 0V52.59c0-.45.07-.82.22-1.1s.38-.49.68-.62.65-.2 1.07-.2h.77v1.1h-.56c-.31 0-.54.07-.68.2s-.2.34-.2.65v7.41h-1.3Zm-.96-5.45v-1.1h3.83v1.1h-3.83Z" clip-path="url(#i)"/><path fill="#ffffff" d="M81.89 49.29Zm.34 0L86.2 38.44h2.37l3.95 10.85H90.31l-2.93-8.46-2.95 8.46h-2.2Zm1.75-2.46l.56-1.63h5.52l.54 1.63H83.98Zm8.9 2.46Zm4.39 3.6c-.74 0-1.39-.09-1.95-.28-.56-.18-.99-.45-1.3-.82-.3-.36-.45-.81-.45-1.35 0-.36.09-.7.28-1.02s.45-.61.81-.87c.36-.27.81-.5 1.35-.68l.79 1.02c-.48.15-.82.35-1.04.57-.21.24-.31.49-.31.76 0 .24.08.44.23.6.17.17.38.28.65.36.28.08.59.12.93.12.33 0 .61-.04.85-.12.25-.08.44-.21.57-.37.14-.15.22-.34.22-.56 0-.28-.1-.51-.29-.68s-.59-.28-1.18-.33c-.53-.04-1-.1-1.41-.17-.4-.08-.76-.18-1.07-.28-.31-.11-.57-.24-.79-.37-.21-.13-.38-.27-.51-.4v-.36l1.66-1.78 1.5.48-1.95 1.92.59-1.02c.11.06.22.12.33.19.11.05.25.1.42.15.17.04.38.08.65.12s.61.08 1.02.11c.68.06 1.24.19 1.67.39.44.2.77.46.98.79.21.32.31.72.31 1.19 0 .46-.13.9-.39 1.3-.25.41-.64.74-1.16.99-.53.26-1.19.39-2 .39Zm0-5.91c-.65 0-1.21-.12-1.69-.37-.47-.26-.83-.6-1.09-1.02-.25-.43-.37-.91-.37-1.44s.12-1 .37-1.43c.26-.43.62-.78 1.09-1.04.48-.26 1.04-.39 1.69-.39.66 0 1.22.13 1.69.39.48.26.84.6 1.09 1.04.25.42.37.9.37 1.43s-.12 1.01-.37 1.44c-.25.42-.61.76-1.09 1.02-.46.25-1.03.37-1.69.37Zm0-1.6c.4 0 .73-.1.98-.31s.37-.51.37-.91-.12-.71-.37-.91c-.25-.22-.57-.33-.98-.33-.39 0-.72.11-.98.33-.25.21-.37.51-.37.91s.12.71.37.91c.26.21.58.31.98.31Zm1.3-2.42l-.34-1.49h3.21v1.24l-2.87.25Zm3.24 6.32Zm4.77.19c-.79 0-1.48-.17-2.09-.5-.6-.34-1.07-.81-1.41-1.41-.33-.61-.5-1.31-.5-2.11 0-.82.17-1.53.5-2.15.34-.63.81-1.12 1.41-1.47.6-.36 1.3-.54 2.09-.54.78 0 1.45.17 2.03.51s1.03.8 1.35 1.38.48 1.23.48 1.97c0 .1 0 .22 0 .36 0 .12-.01.25-.03.39h-6.34V44.62h4.26c-.03-.51-.21-.9-.54-1.19-.32-.29-.72-.43-1.21-.43-.35 0-.68.08-.98.25-.3.15-.54.4-.71.73-.17.33-.25.75-.25 1.26v.45c0 .42.08.8.23 1.12.17.31.39.55.68.73.29.17.63.25 1.01.25s.7-.08.95-.25c.26-.17.45-.38.57-.64h2.14c-.14.49-.39.92-.73 1.32s-.76.7-1.26.93-1.05.34-1.66.34Zm4.55-.19Zm1.02 0V41.47H114l.16 1.27c.24-.43.57-.79 1.01-1.05.44-.27.97-.4 1.58-.4.65 0 1.2.13 1.64.4s.78.66 1.01 1.18c.24.52.36 1.15.36 1.91v4.51h-2.08V44.98c0-.62-.13-1.1-.4-1.43-.26-.33-.66-.5-1.21-.5-.35 0-.67.08-.95.25-.27.17-.48.4-.64.71-.16.3-.23.67-.23 1.1v4.17h-2.09Zm8.54 0Zm4.54 0c-.55 0-1.03-.08-1.44-.25-.4-.18-.72-.46-.95-.85-.23-.4-.34-.95-.34-1.64V43.22h-1.33V41.47h1.33l.23-2.12h1.86v2.12h2.06v1.75h-2.06v3.35c0 .35.08.59.23.73s.42.2.79.2h1.02v1.78h-1.41Zm5.81 0Zm.34 0l3.97-10.85h2.37l3.95 10.85h-2.22l-2.93-8.46-2.95 8.46h-2.2Zm1.75-2.46l.56-1.63h5.52l.54 1.63h-6.62Zm8.9 2.46Zm1.02 0V41.47h1.84l.16 1.27c.24-.43.57-.79 1.01-1.05.44-.27.97-.4 1.58-.4.65 0 1.2.13 1.64.4s.78.66 1.01 1.18c.24.52.36 1.15.36 1.91v4.51h-2.08V44.98c0-.62-.13-1.1-.4-1.43-.26-.33-.66-.5-1.21-.5-.35 0-.67.08-.95.25-.27.17-.48.4-.64.71-.16.3-.23.67-.23 1.1v4.17h-2.09Zm8.54 0Zm3.66.19c-.65 0-1.19-.1-1.61-.31-.42-.22-.74-.5-.95-.85-.2-.36-.29-.76-.29-1.19 0-.48.12-.89.36-1.26.25-.36.61-.65 1.1-.85.5-.21 1.12-.31 1.86-.31h1.94c0-.38-.05-.7-.15-.95-.1-.26-.26-.45-.48-.57s-.51-.19-.87-.19c-.39 0-.73.09-1.01.26-.27.17-.43.42-.5.77h-2.03c.05-.56.23-1.04.54-1.44.32-.41.74-.73 1.26-.96.53-.23 1.11-.34 1.75-.34.73 0 1.37.12 1.91.37s.95.6 1.24 1.07.43 1.04.43 1.72v4.84H158l-.23-1.19c-.11.21-.25.39-.4.56s-.34.31-.54.43-.44.22-.7.28c-.26.07-.54.11-.85.11Zm.5-1.61c.27 0 .51-.05.71-.14.22-.1.4-.24.56-.4.16-.18.27-.37.36-.59.09-.23.16-.47.19-.73v-.02h-1.6c-.32 0-.58.04-.79.12-.2.07-.34.18-.43.33s-.14.31-.14.5c0 .21.05.38.14.51s.23.24.4.31.38.11.6.11Zm4.93 1.43Zm1.02 0V38.13h2.09V49.29h-2.09Zm3.11 0Zm2.02 3.41l1.89-4.28h-.47l-3.13-6.94h2.28l2.23 5.04 2.02-5.04h2.22L169.06 52.7h-2.22Zm7.34-3.41Zm4.54 0c-.55 0-1.03-.08-1.44-.25-.4-.18-.72-.46-.95-.85-.23-.4-.34-.95-.34-1.64V43.22h-1.33V41.47h1.33l.23-2.12h1.86v2.12h2.06v1.75h-2.06v3.35c0 .35.08.59.23.73s.42.2.79.2h1.02v1.78h-1.41Zm2.16 0Zm1.07 0V41.47h2.09v7.81h-2.09Zm1.05-8.88c-.37 0-.68-.11-.93-.33-.24-.23-.36-.51-.36-.85s.12-.62.36-.84c.25-.23.56-.34.93-.34.38 0 .69.11.93.34.25.22.37.5.37.84s-.12.63-.37.85c-.24.22-.55.33-.93.33Zm2.13 8.88Zm4.8.19c-.79 0-1.48-.18-2.09-.53s-1.09-.83-1.43-1.44-.51-1.31-.51-2.09c0-.81.17-1.51.51-2.12.34-.62.82-1.11 1.43-1.46.61-.36 1.31-.54 2.09-.54 1 0 1.84.26 2.53.79s1.12 1.25 1.3 2.17h-2.22c-.09-.36-.29-.65-.59-.85-.29-.21-.64-.31-1.04-.31-.36 0-.69.09-.98.28-.28.18-.5.44-.67.79-.15.34-.23.75-.23 1.22 0 .36.05.69.14.98.09.28.22.52.39.73.17.2.36.35.59.45.24.1.49.15.76.15s.51-.05.73-.14c.23-.09.42-.22.57-.39.16-.18.26-.39.33-.64h2.22c-.19.9-.63 1.62-1.32 2.15-.68.53-1.52.79-2.51.79Zm4.61-.19Zm4.22.19c-.71 0-1.33-.11-1.86-.34s-.94-.54-1.24-.95-.47-.86-.51-1.36h2.08c.05.2.14.38.26.54.12.15.29.28.5.37s.45.14.74.14c.28 0 .51-.04.68-.11.18-.08.3-.19.39-.33.09-.13.14-.27.14-.42 0-.22-.06-.38-.19-.5-.12-.12-.3-.22-.54-.29s-.53-.14-.87-.22c-.37-.07-.74-.16-1.1-.26-.35-.11-.67-.25-.95-.42s-.5-.38-.67-.64-.25-.58-.25-.96c0-.47.12-.88.37-1.24.25-.37.61-.67 1.09-.88s1.05-.33 1.72-.33c.94 0 1.68.21 2.23.64s.87 1.01.98 1.75h-1.97c-.06-.24-.2-.42-.42-.56-.21-.14-.49-.22-.84-.22-.37 0-.66.07-.85.2s-.29.31-.29.53c0 .14.06.27.19.39.13.11.32.21.56.29.24.07.53.14.87.22.6.12 1.13.27 1.58.43.45.15.81.38 1.07.68.26.29.39.71.39 1.27 0 .5-.13.94-.4 1.33-.27.38-.65.68-1.15.9-.49.22-1.06.33-1.74.33Z" clip-path="url(#i)"/><path fill="#425c84" d="M82 74.14Zm1.05 0v-9.8h3.44c.69 0 1.26.11 1.71.34l.8.51c.45.76.56 1.18.56 1.64l-.11.92c-.44.67-.72.93-1.08 1.11l-.71.29-.2-.1.81.12c.71.43.99.72 1.19 1.08l.32.77c0 .94-.12 1.4-.36 1.81l-.6.72c-.94.48-1.52.59-2.21.59H83.05Zm1.18-.98h2.25c.66 0 1.18-.15 1.54-.46l.56-.76c0-1.11-.19-1.55-.57-1.88l-.89-.5H84.23v3.6Zm0-4.54h2.18c.63 0 1.12-.15 1.44-.45l.5-.7c0-1.01-.17-1.4-.5-1.7l-.82-.45h-2.8v3.3Zm6.21 5.52Zm3.54.17l-1.02-.11c-.81-.43-1.12-.76-1.35-1.21l-.32-1.01v-4.9h1.18v4.1c0 .7.15 1.23.46 1.58l.74.53c.95 0 1.31-.09 1.62-.28l.56-.47c.36-.72.46-1.16.46-1.68V67.08h1.18v7.06H96.43l-.07-1.23-.53.78c-.84.49-1.32.62-1.85.62Zm4.48-.17Zm3.64.17l-1.1-.1c-.87-.39-1.21-.66-1.48-1.01l-.41-.77 1.15-.48.14.47.5.58.83.31c.7 0 .97-.05 1.19-.14l.37-.24.27-.52-.07-.7-.47-.42-.84-.26c-.68-.12-.98-.2-1.28-.29l-.56-.21-.65-.5-.34-.72c0-.73.1-1.08.31-1.39l.5-.56c.77-.36 1.23-.44 1.74-.44l1.37.18c.93.73 1.21 1.26 1.29 1.95H103.4l-.2-.63-.86-.5c-.89 0-1.22.09-1.46.27l-.34.41.06.64.44.41.8.29c.83.15 1.25.26 1.64.4l.69.35c.48.55.6.94.6 1.44l-.11.82c-.44.65-.75.91-1.15 1.1l-.87.27Zm3.39-.17Zm1.09 0V67.08h1.18v7.06h-1.18Zm.59-8.55l-.43-.07-.38-.5.08-.65.5-.36.65.07.4.48-.08.66-.51.38Zm1.68 8.55Zm.98 0V67.08h1.06l.06 1.23.54-.78c.83-.5 1.31-.62 1.84-.62l1.03.11c.8.44 1.12.77 1.34 1.22l.34 1v4.89h-1.18V70.05c0-.71-.16-1.24-.48-1.6l-.75-.53c-.96 0-1.31.1-1.62.29l-.56.46c-.36.72-.45 1.16-.45 1.69v3.77h-1.18Zm7.06 0Zm4.07.17l-1.25-.15c-1.02-.62-1.41-1.05-1.7-1.6l-.43-1.21c0-1.48.14-2.13.42-2.68l.69-.98c1.04-.62 1.63-.77 2.31-.77l1.27.15c.96.62 1.33 1.02 1.58 1.53l.39 1.04v.79l0 .32-5.78.13v-.91h4.63c-.03-.64-.24-1.15-.64-1.51l-.89-.55c-1 0-1.37.09-1.72.28l-.61.44c-.41.7-.51 1.13-.51 1.66v.39l.1 1.06c.42.78.7 1.08 1.03 1.27l.71.29c.89 0 1.29-.11 1.61-.32l.56-.52 1.3-.37-.31.8c-.56.67-.91.94-1.33 1.13l-.89.28Zm3.88-.17Zm3.64.17l-1.1-.1c-.87-.39-1.21-.66-1.47-1.01l-.41-.77 1.15-.48.14.47.5.58.83.31c.7 0 .97-.05 1.19-.14l.37-.24.27-.52-.07-.7-.47-.42-.84-.26c-.68-.12-.99-.2-1.28-.29l-.57-.21-.65-.5-.34-.72c0-.73.1-1.08.31-1.39l.5-.56c.77-.36 1.23-.44 1.74-.44l1.37.18c.93.73 1.21 1.26 1.29 1.95h-1.16l-.2-.63-.86-.5c-.89 0-1.22.09-1.46.27l-.34.41.06.64.44.41.8.29c.83.15 1.25.26 1.64.4l.69.35c.48.55.6.94.6 1.44l-.11.82c-.44.65-.75.91-1.15 1.1l-.87.27Zm3.39-.17Zm3.64.17l-1.1-.1c-.87-.39-1.21-.66-1.48-1.01l-.41-.77 1.15-.48.14.47.5.58.83.31c.7 0 .97-.05 1.19-.14l.37-.24.27-.52-.07-.7-.47-.42-.84-.26c-.68-.12-.98-.2-1.28-.29l-.57-.21-.65-.5-.34-.72c0-.73.1-1.08.31-1.39l.5-.56c.77-.36 1.23-.44 1.74-.44l1.37.18c.93.73 1.21 1.26 1.29 1.95h-1.16l-.2-.63-.86-.5c-.89 0-1.22.09-1.46.27l-.34.41.06.64.44.41.8.29c.83.15 1.25.26 1.64.4l.69.35c.48.55.6.94.6 1.44l-.11.82c-.44.65-.75.91-1.15 1.1l-.87.27Zm7.11-.17Zm1.05 0v-9.8h1.18v9.8h-1.18Zm2.23 0Zm.98 0V67.08h1.06l.06 1.23.54-.78c.83-.5 1.31-.62 1.84-.62l1.03.11c.8.44 1.12.77 1.34 1.22l.34 1v4.89h-1.18V70.05c0-.71-.16-1.24-.48-1.6l-.75-.53c-.96 0-1.31.1-1.62.29l-.56.46c-.36.72-.45 1.16-.45 1.69v3.77h-1.18Zm7.06 0Zm3.75 0l-.78-.07-.85-.48c-.33-.62-.41-1.05-.41-1.58V68.08h-1.23v-.99h1.23l.15-1.71h1.02v1.71h2.04v.99h-2.04v3.93c0 .44.09.74.27.9l.49.22h1.2v1.01h-1.09Zm1.54 0Zm4.07.17l-1.25-.15c-1.02-.62-1.41-1.05-1.7-1.6l-.43-1.21c0-1.48.14-2.13.42-2.68l.69-.98c1.04-.62 1.63-.77 2.3-.77l1.27.15c.96.62 1.33 1.02 1.58 1.53l.39 1.04v.79l0 .32-5.78.13v-.91h4.63c-.03-.64-.24-1.15-.64-1.51l-.89-.55c-1 0-1.37.09-1.72.28l-.61.44c-.41.7-.51 1.13-.51 1.66v.39l.1 1.06c.42.78.7 1.08 1.03 1.27l.71.29c.89 0 1.29-.11 1.61-.32l.56-.52 1.3-.37-.31.8c-.56.67-.91.94-1.33 1.13l-.89.28Zm3.88-.17Zm.98 0V64.06h1.18V74.14h-1.18Zm2.14 0Zm.98 0V64.06h1.18V74.14h-1.18Zm2.14 0Zm1.09 0V67.08h1.18v7.06h-1.18Zm.59-8.55l-.43-.07-.38-.5.07-.65.5-.36.65.07.4.48-.08.66-.51.38Zm1.68 8.55Zm3.77 3.25l-1.2-.08c-.98-.33-1.36-.57-1.63-.91l-.41-.75.04-.94.33-.72c.44-.47.75-.68 1.15-.86l.81.48-.82.44-.37.78.09.79.6.57c.63.2.99.26 1.39.26l.75-.06.8-.38.4-.65-.12-.88c-.49-.44-.95-.56-1.63-.6l-1.01-.09c-.75-.13-1.05-.21-1.3-.29l-.45-.2-.47-.34-.13-.44 1.36-1.34 1.02.36-1.4 1.26.18-.49.2.14.31.19.54.13.95.11c1.11.08 1.62.2 2.01.37l.67.42c.35.6.43.95.43 1.36l-.11.78c-.44.72-.77 1.02-1.23 1.25l-1.04.35Zm-.01-5.46l-1.09-.11c-.83-.45-1.14-.75-1.36-1.12l-.32-.81c0-.93.11-1.35.32-1.73l.54-.67c.82-.46 1.32-.57 1.91-.57l1.09.12c.82.46 1.13.76 1.35 1.13l.32.79c0 .93-.11 1.36-.32 1.74l-.53.67c-.82.45-1.32.56-1.91.56Zm0-.97l.9-.13c.58-.52.72-.91.72-1.41l-.14-.87c-.58-.52-.98-.65-1.48-.65l-.9.13c-.61.52-.76.9-.76 1.4l.15.89c.6.52 1 .65 1.5.65Zm1.15-2.88l-.35-.99h2.88v.88l-2.53.11Zm2.63 6.06Zm4.07.17l-1.25-.15c-1.02-.62-1.41-1.05-1.7-1.6l-.43-1.21c0-1.48.14-2.13.42-2.68l.69-.98c1.04-.62 1.63-.77 2.31-.77l1.27.15c.96.62 1.33 1.02 1.58 1.53l.39 1.04v.79l0 .32-5.78.13v-.91h4.63c-.03-.64-.24-1.15-.64-1.51l-.89-.55c-1 0-1.37.09-1.72.28l-.61.44c-.41.7-.51 1.13-.51 1.66v.39l.1 1.06c.42.78.7 1.08 1.03 1.27l.71.29c.89 0 1.29-.11 1.61-.32l.56-.52 1.3-.37-.31.8c-.56.67-.91.94-1.33 1.13l-.89.28Zm3.88-.17Zm.98 0V67.08h1.06l.06 1.23.54-.78c.83-.5 1.31-.62 1.84-.62l1.03.11c.8.44 1.12.77 1.34 1.22l.34 1v4.89h-1.18V70.05c0-.71-.16-1.24-.48-1.6l-.75-.53c-.96 0-1.31.1-1.62.29l-.56.46c-.36.72-.45 1.16-.45 1.69v3.77h-1.18Zm7.06 0Zm4.16.17l-1.26-.15c-1.05-.62-1.47-1.05-1.76-1.6l-.45-1.2c0-1.47.15-2.12.45-2.67l.71-.98c1.05-.62 1.65-.78 2.31-.78.84 0 1.54.22 2.1.66s.92 1.01 1.06 1.74h-1.2c-.09-.44-.32-.78-.69-1.02l-.79-.36c-.9 0-1.27.1-1.62.31l-.62.49c-.41.8-.51 1.3-.51 1.88l.06.83c.24.68.41.96.61 1.18l.44.4.84.29c.63 0 .94-.05 1.21-.15l.5-.27.5-.68 1.27-.29-.51 1.29c-1.13.89-1.83 1.11-2.66 1.11Zm3.85-.17Zm4.07.17l-1.25-.15c-1.02-.62-1.41-1.05-1.7-1.6l-.43-1.21c0-1.48.14-2.13.42-2.68l.69-.98c1.04-.62 1.63-.77 2.3-.77l1.27.15c.96.62 1.33 1.02 1.58 1.53l.39 1.04v.79l0 .32-5.78.13v-.91h4.63c-.03-.64-.24-1.15-.64-1.51l-.89-.55c-1 0-1.37.09-1.72.28l-.61.44c-.41.7-.51 1.13-.51 1.66v.39l.1 1.06c.42.78.7 1.08 1.03 1.27l.71.29c.89 0 1.29-.11 1.61-.32l.56-.52 1.3-.37-.31.8c-.56.67-.91.94-1.33 1.13l-.89.28Zm0 0" clip-path="url(#i)"/><path fill="#0084c7" d="M35 34.14H58.89c5.52 0 10 4.48 10 10V68.02c0 5.52-4.48 10-10 10H35c-5.52 0-10-4.48-10-10V44.14c0-5.52 4.48-10 10-10Z" clip-path="url(#i)"/><path fill="#5cc8ff" d="M35 34.14v1H58.89v-1-1H35v1Zm33.89 10h-1V68.02h1 1V44.14h-1Zm-10 33.89v-1H35v1 1H58.89v-1ZM25 68.02h1V44.14H25 24V68.02h1Zm10 10v-1c-4.97 0-9-4.03-9-9H25 24c0 6.08 4.92 11 11 11v-1Zm33.89-10h-1c0 4.97-4.03 9-9 9v1 1c6.08 0 11-4.92 11-11h-1Zm-10-33.89v1c4.97 0 9 4.03 9 9h1 1c0-6.08-4.92-11-11-11v1ZM35 34.14v-1c-6.08 0-11 4.92-11 11h1 1c0-4.97 4.03-9 9-9v-1Z" clip-path="url(#j)"/></g></g></svg>